<svg width="36" height="37" viewBox="0 0 36 37" fill="none" xmlns="http://www.w3.org/2000/svg">
<g clip-path="url(#clip0_3302_74)">
<path d="M9.22081 0.640137H21.2661L31.4624 11.2781V31.957C31.4624 34.5436 29.3659 36.6401 26.7792 36.6401H9.22081C6.63412 36.6401 4.53763 34.5436 4.53763 31.957V5.32332C4.53763 2.73667 6.63412 0.640137 9.22081 0.640137Z" fill="#0263D1"/>
<path opacity="0.302" fill-rule="evenodd" clip-rule="evenodd" d="M21.2516 0.640137V11.1907H31.4624L21.2516 0.640137Z" fill="white"/>
<path d="M8.88594 26.3274V20.3679H10.997C11.4192 20.3679 11.8124 20.431 12.1763 20.5475C12.5403 20.6688 12.8703 20.8435 13.1664 21.0765C13.4624 21.3094 13.6954 21.62 13.8652 22.0082C14.0351 22.3965 14.1225 22.843 14.1225 23.3477C14.1225 23.8524 14.0351 24.2989 13.8652 24.6871C13.6954 25.0753 13.4624 25.3859 13.1664 25.6189C12.8704 25.8518 12.5403 26.0265 12.1763 26.1479C11.8124 26.2644 11.4193 26.3274 10.997 26.3274H8.88594ZM10.3758 25.0317H10.8175C11.0553 25.0317 11.2785 25.0026 11.4775 24.9492C11.6813 24.891 11.8657 24.7988 12.0404 24.6774C12.2151 24.556 12.351 24.3814 12.448 24.1533C12.55 23.93 12.5985 23.6582 12.5985 23.3477C12.5985 23.0371 12.5499 22.7653 12.448 22.5372C12.351 22.314 12.2151 22.1392 12.0404 22.0179C11.8657 21.8918 11.6813 21.8044 11.4775 21.7462C11.2785 21.6927 11.0553 21.6636 10.8175 21.6636H10.3758V25.0317ZM17.738 26.3954C16.8402 26.3954 16.0976 26.1042 15.5104 25.5267C14.9232 24.9492 14.632 24.2212 14.632 23.3477C14.632 22.4742 14.9232 21.7462 15.5104 21.1687C16.0976 20.5912 16.8402 20.3 17.738 20.3C18.6212 20.3 19.354 20.5912 19.9412 21.1687C20.5236 21.7462 20.8148 22.4742 20.8148 23.3477C20.8148 24.2212 20.5236 24.9492 19.9412 25.5267C19.354 26.1042 18.6212 26.3954 17.738 26.3954ZM16.5926 24.6046C16.8886 24.9346 17.2672 25.0996 17.7282 25.0996C18.1893 25.0996 18.5629 24.9346 18.859 24.6046C19.155 24.2698 19.3006 23.8524 19.3006 23.3477C19.3006 22.843 19.155 22.4256 18.859 22.0907C18.563 21.7607 18.1893 21.5957 17.7282 21.5957C17.2672 21.5957 16.8886 21.7607 16.5926 22.0907C16.2966 22.4256 16.1461 22.843 16.1461 23.3477C16.1461 23.8524 16.2966 24.2698 16.5926 24.6046ZM24.3575 26.3954C23.4888 26.3954 22.7657 26.1236 22.1931 25.5898C21.6155 25.0511 21.3292 24.3037 21.3292 23.3477C21.3292 22.3965 21.6204 21.6491 22.2028 21.1104C22.79 20.5717 23.5034 20.2999 24.3576 20.2999C25.1292 20.2999 25.7601 20.4892 26.26 20.8726C26.755 21.2511 27.0413 21.7558 27.1141 22.3867L25.6096 22.6925C25.5466 22.3625 25.3961 22.0956 25.1632 21.8966C24.9302 21.6976 24.6584 21.5957 24.3478 21.5957C23.9208 21.5957 23.5665 21.7462 23.2801 22.0519C22.9938 22.3624 22.8482 22.7895 22.8482 23.3476C22.8482 23.9057 22.9938 24.3328 23.2753 24.6386C23.5616 24.9491 23.9159 25.0996 24.3478 25.0996C24.6584 25.0996 24.9253 25.0123 25.1437 24.8376C25.3621 24.6628 25.498 24.4299 25.5562 24.1387L27.0946 24.4881C26.9539 25.0899 26.6433 25.5558 26.158 25.8906C25.6776 26.2256 25.0758 26.3954 24.3575 26.3954Z" fill="white"/>
</g>
<defs>
<clipPath id="clip0_3302_74">
<rect width="36" height="36" fill="white" transform="translate(0 0.640137)"/>
</clipPath>
</defs>
</svg>
