<svg width="24" height="24" viewBox="0 0 24 24" fill="none" xmlns="http://www.w3.org/2000/svg">
<path d="M8.33436 1.50055H14.8443L8.0863 21.5356C8.05174 21.6379 8.00145 21.7342 7.93724 21.821C7.87316 21.9079 7.79588 21.9841 7.70815 22.0471C7.62042 22.1101 7.52361 22.159 7.42075 22.192C7.3179 22.225 7.21064 22.2421 7.10283 22.2421H2.03646C1.872 22.2421 1.70974 22.203 1.56344 22.1277C1.41697 22.0525 1.29054 21.9435 1.19464 21.8098C1.09867 21.676 1.03589 21.5213 1.01148 21.3584C0.986999 21.1956 1.00185 21.0293 1.05438 20.8733L7.35062 2.20652C7.385 2.10421 7.43533 2.00796 7.49968 1.92105C7.56376 1.83415 7.64132 1.75797 7.72877 1.69499C7.8165 1.63201 7.91331 1.58306 8.01617 1.55005C8.11902 1.51705 8.22628 1.5 8.33409 1.5V1.50028L8.33436 1.50055Z" fill="url(#paint0_linear_17551_28099)"/>
<path d="M20.3349 22.2421H14.4894C14.4242 22.2421 14.3591 22.236 14.2947 22.2236C14.2306 22.2115 14.1677 22.1934 14.1069 22.1695C14.0461 22.1455 13.9878 22.1158 13.9325 22.0812C13.8773 22.0463 13.8255 22.0063 13.7777 21.9618L7.14427 15.7668C7.07411 15.7013 7.02524 15.6162 7.00401 15.5226C6.98279 15.4289 6.99026 15.3311 7.02543 15.2418C7.0606 15.1525 7.12184 15.0758 7.20119 15.0218C7.28067 14.9679 7.37446 14.939 7.47044 14.939H17.7935L20.3344 22.2423L20.3349 22.2421Z" fill="#0078D4"/>
<path d="M14.8678 1.50059L10.3107 14.9404L17.7566 14.9388L20.3107 22.2421H14.4872C14.4269 22.2416 14.3667 22.2361 14.3073 22.2253C14.2479 22.2146 14.1896 22.1989 14.1329 22.178C14.0193 22.1366 13.9137 22.0761 13.8205 21.999L9.34269 17.8198L8.08916 21.5166C8.05671 21.609 8.01215 21.6968 7.9566 21.7773C7.84525 21.9394 7.69296 22.0692 7.5152 22.1533C7.4267 22.1952 7.333 22.225 7.2366 22.2421H2.0396C1.87349 22.2427 1.70958 22.2031 1.5619 22.1266C1.41419 22.0502 1.28705 21.9394 1.19121 21.8035C1.09538 21.6676 1.03367 21.5106 1.01131 21.3458C0.989032 21.181 1.00667 21.0132 1.06274 20.8566L7.34881 2.22059C7.38154 2.11636 7.43077 2.01818 7.49457 1.92962C7.5581 1.84106 7.63565 1.76296 7.72366 1.69861C7.81167 1.63425 7.90957 1.5842 8.01325 1.55065C8.11693 1.51709 8.22557 1.50004 8.33475 1.50059H14.8681H14.8678Z" fill="url(#paint1_linear_17551_28099)"/>
<path d="M22.9456 20.8733C22.9982 21.0293 23.013 21.1956 22.9888 21.3584C22.9643 21.5212 22.9017 21.6759 22.8059 21.8097C22.71 21.9434 22.5836 22.0524 22.4372 22.1276C22.2908 22.2028 22.1286 22.242 21.9641 22.2421H14.7086C14.873 22.2421 15.0353 22.2027 15.1819 22.1277C15.3282 22.0526 15.4547 21.9434 15.5507 21.8097C15.6467 21.6761 15.7094 21.5212 15.7338 21.3584C15.7583 21.1956 15.7435 21.0292 15.6909 20.8733L9.39441 2.20595C9.3251 2.00032 9.19303 1.8216 9.01681 1.69497C8.92936 1.63199 8.83255 1.58331 8.72997 1.55031C8.62739 1.51731 8.52013 1.50053 8.4126 1.50053H15.6678C15.7756 1.50053 15.8826 1.51731 15.9855 1.55031C16.0881 1.58331 16.1849 1.63227 16.2726 1.69497C16.36 1.75795 16.4373 1.83413 16.5014 1.92076C16.5655 2.00739 16.6155 2.10365 16.6502 2.20595L22.9467 20.8733H22.9456Z" fill="url(#paint2_linear_17551_28099)"/>
<defs>
<linearGradient id="paint0_linear_17551_28099" x1="10.7102" y1="3.0379" x2="3.94481" y2="23.0234" gradientUnits="userSpaceOnUse">
<stop stop-color="#114A8B"/>
<stop offset="1" stop-color="#0669BC"/>
</linearGradient>
<linearGradient id="paint1_linear_17551_28099" x1="12.8197" y1="12.35" x2="11.2549" y2="12.8808" gradientUnits="userSpaceOnUse">
<stop stop-opacity="0.3"/>
<stop offset="0.1" stop-opacity="0.2"/>
<stop offset="0.3" stop-opacity="0.1"/>
<stop offset="0.6" stop-opacity="0.1"/>
<stop offset="1" stop-opacity="0"/>
</linearGradient>
<linearGradient id="paint2_linear_17551_28099" x1="11.9562" y1="2.45484" x2="19.3817" y2="22.2368" gradientUnits="userSpaceOnUse">
<stop stop-color="#3CCBF4"/>
<stop offset="1" stop-color="#2892DF"/>
</linearGradient>
</defs>
</svg>
