<svg width="24" height="24" viewBox="0 0 24 24" fill="none" xmlns="http://www.w3.org/2000/svg">
<path d="M22.9999 12.2475C22.9999 11.5233 22.9344 10.8358 22.822 10.1667H12.2388V14.3008H18.2984C18.0268 15.6575 17.2307 16.8033 16.0506 17.5825V20.3325H19.6658C21.7824 18.4167 22.9999 15.5933 22.9999 12.2475Z" fill="#4285F4"/>
<path d="M12.2389 23C15.2734 23 17.8115 22.01 19.6659 20.3325L16.0507 17.5825C15.0392 18.2425 13.7561 18.6458 12.2389 18.6458C9.30744 18.6458 6.82554 16.7117 5.9358 14.0992H2.20825V16.9317C4.05329 20.525 7.8464 23 12.2389 23Z" fill="#34A853"/>
<path d="M5.93572 14.0992C5.70158 13.4392 5.57982 12.7334 5.57982 12.0001C5.57982 11.2667 5.71094 10.5609 5.93572 9.9009V7.06841H2.20817C1.44019 8.5534 1 10.2217 1 12.0001C1 13.7784 1.44019 15.4467 2.20817 16.9317L5.93572 14.0992Z" fill="#FBBC05"/>
<path d="M12.2389 5.35415C13.8966 5.35415 15.3764 5.91332 16.5471 7.00416L19.7502 3.86915C17.8115 2.09082 15.2734 0.999987 12.2389 0.999987C7.8464 0.999987 4.05329 3.47499 2.20825 7.06832L5.9358 9.90082C6.82554 7.28832 9.30744 5.35415 12.2389 5.35415Z" fill="#EA4335"/>
</svg>
