<svg width="24" height="24" viewBox="0 0 24 24" fill="none" xmlns="http://www.w3.org/2000/svg">
<path d="M1 2.46774H12.3467C20.0481 2.46774 23 6.67337 23 11.9787C23 18.3402 18.8778 21.5323 12.3467 21.5323H1V2.46774ZM2.1 3.56774V20.4329H12.3467C18.5331 20.4329 21.899 17.5503 21.899 11.9787C21.899 6.25267 18.2503 3.56741 12.3467 3.56741H2.1V3.56774Z" fill="black"/>
<path d="M3.47485 13.2189H6.75501V19.0568H3.47485V13.2189Z" fill="black"/>
<path d="M5.11451 12.316C6.24039 12.316 7.15309 11.4033 7.15309 10.2774C7.15309 9.1515 6.24039 8.2388 5.11451 8.2388C3.98863 8.2388 3.07593 9.1515 3.07593 10.2774C3.07593 11.4033 3.98863 12.316 5.11451 12.316Z" fill="black"/>
<path d="M13.6337 11.2311V12.1764H11.2965V8.38307H13.5591V9.32804H12.2415V9.76723H13.4874V10.7125H12.2415V11.2314L13.6337 11.2311ZM14.0427 12.1771L15.1864 8.38173H16.5309L17.6742 12.1771H16.6906L16.476 11.443H15.2398L15.025 12.1771H14.0427ZM15.5169 10.4987H16.201L15.8872 9.42657H15.83L15.5169 10.4987ZM18.1494 8.38206H19.0951V11.2314H20.4947C20.1107 6.06133 16.0443 4.94418 12.3471 4.94418H8.4068V8.38408H8.98992C10.0533 8.38408 10.7134 9.10508 10.7134 10.2653C10.7134 11.4625 10.0691 12.1771 8.98992 12.1771H8.4068V19.0596H12.3474C18.3556 19.0596 20.4479 16.269 20.5219 12.1764H18.1494V8.38206ZM8.40613 9.32905V11.2314H8.98992C9.39448 11.2314 9.76843 11.1144 9.76843 10.2649C9.76843 9.43532 9.35244 9.32905 8.98992 9.32905H8.40613Z" fill="#D50072"/>
</svg>
