<svg width="50" height="50" viewBox="0 0 50 50" fill="none" xmlns="http://www.w3.org/2000/svg">
<path d="M14.4997 22.544C13.0773 21.6583 11.0912 21.1082 8.91733 21.1082C4.54267 21.1082 1 23.2955 1 25.9927C1 28.4619 3.95222 30.4882 7.77669 30.8371V29.4146C5.20021 29.0926 3.26784 27.6836 3.26784 25.9927C3.26784 24.0738 5.79065 22.5038 8.91733 22.5038C10.474 22.5038 11.883 22.8929 12.9028 23.5236L11.4536 24.4227H15.9758V21.6315L14.4997 22.544Z" fill="#CCCCCC"/>
<path d="M7.77661 18.6927V29.4146V30.837L10.0445 29.4146V17.23L7.77661 18.6927Z" fill="#FF6200"/>
<path d="M17.5764 25.2264C17.7197 24.7247 17.9526 24.2948 18.2572 23.9185C18.5797 23.5423 18.9559 23.2378 19.4217 23.0228C19.8875 22.7899 20.425 22.6824 21.0341 22.6824C21.6611 22.6824 22.1986 22.7899 22.6644 23.0228C23.1123 23.2378 23.5064 23.5423 23.811 23.9185C24.1155 24.2948 24.3484 24.7247 24.4917 25.2264C24.653 25.7101 24.7246 26.2296 24.7246 26.7671C24.7246 27.3045 24.653 27.8241 24.4917 28.3257C24.3484 28.8094 24.1155 29.2394 23.811 29.6156C23.5064 29.9918 23.1123 30.2964 22.6644 30.5114C22.1986 30.7443 21.6611 30.8518 21.0341 30.8518C20.425 30.8518 19.8875 30.7443 19.4217 30.5114C18.9559 30.2964 18.5797 29.9918 18.2572 29.6156C17.9526 29.2394 17.7197 28.8094 17.5764 28.3257C17.4152 27.8241 17.3435 27.3045 17.3435 26.7671C17.3435 26.2296 17.4152 25.7101 17.5764 25.2264ZM18.2572 28.0391C18.3647 28.4511 18.5438 28.8094 18.7947 29.1498C19.0276 29.4723 19.3321 29.7231 19.7083 29.9381C20.0846 30.1352 20.5145 30.2247 21.0341 30.2247C21.5536 30.2247 22.0015 30.1352 22.3777 29.9381C22.754 29.7231 23.0406 29.4723 23.2914 29.1498C23.5243 28.8094 23.7035 28.4511 23.811 28.0391C23.9185 27.627 23.9901 27.1971 23.9901 26.7671C23.9901 26.3371 23.9185 25.9251 23.811 25.513C23.7035 25.101 23.5243 24.7247 23.2914 24.4023C23.0406 24.0798 22.754 23.811 22.3777 23.614C22.0015 23.4169 21.5536 23.3273 21.0341 23.3273C20.5145 23.3273 20.0846 23.4169 19.7083 23.614C19.3321 23.811 19.0276 24.0798 18.7947 24.4023C18.5438 24.7247 18.3647 25.101 18.2572 25.513C18.1497 25.9251 18.096 26.3371 18.096 26.7671C18.096 27.1971 18.1497 27.627 18.2572 28.0391Z" fill="#FF6200"/>
<path d="M25.8354 25.0293V26.1042H25.8533C26.0145 25.7101 26.2833 25.4055 26.6416 25.1905C26.9999 24.9755 27.4119 24.868 27.8777 24.868C28.3077 24.868 28.6839 24.9397 29.0064 25.1009C29.3289 25.2622 29.5976 25.4772 29.8126 25.7638C30.0097 26.0325 30.1709 26.355 30.2784 26.7133C30.3859 27.0716 30.4396 27.4658 30.4396 27.8599C30.4396 28.272 30.3859 28.6482 30.2784 29.0065C30.1709 29.3648 30.0097 29.6873 29.8126 29.956C29.5976 30.2427 29.3289 30.4576 29.0064 30.6189C28.6839 30.7622 28.3077 30.8518 27.8777 30.8518C27.6628 30.8518 27.4657 30.8159 27.2507 30.7801C27.0536 30.7264 26.8566 30.6368 26.6953 30.5472C26.5162 30.4397 26.3549 30.3143 26.2116 30.1531C26.0862 30.0098 25.9787 29.8306 25.907 29.6156H25.8891V32.7687H25.1904V25.0293H25.8354ZM29.6334 27C29.5618 26.6954 29.4543 26.4446 29.311 26.2117C29.1497 25.9967 28.9527 25.7996 28.7198 25.6563C28.4869 25.513 28.2181 25.4592 27.8777 25.4592C27.5015 25.4592 27.179 25.513 26.9282 25.6563C26.6595 25.7817 26.4624 25.9609 26.3012 26.1759C26.1579 26.3909 26.0504 26.6596 25.9787 26.9462C25.925 27.2329 25.8891 27.5374 25.8891 27.8599C25.8891 28.1645 25.925 28.4511 25.9966 28.7378C26.0683 29.0244 26.1758 29.2931 26.337 29.5081C26.4983 29.741 26.6953 29.9202 26.9461 30.0635C27.197 30.2068 27.5194 30.2785 27.8777 30.2785C28.2181 30.2785 28.4869 30.2068 28.7198 30.0635C28.9527 29.9202 29.1497 29.741 29.311 29.5081C29.4543 29.2931 29.5618 29.0244 29.6334 28.7378C29.7051 28.4511 29.7409 28.1645 29.7409 27.8599C29.7409 27.5733 29.7051 27.2866 29.6334 27Z" fill="#FF6200"/>
<path d="M31.6042 28.8273C31.6759 29.0961 31.7833 29.329 31.9446 29.544C32.0879 29.7589 32.285 29.9381 32.5179 30.0635C32.7508 30.2068 33.0374 30.2785 33.3599 30.2785C33.8615 30.2785 34.2557 30.1531 34.5423 29.8843C34.829 29.6156 35.026 29.2752 35.1335 28.8273H35.8322C35.6889 29.4723 35.4202 29.9739 35.026 30.3143C34.6319 30.6726 34.0765 30.8518 33.3599 30.8518C32.912 30.8518 32.5358 30.7622 32.2133 30.6189C31.8729 30.4576 31.6221 30.2427 31.4071 29.956C31.2101 29.6873 31.0488 29.3648 30.9592 29.0065C30.8517 28.6482 30.8159 28.272 30.8159 27.8599C30.8159 27.4837 30.8517 27.1254 30.9592 26.7671C31.0488 26.4088 31.2101 26.0863 31.4071 25.7996C31.6221 25.513 31.8729 25.298 32.2133 25.1189C32.5358 24.9576 32.912 24.868 33.3599 24.868C33.8078 24.868 34.2019 24.9576 34.5244 25.1368C34.8469 25.3159 35.1156 25.5667 35.3127 25.8534C35.5098 26.1579 35.6531 26.4983 35.7427 26.8746C35.8322 27.2508 35.8681 27.6449 35.8501 28.0391H31.4967C31.4967 28.2899 31.5325 28.5586 31.6042 28.8273ZM35.026 26.7133C34.9365 26.4625 34.811 26.2475 34.6677 26.0684C34.5065 25.8892 34.3273 25.728 34.1123 25.6205C33.8794 25.513 33.6465 25.4592 33.3599 25.4592C33.0733 25.4592 32.8224 25.513 32.6075 25.6205C32.3925 25.728 32.1954 25.8892 32.0521 26.0684C31.8908 26.2475 31.7654 26.4625 31.6759 26.7133C31.5863 26.9462 31.5325 27.197 31.4967 27.4658H35.1514C35.1514 27.197 35.0977 26.9462 35.026 26.7133Z" fill="#FF6200"/>
<path d="M36.8893 25.0293V25.9967H36.9072C37.0505 25.6563 37.2834 25.3876 37.6238 25.1726C37.9463 24.9755 38.3225 24.868 38.7346 24.868C39.1287 24.868 39.4512 24.9218 39.7199 25.0114C39.9886 25.1189 40.2036 25.2622 40.3649 25.4592C40.5261 25.6384 40.6336 25.8713 40.7053 26.14C40.7769 26.4088 40.7948 26.7133 40.7948 27.0537V30.6905H40.1141V27.1612C40.1141 26.9104 40.0961 26.6954 40.0424 26.4804C40.0066 26.2834 39.917 26.1042 39.8095 25.943C39.702 25.7817 39.5587 25.6742 39.3616 25.5847C39.1825 25.4951 38.9496 25.4592 38.6808 25.4592C38.3942 25.4592 38.1434 25.4951 37.9284 25.6026C37.7134 25.6921 37.5342 25.8355 37.3909 25.9967C37.2297 26.1759 37.1222 26.3729 37.0326 26.6238C36.943 26.8567 36.9072 27.1075 36.8893 27.3941V30.6905H36.2085V25.0293H36.8893Z" fill="#FF6200"/>
<path d="M42.1205 22.8616V30.6906H41.386V22.8616H42.1205Z" fill="#FF6200"/>
<path d="M45.3991 22.8616C46.5994 22.8795 47.4952 23.2199 48.1043 23.8648C48.6955 24.5098 49.0001 25.4772 49.0001 26.7671C49.0001 28.0749 48.6955 29.0424 48.1043 29.6873C47.4952 30.3323 46.5994 30.6548 45.3991 30.6906H42.6938V22.8616H45.3991ZM45.0408 30.0456C45.5961 30.0456 46.0799 29.9919 46.4919 29.8665C46.886 29.7411 47.2264 29.5619 47.4952 29.2932C47.746 29.0245 47.9431 28.6841 48.0685 28.272C48.1939 27.86 48.2476 27.3583 48.2476 26.7671C48.2476 26.1938 48.1939 25.6922 48.0685 25.2801C47.9431 24.8502 47.746 24.5098 47.4952 24.259C47.2264 23.9902 46.886 23.7932 46.4919 23.6857C46.0799 23.5603 45.5961 23.4886 45.0408 23.4886H43.4463V30.0456H45.0408Z" fill="#FF6200"/>
</svg>
