<svg width="50" height="50" viewBox="0 0 50 50" fill="none" xmlns="http://www.w3.org/2000/svg">
<path d="M38.4729 20.6792C37.2946 20.6792 36.3518 20.9934 35.5662 21.1505L35.3306 22.9574C35.7234 22.8003 36.8232 22.486 37.7659 22.4075C38.7086 22.4075 39.2585 22.5646 39.1014 23.4287C36.2733 23.4287 34.3878 23.9787 33.995 25.8641C33.4451 29.0065 36.9018 29.085 38.2373 27.671L38.0802 28.5351H40.5941L41.6939 23.4287C42.0867 21.3076 40.2013 20.6006 38.4729 20.6792ZM38.6301 25.9427C38.4729 26.5711 37.923 26.8068 37.2946 26.8854C36.7446 26.8854 36.2733 26.5711 36.5875 25.9427C36.9018 25.4713 37.6088 25.4713 38.1587 25.4713C38.3158 25.4713 38.5515 25.4713 38.7872 25.4713C38.7086 25.3927 38.6301 25.707 38.6301 25.9427Z" fill="#32A6CE"/>
<path d="M35.3306 22.9575C35.7234 22.8004 36.8232 22.4861 37.7659 22.4076C38.7086 22.4076 39.2585 22.5647 39.1014 23.4288C36.2733 23.4288 34.3878 23.9788 33.995 25.8642C33.4451 29.0066 36.9018 29.0851 38.2373 27.6711L38.0802 28.5352H40.5941L41.6939 23.4288C42.1653 21.3077 40.2013 20.7578 38.4729 20.7578M38.6301 25.9428C38.4729 26.5712 37.923 26.8069 37.2946 26.8855C36.7446 26.8855 36.2733 26.5712 36.5875 25.9428C36.9018 25.4714 37.6088 25.4714 38.1587 25.4714C38.3158 25.4714 38.5515 25.4714 38.7872 25.4714C38.7086 25.3928 38.6301 25.7071 38.6301 25.9428Z" fill="#1A80AD"/>
<path d="M43.815 18.3224L41.7725 28.5352H44.2864L46.4075 18.3224H43.815Z" fill="#32A6CE"/>
<path d="M45.6219 18.3224L41.7725 28.5352H44.2864L46.4075 18.3224H43.815H45.6219Z" fill="#1A80AD"/>
<path d="M32.1097 18.3224H27.4747L25.4321 28.5352H28.1817L28.8888 25.3928H30.8528C32.7382 25.3928 34.3094 24.2929 34.7022 22.3289C35.095 20.0507 33.4452 18.3224 32.1097 18.3224ZM32.0311 21.8576C31.874 22.5646 31.167 23.036 30.46 23.036H29.203L29.7529 20.6792H31.0884C31.7955 20.6792 32.1883 21.1505 32.0311 21.8576Z" fill="#32A6CE"/>
<path d="M32.1097 18.3224H28.9673L25.3535 28.5352H28.1031L28.8101 25.3928H30.7741C32.6596 25.3928 34.2308 24.2929 34.6236 22.3289C35.0949 20.0507 33.4452 18.3224 32.1097 18.3224ZM32.0311 21.8576C31.874 22.5646 31.1669 23.036 30.4599 23.036H29.2029L29.7529 20.6792H31.0884C31.7954 20.6792 32.1882 21.1505 32.0311 21.8576Z" fill="#1A80AD"/>
<path d="M13.9623 20.6792C12.7839 20.6792 11.8412 20.9934 11.1342 21.1505L10.8985 22.9574C11.2127 22.8003 12.3911 22.486 13.3338 22.4075C14.2765 22.4075 14.8265 22.5646 14.6693 23.4287C11.9197 23.4287 10.0343 23.9787 9.64152 25.8641C9.0916 29.0065 12.4697 29.085 13.8052 27.671L13.6481 28.5351H16.162L17.2618 23.4287C17.6546 21.3076 15.6906 20.6006 13.9623 20.6792ZM14.198 25.9427C14.0409 26.5711 13.4909 26.8068 12.8625 26.8854C12.3125 26.8854 11.8412 26.5711 12.234 25.9427C12.5482 25.4713 13.2553 25.4713 13.7266 25.4713C13.9623 25.4713 14.1194 25.4713 14.3551 25.4713C14.2765 25.3927 14.198 25.707 14.198 25.9427Z" fill="#21789E"/>
<path d="M10.9771 22.9575C11.2913 22.8004 12.4697 22.4861 13.4124 22.4076C14.3552 22.4076 14.9051 22.5647 14.748 23.4288C11.9984 23.4288 10.1129 23.9788 9.72013 25.8642C9.17021 29.0066 12.5483 29.0851 13.8838 27.6711L13.6481 28.5352H16.162L17.2619 23.4288C17.7332 21.3077 15.7692 20.7578 14.0409 20.7578M14.198 25.9428C14.0409 26.5712 13.491 26.8069 12.8625 26.8855C12.3126 26.8855 11.8412 26.5712 12.234 25.9428C12.5483 25.4714 13.2553 25.4714 13.7267 25.4714C13.9624 25.4714 14.1195 25.4714 14.3552 25.4714C14.2766 25.3928 14.198 25.7071 14.198 25.9428Z" fill="#1A5B80"/>
<path d="M18.2832 20.6792H20.7971L21.1899 25.0785L23.7038 20.6792H26.2963L20.3257 31.6776H17.4976L19.3044 28.3781L18.2832 20.6792Z" fill="#21789E"/>
<path d="M20.7971 20.8363L21.1899 25.1571L23.7038 20.6792H26.2963L20.3257 31.6776H17.4976L19.3044 28.4566" fill="#1A5B80"/>
<path d="M7.75614 18.3224H3.04255L1 28.5352H3.74959L4.45663 25.3928H6.42062C8.30606 25.3928 9.87725 24.2929 10.27 22.3289C10.7414 20.0507 9.09165 18.3224 7.75614 18.3224ZM7.67758 21.8576C7.52046 22.5646 6.81342 23.036 6.10638 23.036H4.84943L5.39935 20.6792H6.73486C7.4419 20.6792 7.8347 21.1505 7.67758 21.8576Z" fill="#21789E"/>
<path d="M7.75614 18.3224H5.63502L1 28.5352H3.74959L4.45663 25.3928H6.42062C8.30606 25.3928 9.87725 24.2929 10.27 22.3289C10.7414 20.0507 9.09165 18.3224 7.75614 18.3224ZM7.67758 21.8576C7.52046 22.5646 6.81342 23.036 6.10638 23.036H4.84943L5.39935 20.6792H6.73486C7.4419 20.6792 7.8347 21.1505 7.67758 21.8576Z" fill="#1A5B80"/>
<path d="M13.4911 23.4288C11.37 23.586 9.95588 24.2144 9.64164 25.7856C9.09172 28.928 12.4698 29.0066 13.8053 27.5925L13.6482 28.5352H16.1621L16.5549 26.6498L13.4911 23.4288ZM14.1981 25.9427C14.041 26.5712 13.4911 26.8069 12.8626 26.8855C12.3127 26.8855 11.8413 26.5712 12.2341 25.9427C12.5483 25.4714 13.2554 25.4714 13.7267 25.4714C13.9624 25.4714 14.1195 25.4714 14.3552 25.4714C14.2767 25.3928 14.1981 25.7071 14.1981 25.9427Z" fill="#06435E"/>
<path d="M21.3471 25L21.1899 25.2357L22.8397 26.8069L26.2963 20.6792H23.7039L21.3471 25Z" fill="#06435E"/>
<path d="M3.74963 28.5352L4.45667 25.3928L1.23572 28.5352H3.74963Z" fill="#06435E"/>
<path d="M28.1031 28.5352L28.8102 25.2357V25.3143L25.5892 28.5352H28.1031Z" fill="#2273AA"/>
<path d="M37.9231 23.4288C35.802 23.586 34.3879 24.2144 34.0737 25.7856C33.5237 28.928 36.9804 29.0066 38.3159 27.5925L38.0802 28.5352H40.5941L40.9869 26.6498L37.9231 23.4288ZM38.6301 25.9427C38.473 26.5712 37.9231 26.8069 37.2946 26.8855C36.7447 26.8855 36.2733 26.5712 36.5876 25.9427C36.9018 25.4714 37.6088 25.4714 38.1588 25.4714C38.3159 25.4714 38.5516 25.4714 38.7872 25.4714C38.7087 25.3928 38.6301 25.7071 38.6301 25.9427Z" fill="#2273AA"/>
<path d="M43.5795 23.9001L41.7726 28.5352H44.2865L44.9935 25.3928L43.5795 23.9001Z" fill="#2273AA"/>
<path d="M46.9575 19.9723V18.8725H46.5647V18.7153H47.586V18.8725H47.1932V19.9723H46.9575Z" fill="#32A6CE"/>
<path d="M47.743 19.9722V18.7153H47.9787L48.293 19.5794C48.293 19.658 48.3715 19.7366 48.3715 19.7366C48.3715 19.658 48.3715 19.658 48.4501 19.5009L48.7643 18.6367H49V19.8937H48.8429V18.7938L48.4501 19.8937H48.2144L47.8216 18.7938V19.8937H47.743V19.9722Z" fill="#32A6CE"/>
</svg>
