<svg width="50" height="50" viewBox="0 0 50 50" fill="none" xmlns="http://www.w3.org/2000/svg">
<path d="M18.6001 31.8952L21.0382 18.1809H24.8477L22.4858 31.8952H18.6001Z" fill="#3C58BF"/>
<path d="M18.6001 31.8952L21.7239 18.1809H24.8477L22.4858 31.8952H18.6001Z" fill="#293688"/>
<path d="M36.2763 18.3333C35.5144 18.0285 34.2953 17.7238 32.7715 17.7238C28.962 17.7238 26.2191 19.6285 26.2191 22.3714C26.2191 24.4285 28.1239 25.4952 29.6477 26.1809C31.1715 26.8666 31.6287 27.3238 31.6287 27.9333C31.6287 28.8476 30.4096 29.3047 29.343 29.3047C27.8191 29.3047 26.981 29.0761 25.6858 28.5428L25.1525 28.3142L24.6191 31.438C25.5334 31.819 27.2096 32.1999 28.962 32.1999C33.0001 32.1999 35.6668 30.2952 35.6668 27.3999C35.6668 25.7999 34.6763 24.5809 32.3906 23.5904C31.0191 22.9047 30.181 22.5238 30.181 21.838C30.181 21.2285 30.8668 20.619 32.3906 20.619C33.6858 20.619 34.6001 20.8476 35.2858 21.1523L35.6668 21.3047L36.2763 18.3333Z" fill="#3C58BF"/>
<path d="M36.2763 18.3333C35.5144 18.0285 34.2953 17.7238 32.7715 17.7238C28.962 17.7238 26.9049 19.6285 26.9049 22.3714C26.9049 24.4285 28.1239 25.4952 29.6477 26.1809C31.1715 26.8666 31.6287 27.3238 31.6287 27.9333C31.6287 28.8476 30.4096 29.3047 29.343 29.3047C27.8191 29.3047 26.981 29.0761 25.6858 28.5428L25.1525 28.3142L24.6191 31.438C25.5334 31.819 27.2096 32.1999 28.962 32.1999C33.0001 32.1999 35.6668 30.2952 35.6668 27.3999C35.6668 25.7999 34.6763 24.5809 32.3906 23.5904C31.0191 22.9047 30.181 22.5238 30.181 21.838C30.181 21.2285 30.8668 20.619 32.3906 20.619C33.6858 20.619 34.6001 20.8476 35.2858 21.1523L35.6668 21.3047L36.2763 18.3333Z" fill="#293688"/>
<path d="M42.8285 18.1809C41.9143 18.1809 41.2285 18.2571 40.8476 19.1714L35.1333 31.8952H39.2476L40.0095 29.6095H44.8857L45.3428 31.8952H49L45.8 18.1809H42.8285ZM41.0762 27.3238C41.3047 26.6381 42.6 23.2857 42.6 23.2857C42.6 23.2857 42.9047 22.4476 43.1333 21.9142L43.3619 23.2095C43.3619 23.2095 44.1238 26.6381 44.2762 27.4H41.0762V27.3238Z" fill="#3C58BF"/>
<path d="M43.7428 18.1809C42.8285 18.1809 42.1428 18.2571 41.7619 19.1714L35.1333 31.8952H39.2476L40.0095 29.6095H44.8857L45.3428 31.8952H49L45.8 18.1809H43.7428ZM41.0762 27.3238C41.3809 26.5619 42.6 23.2857 42.6 23.2857C42.6 23.2857 42.9047 22.4476 43.1333 21.9142L43.3619 23.2095C43.3619 23.2095 44.1238 26.6381 44.2762 27.4H41.0762V27.3238Z" fill="#293688"/>
<path d="M11.5905 27.781L11.2096 25.8001C10.5238 23.5143 8.31432 21.0001 5.87622 19.781L9.30479 31.9715H13.4191L19.5905 18.2572H15.4762L11.5905 27.781Z" fill="#3C58BF"/>
<path d="M11.5905 27.781L11.2096 25.8001C10.5238 23.5143 8.31432 21.0001 5.87622 19.781L9.30479 31.9715H13.4191L19.5905 18.2572H16.2381L11.5905 27.781Z" fill="#293688"/>
<path d="M1 18.1809L1.68571 18.3333C6.5619 19.4761 9.91428 22.3714 11.2095 25.8L9.83809 19.3238C9.60952 18.4095 8.92381 18.1809 8.08571 18.1809H1Z" fill="#FFBC00"/>
<path d="M1 18.1809C5.87619 19.3238 9.91428 22.2952 11.2095 25.7238L9.91428 20.3142C9.68571 19.4 8.92381 18.8666 8.08571 18.8666L1 18.1809Z" fill="#F7981D"/>
<path d="M1 18.1809C5.87619 19.3238 9.91428 22.2952 11.2095 25.7238L10.2952 22.7523C10.0667 21.8381 9.7619 20.9238 8.69524 20.5428L1 18.1809Z" fill="#ED7C00"/>
<path d="M15.4 27.3238L12.8095 24.7333L11.5905 27.6285L11.2857 25.7238C10.6 23.438 8.39049 20.9238 5.95239 19.7047L9.38096 31.8952H13.4952L15.4 27.3238Z" fill="#051244"/>
<path d="M22.4858 31.8952L19.2096 28.5428L18.6001 31.8952H22.4858Z" fill="#051244"/>
<path d="M31.2477 27.1714C31.5525 27.4761 31.7049 27.7047 31.6287 28.0095C31.6287 28.9238 30.4096 29.3809 29.343 29.3809C27.8191 29.3809 26.981 29.1523 25.6858 28.619L25.1525 28.3904L24.6191 31.5142C25.5334 31.8952 27.2096 32.2761 28.962 32.2761C31.4001 32.2761 33.381 31.5904 34.5239 30.3714L31.2477 27.1714Z" fill="#051244"/>
<path d="M35.6667 31.8951H39.2477L40.0096 29.6094H44.8858L45.3429 31.8951H49.0001L47.7048 26.3332L43.1334 21.9142L43.362 23.1332C43.362 23.1332 44.1239 26.5618 44.2763 27.3237H41.0763C41.381 26.5618 42.6001 23.2856 42.6001 23.2856C42.6001 23.2856 42.9048 22.4475 43.1334 21.9142" fill="#051244"/>
</svg>
