<svg width="600" height="600" viewBox="0 0 600 600" fill="none" xmlns="http://www.w3.org/2000/svg">
<path d="M208.129 497.67H451.283C456.054 497.67 460.699 496.146 464.543 493.32C468.386 490.494 471.226 486.514 472.649 481.961L521.864 324.23C522.45 322.353 522.585 320.364 522.26 318.424C521.935 316.484 521.158 314.648 519.992 313.064C518.827 311.48 517.305 310.192 515.55 309.304C513.795 308.417 511.855 307.955 509.888 307.955H267.327L208.129 497.67Z" fill="#F0F0F0"/>
<path d="M267.328 307.955L208.13 497.67H451.284C456.054 497.67 460.7 496.146 464.543 493.32C468.387 490.494 471.227 486.514 472.649 481.961L521.865 324.231C522.45 322.353 522.586 320.364 522.261 318.424C521.936 316.484 521.159 314.648 519.993 313.064C518.827 311.48 517.306 310.192 515.55 309.305C513.795 308.417 511.856 307.955 509.889 307.955H267.328ZM267.328 303.496H509.889C512.555 303.497 515.183 304.125 517.562 305.329C519.94 306.533 522.003 308.279 523.582 310.426C525.162 312.574 526.215 315.062 526.655 317.692C527.096 320.321 526.913 323.017 526.12 325.562L476.905 483.286C475.217 488.758 471.816 493.543 467.204 496.935C462.591 500.328 457.01 502.148 451.284 502.129H208.13C207.431 502.129 206.742 501.964 206.119 501.648C205.495 501.333 204.955 500.875 204.541 500.312C204.127 499.749 203.851 499.097 203.735 498.408C203.619 497.719 203.667 497.012 203.875 496.345L263.072 306.624C263.356 305.717 263.922 304.925 264.687 304.362C265.453 303.799 266.378 303.496 267.328 303.496V303.496Z" fill="#4C3133"/>
<path d="M205.021 497.669H442.302C445.738 497.671 449.085 496.574 451.854 494.538C454.622 492.503 456.668 489.636 457.692 486.356L511.029 315.522C511.301 314.649 511.363 313.725 511.212 312.823C511.06 311.921 510.699 311.068 510.158 310.332C509.616 309.595 508.909 308.996 508.093 308.583C507.277 308.171 506.376 307.955 505.462 307.954H263.442C260.64 307.955 257.912 308.851 255.656 310.511C253.4 312.172 251.733 314.51 250.899 317.185L197.689 487.706C197.331 488.856 197.247 490.074 197.446 491.261C197.645 492.449 198.121 493.573 198.835 494.543C199.548 495.513 200.48 496.301 201.555 496.844C202.63 497.387 203.817 497.67 205.021 497.669V497.669Z" fill="white"/>
<path d="M263.442 307.955C260.641 307.955 257.913 308.851 255.656 310.512C253.4 312.172 251.733 314.51 250.899 317.185L197.69 487.707C197.331 488.856 197.248 490.074 197.447 491.262C197.645 492.449 198.121 493.573 198.835 494.543C199.549 495.513 200.48 496.301 201.555 496.845C202.63 497.388 203.817 497.67 205.022 497.669H442.302C445.739 497.671 449.085 496.574 451.854 494.538C454.623 492.503 456.668 489.636 457.693 486.356L511.03 315.522C511.301 314.649 511.364 313.725 511.212 312.823C511.061 311.922 510.7 311.068 510.158 310.332C509.616 309.595 508.909 308.997 508.093 308.584C507.278 308.171 506.376 307.955 505.462 307.955H263.442ZM263.442 303.495H505.462C507.078 303.495 508.671 303.875 510.113 304.605C511.555 305.335 512.804 306.394 513.761 307.697C514.717 308.999 515.353 310.509 515.618 312.103C515.883 313.697 515.769 315.331 515.285 316.873L461.98 487.7C460.681 491.898 458.068 495.567 454.524 498.165C450.981 500.763 446.696 502.153 442.302 502.129H205.022C203.118 502.129 201.241 501.682 199.542 500.823C197.843 499.964 196.37 498.717 195.242 497.184C194.114 495.65 193.363 493.873 193.049 491.995C192.735 490.118 192.867 488.192 193.434 486.375L246.644 315.853C247.751 312.266 249.981 309.129 253.005 306.904C256.029 304.679 259.688 303.484 263.442 303.495Z" fill="#4C3133"/>
<path d="M374.206 416.399H453.832C456.457 416.399 459.241 414.272 460.043 411.641L464.158 398.174C464.961 395.55 463.483 393.422 460.859 393.422H381.232C378.608 393.422 375.83 395.55 375.028 398.174L370.906 411.641C370.104 414.272 371.594 416.399 374.206 416.399Z" fill="#F0F0F0"/>
<path d="M225.31 478.508H443.576C449.685 478.508 455.921 473.756 457.775 467.679L498.767 333.556C499.729 330.371 499.315 327.282 497.62 324.995C496.764 323.881 495.653 322.989 494.38 322.392C493.108 321.796 491.711 321.513 490.307 321.568H271.812C265.78 321.568 259.62 326.262 257.798 332.257L216.794 466.386C215.813 469.571 216.233 472.756 217.947 475.043C218.811 476.163 219.93 477.062 221.21 477.665C222.491 478.267 223.896 478.556 225.31 478.508V478.508ZM490.307 326.027C491.013 325.981 491.72 326.104 492.369 326.385C493.018 326.667 493.591 327.098 494.04 327.645C494.894 328.798 495.053 330.435 494.499 332.257L453.494 466.386C452.22 470.539 447.672 474.03 443.557 474.03H225.31C224.587 474.077 223.863 473.95 223.198 473.661C222.534 473.372 221.947 472.928 221.488 472.367C220.616 471.189 220.45 469.52 221.017 467.666L262.028 333.556C263.302 329.473 267.761 326.027 271.793 326.027H490.307Z" fill="#4C3133"/>
<path d="M291.648 307.954H316.772C317.325 313.126 318.234 318.253 319.492 323.3C326.194 349.379 345.132 371.388 368.173 385.918C390.901 400.245 412.305 406.615 438.83 410.813C437.09 418.319 433.992 425.443 429.689 431.834H291.648V307.954Z" fill="#E2E2E0"/>
<path d="M256.728 345.538H493.454C493.931 345.539 494.396 345.387 494.78 345.103C495.164 344.82 495.448 344.421 495.588 343.965L499.155 332.301C499.597 331.036 499.734 329.684 499.554 328.356C499.375 327.027 498.885 325.76 498.123 324.657C497.357 323.66 496.364 322.861 495.225 322.327C494.087 321.793 492.838 321.539 491.581 321.587H270.538C265.219 321.587 259.792 325.721 258.174 330.995L254.613 342.659C254.511 342.992 254.489 343.344 254.548 343.687C254.607 344.03 254.746 344.354 254.952 344.634C255.159 344.914 255.429 345.141 255.739 345.298C256.049 345.455 256.392 345.538 256.74 345.538H256.728ZM491.785 341.079H259.722L262.41 332.301C263.448 328.906 267.155 326.046 270.506 326.046H491.549C492.109 326.008 492.669 326.104 493.184 326.325C493.699 326.547 494.154 326.888 494.511 327.32C495.18 328.231 495.308 329.537 494.855 331.002L491.785 341.079Z" fill="#4C3133"/>
<path d="M463.44 336.285C462.53 335.225 462.957 333.366 464.393 332.133C465.829 330.9 467.731 330.76 468.641 331.82C469.551 332.879 469.124 334.738 467.688 335.971C466.252 337.204 464.35 337.344 463.44 336.285Z" fill="#4C3133"/>
<path d="M450.479 336.279C449.569 335.219 449.996 333.361 451.432 332.128C452.868 330.895 454.769 330.754 455.679 331.814C456.589 332.873 456.163 334.732 454.726 335.965C453.29 337.198 451.389 337.338 450.479 336.279Z" fill="#4C3133"/>
<path d="M378.451 316.381C377.541 315.321 377.968 313.463 379.404 312.23C380.84 310.997 382.742 310.856 383.651 311.916C384.561 312.976 384.135 314.834 382.699 316.067C381.263 317.3 379.361 317.441 378.451 316.381Z" fill="#4C3133"/>
<path d="M477.578 336.288C476.669 335.228 477.095 333.37 478.531 332.137C479.967 330.904 481.869 330.763 482.779 331.823C483.689 332.882 483.262 334.741 481.826 335.974C480.39 337.207 478.488 337.348 477.578 336.288Z" fill="#4C3133"/>
<path d="M384.851 381.586H464.477C467.102 381.586 469.879 379.459 470.682 376.828L474.79 363.374C475.593 360.75 474.115 358.622 471.491 358.622H391.864C389.24 358.622 386.456 360.75 385.653 363.374L381.538 376.841C380.748 379.459 382.226 381.586 384.851 381.586Z" fill="#F0F0F0"/>
<path d="M363.56 451.212H443.187C445.811 451.212 448.595 449.084 449.398 446.454L453.513 432.987C454.316 430.363 452.838 428.235 450.213 428.235H370.587C367.962 428.235 365.185 430.363 364.382 432.987L360.261 446.454C359.458 449.084 360.936 451.212 363.56 451.212Z" fill="#F0F0F0"/>
<path d="M312.31 450.6C308.008 445.59 310.03 436.799 316.826 430.964C323.622 425.129 332.618 424.46 336.92 429.47C341.222 434.48 339.2 443.272 332.404 449.107C325.608 454.942 316.612 455.61 312.31 450.6Z" fill="#F0F0F0"/>
<path d="M451.341 497.669H15.5609C15.56 499.168 15.8545 500.652 16.4275 502.037C17.0005 503.422 17.8407 504.681 18.9002 505.741C19.9597 506.801 21.2177 507.642 22.6023 508.215C23.9869 508.789 25.471 509.084 26.9698 509.084H439.926C441.424 509.084 442.907 508.789 444.292 508.216C445.676 507.643 446.933 506.802 447.993 505.743C449.052 504.683 449.893 503.426 450.466 502.042C451.039 500.657 451.334 499.174 451.334 497.676V497.676L451.341 497.669Z" fill="#F0F0F0"/>
<path d="M15.5613 497.669C15.5604 499.168 15.8549 500.652 16.4279 502.037C17.0008 503.422 17.8411 504.681 18.9006 505.741C19.9601 506.801 21.2181 507.642 22.6027 508.215C23.9873 508.789 25.4714 509.085 26.9701 509.085H439.926C442.953 509.085 445.857 507.882 447.998 505.741C450.139 503.6 451.341 500.697 451.341 497.669H15.5613V497.669ZM15.5613 493.21H451.341C452.524 493.21 453.658 493.68 454.494 494.516C455.33 495.352 455.8 496.487 455.8 497.669C455.787 501.875 454.11 505.905 451.136 508.879C448.162 511.853 444.132 513.53 439.926 513.544H26.9701C22.7652 513.529 18.737 511.851 15.7642 508.877C12.7915 505.903 11.1156 501.874 11.1022 497.669C11.1022 496.487 11.572 495.352 12.4082 494.516C13.2444 493.68 14.3786 493.21 15.5613 493.21Z" fill="#4C3133"/>
<path d="M433.824 503.657C435.882 503.657 437.901 503.1 439.668 502.046C441.435 500.992 442.885 499.479 443.863 497.669H451.342C451.342 500.697 450.139 503.6 447.998 505.741C445.858 507.882 442.954 509.084 439.927 509.084H26.9708C24.8789 509.083 22.8276 508.506 21.0413 507.418C19.255 506.329 17.8024 504.77 16.8423 502.912C18.1263 503.4 19.488 503.653 20.8618 503.657H433.824Z" fill="#E2E2E0"/>
<path d="M246.28 497.669C246.28 497.669 245.337 505.619 255.44 511.798Z" fill="white"/>
<path d="M255.441 514.028C255.928 514.029 256.402 513.871 256.791 513.578C257.179 513.285 257.461 512.872 257.594 512.404C257.726 511.935 257.701 511.436 257.523 510.983C257.344 510.529 257.023 510.147 256.607 509.894C247.962 504.613 248.472 498.186 248.497 497.912C248.564 497.32 248.393 496.727 248.022 496.261C247.651 495.796 247.111 495.497 246.52 495.43C245.928 495.364 245.335 495.535 244.869 495.906C244.404 496.276 244.105 496.817 244.038 497.408C243.994 497.791 243.051 506.855 254.231 513.703C254.595 513.923 255.015 514.036 255.441 514.028V514.028Z" fill="#4C3133"/>
<path d="M60.6734 403.984C57.2208 403.856 53.9211 402.62 50.6914 401.397C47.1433 400.053 43.5951 398.703 40.1552 397.091C37.2123 395.709 28.861 390.81 27.9119 389.402C26.9627 387.995 26.8544 385.88 28.103 384.727C30.014 382.956 33.4603 384.523 35.5879 383C38.4544 380.949 35.7853 377.21 33.4029 376.165C29.8547 374.605 25.7588 375.477 22.2233 373.866C19.618 372.668 17.6496 369.305 19.2294 366.916C20.4716 365.043 23.2107 364.718 24.5994 362.954C26.7398 360.227 24.249 356.087 21.1022 354.628C17.9554 353.169 14.2798 353.156 11.1839 351.602C8.08803 350.048 5.87127 345.652 8.2728 343.162C11.4005 339.913 17.828 343.882 21.0831 340.735C23.6312 338.238 21.6309 333.919 19.3058 331.18C16.9807 328.44 14.2097 324.975 15.7131 321.726C17.14 318.637 21.6118 318.318 24.6313 319.815C27.6507 321.312 29.9185 324.083 32.7595 325.956C35.6006 327.829 39.7667 328.612 42.1809 326.211C44.1939 324.204 44.092 320.879 45.6845 318.516C48.5702 314.19 55.8066 315.331 59.0618 319.42C62.3169 323.51 62.5972 329.103 62.629 334.301C62.629 337.785 63.8394 342.531 67.3175 342.289C69.7381 342.13 71.1395 339.416 73.3181 338.365C77.4459 336.39 81.9878 341.55 81.5993 346.086C81.2107 350.621 78.0256 354.367 75.5795 358.253C70.7191 365.935 69.2094 375.293 69.2094 384.497C69.2157 392.944 73.6366 404.449 60.6734 403.984Z" fill="#FFD900"/>
<path d="M61.4195 406.226C65.1332 406.226 67.8278 405.277 69.6496 403.334C72.8347 399.964 72.2996 394.741 71.7964 389.689C71.618 387.867 71.446 386.141 71.446 384.555C71.446 374.095 73.4271 365.897 77.4785 359.495C77.9499 358.75 78.4468 358.011 78.95 357.272C81.1732 353.972 83.4792 350.564 83.8295 346.321C83.9186 344.539 83.5567 342.763 82.7773 341.157C81.9979 339.551 80.8262 338.168 79.3705 337.136C78.3714 336.389 77.1887 335.927 75.9481 335.799C74.7075 335.672 73.4554 335.882 72.3251 336.41C71.2348 336.986 70.24 337.727 69.3757 338.607C68.5221 339.391 67.7832 340.072 67.1334 340.117C66.991 340.134 66.8467 340.117 66.7118 340.069C66.5769 340.02 66.4552 339.94 66.3563 339.837C65.4709 339.015 64.8402 336.753 64.8275 334.339C64.7956 328.912 64.4516 322.733 60.7761 318.089C59.5723 316.637 58.0519 315.48 56.3315 314.707C54.6111 313.934 52.7364 313.566 50.8514 313.63C49.4697 313.641 48.1111 313.986 46.8911 314.634C45.6711 315.283 44.6259 316.217 43.8443 317.356C43.074 318.618 42.4964 319.988 42.1307 321.421C41.7167 322.79 41.3536 323.969 40.621 324.708C39.124 326.198 36.0918 325.542 34.0024 324.166C32.901 323.405 31.8498 322.573 30.8556 321.675C29.2851 320.201 27.5342 318.932 25.6448 317.898C23.1855 316.659 20.3395 316.431 17.714 317.261C16.833 317.546 16.0199 318.01 15.3252 318.622C14.6305 319.235 14.069 319.983 13.6754 320.822C11.5032 325.529 15.4654 330.16 17.5994 332.651C19.5104 334.862 20.7844 337.881 19.5104 339.136C18.6377 339.996 16.7967 339.843 14.8539 339.69C12.2294 339.48 8.9615 339.219 6.65551 341.601C5.99262 342.298 5.50662 343.143 5.23837 344.067C4.97012 344.99 4.92746 345.964 5.11395 346.907C5.40584 348.325 6.01091 349.66 6.88491 350.814C7.7589 351.968 8.87973 352.912 10.1655 353.577C11.9657 354.403 13.8615 355.002 15.8094 355.361C17.2978 355.633 18.7538 356.06 20.1538 356.635C20.8492 356.964 21.4687 357.434 21.9731 358.015C22.4775 358.596 22.8558 359.276 23.0841 360.011C23.1721 360.268 23.1954 360.544 23.1521 360.813C23.1088 361.081 23.0001 361.335 22.8356 361.552C22.2811 362.089 21.6335 362.521 20.9246 362.826C19.5095 363.442 18.2798 364.417 17.3573 365.655C16.8891 366.375 16.5848 367.189 16.4659 368.04C16.3471 368.891 16.4165 369.758 16.6694 370.579C17.0244 371.733 17.6179 372.799 18.4113 373.708C19.2047 374.618 20.1803 375.351 21.2749 375.86C23.4026 376.834 25.562 377.038 27.6451 377.229C29.2961 377.289 30.9276 377.607 32.48 378.172C33.4546 378.599 34.4866 379.816 34.5694 380.631C34.5694 380.784 34.5694 380.918 34.2636 381.16C33.8114 381.484 32.824 381.497 31.8748 381.51C30.2377 381.51 28.1929 381.561 26.5685 383.058C24.5874 384.886 24.3644 388.154 26.0398 390.619C27.5368 392.842 37.3468 398.212 39.1877 399.072C42.8378 400.811 46.5898 402.232 49.9023 403.506C53.0873 404.723 56.7374 406.099 60.5913 406.232L61.4195 406.226ZM75.2171 340.212C75.815 340.235 76.3912 340.442 76.867 340.805C77.6795 341.39 78.3364 342.165 78.7806 343.062C79.2247 343.959 79.4426 344.951 79.415 345.952C79.1539 349.035 77.2747 351.825 75.2808 354.775C74.7521 355.552 74.2297 356.329 73.7329 357.112C69.2165 364.247 67.0188 373.222 67.0124 384.549C67.0124 386.358 67.2035 388.275 67.3883 390.129C67.7896 394.193 68.2036 398.41 66.4264 400.283C65.4199 401.359 63.5025 401.85 60.7761 401.754C57.6547 401.64 54.527 400.48 51.5076 399.314C48.2715 398.091 44.6023 396.703 41.1306 395.072C38.0602 393.626 30.811 389.262 29.76 388.109C29.3586 387.472 29.3523 386.632 29.6453 386.37C29.9383 386.109 31.0149 386.014 31.9895 386.001C33.4737 386.001 35.321 385.95 36.9072 384.816C37.6557 384.318 38.2527 383.624 38.6325 382.809C39.0123 381.995 39.1603 381.091 39.0603 380.198C38.7737 377.478 36.4103 375.038 34.3273 374.127C32.3392 373.363 30.2385 372.932 28.1101 372.853C26.4212 372.799 24.753 372.465 23.1732 371.866C22.6673 371.623 22.215 371.282 21.843 370.862C21.471 370.441 21.1869 369.951 21.0074 369.419C20.9269 369.22 20.8948 369.003 20.9136 368.789C20.9324 368.574 21.0017 368.367 21.1157 368.184C21.6483 367.601 22.3001 367.141 23.0267 366.833C24.2945 366.244 25.4216 365.39 26.3328 364.33C26.9105 363.583 27.3086 362.713 27.4964 361.787C27.6841 360.861 27.6566 359.905 27.4158 358.992C27.0315 357.602 26.35 356.313 25.4184 355.213C24.4868 354.113 23.3273 353.229 22.0202 352.621C20.336 351.903 18.5779 351.371 16.7776 351.035C15.1893 350.75 13.6409 350.275 12.1657 349.621C11.5025 349.27 10.9219 348.782 10.4627 348.189C10.0035 347.596 9.67629 346.911 9.50298 346.181C9.43322 345.927 9.42933 345.659 9.49174 345.403C9.55415 345.146 9.68079 344.91 9.8597 344.716C10.6432 343.907 12.1338 343.958 14.4908 344.149C17.077 344.353 20.2939 344.614 22.619 342.346C26.0525 338.996 24.2689 333.613 20.9819 329.765C18.9307 327.37 16.8222 324.669 17.7204 322.701C17.8671 322.407 18.073 322.147 18.3252 321.936C18.5773 321.726 18.8702 321.57 19.1856 321.478C20.6684 321.041 22.2618 321.182 23.6447 321.873C25.2016 322.754 26.6436 323.823 27.9381 325.058C29.0778 326.086 30.2844 327.037 31.55 327.905C35.0854 330.237 40.4172 331.218 43.7678 327.905C45.2967 326.383 45.8827 324.453 46.3987 322.752C46.6478 321.741 47.0359 320.77 47.5517 319.866C47.9534 319.316 48.4812 318.871 49.0909 318.567C49.7005 318.263 50.3742 318.11 51.0553 318.121C52.2388 318.09 53.4142 318.325 54.4948 318.809C55.5753 319.293 56.5332 320.014 57.298 320.917C60.0945 324.453 60.3557 329.53 60.3875 334.428C60.3875 335.843 60.6296 340.652 63.3369 343.168C63.8834 343.685 64.5316 344.082 65.2401 344.334C65.9486 344.586 66.7019 344.688 67.4519 344.633C69.6751 344.48 71.1976 343.073 72.4206 341.939C72.9679 341.375 73.5894 340.889 74.268 340.493C74.5578 340.326 74.8831 340.23 75.2171 340.212V340.212Z" fill="#4C3133"/>
<path d="M109.717 431.535L99.684 492.841H49.9015L38.5245 431.637C38.0403 429.025 39.7475 426.541 42.0344 426.541H106.188C108.443 426.534 110.137 428.923 109.717 431.535Z" fill="white"/>
<path d="M42.028 426.534C39.7348 426.534 38.0339 428.993 38.5181 431.63L49.9015 492.809H99.684L109.717 431.535C110.137 428.955 108.443 426.566 106.188 426.566H42.028V426.534ZM42.028 422.107H106.188C107.324 422.114 108.445 422.369 109.473 422.854C110.501 423.34 111.41 424.043 112.138 424.916C112.98 425.923 113.594 427.1 113.936 428.367C114.278 429.634 114.34 430.961 114.119 432.255L104.086 493.561C103.915 494.605 103.378 495.554 102.572 496.239C101.766 496.924 100.742 497.3 99.684 497.3H49.9015C48.8585 497.301 47.8482 496.936 47.0463 496.269C46.2444 495.602 45.7017 494.675 45.5124 493.65L34.1418 432.446C33.8905 431.138 33.9316 429.792 34.262 428.502C34.5924 427.212 35.2039 426.012 36.0528 424.986C36.7796 424.093 37.6951 423.371 38.7336 422.873C39.7722 422.376 40.9081 422.114 42.0598 422.107H42.028Z" fill="#4C3133"/>
<path d="M81.0769 483.891C84.3179 483.889 87.4526 482.735 89.9208 480.634C92.3889 478.534 94.0297 475.624 94.5497 472.425L102.06 426.515H106.188C108.443 426.515 110.137 428.904 109.717 431.484L99.684 492.79H49.9015L47.9522 482.324C49.8936 483.337 52.05 483.867 54.2395 483.872L81.0769 483.891Z" fill="#F0F0F0"/>
<path d="M67.0574 424.871C67.2221 424.87 67.3864 424.853 67.5479 424.82C67.8336 424.756 68.1038 424.635 68.343 424.466C68.5822 424.297 68.7858 424.082 68.9419 423.834C69.0981 423.587 69.2039 423.31 69.2533 423.022C69.3026 422.733 69.2946 422.437 69.2296 422.151C66.2611 408.978 63.1907 395.352 58.1392 382.478C52.4061 367.903 44.8002 356.208 35.4807 347.71C35.0431 347.311 34.4651 347.103 33.8737 347.13C33.2824 347.158 32.7262 347.419 32.3275 347.857C31.9288 348.294 31.7202 348.872 31.7477 349.464C31.7752 350.055 32.0364 350.611 32.474 351.01C41.2839 359.036 48.5203 370.171 53.9923 384.134C58.9164 396.69 61.9486 410.144 64.8788 423.158C64.9963 423.647 65.2752 424.082 65.6705 424.393C66.0658 424.704 66.5544 424.872 67.0574 424.871Z" fill="#4C3133"/>
<path d="M66.0632 383.944C70.5605 390.352 78.7143 400.385 87.3586 400.57C94.423 400.722 100.628 394.199 105.278 389.537C112.609 382.262 118.419 373.6 122.369 364.056C122.675 363.304 122.968 362.406 122.541 361.718C121.662 360.291 119.553 361.546 117.922 361.928C115.311 362.565 112.75 360.158 112.189 357.533C111.629 354.909 112.431 352.201 113.247 349.64L122.076 321.879C122.872 319.331 123.681 316.669 122.955 314.133C122.229 311.598 119.292 309.521 116.929 310.706C113.973 312.184 113.31 317.669 110.043 317.146C107.494 316.739 107.386 313.101 107.889 310.541C110.765 295.889 110.371 280.783 106.736 266.3C106.24 264.332 105.316 262.032 103.316 261.714C100.819 261.306 99.1879 264.345 98.984 266.861C98.7802 269.377 99.0541 272.275 97.2641 274.059C95.2575 276.066 91.6584 275.333 89.6199 273.371C87.5815 271.409 86.6451 268.587 85.5877 265.95C83.581 260.917 80.9048 256.177 77.6314 251.859C75.3955 248.91 71.8091 245.89 68.4138 247.355C65.3307 248.687 64.751 252.757 64.872 256.108C65.1651 264.319 66.9869 272.384 68.796 280.397L56.1959 270.001C54.9219 268.95 53.4313 267.835 51.8005 268.058C49.2525 268.409 48.2906 271.587 48.2524 274.155C48.2134 278.326 49.0814 282.455 50.7961 286.257C52.5109 290.06 55.0315 293.444 58.1834 296.176C60.0944 297.813 62.2985 299.24 63.6808 301.361C65.0631 303.483 65.337 306.629 63.4706 308.368L53.2784 302.298C51.7814 301.406 49.9978 300.489 48.3862 301.145C46.7745 301.801 46.1757 303.623 46.3732 305.247C46.5707 306.871 47.4498 308.318 48.2843 309.706L66.6302 339.168C67.0499 339.725 67.3117 340.386 67.3882 341.079C67.4328 343.073 64.6109 343.831 62.7699 343.073C60.9289 342.315 59.4256 340.748 57.47 340.366C54.2212 339.729 51.2018 342.824 50.6539 346.099C50.1061 349.373 51.2909 352.634 52.4949 355.724C56.2724 365.489 60.0498 375.376 66.0632 383.944Z" fill="#FFD900"/>
<path d="M87.6005 402.799C95.1554 402.799 101.513 396.429 106.176 391.792L106.851 391.116C114.386 383.621 120.362 374.708 124.433 364.891C124.726 364.177 125.509 362.279 124.433 360.54C122.834 357.941 119.859 358.954 118.425 359.438C118.05 359.565 117.693 359.686 117.406 359.75C117.165 359.797 116.917 359.795 116.677 359.742C116.437 359.69 116.21 359.588 116.011 359.444C115.169 358.884 114.571 358.026 114.336 357.043C113.865 354.934 114.648 352.475 115.336 350.309L124.165 322.548C124.942 320.115 126 316.783 125.07 313.516C124.752 312.451 124.209 311.468 123.478 310.632C122.747 309.795 121.845 309.126 120.833 308.668C120.06 308.307 119.217 308.123 118.364 308.13C117.511 308.137 116.67 308.333 115.903 308.706C114.056 309.623 112.998 311.35 112.081 312.872C111.533 313.77 110.807 315.006 110.38 314.942C110.304 314.942 110.291 314.942 110.234 314.847C109.87 314.325 109.698 312.828 110.062 310.968C112.996 295.988 112.594 280.546 108.883 265.74C107.94 262.007 106.182 259.905 103.66 259.497C102.967 259.383 102.259 259.418 101.581 259.599C100.903 259.78 100.272 260.104 99.7292 260.548C97.7672 262.09 96.9072 264.72 96.748 266.676C96.7097 267.173 96.6906 267.683 96.6651 268.199C96.5887 269.963 96.5186 271.632 95.6778 272.473C94.6267 273.518 92.3844 272.944 91.155 271.759C89.7026 270.352 88.8809 268.269 88.0209 266.058L87.6451 265.109C85.5535 259.89 82.768 254.977 79.3639 250.502C75.6692 245.623 71.2229 243.68 67.4836 245.298C65.1139 246.324 62.3429 249.044 62.5977 256.178C62.9145 262.362 63.767 268.507 65.1458 274.543L57.5017 268.269C56.3168 267.294 54.1 265.472 51.3864 265.842C48.1312 266.281 45.9845 269.53 45.9144 274.123C45.868 278.627 46.807 283.087 48.6656 287.19C50.5241 291.294 53.2572 294.941 56.6735 297.877C57.1577 298.285 57.6482 298.68 58.1387 299.075C59.5175 300.048 60.7342 301.232 61.7442 302.584C62.2506 303.365 62.5123 304.279 62.4958 305.209L54.3548 300.355C53.0235 299.565 50.2652 297.922 47.4815 299.081C45.1436 300.036 43.7486 302.68 44.0926 305.515C44.3537 307.655 45.4621 309.445 46.3539 310.885L64.6553 340.378C64.7882 340.584 64.9095 340.796 65.0184 341.015C64.5381 341.197 64.0081 341.197 63.5278 341.015C62.8996 340.73 62.2983 340.389 61.7314 339.996C60.5554 339.144 59.2248 338.53 57.8138 338.187C56.8665 338.015 55.8942 338.036 54.9551 338.248C54.016 338.46 53.1294 338.86 52.3482 339.423C50.2465 340.919 48.8184 343.182 48.3733 345.723C47.7362 349.679 49.1632 353.469 50.3353 356.552C54.0745 366.317 57.9794 376.421 64.1584 385.262C72.2358 396.767 79.9945 402.678 87.231 402.837L87.6005 402.799ZM120.158 363.559C116.316 372.685 110.729 380.973 103.71 387.957L103.023 388.638C98.6399 393.015 93.1934 398.474 87.4094 398.34C81.7527 398.219 75.0067 392.798 67.8913 382.663C61.999 374.274 58.2279 364.432 54.5778 354.915C53.5522 352.24 52.3928 349.182 52.8578 346.455C53.1023 345.102 53.8599 343.894 54.9727 343.086C55.2653 342.864 55.5991 342.704 55.9546 342.613C56.3101 342.522 56.6801 342.503 57.043 342.557C57.8952 342.808 58.6956 343.209 59.4063 343.742C60.212 344.283 61.0648 344.749 61.9544 345.137C62.8981 345.517 63.9191 345.666 64.9321 345.571C65.9451 345.475 66.9205 345.139 67.7767 344.589C68.3644 344.204 68.8447 343.675 69.1723 343.054C69.4999 342.432 69.6641 341.737 69.6495 341.034C69.574 339.94 69.1969 338.889 68.5602 337.996L50.2588 308.502C49.5326 307.324 48.7746 306.113 48.6345 304.941C48.5453 304.196 48.851 303.355 49.2715 303.177C50.004 302.884 51.5838 303.814 52.1826 304.183L62.3748 310.254C62.7875 310.499 63.2678 310.604 63.745 310.555C64.2222 310.506 64.6709 310.304 65.0248 309.98C67.8531 307.381 67.4327 302.973 65.5917 300.151C64.3336 298.388 62.7924 296.844 61.0307 295.584C60.572 295.223 60.1198 294.853 59.6739 294.475C56.7516 291.971 54.4123 288.858 52.82 285.354C51.2277 281.851 50.421 278.041 50.4563 274.193C50.4563 272.409 51.0933 270.403 52.0743 270.269C52.8578 270.167 54.0873 271.18 54.7498 271.721L67.3563 282.111C67.7142 282.393 68.15 282.559 68.6051 282.586C69.0601 282.613 69.5124 282.499 69.9011 282.261C70.2899 282.023 70.5963 281.672 70.7791 281.254C70.9619 280.837 71.0123 280.373 70.9235 279.926C69.159 272.129 67.3371 264.071 67.0505 256.044C66.9868 254.369 67.0505 250.356 69.2482 249.426C71.2866 248.54 74.0576 250.916 75.803 253.248C78.9502 257.408 81.5215 261.974 83.4471 266.823L83.8102 267.734C84.7594 270.18 85.8423 272.944 87.9954 275.021C90.8046 277.735 95.8052 278.646 98.7737 275.658C100.838 273.594 100.965 270.727 101.061 268.428C101.061 267.963 101.105 267.504 101.137 267.058C101.19 265.948 101.643 264.894 102.411 264.09C102.659 263.892 102.787 263.918 102.876 263.931C103.316 264.001 103.972 264.81 104.488 266.861C108.037 281.027 108.424 295.801 105.622 310.133C105.341 311.541 104.87 315.076 106.507 317.42C106.862 317.942 107.321 318.384 107.854 318.719C108.388 319.055 108.986 319.276 109.609 319.37C112.947 319.905 114.667 317.089 115.814 315.229C116.451 314.165 117.139 313.07 117.846 312.719C118.027 312.64 118.225 312.603 118.423 312.613C118.621 312.623 118.814 312.679 118.986 312.777C119.398 312.969 119.765 313.246 120.064 313.588C120.364 313.93 120.589 314.33 120.725 314.764C121.247 316.592 120.649 318.771 119.865 321.223L111.036 348.984C110.221 351.532 109.202 354.756 109.934 358.036C110.424 360.185 111.736 362.056 113.591 363.247C114.29 363.703 115.074 364.014 115.895 364.164C116.716 364.314 117.559 364.299 118.375 364.12C118.871 363.999 119.349 363.84 119.808 363.687L120.158 363.559Z" fill="#4C3133"/>
<path d="M82.7456 424.311C83.2156 424.31 83.6732 424.16 84.053 423.884C84.4329 423.607 84.7155 423.217 84.8605 422.77C96.8076 385.788 96.5082 345.938 84.0069 309.14C83.9207 308.852 83.7775 308.586 83.5858 308.355C83.3941 308.125 83.1579 307.935 82.8913 307.798C82.6247 307.661 82.3332 307.579 82.0342 307.557C81.7352 307.535 81.4349 307.574 81.1512 307.671C80.8675 307.768 80.6063 307.921 80.3831 308.121C80.1599 308.321 79.9794 308.564 79.8523 308.836C79.7252 309.107 79.6542 309.401 79.6434 309.701C79.6327 310.001 79.6825 310.299 79.7899 310.579C91.9861 346.474 92.2787 385.345 80.6244 421.419C80.5175 421.754 80.4909 422.11 80.5467 422.457C80.6025 422.804 80.7391 423.133 80.9456 423.418C81.152 423.702 81.4225 423.934 81.7352 424.095C82.0479 424.256 82.394 424.341 82.7456 424.343V424.311Z" fill="#4C3133"/>
<path d="M71.8795 441.09H110.737C111.329 441.09 111.896 440.855 112.314 440.437C112.732 440.019 112.967 439.451 112.967 438.86C112.967 438.269 112.732 437.702 112.314 437.284C111.896 436.866 111.329 436.631 110.737 436.631H71.8795C71.2882 436.631 70.7211 436.866 70.303 437.284C69.8849 437.702 69.65 438.269 69.65 438.86C69.65 439.451 69.8849 440.019 70.303 440.437C70.7211 440.855 71.2882 441.09 71.8795 441.09V441.09Z" fill="#4C3133"/>
<path d="M50.2201 441.09H57.8642C58.4555 441.09 59.0226 440.855 59.4407 440.437C59.8588 440.019 60.0938 439.451 60.0938 438.86C60.0938 438.269 59.8588 437.702 59.4407 437.284C59.0226 436.866 58.4555 436.631 57.8642 436.631H50.2201C49.6288 436.631 49.0617 436.866 48.6436 437.284C48.2254 437.702 47.9905 438.269 47.9905 438.86C47.9905 439.451 48.2254 440.019 48.6436 440.437C49.0617 440.855 49.6288 441.09 50.2201 441.09V441.09Z" fill="#4C3133"/>
<path d="M185.42 89.4587H328.442C329.674 89.4579 330.895 89.6998 332.033 90.1706C333.172 90.6413 334.207 91.3318 335.079 92.2025C335.951 93.0732 336.643 94.1072 337.115 95.2453C337.587 96.3834 337.831 97.6033 337.832 98.8356V140.496C337.832 141.729 337.59 142.949 337.119 144.088C336.648 145.227 335.957 146.261 335.085 147.133C334.214 148.004 333.179 148.696 332.04 149.167C330.901 149.638 329.681 149.88 328.448 149.879H324.416C324.134 149.879 323.863 149.991 323.664 150.191C323.464 150.39 323.352 150.661 323.352 150.943V161.868C323.354 162.056 323.305 162.24 323.212 162.403C323.119 162.566 322.984 162.701 322.821 162.794C322.658 162.888 322.474 162.936 322.286 162.934C322.098 162.933 321.915 162.881 321.753 162.785L300.203 150.045C300.041 149.945 299.853 149.892 299.662 149.892H185.42C184.186 149.893 182.964 149.65 181.824 149.178C180.684 148.706 179.649 148.014 178.777 147.142C177.904 146.269 177.213 145.233 176.742 144.092C176.27 142.952 176.029 141.73 176.03 140.496V98.8356C176.034 96.3475 177.025 93.9625 178.785 92.2044C180.546 90.4462 182.932 89.4587 185.42 89.4587V89.4587Z" fill="white"/>
<path d="M185.42 89.4591C182.932 89.4591 180.546 90.4466 178.786 92.2047C177.025 93.9628 176.034 96.3478 176.031 98.8359V140.496C176.031 141.729 176.274 142.95 176.746 144.089C177.218 145.228 177.909 146.262 178.781 147.134C179.653 148.005 180.689 148.696 181.828 149.167C182.967 149.638 184.188 149.881 185.42 149.88H299.656C299.847 149.879 300.035 149.932 300.197 150.033L321.747 162.773C321.909 162.869 322.094 162.92 322.282 162.919C322.565 162.919 322.835 162.807 323.035 162.608C323.234 162.408 323.346 162.138 323.346 161.855V150.943C323.346 150.661 323.458 150.391 323.658 150.191C323.857 149.992 324.128 149.88 324.41 149.88H328.442C329.675 149.881 330.897 149.64 332.036 149.169C333.176 148.698 334.211 148.007 335.083 147.136C335.955 146.264 336.647 145.229 337.119 144.09C337.59 142.951 337.833 141.729 337.832 140.496V98.8359C337.831 97.6037 337.588 96.3837 337.115 95.2456C336.643 94.1075 335.951 93.0736 335.079 92.2029C334.207 91.3321 333.172 90.6417 332.034 90.1709C330.895 89.7001 329.675 89.4582 328.442 89.4591H185.42ZM185.42 85H328.442C332.112 85.0034 335.631 86.4618 338.227 89.0554C340.823 91.649 342.284 95.1663 342.291 98.8359V140.496C342.286 144.166 340.826 147.684 338.231 150.279C335.636 152.874 332.118 154.334 328.449 154.339H327.812V161.868C327.813 162.843 327.556 163.801 327.067 164.644C326.579 165.487 325.875 166.186 325.028 166.668C324.182 167.151 323.222 167.401 322.247 167.393C321.273 167.384 320.318 167.118 319.48 166.62L298.732 154.339H185.42C181.75 154.335 178.23 152.876 175.634 150.281C173.038 147.686 171.577 144.167 171.572 140.496V98.8359C171.579 95.1663 173.04 91.649 175.636 89.0554C178.232 86.4618 181.751 85.0034 185.42 85Z" fill="#4C3133"/>
<path d="M247.122 128.164H322.672C323.263 128.164 323.83 127.929 324.248 127.511C324.666 127.093 324.901 126.526 324.901 125.935C324.901 125.343 324.666 124.776 324.248 124.358C323.83 123.94 323.263 123.705 322.672 123.705H247.122C246.531 123.705 245.964 123.94 245.546 124.358C245.128 124.776 244.893 125.343 244.893 125.935C244.893 126.526 245.128 127.093 245.546 127.511C245.964 127.929 246.531 128.164 247.122 128.164V128.164Z" fill="#4C3133"/>
<path d="M322.671 116.214C323.263 116.218 323.832 115.987 324.253 115.572C324.674 115.157 324.913 114.591 324.917 114C324.921 113.409 324.69 112.84 324.275 112.419C323.86 111.998 323.295 111.759 322.703 111.754L281.775 111.117C281.483 111.113 281.192 111.167 280.92 111.275C280.648 111.383 280.399 111.544 280.189 111.748C279.979 111.952 279.812 112.195 279.696 112.464C279.58 112.733 279.518 113.022 279.514 113.315C279.51 113.608 279.563 113.899 279.671 114.171C279.78 114.443 279.94 114.691 280.144 114.901C280.348 115.111 280.592 115.279 280.861 115.395C281.13 115.511 281.419 115.572 281.712 115.576L322.633 116.214H322.671Z" fill="#4C3133"/>
<path d="M215.442 122.386C218.984 122.252 229.214 122.781 231.616 133.171C231.679 133.464 231.837 133.728 232.065 133.923C232.293 134.118 232.579 134.232 232.879 134.249C233.178 134.266 233.475 134.183 233.723 134.015C233.971 133.847 234.158 133.601 234.253 133.317C236.483 126.66 237.081 115.028 215.366 113.028C215.043 113.005 214.739 112.869 214.506 112.644C214.273 112.42 214.127 112.12 214.092 111.799L213.276 103.473C213.253 103.229 213.164 102.996 213.019 102.798C212.875 102.6 212.68 102.444 212.455 102.347C212.23 102.25 211.982 102.215 211.739 102.246C211.496 102.278 211.266 102.373 211.072 102.524L192.854 116.691C192.694 116.814 192.564 116.971 192.472 117.151C192.381 117.33 192.329 117.527 192.323 117.729C192.316 117.93 192.354 118.131 192.434 118.316C192.513 118.501 192.633 118.666 192.784 118.8L210.977 134.973C211.167 135.144 211.401 135.258 211.652 135.303C211.904 135.347 212.163 135.321 212.4 135.226C212.637 135.131 212.843 134.972 212.995 134.767C213.146 134.561 213.237 134.317 213.257 134.062L214.13 123.647C214.157 123.313 214.306 123.001 214.548 122.769C214.789 122.536 215.107 122.4 215.442 122.386V122.386Z" fill="#C5E6F1"/>
<path d="M211.888 137.553C212.792 137.552 213.663 137.211 214.328 136.599C214.993 135.987 215.404 135.148 215.481 134.247L216.284 124.603C220.106 124.603 227.591 125.654 229.444 133.674C229.617 134.44 230.036 135.13 230.637 135.636C231.238 136.142 231.989 136.437 232.773 136.477C233.558 136.517 234.335 136.299 234.984 135.856C235.633 135.413 236.119 134.769 236.369 134.024C238.216 128.508 237.853 123.539 235.324 119.66C232.139 114.812 225.769 111.856 216.258 110.875L215.5 103.231C215.437 102.59 215.203 101.977 214.822 101.457C214.442 100.937 213.928 100.529 213.336 100.275C212.744 100.022 212.094 99.9314 211.455 100.014C210.816 100.097 210.211 100.35 209.703 100.747L191.485 114.939C191.067 115.264 190.726 115.676 190.486 116.147C190.246 116.619 190.113 117.137 190.096 117.665C190.079 118.194 190.179 118.719 190.388 119.205C190.597 119.691 190.911 120.124 191.306 120.475L209.499 136.649C210.158 137.233 211.008 137.555 211.888 137.553V137.553ZM215.354 120.163C214.475 120.197 213.64 120.552 213.005 121.16C212.37 121.767 211.98 122.587 211.907 123.463L211.181 132.17L195.033 117.819L211.213 105.238L211.895 112.015C211.98 112.849 212.353 113.628 212.949 114.217C213.545 114.806 214.328 115.17 215.162 115.245C223.603 116.022 229.126 118.328 231.585 122.099C233.158 124.501 233.273 127.297 232.859 129.743C228.954 120.411 218.653 120.016 215.354 120.144V120.163Z" fill="#4C3133"/>
<path d="M267.435 115.577H273.806C274.397 115.577 274.964 115.342 275.382 114.924C275.8 114.506 276.035 113.939 276.035 113.347C276.035 112.756 275.8 112.189 275.382 111.771C274.964 111.353 274.397 111.118 273.806 111.118H267.435C266.844 111.118 266.277 111.353 265.859 111.771C265.441 112.189 265.206 112.756 265.206 113.347C265.206 113.939 265.441 114.506 265.859 114.924C266.277 115.342 266.844 115.577 267.435 115.577Z" fill="#4C3133"/>
<path d="M202.906 263.796C218.086 245.278 248.312 235.175 269.117 247.017C284.1 255.547 292.164 272.568 296.426 289.27C300.688 305.973 302.108 323.459 308.325 339.537C318.205 365.069 339.73 385.007 364.382 396.868C388.729 408.602 410.77 412.424 437.62 413.45C435.072 439.51 416.019 461.862 392.468 473.966H255.02C248.678 471.449 242.625 468.256 236.967 464.442C217.449 451.142 204.39 430.127 195.561 408.213C185.551 383.313 180.328 356.748 180.165 329.912C180.018 306.005 187.726 282.308 202.906 263.796Z" fill="#C5E6F1"/>
<path d="M248.727 241.921C231.687 241.921 213.577 250.782 202.907 263.796C187.727 282.308 180.019 306.005 180.153 329.944C180.316 356.78 185.539 383.345 195.549 408.245C204.372 430.158 217.431 451.173 236.955 464.474C242.617 468.289 248.674 471.482 255.021 473.997H392.469C416.038 461.894 435.085 439.51 437.62 413.481C410.77 412.462 388.73 408.634 364.402 396.919C339.731 385.039 318.206 365.068 308.345 339.588C302.128 323.51 300.701 306.024 296.446 289.321C292.19 272.619 284.119 255.598 269.137 247.068C262.902 243.624 255.875 241.867 248.752 241.972L248.727 241.921ZM248.752 237.513C257.123 237.513 264.722 239.424 271.347 243.195C285.272 251.12 295.172 266.268 300.771 288.219C302.383 294.551 303.606 301.03 304.79 307.291C306.829 318.07 308.746 328.243 312.511 337.976C321.283 360.635 340.909 380.656 366.364 392.919C387.844 403.264 408.541 407.933 437.811 409.048C438.418 409.071 439.014 409.218 439.562 409.48C440.111 409.741 440.6 410.112 440.999 410.57C441.399 411.028 441.701 411.562 441.887 412.14C442.072 412.719 442.138 413.329 442.079 413.934C440.805 427.139 435.403 440.204 426.479 451.734C417.855 462.688 406.952 471.637 394.526 477.96C393.894 478.286 393.193 478.456 392.482 478.457H255.021C254.451 478.457 253.886 478.347 253.358 478.132C246.718 475.495 240.382 472.15 234.458 468.156C216.558 455.964 202.085 436.369 191.428 409.914C181.244 384.481 175.914 357.365 175.713 329.969C175.573 304.336 183.994 279.836 199.48 260.968C211.182 246.686 230.521 237.462 248.746 237.462L248.752 237.513Z" fill="#4C3133"/>
<path d="M241.644 459.563H355.669C383.353 459.563 408.706 443.275 419.472 417.769C420.217 416.011 420.873 414.214 421.466 412.405C426.702 412.902 432.078 413.24 437.665 413.45C435.117 439.51 416.064 461.863 392.514 473.966H255.021C239.089 467.738 225.238 457.139 215.061 443.389C217.763 445.777 220.612 447.994 223.591 450.027C229.248 453.845 235.301 457.042 241.644 459.563V459.563Z" fill="#81C4D4"/>
<path d="M237.502 278.333C272.538 275.148 272.538 308.272 260.435 321.013C248.331 333.753 225.08 321.331 205.333 323.242C194.561 324.287 180.566 318.146 181.483 312.311C183.488 299.441 187.906 287.066 194.504 275.836C208.403 275.116 211.436 280.703 237.502 278.333Z" fill="#81C4D4"/>
<path d="M196.836 299.596C194.278 299.596 192.205 297.523 192.205 294.965C192.205 292.408 194.278 290.334 196.836 290.334C199.393 290.334 201.467 292.408 201.467 294.965C201.467 297.523 199.393 299.596 196.836 299.596Z" fill="#4C3133"/>
<path d="M236.376 301.89C233.818 301.89 231.745 299.816 231.745 297.259C231.745 294.701 233.818 292.628 236.376 292.628C238.933 292.628 241.007 294.701 241.007 297.259C241.007 299.816 238.933 301.89 236.376 301.89Z" fill="#4C3133"/>
<path d="M196.83 269.466H197.155L202.442 268.931C203.287 268.846 204.063 268.43 204.601 267.773C205.138 267.116 205.393 266.272 205.308 265.427C205.224 264.582 204.807 263.806 204.15 263.268C203.493 262.731 202.649 262.476 201.805 262.561L196.524 263.096C196.106 263.116 195.695 263.219 195.317 263.398C194.938 263.577 194.599 263.829 194.317 264.139C194.036 264.449 193.819 264.812 193.678 265.206C193.537 265.6 193.474 266.019 193.495 266.437C193.515 266.855 193.618 267.265 193.797 267.644C193.976 268.022 194.228 268.362 194.538 268.643C194.848 268.925 195.211 269.142 195.605 269.283C196 269.424 196.418 269.486 196.836 269.466H196.83Z" fill="#4C3133"/>
<path d="M243.51 276.74C244.241 276.739 244.949 276.487 245.516 276.026C246.083 275.564 246.474 274.922 246.624 274.206C246.773 273.491 246.672 272.745 246.337 272.096C246.002 271.446 245.453 270.931 244.784 270.638L239.917 268.523C239.142 268.185 238.265 268.169 237.478 268.477C236.692 268.786 236.06 269.395 235.722 270.17C235.384 270.944 235.368 271.821 235.677 272.608C235.986 273.395 236.594 274.026 237.369 274.364L242.242 276.479C242.642 276.652 243.074 276.741 243.51 276.74V276.74Z" fill="#4C3133"/>
<path d="M230.732 227.085C245.817 222.626 265.016 225.888 278.807 233.455C284.84 236.768 290.42 241.17 297.083 242.89C303.746 244.609 312.155 242.539 314.735 236.163C316.257 232.411 315.372 227.99 313.181 224.588C310.989 221.187 307.645 218.683 304.135 216.676C295.264 211.642 285.079 209.406 274.915 210.262C272.176 210.497 268.469 210.306 267.908 207.618C267.488 205.535 269.571 203.796 271.59 203.159C273.609 202.522 275.884 202.344 277.502 200.981C279.572 199.235 279.808 195.942 278.565 193.54C277.323 191.139 274.922 189.521 272.418 188.508C262.283 184.405 250.193 189.1 242.95 197.292C235.707 205.484 232.478 216.434 230.554 227.194L230.732 227.085Z" fill="#C5E6F1"/>
<path d="M301.67 245.686C307.982 245.686 314.41 242.889 316.805 236.997C318.499 232.812 317.843 227.722 315.053 223.384C312.97 220.148 309.76 217.32 305.237 214.74C295.969 209.489 285.333 207.154 274.718 208.039C271.857 208.287 270.258 207.79 270.106 207.172C270.004 206.656 270.953 205.688 272.291 205.261C272.794 205.096 273.348 204.962 273.928 204.815C275.558 204.42 277.399 203.968 278.947 202.662C281.674 200.369 282.368 195.999 280.559 192.47C279.228 189.89 276.705 187.788 273.265 186.399C262.99 182.233 249.849 186.093 241.294 195.77C233.012 205.153 229.948 217.944 228.375 226.754C228.299 227.161 228.338 227.582 228.488 227.968C228.638 228.355 228.893 228.691 229.224 228.94C229.555 229.189 229.949 229.341 230.362 229.378C230.775 229.415 231.19 229.336 231.56 229.149C245.198 225.193 263.729 227.697 277.75 235.392C279.451 236.322 281.17 237.379 282.846 238.399C287.107 241.017 291.509 243.724 296.561 245.03C298.23 245.459 299.946 245.679 301.67 245.686V245.686ZM279.145 212.307C287.516 212.313 295.743 214.486 303.026 218.613C306.912 220.83 309.619 223.18 311.308 225.798C313.289 228.869 313.811 232.519 312.677 235.354C310.575 240.545 303.243 242.201 297.65 240.762C293.242 239.622 289.318 237.207 285.158 234.653C283.451 233.602 281.686 232.519 279.884 231.532C265.704 223.747 247.874 220.97 233.433 224.123C235.083 216.199 238.089 206.185 244.644 198.77C250.632 191.992 261.621 186.539 271.596 190.578C273.297 191.266 275.546 192.521 276.603 194.566C277.45 196.209 277.24 198.324 276.087 199.28C275.335 199.917 274.176 200.191 272.902 200.509C272.265 200.668 271.628 200.828 270.94 201.044C267.863 202.044 265.099 204.79 265.768 208.09C266.156 210.001 267.895 213.141 275.138 212.517C276.45 212.364 277.801 212.307 279.145 212.307Z" fill="#4C3133"/>
<path d="M124.606 239.055C144.773 245.202 161.979 226.353 165.827 209.116C166.54 205.931 167.247 202.561 166.336 199.414C165.425 196.267 162.291 193.503 159.093 194.203C155.896 194.904 154.303 198.388 152.914 201.357C151.526 204.325 149.092 207.6 145.869 207.211C142.365 206.797 140.926 202.574 140.251 199.108L136.091 177.717C135.486 174.602 134.575 171.061 131.734 169.64C128.549 168.054 124.523 170.232 122.854 173.367C121.185 176.501 121.261 180.246 121.42 183.794C121.58 187.343 121.777 191.056 120.299 194.292C118.827 187.363 116.096 180.762 112.241 174.819C110.623 172.335 107.941 169.678 105.158 170.685C102.673 171.583 102.03 174.749 101.934 177.386C101.666 184.835 102.687 192.275 104.954 199.376C103.68 195.904 102.297 192.292 99.5327 189.821C96.7681 187.349 92.1625 186.553 89.4489 189.063C85.9835 192.248 87.7162 197.981 89.9266 202.166C94.5166 210.822 100.156 218.88 106.718 226.156C111.693 231.672 117.484 236.883 124.606 239.055Z" fill="#C5E6F1"/>
<path d="M132.422 242.469C137.768 242.431 143.006 240.959 147.59 238.208C157.387 232.474 165.426 221.263 167.974 209.574C168.668 206.44 169.541 202.535 168.446 198.745C167.28 194.706 163.171 190.973 158.585 191.98C154.342 192.91 152.437 196.986 150.94 200.261L150.896 200.363C150.361 201.509 148.424 205.223 146.137 204.949C144.048 204.701 142.952 201.375 142.443 198.636L138.283 177.239C137.761 174.583 136.799 169.627 132.728 167.595C128.301 165.391 123.033 168.232 120.886 172.27C119.109 175.621 119.013 179.278 119.166 183.1C117.77 179.77 116.077 176.572 114.108 173.544C111.299 169.225 107.668 167.353 104.4 168.531C102.375 169.264 99.9412 171.366 99.7055 177.245C99.5806 180.635 99.7148 184.03 100.107 187.399C96.6288 184.941 91.3352 184.246 87.9399 187.399C84.379 190.693 84.3854 196.445 87.9399 203.185C92.6155 212.003 98.3624 220.211 105.05 227.62C109.573 232.627 115.803 238.685 123.944 241.17C126.69 242.02 129.547 242.458 132.422 242.469V242.469ZM160.107 196.298C161.872 196.298 163.662 198.12 164.209 200.006C164.987 202.681 164.286 205.828 163.662 208.606C161.317 219.135 154.106 229.245 145.36 234.354C138.952 238.086 131.983 238.978 125.269 236.902C118.173 234.742 112.529 229.213 108.388 224.633C101.942 217.488 96.4062 209.571 91.9085 201.063C90.9657 199.286 88.1183 193.285 90.9784 190.642C92.7684 188.986 96.151 189.731 98.062 191.432C100.476 193.572 101.75 197.025 102.878 200.07C103.07 200.629 103.477 201.089 104.009 201.348C104.541 201.607 105.153 201.645 105.713 201.452C106.272 201.259 106.732 200.852 106.991 200.321C107.25 199.789 107.287 199.176 107.095 198.617C104.895 191.763 103.905 184.579 104.171 177.386C104.222 176.156 104.477 173.226 105.929 172.704C107.241 172.232 109.114 173.978 110.388 175.959C114.103 181.666 116.732 188.011 118.141 194.674C118.237 195.134 118.477 195.551 118.825 195.866C119.172 196.182 119.611 196.379 120.078 196.431C120.544 196.482 121.015 196.385 121.424 196.153C121.832 195.921 122.157 195.566 122.351 195.139C124.033 191.451 123.842 187.342 123.676 183.724V183.616C123.517 180.188 123.485 176.901 124.848 174.341C125.989 172.2 128.76 170.563 130.76 171.563C132.614 172.487 133.378 175.233 133.945 178.067L138.105 199.458C139.289 205.567 141.831 208.899 145.647 209.351C149.303 209.79 152.654 207.255 154.973 202.223L155.024 202.121C156.196 199.611 157.521 196.757 159.61 196.305C159.775 196.286 159.942 196.284 160.107 196.298V196.298Z" fill="#4C3133"/>
<path d="M146.302 208.274C143.271 208.372 140.308 209.193 137.659 210.668C135.01 212.143 132.751 214.229 131.071 216.753" fill="#C5E6F1"/>
<path d="M131.064 218.982C131.436 218.984 131.803 218.892 132.13 218.715C132.457 218.538 132.735 218.281 132.937 217.969C134.424 215.753 136.415 213.919 138.747 212.619C141.079 211.32 143.685 210.59 146.353 210.491C146.944 210.477 147.506 210.23 147.914 209.802C148.323 209.374 148.545 208.802 148.531 208.21C148.518 207.619 148.27 207.057 147.842 206.649C147.414 206.24 146.842 206.018 146.251 206.032C142.858 206.131 139.538 207.043 136.572 208.693C133.605 210.343 131.078 212.681 129.204 215.511C129.043 215.755 128.932 216.029 128.876 216.317C128.821 216.605 128.823 216.9 128.882 217.187C128.942 217.474 129.057 217.747 129.221 217.989C129.386 218.232 129.596 218.439 129.841 218.6C130.203 218.843 130.628 218.976 131.064 218.982V218.982Z" fill="#4C3133"/>
<path d="M182.083 179.596C182.083 179.596 188.453 204.439 166.795 235.016Z" fill="white"/>
<path d="M166.794 237.245C167.151 237.246 167.503 237.16 167.82 236.996C168.137 236.832 168.41 236.594 168.616 236.303C190.619 205.242 184.542 180.099 184.242 179.042C184.083 178.483 183.712 178.009 183.209 177.72C182.706 177.431 182.109 177.35 181.547 177.493C180.985 177.637 180.5 177.994 180.197 178.489C179.894 178.984 179.796 179.577 179.923 180.144C180 180.462 185.656 204.497 164.973 233.729C164.737 234.063 164.597 234.455 164.569 234.863C164.541 235.271 164.626 235.679 164.814 236.042C165.002 236.405 165.286 236.709 165.635 236.921C165.985 237.133 166.386 237.246 166.794 237.245V237.245Z" fill="#4C3133"/>
<path d="M559.958 192.215H381.403C378.295 192.215 375.313 193.45 373.115 195.648C370.917 197.846 369.682 200.828 369.682 203.936V255.948C369.682 259.057 370.917 262.038 373.115 264.236C375.313 266.435 378.295 267.669 381.403 267.669H386.436C386.788 267.671 387.125 267.812 387.373 268.062C387.621 268.311 387.761 268.649 387.761 269.001V282.639C387.761 282.873 387.822 283.103 387.94 283.305C388.057 283.507 388.226 283.675 388.429 283.791C388.633 283.906 388.863 283.966 389.097 283.964C389.33 283.962 389.56 283.899 389.761 283.779L416.662 267.854C416.866 267.733 417.1 267.67 417.337 267.669H559.958C563.066 267.669 566.048 266.435 568.246 264.236C570.444 262.038 571.679 259.057 571.679 255.948V203.936C571.679 200.828 570.444 197.846 568.246 195.648C566.048 193.45 563.066 192.215 559.958 192.215V192.215Z" fill="white"/>
<path d="M381.403 192.216C378.294 192.216 375.313 193.451 373.115 195.649C370.917 197.847 369.682 200.828 369.682 203.937V255.949C369.682 259.057 370.917 262.039 373.115 264.237C375.313 266.435 378.294 267.67 381.403 267.67H386.435C386.787 267.671 387.124 267.812 387.373 268.062C387.621 268.311 387.76 268.649 387.76 269.001V282.64C387.76 282.873 387.822 283.103 387.94 283.305C388.057 283.508 388.226 283.675 388.429 283.791C388.632 283.907 388.863 283.967 389.096 283.965C389.33 283.963 389.559 283.899 389.761 283.78L416.662 267.854C416.866 267.734 417.099 267.67 417.337 267.67H559.958C563.066 267.67 566.047 266.435 568.246 264.237C570.444 262.039 571.679 259.057 571.679 255.949V203.937C571.679 200.828 570.444 197.847 568.246 195.649C566.047 193.451 563.066 192.216 559.958 192.216H381.403ZM381.403 187.757H559.958C564.247 187.762 568.36 189.468 571.393 192.501C574.426 195.534 576.133 199.647 576.138 203.937V255.949C576.134 260.239 574.429 264.352 571.395 267.386C568.361 270.42 564.248 272.125 559.958 272.129H418.197L392.035 287.615C391.157 288.135 390.156 288.414 389.135 288.423C388.115 288.432 387.11 288.17 386.222 287.665C385.335 287.159 384.598 286.428 384.085 285.546C383.572 284.663 383.301 283.66 383.301 282.64V272.129H381.39C377.1 272.125 372.987 270.42 369.953 267.386C366.919 264.352 365.214 260.239 365.21 255.949V203.937C365.215 199.647 366.922 195.534 369.955 192.501C372.988 189.468 377.101 187.762 381.39 187.757H381.403Z" fill="#4C3133"/>
<path d="M571.678 211.867C561.261 211.867 552.816 203.422 552.816 193.005C552.816 182.588 561.261 174.143 571.678 174.143C582.095 174.143 590.54 182.588 590.54 193.005C590.54 203.422 582.095 211.867 571.678 211.867Z" fill="white"/>
<path d="M571.679 174.143C567.948 174.143 564.302 175.249 561.2 177.322C558.098 179.395 555.68 182.34 554.253 185.787C552.825 189.234 552.452 193.026 553.179 196.685C553.907 200.344 555.704 203.705 558.342 206.342C560.979 208.98 564.34 210.777 567.999 211.505C571.658 212.232 575.451 211.859 578.897 210.431C582.344 209.004 585.29 206.586 587.362 203.484C589.435 200.382 590.541 196.736 590.541 193.005C590.541 188.003 588.554 183.205 585.016 179.668C581.479 176.13 576.681 174.143 571.679 174.143V174.143ZM571.679 169.684C576.291 169.684 580.8 171.052 584.635 173.614C588.471 176.177 591.46 179.819 593.225 184.081C594.99 188.342 595.452 193.031 594.552 197.555C593.652 202.079 591.431 206.234 588.169 209.496C584.908 212.757 580.753 214.978 576.229 215.878C571.705 216.778 567.016 216.316 562.754 214.551C558.493 212.786 554.851 209.797 552.288 205.962C549.726 202.126 548.358 197.618 548.358 193.005C548.365 186.822 550.824 180.894 555.196 176.522C559.568 172.15 565.496 169.691 571.679 169.684V169.684Z" fill="#4C3133"/>
<path d="M429.408 245.667H398.774C395.731 245.667 393.264 243.2 393.264 240.157V222.098C393.264 219.054 395.731 216.587 398.774 216.587H429.408C432.451 216.587 434.918 219.054 434.918 222.098V240.157C434.918 243.2 432.451 245.667 429.408 245.667Z" fill="#C5E6F1"/>
<path d="M398.774 247.897H429.408C431.461 247.893 433.429 247.076 434.88 245.624C436.33 244.172 437.146 242.203 437.148 240.151V222.098C437.146 220.045 436.33 218.077 434.88 216.624C433.429 215.172 431.461 214.355 429.408 214.352H398.774C396.722 214.355 394.754 215.172 393.303 216.624C391.852 218.077 391.036 220.045 391.035 222.098V240.151C391.036 242.203 391.852 244.172 393.303 245.624C394.754 247.076 396.722 247.893 398.774 247.897V247.897ZM429.408 218.811C430.279 218.812 431.113 219.159 431.728 219.776C432.343 220.392 432.689 221.227 432.689 222.098V240.151C432.689 241.021 432.343 241.856 431.728 242.473C431.113 243.089 430.279 243.436 429.408 243.438H398.774C397.904 243.436 397.069 243.089 396.454 242.473C395.839 241.856 395.494 241.021 395.494 240.151V222.098C395.494 221.227 395.839 220.392 396.454 219.776C397.069 219.159 397.904 218.812 398.774 218.811H429.408Z" fill="#4C3133"/>
<path d="M433.988 245.451C434.441 245.451 434.882 245.313 435.255 245.056C435.627 244.799 435.912 244.435 436.073 244.012C436.233 243.588 436.261 243.127 436.152 242.687C436.044 242.248 435.805 241.852 435.466 241.552L415.177 223.563C414.771 223.21 414.25 223.016 413.712 223.016C413.174 223.016 412.654 223.21 412.247 223.563L392.245 240.629C391.795 241.012 391.515 241.559 391.468 242.148C391.421 242.738 391.61 243.322 391.993 243.772C392.377 244.222 392.923 244.502 393.513 244.549C394.102 244.596 394.687 244.407 395.137 244.024L413.636 228.181L432.504 244.89C432.914 245.252 433.442 245.452 433.988 245.451V245.451Z" fill="#4C3133"/>
<path d="M395.035 218.052L413.7 233.876L433.141 218.052" fill="#C5E6F1"/>
<path d="M413.699 236.105C414.211 236.106 414.707 235.928 415.101 235.602L434.549 219.779C435.008 219.405 435.299 218.865 435.359 218.277C435.42 217.688 435.244 217.1 434.871 216.641C434.497 216.183 433.957 215.891 433.369 215.831C432.78 215.77 432.192 215.946 431.733 216.32L413.725 230.971L396.481 216.32C396.03 215.937 395.445 215.749 394.856 215.798C394.266 215.846 393.72 216.127 393.337 216.578C392.955 217.029 392.767 217.613 392.815 218.203C392.864 218.792 393.144 219.339 393.595 219.721L412.253 235.545C412.653 235.898 413.166 236.097 413.699 236.105V236.105Z" fill="#4C3133"/>
<path d="M450.641 242.393H544.957C545.548 242.393 546.115 242.158 546.534 241.74C546.952 241.322 547.187 240.754 547.187 240.163C547.187 239.572 546.952 239.005 546.534 238.587C546.115 238.169 545.548 237.934 544.957 237.934H450.641C450.05 237.934 449.483 238.169 449.064 238.587C448.646 239.005 448.411 239.572 448.411 240.163C448.411 240.754 448.646 241.322 449.064 241.74C449.483 242.158 450.05 242.393 450.641 242.393Z" fill="#4C3133"/>
<path d="M450.641 227.461H450.672L501.761 226.671C502.054 226.667 502.343 226.604 502.611 226.488C502.88 226.372 503.123 226.204 503.327 225.993C503.531 225.783 503.691 225.535 503.799 225.263C503.907 224.99 503.96 224.699 503.955 224.407C503.951 224.114 503.888 223.825 503.772 223.556C503.656 223.287 503.488 223.044 503.277 222.84C503.067 222.637 502.819 222.476 502.547 222.369C502.274 222.261 501.983 222.208 501.691 222.212L450.602 223.002C450.011 223.007 449.446 223.247 449.031 223.669C448.617 224.09 448.387 224.659 448.392 225.251C448.397 225.842 448.637 226.407 449.058 226.822C449.48 227.236 450.049 227.466 450.641 227.461V227.461Z" fill="#4C3133"/>
<path d="M573.207 201.573H573.278C573.639 201.561 573.991 201.461 574.305 201.283C574.619 201.104 574.885 200.852 575.08 200.548L580.813 191.629C580.99 191.384 581.115 191.105 581.181 190.809C581.247 190.514 581.251 190.208 581.195 189.91C581.138 189.613 581.022 189.33 580.853 189.079C580.683 188.828 580.465 188.615 580.21 188.451C579.955 188.287 579.67 188.177 579.371 188.127C579.073 188.077 578.767 188.089 578.473 188.161C578.179 188.233 577.903 188.364 577.661 188.547C577.42 188.729 577.218 188.959 577.068 189.222L573.08 195.42L564.162 183.367C563.994 183.117 563.777 182.903 563.524 182.738C563.271 182.574 562.988 182.462 562.69 182.411C562.393 182.359 562.089 182.368 561.795 182.438C561.501 182.508 561.225 182.636 560.983 182.815C560.74 182.995 560.537 183.222 560.384 183.482C560.232 183.743 560.134 184.031 560.097 184.331C560.059 184.63 560.083 184.934 560.166 185.224C560.25 185.514 560.391 185.784 560.582 186.017L571.411 200.669C571.618 200.951 571.888 201.18 572.2 201.337C572.513 201.494 572.858 201.575 573.207 201.573V201.573Z" fill="#4C3133"/>
<path d="M508.869 226.416H517.788C518.379 226.416 518.946 226.181 519.364 225.763C519.782 225.345 520.017 224.778 520.017 224.187C520.017 223.596 519.782 223.028 519.364 222.61C518.946 222.192 518.379 221.957 517.788 221.957H508.869C508.278 221.957 507.711 222.192 507.293 222.61C506.875 223.028 506.64 223.596 506.64 224.187C506.64 224.778 506.875 225.345 507.293 225.763C507.711 226.181 508.278 226.416 508.869 226.416V226.416Z" fill="#4C3133"/>
<path d="M136.091 389.02H288.145C290.793 389.02 293.332 390.071 295.204 391.943C297.076 393.815 298.127 396.354 298.127 399.002V443.3C298.128 444.611 297.871 445.91 297.369 447.121C296.868 448.333 296.133 449.434 295.206 450.362C294.279 451.29 293.178 452.025 291.967 452.527C290.755 453.03 289.457 453.288 288.145 453.288H283.865C283.565 453.288 283.278 453.406 283.065 453.618C282.853 453.829 282.733 454.116 282.731 454.415V466.035C282.73 466.233 282.677 466.428 282.577 466.6C282.477 466.771 282.334 466.913 282.161 467.012C281.989 467.11 281.793 467.161 281.594 467.159C281.396 467.158 281.201 467.104 281.03 467.003L258.098 453.441C257.921 453.34 257.721 453.287 257.518 453.288H136.091C133.443 453.286 130.904 452.233 129.032 450.36C127.16 448.487 126.109 445.948 126.109 443.3V399.002C126.11 396.355 127.163 393.817 129.034 391.945C130.906 390.074 133.444 389.021 136.091 389.02Z" fill="white"/>
<path d="M136.091 389.02C133.444 389.022 130.906 390.074 129.034 391.946C127.162 393.817 126.11 396.355 126.109 399.002V443.3C126.109 445.948 127.16 448.487 129.032 450.36C130.904 452.233 133.443 453.287 136.091 453.288H257.569C257.772 453.288 257.972 453.34 258.148 453.441L281.081 467.003C281.252 467.106 281.447 467.162 281.646 467.165C281.845 467.167 282.042 467.116 282.215 467.018C282.389 466.919 282.532 466.776 282.632 466.603C282.732 466.43 282.783 466.234 282.782 466.035V454.416C282.783 454.116 282.904 453.829 283.116 453.618C283.329 453.407 283.616 453.288 283.916 453.288H288.145C289.457 453.288 290.755 453.03 291.967 452.528C293.178 452.026 294.279 451.29 295.206 450.362C296.133 449.435 296.868 448.334 297.369 447.122C297.871 445.91 298.128 444.611 298.127 443.3V399.002C298.127 396.355 297.076 393.816 295.204 391.944C293.332 390.072 290.793 389.02 288.145 389.02H136.091ZM136.091 384.561H288.145C291.974 384.566 295.644 386.089 298.351 388.796C301.058 391.503 302.581 395.174 302.586 399.002V443.3C302.583 447.129 301.061 450.801 298.353 453.51C295.646 456.218 291.975 457.742 288.145 457.747H287.19V466.029C287.188 467.014 286.927 467.982 286.431 468.833C285.935 469.685 285.223 470.391 284.367 470.879C283.511 471.367 282.542 471.62 281.556 471.613C280.571 471.606 279.605 471.339 278.756 470.838L256.626 457.741H136.091C132.261 457.736 128.59 456.212 125.883 453.503C123.175 450.795 121.653 447.123 121.65 443.294V399.002C121.655 395.174 123.178 391.503 125.885 388.796C128.592 386.089 132.262 384.566 136.091 384.561V384.561Z" fill="#4C3133"/>
<path d="M189.708 431.878C182.313 431.878 176.318 425.883 176.318 418.488C176.318 411.093 182.313 405.098 189.708 405.098C197.103 405.098 203.098 411.093 203.098 418.488C203.098 425.883 197.103 431.878 189.708 431.878Z" fill="#F0F0F0"/>
<path d="M189.709 434.082C192.798 434.082 195.818 433.166 198.386 431.45C200.955 429.733 202.957 427.294 204.139 424.44C205.321 421.586 205.631 418.445 205.028 415.415C204.425 412.385 202.938 409.602 200.753 407.418C198.569 405.233 195.786 403.746 192.756 403.143C189.726 402.54 186.585 402.85 183.731 404.032C180.877 405.214 178.438 407.216 176.721 409.785C175.005 412.353 174.089 415.373 174.089 418.463C174.094 422.604 175.741 426.574 178.669 429.502C181.598 432.43 185.568 434.077 189.709 434.082ZM189.709 407.328C191.916 407.328 194.074 407.982 195.909 409.208C197.744 410.435 199.175 412.178 200.019 414.217C200.864 416.256 201.085 418.5 200.655 420.665C200.224 422.83 199.161 424.819 197.6 426.38C196.039 427.94 194.051 429.003 191.886 429.434C189.721 429.865 187.477 429.644 185.438 428.799C183.398 427.954 181.655 426.524 180.429 424.688C179.203 422.853 178.548 420.695 178.548 418.488C178.552 415.529 179.728 412.692 181.821 410.6C183.913 408.508 186.75 407.331 189.709 407.328V407.328Z" fill="#4C3133"/>
<path d="M143.182 415.8H151.584C149.163 413.985 146.768 411.978 147.125 408.436C147.762 401.741 152.476 405.086 152.476 408.436C152.476 413.118 159.674 411.112 159.757 418.476C159.814 418.716 159.842 418.962 159.84 419.208V426.852C159.84 427.682 159.539 428.483 158.993 429.107C158.447 429.731 157.693 430.137 156.871 430.248L146.73 431.605C145.861 431.721 144.978 431.65 144.139 431.397C143.3 431.144 142.525 430.714 141.865 430.137C141.206 429.559 140.678 428.848 140.316 428.049C139.954 427.251 139.767 426.385 139.767 425.508V419.221C139.767 418.772 139.854 418.327 140.026 417.912C140.197 417.497 140.448 417.12 140.765 416.803C141.082 416.485 141.459 416.233 141.874 416.061C142.288 415.889 142.733 415.8 143.182 415.8V415.8Z" fill="#C5E6F1"/>
<path d="M149.468 404.57C148.404 404.57 147.404 405.608 147.124 408.437C146.767 411.991 149.162 413.985 151.583 415.8H143.181C142.731 415.8 142.286 415.887 141.871 416.059C141.455 416.231 141.078 416.483 140.76 416.8C140.442 417.118 140.19 417.496 140.019 417.911C139.847 418.326 139.759 418.772 139.76 419.221V425.508C139.756 426.386 139.941 427.255 140.302 428.055C140.664 428.856 141.192 429.569 141.853 430.147C142.514 430.725 143.291 431.154 144.133 431.406C144.974 431.657 145.859 431.725 146.729 431.605L156.87 430.261C157.692 430.15 158.446 429.744 158.992 429.12C159.538 428.496 159.838 427.695 159.839 426.865V419.221C159.841 418.975 159.813 418.729 159.756 418.489V418.489C159.673 411.125 152.475 413.131 152.475 408.449C152.475 406.538 150.914 404.583 149.468 404.583V404.57ZM149.468 400.124C150.553 400.156 151.616 400.434 152.577 400.937C153.538 401.44 154.372 402.155 155.017 403.028C156.119 404.405 156.784 406.08 156.928 407.838L157.603 408.207C159.686 409.322 163.973 411.615 164.221 418.043C164.282 418.437 164.312 418.835 164.311 419.234V426.878C164.307 428.786 163.612 430.629 162.356 432.066C161.1 433.502 159.366 434.436 157.475 434.694L147.321 436.045C146.853 436.108 146.38 436.14 145.907 436.14C143.096 436.135 140.401 435.015 138.415 433.025C136.429 431.035 135.314 428.339 135.314 425.528V419.24C135.315 417.208 136.101 415.255 137.507 413.788C138.914 412.321 140.832 411.454 142.862 411.367C142.633 410.263 142.577 409.131 142.697 408.01C143.448 400.512 148.481 400.13 149.481 400.13L149.468 400.124Z" fill="#4C3133"/>
<path d="M217.596 435.401H282.533C283.124 435.401 283.692 435.166 284.11 434.748C284.528 434.33 284.763 433.763 284.763 433.171C284.763 432.58 284.528 432.013 284.11 431.595C283.692 431.177 283.124 430.942 282.533 430.942H217.596C217.005 430.942 216.438 431.177 216.02 431.595C215.602 432.013 215.367 432.58 215.367 433.171C215.367 433.763 215.602 434.33 216.02 434.748C216.438 435.166 217.005 435.401 217.596 435.401Z" fill="#4C3133"/>
<path d="M253.746 421.342C254.338 421.347 254.907 421.117 255.328 420.703C255.75 420.288 255.99 419.723 255.995 419.132C256 418.54 255.77 417.971 255.355 417.55C254.941 417.128 254.376 416.888 253.785 416.883L217.634 416.246C217.043 416.235 216.471 416.459 216.046 416.87C215.62 417.28 215.374 417.843 215.363 418.434C215.352 419.025 215.577 419.597 215.987 420.023C216.397 420.449 216.96 420.694 217.551 420.705L253.702 421.342H253.746Z" fill="#4C3133"/>
<path d="M264.257 420.705H269.99C270.581 420.705 271.149 420.47 271.567 420.052C271.985 419.634 272.22 419.066 272.22 418.475C272.22 417.884 271.985 417.317 271.567 416.899C271.149 416.481 270.581 416.246 269.99 416.246H264.257C263.666 416.246 263.099 416.481 262.681 416.899C262.262 417.317 262.028 417.884 262.028 418.475C262.028 419.066 262.262 419.634 262.681 420.052C263.099 420.47 263.666 420.705 264.257 420.705V420.705Z" fill="#4C3133"/>
</svg>
