<svg width="600" height="600" viewBox="0 0 600 600" fill="none" xmlns="http://www.w3.org/2000/svg">
<path d="M361.734 155.49C357.315 155.491 352.903 155.158 348.534 154.494C348.402 154.473 348.28 154.409 348.189 154.311C348.098 154.213 348.042 154.087 348.03 153.954L346.014 131.34C345.935 131.346 345.856 131.336 345.781 131.311C345.706 131.286 345.637 131.246 345.577 131.194C345.517 131.143 345.469 131.079 345.433 131.009C345.398 130.938 345.377 130.861 345.372 130.782C345.362 130.624 345.415 130.468 345.52 130.349C345.624 130.23 345.772 130.157 345.93 130.146L389.4 127.2C389.486 127.194 389.573 127.208 389.654 127.239C389.734 127.27 389.808 127.318 389.868 127.38C389.928 127.441 389.974 127.515 390.003 127.596C390.032 127.676 390.043 127.762 390.036 127.848L388.236 151.062C388.227 151.182 388.182 151.296 388.107 151.391C388.032 151.485 387.931 151.554 387.816 151.59C379.364 154.177 370.573 155.491 361.734 155.49V155.49ZM349.2 153.378C361.892 155.218 374.833 154.257 387.114 150.564L388.8 128.448L347.202 131.256L349.2 153.378Z" fill="#E6E6E6"/>
<path d="M366.972 163.848C366.834 163.847 366.7 163.798 366.594 163.71C366.532 163.66 366.48 163.598 366.442 163.528C366.404 163.458 366.38 163.381 366.372 163.302L365.772 156.738C365.765 156.659 365.773 156.58 365.796 156.504C365.82 156.428 365.858 156.358 365.909 156.297C365.96 156.236 366.022 156.186 366.092 156.15C366.162 156.113 366.239 156.091 366.318 156.084C366.476 156.071 366.633 156.121 366.755 156.223C366.876 156.325 366.952 156.472 366.966 156.63L367.506 162.576C379.179 161.236 390.916 160.527 402.666 160.452L401.946 144.852C401.972 144.412 401.881 143.973 401.682 143.58C401.49 143.412 401.266 143.285 401.024 143.205C400.782 143.126 400.526 143.096 400.272 143.118L389.4 142.47C389.242 142.459 389.094 142.386 388.99 142.267C388.885 142.148 388.832 141.992 388.842 141.834C388.847 141.755 388.867 141.678 388.901 141.607C388.936 141.536 388.984 141.472 389.043 141.42C389.102 141.367 389.171 141.327 389.245 141.302C389.32 141.276 389.399 141.265 389.478 141.27L400.374 141.942C400.974 141.978 402.06 142.05 402.678 142.896C403.03 143.475 403.204 144.145 403.176 144.822L403.926 161.022C403.926 161.181 403.863 161.334 403.75 161.446C403.638 161.559 403.485 161.622 403.326 161.622C391.207 161.679 379.1 162.412 367.062 163.818L366.972 163.848Z" fill="#E6E6E6"/>
<path d="M384.45 134.304C384.229 134.308 384.012 134.252 383.821 134.141C383.631 134.03 383.475 133.868 383.37 133.674C383.332 133.604 383.309 133.528 383.301 133.449C383.292 133.37 383.3 133.29 383.323 133.215C383.346 133.139 383.384 133.068 383.434 133.007C383.484 132.946 383.546 132.895 383.616 132.858C383.743 132.791 383.89 132.772 384.03 132.804C383.958 132.753 383.898 132.687 383.854 132.61C383.811 132.533 383.785 132.448 383.778 132.36C383.771 132.277 383.782 132.194 383.809 132.116C383.836 132.037 383.879 131.965 383.936 131.904C383.992 131.843 384.061 131.795 384.137 131.762C384.213 131.729 384.295 131.712 384.378 131.712C384.589 131.698 384.8 131.74 384.99 131.834C385.18 131.927 385.341 132.07 385.458 132.246C385.601 132.439 385.69 132.665 385.716 132.904C385.742 133.142 385.705 133.383 385.608 133.602C385.513 133.81 385.36 133.987 385.168 134.112C384.975 134.236 384.751 134.303 384.522 134.304H384.45ZM384.45 133.104C384.461 133.11 384.473 133.113 384.486 133.113C384.499 133.113 384.511 133.11 384.522 133.104C384.524 133.067 384.516 133.03 384.501 132.997C384.485 132.963 384.461 132.934 384.432 132.912C384.374 132.921 384.316 132.921 384.258 132.912C384.326 132.962 384.383 133.025 384.426 133.098L384.45 133.104Z" fill="#E6E6E6"/>
<path d="M352.71 136.974C352.498 136.97 352.289 136.919 352.098 136.826C351.908 136.733 351.74 136.599 351.606 136.434C351.447 136.248 351.331 136.028 351.267 135.792C351.202 135.555 351.191 135.307 351.234 135.066C351.265 134.911 351.355 134.775 351.485 134.686C351.615 134.598 351.775 134.564 351.93 134.592C352.016 134.608 352.098 134.642 352.17 134.693C352.241 134.744 352.301 134.81 352.344 134.886L352.512 134.772C352.693 134.658 352.896 134.583 353.107 134.55C353.319 134.517 353.535 134.527 353.742 134.58C353.85 134.609 353.947 134.668 354.024 134.75C354.1 134.831 354.152 134.932 354.174 135.042C354.219 135.282 354.211 135.528 354.151 135.764C354.091 136.001 353.98 136.221 353.826 136.41C353.695 136.58 353.528 136.719 353.337 136.816C353.147 136.914 352.936 136.968 352.722 136.974H352.71Z" fill="#E6E6E6"/>
<path d="M398.454 148.578H398.268C398.109 148.555 397.965 148.47 397.869 148.341C397.773 148.212 397.732 148.05 397.755 147.891C397.778 147.732 397.863 147.588 397.992 147.492C398.121 147.396 398.283 147.355 398.442 147.378C398.467 147.363 398.487 147.342 398.501 147.317C398.514 147.291 398.521 147.263 398.52 147.234C398.516 147.213 398.506 147.194 398.491 147.179C398.476 147.165 398.457 147.154 398.436 147.15C398.299 147.224 398.138 147.242 397.988 147.199C397.838 147.156 397.71 147.057 397.632 146.922C397.593 146.853 397.568 146.777 397.558 146.698C397.549 146.619 397.555 146.539 397.577 146.462C397.599 146.386 397.636 146.314 397.685 146.252C397.735 146.19 397.796 146.138 397.866 146.1C398.038 146.01 398.23 145.962 398.424 145.962C398.618 145.962 398.81 146.01 398.982 146.1C399.173 146.192 399.339 146.329 399.466 146.499C399.592 146.67 399.675 146.868 399.708 147.078C399.739 147.29 399.718 147.506 399.648 147.709C399.578 147.911 399.461 148.094 399.306 148.242C399.078 148.462 398.771 148.583 398.454 148.578Z" fill="#E6E6E6"/>
<path d="M373.686 466.992C369.916 466.985 366.158 466.583 362.472 465.792C361.074 465.492 359.16 464.898 358.644 463.182C358.206 461.73 359.022 460.128 360.936 458.676C364.905 455.702 369.525 453.716 374.414 452.881C379.303 452.046 384.321 452.387 389.052 453.876C389.204 453.925 389.33 454.033 389.403 454.175C389.475 454.318 389.488 454.483 389.439 454.635C389.39 454.787 389.282 454.913 389.14 454.986C388.997 455.058 388.832 455.071 388.68 455.022C384.136 453.592 379.318 453.265 374.623 454.068C369.928 454.87 365.491 456.779 361.68 459.636C360.816 460.29 359.43 461.58 359.808 462.84C360.066 463.686 361.008 464.25 362.736 464.64C372.461 466.676 382.561 465.97 391.908 462.6C394.194 461.766 396.948 460.266 397.116 457.854C397.218 456.324 396.186 454.944 395.184 454.158C393.884 453.261 392.45 452.577 390.936 452.13C390.855 452.109 390.78 452.072 390.715 452.021C390.649 451.969 390.595 451.905 390.556 451.832C390.517 451.758 390.493 451.678 390.487 451.595C390.48 451.512 390.491 451.428 390.519 451.35C390.546 451.272 390.59 451.2 390.647 451.139C390.704 451.078 390.772 451.03 390.849 450.997C390.925 450.964 391.008 450.948 391.091 450.949C391.174 450.95 391.256 450.968 391.332 451.002C392.972 451.484 394.522 452.23 395.922 453.21C396.676 453.743 397.288 454.451 397.707 455.274C398.125 456.097 398.336 457.009 398.322 457.932C398.16 460.332 396.09 462.36 392.322 463.728C386.347 465.89 380.04 466.995 373.686 466.992V466.992Z" fill="#E6E6E6"/>
<path d="M357.36 481.884C355.398 481.884 354.156 481.188 353.94 479.958C353.802 479.16 354.144 478.356 354.996 477.492C356.378 476.118 358.068 475.093 359.925 474.503C361.783 473.912 363.754 473.773 365.676 474.096C365.833 474.122 365.972 474.21 366.065 474.339C366.157 474.469 366.194 474.629 366.168 474.786C366.155 474.864 366.127 474.939 366.084 475.006C366.042 475.073 365.987 475.131 365.923 475.177C365.858 475.223 365.785 475.255 365.707 475.273C365.63 475.29 365.55 475.292 365.472 475.278C363.744 474.99 361.972 475.117 360.303 475.649C358.633 476.181 357.115 477.103 355.872 478.338C355.326 478.896 355.08 479.37 355.146 479.748C355.314 480.696 357.204 480.696 357.582 480.684L362.382 480.552C363.478 480.596 364.572 480.427 365.604 480.054C366.39 479.706 367.23 478.896 367.206 477.942C367.186 477.716 367.114 477.497 366.996 477.303C366.877 477.11 366.715 476.946 366.522 476.826C366.397 476.735 366.252 476.677 366.099 476.656C365.946 476.635 365.791 476.652 365.646 476.706C365.502 476.76 365.343 476.757 365.202 476.697C365.06 476.637 364.947 476.525 364.885 476.385C364.824 476.244 364.818 476.085 364.871 475.94C364.923 475.796 365.029 475.677 365.166 475.608C365.49 475.473 365.842 475.421 366.191 475.456C366.54 475.492 366.874 475.614 367.164 475.812C367.525 476.036 367.826 476.344 368.042 476.71C368.258 477.075 368.383 477.488 368.406 477.912C368.442 479.424 367.272 480.63 366.096 481.152C364.922 481.593 363.672 481.797 362.418 481.752L357.618 481.884H357.36Z" fill="#E6E6E6"/>
<path d="M16.512 432.186C16.3529 432.186 16.2002 432.123 16.0877 432.01C15.9752 431.898 15.912 431.745 15.912 431.586C15.912 431.427 15.9752 431.274 16.0877 431.162C16.2002 431.049 16.3529 430.986 16.512 430.986C74.916 429.684 134.454 428.448 192.036 427.248C280.236 425.418 371.478 423.522 461.016 421.344C461.175 421.344 461.328 421.407 461.44 421.52C461.553 421.632 461.616 421.785 461.616 421.944C461.616 422.103 461.553 422.256 461.44 422.368C461.328 422.481 461.175 422.544 461.016 422.544C371.472 424.716 280.248 426.618 192.03 428.448C134.43 429.648 74.91 430.884 16.512 432.186V432.186Z" fill="#DBDBDB"/>
<path d="M546.36 420.6C546.201 420.6 546.048 420.537 545.936 420.424C545.823 420.312 545.76 420.159 545.76 420C545.76 419.841 545.823 419.688 545.936 419.576C546.048 419.463 546.201 419.4 546.36 419.4C551.622 419.304 556.746 419.232 561.6 419.178C561.759 419.178 561.912 419.241 562.024 419.354C562.137 419.466 562.2 419.619 562.2 419.778C562.2 419.937 562.137 420.09 562.024 420.202C561.912 420.315 561.759 420.378 561.6 420.378C556.752 420.432 551.628 420.504 546.372 420.6H546.36Z" fill="#DBDBDB"/>
<path d="M494.172 421.854C494.013 421.854 493.86 421.791 493.748 421.678C493.635 421.566 493.572 421.413 493.572 421.254C493.572 421.095 493.635 420.942 493.748 420.83C493.86 420.717 494.013 420.654 494.172 420.654C500.128 420.514 506.088 420.366 512.052 420.21C512.211 420.21 512.364 420.273 512.476 420.386C512.589 420.498 512.652 420.651 512.652 420.81C512.652 420.969 512.589 421.122 512.476 421.234C512.364 421.347 512.211 421.41 512.052 421.41C506.092 421.562 500.13 421.71 494.166 421.854H494.172Z" fill="#DBDBDB"/>
<path d="M134.208 518.892C132.442 518.922 130.689 518.586 129.059 517.907C127.429 517.228 125.956 516.219 124.734 514.944C124.676 514.881 124.631 514.806 124.604 514.724C124.577 514.642 124.568 514.556 124.578 514.47C124.59 514.384 124.62 514.301 124.665 514.227C124.711 514.152 124.771 514.088 124.842 514.038C126.591 512.883 128.571 512.123 130.643 511.812C132.716 511.501 134.831 511.647 136.842 512.238C136.995 512.284 137.123 512.389 137.198 512.53C137.274 512.67 137.29 512.835 137.244 512.988C137.198 513.141 137.093 513.269 136.952 513.344C136.812 513.42 136.647 513.436 136.494 513.39C134.774 512.883 132.969 512.731 131.188 512.945C129.408 513.158 127.689 513.732 126.138 514.632C130.26 518.538 137.538 518.754 141.786 514.962C141.845 514.909 141.914 514.868 141.989 514.841C142.063 514.815 142.143 514.804 142.222 514.808C142.301 514.813 142.379 514.833 142.45 514.867C142.522 514.902 142.585 514.951 142.638 515.01C142.743 515.129 142.796 515.286 142.786 515.444C142.776 515.603 142.703 515.751 142.584 515.856C140.257 517.858 137.277 518.938 134.208 518.892V518.892Z" fill="#DBDBDB"/>
<path d="M555.642 427.836C555.483 427.836 555.33 427.773 555.218 427.66C555.105 427.548 555.042 427.395 555.042 427.236C555.042 427.077 555.105 426.924 555.218 426.812C555.33 426.699 555.483 426.636 555.642 426.636L575.532 426.324C575.691 426.324 575.844 426.387 575.956 426.5C576.069 426.612 576.132 426.765 576.132 426.924C576.132 427.083 576.069 427.236 575.956 427.348C575.844 427.461 575.691 427.524 575.532 427.524L555.648 427.836H555.642Z" fill="#DBDBDB"/>
<path d="M122.076 503.364C120.421 503.367 118.775 503.123 117.192 502.638C117.112 502.619 117.037 502.584 116.972 502.535C116.906 502.486 116.851 502.424 116.81 502.353C116.769 502.282 116.743 502.204 116.734 502.122C116.725 502.041 116.732 501.958 116.756 501.88C116.78 501.801 116.82 501.729 116.872 501.666C116.925 501.604 116.991 501.553 117.064 501.516C117.138 501.48 117.218 501.459 117.3 501.455C117.381 501.451 117.463 501.463 117.54 501.492C120.007 502.238 122.62 502.366 125.148 501.864C122.386 500.716 119.364 500.342 116.406 500.784C116.327 500.796 116.247 500.792 116.169 500.773C116.092 500.754 116.019 500.719 115.955 500.672C115.891 500.625 115.837 500.565 115.796 500.497C115.755 500.429 115.728 500.353 115.716 500.274C115.704 500.195 115.708 500.115 115.727 500.038C115.746 499.96 115.781 499.887 115.828 499.823C115.875 499.759 115.935 499.705 116.003 499.664C116.071 499.623 116.147 499.596 116.226 499.584C119.995 499.018 123.847 499.692 127.2 501.504C127.303 501.561 127.387 501.646 127.442 501.75C127.497 501.854 127.52 501.972 127.508 502.089C127.497 502.206 127.451 502.317 127.377 502.408C127.303 502.499 127.204 502.567 127.092 502.602C125.469 503.112 123.777 503.369 122.076 503.364Z" fill="#DBDBDB"/>
<path d="M145.8 246.288C140.387 242.986 134.576 240.385 128.508 238.548C122.836 236.786 116.938 235.861 111 235.8H104.844C103.986 235.8 103.086 235.8 102.156 235.86V212.052H175.356V165.36H58.2V305.268L64.968 299.568C69.168 296.034 73.026 293.016 76.44 290.568C79.3872 288.436 82.5197 286.572 85.8 285C88.4748 283.741 91.2967 282.822 94.2 282.264C97.2678 281.721 100.379 281.458 103.494 281.478C112.662 281.478 119.958 284.256 125.802 289.962C131.646 295.668 134.4 302.826 134.4 311.91C134.441 316.367 133.626 320.791 132 324.942C128.933 332.712 123.092 339.068 115.608 342.78C112.051 344.53 108.136 345.426 104.172 345.396C101.499 345.413 98.8361 345.064 96.258 344.358C93.664 343.576 91.2271 342.345 89.058 340.722C86.0815 338.527 83.3065 336.071 80.766 333.384C77.3072 329.722 74.06 325.865 71.04 321.834L68.244 318.156L35.724 349.428L37.944 352.35C42.7557 358.777 48.0877 364.797 53.886 370.35C58.7723 375.022 64.1357 379.169 69.888 382.722C75.2095 385.97 80.9905 388.398 87.036 389.922C93.2077 391.402 99.5353 392.133 105.882 392.1C116.149 392.152 126.306 389.995 135.666 385.776C144.804 381.638 153.01 375.695 159.792 368.304C174.074 352.675 181.937 332.235 181.812 311.064C181.812 297.264 178.716 284.664 172.614 273.678C166.512 262.692 157.47 253.44 145.8 246.288Z" fill="#DBDBDB"/>
<path d="M346.344 194.208C339.019 184.477 329.691 176.432 318.99 170.616C308.297 164.864 296.332 161.887 284.19 161.958C269.416 161.953 254.951 166.188 242.514 174.162C229.8 182.196 219 193.542 210.564 207.846C205.164 216.786 200.964 227.322 198.168 239.142C195.316 251.45 193.906 264.049 193.968 276.684C193.968 292.92 196.146 308.16 200.448 321.978C204.75 335.796 210.816 348.072 218.448 358.272C225.813 368.283 235.267 376.573 246.156 382.566C256.996 388.445 269.147 391.485 281.478 391.404C289.27 391.344 296.994 389.939 304.308 387.252C312.09 384.413 319.432 380.491 326.118 375.6C340.476 365.004 351.576 350.874 359.118 333.6C366.576 316.476 370.35 296.514 370.35 274.272C370.35 258.276 368.232 243.27 364.044 229.668C359.856 216.066 353.868 204.084 346.344 194.208ZM324.66 276C324.688 284.439 323.703 292.851 321.726 301.056C319.957 308.497 317.128 315.646 313.326 322.284C304.326 338.064 294.06 345.738 281.976 345.738C276.215 345.82 270.556 344.207 265.704 341.1C260.712 337.932 256.29 333.3 252.57 327.408C248.748 321.342 245.724 313.956 243.57 305.454C241.307 296.034 240.211 286.371 240.306 276.684C240.306 266.202 241.458 256.536 243.726 247.956C245.97 239.472 249.126 232.098 253.176 226.038C257.112 220.122 261.804 215.502 267.126 212.322C272.325 209.209 278.28 207.585 284.34 207.63C289.825 207.614 295.184 209.278 299.694 212.4C304.602 215.688 308.928 220.356 312.552 226.272C316.272 232.356 319.248 239.7 321.396 248.118C323.638 257.24 324.734 266.606 324.66 276V276Z" fill="#DBDBDB"/>
<path d="M551.88 229.698C547.68 216.024 541.722 204.084 534.198 194.208C526.873 184.477 517.545 176.432 506.844 170.616C496.152 164.863 484.186 161.886 472.044 161.958C457.272 161.953 442.809 166.189 430.374 174.162C417.6 182.196 406.866 193.542 398.4 207.846C393 216.786 388.8 227.322 386.01 239.142C383.158 251.45 381.748 264.049 381.81 276.684C381.81 292.92 383.994 308.16 388.296 321.978C392.598 335.796 398.658 348.072 406.296 358.272C413.659 368.283 423.111 376.573 433.998 382.566C444.838 388.445 456.989 391.485 469.32 391.404C477.114 391.344 484.84 389.939 492.156 387.252C499.94 384.414 507.285 380.492 513.972 375.6C528.33 365.004 539.43 350.874 546.972 333.6C554.424 316.476 558.204 296.514 558.204 274.272C558.186 258.306 556.062 243.3 551.88 229.698ZM512.514 276C512.545 284.439 511.56 292.852 509.58 301.056C507.813 308.498 504.984 315.648 501.18 322.284C492.18 338.064 481.914 345.738 469.83 345.738C464.069 345.818 458.411 344.205 453.558 341.1C448.566 337.932 444.15 333.3 440.424 327.408C436.602 321.342 433.578 313.956 431.424 305.454C429.161 296.034 428.065 286.371 428.16 276.684C428.16 266.202 429.312 256.536 431.586 247.956C433.83 239.472 436.986 232.098 441.036 226.038C444.966 220.122 449.658 215.502 454.98 212.322C460.181 209.208 466.138 207.585 472.2 207.63C477.685 207.615 483.043 209.28 487.554 212.4C492.462 215.688 496.788 220.356 500.406 226.272C504.126 232.356 507.102 239.7 509.25 248.118C511.492 257.24 512.588 266.606 512.514 276V276Z" fill="#DBDBDB"/>
<path d="M534.18 178.554C543.512 190.936 551.092 204.546 556.704 219C562.331 233.442 565.978 248.58 567.546 264C568.421 272.663 568.621 281.382 568.146 290.076C568.08 291.234 569.88 291.228 569.946 290.076C570.8 274.445 569.494 258.772 566.064 243.498C562.661 228.305 557.233 213.637 549.924 199.89C545.792 192.13 541.055 184.707 535.758 177.69C535.068 176.778 533.502 177.69 534.204 178.596L534.18 178.554Z" fill="#DBDBDB"/>
<path d="M556.542 194.316C556.593 195.35 556.977 196.34 557.636 197.138C558.296 197.936 559.196 198.499 560.202 198.744C560.451 198.799 560.704 198.833 560.958 198.846C561.256 198.835 561.54 198.72 561.762 198.522C562.125 198.251 562.444 197.928 562.71 197.562C563.159 196.891 563.432 196.117 563.502 195.312C563.59 194.54 563.496 193.757 563.227 193.028C562.958 192.299 562.522 191.642 561.954 191.112C561.25 190.531 560.377 190.195 559.465 190.155C558.554 190.115 557.654 190.373 556.902 190.89C555.186 192.018 554.022 194.214 554.742 196.26C554.815 196.482 554.97 196.667 555.175 196.778C555.38 196.89 555.62 196.919 555.846 196.86C556.075 196.795 556.269 196.644 556.387 196.437C556.505 196.23 556.537 195.986 556.476 195.756C556.427 195.623 556.387 195.486 556.356 195.348C556.359 195.292 556.359 195.236 556.356 195.18C556.356 195.348 556.356 195.18 556.356 195.18C556.356 195.042 556.356 194.904 556.356 194.766C556.353 194.712 556.353 194.658 556.356 194.604C556.356 194.796 556.356 194.556 556.356 194.514C556.383 194.38 556.419 194.247 556.464 194.118L556.518 193.956C556.464 194.1 556.518 193.956 556.518 193.956C556.641 193.7 556.785 193.455 556.95 193.224C556.86 193.35 556.95 193.224 556.992 193.176L557.136 193.014L557.376 192.774C557.425 192.723 557.477 192.675 557.532 192.63C557.532 192.63 557.706 192.492 557.586 192.582C557.699 192.497 557.818 192.419 557.94 192.348C558.06 192.276 558.186 192.216 558.312 192.15C558.312 192.15 558.468 192.084 558.312 192.15L558.468 192.09C558.6 192.048 558.732 192.006 558.87 191.976L559.032 191.946C558.84 191.982 559.092 191.946 559.122 191.946C559.258 191.934 559.394 191.934 559.53 191.946H559.698C559.53 191.946 559.698 191.946 559.698 191.946L560.112 192.06C560.148 192.06 560.268 192.126 560.112 192.06L560.31 192.156C560.412 192.21 560.514 192.276 560.616 192.342C560.718 192.408 560.742 192.45 560.616 192.342L560.724 192.432C560.808 192.508 560.892 192.592 560.976 192.684L561.066 192.792C561.216 192.96 560.976 192.642 561.066 192.834C561.183 193.014 561.291 193.201 561.39 193.392C561.504 193.596 561.348 193.272 561.39 193.392C561.432 193.512 561.432 193.5 561.456 193.56C561.48 193.62 561.528 193.794 561.564 193.908C561.6 194.022 561.606 194.124 561.63 194.232C561.654 194.34 561.666 194.454 561.63 194.232V194.382C561.651 194.625 561.651 194.87 561.63 195.114C561.633 195.162 561.633 195.21 561.63 195.258C561.63 195.468 561.666 195.114 561.63 195.306C561.594 195.498 561.57 195.588 561.534 195.732C561.498 195.876 561.456 195.954 561.42 196.068C561.492 195.87 561.366 196.182 561.33 196.242C561.294 196.302 561.198 196.464 561.126 196.578C561.054 196.692 560.994 196.74 561.126 196.578L560.988 196.74C560.904 196.827 560.816 196.909 560.724 196.986C560.556 197.142 560.826 196.92 560.724 196.986L560.508 197.13L560.964 197.004C560.28 196.928 559.643 196.616 559.164 196.122C559.086 196.044 559.014 195.96 558.942 195.876C558.87 195.792 558.942 195.906 558.858 195.756C558.742 195.586 558.64 195.408 558.552 195.222C558.522 195.168 558.522 195.168 558.552 195.222C558.526 195.165 558.504 195.107 558.486 195.048C558.456 194.958 558.432 194.868 558.408 194.778C558.382 194.687 558.362 194.595 558.348 194.502C558.348 194.646 558.348 194.31 558.348 194.274C558.342 194.037 558.245 193.812 558.078 193.644C557.91 193.477 557.685 193.38 557.448 193.374C557.209 193.374 556.98 193.469 556.812 193.638C556.643 193.806 556.548 194.035 556.548 194.274L556.542 194.316Z" fill="#DBDBDB"/>
<path d="M569.226 223.116C568.344 225.27 569.718 227.844 571.698 228.84C572.221 229.109 572.792 229.272 573.378 229.32C573.696 229.381 574.023 229.369 574.335 229.283C574.647 229.198 574.936 229.042 575.178 228.828C575.831 228.044 576.165 227.044 576.114 226.026C576.082 225.008 575.746 224.022 575.148 223.198C574.55 222.373 573.718 221.746 572.76 221.4C571.822 221.152 570.827 221.247 569.954 221.67C569.081 222.093 568.389 222.814 568.002 223.704C567.048 225.708 567.294 228.204 569.202 229.572C569.408 229.682 569.648 229.708 569.872 229.644C570.096 229.581 570.287 229.433 570.404 229.232C570.522 229.03 570.556 228.791 570.501 228.565C570.446 228.339 570.305 228.142 570.108 228.018C569.922 227.88 570.24 228.144 570.072 227.982L569.922 227.844C569.874 227.796 569.658 227.532 569.796 227.718C569.727 227.628 569.665 227.534 569.61 227.436C569.575 227.38 569.542 227.322 569.514 227.262C569.514 227.214 569.412 227.022 569.514 227.232C569.429 227.001 569.361 226.764 569.31 226.524C569.31 226.47 569.31 226.35 569.31 226.56V226.356C569.301 226.218 569.301 226.08 569.31 225.942C569.304 225.826 569.304 225.71 569.31 225.594C569.31 225.834 569.31 225.492 569.346 225.42C569.401 225.147 569.482 224.88 569.586 224.622C569.502 224.832 569.646 224.508 569.67 224.454C569.694 224.4 569.784 224.256 569.844 224.16C569.904 224.064 570.078 223.836 569.94 224.004C570.036 223.89 570.132 223.782 570.234 223.674C570.336 223.566 570.414 223.506 570.51 223.428C570.33 223.578 570.606 223.374 570.654 223.344C570.702 223.314 570.852 223.236 570.948 223.182C571.152 223.086 570.768 223.236 570.984 223.182L571.182 223.122L571.38 223.074C571.38 223.074 571.614 223.044 571.47 223.074C571.326 223.104 571.56 223.074 571.566 223.074H571.788H571.932C572.172 223.074 571.752 223.026 571.98 223.074C572.208 223.122 572.256 223.134 572.394 223.176C572.43 223.176 572.646 223.278 572.442 223.176L572.568 223.236C572.696 223.301 572.82 223.373 572.94 223.452L573.06 223.53C573.252 223.662 572.928 223.41 573.102 223.566C573.276 223.722 573.318 223.764 573.414 223.866C573.499 223.953 573.579 224.046 573.654 224.142C573.528 223.986 573.738 224.268 573.774 224.322C573.855 224.446 573.929 224.574 573.996 224.706L574.062 224.838L574.122 224.97C574.08 224.868 574.074 224.868 574.122 224.97C574.219 225.248 574.295 225.533 574.35 225.822C574.308 225.618 574.35 225.774 574.35 225.822C574.35 225.87 574.35 225.99 574.35 226.074C574.359 226.216 574.359 226.358 574.35 226.5C574.35 226.74 574.398 226.314 574.35 226.542C574.35 226.614 574.35 226.686 574.308 226.752C574.272 226.89 574.228 227.027 574.176 227.16C574.254 226.95 574.176 227.16 574.176 227.202L574.068 227.388C574.032 227.448 573.99 227.508 573.948 227.568C574.068 227.394 573.882 227.64 573.852 227.676L574.248 227.442C574.168 227.466 574.085 227.484 574.002 227.496C574.128 227.496 574.002 227.496 573.948 227.496C573.894 227.496 573.642 227.496 573.492 227.496C573.342 227.496 573.612 227.532 573.402 227.496L573.204 227.454C573.057 227.418 572.913 227.372 572.772 227.316C572.892 227.358 572.772 227.316 572.718 227.286L572.532 227.19L572.142 226.944C572.064 226.89 572.208 227.004 572.088 226.902L571.896 226.734C571.782 226.626 571.68 226.512 571.572 226.398C571.464 226.284 571.452 226.248 571.524 226.344L571.38 226.14C571.302 226.02 571.224 225.9 571.158 225.774L571.05 225.546C571.104 225.666 571.05 225.546 571.05 225.492C570.997 225.349 570.953 225.202 570.918 225.054C570.918 224.988 570.918 224.916 570.876 224.85C570.834 224.784 570.876 224.976 570.876 224.802C570.867 224.638 570.867 224.474 570.876 224.31C570.876 224.31 570.906 224.07 570.876 224.184C570.846 224.298 570.876 224.076 570.906 224.058C570.949 223.893 571.001 223.731 571.062 223.572C571.126 223.346 571.099 223.104 570.987 222.898C570.875 222.692 570.686 222.537 570.462 222.468C570.232 222.41 569.988 222.443 569.781 222.56C569.574 222.678 569.421 222.87 569.352 223.098L569.226 223.116Z" fill="#DBDBDB"/>
<path d="M182.4 148.908C181.087 165.072 181.151 181.319 182.592 197.472C182.992 202.02 183.508 206.554 184.14 211.074C184.211 211.299 184.366 211.487 184.573 211.599C184.781 211.711 185.023 211.738 185.25 211.674C185.476 211.605 185.668 211.453 185.785 211.247C185.902 211.042 185.936 210.8 185.88 210.57C183.7 194.628 182.877 178.531 183.42 162.45C183.572 157.922 183.832 153.398 184.2 148.878C184.29 147.726 182.49 147.732 182.4 148.878V148.908Z" fill="#DBDBDB"/>
<path d="M41.3281 235.842C42.8761 246.038 44.0641 256.278 44.8921 266.562C45.7201 276.846 46.1901 287.126 46.3021 297.402C46.3701 303.218 46.3201 309.028 46.1521 314.832C46.1521 315.996 47.9521 315.99 47.9521 314.832C48.2441 304.432 48.1721 294.044 47.7361 283.668C47.3001 273.292 46.5001 262.982 45.3361 252.738C44.6841 246.938 43.9181 241.138 43.0381 235.338C42.8701 234.198 41.1361 234.684 41.3041 235.818L41.3281 235.842Z" fill="#DBDBDB"/>
<path d="M42.6601 306.912C43.208 305.082 43.3412 303.154 43.0501 301.266C42.8925 300.468 42.5719 299.712 42.1084 299.044C41.6448 298.376 41.0482 297.811 40.3561 297.384C39.0961 296.628 37.3561 296.376 36.0661 297.186C35.5491 297.534 35.1266 298.006 34.8365 298.557C34.5465 299.109 34.3979 299.725 34.4041 300.348C34.3552 301.029 34.5402 301.707 34.9286 302.269C35.317 302.831 35.8855 303.243 36.5401 303.438C36.7654 303.487 37.0011 303.448 37.1984 303.329C37.3958 303.209 37.5397 303.019 37.6006 302.796C37.6614 302.574 37.6345 302.336 37.5253 302.133C37.4162 301.93 37.2332 301.776 37.0141 301.704C36.9713 301.695 36.9292 301.683 36.8881 301.668C36.7441 301.62 36.9901 301.722 36.8881 301.668C36.8121 301.633 36.7398 301.591 36.6721 301.542C36.5521 301.464 36.7621 301.626 36.6721 301.542L36.5821 301.458C36.5821 301.458 36.4861 301.35 36.5461 301.422C36.6061 301.494 36.4861 301.332 36.4741 301.314C36.4621 301.296 36.3961 301.17 36.3601 301.092C36.4261 301.236 36.3301 300.996 36.3181 300.948C36.3061 300.9 36.2701 300.756 36.2521 300.654C36.2521 300.804 36.2521 300.546 36.2521 300.498C36.2521 300.45 36.2521 300.288 36.2521 300.186C36.2521 300.084 36.2521 300.216 36.2521 300.018C36.2938 299.835 36.3459 299.655 36.4081 299.478C36.4839 299.325 36.5722 299.178 36.6721 299.04C36.5881 299.154 36.7621 298.95 36.7921 298.92L36.8881 298.83C37.0021 298.734 36.8881 298.83 36.9541 298.782C37.3588 298.577 37.8125 298.488 38.2648 298.525C38.717 298.562 39.1502 298.723 39.5161 298.992C39.9844 299.294 40.3858 299.689 40.6954 300.152C41.005 300.616 41.2162 301.138 41.3161 301.686C41.6581 303.264 41.3161 304.92 40.9381 306.486C40.6621 307.608 42.3961 308.088 42.6781 306.96L42.6601 306.912Z" fill="#DBDBDB"/>
<path d="M34.14 273.396C33.6599 274.784 33.6729 276.294 34.1767 277.674C34.6805 279.053 35.6445 280.216 36.906 280.968C37.1135 281.082 37.3568 281.112 37.5856 281.051C37.8145 280.991 38.0115 280.845 38.136 280.644C39.5056 278.585 40.1564 276.13 39.9871 273.663C39.8178 271.195 38.838 268.853 37.2 267C37.0601 266.86 36.8778 266.77 36.6815 266.744C36.4851 266.718 36.2857 266.757 36.114 266.856C33.018 268.872 32.016 273.402 34.146 276.456C34.806 277.404 36.366 276.504 35.7 275.55C34.9436 274.421 34.6582 273.042 34.9049 271.705C35.1515 270.369 35.9105 269.182 37.02 268.398L35.928 268.26C37.2924 269.83 38.0983 271.808 38.2199 273.884C38.3414 275.961 37.7718 278.019 36.6 279.738L37.83 279.414C36.9108 278.861 36.2139 278.004 35.86 276.992C35.5061 275.979 35.5174 274.875 35.892 273.87C36.3 272.784 34.56 272.316 34.158 273.396H34.14Z" fill="#DBDBDB"/>
<path d="M314.526 403.638C314.526 403.638 311.778 435.99 326.916 446.31C342.054 456.63 351.006 443.562 347.568 432.546C344.13 421.53 340.83 399.054 341.448 386.202C342.066 373.35 314.526 403.638 314.526 403.638Z" fill="white"/>
<path d="M339.48 383.028C340.8 383.028 341.556 383.952 341.448 386.202C340.848 399.054 344.124 421.536 347.568 432.546C350.124 440.736 345.834 450.066 337.236 450.066C334.272 450.066 330.798 448.956 326.916 446.31C311.778 435.99 314.526 403.638 314.526 403.638C314.526 403.638 333.27 383.028 339.48 383.028ZM339.48 381.828C338.4 381.828 335.118 381.828 323.88 392.46C318.48 397.584 313.716 402.78 313.68 402.834C313.504 403.028 313.397 403.275 313.374 403.536C312.98 409.445 313.154 415.378 313.896 421.254C315.54 434.058 319.71 442.818 326.286 447.306C330.144 449.934 333.84 451.266 337.278 451.266C339.12 451.283 340.938 450.856 342.579 450.02C344.22 449.185 345.635 447.965 346.704 446.466C349.53 442.626 350.304 437.148 348.756 432.162C345.438 421.56 342.066 399.162 342.69 386.238C342.762 384.606 342.45 383.448 341.718 382.68C341.433 382.389 341.091 382.16 340.713 382.009C340.335 381.858 339.929 381.788 339.522 381.804L339.48 381.828Z" fill="black"/>
<path d="M326.916 446.31C329.31 448.039 332.041 449.245 334.932 449.85C318.06 429.324 333.132 412.536 342.366 405.072C341.586 398.136 341.166 391.386 341.448 386.202C342.048 373.356 314.526 403.638 314.526 403.638C314.526 403.638 311.778 435.99 326.916 446.31Z" fill="#ABABAB"/>
<path d="M329.196 432.774C324.807 432.75 320.458 431.937 316.356 430.374C316.21 430.311 316.094 430.193 316.035 430.045C315.976 429.897 315.978 429.731 316.041 429.585C316.104 429.438 316.222 429.323 316.37 429.264C316.518 429.205 316.684 429.207 316.83 429.27C317.004 429.348 334.26 436.56 345.3 425.286C345.355 425.229 345.421 425.185 345.493 425.154C345.566 425.123 345.644 425.106 345.723 425.106C345.802 425.105 345.88 425.119 345.953 425.149C346.026 425.178 346.093 425.222 346.149 425.277C346.205 425.332 346.25 425.398 346.281 425.47C346.312 425.543 346.329 425.621 346.329 425.699C346.33 425.778 346.315 425.857 346.286 425.93C346.257 426.003 346.213 426.07 346.158 426.126C341.052 431.31 334.71 432.774 329.196 432.774Z" fill="black"/>
<path d="M326.442 412.128C322.053 412.104 317.703 411.291 313.602 409.728C313.456 409.665 313.34 409.547 313.281 409.399C313.222 409.251 313.224 409.085 313.287 408.939C313.35 408.793 313.468 408.677 313.616 408.618C313.764 408.559 313.93 408.561 314.076 408.624C314.25 408.696 331.476 415.908 342.552 404.634C342.663 404.52 342.815 404.455 342.975 404.454C343.134 404.452 343.287 404.514 343.401 404.625C343.515 404.736 343.58 404.888 343.581 405.048C343.583 405.207 343.521 405.36 343.41 405.474C338.298 410.658 331.956 412.128 326.442 412.128Z" fill="black"/>
<path d="M338.142 450.63C338.032 450.63 337.924 450.6 337.83 450.543C337.735 450.486 337.659 450.404 337.608 450.306L333.954 443.142C333.887 443.001 333.878 442.839 333.928 442.692C333.978 442.544 334.084 442.421 334.223 442.35C334.362 442.279 334.523 442.265 334.672 442.311C334.821 442.357 334.947 442.459 335.022 442.596L338.676 449.76C338.748 449.901 338.761 450.064 338.712 450.215C338.664 450.365 338.558 450.491 338.418 450.564C338.333 450.608 338.238 450.63 338.142 450.63Z" fill="black"/>
<path d="M345.162 447.054C345.054 447.054 344.948 447.025 344.855 446.971C344.762 446.916 344.686 446.837 344.634 446.742L341.532 441.096C341.452 440.956 341.432 440.79 341.475 440.635C341.517 440.479 341.62 440.348 341.76 440.268C341.9 440.188 342.066 440.168 342.221 440.211C342.377 440.253 342.508 440.356 342.588 440.496L345.69 446.136C345.728 446.205 345.752 446.281 345.761 446.36C345.769 446.439 345.762 446.518 345.74 446.594C345.717 446.67 345.68 446.74 345.631 446.802C345.581 446.863 345.52 446.914 345.45 446.952C345.365 447.012 345.266 447.047 345.162 447.054V447.054Z" fill="black"/>
<path d="M190.002 412.584C177.594 414.72 122.802 451.518 157.74 496.944C184.44 531.66 256.74 515.922 248.454 492.426C240.168 468.93 194.736 489.108 180.054 476.658C163.77 462.858 170.124 430.74 187.5 418.992L190.002 412.584Z" fill="white"/>
<path d="M190.002 412.584L187.524 418.992C170.124 430.74 163.794 462.834 180.078 476.658C184.278 480.258 191.046 481.116 198.732 481.116C206.232 481.116 214.614 480.276 222.384 480.276C234.354 480.276 244.878 482.274 248.454 492.426C253.254 506.106 230.79 517.152 205.896 517.152C188.022 517.152 168.894 511.452 157.74 496.944C122.79 451.518 177.594 414.744 190.002 412.584M190.002 411.384H189.948C189.89 411.378 189.832 411.378 189.774 411.384C185.88 412.062 177.774 415.98 169.224 422.994C162.306 428.652 153.024 437.994 148.224 450.39C145.397 457.426 144.462 465.08 145.512 472.59C146.712 481.032 150.528 489.456 156.81 497.622C166.914 510.762 184.812 518.298 205.92 518.298C224.412 518.298 241.638 512.214 247.806 503.502C250.368 499.902 250.992 495.9 249.606 491.976C245.586 480.576 233.604 479.022 222.408 479.022C218.454 479.022 214.314 479.244 210.306 479.454C206.442 479.652 202.44 479.862 198.756 479.862C189.792 479.862 184.278 478.578 180.876 475.662C174.552 470.298 171.378 461.676 171.942 451.386C172.65 438.468 179.04 426.114 188.22 419.91C188.42 419.769 188.574 419.573 188.664 419.346L191.124 412.998C191.194 412.843 191.231 412.676 191.232 412.506C191.232 412.188 191.106 411.882 190.881 411.657C190.655 411.432 190.35 411.306 190.032 411.306L190.002 411.384Z" fill="black"/>
<path d="M241.872 507.672C229.162 508.829 216.363 508.564 203.712 506.88C147.984 499.68 153.378 455.688 159.564 434.124C146.46 449.556 138.504 471.924 157.764 496.944C177.894 523.158 224.028 520.602 241.872 507.672Z" fill="#ABABAB"/>
<path d="M231.93 513.402C231.851 513.402 231.772 513.385 231.699 513.355C231.626 513.324 231.56 513.279 231.504 513.222C214.776 496.206 229.356 480.372 229.506 480.222C229.56 480.164 229.625 480.118 229.697 480.086C229.769 480.053 229.846 480.035 229.925 480.033C230.004 480.03 230.082 480.043 230.156 480.071C230.23 480.099 230.297 480.141 230.355 480.195C230.413 480.249 230.459 480.314 230.491 480.385C230.524 480.457 230.542 480.535 230.544 480.614C230.547 480.693 230.534 480.771 230.506 480.845C230.478 480.919 230.436 480.986 230.382 481.044C229.782 481.644 216.45 496.206 232.362 512.388C232.474 512.5 232.536 512.652 232.536 512.811C232.536 512.969 232.474 513.121 232.362 513.234C232.305 513.289 232.237 513.332 232.163 513.361C232.089 513.39 232.01 513.404 231.93 513.402Z" fill="black"/>
<path d="M208.098 517.722C208.001 517.722 207.906 517.698 207.82 517.653C207.735 517.608 207.661 517.543 207.606 517.464C201.69 509.028 199.398 501.09 200.796 493.866C201.894 488.371 205.033 483.496 209.58 480.222C209.714 480.135 209.876 480.105 210.032 480.138C210.188 480.171 210.324 480.265 210.411 480.399C210.498 480.532 210.528 480.695 210.495 480.851C210.461 481.007 210.368 481.143 210.234 481.23C205.981 484.354 203.037 488.943 201.972 494.112C200.646 501 202.872 508.626 208.572 516.774C208.662 516.904 208.698 517.065 208.669 517.222C208.641 517.378 208.552 517.517 208.422 517.608C208.329 517.679 208.215 517.719 208.098 517.722Z" fill="black"/>
<path d="M178.542 512.79C178.429 512.79 178.318 512.757 178.223 512.697C178.127 512.636 178.051 512.55 178.002 512.448C173.646 503.214 172.764 495.3 175.368 488.934C177.223 484.444 180.768 480.863 185.238 478.962C185.313 478.927 185.395 478.908 185.478 478.906C185.561 478.904 185.643 478.919 185.72 478.951C185.796 478.983 185.866 479.03 185.923 479.089C185.981 479.149 186.025 479.22 186.054 479.298C186.083 479.376 186.095 479.459 186.09 479.542C186.085 479.624 186.063 479.705 186.025 479.779C185.988 479.853 185.935 479.918 185.871 479.971C185.806 480.023 185.732 480.062 185.652 480.084C181.51 481.9 178.224 485.238 176.472 489.408C174.006 495.444 174.888 503.028 179.088 511.938C179.156 512.082 179.163 512.247 179.109 512.396C179.055 512.546 178.944 512.668 178.8 512.736C178.718 512.771 178.631 512.789 178.542 512.79V512.79Z" fill="black"/>
<path d="M151.98 488.718C151.831 488.719 151.687 488.664 151.576 488.564C151.465 488.464 151.395 488.326 151.38 488.178C150.732 481.578 152.214 476.178 155.784 472.248C162.012 465.372 172.272 465.282 172.704 465.282C172.863 465.282 173.016 465.345 173.128 465.457C173.241 465.57 173.304 465.723 173.304 465.882C173.304 466.041 173.241 466.194 173.128 466.306C173.016 466.419 172.863 466.482 172.704 466.482C172.602 466.482 162.504 466.578 156.66 473.082C153.336 476.76 151.956 481.806 152.568 488.082C152.583 488.239 152.535 488.396 152.435 488.519C152.336 488.641 152.191 488.719 152.034 488.736L151.98 488.718Z" fill="black"/>
<path d="M146.586 457.926C146.499 457.926 146.413 457.908 146.334 457.872C146.262 457.839 146.198 457.792 146.144 457.734C146.09 457.676 146.049 457.608 146.021 457.534C145.994 457.46 145.982 457.381 145.985 457.302C145.988 457.223 146.007 457.146 146.04 457.074C148.566 451.596 152.118 448.146 156.594 446.808C164.082 444.576 171.372 449.052 171.678 449.244C171.806 449.331 171.895 449.464 171.928 449.615C171.96 449.766 171.933 449.924 171.851 450.056C171.77 450.187 171.641 450.282 171.492 450.321C171.342 450.36 171.183 450.339 171.048 450.264C170.976 450.216 163.89 445.878 156.93 447.96C152.802 449.196 149.502 452.43 147.126 457.56C147.081 457.667 147.006 457.758 146.91 457.823C146.814 457.888 146.702 457.924 146.586 457.926Z" fill="black"/>
<path d="M175.602 433.74C175.517 433.74 175.433 433.722 175.355 433.686C175.277 433.651 175.208 433.6 175.152 433.536C174.9 433.248 168.864 426.606 161.634 432.672C161.575 432.729 161.504 432.774 161.427 432.803C161.35 432.831 161.268 432.844 161.185 432.84C161.103 432.835 161.022 432.814 160.949 432.777C160.875 432.74 160.81 432.689 160.757 432.626C160.704 432.562 160.664 432.489 160.641 432.41C160.618 432.331 160.611 432.248 160.622 432.166C160.632 432.084 160.659 432.005 160.701 431.934C160.743 431.864 160.799 431.802 160.866 431.754C169.002 424.926 175.986 432.66 176.052 432.744C176.158 432.863 176.212 433.018 176.203 433.177C176.194 433.335 176.122 433.484 176.004 433.59C175.893 433.688 175.75 433.741 175.602 433.74V433.74Z" fill="black"/>
<path d="M252.6 299.706C252.6 299.706 243.654 302.46 241.584 316.914C241.584 316.914 203.04 347.886 190.65 382.992C178.26 418.098 189.966 438.054 205.794 441.492C221.622 444.93 273.936 442.872 308.352 418.092C342.768 393.312 349.632 378.174 353.07 348.6C356.508 319.026 347.568 315.558 347.568 315.558L252.6 299.706Z" fill="white"/>
<path d="M252.696 300.942L347.19 316.692C348.042 317.184 354.942 322.092 351.882 348.438C350.268 362.316 347.85 373.764 341.292 384.516C334.92 394.968 324.852 404.718 307.632 417.12C282.6 435.156 246.876 441.6 221.82 441.6C215.388 441.6 209.784 441.15 206.034 440.334C199.722 438.96 194.376 434.85 190.98 428.754C184.98 417.954 185.25 401.868 191.766 383.4C198.096 365.472 211.482 348.6 221.604 337.644C228.063 330.591 234.984 323.977 242.322 317.844C242.558 317.652 242.713 317.377 242.754 317.076C244.512 304.794 251.286 301.476 252.696 300.936M252.582 299.7C252.582 299.7 243.636 302.454 241.566 316.908C241.566 316.908 203.022 347.88 190.632 382.986C178.242 418.092 189.948 438.048 205.776 441.486C209.4 442.284 214.986 442.8 221.82 442.8C244.716 442.8 281.82 437.19 308.334 418.104C342.75 393.324 349.632 378.186 353.07 348.588C356.508 318.99 347.568 315.546 347.568 315.546L252.6 299.706L252.582 299.7Z" fill="black"/>
<path d="M232.62 435.99C247.074 432.546 277.362 433.926 271.854 455.262C271.854 455.262 192.012 463.518 192.012 434.61C192.012 405.702 232.62 435.99 232.62 435.99Z" fill="white"/>
<path d="M201.99 422.112C213.99 422.112 232.62 435.99 232.62 435.99C236.981 435.007 241.44 434.522 245.91 434.544C260.19 434.544 275.958 439.344 271.854 455.262C271.854 455.262 261.294 456.354 247.854 456.354C224.34 456.354 192.006 453.012 192.006 434.61C192.006 425.274 196.242 422.112 201.984 422.112M201.984 420.912C196.884 420.912 190.806 423.312 190.806 434.61C190.806 453.57 221.826 457.554 247.854 457.554C261.192 457.554 271.854 456.468 271.974 456.456C272.218 456.431 272.448 456.331 272.633 456.171C272.819 456.012 272.951 455.799 273.012 455.562C274.416 450.102 273.702 445.482 270.876 441.834C265.152 434.448 252.774 433.344 245.904 433.344C241.528 433.328 237.163 433.78 232.884 434.694C229.884 432.516 213.354 420.894 201.984 420.894V420.912Z" fill="black"/>
<path d="M271.962 446.508C219.33 449.376 199.644 438.954 192.282 430.872C192.093 432.109 192.003 433.359 192.012 434.61C192.012 463.518 271.854 455.262 271.854 455.262C272.736 451.854 272.694 448.956 271.962 446.508Z" fill="#ABABAB"/>
<path d="M245.502 456.942C245.393 456.941 245.286 456.91 245.193 456.853C245.1 456.796 245.024 456.715 244.974 456.618C237.03 441.546 248.676 434.19 248.796 434.118C248.931 434.036 249.094 434.01 249.248 434.047C249.402 434.085 249.535 434.181 249.618 434.316C249.66 434.383 249.688 434.458 249.7 434.536C249.713 434.614 249.71 434.694 249.691 434.771C249.673 434.848 249.639 434.921 249.593 434.985C249.546 435.049 249.488 435.103 249.42 435.144C248.976 435.414 238.62 442.002 246.03 456.06C246.079 456.151 246.103 456.253 246.1 456.357C246.098 456.46 246.068 456.561 246.015 456.65C245.962 456.739 245.887 456.812 245.797 456.863C245.707 456.915 245.605 456.942 245.502 456.942V456.942Z" fill="black"/>
<path d="M228.198 456.042C228.086 456.043 227.976 456.012 227.881 455.954C227.786 455.896 227.708 455.812 227.658 455.712C224.82 450.072 224.136 445.104 225.612 440.958C226.683 437.968 228.857 435.501 231.69 434.064C231.763 434.023 231.843 433.999 231.926 433.991C232.009 433.983 232.093 433.993 232.172 434.019C232.251 434.046 232.323 434.088 232.385 434.144C232.447 434.2 232.496 434.268 232.53 434.344C232.564 434.42 232.581 434.503 232.582 434.586C232.582 434.669 232.565 434.752 232.532 434.828C232.498 434.904 232.45 434.973 232.388 435.029C232.327 435.086 232.255 435.129 232.176 435.156C229.652 436.481 227.711 438.699 226.734 441.378C225.378 445.206 226.05 449.844 228.732 455.178C228.803 455.32 228.814 455.485 228.763 455.636C228.713 455.787 228.604 455.911 228.462 455.982C228.381 456.025 228.29 456.045 228.198 456.042Z" fill="black"/>
<path d="M208.944 452.322C208.836 452.322 208.73 452.293 208.637 452.238C208.544 452.183 208.468 452.104 208.416 452.01C205.026 445.806 204.276 440.328 206.202 435.726C209.13 428.712 217.128 426.348 217.47 426.252C217.624 426.208 217.788 426.227 217.928 426.305C218.067 426.382 218.17 426.512 218.214 426.666C218.258 426.819 218.239 426.984 218.161 427.124C218.083 427.263 217.954 427.366 217.8 427.41C217.722 427.41 210 429.714 207.306 436.194C205.536 440.442 206.262 445.566 209.472 451.428C209.51 451.497 209.534 451.573 209.542 451.652C209.551 451.73 209.544 451.81 209.522 451.886C209.499 451.962 209.462 452.032 209.413 452.094C209.363 452.155 209.301 452.206 209.232 452.244C209.145 452.295 209.045 452.322 208.944 452.322V452.322Z" fill="black"/>
<path d="M267.33 456.24C267.178 456.24 267.031 456.183 266.92 456.079C266.809 455.976 266.741 455.834 266.73 455.682C266.364 450.282 263.394 448.278 263.268 448.194C263.135 448.107 263.043 447.971 263.01 447.816C262.978 447.661 263.008 447.499 263.094 447.366C263.18 447.234 263.314 447.141 263.468 447.108C263.622 447.074 263.783 447.102 263.916 447.186C264.066 447.276 267.516 449.586 267.93 455.586C267.936 455.665 267.926 455.744 267.901 455.819C267.876 455.894 267.836 455.963 267.784 456.023C267.733 456.083 267.669 456.131 267.599 456.167C267.528 456.202 267.451 456.223 267.372 456.228L267.33 456.24Z" fill="black"/>
<path d="M259.932 456.672H259.866C259.788 456.663 259.712 456.639 259.643 456.6C259.574 456.562 259.513 456.51 259.464 456.449C259.415 456.387 259.378 456.316 259.357 456.24C259.335 456.164 259.329 456.084 259.338 456.006C259.448 454.928 259.296 453.84 258.895 452.834C258.494 451.828 257.855 450.934 257.034 450.228C256.966 450.182 256.909 450.123 256.865 450.054C256.821 449.984 256.791 449.907 256.778 449.826C256.765 449.745 256.769 449.663 256.789 449.583C256.81 449.504 256.846 449.429 256.896 449.365C256.946 449.3 257.009 449.246 257.08 449.206C257.152 449.167 257.231 449.142 257.313 449.134C257.394 449.126 257.476 449.135 257.554 449.16C257.632 449.185 257.704 449.226 257.766 449.28C258.757 450.108 259.528 451.167 260.01 452.365C260.493 453.562 260.672 454.861 260.532 456.144C260.514 456.29 260.443 456.425 260.333 456.522C260.222 456.62 260.079 456.673 259.932 456.672V456.672Z" fill="black"/>
<path d="M184.44 419.472C183.606 405.306 187.884 380.922 211.284 369.912C234.684 358.902 247.764 376.104 256.02 392.628C264.276 409.152 269.1 427.728 238.128 440.808C207.156 453.888 185.814 442.872 184.44 419.472Z" fill="white"/>
<path d="M225.282 366.432C240.204 366.432 249.582 379.74 256.026 392.628C264.282 409.146 269.1 427.728 238.128 440.808C229.08 444.6 220.848 446.4 213.702 446.4C196.386 446.4 185.412 436.044 184.44 419.478C183.606 405.312 187.884 380.928 211.284 369.918C216.426 367.518 221.076 366.438 225.282 366.438M225.282 365.238C220.722 365.238 215.838 366.438 210.774 368.838C188.88 379.14 182.196 401.79 183.24 419.55C184.26 436.854 195.93 447.606 213.702 447.606C221.292 447.606 229.668 445.692 238.596 441.924C251.304 436.56 258.948 429.972 261.996 421.788C265.728 411.684 261.624 401.112 257.118 392.1C251.358 380.574 241.788 365.244 225.318 365.244L225.282 365.238Z" fill="black"/>
<path d="M226.572 444.702C185.13 447.702 185.13 403.638 201.258 376.302C186.624 388.644 183.744 407.622 184.458 419.466C185.64 439.83 201.954 450.804 226.572 444.702Z" fill="#ABABAB"/>
<path d="M269.79 376.8C269.79 376.8 271.854 447.696 288.39 455.268C304.926 462.84 311.106 447.696 306.99 439.434C302.874 431.172 296.67 396.762 301.488 382.308C306.306 367.854 269.79 376.8 269.79 376.8Z" fill="white"/>
<path d="M290.112 374.058C297.51 374.058 303.606 375.858 301.452 382.302C296.652 396.756 302.826 431.172 306.954 439.428C310.302 446.118 306.876 457.32 296.682 457.32C293.796 457.239 290.962 456.537 288.372 455.262C271.854 447.69 269.772 376.794 269.772 376.794C269.772 376.794 280.932 374.058 290.094 374.058M290.094 372.858C280.896 372.858 269.946 375.516 269.484 375.63C269.218 375.696 268.982 375.851 268.816 376.069C268.65 376.287 268.564 376.556 268.572 376.83C268.572 377.01 269.118 394.83 271.68 413.352C275.166 438.552 280.608 453.03 287.88 456.354C290.628 457.696 293.631 458.435 296.688 458.52C298.801 458.578 300.891 458.075 302.746 457.062C304.601 456.049 306.154 454.563 307.248 452.754C309.804 448.626 310.116 443.058 308.034 438.894C305.952 434.73 303.426 423.834 302.034 413.034C300.348 399.834 300.546 388.788 302.586 382.68C303.396 380.232 303.216 378.174 302.046 376.548C300.246 374.064 296.352 372.858 290.106 372.858H290.094Z" fill="black"/>
<path d="M278.826 375.048C273.72 375.828 269.79 376.794 269.79 376.794C269.79 376.794 271.854 447.69 288.39 455.262C292.236 457.02 295.512 457.542 298.242 457.218C280.08 442.062 278.61 394.878 278.826 375.048Z" fill="#ABABAB"/>
<path d="M287.4 400.452C278.82 400.452 270.798 396.18 270.288 395.904C270.219 395.864 270.159 395.812 270.11 395.749C270.061 395.686 270.026 395.615 270.005 395.538C269.984 395.461 269.978 395.381 269.988 395.303C269.998 395.224 270.024 395.148 270.063 395.079C270.102 395.01 270.155 394.949 270.218 394.901C270.281 394.852 270.352 394.816 270.429 394.795C270.506 394.775 270.585 394.769 270.664 394.779C270.743 394.789 270.819 394.814 270.888 394.854C271.068 394.95 289.05 404.508 299.472 394.938C299.529 394.879 299.597 394.832 299.673 394.8C299.748 394.768 299.83 394.752 299.912 394.753C299.994 394.754 300.075 394.771 300.15 394.805C300.225 394.838 300.292 394.886 300.347 394.947C300.403 395.007 300.445 395.078 300.472 395.156C300.499 395.233 300.51 395.316 300.504 395.397C300.498 395.479 300.475 395.559 300.437 395.632C300.399 395.704 300.346 395.768 300.282 395.82C296.502 399.294 291.888 400.452 287.4 400.452Z" fill="black"/>
<path d="M287.682 415.2C279.606 415.2 272.322 410.952 272.208 410.886C272.088 410.798 272.004 410.67 271.974 410.524C271.943 410.379 271.968 410.227 272.042 410.099C272.117 409.971 272.236 409.874 272.378 409.829C272.519 409.784 272.673 409.793 272.808 409.854C272.976 409.956 289.74 419.712 299.964 408.948C300.016 408.884 300.081 408.832 300.154 408.794C300.227 408.756 300.308 408.734 300.39 408.729C300.472 408.723 300.555 408.735 300.632 408.763C300.71 408.791 300.781 408.835 300.841 408.891C300.901 408.948 300.948 409.016 300.98 409.092C301.013 409.168 301.029 409.25 301.029 409.332C301.028 409.414 301.01 409.496 300.977 409.571C300.943 409.647 300.895 409.714 300.834 409.77C296.946 413.904 292.2 415.2 287.682 415.2Z" fill="black"/>
<path d="M290.616 432.198C282.18 432.198 274.95 427.398 274.842 427.326C274.77 427.285 274.708 427.229 274.659 427.163C274.609 427.097 274.574 427.021 274.556 426.94C274.537 426.86 274.535 426.776 274.55 426.695C274.566 426.614 274.597 426.537 274.644 426.468C274.69 426.4 274.75 426.342 274.82 426.298C274.89 426.254 274.968 426.225 275.05 426.212C275.132 426.2 275.215 426.204 275.295 426.226C275.375 426.247 275.449 426.284 275.514 426.336C275.67 426.438 291.228 436.746 302.778 426.384C302.836 426.327 302.905 426.282 302.981 426.252C303.056 426.222 303.137 426.208 303.219 426.21C303.3 426.213 303.38 426.232 303.454 426.266C303.528 426.301 303.594 426.35 303.648 426.41C303.702 426.471 303.744 426.542 303.769 426.62C303.795 426.697 303.805 426.779 303.798 426.86C303.792 426.941 303.768 427.02 303.73 427.092C303.692 427.164 303.64 427.227 303.576 427.278C300.036 430.502 295.404 432.261 290.616 432.198V432.198Z" fill="black"/>
<path d="M286.308 391.248C297.333 391.248 306.27 382.311 306.27 371.286C306.27 360.261 297.333 351.324 286.308 351.324C275.283 351.324 266.346 360.261 266.346 371.286C266.346 382.311 275.283 391.248 286.308 391.248Z" fill="white"/>
<path d="M286.308 351.33C290.256 351.33 294.116 352.501 297.399 354.695C300.682 356.888 303.24 360.006 304.751 363.654C306.262 367.302 306.657 371.316 305.886 375.188C305.115 379.061 303.213 382.618 300.421 385.409C297.629 388.201 294.071 390.102 290.199 390.871C286.326 391.641 282.312 391.244 278.665 389.733C275.017 388.221 271.9 385.661 269.707 382.378C267.515 379.094 266.345 375.234 266.346 371.286C266.348 365.993 268.451 360.917 272.195 357.174C275.938 353.432 281.015 351.33 286.308 351.33M286.308 350.13C282.122 350.13 278.031 351.371 274.55 353.697C271.07 356.022 268.358 359.328 266.756 363.195C265.155 367.062 264.736 371.317 265.553 375.423C266.37 379.528 268.386 383.298 271.346 386.258C274.307 389.217 278.078 391.232 282.183 392.048C286.289 392.864 290.544 392.444 294.411 390.841C298.277 389.239 301.582 386.525 303.906 383.045C306.231 379.564 307.471 375.472 307.47 371.286C307.462 365.676 305.23 360.299 301.263 356.333C297.296 352.367 291.918 350.136 286.308 350.13V350.13Z" fill="black"/>
<path d="M286.308 391.248H286.578C268.41 383.682 271.164 362.346 277.362 353.448C273.342 355.461 270.12 358.772 268.217 362.845C266.314 366.917 265.842 371.513 266.877 375.888C267.913 380.263 270.395 384.159 273.921 386.947C277.448 389.735 281.813 391.25 286.308 391.248V391.248Z" fill="#ABABAB"/>
<path d="M286.998 380.922C292.32 380.922 296.634 376.608 296.634 371.286C296.634 365.964 292.32 361.65 286.998 361.65C281.676 361.65 277.362 365.964 277.362 371.286C277.362 376.608 281.676 380.922 286.998 380.922Z" fill="black"/>
<path d="M286.998 381.522C284.973 381.522 282.994 380.921 281.311 379.797C279.628 378.672 278.316 377.073 277.541 375.203C276.766 373.333 276.564 371.274 276.959 369.289C277.354 367.303 278.328 365.479 279.76 364.048C281.192 362.616 283.015 361.641 285.001 361.246C286.987 360.852 289.045 361.054 290.915 361.829C292.786 362.604 294.384 363.916 295.509 365.599C296.634 367.282 297.234 369.261 297.234 371.286C297.231 374 296.151 376.601 294.232 378.52C292.313 380.439 289.712 381.519 286.998 381.522V381.522ZM286.998 362.25C285.211 362.25 283.464 362.78 281.978 363.773C280.492 364.766 279.334 366.177 278.65 367.828C277.966 369.479 277.787 371.296 278.136 373.049C278.484 374.801 279.345 376.412 280.609 377.675C281.872 378.939 283.482 379.8 285.235 380.148C286.988 380.497 288.805 380.318 290.456 379.634C292.107 378.95 293.518 377.792 294.511 376.306C295.504 374.82 296.034 373.073 296.034 371.286C296.031 368.89 295.078 366.594 293.384 364.9C291.69 363.206 289.393 362.253 286.998 362.25V362.25Z" fill="#1D1D1B"/>
<path d="M222.984 420.156C233.628 420.156 242.256 411.527 242.256 400.884C242.256 390.24 233.628 381.612 222.984 381.612C212.34 381.612 203.712 390.24 203.712 400.884C203.712 411.527 212.34 420.156 222.984 420.156Z" fill="white"/>
<path d="M222.984 382.8C226.558 382.8 230.052 383.86 233.024 385.846C235.996 387.831 238.313 390.654 239.68 393.956C241.048 397.258 241.406 400.892 240.709 404.398C240.011 407.903 238.29 411.123 235.763 413.651C233.235 416.178 230.015 417.899 226.51 418.597C223.004 419.294 219.37 418.936 216.068 417.568C212.766 416.2 209.943 413.884 207.958 410.912C205.972 407.94 204.912 404.446 204.912 400.872C204.917 396.08 206.822 391.486 210.21 388.098C213.599 384.71 218.192 382.805 222.984 382.8M222.984 381.6C219.172 381.6 215.446 382.73 212.277 384.848C209.108 386.965 206.638 389.975 205.179 393.497C203.72 397.018 203.339 400.893 204.082 404.632C204.826 408.37 206.661 411.804 209.357 414.499C212.052 417.194 215.486 419.03 219.224 419.774C222.963 420.517 226.838 420.135 230.359 418.677C233.881 417.218 236.89 414.748 239.008 411.579C241.126 408.41 242.256 404.683 242.256 400.872C242.256 395.761 240.226 390.859 236.611 387.244C232.997 383.63 228.095 381.6 222.984 381.6V381.6Z" fill="black"/>
<path d="M220.92 411.894C227.001 411.894 231.93 406.964 231.93 400.884C231.93 394.803 227.001 389.874 220.92 389.874C214.839 389.874 209.91 394.803 209.91 400.884C209.91 406.964 214.839 411.894 220.92 411.894Z" fill="black"/>
<path d="M220.92 412.5C218.622 412.501 216.376 411.821 214.465 410.545C212.554 409.269 211.064 407.456 210.184 405.333C209.304 403.211 209.073 400.875 209.52 398.621C209.968 396.368 211.074 394.297 212.698 392.672C214.322 391.047 216.392 389.94 218.646 389.491C220.899 389.043 223.235 389.272 225.358 390.151C227.481 391.03 229.295 392.519 230.572 394.43C231.849 396.34 232.53 398.586 232.53 400.884C232.525 403.962 231.301 406.913 229.125 409.09C226.949 411.267 223.998 412.493 220.92 412.5ZM220.92 390.474C218.859 390.473 216.845 391.083 215.131 392.227C213.417 393.371 212.081 394.998 211.292 396.901C210.503 398.805 210.296 400.899 210.698 402.92C211.1 404.941 212.092 406.798 213.549 408.255C215.006 409.712 216.862 410.704 218.883 411.106C220.904 411.508 222.999 411.301 224.903 410.512C226.806 409.723 228.433 408.387 229.577 406.673C230.721 404.959 231.331 402.944 231.33 400.884C231.327 398.124 230.229 395.478 228.277 393.526C226.326 391.575 223.68 390.477 220.92 390.474V390.474Z" fill="#1D1D1B"/>
<path d="M259.464 182.694C259.464 182.694 224.364 232.254 227.802 267.354C231.24 302.454 277.266 329.304 318 329.304C371.688 329.304 395.088 278.37 395.088 278.37L378.54 230.874C378.54 230.874 381.294 189.576 361.332 182.694C361.332 182.694 344.124 190.956 335.178 211.602C335.178 211.602 308.334 204.72 285.618 210.912C285.6 210.912 273.918 186.138 259.464 182.694Z" fill="white"/>
<path d="M361.416 184.002C379.764 191.01 377.37 230.394 377.34 230.802C377.332 230.963 377.354 231.124 377.406 231.276L393.762 278.298C389.046 287.413 382.977 295.761 375.762 303.06C368.907 310.093 360.915 315.918 352.122 320.292C341.499 325.48 329.822 328.149 318 328.092C298.056 328.092 276.768 321.672 259.596 310.476C241.458 298.65 230.604 283.29 229.026 267.228C227.28 249.384 235.896 227.574 243.426 212.418C248.32 202.613 253.854 193.14 259.992 184.062C273.372 188.028 284.448 211.176 284.556 211.416C284.653 211.622 284.806 211.797 284.999 211.919C285.191 212.041 285.414 212.106 285.642 212.106C285.75 212.104 285.857 212.088 285.96 212.058C292.849 210.286 299.943 209.433 307.056 209.52C316.429 209.564 325.768 210.649 334.902 212.754C335 212.778 335.101 212.79 335.202 212.79C335.435 212.79 335.663 212.721 335.858 212.593C336.053 212.466 336.207 212.284 336.3 212.07C344.172 193.908 358.74 185.436 361.44 183.99M361.356 182.682C361.356 182.682 344.148 190.944 335.202 211.59C325.972 209.45 316.531 208.353 307.056 208.32C299.836 208.238 292.636 209.105 285.642 210.9C285.642 210.9 273.942 186.126 259.488 182.7C259.488 182.7 224.388 232.26 227.826 267.36C231.264 302.46 277.266 329.304 318 329.304C371.688 329.304 395.088 278.37 395.088 278.37L378.54 230.874C378.54 230.874 381.294 189.576 361.332 182.694L361.356 182.682Z" fill="black"/>
<path d="M247.764 221.238C247.764 221.238 251.202 207.474 259.464 199.212C259.464 199.212 266.346 202.656 270.48 211.602C270.48 211.602 258.09 213.666 247.764 221.238Z" fill="black"/>
<path d="M247.764 221.838C247.644 221.838 247.527 221.803 247.428 221.736C247.326 221.667 247.248 221.569 247.204 221.454C247.16 221.339 247.152 221.213 247.182 221.094C247.326 220.524 250.782 207.072 259.038 198.792C259.127 198.702 259.242 198.642 259.367 198.622C259.492 198.601 259.621 198.621 259.734 198.678C260.022 198.822 266.85 202.314 271.02 211.35C271.061 211.433 271.083 211.524 271.083 211.617C271.083 211.71 271.061 211.801 271.02 211.884C270.977 211.966 270.915 212.036 270.841 212.091C270.766 212.145 270.679 212.181 270.588 212.196C270.462 212.196 258.216 214.326 248.13 221.724C248.024 221.801 247.895 221.841 247.764 221.838ZM259.572 199.962C253.38 206.358 249.972 215.982 248.808 219.762C257.322 214.008 266.856 211.722 269.604 211.158C267.384 206.554 263.906 202.672 259.572 199.962V199.962Z" fill="#1D1D1B"/>
<path d="M351 213.666C351 213.666 357.198 202.656 362.706 199.212C362.706 199.212 368.898 205.41 368.898 221.238C368.904 221.238 358.578 213 351 213.666Z" fill="black"/>
<path d="M368.904 221.838C368.767 221.838 368.633 221.792 368.526 221.706C368.43 221.628 358.326 213.618 351.06 214.266C350.949 214.281 350.836 214.264 350.734 214.218C350.632 214.172 350.544 214.099 350.482 214.006C350.419 213.912 350.384 213.804 350.38 213.692C350.377 213.58 350.404 213.469 350.46 213.372C350.718 212.916 356.796 202.188 362.364 198.708C362.479 198.635 362.616 198.604 362.751 198.62C362.886 198.635 363.012 198.696 363.108 198.792C363.372 199.05 369.48 205.344 369.48 221.238C369.48 221.351 369.447 221.462 369.387 221.557C369.326 221.653 369.24 221.729 369.138 221.778C369.065 221.815 368.986 221.836 368.904 221.838V221.838ZM352.104 213.03C358.314 213.102 365.676 218.082 368.304 220.02C368.04 207.564 363.816 201.486 362.61 200.004C358.32 202.968 353.646 210.402 352.08 213.03H352.104Z" fill="#1D1D1B"/>
<path d="M281.49 226.746C264.324 233.736 247.074 239.136 249.138 272.172C251.202 305.208 300.072 321.042 324.852 317.604C349.632 314.166 373.722 299.706 379.23 274.926C384.738 250.146 369.6 230.19 353.76 227.436C337.92 224.682 330.36 245.328 320.724 248.082C311.088 250.836 300.072 219.174 281.49 226.746Z" fill="white"/>
<path d="M287.22 225.6C301.71 225.6 311.22 248.286 319.506 248.286C319.912 248.283 320.316 248.224 320.706 248.112C329.742 245.532 336.96 227.214 350.88 227.214C351.84 227.214 352.797 227.298 353.742 227.466C369.576 230.22 384.714 250.176 379.212 274.956C373.71 299.736 349.614 314.19 324.834 317.634C322.447 317.951 320.042 318.106 317.634 318.096C291.666 318.096 251.034 302.28 249.12 272.202C247.056 239.166 264.306 233.766 281.472 226.776C283.286 226.006 285.232 225.599 287.202 225.576M287.202 224.376C285.079 224.391 282.98 224.821 281.022 225.642L278.76 226.554C270.666 229.818 262.296 233.196 256.392 239.754C249.696 247.194 247.002 257.52 247.926 272.256C248.382 279.612 251.112 286.512 256.026 292.776C260.37 298.32 266.34 303.258 273.756 307.446C286.656 314.742 303.468 319.272 317.634 319.272C320.098 319.281 322.56 319.123 325.002 318.798C338.022 316.998 350.436 312.198 359.958 305.244C370.686 297.444 377.748 287.04 380.358 275.19C383.124 262.758 381.024 250.5 374.448 240.684C369.222 232.884 361.74 227.616 353.922 226.284C352.91 226.106 351.884 226.015 350.856 226.014C342.102 226.014 335.964 232.68 330.552 238.566C327.042 242.388 323.724 245.994 320.352 246.966C320.063 247.05 319.764 247.092 319.464 247.092C316.416 247.092 312.648 242.892 308.664 238.482C302.712 231.882 295.968 224.406 287.19 224.406L287.202 224.376Z" fill="black"/>
<path d="M264.972 272.172C263.004 240.666 278.604 234.294 294.942 227.706C290.922 225.51 286.482 224.706 281.49 226.746C264.324 233.736 247.074 239.136 249.138 272.172C251.202 305.208 300.072 321.042 324.852 317.604L325.092 317.562C299.586 314.67 266.658 299.166 264.972 272.172Z" fill="#ABABAB"/>
<path d="M237.096 266.922C237.026 266.922 236.957 266.91 236.892 266.886L199.032 253.122C198.882 253.067 198.761 252.955 198.694 252.81C198.627 252.666 198.62 252.5 198.675 252.351C198.73 252.201 198.842 252.08 198.987 252.013C199.131 251.946 199.296 251.939 199.446 251.994L237.3 265.758C237.433 265.806 237.544 265.899 237.615 266.021C237.685 266.143 237.711 266.286 237.686 266.425C237.662 266.564 237.589 266.69 237.482 266.781C237.374 266.872 237.237 266.922 237.096 266.922Z" fill="black"/>
<path d="M203.4 283.44C203.241 283.455 203.082 283.406 202.959 283.305C202.836 283.203 202.758 283.056 202.743 282.897C202.728 282.738 202.777 282.579 202.878 282.456C202.98 282.333 203.127 282.255 203.286 282.24L239.046 275.4C239.202 275.37 239.363 275.403 239.495 275.492C239.627 275.581 239.718 275.718 239.748 275.874C239.778 276.03 239.745 276.191 239.656 276.323C239.567 276.454 239.43 276.545 239.274 276.576L203.484 283.464L203.4 283.44Z" fill="black"/>
<path d="M386.454 270.366C386.319 270.371 386.187 270.33 386.078 270.251C385.969 270.172 385.89 270.058 385.854 269.928C385.832 269.852 385.825 269.772 385.834 269.694C385.843 269.615 385.868 269.539 385.906 269.47C385.945 269.401 385.996 269.34 386.059 269.291C386.121 269.242 386.192 269.205 386.268 269.184L423.438 258.864C423.586 258.834 423.741 258.861 423.87 258.94C423.999 259.019 424.094 259.144 424.135 259.29C424.176 259.435 424.16 259.591 424.091 259.726C424.022 259.861 423.904 259.964 423.762 260.016L386.592 270.342C386.547 270.356 386.501 270.364 386.454 270.366V270.366Z" fill="black"/>
<path d="M416.052 291C416.012 291.006 415.972 291.006 415.932 291L384.96 284.808C384.883 284.792 384.809 284.761 384.744 284.717C384.679 284.673 384.623 284.617 384.579 284.551C384.536 284.485 384.506 284.411 384.491 284.334C384.476 284.257 384.476 284.177 384.492 284.1C384.524 283.945 384.615 283.809 384.747 283.722C384.878 283.634 385.039 283.602 385.194 283.632L416.172 289.8C416.331 289.816 416.477 289.894 416.579 290.018C416.68 290.142 416.728 290.301 416.712 290.46C416.696 290.619 416.618 290.765 416.494 290.867C416.37 290.968 416.211 291.016 416.052 291V291Z" fill="black"/>
<path d="M243.366 309.918C242.493 312.171 241.889 314.519 241.566 316.914V316.914L242.604 317.946C242.604 317.946 293.004 366.072 353.844 334.782C353.844 333.138 353.73 331.638 353.604 330.252C353.484 330.306 352.728 327.582 352.728 327.582C352.728 327.582 297.978 355.356 243.366 309.918Z" fill="black"/>
<path d="M243.924 311.928C264.6 328.692 287.544 337.2 312.168 337.2C332.616 337.2 347.568 331.26 351.954 329.28C352.08 329.744 352.238 330.199 352.428 330.642C352.524 331.746 352.59 332.892 352.626 334.068C339.366 340.77 325.548 344.166 311.55 344.166C291.054 344.166 273.642 336.816 262.638 330.654C250.686 323.952 243.498 317.154 243.438 317.106L242.838 316.506C243.079 314.958 243.44 313.432 243.918 311.94M243.36 309.93C242.487 312.183 241.883 314.531 241.56 316.926V316.926L242.598 317.958C242.598 317.958 271.314 345.366 311.544 345.366C324.624 345.366 338.916 342.474 353.838 334.794C353.838 333.15 353.724 331.65 353.598 330.264C353.249 329.394 352.958 328.502 352.728 327.594C352.728 327.594 336.162 335.994 312.168 335.994C292.536 335.994 267.942 330.372 243.366 309.924L243.36 309.93Z" fill="#1D1D1B"/>
<path d="M329.76 333.09H328.212C327.688 333.09 327.264 333.514 327.264 334.038V343.842C327.264 344.365 327.688 344.79 328.212 344.79H329.76C330.284 344.79 330.708 344.365 330.708 343.842V334.038C330.708 333.514 330.284 333.09 329.76 333.09Z" fill="white"/>
<path d="M329.754 333.09C329.878 333.089 330.001 333.113 330.116 333.16C330.231 333.207 330.336 333.276 330.424 333.364C330.512 333.451 330.582 333.555 330.63 333.67C330.677 333.785 330.702 333.908 330.702 334.032V343.842C330.702 344.093 330.602 344.334 330.424 344.512C330.247 344.69 330.005 344.79 329.754 344.79H328.2C328.076 344.79 327.953 344.765 327.838 344.718C327.723 344.67 327.619 344.6 327.532 344.512C327.444 344.424 327.375 344.319 327.328 344.204C327.281 344.089 327.257 343.966 327.258 343.842V334.032C327.258 333.782 327.357 333.542 327.534 333.366C327.711 333.189 327.95 333.09 328.2 333.09H329.748M329.748 331.89H328.2C327.919 331.89 327.64 331.945 327.38 332.053C327.12 332.161 326.884 332.318 326.685 332.517C326.486 332.716 326.329 332.952 326.221 333.212C326.113 333.472 326.058 333.751 326.058 334.032V343.842C326.058 344.411 326.283 344.956 326.685 345.359C327.087 345.761 327.631 345.988 328.2 345.99H329.748C330.318 345.99 330.864 345.764 331.267 345.361C331.67 344.958 331.896 344.412 331.896 343.842V334.032C331.896 333.75 331.84 333.471 331.732 333.211C331.624 332.951 331.466 332.714 331.266 332.515C331.067 332.316 330.83 332.159 330.57 332.051C330.309 331.944 330.03 331.889 329.748 331.89V331.89Z" fill="black"/>
<path d="M301.452 457.236C301.362 457.236 301.274 457.216 301.193 457.178C301.112 457.14 301.04 457.083 300.984 457.014L295.476 450.126C295.378 450.002 295.333 449.843 295.351 449.686C295.369 449.529 295.448 449.385 295.572 449.286C295.696 449.187 295.853 449.141 296.011 449.158C296.168 449.175 296.312 449.253 296.412 449.376L301.92 456.264C302.018 456.388 302.063 456.546 302.045 456.704C302.027 456.861 301.948 457.005 301.824 457.104C301.718 457.189 301.587 457.235 301.452 457.236Z" fill="black"/>
<path d="M306.27 452.718C306.168 452.718 306.068 452.692 305.978 452.643C305.889 452.594 305.814 452.522 305.76 452.436L303 448.008C302.958 447.941 302.93 447.866 302.917 447.789C302.904 447.711 302.907 447.631 302.925 447.554C302.942 447.477 302.975 447.405 303.021 447.34C303.067 447.276 303.125 447.222 303.192 447.18C303.259 447.138 303.334 447.11 303.411 447.097C303.489 447.084 303.569 447.087 303.646 447.104C303.723 447.122 303.795 447.155 303.859 447.201C303.924 447.247 303.978 447.305 304.02 447.372L306.78 451.8C306.822 451.867 306.85 451.941 306.863 452.019C306.876 452.097 306.874 452.177 306.856 452.254C306.838 452.331 306.805 452.403 306.759 452.468C306.713 452.532 306.655 452.586 306.588 452.628C306.493 452.687 306.382 452.718 306.27 452.718V452.718Z" fill="black"/>
<path d="M368.142 246.018H366.228C364.286 246.018 362.712 247.592 362.712 249.534V269.346C362.712 271.288 364.286 272.862 366.228 272.862H368.142C370.084 272.862 371.658 271.288 371.658 269.346V249.534C371.658 247.592 370.084 246.018 368.142 246.018Z" fill="black"/>
<path d="M368.142 273.462H366.228C365.136 273.462 364.088 273.028 363.315 272.257C362.543 271.485 362.108 270.438 362.106 269.346V249.546C362.108 248.454 362.543 247.407 363.315 246.635C364.088 245.863 365.136 245.43 366.228 245.43H368.142C369.233 245.432 370.279 245.866 371.051 246.637C371.822 247.409 372.256 248.455 372.258 249.546V269.346C372.256 270.437 371.822 271.483 371.051 272.255C370.279 273.026 369.233 273.46 368.142 273.462V273.462ZM366.228 246.6C365.454 246.6 364.712 246.907 364.164 247.454C363.616 248 363.308 248.742 363.306 249.516V269.316C363.308 270.09 363.616 270.832 364.164 271.378C364.712 271.925 365.454 272.232 366.228 272.232H368.142C368.915 272.23 369.656 271.923 370.202 271.376C370.749 270.83 371.056 270.089 371.058 269.316V249.516C371.056 248.743 370.749 248.002 370.202 247.456C369.656 246.909 368.915 246.602 368.142 246.6H366.228Z" fill="#1D1D1B"/>
<path d="M282.792 246.018H280.878C278.936 246.018 277.362 247.592 277.362 249.534V269.346C277.362 271.288 278.936 272.862 280.878 272.862H282.792C284.734 272.862 286.308 271.288 286.308 269.346V249.534C286.308 247.592 284.734 246.018 282.792 246.018Z" fill="black"/>
<path d="M282.792 273.462H280.878C279.786 273.462 278.739 273.028 277.968 272.256C277.196 271.484 276.762 270.438 276.762 269.346V249.546C276.762 249.005 276.868 248.47 277.075 247.971C277.282 247.471 277.585 247.018 277.968 246.635C278.35 246.253 278.803 245.95 279.303 245.743C279.802 245.536 280.337 245.43 280.878 245.43H282.792C283.883 245.432 284.929 245.866 285.701 246.637C286.472 247.409 286.906 248.455 286.908 249.546V269.346C286.906 270.437 286.472 271.483 285.701 272.255C284.929 273.026 283.883 273.46 282.792 273.462V273.462ZM280.878 246.6C280.105 246.602 279.364 246.909 278.818 247.456C278.271 248.002 277.964 248.743 277.962 249.516V269.316C277.964 270.089 278.271 270.83 278.818 271.376C279.364 271.923 280.105 272.23 280.878 272.232H282.792C283.565 272.23 284.306 271.923 284.852 271.376C285.399 270.83 285.706 270.089 285.708 269.316V249.516C285.706 248.743 285.399 248.002 284.852 247.456C284.306 246.909 283.565 246.602 282.792 246.6H280.878Z" fill="#1D1D1B"/>
<path d="M322.944 304.086C321.106 304.076 319.278 303.82 317.508 303.324C317.428 303.305 317.353 303.27 317.288 303.221C317.222 303.172 317.167 303.11 317.126 303.039C317.085 302.968 317.059 302.889 317.05 302.808C317.041 302.727 317.048 302.644 317.072 302.566C317.096 302.487 317.136 302.415 317.189 302.352C317.242 302.29 317.307 302.239 317.38 302.202C317.454 302.166 317.534 302.145 317.616 302.141C317.697 302.137 317.779 302.149 317.856 302.178C317.928 302.178 324.978 304.266 328.932 301.17C330.732 299.766 331.644 297.474 331.65 294.354C331.65 293.82 331.65 293.478 331.65 293.424C331.65 293.265 331.713 293.112 331.826 293C331.938 292.887 332.091 292.824 332.25 292.824C332.404 292.824 332.552 292.883 332.664 292.989C332.776 293.095 332.842 293.24 332.85 293.394C332.85 293.676 332.85 293.946 332.85 294.21C332.952 295.674 333.45 298.884 335.94 300.762C338.43 302.64 342.324 302.772 347.46 301.098C347.536 301.07 347.616 301.058 347.697 301.062C347.777 301.066 347.856 301.086 347.929 301.121C348.002 301.156 348.066 301.206 348.119 301.267C348.172 301.327 348.213 301.398 348.238 301.475C348.263 301.552 348.272 301.633 348.265 301.713C348.258 301.793 348.235 301.871 348.197 301.943C348.159 302.014 348.107 302.077 348.045 302.128C347.982 302.178 347.91 302.216 347.832 302.238C342.294 304.038 338.046 303.87 335.232 301.71C333.956 300.714 332.985 299.379 332.43 297.858C332.008 299.532 331.046 301.02 329.694 302.094C327.714 303.648 325.2 304.086 322.944 304.086Z" fill="black"/>
<path d="M326.232 284.562L332.52 292.566L338.616 284.562H326.232Z" fill="black"/>
<path d="M332.52 293.166C332.429 293.166 332.339 293.146 332.257 293.107C332.175 293.067 332.102 293.009 332.046 292.938L325.758 284.934C325.688 284.845 325.644 284.739 325.632 284.626C325.62 284.514 325.64 284.4 325.689 284.299C325.739 284.197 325.816 284.112 325.912 284.052C326.008 283.993 326.119 283.961 326.232 283.962H338.616C338.728 283.962 338.839 283.993 338.934 284.052C339.03 284.112 339.107 284.197 339.156 284.298C339.206 284.398 339.226 284.51 339.216 284.621C339.205 284.733 339.164 284.839 339.096 284.928L333 292.926C332.945 293 332.873 293.06 332.791 293.101C332.709 293.143 332.618 293.165 332.526 293.166H332.52ZM327.462 285.162L332.508 291.582L337.404 285.162H327.462Z" fill="#1D1D1B"/>
<path d="M354.636 355.614C354.636 355.614 354.222 346.908 362.166 344.922C370.11 342.936 369.522 355.2 369.522 355.2L354.636 355.614Z" fill="white"/>
<path d="M354.636 356.214C354.477 356.214 354.324 356.151 354.212 356.038C354.099 355.926 354.036 355.773 354.036 355.614C354.036 355.518 353.7 346.386 362.022 344.31C364.02 343.806 365.712 344.106 367.038 345.192C370.428 347.97 370.14 354.924 370.122 355.218C370.114 355.372 370.048 355.517 369.936 355.623C369.824 355.729 369.676 355.788 369.522 355.788L354.63 356.184L354.636 356.214ZM363.816 345.3C363.308 345.305 362.802 345.372 362.31 345.498C356.1 347.052 355.326 353.082 355.242 354.996L368.934 354.636C368.934 352.986 368.7 348.132 366.276 346.152C365.585 345.582 364.712 345.279 363.816 345.3V345.3Z" fill="#1D1D1B"/>
<path d="M362.537 356.596C367.219 356.343 370.952 354.987 370.876 353.568C370.799 352.148 366.941 351.202 362.259 351.455C357.577 351.708 353.844 353.064 353.92 354.483C353.997 355.903 357.855 356.848 362.537 356.596Z" fill="white"/>
<path d="M361.086 357.222C357.114 357.222 353.46 356.358 353.34 354.516C353.333 354.295 353.37 354.075 353.45 353.869C353.529 353.663 353.649 353.475 353.802 353.316C354.942 352.038 358.242 351.066 362.202 350.85C366.702 350.598 371.34 351.45 371.478 353.508C371.485 353.729 371.448 353.949 371.369 354.155C371.289 354.361 371.169 354.549 371.016 354.708C369.876 355.992 366.576 356.964 362.616 357.18C362.106 357.21 361.59 357.222 361.086 357.222ZM363.816 351.996C363.33 351.996 362.814 351.996 362.28 352.038C358.314 352.26 355.47 353.238 354.702 354.108C354.61 354.195 354.552 354.312 354.54 354.438C354.582 355.11 357.45 356.238 362.55 355.98C366.516 355.764 369.366 354.78 370.128 353.916C370.22 353.829 370.278 353.712 370.29 353.586V353.586C370.254 352.98 367.95 351.996 363.816 351.996V351.996Z" fill="#1D1D1B"/>
<path d="M362.191 358.639C366.874 358.387 370.607 357.031 370.53 355.611C370.454 354.192 366.596 353.246 361.914 353.499C357.232 353.752 353.498 355.107 353.575 356.527C353.652 357.946 357.509 358.892 362.191 358.639Z" fill="white"/>
<path d="M360.732 359.268C356.766 359.268 353.112 358.404 352.992 356.562C352.984 356.341 353.02 356.121 353.1 355.914C353.179 355.708 353.3 355.52 353.454 355.362C354.588 354.084 357.888 353.112 361.854 352.896C366.36 352.644 370.998 353.496 371.136 355.554C371.143 355.775 371.105 355.995 371.024 356.202C370.944 356.408 370.823 356.596 370.668 356.754C369.534 358.038 366.234 359.01 362.268 359.226C361.758 359.256 361.242 359.268 360.732 359.268ZM363.468 354.042C362.982 354.042 362.466 354.042 361.926 354.084C357.966 354.306 355.116 355.284 354.354 356.154C354.262 356.242 354.203 356.358 354.186 356.484C354.234 357.156 357.102 358.284 362.202 358.026C366.168 357.81 369.012 356.826 369.774 355.962C369.869 355.874 369.929 355.754 369.942 355.626C369.9 355.026 367.602 354.042 363.468 354.042V354.042Z" fill="#1D1D1B"/>
<path d="M359.43 362.964C359.271 362.964 359.118 362.901 359.006 362.788C358.893 362.676 358.83 362.523 358.83 362.364C358.83 360.3 358.884 358.212 359.01 356.16C359.015 356.081 359.035 356.004 359.069 355.933C359.104 355.862 359.152 355.798 359.211 355.746C359.27 355.694 359.339 355.653 359.414 355.628C359.488 355.602 359.567 355.591 359.646 355.596C359.725 355.601 359.802 355.621 359.873 355.655C359.944 355.69 360.007 355.738 360.06 355.797C360.112 355.856 360.152 355.925 360.178 355.999C360.204 356.074 360.215 356.153 360.21 356.232C360.09 358.26 360.03 360.324 360.036 362.358C360.036 362.517 359.973 362.67 359.86 362.782C359.748 362.895 359.595 362.958 359.436 362.958L359.43 362.964Z" fill="#1D1D1B"/>
<path d="M364.392 363.738H364.314C364.157 363.717 364.014 363.634 363.917 363.509C363.82 363.383 363.778 363.223 363.798 363.066C364.08 360.781 364.188 358.479 364.122 356.178C364.122 356.019 364.185 355.866 364.298 355.754C364.41 355.641 364.563 355.578 364.722 355.578C364.881 355.578 365.034 355.641 365.146 355.754C365.259 355.866 365.322 356.019 365.322 356.178C365.39 358.541 365.278 360.906 364.986 363.252C364.959 363.39 364.885 363.513 364.777 363.602C364.668 363.691 364.532 363.739 364.392 363.738Z" fill="#1D1D1B"/>
<path d="M362.022 345.042C361.877 345.044 361.737 344.993 361.627 344.899C361.516 344.805 361.444 344.675 361.422 344.532C356.022 307.446 345.606 302.844 345.504 302.802C345.424 302.778 345.351 302.737 345.288 302.683C345.224 302.629 345.173 302.563 345.137 302.488C345.101 302.413 345.081 302.331 345.078 302.248C345.075 302.165 345.09 302.082 345.121 302.005C345.152 301.928 345.198 301.858 345.258 301.799C345.317 301.741 345.388 301.696 345.466 301.666C345.543 301.637 345.626 301.624 345.709 301.629C345.793 301.633 345.874 301.655 345.948 301.692C346.404 301.872 357.114 306.594 362.61 344.358C362.632 344.515 362.591 344.675 362.495 344.803C362.4 344.93 362.258 345.014 362.1 345.036L362.022 345.042Z" fill="black"/>
<path d="M108.06 480.042C102.126 480.042 95.8919 478.842 89.2559 476.442C89.1067 476.389 88.9845 476.279 88.916 476.136C88.8474 475.994 88.838 475.83 88.8899 475.68C88.9162 475.605 88.9569 475.537 89.0097 475.478C89.0626 475.419 89.1265 475.371 89.1979 475.337C89.2692 475.303 89.3466 475.284 89.4256 475.28C89.5045 475.276 89.5835 475.287 89.6579 475.314C107.916 481.836 123.036 479.244 137.25 467.16C160.242 447.618 174.756 454.506 187.566 460.56C189.876 461.658 192.06 462.69 194.298 463.596C205.446 468.102 221.628 469.866 237.588 468.312C255.09 466.614 269.772 461.298 278.928 453.354C288.342 445.188 291.558 434.754 288.48 422.31C278.574 382.284 287.94 351.696 297.546 333.084C307.956 312.912 320.898 302.052 321.03 301.944C321.091 301.893 321.161 301.855 321.236 301.832C321.311 301.809 321.391 301.8 321.469 301.807C321.548 301.815 321.624 301.837 321.694 301.874C321.764 301.911 321.826 301.961 321.876 302.022C321.926 302.083 321.964 302.153 321.987 302.229C322.01 302.304 322.017 302.384 322.01 302.462C322.002 302.541 321.979 302.617 321.941 302.687C321.904 302.757 321.853 302.818 321.792 302.868C321.666 302.97 308.88 313.71 298.584 333.684C289.092 352.104 279.834 382.386 289.644 422.022C292.794 434.748 289.356 445.89 279.714 454.26C259.716 471.66 217.14 474.18 193.848 464.766C191.58 463.848 189.276 462.756 187.05 461.7C173.958 455.49 160.422 449.1 138.024 468.108C128.628 476.094 118.836 480.042 108.06 480.042Z" fill="black"/>
<path d="M392.304 381.612H368.904V405.012H392.304V381.612Z" fill="black"/>
<path d="M392.304 405.6H368.904C368.745 405.6 368.592 405.537 368.48 405.424C368.367 405.312 368.304 405.159 368.304 405V381.6C368.304 381.441 368.367 381.288 368.48 381.176C368.592 381.063 368.745 381 368.904 381H392.304C392.463 381 392.616 381.063 392.728 381.176C392.841 381.288 392.904 381.441 392.904 381.6V405C392.904 405.159 392.841 405.312 392.728 405.424C392.616 405.537 392.463 405.6 392.304 405.6ZM369.504 404.4H391.704V382.2H369.504V404.4Z" fill="#1D1D1B"/>
<path d="M380.604 400.884C384.786 400.884 388.176 397.494 388.176 393.312C388.176 389.13 384.786 385.74 380.604 385.74C376.422 385.74 373.032 389.13 373.032 393.312C373.032 397.494 376.422 400.884 380.604 400.884Z" fill="white"/>
<path d="M380.604 385.74C382.102 385.74 383.566 386.184 384.811 387.016C386.056 387.848 387.026 389.031 387.6 390.414C388.173 391.798 388.323 393.32 388.03 394.789C387.738 396.258 387.017 397.607 385.958 398.666C384.899 399.725 383.55 400.446 382.081 400.738C380.612 401.03 379.09 400.881 377.706 400.307C376.323 399.734 375.14 398.764 374.308 397.519C373.476 396.273 373.032 394.809 373.032 393.312C373.032 391.304 373.83 389.378 375.25 387.958C376.67 386.538 378.596 385.74 380.604 385.74M380.604 384.54C378.87 384.545 377.176 385.063 375.737 386.03C374.298 386.997 373.177 388.368 372.517 389.971C371.857 391.575 371.686 393.338 372.027 395.038C372.369 396.738 373.206 398.299 374.434 399.523C375.661 400.747 377.224 401.58 378.925 401.917C380.626 402.253 382.389 402.078 383.99 401.414C385.592 400.749 386.96 399.625 387.923 398.183C388.886 396.741 389.4 395.046 389.4 393.312C389.397 390.986 388.472 388.757 386.827 387.113C385.183 385.468 382.953 384.543 380.628 384.54H380.604Z" fill="black"/>
<path d="M378.54 397.356C378.381 397.356 378.228 397.293 378.116 397.18C378.003 397.068 377.94 396.915 377.94 396.756V389.874C377.94 389.715 378.003 389.562 378.116 389.45C378.228 389.337 378.381 389.274 378.54 389.274C378.699 389.274 378.852 389.337 378.964 389.45C379.077 389.562 379.14 389.715 379.14 389.874V396.756C379.14 396.915 379.077 397.068 378.964 397.18C378.852 397.293 378.699 397.356 378.54 397.356Z" fill="black"/>
<path d="M383.358 397.356C383.199 397.356 383.046 397.293 382.934 397.18C382.821 397.068 382.758 396.915 382.758 396.756V389.874C382.758 389.715 382.821 389.562 382.934 389.45C383.046 389.337 383.199 389.274 383.358 389.274C383.517 389.274 383.67 389.337 383.782 389.45C383.895 389.562 383.958 389.715 383.958 389.874V396.756C383.958 396.915 383.895 397.068 383.782 397.18C383.67 397.293 383.517 397.356 383.358 397.356Z" fill="black"/>
<path d="M373.332 344.4C373.199 344.401 373.07 344.358 372.964 344.277C372.858 344.197 372.782 344.083 372.748 343.955C372.714 343.827 372.723 343.69 372.774 343.568C372.826 343.445 372.916 343.343 373.032 343.278L378.804 339.972C378.872 339.932 378.948 339.907 379.027 339.896C379.105 339.886 379.185 339.891 379.261 339.912C379.338 339.932 379.409 339.968 379.472 340.016C379.534 340.065 379.587 340.125 379.626 340.194C379.704 340.332 379.725 340.495 379.683 340.648C379.642 340.801 379.541 340.931 379.404 341.01L373.626 344.322C373.536 344.373 373.435 344.4 373.332 344.4V344.4Z" fill="#1D1D1B"/>
<path d="M385.662 351.762H374.934C374.775 351.762 374.622 351.699 374.51 351.586C374.397 351.474 374.334 351.321 374.334 351.162C374.334 351.003 374.397 350.85 374.51 350.738C374.622 350.625 374.775 350.562 374.934 350.562H385.662C385.821 350.562 385.974 350.625 386.086 350.738C386.199 350.85 386.262 351.003 386.262 351.162C386.262 351.321 386.199 351.474 386.086 351.586C385.974 351.699 385.821 351.762 385.662 351.762Z" fill="#1D1D1B"/>
<path d="M215.328 356.154C215.214 356.153 215.102 356.122 215.004 356.064C214.937 356.021 214.879 355.966 214.834 355.901C214.789 355.835 214.757 355.762 214.74 355.684C214.723 355.607 214.722 355.527 214.736 355.449C214.751 355.371 214.781 355.296 214.824 355.23L219.222 348.354C219.308 348.219 219.444 348.125 219.6 348.09C219.755 348.056 219.918 348.085 220.053 348.171C220.187 348.257 220.282 348.393 220.317 348.548C220.351 348.704 220.322 348.867 220.236 349.002L215.832 355.878C215.778 355.962 215.703 356.032 215.615 356.08C215.527 356.128 215.428 356.154 215.328 356.154Z" fill="#1D1D1B"/>
<path d="M216.03 362.724C215.964 362.724 215.899 362.712 215.838 362.688C215.688 362.636 215.564 362.527 215.494 362.384C215.425 362.241 215.414 362.076 215.466 361.926C216.338 359.387 217.525 356.969 219 354.726C219.043 354.66 219.099 354.603 219.165 354.558C219.23 354.513 219.303 354.482 219.381 354.466C219.458 354.45 219.538 354.449 219.616 354.464C219.694 354.479 219.768 354.508 219.834 354.552C219.9 354.595 219.957 354.651 220.002 354.716C220.046 354.782 220.078 354.855 220.094 354.933C220.11 355.01 220.111 355.09 220.096 355.168C220.081 355.246 220.051 355.32 220.008 355.386C218.586 357.544 217.441 359.872 216.6 362.316C216.56 362.435 216.483 362.538 216.381 362.612C216.278 362.685 216.156 362.724 216.03 362.724V362.724Z" fill="#1D1D1B"/>
<path d="M256.356 423.282C256.211 423.283 256.07 423.232 255.96 423.138L251.832 419.538C251.772 419.486 251.722 419.423 251.686 419.352C251.651 419.281 251.629 419.204 251.624 419.124C251.618 419.045 251.628 418.966 251.654 418.89C251.679 418.815 251.719 418.745 251.772 418.686C251.876 418.566 252.024 418.492 252.183 418.481C252.341 418.47 252.498 418.522 252.618 418.626L256.746 422.226C256.839 422.306 256.906 422.412 256.937 422.531C256.968 422.649 256.961 422.775 256.919 422.89C256.876 423.005 256.8 423.104 256.699 423.174C256.598 423.244 256.479 423.282 256.356 423.282Z" fill="#1D1D1B"/>
<path d="M252.456 424.398H252.36C252.281 424.386 252.206 424.358 252.138 424.316C252.07 424.274 252.011 424.219 251.965 424.154C251.919 424.09 251.886 424.016 251.868 423.939C251.85 423.861 251.848 423.78 251.862 423.702C252.284 421.311 253.543 419.148 255.414 417.6C255.535 417.512 255.685 417.473 255.833 417.49C255.982 417.507 256.119 417.579 256.217 417.692C256.316 417.804 256.368 417.95 256.365 418.099C256.362 418.249 256.303 418.392 256.2 418.5C254.545 419.868 253.436 421.784 253.074 423.9C253.049 424.044 252.973 424.174 252.859 424.266C252.745 424.357 252.602 424.404 252.456 424.398Z" fill="#1D1D1B"/>
<path d="M231.3 376.524C231.179 376.524 231.061 376.487 230.961 376.418C230.862 376.35 230.785 376.253 230.742 376.14C230.698 376.027 230.69 375.903 230.718 375.786C230.746 375.668 230.808 375.561 230.898 375.48L234.966 371.832C235.086 371.736 235.238 371.689 235.391 371.702C235.544 371.715 235.687 371.786 235.789 371.9C235.891 372.015 235.946 372.165 235.941 372.318C235.937 372.472 235.873 372.618 235.764 372.726L231.702 376.374C231.591 376.472 231.448 376.525 231.3 376.524Z" fill="#1D1D1B"/>
<path d="M234.084 376.494C234.001 376.494 233.918 376.478 233.842 376.445C233.765 376.412 233.697 376.363 233.64 376.302L230.352 372.702C230.244 372.585 230.186 372.43 230.193 372.271C230.199 372.111 230.268 371.961 230.385 371.853C230.502 371.745 230.657 371.687 230.816 371.694C230.975 371.7 231.126 371.769 231.234 371.886L234.528 375.486C234.634 375.604 234.69 375.759 234.682 375.918C234.674 376.076 234.603 376.225 234.486 376.332C234.377 376.434 234.233 376.492 234.084 376.494V376.494Z" fill="#1D1D1B"/>
<path d="M194.43 435.132C194.304 435.132 194.181 435.092 194.079 435.019C193.977 434.945 193.901 434.841 193.861 434.722C193.821 434.602 193.82 434.473 193.857 434.353C193.895 434.233 193.969 434.127 194.07 434.052L198.198 431.052C198.262 431.005 198.334 430.971 198.411 430.952C198.488 430.933 198.568 430.93 198.646 430.942C198.724 430.954 198.8 430.981 198.867 431.022C198.935 431.063 198.994 431.117 199.041 431.181C199.088 431.245 199.122 431.317 199.141 431.394C199.159 431.471 199.163 431.551 199.151 431.629C199.139 431.707 199.112 431.783 199.071 431.85C199.03 431.918 198.976 431.977 198.912 432.024L194.784 435.024C194.68 435.096 194.556 435.134 194.43 435.132Z" fill="#1D1D1B"/>
<path d="M198.306 437.322C198.202 437.322 198.1 437.295 198.009 437.243C197.919 437.192 197.843 437.117 197.79 437.028L194.016 430.65C193.955 430.514 193.946 430.361 193.991 430.22C194.037 430.078 194.133 429.959 194.261 429.884C194.39 429.809 194.541 429.785 194.686 429.816C194.832 429.846 194.961 429.93 195.048 430.05L198.822 436.428C198.903 436.565 198.927 436.728 198.887 436.882C198.848 437.036 198.749 437.169 198.612 437.25C198.518 437.299 198.412 437.324 198.306 437.322V437.322Z" fill="#1D1D1B"/>
<path d="M338.058 379.002C337.952 379.003 337.848 378.974 337.758 378.918C337.622 378.838 337.523 378.707 337.482 378.554C337.442 378.402 337.463 378.239 337.542 378.102L339.468 374.796C339.505 374.724 339.557 374.661 339.62 374.61C339.682 374.558 339.755 374.52 339.832 374.498C339.91 374.475 339.992 374.469 340.072 374.478C340.152 374.488 340.23 374.514 340.3 374.555C340.37 374.595 340.431 374.649 340.48 374.714C340.528 374.779 340.563 374.853 340.582 374.931C340.602 375.01 340.605 375.092 340.592 375.172C340.579 375.251 340.549 375.328 340.506 375.396L338.58 378.696C338.528 378.789 338.452 378.866 338.36 378.92C338.269 378.973 338.164 379.002 338.058 379.002Z" fill="#1D1D1B"/>
<path d="M336.102 375.684C336.008 375.682 335.916 375.66 335.832 375.618C335.691 375.546 335.584 375.421 335.534 375.27C335.485 375.12 335.497 374.956 335.568 374.814L338.316 369.312C338.35 369.239 338.397 369.173 338.457 369.119C338.516 369.065 338.586 369.023 338.661 368.997C338.737 368.97 338.818 368.959 338.898 368.964C338.978 368.968 339.056 368.989 339.128 369.025C339.2 369.061 339.264 369.111 339.317 369.172C339.369 369.233 339.408 369.304 339.433 369.38C339.457 369.457 339.466 369.537 339.459 369.617C339.451 369.697 339.428 369.775 339.39 369.846L336.636 375.354C336.586 375.453 336.51 375.536 336.416 375.594C336.321 375.653 336.213 375.684 336.102 375.684V375.684Z" fill="#1D1D1B"/>
<path d="M456.828 327.084H456.528C456.028 326.996 455.557 326.789 455.154 326.481C454.751 326.172 454.428 325.771 454.212 325.312C453.997 324.852 453.895 324.347 453.916 323.84C453.937 323.333 454.08 322.838 454.332 322.398C454.382 322.319 454.45 322.254 454.53 322.206C454.556 322.118 454.603 322.037 454.668 321.972C455.207 321.451 455.921 321.151 456.671 321.131C457.42 321.11 458.15 321.371 458.716 321.861C459.283 322.352 459.645 323.037 459.732 323.782C459.819 324.526 459.624 325.276 459.186 325.884C458.911 326.251 458.555 326.55 458.146 326.758C457.738 326.966 457.287 327.078 456.828 327.084V327.084ZM455.406 322.884C455.388 322.937 455.364 322.987 455.334 323.034C455.167 323.223 455.042 323.444 454.966 323.684C454.891 323.924 454.866 324.178 454.894 324.428C454.923 324.678 455.003 324.919 455.13 325.136C455.258 325.353 455.429 325.541 455.634 325.688C455.838 325.835 456.071 325.937 456.318 325.988C456.564 326.039 456.819 326.038 457.065 325.985C457.311 325.931 457.543 325.827 457.746 325.678C457.949 325.53 458.119 325.34 458.244 325.122C458.445 324.892 458.585 324.614 458.649 324.314C458.713 324.015 458.699 323.705 458.61 323.412C458.478 323.139 458.284 322.901 458.045 322.715C457.806 322.529 457.527 322.4 457.23 322.338C456.934 322.277 456.627 322.284 456.333 322.36C456.04 322.436 455.768 322.578 455.538 322.776C455.497 322.819 455.451 322.855 455.4 322.884H455.406Z" fill="#1D1D1B"/>
<path d="M228.252 231.51C228.172 231.508 228.092 231.492 228.018 231.462C227.945 231.431 227.878 231.386 227.823 231.33C227.767 231.273 227.723 231.206 227.694 231.132C227.664 231.059 227.649 230.98 227.65 230.9C227.652 230.821 227.668 230.743 227.7 230.67C234.017 215.864 241.438 201.554 249.9 187.86C249.931 187.778 249.98 187.705 250.042 187.644C250.105 187.583 250.18 187.537 250.262 187.508C250.344 187.479 250.432 187.468 250.519 187.477C250.606 187.485 250.689 187.513 250.765 187.557C250.84 187.601 250.904 187.661 250.954 187.733C251.004 187.805 251.037 187.886 251.052 187.972C251.067 188.058 251.062 188.146 251.04 188.231C251.017 188.315 250.976 188.393 250.92 188.46C242.49 202.104 235.097 216.362 228.804 231.114C228.763 231.228 228.688 231.327 228.589 231.398C228.491 231.468 228.373 231.507 228.252 231.51Z" fill="#1D1D1B"/>
<path d="M396.084 184.716C395.948 184.714 395.817 184.665 395.712 184.578C395.589 184.478 395.511 184.334 395.494 184.177C395.477 184.019 395.523 183.862 395.622 183.738C400.179 178.082 406.528 174.147 413.622 172.584C413.701 172.562 413.783 172.556 413.864 172.567C413.945 172.578 414.023 172.605 414.093 172.647C414.163 172.689 414.223 172.745 414.271 172.811C414.319 172.878 414.352 172.953 414.37 173.033C414.387 173.112 414.389 173.195 414.373 173.275C414.358 173.355 414.326 173.431 414.28 173.499C414.234 173.566 414.175 173.624 414.106 173.668C414.038 173.712 413.961 173.741 413.88 173.754C407.057 175.264 400.951 179.049 396.564 184.488C396.507 184.56 396.434 184.619 396.351 184.658C396.267 184.698 396.176 184.717 396.084 184.716Z" fill="#1D1D1B"/>
<path d="M123 361.434C122.873 361.434 122.75 361.394 122.648 361.319C122.545 361.245 122.469 361.14 122.43 361.02C121.515 357.936 121.489 354.657 122.354 351.559C123.219 348.461 124.94 345.67 127.32 343.506C126.648 339.984 127.836 336.174 129.684 333.468C132.3 329.634 136.32 326.952 139.884 324.582C139.949 324.533 140.024 324.498 140.103 324.478C140.182 324.459 140.265 324.456 140.345 324.47C140.426 324.484 140.502 324.513 140.571 324.558C140.639 324.602 140.698 324.66 140.743 324.728C140.789 324.796 140.82 324.872 140.835 324.952C140.849 325.033 140.848 325.115 140.83 325.195C140.812 325.274 140.777 325.349 140.729 325.415C140.681 325.481 140.62 325.536 140.55 325.578C137.094 327.888 133.176 330.504 130.692 334.14C128.966 336.62 128.16 339.625 128.412 342.636C129.972 341.496 132.282 340.296 134.832 340.584C137.196 340.848 139.752 342.81 139.776 345.522C139.776 348.036 137.424 350.322 134.7 350.364H134.568C132.288 350.364 129.948 348.942 128.568 346.71C128.203 346.114 127.906 345.481 127.68 344.82C125.628 346.841 124.164 349.382 123.446 352.171C122.727 354.961 122.78 357.893 123.6 360.654C123.649 360.805 123.636 360.97 123.564 361.111C123.492 361.253 123.367 361.36 123.216 361.41C123.146 361.43 123.073 361.438 123 361.434V361.434ZM128.652 343.95C128.857 344.702 129.168 345.422 129.576 346.086C130.084 346.972 130.804 347.718 131.673 348.256C132.541 348.793 133.53 349.105 134.55 349.164H134.652C136.71 349.116 138.57 347.364 138.558 345.534C138.558 343.542 136.542 341.982 134.682 341.778C132.378 341.508 130.242 342.726 128.862 343.788L128.652 343.95Z" fill="#1D1D1B"/>
<path d="M212.64 152.052C212.236 152.055 211.833 152.008 211.44 151.914C210.719 151.765 210.046 151.438 209.484 150.962C208.923 150.486 208.489 149.877 208.224 149.19C208.172 149.041 208.18 148.878 208.248 148.735C208.315 148.593 208.436 148.482 208.584 148.428H208.638H208.566C208.407 148.428 208.254 148.365 208.142 148.252C208.029 148.14 207.966 147.987 207.966 147.828C207.968 147.103 208.148 146.389 208.49 145.749C208.833 145.11 209.328 144.565 209.931 144.162C210.534 143.759 211.227 143.51 211.949 143.438C212.671 143.366 213.399 143.473 214.07 143.749C214.741 144.025 215.333 144.461 215.796 145.02C216.258 145.579 216.576 146.243 216.721 146.954C216.866 147.665 216.834 148.4 216.627 149.096C216.421 149.791 216.047 150.425 215.538 150.942C214.749 151.668 213.712 152.066 212.64 152.052V152.052ZM208.806 148.392C208.93 148.392 209.051 148.431 209.152 148.503C209.253 148.575 209.329 148.677 209.37 148.794C209.634 149.513 210.158 150.107 210.839 150.458C211.52 150.809 212.307 150.891 213.046 150.688C213.785 150.485 214.42 150.012 214.826 149.363C215.233 148.714 215.38 147.935 215.24 147.182C215.099 146.43 214.681 145.757 214.067 145.298C213.454 144.839 212.691 144.627 211.929 144.705C211.167 144.782 210.461 145.143 209.953 145.716C209.445 146.289 209.17 147.032 209.184 147.798C209.188 147.934 209.146 148.068 209.064 148.177C208.982 148.286 208.866 148.364 208.734 148.398L208.806 148.392Z" fill="#1D1D1B"/>
</svg>
