<svg width="600" height="600" viewBox="0 0 600 600" fill="none" xmlns="http://www.w3.org/2000/svg">
<path d="M149.484 259.264C126.238 214.476 102.993 169.811 79.8687 125.023C119.788 132.934 159.585 140.845 199.504 148.756C206.32 150.094 213.987 151.311 219.707 147.417C223.845 144.618 225.914 139.75 228.105 135.368C236.624 118.33 249.282 103.482 264.738 92.4064C277.395 83.4003 294.19 76.8282 308.065 83.5219C313.176 85.956 317.436 90.0941 322.426 92.7716C339.465 102.265 360.641 95.084 378.41 87.2949C396.301 79.5058 416.504 71.108 434.516 78.6537C440.845 81.3312 446.2 85.7128 451.92 89.4856C475.895 105.429 506.687 111.393 526.403 132.447C542.59 149.608 548.431 175.653 541.251 198.168C528.959 236.627 483.563 259.994 478.573 300.035C477.599 307.58 478.208 315.248 477.113 322.793C473.461 346.161 452.406 364.051 429.526 370.015C406.645 375.978 382.305 371.962 359.546 365.39C292.973 346.039 233.095 304.294 192.08 248.31" fill="#F4F6F9"/>
<path d="M509.608 368.791C509.364 358.933 507.66 348.832 505.47 339.217C496.342 299.298 473.583 262.543 441.696 236.863L440.845 237.959C440.966 224.693 441.453 212.158 442.548 197.188V196.945C445.713 198.405 449.486 198.648 452.528 197.066C457.518 194.632 460.196 188.425 458.492 183.192C456.91 178.324 451.555 174.916 446.443 175.403L452.407 142.056L438.532 139.135C432.934 137.918 426.97 139.378 421.859 141.691C406.281 148.749 390.824 156.173 377.071 162.38C377.071 162.38 389.729 173.577 395.936 179.054C395.936 179.054 383.522 208.75 378.288 221.529C346.402 215.444 314.637 209.48 282.75 203.395C266.929 200.352 250.864 197.31 234.92 198.892C226.523 199.622 218.003 201.813 210.458 205.585C208.754 204.247 207.05 202.664 205.711 200.961L206.563 204.003C203.764 200.839 198.652 200.23 194.758 201.934C194.149 202.178 193.663 202.543 193.054 202.786C192.202 201.082 190.62 199.622 188.673 199.135C185.995 198.405 183.196 199.257 181.005 200.839C177.598 198.04 172.486 197.553 168.348 199.379C167.618 199.744 166.888 200.109 166.157 200.596C164.088 198.283 160.194 197.918 157.395 199.5C154.717 200.961 153.135 203.882 152.405 206.924L67.5766 187.33C57.8402 185.139 49.9294 195.241 54.5541 204.125L144.616 377.919C135.488 381.814 126.603 386.073 117.719 390.333V391.55C122.222 410.658 126.36 422.463 133.297 440.841L132.323 442.423C147.05 442.179 161.654 440.841 176.137 438.772L188.064 461.774C192.446 470.293 204.616 470.171 208.997 461.652L225.793 428.062C236.016 425.141 245.996 421.733 255.854 417.838C263.643 450.699 277.152 482.098 295.894 510.09C318.288 506.196 339.708 497.19 358.085 483.802C357.599 482.098 356.99 480.516 356.503 478.812L414.07 523.113C418.938 526.886 425.753 526.155 429.891 521.652L474.07 472.97C478.573 467.981 477.965 460.313 472.853 456.054L396.422 392.645C399.587 391.55 402.751 390.211 405.794 388.873C410.905 393.741 417.842 396.662 424.78 397.027C429.77 397.27 435.246 396.297 439.628 398.731C442.548 400.434 444.496 403.477 446.808 405.911C451.676 411.145 458.735 414.309 465.794 415.039C472.975 415.891 480.155 414.552 486.971 411.875C494.395 408.954 501.454 404.329 505.713 397.635C511.19 389.359 509.851 378.406 509.608 368.791Z" fill="white"/>
<path d="M511.068 378.041C510.825 364.653 509.486 351.631 506.444 338.608C501.454 316.702 492.204 295.647 479.79 276.904C469.445 261.326 456.666 247.208 442.062 235.525C442.305 223.476 442.67 211.549 443.522 199.622C444.739 199.987 445.956 200.109 447.173 200.109C449.121 200.109 450.946 199.743 452.772 198.891C458.492 196.092 461.656 188.912 459.587 182.827C458.37 179.297 455.693 176.498 452.285 174.916C461.778 167.127 471.636 148.019 463.725 137.796C453.137 124.165 439.506 129.642 436.707 111.264C427.457 115.889 426.484 128.79 429.526 133.536C430.5 134.997 431.473 136.092 432.569 137.065C429.161 137.187 425.753 138.039 422.589 139.256C417.112 141.447 411.757 144.124 406.402 146.559C396.057 151.305 385.713 156.295 375.368 160.92C374.272 161.407 374.151 163.11 375.003 163.84C380.966 169.196 386.93 174.429 393.015 179.784C388.147 191.346 383.4 202.908 378.654 214.47C377.924 216.174 377.315 217.877 376.585 219.581C376.463 219.46 376.22 219.338 375.976 219.338C348.593 214.105 326.077 210.088 298.694 204.977C285.185 202.421 271.675 199.5 257.923 197.918C245.509 196.457 232.852 196.457 220.681 199.743C216.421 200.96 212.283 202.543 208.389 204.49C208.024 204.125 207.659 203.881 207.415 203.516C207.294 203.395 207.294 203.151 207.05 203.03C203.886 199.622 198.653 198.648 194.271 200.109C193.784 200.23 193.298 200.474 192.811 200.717C191.959 199.622 190.863 198.77 189.646 198.161C186.604 196.823 183.074 197.431 180.275 199.013C175.894 196.214 170.174 196.214 165.549 198.77C163.115 197.066 159.951 196.579 157.151 197.674C153.865 198.891 151.553 201.813 150.336 205.099L67.0899 185.869C61.8566 184.652 56.6232 186.599 53.3372 190.737C50.0512 194.997 49.5644 200.474 51.9985 205.22L141.208 377.311C138.531 378.406 135.853 379.623 133.297 380.84C127.455 383.517 121.735 386.195 115.893 389.116C115.528 389.238 115.285 389.603 115.163 389.968C104.94 377.797 90.5789 369.035 75.0007 365.505C82.5464 393.011 90.0921 420.394 97.5161 447.899C104.453 449.603 111.512 451.429 118.449 450.577C123.317 449.968 128.064 448.021 131.472 444.735C145.711 444.37 159.951 443.274 174.068 441.327L185.387 463.112C187.699 467.615 192.324 470.415 197.436 470.415H197.557C202.669 470.415 207.294 467.494 209.606 462.991L226.036 430.13C233.704 427.94 241.249 425.384 248.673 422.706C250.255 422.098 251.959 421.489 253.541 420.881C255.367 428.427 257.558 435.972 259.992 443.396C267.172 464.816 276.787 485.384 288.714 504.492C290.174 506.926 291.757 509.238 293.339 511.672C293.826 512.403 294.556 512.646 295.408 512.524C296.138 512.403 296.868 512.281 297.72 512.159C291.878 525.912 288.714 540.881 288.592 555.729C288.592 556.946 288.714 558.407 289.809 559.137C291.026 559.989 292.73 559.015 293.947 558.163C316.098 541.977 338.248 525.912 360.398 509.725C361.615 508.752 362.954 507.9 363.806 506.561C366.727 501.936 362.71 496.094 358.938 492.2C357.72 490.861 356.382 489.644 355.043 488.305C356.138 487.575 357.112 486.845 358.207 486.114C358.694 485.749 359.059 485.141 359.059 484.532L412.123 525.303C414.557 527.129 417.477 528.103 420.398 528.103C424.171 528.103 427.822 526.642 430.5 523.721L474.679 475.039C477.235 472.24 478.451 468.711 478.208 464.938C477.965 461.165 476.261 457.879 473.34 455.445L399.344 393.984C401.169 393.254 402.995 392.524 404.82 391.672C407.863 394.349 411.514 396.418 415.408 397.757C418.086 398.731 420.885 399.217 423.806 399.461C426.727 399.704 429.77 399.339 432.691 399.583C435.733 399.826 438.411 400.799 440.601 402.99C442.67 405.059 444.374 407.493 446.565 409.562C450.824 413.457 456.301 416.013 461.9 417.23C473.948 419.664 487.579 416.013 497.559 408.954C502.184 405.668 506.322 401.286 508.634 396.053C510.825 389.846 511.19 383.882 511.068 378.041ZM406.767 150.331C411.879 147.897 416.991 145.585 422.102 143.273C426.849 141.204 432.204 139.865 437.437 140.96C437.802 141.082 438.046 140.96 438.289 140.96C442.305 143.394 445.591 145.585 444.618 153.496C443.766 159.459 439.263 165.788 444.009 173.699L444.618 173.942C443.644 174.185 442.914 175.037 443.157 176.011C443.401 176.985 444.252 177.715 445.226 177.472C449.729 176.62 454.719 179.662 456.18 183.922C457.64 188.303 455.328 193.658 451.19 195.606C447.052 197.553 441.453 196.092 438.898 192.198C438.289 191.346 437.194 191.103 436.342 191.711C435.49 192.32 435.246 193.415 435.855 194.267C436.95 195.849 438.411 197.188 439.993 198.161C439.019 211.427 438.532 224.815 438.411 238.202C438.167 237.715 437.681 237.472 436.95 237.472C425.875 237.837 414.678 237.35 403.603 236.133C395.084 235.16 382.913 233.943 379.506 224.328C379.384 223.963 379.141 223.597 378.775 223.476C384.13 210.332 389.607 197.188 395.084 184.165C395.692 182.705 396.301 181.123 396.909 179.662C397.153 179.054 396.909 178.323 396.423 177.837C390.824 172.847 385.226 167.979 379.506 162.989C388.755 158.729 397.761 154.469 406.767 150.331ZM204.373 205.099C204.494 205.22 204.494 205.342 204.616 205.464C207.172 208.506 210.58 210.454 214.353 211.549C218.49 212.644 222.994 212.888 227.131 214.105C228.957 214.713 231.513 216.052 231.391 218.364C231.391 220.312 229.2 221.407 227.618 222.015C223.359 223.598 218.612 223.719 214.353 222.381C212.162 221.65 210.215 220.433 208.146 219.46C206.198 218.608 204.129 218.243 202.304 219.46C200.6 220.677 199.87 222.746 198.774 224.449C197.557 226.397 195.975 228.222 194.271 229.805C191.837 232.117 186.239 235.281 184.535 230.413C183.926 228.709 184.048 226.884 184.17 225.18C184.413 222.746 184.778 220.433 185.265 217.999C186.239 213.131 188.186 208.019 192.324 204.977C195.975 202.299 201.208 201.813 204.373 205.099ZM186.239 200.717C187.699 200.717 189.038 201.326 189.89 202.299C187.456 204.247 185.508 206.924 184.17 209.845C181.979 214.835 180.884 220.555 180.64 225.91C180.64 226.762 180.64 227.614 180.762 228.466C179.91 229.683 178.936 230.778 177.476 231.508C175.164 232.725 172.729 231.874 171.391 229.805C169.809 227.371 170.052 224.328 170.782 221.65C171.634 218.608 172.851 215.565 174.19 212.644C175.407 209.967 176.746 207.289 178.571 204.977C180.397 202.786 183.074 200.717 186.239 200.717ZM177.354 201.082C175.407 203.03 173.947 205.464 172.608 207.898C170.539 211.792 168.713 215.809 167.496 220.068C166.401 223.719 166.036 227.614 167.74 231.022C165.792 231.387 163.845 230.048 162.75 228.466C161.168 226.153 160.437 223.111 160.072 220.312C159.22 214.592 160.316 208.263 164.454 204.003C167.74 200.474 173.095 199.013 177.354 201.082ZM156.908 201.569C158.368 200.352 160.681 199.987 162.506 200.717C157.516 205.342 155.569 212.401 156.178 219.216C156.178 219.825 156.299 220.555 156.421 221.163C155.934 221.529 155.569 221.65 155.204 221.407C154.23 220.555 154.109 218.364 153.865 217.147C153.5 214.957 153.135 212.887 153.135 210.697C153.257 207.411 154.23 203.638 156.908 201.569ZM165.062 438.406C154.839 439.623 144.616 440.232 134.392 440.597C134.392 440.232 134.149 439.745 134.027 439.38C133.054 436.824 132.08 434.268 131.107 431.713C129.403 427.209 127.82 422.585 126.238 417.96C124.778 413.457 123.317 408.832 122.1 404.329C121.37 401.773 120.762 399.339 120.153 396.783C119.788 395.079 119.179 393.376 118.936 391.672C126.847 387.777 134.879 384.004 143.034 380.475L172.608 437.554C170.174 437.676 167.618 438.041 165.062 438.406ZM228.592 425.141L238.328 405.789C239.667 403.112 242.101 401.286 244.9 400.556C246.482 400.191 248.186 400.191 249.769 400.678C250.742 406.033 251.716 411.388 252.933 416.743C245.022 419.785 236.868 422.585 228.592 425.141ZM355.286 483.072C337.639 495.607 317.436 504.127 296.138 508.021C284.211 490.009 274.353 470.536 266.929 450.333C261.209 434.877 256.949 418.933 253.907 402.747L354.191 479.908C354.678 481.003 354.921 482.098 355.286 483.072ZM474.557 464.451C474.8 467.128 473.827 469.806 472.001 471.753L427.822 520.435C424.415 524.208 418.573 524.695 414.435 521.652L255.367 399.339C252.933 397.513 250.134 396.54 247.091 396.54C246.117 396.54 245.022 396.661 244.048 396.905C240.154 397.757 236.746 400.434 234.921 404.086L206.563 460.922C204.86 464.329 201.574 466.398 197.801 466.398C197.801 466.398 197.801 466.398 197.679 466.398C193.906 466.398 190.62 464.451 188.916 461.043L55.4063 203.395C53.5807 199.987 53.9457 195.849 56.3798 192.806C58.8139 189.764 62.5869 188.303 66.3597 189.277L149.606 208.506C149.362 211.062 149.484 213.496 149.849 216.052C150.214 218.364 150.458 220.798 151.553 222.867C152.648 224.693 154.595 225.91 156.786 225.301C156.908 225.301 157.03 225.18 157.151 225.18C158.612 230.413 161.776 235.525 167.74 234.916C168.592 234.794 169.322 234.551 170.052 234.308C171.634 235.646 173.581 236.377 175.65 236.133C177.963 235.89 180.153 234.794 181.736 233.091C182.709 234.916 184.17 236.255 186.482 236.62C191.715 237.594 196.462 233.212 199.504 229.561C200.356 228.587 201.087 227.492 201.817 226.397C202.425 225.302 202.912 224.206 203.642 223.232C205.225 221.163 208.389 224.084 210.093 224.815C214.839 227.005 220.316 227.614 225.428 226.518C225.793 226.397 226.28 226.275 226.645 226.154L358.207 256.458C362.102 257.31 365.023 260.352 365.753 264.369C366.483 268.385 364.779 272.158 361.493 274.348L314.637 305.383C310.986 307.817 308.795 311.59 308.552 315.971C308.309 320.353 310.134 324.369 313.42 327.168L470.784 457.757C473.096 459.339 474.435 461.773 474.557 464.451ZM317.071 324.978C320.722 324.978 324.373 324.856 327.903 324.856C336.666 324.856 345.55 324.978 354.313 325.343C354.921 327.168 356.138 328.75 357.599 329.967C355.286 332.158 354.191 335.566 354.921 338.73C355.773 342.138 358.694 344.572 361.98 345.302C361.858 346.154 361.98 347.128 362.345 347.98C363.197 350.17 365.023 351.387 367.092 352.239C369.648 353.213 372.325 353.943 374.881 354.552C377.558 355.282 380.358 355.891 383.035 356.377C386.321 356.864 389.851 357.107 393.38 356.742C391.676 367.452 394.475 379.015 401.291 387.412C401.534 387.656 401.656 387.899 401.899 388.142C399.952 388.994 398.005 389.725 395.936 390.455L317.071 324.978ZM364.658 315.485C365.875 315.606 366.727 314.268 366.362 313.172C365.753 310.738 366.97 307.939 369.282 306.843C370.621 306.113 372.203 306.235 373.542 306.722C373.664 307.087 373.907 307.452 374.029 307.817C374.516 308.669 375.368 308.791 376.098 308.547C376.463 308.913 376.95 309.034 377.315 309.034C378.654 309.764 379.992 310.495 381.453 311.225C381.94 311.468 382.305 311.59 382.913 311.468C383.279 311.347 383.765 310.982 384.009 310.616C384.374 309.764 384.252 308.547 383.4 308.06C381.331 307.087 379.506 306.113 377.558 304.896C377.315 304.653 377.072 304.531 376.706 304.409C376.706 302.219 379.019 300.15 381.209 299.906C385.347 299.298 389.729 301.975 393.015 304.166C399.83 308.547 405.915 314.754 409.445 322.178C412.731 328.994 413.34 337.391 409.567 344.085C405.672 350.901 397.761 353.7 390.337 353.7C385.104 353.7 379.992 352.483 375.003 351.144C372.812 350.536 370.378 350.049 368.187 349.075C366.97 348.588 364.414 346.763 365.875 345.18C366.848 344.085 366.24 341.895 364.536 342.016C361.859 342.26 359.059 340.677 358.329 337.878C357.72 335.322 359.303 332.767 361.615 331.671C363.197 330.941 362.467 328.872 361.128 328.385C358.329 327.168 356.625 323.76 357.234 320.839C358.207 317.31 361.493 315.241 364.658 315.485ZM507.417 382.057C507.174 387.655 506.078 393.254 502.792 397.879C496.22 407.128 483.928 412.483 472.853 413.457C467.011 413.944 461.048 413.213 455.693 410.658C453.137 409.44 450.825 407.98 448.756 406.033C446.687 404.085 445.104 401.773 443.157 399.826C441.088 397.757 438.776 396.296 435.855 395.688C433.056 395.079 430.135 395.201 427.336 395.201C421.615 395.323 416.382 394.227 411.392 391.428C401.778 385.83 396.666 374.876 396.423 364.166C396.301 361.611 396.544 358.933 397.031 356.377C401.899 355.404 406.402 353.335 409.932 349.44C414.8 344.085 416.504 336.904 415.652 329.967C426.119 325.951 438.167 326.195 448.634 330.211C449.121 332.037 449.607 333.74 449.973 335.566C450.946 339.217 452.042 343.233 454.841 345.911C457.275 348.101 460.804 348.832 463.847 347.614C467.011 346.276 468.593 342.99 467.255 339.826C465.794 336.174 461.9 333.619 458.735 331.55C456.423 330.089 453.989 328.75 451.555 327.655C449.608 319.988 447.66 312.32 445.591 304.653C444.983 302.341 441.453 303.314 442.062 305.626C443.766 312.442 445.591 319.257 447.295 326.073C443.887 324.977 440.236 324.126 436.707 323.761C429.283 322.909 421.737 323.882 414.8 326.438C414.557 325.221 414.191 324.126 413.705 322.909C410.053 313.537 402.629 305.748 394.11 300.393C389.607 297.594 383.522 294.43 378.167 296.742C375.611 297.838 373.664 300.272 373.177 302.827C371.23 302.462 369.161 302.706 367.335 303.679C364.293 305.261 362.589 308.547 362.589 311.833C358.329 312.442 354.556 315.606 353.704 319.988C353.583 320.596 353.583 321.083 353.583 321.692C347.376 321.448 341.29 321.326 335.083 321.326C327.903 321.326 320.844 321.326 313.663 321.57C312.69 319.988 312.325 318.04 312.325 316.093C312.446 312.929 314.15 310.13 316.706 308.426L363.562 277.391C368.187 274.348 370.378 269.115 369.404 263.638C368.431 258.283 364.536 254.145 359.181 252.807L232.121 223.476C234.069 222.015 235.407 219.946 234.921 217.147C233.704 210.697 226.036 210.088 220.925 209.115C217.639 208.506 214.596 207.898 211.797 206.437C224.941 200.352 240.762 199.378 254.88 200.839C268.389 202.178 281.655 205.098 294.921 207.654C308.187 210.21 321.574 212.766 334.84 215.2C349.81 217.999 359.911 219.703 374.881 222.502C375.003 222.502 375.003 222.502 375.124 222.502C374.881 222.989 374.759 223.476 374.516 223.963C373.907 225.302 375.124 226.154 376.341 226.154C380.479 235.646 391.189 238.08 400.561 239.176C412.609 240.758 424.78 241.245 436.828 240.88C438.045 240.88 438.654 239.906 438.532 238.932C439.141 239.663 440.358 239.906 441.088 239.297C452.285 248.547 462.387 259.135 471.149 270.819C483.928 288.101 493.786 307.574 499.872 328.142C503.401 339.947 505.957 352.239 506.809 364.532C507.295 370.495 507.661 376.337 507.417 382.057ZM453.015 332.158C456.91 334.227 467.498 340.434 463.603 343.72C461.656 345.302 458.735 344.572 457.275 342.868C454.963 340.434 454.354 336.905 453.502 333.74C453.259 333.132 453.137 332.645 453.015 332.158ZM439.141 182.705C443.522 180.757 448.39 180.879 452.65 183.07C453.502 183.557 453.745 184.774 453.259 185.626C452.772 186.478 451.555 186.721 450.703 186.234C449.242 185.504 447.417 185.017 445.835 185.017C445.348 185.017 444.861 185.017 444.374 185.017C444.253 185.017 444.009 185.017 443.887 185.017L443.401 185.139C442.914 185.261 442.549 185.382 442.062 185.504C441.818 185.626 441.575 185.626 441.332 185.747C441.21 185.747 441.088 185.869 440.966 185.869C441.088 185.747 441.088 185.869 440.845 185.869C439.871 186.234 438.898 186.113 438.289 185.261C438.046 184.409 438.289 183.07 439.141 182.705ZM436.585 153.617C436.098 152.765 436.463 151.67 437.194 151.062C437.559 150.818 438.167 150.696 438.654 150.818C439.141 150.94 439.506 151.305 439.749 151.67C440.723 153.374 441.332 155.199 441.453 157.147C441.453 157.634 441.21 158.121 440.966 158.486C440.601 158.851 440.115 158.972 439.628 158.972C439.141 158.972 438.654 158.729 438.289 158.486C437.924 158.121 437.802 157.634 437.802 157.147C437.802 157.025 437.802 156.904 437.802 156.782C437.68 156.052 437.437 155.321 437.194 154.591C436.95 154.348 436.829 153.983 436.585 153.617ZM427.701 146.68C427.457 146.315 427.457 145.707 427.457 145.22C427.579 144.733 427.944 144.368 428.309 144.124C428.674 143.881 429.283 143.881 429.77 143.881C430.743 144.124 431.717 144.368 432.569 144.733C433.177 144.976 433.786 145.22 434.273 145.463C434.638 145.585 435.003 145.95 435.246 146.315C435.49 146.68 435.49 147.167 435.49 147.532C435.49 148.019 435.246 148.262 435.003 148.627C434.759 148.993 434.151 149.114 433.664 149.114C433.177 149.114 432.691 148.871 432.325 148.627C432.204 148.506 432.204 148.506 432.082 148.384C430.987 147.897 429.77 147.532 428.674 147.289C428.309 147.411 427.944 147.045 427.701 146.68ZM415.774 160.433C415.774 160.555 415.774 160.798 415.774 160.433V160.433ZM415.165 159.581C414.922 159.337 415.165 159.459 415.165 159.581V159.581ZM414.313 158.729C414.07 158.486 414.191 158.607 414.313 158.729V158.729ZM410.419 157.634C410.784 157.634 411.149 157.512 411.514 157.634C411.514 157.634 411.636 157.634 411.757 157.634C411.757 157.634 411.757 157.634 411.879 157.634C412.001 157.634 412.001 157.634 412.123 157.634C412.488 157.755 412.853 157.877 413.096 157.999C413.096 157.999 413.218 157.999 413.218 158.12C413.34 158.242 413.583 158.242 413.705 158.364C413.826 158.485 413.948 158.486 414.07 158.607C414.191 158.607 414.191 158.729 414.313 158.729C414.557 158.972 414.8 159.216 415.043 159.459C415.043 159.581 415.165 159.581 415.165 159.703C415.287 159.824 415.287 159.946 415.408 160.068C415.53 160.19 415.53 160.311 415.652 160.555C415.652 160.555 415.652 160.555 415.652 160.433C415.652 160.555 415.774 160.676 415.774 160.676C416.139 161.528 416.991 162.259 417.964 161.893C418.816 161.65 419.546 160.555 419.181 159.703C418.451 157.877 417.234 156.295 415.53 155.2C413.948 154.226 412.001 153.739 410.297 153.983C409.81 154.104 409.323 154.104 408.958 154.469C408.593 154.834 408.35 155.321 408.471 155.808C408.471 156.295 408.593 156.782 408.958 157.147C409.445 157.39 409.932 157.634 410.419 157.634ZM427.944 166.762C427.944 166.883 427.944 166.883 427.944 166.762C427.822 166.64 427.822 166.64 427.944 166.762C427.944 166.762 427.822 166.762 427.944 166.762ZM423.319 163.962C423.319 162.989 424.171 162.137 425.145 162.137C429.404 162.015 433.177 165.666 433.299 169.804C433.299 170.778 432.447 171.63 431.474 171.63C430.5 171.63 429.648 170.778 429.648 169.804C429.648 169.682 429.648 169.561 429.648 169.561C429.648 169.317 429.526 169.074 429.526 168.831C429.526 168.709 429.526 168.709 429.404 168.587C429.404 168.465 429.283 168.466 429.283 168.344C429.161 168.1 429.039 167.857 428.796 167.613L428.674 167.492C428.553 167.37 428.431 167.248 428.309 167.127C428.187 167.005 428.066 166.883 427.944 166.762L427.822 166.64C427.822 166.64 427.822 166.64 427.944 166.64C427.701 166.518 427.457 166.275 427.214 166.153C427.092 166.031 426.484 165.91 427.092 166.153C426.97 166.153 426.849 166.031 426.727 166.031C426.484 165.91 426.24 165.91 425.997 165.91C425.753 165.91 425.51 165.91 425.267 165.91C424.049 165.788 423.319 164.936 423.319 163.962ZM419.546 189.52C419.668 189.399 419.79 189.277 419.912 189.034C420.398 188.303 421.007 187.573 421.372 186.843C421.859 185.991 422.954 185.748 423.928 186.234C424.78 186.721 425.023 187.938 424.536 188.79C424.049 189.642 423.563 190.372 423.076 191.103C422.467 191.954 421.737 192.928 420.885 193.537C419.668 194.389 418.086 194.145 417.112 193.05C416.26 192.076 416.017 190.859 416.017 189.642C416.017 188.668 416.869 187.817 417.843 187.817C418.694 187.573 419.546 188.547 419.546 189.52ZM422.346 246.356C420.033 250.373 416.017 252.928 411.514 253.415C407.498 253.78 403.36 252.198 400.561 249.277C399.344 248.06 398.37 245.991 396.788 245.261C395.084 244.531 393.38 246.356 392.041 247.208C384.861 251.711 375.003 247.208 373.786 238.811C373.42 236.498 376.95 235.525 377.315 237.837C378.045 242.34 381.696 245.748 386.443 245.383C390.703 245.017 393.867 239.906 398.37 241.975C400.195 242.827 401.412 244.531 402.629 245.991C404.09 247.695 405.916 248.912 408.106 249.399C412.609 250.494 417.112 248.304 419.303 244.409C420.398 242.462 423.563 244.287 422.346 246.356Z" fill="black"/>
<path d="M416.747 594.677C408.228 589.078 399.587 583.48 391.067 577.882C389.12 576.543 390.946 573.5 392.893 574.717C401.412 580.316 410.053 585.914 418.573 591.512C420.52 592.851 418.694 596.015 416.747 594.677ZM380.844 569.24C386.564 571.066 392.65 571.796 398.613 571.431C400.926 571.309 400.926 567.658 398.613 567.78C391.554 568.145 384.495 566.928 377.923 564.372C376.706 563.885 375.124 565.346 375.733 566.563C378.897 574.23 383.157 581.289 388.39 587.618C388.998 588.348 390.337 588.226 390.946 587.618C391.676 586.888 391.554 585.792 390.946 585.062C386.929 580.316 383.522 574.961 380.844 569.24ZM314.515 167.493C308.187 163.72 301.858 160.069 295.529 156.297C293.46 155.08 291.635 158.244 293.704 159.461C300.032 163.234 306.361 166.885 312.69 170.658C314.759 171.875 316.584 168.71 314.515 167.493ZM282.02 149.846C290.296 151.185 298.572 151.55 306.848 150.698C309.16 150.455 309.16 146.804 306.848 147.047C297.598 148.021 288.105 147.534 278.977 145.708C277.395 145.343 276.178 146.925 276.909 148.386C281.533 156.783 286.158 165.059 290.661 173.457C291.756 175.526 294.921 173.7 293.825 171.631C289.931 164.329 286.036 157.148 282.02 149.846ZM529.689 79.9878C543.685 89.9676 557.803 99.8257 571.799 109.805C573.746 111.144 575.572 107.98 573.624 106.641C559.628 96.6612 545.511 86.8032 531.515 76.8234C529.567 75.4846 527.742 78.6491 529.689 79.9878ZM514.354 65.7484C513.624 63.5578 510.095 64.4097 510.825 66.7221C514.354 78.1624 520.074 88.7505 527.62 97.8783C529.081 99.7039 531.636 97.1483 530.176 95.3227C522.995 86.6817 517.64 76.5801 514.354 65.7484ZM534.314 67.9392C534.314 66.8438 533.462 66.2353 532.488 66.1136C524.456 65.2617 516.667 62.4622 509.973 57.9592C508.026 56.6204 506.2 59.7848 508.147 61.1236C515.45 65.9918 523.847 68.7911 532.488 69.7647C533.462 69.8865 534.314 68.9128 534.314 67.9392ZM583.726 285.912C575.937 280.922 568.148 275.811 560.237 270.821C558.29 269.604 556.464 272.646 558.411 273.985C566.2 278.975 573.99 284.087 581.9 289.076C583.848 290.415 585.673 287.251 583.726 285.912ZM540.277 264.37C549.892 266.804 559.507 269.117 569.121 271.551C571.434 272.159 572.407 268.63 570.095 268.021C558.898 265.222 547.701 262.423 536.504 259.624C535.044 259.259 533.462 260.963 534.436 262.301C539.912 270.456 545.389 278.488 550.987 286.642C552.326 288.59 555.49 286.764 554.152 284.817C549.527 278.001 544.902 271.186 540.277 264.37ZM68.5502 107.371C56.7448 99.0954 44.9395 90.9412 33.1342 82.6653C31.1869 81.3265 29.3613 84.491 31.3086 85.8297C43.114 94.1056 54.9193 102.26 66.7246 110.536C68.5502 111.875 70.3758 108.71 68.5502 107.371ZM21.3289 77.3104C31.4304 80.2313 41.6536 83.274 51.755 86.1949C54.0674 86.8034 54.9193 83.2738 52.7286 82.6653C41.2884 79.2575 29.7265 75.9714 18.2863 72.5637C16.7041 72.0769 15.487 73.9027 16.2172 75.2415C21.3288 85.3429 26.4404 95.3225 31.552 105.424C32.6473 107.493 35.8117 105.667 34.7164 103.598C30.2133 94.8357 25.832 86.0731 21.3289 77.3104ZM277.517 22.0563C284.819 26.5594 292 30.9407 299.302 35.4438C301.249 36.6609 303.197 33.4967 301.128 32.2797C293.825 27.7766 286.645 23.3952 279.343 18.8922C277.274 17.6751 275.448 20.8392 277.517 22.0563ZM258.653 11.2247C265.955 14.389 273.866 15.8496 281.777 15.6062C284.089 15.4845 284.089 11.8333 281.777 11.955C272.284 12.3202 263.034 10.0078 254.88 5.2613C253.298 4.28766 251.472 6.23475 252.324 7.81691C257.314 16.2145 262.182 24.6121 267.172 33.0097C268.389 35.0787 271.554 33.2531 270.336 31.1841C266.442 24.3687 262.547 17.7968 258.653 11.2247Z" fill="black"/>
</svg>
