<svg width="600" height="601" viewBox="0 0 600 601" fill="none" xmlns="http://www.w3.org/2000/svg">
<g clip-path="url(#clip0_21131_9927)">
<path d="M208.064 448.684C289.297 448.684 355.148 386.677 355.148 310.188C355.148 233.7 289.297 171.693 208.064 171.693C126.832 171.693 60.9805 233.7 60.9805 310.188C60.9805 386.677 126.832 448.684 208.064 448.684Z" fill="#F4F6F9"/>
<path d="M467.022 308.578L461.01 303.425L453.924 297.412L423.541 271.753L420.427 275.403C419.246 276.155 418.388 277.229 418.066 278.732L411.516 304.606C410.98 306.538 411.516 308.685 412.805 310.51L404.646 320.065C405.182 318.562 405.504 317.059 405.612 315.449C405.826 313.087 405.29 310.296 403.25 309.115C401.425 308.041 399.063 308.578 397.237 309.652C395.412 310.832 394.017 312.443 392.406 313.731C386.072 318.885 377.161 318.884 369.109 319.958C337.545 324.253 307.914 342.182 295.245 372.35L294.923 372.457C290.092 374.605 286.119 378.577 284.08 383.516L283.65 383.086C274.417 382.227 266.258 388.561 259.709 395.11C241.779 413.254 228.359 435.8 221.166 460.278L222.025 455.018C201.197 405.524 171.458 358.501 135.17 320.388L134.634 324.038C136.137 306.216 140.753 245.343 140.753 245.343C153.637 242.122 179.832 235.251 179.832 235.251C164.587 216.355 147.946 194.561 130.876 173.196C125.186 166.11 117.671 159.776 108.867 157.414L80.7387 156.985L69.4659 202.72C62.5948 199.392 53.6838 200.681 48.2084 206.049C41.9815 212.275 41.23 223.226 46.598 230.205C49.9262 234.606 55.509 237.076 60.9844 237.29L60.877 237.72C51.644 259.836 43.1625 277.98 33.7148 297.09C33.7148 297.09 25.7702 312.121 17.2887 317.704C13.6384 320.173 13.1015 359.896 13.8531 404.021C11.7058 404.558 9.66607 405.095 7.62622 405.739C4.51277 406.705 1.07718 408.531 0.862455 411.751C0.755095 414.113 2.79497 416.153 5.04954 416.905C7.30411 417.656 9.77338 417.334 12.1353 417.119C12.7795 417.012 13.4237 417.012 14.0679 416.905C14.0679 417.442 14.0679 417.978 14.0679 418.515C12.6722 418.837 11.2765 419.052 9.88077 419.374C6.76731 420.125 3.11708 421.736 2.795 424.957C2.58028 427.319 4.40538 429.466 6.65995 430.325C8.91452 431.184 11.3838 431.076 13.7457 430.969C13.9604 430.969 14.1751 430.969 14.3899 430.969C14.3899 431.184 14.3899 431.291 14.3899 431.506C13.6383 431.613 12.7795 431.613 12.028 431.72C8.80716 432.042 5.04946 433.223 4.29794 436.337C3.76114 438.699 5.37157 441.061 7.41142 442.242C9.45127 443.423 11.9206 443.637 14.2825 443.745C14.3899 443.745 14.6046 443.745 14.712 443.745C14.712 444.818 14.8193 445.892 14.8193 446.858C13.4236 447.18 12.0279 447.395 10.6322 447.717C7.51878 448.469 3.86855 450.079 3.54647 453.3C3.33175 455.662 5.15685 457.809 7.41142 458.775C9.66599 459.634 12.1353 459.527 14.4972 459.419C14.7119 459.419 14.9267 459.419 15.2488 459.419C16.3224 495.922 17.6107 525.232 17.6107 525.232C17.6107 525.232 68.1775 460.386 129.266 510.201C193.682 562.808 258.098 490.876 299.969 512.348C341.84 533.82 343.665 564.955 343.665 564.955C350.214 549.71 350.321 531.888 344.094 516.643C340.658 508.269 335.291 500.324 335.076 491.305C334.754 482.931 338.833 475.201 341.088 467.149C346.134 449.328 341.947 429.036 330.137 414.65L330.352 414.113C335.29 407.242 337.974 398.761 337.867 390.279L339.477 390.709C343.987 389.957 348.496 388.239 352.79 387.058C353.542 386.844 354.186 386.629 354.723 386.522C354.938 386.736 355.152 387.059 355.474 387.273L364.278 394.681C366.747 396.721 370.397 396.506 372.545 394.037L377.269 388.454C380.275 388.132 383.281 387.381 386.072 386.414C387.146 386.092 388.219 385.663 389.185 385.126C389.615 385.341 390.044 385.448 390.474 385.663C394.661 387.381 396.915 385.985 398.096 384.052L398.311 383.623C399.492 380.724 398.419 377.289 396.271 374.927C395.949 374.605 395.627 374.283 395.198 373.96C395.198 373.853 395.305 373.746 395.305 373.638C398.311 374.927 401.424 376.215 404.967 377.718C409.154 379.436 411.409 378.04 412.59 376.108L412.805 375.678C413.986 372.779 412.912 369.344 410.765 366.982C408.618 364.62 405.719 363.332 402.82 362.151C402.176 361.936 401.425 361.614 400.78 361.399C400.888 361.292 400.888 361.185 400.995 361.077C404.109 361.936 407.115 362.795 410.765 363.761C415.167 364.942 417.207 363.224 418.173 361.077L418.28 360.648C419.139 357.642 417.529 354.314 415.059 352.381C414.952 352.274 414.845 352.166 414.737 352.059C417.636 352.488 420.964 354.421 423.755 355.387C426.869 356.461 430.09 357.427 433.203 358.286C434.814 358.715 436.531 359.145 438.249 359.037C439.967 358.93 441.685 358.071 442.544 356.675C443.51 354.958 443.08 352.703 442.007 351.093C440.826 349.482 439.108 348.409 437.39 347.442C431.271 344.007 424.507 341.86 417.636 340.249L430.412 325.111C431.915 325.541 433.525 325.541 435.028 325.004L460.043 314.805C460.795 314.483 461.439 314.053 461.976 313.516L462.191 313.731L467.022 308.578Z" fill="white"/>
<path d="M107.147 228.165C107.147 231.386 105 233.962 102.316 233.962C99.6316 233.962 97.4844 231.386 97.4844 228.165C97.4844 224.944 102.638 212.49 102.638 212.49C102.638 212.49 107.147 225.051 107.147 228.165Z" fill="#9ED5F0"/>
<path d="M565.149 150.758C531.223 122.093 487.313 118.335 467.022 142.384C464.23 145.712 461.976 149.362 460.365 153.335L459.828 152.798L424.399 271.968L468.417 308.471L580.072 254.79L579.858 254.576C583.615 252.321 586.943 249.422 589.842 245.987C610.133 222.153 599.075 179.423 565.149 150.758Z" fill="#FFE945"/>
<path d="M519.201 177.599C508.465 191.019 507.391 202.184 516.087 209.27C518.986 211.632 522.207 212.813 525.535 212.813C528.004 212.813 530.688 212.169 533.265 210.881C538.848 208.197 543.572 203.151 546.685 199.286C551.087 193.81 553.879 188.55 554.952 183.933C556.455 177.491 554.523 172.016 549.584 167.936C544.646 163.964 538.848 163.32 532.728 166.004C527.146 168.688 522.314 173.841 519.201 177.599ZM546.9 182.967C545.934 186.188 543.679 190.16 540.351 194.24C536.701 198.856 533.265 201.97 530.259 203.687C526.716 205.62 523.71 205.62 521.026 203.365C518.449 201.325 517.805 198.319 518.986 194.454C519.953 191.126 522.314 187.154 525.643 182.967C529.4 178.243 532.728 175.237 535.734 173.626C537.345 172.768 538.741 172.338 540.136 172.338C541.854 172.338 543.357 172.982 544.86 174.163C546.578 175.452 548.51 177.706 546.9 182.967ZM549.047 262.414C549.047 263.272 548.296 263.917 547.437 263.917H547.329C527.897 262.736 507.713 254.039 490.428 239.438C471.426 223.334 458.757 202.292 455.751 181.679C455.643 180.82 456.18 179.961 457.147 179.853C458.005 179.746 458.864 180.283 458.972 181.249C461.87 201.111 474.11 221.402 492.576 236.969C509.324 251.141 528.863 259.515 547.544 260.696C548.403 260.696 549.047 261.555 549.047 262.414ZM490.428 187.583L496.655 192.522L504.922 182.215L509.324 185.758L515.014 180.39L509.753 176.203L528.971 152.369L526.394 150.222L527.575 148.826L525.643 149.578L523.603 147.967L485.06 157.952L481.088 162.89L498.803 177.169L490.428 187.583ZM499.232 162.246C504.493 160.85 509.861 159.455 514.048 158.274C512.867 159.67 511.901 160.958 511.149 161.817L503.526 171.264L494.079 163.642C495.689 163.212 497.407 162.783 499.232 162.246ZM589.307 201.111L586.731 198.964L587.912 197.568L585.979 198.319L583.939 196.709L545.397 206.693L541.425 211.632L559.139 225.911L550.872 236.218L557.099 241.156L565.366 230.85L569.768 234.393L575.458 229.024L570.197 224.837L589.307 201.111ZM554.523 212.276C556.133 211.847 557.851 211.417 559.568 210.881C564.614 209.485 570.197 208.089 574.492 206.908C573.311 208.304 572.345 209.592 571.593 210.451L563.97 219.899L554.523 212.276Z" fill="white"/>
<path d="M63.6665 435.907C63.9886 437.947 60.8751 438.806 60.553 436.766C59.3721 429.359 61.1972 422.165 63.6665 415.08C65.9211 408.745 68.605 402.518 69.786 395.969C71.1817 388.347 69.4639 380.939 68.1756 373.424C67.102 367.089 66.5653 360.648 68.2831 354.313C69.7861 348.945 72.8995 343.9 78.0528 341.323C79.878 340.357 81.4884 343.148 79.6633 344.114C74.0805 346.906 71.5038 352.918 70.6449 358.823C69.7861 365.479 71.1817 372.028 72.2553 378.47C73.4363 385.448 73.8658 392.319 72.2553 399.298C69.5713 411.322 61.6267 423.132 63.6665 435.907ZM3.22247 321.998C3.86663 294.084 4.40351 266.171 5.04767 238.257C5.26239 230.419 5.36975 222.475 5.58448 214.637C5.58448 212.598 2.36366 212.598 2.36366 214.637C1.7195 242.551 1.18261 270.465 0.538451 298.379C0.32373 306.216 0.21637 314.161 0.00164855 321.998C-0.105712 324.145 3.1151 324.145 3.22247 321.998ZM78.2675 423.776C78.697 426.138 77.9454 428.714 76.1203 430.325C75.0467 431.184 73.8657 431.72 72.47 431.613C71.0743 431.506 69.786 430.969 68.7124 430.003C67.2094 428.714 66.3505 426.674 66.5652 424.742H66.4579C65.7063 424.313 65.4916 423.239 65.9211 422.487C67.2094 420.018 70.2154 418.73 73.0068 419.052C75.4761 419.374 77.7307 421.092 78.2675 423.776ZM69.8935 426.352C69.8935 426.352 69.7861 426.138 69.8935 426.352V426.352ZM75.154 425.279C75.154 425.064 75.154 424.957 75.154 424.742C75.154 424.742 75.154 424.742 75.154 424.635V424.527C75.154 424.42 75.154 424.42 75.154 424.313C75.154 424.098 75.0467 423.991 74.9394 423.776C74.9394 423.668 74.832 423.561 74.832 423.561C74.832 423.454 74.7246 423.346 74.6172 423.346C74.5099 423.132 74.2953 423.024 74.1879 422.917C74.0805 422.81 73.9731 422.81 73.9731 422.81C73.8657 422.702 73.7584 422.702 73.6511 422.595C73.4364 422.487 73.2215 422.487 73.0068 422.38C72.8995 422.38 72.7922 422.38 72.6848 422.273C72.4701 422.273 72.2554 422.273 72.0407 422.273C71.9333 422.273 71.8259 422.273 71.6112 422.273C71.5039 422.38 71.1818 422.38 70.9671 422.38C70.7524 422.487 70.5375 422.487 70.3228 422.595C70.2154 422.595 70.1081 422.702 70.1081 422.702L70.0008 422.81C70.3229 423.346 70.3229 423.991 70.0008 424.42C70.0008 424.42 70.0008 424.527 69.8935 424.527C69.8935 424.635 69.786 424.849 69.786 424.849V424.957C69.786 424.957 69.786 425.171 69.786 425.279C69.786 425.386 69.786 425.494 69.786 425.601C69.786 425.601 70.0008 426.245 70.0008 426.352C70.0008 426.352 70.0008 426.46 70.1081 426.46C70.2155 426.567 70.2154 426.674 70.3228 426.782C70.4302 426.889 70.4302 426.997 70.5376 427.104C70.5376 427.104 70.5376 427.104 70.6449 427.211C70.8597 427.426 70.967 427.641 71.1817 427.748C71.1817 427.748 71.1817 427.748 71.2891 427.748C71.3964 427.855 71.5039 427.855 71.6112 427.963C71.7186 428.07 71.8259 428.07 71.9332 428.178C72.1479 428.178 72.3628 428.285 72.5775 428.392C72.6848 428.392 72.7921 428.392 72.8995 428.392C73.0068 428.392 73.1143 428.392 73.1143 428.392C73.2216 428.392 73.3289 428.285 73.4363 428.285C73.651 428.178 73.7584 428.07 73.9731 427.963C74.0805 427.855 74.0805 427.855 74.1879 427.748C74.2953 427.641 74.4025 427.533 74.5099 427.319C74.5099 427.319 74.5099 427.319 74.5099 427.211C74.6173 427.104 74.6173 426.997 74.7247 426.889C74.8321 426.782 74.832 426.567 74.9394 426.46V426.352C74.9394 426.245 75.0467 426.138 75.0467 426.03C75.1541 425.816 75.154 425.601 75.154 425.386C75.154 425.494 75.154 425.386 75.154 425.279ZM44.2343 441.49C44.2343 441.598 44.2343 441.812 44.1269 441.92C44.1269 442.027 44.1268 442.242 44.0195 442.349C43.4827 444.496 41.9797 446.107 40.0472 446.858C42.1944 448.576 43.5901 450.938 43.8048 453.729C43.8048 453.944 43.8048 454.159 43.6975 454.374C43.6975 454.481 43.6975 454.588 43.6975 454.588C43.3754 457.165 41.5502 459.097 39.0809 459.956C37.3631 460.493 35.538 460.493 33.8202 460.493C31.7804 460.6 29.7406 460.6 27.7007 460.708C24.802 460.815 21.9033 460.922 19.0045 461.03C19.6487 487.118 20.6149 513.207 22.0106 539.188C22.1179 541.228 18.8971 541.228 18.7897 539.188C17.7161 519.434 16.9647 499.572 16.3205 479.818C16.1058 473.591 15.9984 467.364 15.7837 461.137C12.7776 461.245 9.6641 461.352 6.98008 459.956C4.40343 458.561 2.47097 455.662 3.11513 452.656C3.65193 450.079 5.90658 448.361 8.16116 447.395C10.4157 446.429 12.885 445.892 15.2469 445.463C12.4556 445.248 9.55682 445.033 7.19488 443.53C4.72559 441.92 2.90041 439.021 3.65193 436.015C4.08138 434.19 5.36968 432.794 6.98008 431.935C6.658 431.828 6.44336 431.72 6.12128 431.613C3.54463 430.217 1.61216 427.319 2.25633 424.313C2.79313 421.736 5.04765 420.018 7.30222 419.052H7.40955C6.55067 418.945 5.58442 418.73 4.72554 418.3C2.04153 417.119 -0.105607 414.543 0.109114 411.537C0.323835 408.745 2.47094 406.813 4.83287 405.632C7.83897 404.129 11.3819 403.27 14.7101 402.518C14.7101 393.071 14.7101 383.516 14.8175 374.068C15.1395 338.746 16.1057 303.532 17.7161 268.21C17.8235 266.171 21.0443 266.171 20.937 268.21C19.9707 287.965 19.3265 307.826 18.7897 327.581C18.2529 349.053 17.9309 370.525 17.9309 391.89C23.8358 394.574 29.4185 398.009 34.6792 401.767C35.1086 401.982 35.6455 402.196 36.0749 402.518C38.6516 404.129 40.3692 406.598 40.6913 409.604V409.711C40.6913 409.819 40.6913 409.926 40.6913 410.034C40.4766 412.718 39.1883 414.865 36.719 415.938C36.2896 416.153 35.7527 416.261 35.3233 416.368C36.3969 416.69 37.3632 417.119 38.2221 417.764C40.7988 419.481 42.5165 422.058 42.7312 425.171C42.7312 425.386 42.7312 425.601 42.6239 425.816C42.6239 425.923 42.6239 426.03 42.6239 426.03C42.3018 428.607 40.4766 430.539 38.0073 431.398C37.6852 431.506 37.3632 431.506 37.1485 431.613C38.2221 432.042 39.1883 432.687 40.1545 433.438C42.8385 435.585 44.3416 438.484 44.2343 441.49ZM18.2529 401.982C20.937 401.445 23.7284 401.015 26.5198 400.801C26.8419 400.801 27.2713 400.801 27.5934 400.693C24.5873 398.761 21.4738 397.043 18.2529 395.54C18.2529 397.687 18.2529 399.834 18.2529 401.982ZM10.4157 416.046C13.3144 415.938 16.2131 415.402 19.1119 415.187C21.7959 414.865 24.4799 414.65 27.1639 414.435C28.5596 414.328 30.0627 414.113 31.4583 414.006C32.854 413.899 34.2497 413.791 35.4306 413.362C36.8263 412.825 37.6853 411.859 37.7926 410.356C37.7926 410.248 37.7926 410.248 37.7926 410.141C37.7926 410.034 37.7926 410.034 37.7926 409.926C37.6853 408.745 37.0411 407.779 36.2896 406.92C35.9675 406.813 35.7528 406.705 35.5381 406.491C34.8939 405.954 34.2497 405.525 33.6056 404.988C33.3908 404.88 33.1761 404.773 32.9614 404.773C29.7406 403.699 26.1976 404.129 22.9768 404.666C19.9707 405.095 16.8573 405.739 13.9585 406.491C11.3819 407.135 8.69785 407.779 6.44328 409.067C4.83287 410.034 3.11518 411.537 3.97407 413.577C4.94031 415.724 8.05377 416.153 10.4157 416.046ZM12.2408 429.788C15.1395 429.788 18.0382 429.573 20.937 429.466C23.621 429.358 26.3051 429.251 29.0965 429.144C30.5995 429.144 32.1025 429.036 33.7129 429.036C35.0012 429.036 36.3969 429.036 37.5778 428.607C39.0809 428.07 39.7251 426.997 39.9399 425.601V425.494C39.7251 422.702 37.2558 420.555 34.7865 419.696C31.7804 418.622 28.4523 418.945 25.3388 419.159C22.2254 419.374 19.2192 419.803 16.1057 420.34C13.6364 420.77 10.9524 421.199 8.59049 422.38C6.98008 423.132 5.04762 424.635 5.79914 426.782C6.76539 429.251 9.87885 429.788 12.2408 429.788ZM35.4306 448.039C32.4245 446.966 29.0964 447.288 25.983 447.502C22.8695 447.717 19.7561 448.147 16.75 448.683C14.2807 449.113 11.5967 449.542 9.23476 450.616C7.62435 451.367 5.69176 452.87 6.44328 455.018C7.40953 457.594 10.523 458.131 12.8849 458.131C15.7837 458.131 18.6825 457.916 21.5812 457.809C24.2652 457.702 26.9492 457.594 29.7406 457.594C31.2436 457.594 32.7466 457.487 34.357 457.487C35.6454 457.487 37.0411 457.487 38.2221 457.058C39.7252 456.521 40.3693 455.447 40.584 454.051V453.944C40.3693 451.045 37.8999 448.898 35.4306 448.039ZM40.9061 441.49C41.3356 434.512 32.4245 433.438 27.3786 433.223C24.1578 433.009 21.0444 433.009 17.8236 433.223C15.247 433.331 12.4555 433.438 9.98623 434.297C8.1611 434.941 6.22856 436.337 6.98008 438.484C7.83897 441.061 10.7378 441.92 13.0997 442.242C18.5751 442.993 24.2652 443.208 29.7406 443.745C31.1363 443.852 32.6393 444.067 34.035 444.174C35.3233 444.282 36.719 444.496 38.0073 444.282C39.6177 443.96 40.584 442.993 40.9061 441.49ZM75.154 424.635C75.154 424.527 75.154 424.527 75.154 424.527C75.154 424.635 75.154 424.742 75.154 424.635C75.154 424.635 75.154 424.742 75.154 424.635ZM328.31 399.512C329.599 397.58 330.887 395.54 332.175 393.607C332.605 392.856 332.39 391.782 331.639 391.353C330.78 390.923 329.921 391.138 329.384 391.89C328.096 393.822 326.807 395.862 325.519 397.794C325.089 398.546 325.304 399.62 326.056 400.049C326.914 400.586 327.773 400.264 328.31 399.512ZM470.348 308.363L463.799 316.093L463.37 315.771C462.94 315.986 462.511 316.308 462.082 316.415L437.067 326.615C436.1 327.044 435.027 327.151 433.953 327.151C433.416 327.151 432.987 327.151 432.45 327.044L422.465 338.854C427.404 340.249 432.235 341.967 436.852 344.222C440.18 345.939 443.938 347.979 444.796 351.844C445.655 355.602 443.294 358.93 439.536 359.574C437.281 360.004 435.134 359.467 432.987 358.823C430.732 358.179 428.478 357.534 426.223 356.783C424.183 356.139 422.251 355.387 420.318 354.636C420.318 354.636 420.211 354.636 420.211 354.528C421.285 356.568 421.714 358.823 421.177 361.077C421.177 361.292 421.07 361.399 420.962 361.614C420.962 361.721 420.855 361.829 420.855 361.936C419.674 364.405 417.312 365.801 414.628 365.801C414.091 365.801 413.555 365.694 412.91 365.586C413.447 366.123 413.877 366.553 414.306 367.197C416.131 369.773 416.883 373.102 415.702 376.108C415.702 376.215 415.594 376.322 415.487 376.43C415.487 376.537 415.38 376.752 415.272 376.859C413.662 379.436 410.978 380.509 407.972 379.973C406.039 379.651 404.322 378.684 402.497 377.933C401.852 377.718 401.315 377.396 400.671 377.181C401.637 379.329 401.852 381.905 400.993 384.16C400.993 384.267 400.886 384.374 400.779 384.482C400.779 384.589 400.671 384.804 400.564 384.911C398.954 387.488 396.27 388.562 393.263 388.025C391.331 387.703 389.613 386.736 387.788 385.985C386.5 385.448 385.104 384.911 383.816 384.267L374.583 395.218C373.294 396.721 371.469 397.687 369.537 397.794C369.322 397.794 369.107 397.794 368.893 397.794C367.175 397.794 365.457 397.15 364.061 396.077L355.258 388.669C354.828 388.239 354.399 387.81 354.077 387.381C353.54 387.488 353.003 387.703 352.466 387.81C348.387 388.991 344.414 390.494 340.227 391.246C340.013 399.62 337.436 407.779 332.712 414.65C341.623 426.138 346.239 440.739 345.38 455.232C344.951 462.318 343.019 468.975 340.657 475.631C338.187 482.609 336.148 489.588 338.08 496.888C339.905 503.867 343.77 510.201 346.454 516.857C349.138 523.621 350.641 530.814 350.856 538.007C351.393 551.749 347.528 565.599 339.583 576.979C332.283 587.501 321.976 595.66 310.059 600.384C308.126 601.135 307.268 598.022 309.2 597.27C322.083 592.224 333.034 582.562 339.905 570.538C346.669 558.728 349.138 544.556 346.991 531.029C345.917 524.05 343.448 517.609 340.442 511.275C337.543 505.155 334.43 498.821 334 491.842C333.571 484.542 336.47 477.778 338.832 471.014C340.979 464.788 342.267 458.346 342.16 451.797C342.16 438.914 337.758 426.03 329.599 415.938C329.169 415.509 329.169 414.972 329.276 414.435C329.169 414.113 329.277 413.791 329.491 413.362C334 407.027 336.47 399.512 336.792 391.782C322.298 388.669 308.556 382.549 296.531 373.961H296.424C295.243 374.497 294.17 375.141 293.096 375.786C292.452 376.215 292.237 376.322 291.808 376.859C291.378 377.289 290.841 377.718 290.412 378.148C289.983 378.577 289.553 379.114 289.124 379.543C288.909 379.865 288.802 379.865 288.694 380.08C288.48 380.295 288.372 380.617 288.157 380.832C287.835 381.368 287.513 381.905 287.191 382.442C287.084 382.764 286.869 382.979 286.762 383.301C286.654 383.408 286.654 383.623 286.547 383.73C286.547 383.73 286.332 384.16 286.44 383.945C286.225 384.482 285.903 384.911 285.366 385.019C286.869 387.703 288.694 390.279 290.734 392.641C290.734 392.534 290.841 392.534 290.949 392.426C292.881 390.494 294.921 388.454 296.854 386.522C297.498 385.877 298.464 385.985 299.108 386.522C299.752 387.058 299.752 388.239 299.108 388.776C297.176 390.709 295.136 392.749 293.203 394.681C293.096 394.788 292.989 394.896 292.881 394.896C295.565 397.58 298.571 400.049 301.792 402.089C303.081 400.371 304.262 398.546 305.55 396.828C306.087 396.077 306.945 395.862 307.804 396.291C308.556 396.721 308.878 397.795 308.341 398.546C307.053 400.264 305.872 402.089 304.583 403.807C307.053 405.095 309.63 406.169 312.314 407.027C314.246 407.672 313.495 410.785 311.455 410.141C308.234 409.175 305.228 407.886 302.329 406.276C302.007 406.383 301.578 406.276 301.255 406.061C300.933 405.847 300.719 405.632 300.611 405.202C293.096 400.693 286.762 394.252 282.575 386.522C282.253 385.877 282.36 385.233 282.682 384.804C276.026 385.019 270.121 388.776 265.29 393.071C257.774 399.727 251.118 407.564 245.428 415.938C245.428 416.153 245.321 416.368 245.213 416.69C243.71 419.159 242.207 421.736 240.704 424.313C234.799 434.834 229.539 445.677 225.459 457.058C230.183 468.545 234.477 480.14 238.342 491.95C240.275 497.855 242.207 503.759 243.603 509.772C244.676 514.71 245.321 520.508 242.422 525.017C239.523 529.633 233.94 531.136 228.894 529.848C223.634 528.56 219.554 524.802 216.977 520.185C214.293 515.14 213.327 509.342 213.22 503.759C213.005 497.855 213.649 491.842 214.508 486.045C215.796 477.563 217.944 469.189 220.735 461.03C220.628 460.708 220.628 460.493 220.735 460.064C221.057 458.883 221.487 457.702 221.916 456.521C220.198 452.441 218.48 448.361 216.655 444.389C206.456 421.843 194.432 400.049 180.797 379.436C168.128 360.218 153.849 341.967 138.175 325.111C137.96 325.434 137.638 325.756 137.208 325.863C128.834 329.406 119.923 331.553 110.905 332.412C95.5526 333.808 79.9853 331.231 65.9211 324.789C52.9304 318.885 41.3355 309.652 32.5319 298.379C31.9951 297.735 31.8878 296.768 32.5319 296.124C32.854 295.802 33.2834 295.695 33.8202 295.695C35.7527 291.83 37.5779 287.965 39.5104 284.1C46.7035 269.177 53.4673 254.146 59.8016 239.008C54.5409 238.257 49.6023 235.68 46.3815 231.493C40.584 223.763 41.3355 212.061 48.2066 205.19C52.2863 201.11 58.2985 199.178 63.9886 199.607C55.5072 182.107 54.7556 146.034 73.9731 136.908C98.9881 125.099 114.555 142.921 131.84 118.55C141.718 131.863 133.666 150.973 125.936 155.482C122.93 157.307 119.923 158.273 117.132 158.81C121.212 160.85 124.862 163.641 128.083 166.862C133.129 171.693 137.208 177.598 141.503 182.966C146.119 188.871 150.736 194.668 155.352 200.573C164.156 211.846 172.959 223.119 181.978 234.284C182.729 235.143 182.515 236.646 181.226 236.969C180.045 237.291 178.972 237.613 177.791 237.827C166.303 240.833 154.708 243.84 143.221 246.846C143.006 248.993 142.899 251.14 142.684 253.287C141.718 265.526 140.859 277.765 139.892 289.897C139.141 299.882 138.39 309.866 137.531 319.851C139.57 321.998 141.503 324.145 143.543 326.292C160.72 345.295 176.073 365.801 189.6 387.488C202.484 407.994 213.649 429.573 223.204 451.904C224.922 447.073 226.855 442.349 229.002 437.733C234.907 425.064 242.529 413.254 251.547 402.733C255.949 397.58 260.673 392.426 266.041 388.239C271.302 384.16 277.421 381.154 284.185 381.583C286.547 377.074 290.197 373.316 294.921 371.276C295.565 369.881 296.102 368.485 296.746 367.197C302.866 354.743 312.421 344.222 323.694 336.17C335.074 328.117 348.279 322.642 361.807 319.851C365.35 319.099 368.893 318.562 372.436 318.133C376.193 317.704 379.951 317.382 383.601 316.523C387.359 315.556 390.687 314.053 393.478 311.369C396.162 308.793 399.705 305.894 403.785 307.397C406.791 308.471 407.864 311.691 407.972 314.59L411.515 310.403C410.441 308.471 410.119 306.323 410.656 304.284L417.205 278.41C417.312 277.98 417.419 277.551 417.634 277.229L417.742 277.121C418.278 275.94 419.137 274.974 420.104 274.33L424.076 269.606L430.947 275.403L462.726 302.244L470.348 308.363ZM138.712 267.351C139.248 260.158 139.785 252.965 140.322 245.665C140.322 244.913 140.751 244.269 141.503 244.162C144.831 243.303 148.159 242.444 151.487 241.585C160.398 239.33 169.309 236.968 178.113 234.606C173.818 229.238 169.524 223.87 165.337 218.502C156.319 207.015 147.408 195.527 138.282 184.04C130.552 174.377 122.93 163.534 110.69 159.561C101.887 160.206 94.6937 159.669 89.8625 173.089C86.6417 182.215 88.6815 194.561 76.1203 202.291L72.6848 202.184C73.2216 202.506 73.8658 202.935 74.4026 203.257C75.1541 203.794 75.2615 204.76 74.7247 205.512C74.1879 206.263 73.2215 206.371 72.47 205.834C66.1357 201.003 56.0439 201.647 50.4611 207.23C44.8784 212.812 44.1269 222.904 48.9582 229.238C53.7894 235.573 63.6665 237.613 70.6449 233.64C71.3965 233.211 72.3627 233.426 72.7922 234.284C73.2216 235.036 73.0069 236.002 72.148 236.432C69.3566 238.042 66.2432 238.794 63.1297 238.901C61.1972 243.41 59.372 247.812 57.4395 252.321C50.7832 267.674 43.5901 282.811 36.2896 297.735C40.7987 303.21 45.8446 308.148 51.5347 312.336C62.9149 320.817 76.3351 326.4 90.3993 328.44C105.108 330.587 120.353 328.762 134.202 323.286C134.632 317.918 135.061 312.55 135.491 307.182C136.672 294.084 137.745 280.664 138.712 267.351ZM224.063 461.567C220.628 471.873 217.944 482.502 216.977 493.345C216.011 503.437 215.582 516.643 224.063 523.836C227.499 526.842 233.296 528.452 237.376 525.876C241.885 523.084 241.885 517.072 241.134 512.563C240.167 506.873 238.127 501.29 236.41 495.815C234.585 490.017 232.652 484.22 230.612 478.422C228.465 472.839 226.318 467.149 224.063 461.567ZM391.975 334.022C390.15 334.344 388.325 334.452 386.607 335.203C384.889 335.955 383.923 337.565 382.849 338.961C381.561 340.571 380.058 341.86 378.555 343.255C375.549 346.262 372.757 349.375 369.322 351.952C362.988 356.783 354.292 359.574 346.562 356.568C344.629 355.816 345.488 352.703 347.421 353.455C349.138 354.099 350.963 354.528 352.789 354.636C360.841 354.85 367.604 349.912 372.972 344.544C374.368 343.148 375.656 341.645 377.159 340.249C378.555 338.961 379.736 337.78 380.917 336.277C381.883 334.989 382.957 333.593 384.352 332.841C386.07 331.875 388.003 331.553 389.935 331.231C392.19 330.909 394.23 330.157 396.162 329.084L404.214 319.529C405.073 317.059 405.824 313.194 403.892 311.155C401.101 308.256 396.914 313.194 394.874 314.912C389.291 319.636 381.991 320.602 375.012 321.354C368.356 322.105 361.914 323.179 355.473 325.004C343.019 328.547 331.102 334.344 321.01 342.504C311.347 350.341 303.51 360.218 298.464 371.598C310.274 379.973 323.694 385.985 337.865 388.991C338.08 388.669 338.402 388.454 338.832 388.454C340.979 388.132 343.019 387.595 345.059 386.951C347.098 386.307 349.031 385.663 350.963 385.126C351.608 384.911 352.144 384.804 352.789 384.589C352.359 382.442 352.896 380.187 354.399 378.362L391.975 334.022ZM379.092 358.608C380.165 357.105 381.883 356.353 383.601 356.139C382.42 354.743 381.669 352.81 381.776 350.985L370.825 363.976C371.147 363.976 371.469 363.976 371.684 363.976C373.938 364.083 376.193 364.62 378.448 365.157C377.696 363.01 377.696 360.433 379.092 358.608ZM380.917 382.979C378.233 381.905 375.656 380.724 372.972 379.651C369.966 378.47 366.853 377.289 364.92 374.605C364.384 373.96 364.061 373.209 363.847 372.35L357.19 380.187C355.687 382.012 355.902 384.697 357.727 386.2L366.531 393.607C368.356 395.11 371.04 394.896 372.543 393.071L380.917 382.979ZM394.122 374.497C391.975 373.531 389.72 372.672 387.573 371.813C386.07 371.169 384.46 370.632 383.064 369.773C381.776 369.344 380.595 369.022 379.307 368.7C376.837 368.056 374.153 367.304 371.577 367.197C369.751 367.089 367.282 367.411 366.745 369.451C366.101 371.921 368.356 373.961 370.288 375.034C372.758 376.322 375.442 377.289 377.911 378.255C380.38 379.329 382.849 380.295 385.426 381.368C388.11 382.442 390.794 383.945 393.478 384.697C395.303 385.233 396.914 384.911 397.987 383.301C397.987 383.301 397.987 383.193 398.095 383.193C399.49 379.436 397.236 376.537 394.122 374.497ZM402.282 363.332C400.027 362.473 397.665 361.721 395.303 361.077C394.659 360.97 394.122 360.755 393.478 360.648C392.297 360.326 391.009 360.111 389.828 359.682C388.54 359.467 387.359 359.252 386.07 359.145C384.245 359.037 381.776 359.359 381.239 361.399C380.702 363.654 382.42 365.586 384.245 366.66C386.929 367.519 389.506 368.485 391.975 369.559C393.371 370.203 394.767 370.954 396.055 371.813C397.343 372.35 398.631 372.887 399.92 373.424C402.604 374.497 405.288 376 407.972 376.752C409.797 377.289 411.407 376.967 412.481 375.356C412.481 375.356 412.481 375.249 412.588 375.249C414.95 368.807 407.113 365.157 402.282 363.332ZM414.521 353.133C411.944 351.415 408.938 350.663 405.932 350.019C402.926 349.375 399.812 348.838 396.806 348.516C394.337 348.194 391.653 347.872 389.076 348.194C387.251 348.409 384.889 349.375 385.104 351.629C385.319 354.313 388.003 355.709 390.257 356.461C390.472 356.568 390.579 356.568 390.794 356.568C392.619 356.997 394.337 357.427 396.162 357.964C396.484 358.071 396.806 358.179 397.128 358.286C397.665 358.393 398.095 358.501 398.631 358.608C401.208 359.252 403.892 360.004 406.469 360.755C407.864 361.185 409.26 361.507 410.656 361.829C411.944 362.151 413.34 362.688 414.736 362.688C416.453 362.688 417.527 361.936 418.171 360.433C418.171 360.433 418.171 360.433 418.171 360.326C418.708 357.427 416.883 354.636 414.521 353.133ZM420.211 341.538L413.877 349.053C414.199 349.16 414.521 349.375 414.843 349.482C415.058 349.482 415.272 349.482 415.487 349.59C417.312 349.912 419.03 350.663 420.748 351.415C422.68 352.274 424.505 353.025 426.438 353.562C428.478 354.206 430.625 354.85 432.665 355.494C434.705 356.031 436.959 356.89 439.106 356.461C440.717 356.139 442.005 354.958 441.79 353.133C441.576 351.307 440.18 350.019 438.677 349.053C435.456 346.906 431.698 345.295 428.048 344.007C425.471 342.933 422.895 342.182 420.211 341.538ZM431.162 325.004C425.579 320.817 419.996 316.523 414.413 312.336L407.006 321.032C406.469 322.535 405.717 324.038 404.751 325.326C403.033 327.903 400.671 330.05 398.095 331.553L386.5 345.295C387.466 344.973 388.325 344.866 389.291 344.758C392.512 344.436 395.947 344.973 399.168 345.403C402.926 345.939 406.791 346.584 410.441 347.657H410.549L430.195 324.36C430.625 324.789 430.84 324.897 431.162 325.004ZM460.686 313.409L420.533 279.483L414.091 305.142C413.769 306.216 413.984 307.504 414.521 308.578C414.736 308.578 414.95 308.685 415.058 308.793C421.177 313.409 427.189 318.026 433.309 322.642C433.738 322.964 434.06 323.501 434.06 324.038C434.705 324.038 435.241 323.93 435.778 323.716L460.686 313.409ZM461.008 304.606L429.229 277.766C427.941 276.692 426.438 276.155 424.935 276.155C424.398 276.155 423.861 276.262 423.324 276.37C423.002 276.477 422.788 276.585 422.573 276.692L422.465 276.799L463.155 311.155C463.263 310.833 463.37 310.51 463.37 310.188C463.692 308.256 462.726 306.109 461.008 304.606ZM79.5559 367.304C79.5559 367.197 79.5559 367.197 79.5559 367.304C79.5559 367.197 79.5559 367.197 79.5559 367.304ZM105.215 260.802C97.3777 259.192 89.0035 261.983 83.7429 267.996C82.3472 269.606 84.7092 271.861 85.9976 270.25C90.5067 265.097 97.5925 262.52 104.356 263.809C106.396 264.345 107.255 261.232 105.215 260.802ZM57.3322 211.095C55.2924 211.095 55.2924 214.315 57.3322 214.315C63.4518 214.208 69.2492 216.999 73.0068 221.723C73.5436 222.367 74.7247 222.26 75.2615 221.723C75.9057 221.079 75.7983 220.113 75.2615 219.469C70.9671 214.208 64.2033 211.095 57.3322 211.095ZM93.6201 183.825C94.3716 184.254 95.3379 184.04 95.8747 183.288C96.1968 182.751 96.5189 182.215 96.8409 181.785L96.9483 181.678C97.0556 181.57 97.1631 181.463 97.2704 181.248C97.4851 181.034 97.6998 180.819 97.9145 180.604C98.344 180.175 98.7734 179.745 99.3102 179.316L99.4176 179.208C99.525 179.101 99.6323 178.994 99.7396 178.994C100.062 178.779 100.276 178.672 100.599 178.457C101.35 178.028 101.672 176.954 101.135 176.202C100.706 175.451 99.7397 175.129 98.8808 175.666C96.4115 177.169 94.3716 179.316 92.8685 181.785C92.5464 182.322 92.8686 183.396 93.6201 183.825ZM136.028 333.271C128.727 337.028 121.212 340.679 113.16 342.504C109.295 343.363 105.322 343.792 101.35 343.47C97.3777 343.148 93.6201 341.86 89.8625 340.249C86.2122 338.639 82.6693 337.029 78.697 336.277C74.7246 335.525 70.6449 335.525 66.5652 335.203C60.0162 334.559 53.682 331.875 48.636 327.688C43.1606 323.072 39.0809 316.737 37.4705 309.759C37.0411 307.719 33.9276 308.578 34.357 310.618C37.3631 323.823 48.4213 334.881 61.6266 337.78C65.7063 338.746 70.0008 338.746 74.1879 339.068C78.5897 339.498 82.562 340.786 86.6417 342.504C90.3993 344.114 94.1569 345.725 98.2366 346.476C102.316 347.12 106.503 347.013 110.583 346.369C120.138 344.866 128.942 340.464 137.423 336.17C139.463 335.096 137.853 332.305 136.028 333.271ZM82.4546 363.761C83.5282 366.016 82.9914 368.592 81.2737 370.418C80.5221 371.276 79.4485 371.921 78.3748 372.243C77.7307 372.457 76.8718 372.565 76.2276 372.35C75.4761 372.135 74.9394 371.276 74.4026 370.74C74.2952 370.632 74.2953 370.525 74.1879 370.418C73.4364 370.847 72.5775 370.418 72.0407 369.773C70.645 367.841 70.7522 365.157 71.9332 363.224C73.0068 361.399 75.0467 360.218 77.1939 360.326C79.3411 360.54 81.4884 361.721 82.4546 363.761ZM79.8779 365.908C79.8779 365.801 79.8779 365.801 79.8779 365.801C79.8779 365.694 79.8779 365.586 79.7706 365.479C79.7706 365.372 79.7706 365.372 79.6633 365.264C79.6633 365.372 79.7706 365.372 79.7706 365.479C79.7706 365.479 79.5559 365.157 79.5559 365.05C79.5559 364.942 79.4485 364.942 79.4485 364.835L79.3411 364.728L79.4485 364.835C79.4485 364.727 79.2338 364.513 79.1265 364.513C79.0191 364.405 78.9117 364.298 78.8043 364.191C78.8043 364.191 78.8043 364.191 78.697 364.191C78.5896 364.083 78.4822 364.083 78.3748 363.976C78.2675 363.869 78.1602 363.869 77.9455 363.761C77.8382 363.761 77.6233 363.654 77.838 363.761C78.0528 363.761 77.7307 363.761 77.7307 363.761C77.516 363.654 77.4086 363.654 77.1939 363.654C77.1939 363.654 77.0866 363.654 76.9792 363.654C76.7645 363.654 76.6572 363.654 76.4424 363.654C76.4424 363.654 76.5498 363.654 76.3351 363.654H76.2276C76.0129 363.654 75.9056 363.761 75.6908 363.761C75.6908 363.761 75.6909 363.761 75.5835 363.761C75.4761 363.761 75.4761 363.761 75.5835 363.761H75.4762C75.4762 363.761 75.2614 363.869 75.154 363.976C75.2614 363.976 75.2614 363.869 75.154 363.976C75.0467 363.976 75.0467 364.083 74.9394 364.083C74.9394 364.083 74.8321 364.298 74.7247 364.405C74.7247 364.298 74.7247 364.298 74.7247 364.405C74.7247 364.513 74.6172 364.513 74.6172 364.62C74.5099 364.727 74.5099 364.835 74.4026 364.942C74.4026 364.942 74.4026 364.942 74.4026 365.05C74.4026 365.157 74.4026 365.157 74.4026 365.157V365.264C74.2952 365.479 74.2952 365.586 74.2952 365.801V365.908V366.016C74.2952 366.123 74.2952 366.123 74.2952 366.016C74.2952 366.123 74.2952 366.338 74.2952 366.445C74.2952 366.553 74.2952 366.767 74.2952 366.875C74.2952 366.982 74.2952 367.089 74.4026 367.089C74.4026 367.197 74.5099 367.304 74.5099 367.519C74.5099 367.626 74.6172 367.626 74.6172 367.734C74.7246 367.841 74.832 368.056 74.832 368.163C75.4762 367.841 76.2277 367.948 76.6571 368.485C76.8718 368.7 77.0865 368.915 77.3012 369.129C77.3012 369.129 77.3013 369.129 77.4087 369.129C77.5161 369.129 77.516 369.129 77.6234 369.022C77.6234 369.022 77.7307 369.022 77.838 368.914C77.9454 368.914 77.9455 368.807 77.9455 368.807C78.1602 368.7 78.2676 368.593 78.4823 368.485C78.5897 368.378 78.5896 368.378 78.697 368.27C78.697 368.27 79.0191 367.948 79.1265 367.841C79.1265 367.841 79.1264 367.734 79.2338 367.734C79.3411 367.626 79.3411 367.519 79.3411 367.519C79.4485 367.412 79.4486 367.304 79.5559 367.197C79.6633 367.089 79.5559 367.089 79.5559 367.089C79.5559 366.982 79.6632 366.767 79.7706 366.66C79.7706 366.553 79.7706 366.445 79.8779 366.445C79.8779 366.338 79.8779 366.123 79.8779 365.908ZM76.4424 363.546C76.4424 363.546 76.5498 363.546 76.4424 363.546C76.5498 363.546 76.5498 363.546 76.4424 363.546ZM75.3688 363.976C75.3688 363.976 75.4762 363.976 75.3688 363.976C75.4762 363.976 75.4762 363.976 75.3688 363.976ZM113.482 174.27C113.374 174.27 113.374 174.27 113.267 174.27C113.16 174.27 112.945 174.27 112.838 174.27C112.516 174.27 112.301 174.163 111.979 174.163C111.657 174.163 111.335 174.163 111.12 174.055C110.905 174.163 110.798 174.27 110.583 174.377C109.831 174.592 108.758 174.055 108.651 173.304C108.329 171.908 109.402 170.834 110.798 170.834C111.549 170.834 112.408 170.942 113.16 171.049C114.877 171.264 116.595 171.586 118.206 171.908C119.065 172.123 119.494 173.089 119.279 173.84C119.065 174.699 118.098 175.129 117.347 174.914C115.951 174.699 114.77 174.485 113.482 174.27ZM74.9394 364.513C74.9394 364.405 74.9394 364.513 74.9394 364.513V364.513ZM116.273 186.187C115.844 185.435 114.77 185.221 114.019 185.65C113.267 186.08 112.945 187.153 113.482 187.905C115.307 191.018 116.488 194.239 117.025 197.782C117.132 198.641 118.206 199.178 118.957 198.856C119.816 198.533 120.246 197.782 120.031 196.923C119.494 193.165 118.206 189.515 116.273 186.187ZM107.255 188.549C106.933 187.797 105.752 187.583 105 188.012C104.249 188.549 104.034 189.408 104.464 190.267C105.752 193.058 106.933 195.849 108.221 198.641C108.543 199.392 109.724 199.607 110.476 199.178C111.227 198.641 111.442 197.782 111.012 196.923C109.832 194.239 108.543 191.448 107.255 188.549ZM74.5099 365.157C74.5099 365.157 74.6173 365.157 74.5099 365.157C74.6173 365.05 74.6173 365.157 74.5099 365.157Z" fill="black"/>
</g>
<defs>
<clipPath id="clip0_21131_9927">
<rect width="600" height="600" fill="white" transform="translate(0 0.5)"/>
</clipPath>
</defs>
</svg>
