<svg width="600" height="600" viewBox="0 0 600 600" fill="none" xmlns="http://www.w3.org/2000/svg">
<path d="M386.766 470.892H157.74C153.247 470.892 148.871 469.457 145.251 466.795C141.631 464.133 138.956 460.385 137.616 456.096L91.2599 307.53C90.7086 305.762 90.5809 303.888 90.8872 302.061C91.1934 300.234 91.9251 298.505 93.023 297.012C94.1209 295.52 95.5544 294.307 97.2076 293.471C98.8608 292.635 100.687 292.2 102.54 292.2H331.008L386.766 470.892Z" fill="#F0F0F0"/>
<path d="M331.008 292.2L386.766 470.892H157.74C153.247 470.892 148.871 469.457 145.251 466.795C141.631 464.134 138.956 460.385 137.616 456.096L91.2601 307.53C90.7088 305.762 90.5811 303.888 90.8873 302.061C91.1936 300.234 91.9252 298.505 93.0232 297.013C94.1211 295.521 95.5545 294.308 97.2077 293.472C98.8609 292.636 100.688 292.2 102.54 292.2H331.008ZM331.008 288H102.54C100.029 288.002 97.5536 288.593 95.3132 289.727C93.0728 290.861 91.1303 292.505 89.6425 294.528C88.1547 296.551 87.1631 298.895 86.7479 301.371C86.3327 303.848 86.5054 306.387 87.2521 308.784L133.608 457.344C135.198 462.498 138.401 467.005 142.746 470.2C147.09 473.396 152.347 475.111 157.74 475.092H386.766C387.424 475.092 388.073 474.937 388.66 474.64C389.248 474.343 389.757 473.912 390.147 473.381C390.537 472.851 390.797 472.237 390.906 471.588C391.015 470.939 390.97 470.273 390.774 469.644L335.016 290.946C334.749 290.093 334.216 289.346 333.495 288.816C332.774 288.286 331.903 288.001 331.008 288V288Z" fill="#4C3133"/>
<path d="M389.694 470.892H166.2C162.964 470.893 159.811 469.86 157.203 467.943C154.596 466.026 152.669 463.326 151.704 460.236L101.466 299.328C101.21 298.506 101.152 297.635 101.294 296.786C101.437 295.937 101.777 295.133 102.287 294.439C102.798 293.746 103.464 293.182 104.232 292.793C105 292.404 105.849 292.201 106.71 292.2H334.668C337.307 292.201 339.876 293.045 342.002 294.609C344.127 296.173 345.697 298.375 346.482 300.894L396.6 461.508C396.938 462.591 397.017 463.738 396.829 464.857C396.642 465.975 396.194 467.034 395.522 467.948C394.849 468.861 393.971 469.604 392.959 470.115C391.947 470.627 390.828 470.893 389.694 470.892V470.892Z" fill="white"/>
<path d="M334.668 292.2C337.307 292.201 339.877 293.045 342.002 294.609C344.127 296.173 345.697 298.375 346.482 300.894L396.6 461.508C396.938 462.591 397.017 463.738 396.829 464.856C396.642 465.975 396.194 467.034 395.522 467.947C394.849 468.861 393.972 469.604 392.959 470.115C391.947 470.627 390.829 470.893 389.694 470.892H166.2C162.964 470.893 159.811 469.86 157.204 467.943C154.596 466.026 152.669 463.326 151.704 460.236L101.466 299.328C101.211 298.506 101.152 297.635 101.294 296.786C101.437 295.937 101.777 295.133 102.287 294.439C102.798 293.746 103.464 293.182 104.232 292.793C105 292.404 105.849 292.201 106.71 292.2H334.668ZM334.668 288H106.71C105.188 288 103.688 288.358 102.33 289.046C100.972 289.733 99.7947 290.731 98.8938 291.957C97.993 293.184 97.3936 294.606 97.1442 296.107C96.8948 297.609 97.0024 299.148 97.4583 300.6L147.666 461.502C148.889 465.456 151.351 468.911 154.688 471.359C158.026 473.806 162.062 475.115 166.2 475.092H389.694C391.487 475.093 393.255 474.671 394.856 473.862C396.456 473.053 397.843 471.879 398.906 470.435C399.968 468.99 400.676 467.316 400.972 465.547C401.267 463.779 401.143 461.966 400.608 460.254L350.49 299.64C349.448 296.261 347.348 293.306 344.499 291.21C341.651 289.115 338.205 287.989 334.668 288Z" fill="#4C3133"/>
<path d="M230.34 394.344H155.34C152.868 394.344 150.246 392.34 149.49 389.862L145.614 377.178C144.858 374.706 146.25 372.702 148.722 372.702H223.722C226.194 372.702 228.81 374.706 229.566 377.178L233.448 389.862C234.204 392.34 232.8 394.344 230.34 394.344Z" fill="#F0F0F0"/>
<path d="M370.584 452.844H165C159.246 452.844 153.372 448.368 151.626 442.644L113.016 316.314C112.11 313.314 112.5 310.404 114.096 308.25C114.903 307.201 115.949 306.361 117.148 305.799C118.346 305.237 119.662 304.971 120.984 305.022H326.784C332.466 305.022 338.268 309.444 339.984 315.09L378.606 441.426C379.53 444.426 379.134 447.426 377.52 449.58C376.706 450.635 375.652 451.482 374.446 452.049C373.24 452.617 371.916 452.889 370.584 452.844V452.844ZM120.984 309.222C120.319 309.179 119.653 309.295 119.042 309.56C118.431 309.825 117.891 310.231 117.468 310.746C116.664 311.832 116.514 313.374 117.036 315.09L155.658 441.426C156.858 445.338 161.142 448.626 165.018 448.626H370.584C371.265 448.67 371.947 448.551 372.573 448.278C373.199 448.006 373.752 447.588 374.184 447.06C375.006 445.95 375.162 444.378 374.628 442.632L336 316.314C334.8 312.468 330.6 309.222 326.802 309.222H120.984Z" fill="#4C3133"/>
<path d="M308.1 292.2H284.436C283.915 297.071 283.059 301.901 281.874 306.654C275.562 331.218 257.724 351.948 236.022 365.634C214.614 379.128 194.454 385.128 169.47 389.082C171.109 396.152 174.027 402.862 178.08 408.882H308.1V292.2Z" fill="#E2E2E0"/>
<path d="M340.992 327.6H118.02C117.571 327.601 117.133 327.457 116.771 327.19C116.409 326.923 116.142 326.548 116.01 326.118L112.65 315.132C112.234 313.94 112.105 312.667 112.274 311.416C112.443 310.165 112.905 308.971 113.622 307.932C114.344 306.993 115.28 306.24 116.352 305.737C117.424 305.234 118.601 304.995 119.784 305.04H327.984C332.994 305.04 338.106 308.934 339.63 313.902L342.984 324.888C343.08 325.202 343.1 325.533 343.045 325.856C342.989 326.179 342.859 326.484 342.664 326.748C342.469 327.012 342.216 327.226 341.923 327.374C341.631 327.522 341.308 327.599 340.98 327.6H340.992ZM119.592 323.4H338.172L335.64 315.132C334.662 311.934 331.17 309.24 328.014 309.24H119.814C119.287 309.205 118.759 309.295 118.274 309.503C117.789 309.712 117.361 310.033 117.024 310.44C116.394 311.298 116.274 312.528 116.7 313.908L119.592 323.4Z" fill="#4C3133"/>
<path d="M146.29 318.884C147.147 317.886 146.745 316.135 145.393 314.974C144.04 313.813 142.249 313.68 141.392 314.678C140.535 315.676 140.937 317.427 142.289 318.588C143.642 319.75 145.433 319.882 146.29 318.884Z" fill="#4C3133"/>
<path d="M158.498 318.878C159.355 317.88 158.953 316.13 157.601 314.968C156.248 313.807 154.457 313.675 153.6 314.673C152.743 315.671 153.145 317.421 154.497 318.583C155.85 319.744 157.641 319.877 158.498 318.878Z" fill="#4C3133"/>
<path d="M226.342 300.137C227.199 299.139 226.797 297.389 225.445 296.227C224.092 295.066 222.301 294.934 221.444 295.932C220.587 296.93 220.989 298.68 222.341 299.842C223.694 301.003 225.485 301.136 226.342 300.137Z" fill="#4C3133"/>
<path d="M132.973 318.887C133.83 317.889 133.428 316.139 132.075 314.977C130.723 313.816 128.932 313.684 128.075 314.682C127.218 315.68 127.619 317.43 128.972 318.592C130.325 319.753 132.116 319.886 132.973 318.887Z" fill="#4C3133"/>
<path d="M220.314 361.554H145.314C142.842 361.554 140.226 359.55 139.47 357.072L135.6 344.4C134.844 341.928 136.236 339.924 138.708 339.924H213.708C216.18 339.924 218.802 341.928 219.558 344.4L223.434 357.084C224.178 359.55 222.786 361.554 220.314 361.554Z" fill="#F0F0F0"/>
<path d="M240.366 427.134H165.366C162.894 427.134 160.272 425.13 159.516 422.652L155.64 409.968C154.884 407.496 156.276 405.492 158.748 405.492H233.748C236.22 405.492 238.836 407.496 239.592 409.968L243.474 422.652C244.23 425.13 242.838 427.134 240.366 427.134Z" fill="#F0F0F0"/>
<path d="M288.638 426.558C292.69 421.839 290.786 413.558 284.385 408.062C277.984 402.566 269.51 401.936 265.459 406.655C261.407 411.374 263.311 419.655 269.712 425.151C276.113 430.647 284.587 431.277 288.638 426.558Z" fill="#F0F0F0"/>
<path d="M157.687 470.892H568.146C568.147 472.304 567.87 473.702 567.33 475.006C566.791 476.311 565.999 477.496 565.001 478.495C564.003 479.493 562.818 480.285 561.514 480.826C560.21 481.366 558.812 481.644 557.401 481.644H168.439C167.027 481.644 165.63 481.366 164.326 480.826C163.022 480.286 161.838 479.495 160.84 478.497C159.842 477.499 159.051 476.314 158.511 475.01C157.97 473.707 157.693 472.309 157.693 470.898V470.898L157.687 470.892Z" fill="#F0F0F0"/>
<path d="M568.146 470.892C568.147 472.304 567.87 473.702 567.33 475.006C566.79 476.311 565.999 477.496 565.001 478.495C564.003 479.493 562.818 480.285 561.514 480.826C560.21 481.366 558.812 481.644 557.4 481.644H168.438C165.587 481.644 162.852 480.511 160.836 478.495C158.819 476.479 157.686 473.744 157.686 470.892H568.146V470.892ZM568.146 466.692H157.686C156.572 466.692 155.504 467.135 154.716 467.922C153.929 468.71 153.486 469.778 153.486 470.892C153.499 474.854 155.078 478.65 157.88 481.451C160.681 484.252 164.477 485.831 168.438 485.844H557.4C561.361 485.83 565.155 484.25 567.955 481.449C570.755 478.648 572.334 474.853 572.346 470.892C572.346 469.778 571.904 468.71 571.116 467.922C570.329 467.135 569.26 466.692 568.146 466.692Z" fill="#4C3133"/>
<path d="M174.186 476.532C172.248 476.532 170.346 476.007 168.681 475.014C167.017 474.021 165.652 472.597 164.73 470.892H157.686C157.686 473.744 158.819 476.478 160.835 478.495C162.852 480.511 165.586 481.644 168.438 481.644H557.4C559.37 481.643 561.302 481.1 562.985 480.074C564.668 479.049 566.036 477.581 566.94 475.83C565.731 476.29 564.448 476.528 563.154 476.532H174.186Z" fill="#E2E2E0"/>
<path d="M350.832 470.892C350.832 470.892 351.72 478.38 342.204 484.2Z" fill="white"/>
<path d="M342.204 486.3C341.745 486.302 341.299 486.153 340.933 485.876C340.567 485.6 340.301 485.212 340.176 484.77C340.052 484.329 340.075 483.858 340.243 483.432C340.411 483.005 340.714 482.645 341.106 482.406C349.248 477.432 348.768 471.378 348.744 471.12C348.681 470.563 348.842 470.004 349.192 469.566C349.541 469.128 350.05 468.846 350.607 468.783C351.164 468.72 351.723 468.881 352.161 469.231C352.6 469.58 352.881 470.089 352.944 470.646C352.986 471.006 353.874 479.544 343.344 485.994C343 486.201 342.605 486.307 342.204 486.3V486.3Z" fill="#4C3133"/>
<path d="M525.654 382.65C528.906 382.53 532.014 381.366 535.056 380.214C538.398 378.948 541.74 377.676 544.98 376.158C547.752 374.856 555.618 370.242 556.512 368.916C557.406 367.59 557.508 365.598 556.332 364.512C554.532 362.844 551.286 364.32 549.282 362.886C546.582 360.954 549.096 357.432 551.34 356.448C554.682 354.978 558.54 355.8 561.87 354.282C564.324 353.154 566.178 349.986 564.69 347.736C563.52 345.972 560.94 345.666 559.632 344.004C557.616 341.436 559.962 337.536 562.926 336.162C565.89 334.788 569.352 334.776 572.268 333.312C575.184 331.848 577.272 327.708 575.01 325.362C572.064 322.302 566.01 326.04 562.944 323.076C560.544 320.724 562.428 316.656 564.618 314.076C566.808 311.496 569.418 308.232 568.002 305.172C566.658 302.262 562.446 301.962 559.602 303.372C556.758 304.782 554.622 307.392 551.946 309.156C549.27 310.92 545.346 311.658 543.072 309.396C541.176 307.506 541.272 304.374 539.772 302.148C537.054 298.074 530.238 299.148 527.172 303C524.106 306.852 523.842 312.12 523.812 317.016C523.812 320.298 522.672 324.768 519.396 324.54C517.116 324.39 515.796 321.834 513.744 320.844C509.856 318.984 505.578 323.844 505.944 328.116C506.31 332.388 509.31 335.916 511.614 339.576C516.192 346.812 517.614 355.626 517.614 364.296C517.608 372.252 513.444 383.088 525.654 382.65Z" fill="#FFD900"/>
<path d="M524.952 384.762C521.454 384.762 518.916 383.868 517.2 382.038C514.2 378.864 514.704 373.944 515.178 369.186C515.346 367.47 515.508 365.844 515.508 364.35C515.508 354.498 513.642 346.776 509.826 340.746C509.382 340.044 508.914 339.348 508.44 338.652C506.346 335.544 504.174 332.334 503.844 328.338C503.76 326.659 504.101 324.986 504.835 323.473C505.569 321.961 506.673 320.658 508.044 319.686C508.985 318.983 510.099 318.548 511.268 318.427C512.436 318.307 513.615 318.505 514.68 319.002C515.707 319.545 516.644 320.243 517.458 321.072C518.262 321.81 518.958 322.452 519.57 322.494C519.704 322.51 519.84 322.494 519.967 322.448C520.094 322.402 520.209 322.328 520.302 322.23C521.136 321.456 521.73 319.326 521.742 317.052C521.772 311.94 522.096 306.12 525.558 301.746C526.692 300.378 528.124 299.288 529.744 298.56C531.365 297.832 533.131 297.485 534.906 297.546C536.207 297.556 537.487 297.881 538.636 298.492C539.785 299.103 540.77 299.983 541.506 301.056C542.232 302.244 542.776 303.535 543.12 304.884C543.51 306.174 543.852 307.284 544.542 307.98C545.952 309.384 548.808 308.766 550.776 307.47C551.814 306.752 552.804 305.969 553.74 305.124C555.219 303.735 556.868 302.54 558.648 301.566C560.964 300.399 563.645 300.184 566.118 300.966C566.948 301.235 567.714 301.671 568.368 302.248C569.022 302.825 569.551 303.53 569.922 304.32C571.968 308.754 568.236 313.116 566.226 315.462C564.426 317.544 563.226 320.388 564.426 321.57C565.248 322.38 566.982 322.236 568.812 322.092C571.284 321.894 574.362 321.648 576.534 323.892C577.158 324.548 577.616 325.344 577.869 326.214C578.121 327.084 578.162 328.001 577.986 328.89C577.711 330.225 577.141 331.482 576.318 332.569C575.495 333.656 574.439 334.545 573.228 335.172C571.532 335.95 569.747 336.514 567.912 336.852C566.51 337.109 565.139 337.511 563.82 338.052C563.165 338.362 562.581 338.805 562.106 339.352C561.631 339.9 561.275 340.54 561.06 341.232C560.977 341.474 560.955 341.734 560.996 341.987C561.037 342.24 561.139 342.479 561.294 342.684C561.816 343.19 562.426 343.596 563.094 343.884C564.427 344.464 565.585 345.382 566.454 346.548C566.895 347.226 567.182 347.993 567.294 348.795C567.406 349.596 567.34 350.412 567.102 351.186C566.768 352.272 566.209 353.277 565.461 354.134C564.714 354.99 563.795 355.681 562.764 356.16C560.76 357.078 558.726 357.27 556.764 357.45C555.209 357.506 553.672 357.805 552.21 358.338C551.292 358.74 550.32 359.886 550.242 360.654C550.242 360.798 550.242 360.924 550.53 361.152C550.956 361.458 551.886 361.47 552.78 361.482C554.322 361.482 556.248 361.53 557.778 362.94C559.644 364.662 559.854 367.74 558.276 370.062C556.866 372.156 547.626 377.214 545.892 378.024C542.454 379.662 538.92 381 535.8 382.2C532.8 383.346 529.362 384.642 525.732 384.768L524.952 384.762ZM511.956 322.584C511.393 322.605 510.85 322.8 510.402 323.142C509.637 323.693 509.018 324.423 508.6 325.268C508.181 326.113 507.976 327.047 508.002 327.99C508.248 330.894 510.018 333.522 511.896 336.3C512.394 337.032 512.886 337.764 513.354 338.502C517.608 345.222 519.678 353.676 519.684 364.344C519.684 366.048 519.504 367.854 519.33 369.6C518.952 373.428 518.562 377.4 520.236 379.164C521.184 380.178 522.99 380.64 525.558 380.55C528.498 380.442 531.444 379.35 534.288 378.252C537.336 377.1 540.792 375.792 544.062 374.256C546.954 372.894 553.782 368.784 554.772 367.698C555.15 367.098 555.156 366.306 554.88 366.06C554.604 365.814 553.59 365.724 552.672 365.712C551.274 365.712 549.534 365.664 548.04 364.596C547.335 364.127 546.773 363.473 546.415 362.706C546.057 361.938 545.918 361.087 546.012 360.246C546.282 357.684 548.508 355.386 550.47 354.528C552.343 353.808 554.321 353.403 556.326 353.328C557.917 353.277 559.488 352.963 560.976 352.398C561.453 352.169 561.879 351.848 562.229 351.452C562.579 351.056 562.847 350.595 563.016 350.094C563.092 349.905 563.122 349.702 563.104 349.5C563.087 349.297 563.021 349.102 562.914 348.93C562.412 348.381 561.798 347.948 561.114 347.658C559.92 347.103 558.858 346.299 558 345.3C557.456 344.596 557.081 343.777 556.904 342.905C556.727 342.033 556.753 341.132 556.98 340.272C557.342 338.963 557.984 337.749 558.861 336.713C559.739 335.677 560.831 334.844 562.062 334.272C563.648 333.595 565.304 333.094 567 332.778C568.496 332.509 569.955 332.062 571.344 331.446C571.969 331.115 572.516 330.656 572.948 330.097C573.381 329.538 573.689 328.893 573.852 328.206C573.918 327.966 573.921 327.714 573.863 327.472C573.804 327.231 573.685 327.008 573.516 326.826C572.778 326.064 571.374 326.112 569.154 326.292C566.718 326.484 563.688 326.73 561.498 324.594C558.264 321.438 559.944 316.368 563.04 312.744C564.972 310.488 566.958 307.944 566.112 306.09C565.974 305.813 565.78 305.568 565.542 305.37C565.305 305.171 565.029 305.024 564.732 304.938C563.335 304.526 561.834 304.659 560.532 305.31C559.066 306.139 557.707 307.147 556.488 308.31C555.415 309.278 554.278 310.174 553.086 310.992C549.756 313.188 544.734 314.112 541.578 310.992C540.138 309.558 539.586 307.74 539.1 306.138C538.865 305.186 538.5 304.271 538.014 303.42C537.636 302.902 537.139 302.482 536.564 302.196C535.99 301.91 535.355 301.766 534.714 301.776C533.599 301.747 532.492 301.968 531.474 302.424C530.457 302.88 529.554 303.558 528.834 304.41C526.2 307.74 525.954 312.522 525.924 317.136C525.924 318.468 525.696 322.998 523.146 325.368C522.631 325.854 522.021 326.228 521.353 326.466C520.686 326.704 519.977 326.8 519.27 326.748C517.176 326.604 515.742 325.278 514.59 324.21C514.075 323.679 513.489 323.221 512.85 322.848C512.577 322.691 512.271 322.6 511.956 322.584V322.584Z" fill="#4C3133"/>
<path d="M479.46 408.6L488.91 466.344H535.8L546.516 408.696C546.972 406.236 545.364 403.896 543.21 403.896H482.784C480.66 403.89 479.064 406.14 479.46 408.6Z" fill="white"/>
<path d="M543.216 403.89C545.376 403.89 546.978 406.206 546.522 408.69L535.8 466.314H488.91L479.46 408.6C479.064 406.17 480.66 403.92 482.784 403.92H543.216V403.89ZM543.216 399.72H482.784C481.714 399.727 480.658 399.967 479.69 400.424C478.722 400.881 477.866 401.544 477.18 402.366C476.387 403.314 475.809 404.423 475.487 405.617C475.164 406.81 475.106 408.059 475.314 409.278L484.764 467.022C484.925 468.005 485.43 468.9 486.19 469.545C486.949 470.19 487.914 470.544 488.91 470.544H535.8C536.783 470.545 537.734 470.201 538.489 469.573C539.245 468.945 539.756 468.072 539.934 467.106L550.644 409.458C550.881 408.227 550.842 406.958 550.531 405.743C550.22 404.529 549.644 403.398 548.844 402.432C548.16 401.59 547.297 400.911 546.319 400.442C545.341 399.973 544.271 399.726 543.186 399.72H543.216Z" fill="#4C3133"/>
<path d="M506.436 457.914C503.383 457.912 500.431 456.825 498.106 454.846C495.781 452.868 494.236 450.127 493.746 447.114L486.672 403.872H482.784C480.66 403.872 479.064 406.122 479.46 408.552L488.91 466.296H535.8L537.636 456.438C535.807 457.391 533.776 457.892 531.714 457.896L506.436 457.914Z" fill="#F0F0F0"/>
<path d="M519.642 402.324C519.487 402.323 519.332 402.307 519.18 402.276C518.911 402.215 518.657 402.102 518.431 401.942C518.206 401.783 518.014 401.581 517.867 401.347C517.72 401.114 517.62 400.854 517.574 400.582C517.527 400.31 517.535 400.031 517.596 399.762C520.392 387.354 523.284 374.52 528.042 362.394C533.442 348.666 540.606 337.65 549.384 329.646C549.796 329.27 550.341 329.074 550.898 329.1C551.455 329.126 551.979 329.372 552.354 329.784C552.73 330.196 552.926 330.741 552.9 331.298C552.875 331.855 552.628 332.379 552.216 332.754C543.918 340.314 537.102 350.802 531.948 363.954C527.31 375.78 524.454 388.452 521.694 400.71C521.584 401.171 521.321 401.58 520.949 401.873C520.576 402.166 520.116 402.325 519.642 402.324Z" fill="#4C3133"/>
<path d="M520.578 363.774C516.342 369.81 508.662 379.26 500.52 379.434C493.866 379.578 488.022 373.434 483.642 369.042C476.736 362.19 471.264 354.031 467.544 345.042C467.256 344.334 466.98 343.488 467.382 342.84C468.21 341.496 470.196 342.678 471.732 343.038C474.192 343.638 476.604 341.37 477.132 338.898C477.66 336.426 476.904 333.876 476.136 331.464L467.82 305.316C467.07 302.916 466.308 300.408 466.992 298.02C467.676 295.632 470.442 293.676 472.668 294.792C475.452 296.184 476.076 301.35 479.154 300.858C481.554 300.474 481.656 297.048 481.182 294.636C478.474 280.835 478.845 266.607 482.268 252.966C482.736 251.112 483.606 248.946 485.49 248.646C487.842 248.262 489.378 251.124 489.57 253.494C489.762 255.864 489.504 258.594 491.19 260.274C493.08 262.164 496.47 261.474 498.39 259.626C500.31 257.778 501.192 255.12 502.188 252.636C504.078 247.895 506.599 243.431 509.682 239.364C511.788 236.586 515.166 233.742 518.364 235.122C521.268 236.376 521.814 240.21 521.7 243.366C521.424 251.1 519.708 258.696 518.004 266.244L529.872 256.452C531.072 255.462 532.476 254.412 534.012 254.622C536.412 254.952 537.318 257.946 537.354 260.364C537.391 264.292 536.573 268.182 534.958 271.764C533.343 275.345 530.969 278.533 528 281.106C526.2 282.648 524.124 283.992 522.822 285.99C521.52 287.988 521.262 290.952 523.02 292.59L532.62 286.872C534.03 286.032 535.71 285.168 537.228 285.786C538.746 286.404 539.31 288.12 539.124 289.65C538.938 291.18 538.11 292.542 537.324 293.85L520.044 321.6C519.649 322.125 519.402 322.747 519.33 323.4C519.288 325.278 521.946 325.992 523.68 325.278C525.414 324.564 526.83 323.088 528.672 322.728C531.732 322.128 534.576 325.044 535.092 328.128C535.608 331.212 534.492 334.284 533.358 337.194C529.8 346.392 526.242 355.704 520.578 363.774Z" fill="#FFD900"/>
<path d="M500.292 381.534C493.176 381.534 487.188 375.534 482.796 371.166L482.16 370.53C475.063 363.471 469.434 355.075 465.6 345.828C465.324 345.156 464.586 343.368 465.6 341.73C467.106 339.282 469.908 340.236 471.258 340.692C471.612 340.812 471.948 340.926 472.218 340.986C472.445 341.031 472.679 341.028 472.905 340.979C473.131 340.929 473.345 340.834 473.532 340.698C474.325 340.17 474.889 339.362 475.11 338.436C475.554 336.45 474.816 334.134 474.168 332.094L465.852 305.946C465.12 303.654 464.124 300.516 465 297.438C465.3 296.436 465.811 295.509 466.499 294.722C467.188 293.934 468.037 293.303 468.99 292.872C469.718 292.532 470.513 292.359 471.316 292.365C472.12 292.371 472.912 292.557 473.634 292.908C475.374 293.772 476.37 295.398 477.234 296.832C477.75 297.678 478.434 298.842 478.836 298.782C478.908 298.782 478.92 298.782 478.974 298.692C479.316 298.2 479.478 296.79 479.136 295.038C476.372 280.929 476.751 266.384 480.246 252.438C481.134 248.922 482.79 246.942 485.166 246.558C485.818 246.45 486.486 246.483 487.124 246.654C487.762 246.825 488.357 247.129 488.868 247.548C490.716 249 491.526 251.478 491.676 253.32C491.712 253.788 491.73 254.268 491.754 254.754C491.826 256.416 491.892 257.988 492.684 258.78C493.674 259.764 495.786 259.224 496.944 258.108C498.312 256.782 499.086 254.82 499.896 252.738L500.25 251.844C502.22 246.928 504.844 242.301 508.05 238.086C511.53 233.49 515.718 231.66 519.24 233.184C521.472 234.15 524.082 236.712 523.842 243.432C523.544 249.256 522.741 255.044 521.442 260.73L528.642 254.82C529.758 253.902 531.846 252.186 534.402 252.534C537.468 252.948 539.49 256.008 539.556 260.334C539.6 264.577 538.715 268.777 536.965 272.642C535.214 276.507 532.64 279.943 529.422 282.708C528.966 283.092 528.504 283.464 528.042 283.836C526.743 284.753 525.597 285.868 524.646 287.142C524.169 287.877 523.923 288.738 523.938 289.614L531.606 285.042C532.86 284.298 535.458 282.75 538.08 283.842C540.282 284.742 541.596 287.232 541.272 289.902C541.026 291.918 539.982 293.604 539.142 294.96L521.904 322.74C521.779 322.933 521.665 323.134 521.562 323.34C522.015 323.511 522.514 323.511 522.966 323.34C523.558 323.072 524.124 322.75 524.658 322.38C525.766 321.578 527.019 320.999 528.348 320.676C529.24 320.514 530.156 320.533 531.041 320.733C531.925 320.933 532.76 321.31 533.496 321.84C535.476 323.249 536.821 325.381 537.24 327.774C537.84 331.5 536.496 335.07 535.392 337.974C531.87 347.172 528.192 356.688 522.372 365.016C514.764 375.852 507.456 381.42 500.64 381.57L500.292 381.534ZM469.626 344.574C473.245 353.17 478.507 360.976 485.118 367.554L485.766 368.196C489.894 372.318 495.024 377.46 500.472 377.334C505.8 377.22 512.154 372.114 518.856 362.568C524.406 354.666 527.958 345.396 531.396 336.432C532.362 333.912 533.454 331.032 533.016 328.464C532.786 327.189 532.072 326.052 531.024 325.29C530.749 325.081 530.434 324.93 530.099 324.844C529.765 324.759 529.416 324.741 529.074 324.792C528.271 325.028 527.518 325.406 526.848 325.908C526.089 326.417 525.286 326.857 524.448 327.222C523.559 327.58 522.598 327.72 521.643 327.63C520.689 327.541 519.771 327.224 518.964 326.706C518.411 326.343 517.958 325.845 517.65 325.26C517.341 324.674 517.186 324.02 517.2 323.358C517.271 322.327 517.626 321.337 518.226 320.496L535.464 292.716C536.148 291.606 536.862 290.466 536.994 289.362C537.078 288.66 536.79 287.868 536.394 287.7C535.704 287.424 534.216 288.3 533.652 288.648L524.052 294.366C523.663 294.596 523.211 294.696 522.762 294.649C522.312 294.603 521.889 294.413 521.556 294.108C518.892 291.66 519.288 287.508 521.022 284.85C522.207 283.189 523.659 281.735 525.318 280.548C525.75 280.208 526.176 279.86 526.596 279.504C529.349 277.145 531.552 274.213 533.052 270.913C534.552 267.613 535.311 264.025 535.278 260.4C535.278 258.72 534.678 256.83 533.754 256.704C533.016 256.608 531.858 257.562 531.234 258.072L519.36 267.858C519.023 268.124 518.612 268.28 518.184 268.305C517.755 268.331 517.329 268.224 516.963 268C516.597 267.775 516.308 267.444 516.136 267.051C515.964 266.658 515.917 266.221 516 265.8C517.662 258.456 519.378 250.866 519.648 243.306C519.708 241.728 519.648 237.948 517.578 237.072C515.658 236.238 513.048 238.476 511.404 240.672C508.44 244.591 506.018 248.891 504.204 253.458L503.862 254.316C502.968 256.62 501.948 259.224 499.92 261.18C497.274 263.736 492.564 264.594 489.768 261.78C487.824 259.836 487.704 257.136 487.614 254.97C487.614 254.532 487.572 254.1 487.542 253.68C487.492 252.634 487.066 251.641 486.342 250.884C486.108 250.698 485.988 250.722 485.904 250.734C485.49 250.8 484.872 251.562 484.386 253.494C481.043 266.837 480.679 280.752 483.318 294.252C483.582 295.578 484.026 298.908 482.484 301.116C482.15 301.607 481.718 302.023 481.215 302.339C480.712 302.655 480.149 302.864 479.562 302.952C476.418 303.456 474.798 300.804 473.718 299.052C473.118 298.05 472.47 297.018 471.804 296.688C471.633 296.613 471.447 296.579 471.261 296.588C471.074 296.597 470.893 296.65 470.73 296.742C470.342 296.923 469.996 297.184 469.714 297.506C469.432 297.828 469.221 298.205 469.092 298.614C468.6 300.336 469.164 302.388 469.902 304.698L478.218 330.846C478.986 333.246 479.946 336.282 479.256 339.372C478.795 341.396 477.559 343.158 475.812 344.28C475.153 344.709 474.415 345.003 473.642 345.144C472.868 345.285 472.074 345.271 471.306 345.102C470.838 344.988 470.388 344.838 469.956 344.694L469.626 344.574Z" fill="#4C3133"/>
<path d="M504.864 401.796C504.421 401.795 503.99 401.654 503.633 401.393C503.275 401.132 503.009 400.765 502.872 400.344C491.619 365.51 491.901 327.976 503.676 293.316C503.757 293.045 503.892 292.794 504.073 292.577C504.253 292.36 504.476 292.181 504.727 292.052C504.978 291.923 505.252 291.846 505.534 291.825C505.816 291.805 506.099 291.841 506.366 291.932C506.633 292.024 506.879 292.168 507.089 292.356C507.3 292.545 507.47 292.774 507.589 293.03C507.709 293.285 507.776 293.563 507.786 293.845C507.796 294.127 507.749 294.408 507.648 294.672C496.16 328.481 495.885 365.094 506.862 399.072C506.963 399.387 506.988 399.722 506.935 400.049C506.883 400.376 506.754 400.686 506.559 400.954C506.365 401.222 506.11 401.441 505.816 401.592C505.521 401.744 505.195 401.824 504.864 401.826V401.796Z" fill="#4C3133"/>
<path d="M515.1 417.6H478.5C477.943 417.6 477.409 417.379 477.015 416.985C476.622 416.591 476.4 416.057 476.4 415.5C476.4 414.943 476.622 414.409 477.015 414.015C477.409 413.621 477.943 413.4 478.5 413.4H515.1C515.657 413.4 516.191 413.621 516.585 414.015C516.979 414.409 517.2 414.943 517.2 415.5C517.2 416.057 516.979 416.591 516.585 416.985C516.191 417.379 515.657 417.6 515.1 417.6V417.6Z" fill="#4C3133"/>
<path d="M535.5 417.6H528.3C527.743 417.6 527.209 417.379 526.815 416.985C526.421 416.591 526.2 416.057 526.2 415.5C526.2 414.943 526.421 414.409 526.815 414.015C527.209 413.621 527.743 413.4 528.3 413.4H535.5C536.057 413.4 536.591 413.621 536.985 414.015C537.379 414.409 537.6 414.943 537.6 415.5C537.6 416.057 537.379 416.591 536.985 416.985C536.591 417.379 536.057 417.6 535.5 417.6V417.6Z" fill="#4C3133"/>
<path d="M408.156 86.3999H273.444C272.283 86.3991 271.134 86.6269 270.061 87.0704C268.989 87.5138 268.014 88.1641 267.193 88.9843C266.372 89.8044 265.72 90.7782 265.275 91.8502C264.83 92.9222 264.601 94.0713 264.6 95.2319V134.472C264.599 135.633 264.827 136.782 265.271 137.855C265.715 138.928 266.366 139.902 267.187 140.723C268.008 141.544 268.982 142.195 270.055 142.639C271.128 143.083 272.277 143.311 273.438 143.31H277.236C277.502 143.31 277.757 143.415 277.945 143.603C278.133 143.791 278.238 144.046 278.238 144.312V154.602C278.237 154.779 278.282 154.953 278.37 155.106C278.458 155.259 278.585 155.386 278.738 155.474C278.892 155.562 279.066 155.608 279.242 155.606C279.419 155.605 279.592 155.556 279.744 155.466L300.042 143.466C300.195 143.371 300.372 143.321 300.552 143.322H408.156C409.318 143.323 410.469 143.094 411.543 142.65C412.617 142.205 413.592 141.553 414.414 140.731C415.235 139.909 415.886 138.933 416.33 137.859C416.774 136.785 417.002 135.634 417 134.472V95.2319C416.997 92.8884 416.064 90.642 414.405 88.986C412.747 87.33 410.5 86.3999 408.156 86.3999V86.3999Z" fill="white"/>
<path d="M408.156 86.4C410.499 86.3999 412.747 87.3301 414.405 88.9861C416.064 90.642 416.997 92.8885 417 95.232V134.472C417 135.633 416.771 136.783 416.327 137.855C415.882 138.928 415.231 139.903 414.409 140.723C413.588 141.544 412.613 142.195 411.54 142.639C410.467 143.083 409.317 143.311 408.156 143.31H300.558C300.378 143.309 300.201 143.359 300.048 143.454L279.75 155.454C279.597 155.545 279.423 155.592 279.246 155.592C278.98 155.592 278.725 155.486 278.537 155.298C278.349 155.111 278.244 154.856 278.244 154.59V144.312C278.244 144.046 278.138 143.791 277.95 143.603C277.763 143.416 277.508 143.31 277.242 143.31H273.444C272.283 143.312 271.132 143.084 270.059 142.641C268.986 142.197 268.01 141.546 267.189 140.725C266.367 139.904 265.716 138.929 265.272 137.856C264.827 136.783 264.599 135.633 264.6 134.472V95.232C264.601 94.0713 264.83 92.9222 265.275 91.8502C265.72 90.7783 266.371 89.8044 267.193 88.9843C268.014 88.1642 268.989 87.5138 270.061 87.0704C271.134 86.627 272.283 86.3992 273.444 86.4H408.156ZM408.156 82.2H273.444C269.987 82.2031 266.673 83.5768 264.228 86.0197C261.783 88.4627 260.406 91.7755 260.4 95.232V134.472C260.405 137.928 261.78 141.242 264.224 143.686C266.668 146.13 269.981 147.505 273.438 147.51H274.038V154.602C274.037 155.52 274.278 156.422 274.739 157.216C275.199 158.01 275.862 158.668 276.66 159.123C277.457 159.578 278.361 159.813 279.279 159.806C280.197 159.798 281.096 159.547 281.886 159.078L301.428 147.51H408.156C411.613 147.507 414.928 146.132 417.374 143.688C419.819 141.244 421.195 137.929 421.2 134.472V95.232C421.194 91.7755 419.817 88.4627 417.372 86.0197C414.926 83.5768 411.612 82.2031 408.156 82.2Z" fill="#4C3133"/>
<path d="M350.04 122.856H278.88C278.323 122.856 277.789 122.635 277.395 122.241C277.001 121.847 276.78 121.313 276.78 120.756C276.78 120.199 277.001 119.665 277.395 119.271C277.789 118.877 278.323 118.656 278.88 118.656H350.04C350.597 118.656 351.131 118.877 351.525 119.271C351.919 119.665 352.14 120.199 352.14 120.756C352.14 121.313 351.919 121.847 351.525 122.241C351.131 122.635 350.597 122.856 350.04 122.856V122.856Z" fill="#4C3133"/>
<path d="M278.88 111.6C278.323 111.604 277.787 111.387 277.39 110.996C276.994 110.605 276.769 110.072 276.765 109.515C276.761 108.958 276.978 108.422 277.369 108.026C277.76 107.629 278.293 107.404 278.85 107.4L317.4 106.8C317.675 106.796 317.949 106.846 318.206 106.948C318.462 107.05 318.696 107.202 318.893 107.394C319.091 107.586 319.249 107.815 319.358 108.069C319.468 108.322 319.526 108.594 319.53 108.87C319.534 109.146 319.483 109.42 319.381 109.676C319.279 109.932 319.128 110.166 318.936 110.364C318.744 110.562 318.514 110.72 318.261 110.829C318.008 110.938 317.735 110.996 317.46 111L278.916 111.6H278.88Z" fill="#4C3133"/>
<path d="M379.878 117.414C376.542 117.288 366.906 117.786 364.644 127.572C364.584 127.848 364.436 128.097 364.221 128.281C364.006 128.464 363.737 128.572 363.455 128.588C363.172 128.604 362.893 128.526 362.659 128.368C362.425 128.209 362.25 127.978 362.16 127.71C360.06 121.44 359.496 110.484 379.95 108.6C380.254 108.578 380.54 108.45 380.76 108.238C380.979 108.027 381.117 107.745 381.15 107.442L381.918 99.6001C381.94 99.3702 382.024 99.1506 382.16 98.964C382.296 98.7774 382.48 98.6309 382.692 98.5395C382.904 98.4482 383.136 98.4155 383.366 98.4448C383.595 98.474 383.812 98.5643 383.994 98.7061L401.154 112.05C401.304 112.166 401.427 112.314 401.513 112.483C401.599 112.652 401.648 112.838 401.654 113.028C401.66 113.217 401.625 113.406 401.55 113.58C401.475 113.755 401.362 113.91 401.22 114.036L384.084 129.27C383.905 129.431 383.685 129.538 383.448 129.58C383.211 129.623 382.967 129.598 382.743 129.508C382.52 129.419 382.326 129.269 382.183 129.075C382.041 128.882 381.955 128.652 381.936 128.412L381.114 118.602C381.088 118.287 380.948 117.993 380.72 117.775C380.493 117.556 380.193 117.428 379.878 117.414V117.414Z" fill="#C5E6F1"/>
<path d="M383.226 131.7C382.375 131.699 381.555 131.378 380.928 130.801C380.302 130.225 379.914 129.434 379.842 128.586L379.086 119.502C375.486 119.502 368.436 120.492 366.69 128.046C366.527 128.768 366.133 129.417 365.566 129.894C365 130.371 364.293 130.649 363.554 130.686C362.815 130.724 362.084 130.518 361.472 130.101C360.861 129.684 360.403 129.078 360.168 128.376C358.428 123.18 358.77 118.5 361.152 114.846C364.152 110.28 370.152 107.496 379.11 106.572L379.824 99.372C379.883 98.768 380.104 98.191 380.462 97.7013C380.821 97.2116 381.304 96.8271 381.862 96.5881C382.42 96.349 383.032 96.2641 383.634 96.3421C384.236 96.4202 384.806 96.6585 385.284 97.032L402.444 110.4C402.837 110.706 403.158 111.094 403.384 111.538C403.61 111.982 403.736 112.47 403.752 112.968C403.768 113.465 403.674 113.961 403.477 114.418C403.28 114.875 402.985 115.284 402.612 115.614L385.476 130.848C384.856 131.399 384.055 131.702 383.226 131.7V131.7ZM379.962 115.32C380.789 115.352 381.576 115.686 382.174 116.259C382.772 116.831 383.14 117.603 383.208 118.428L383.892 126.63L399.102 113.112L383.862 101.262L383.22 107.646C383.14 108.431 382.789 109.164 382.227 109.719C381.665 110.274 380.928 110.617 380.142 110.688C372.192 111.42 366.99 113.592 364.674 117.144C363.192 119.406 363.084 122.04 363.474 124.344C367.152 115.554 376.854 115.182 379.962 115.302V115.32Z" fill="#4C3133"/>
<path d="M330.906 111H324.906C324.349 111 323.815 110.779 323.421 110.385C323.027 109.991 322.806 109.457 322.806 108.9C322.806 108.343 323.027 107.809 323.421 107.415C323.815 107.021 324.349 106.8 324.906 106.8H330.906C331.463 106.8 331.997 107.021 332.391 107.415C332.784 107.809 333.006 108.343 333.006 108.9C333.006 109.457 332.784 109.991 332.391 110.385C331.997 110.779 331.463 111 330.906 111Z" fill="#4C3133"/>
<path d="M391.686 250.608C377.388 233.166 348.918 223.65 329.322 234.804C315.21 242.838 307.614 258.87 303.6 274.602C299.586 290.334 298.248 306.804 292.392 321.948C283.086 345.996 262.812 364.776 239.592 375.948C216.66 387 195.9 390.6 170.61 391.566C173.01 416.112 190.956 437.166 213.138 448.566H342.6C348.574 446.196 354.275 443.188 359.604 439.596C377.988 427.068 390.288 407.274 398.604 386.634C408.033 363.181 412.953 338.159 413.106 312.882C413.244 290.364 405.984 268.044 391.686 250.608Z" fill="#C5E6F1"/>
<path d="M348.528 230.004C364.578 230.004 381.636 238.35 391.686 250.608C405.984 268.044 413.244 290.364 413.118 312.912C412.965 338.189 408.045 363.211 398.616 386.664C390.306 407.304 378.006 427.098 359.616 439.626C354.283 443.219 348.578 446.226 342.6 448.596H213.138C190.938 437.196 172.998 416.112 170.61 391.596C195.9 390.636 216.66 387.03 239.574 375.996C262.812 364.806 283.086 345.996 292.374 321.996C298.23 306.852 299.574 290.382 303.582 274.65C307.59 258.918 315.192 242.886 329.304 234.852C335.177 231.608 341.795 229.953 348.504 230.052L348.528 230.004ZM348.504 225.852C340.62 225.852 333.462 227.652 327.222 231.204C314.106 238.668 304.782 252.936 299.508 273.612C297.99 279.576 296.838 285.678 295.722 291.576C293.802 301.728 291.996 311.31 288.45 320.478C280.188 341.82 261.702 360.678 237.726 372.228C217.494 381.972 198 386.37 170.43 387.42C169.858 387.442 169.297 387.58 168.781 387.827C168.264 388.073 167.804 388.423 167.428 388.854C167.051 389.285 166.767 389.788 166.592 390.333C166.417 390.878 166.355 391.452 166.41 392.022C167.61 404.46 172.698 416.766 181.104 427.626C189.227 437.944 199.497 446.372 211.2 452.328C211.796 452.635 212.456 452.796 213.126 452.796H342.6C343.137 452.797 343.669 452.693 344.166 452.49C350.42 450.006 356.389 446.856 361.968 443.094C378.828 431.61 392.46 413.154 402.498 388.236C412.09 364.28 417.11 338.74 417.3 312.936C417.432 288.792 409.5 265.716 394.914 247.944C383.892 234.492 365.676 225.804 348.51 225.804L348.504 225.852Z" fill="#4C3133"/>
<path d="M355.2 435H247.8C221.724 435 197.844 419.658 187.704 395.634C187.002 393.978 186.384 392.286 185.826 390.582C180.894 391.05 175.83 391.368 170.568 391.566C172.968 416.112 190.914 437.166 213.096 448.566H342.6C357.607 442.7 370.653 432.717 380.238 419.766C377.693 422.015 375.01 424.103 372.204 426.018C366.876 429.614 361.175 432.626 355.2 435V435Z" fill="#81C4D4"/>
<path d="M359.1 264.3C326.1 261.3 326.1 292.5 337.5 304.5C348.9 316.5 370.8 304.8 389.4 306.6C399.546 307.584 412.728 301.8 411.864 296.304C409.976 284.182 405.815 272.525 399.6 261.948C386.508 261.27 383.652 266.532 359.1 264.3Z" fill="#81C4D4"/>
<path d="M397.404 284.328C399.813 284.328 401.766 282.375 401.766 279.966C401.766 277.557 399.813 275.604 397.404 275.604C394.995 275.604 393.042 277.557 393.042 279.966C393.042 282.375 394.995 284.328 397.404 284.328Z" fill="#4C3133"/>
<path d="M360.162 286.488C362.571 286.488 364.524 284.535 364.524 282.126C364.524 279.717 362.571 277.764 360.162 277.764C357.753 277.764 355.8 279.717 355.8 282.126C355.8 284.535 357.753 286.488 360.162 286.488Z" fill="#4C3133"/>
<path d="M397.41 255.948H397.104L392.124 255.444C391.329 255.364 390.597 254.972 390.091 254.353C389.584 253.734 389.345 252.94 389.424 252.144C389.504 251.348 389.896 250.617 390.515 250.11C391.134 249.604 391.929 249.364 392.724 249.444L397.698 249.948C398.092 249.967 398.478 250.064 398.835 250.233C399.192 250.401 399.511 250.638 399.776 250.931C400.041 251.223 400.246 251.564 400.379 251.936C400.512 252.307 400.57 252.701 400.551 253.095C400.532 253.489 400.435 253.875 400.267 254.232C400.098 254.588 399.861 254.908 399.569 255.173C399.276 255.438 398.935 255.643 398.563 255.776C398.192 255.909 397.798 255.967 397.404 255.948H397.41Z" fill="#4C3133"/>
<path d="M353.442 262.8C352.754 262.799 352.086 262.561 351.552 262.127C351.018 261.692 350.65 261.087 350.509 260.413C350.368 259.739 350.464 259.037 350.779 258.425C351.095 257.813 351.612 257.328 352.242 257.052L356.826 255.06C357.556 254.742 358.382 254.726 359.123 255.017C359.864 255.308 360.459 255.881 360.777 256.611C361.096 257.341 361.111 258.167 360.82 258.908C360.529 259.649 359.956 260.244 359.226 260.562L354.636 262.554C354.259 262.717 353.853 262.8 353.442 262.8V262.8Z" fill="#4C3133"/>
<path d="M365.478 216.03C351.27 211.83 333.186 214.902 320.196 222.03C314.514 225.15 309.258 229.296 302.982 230.916C296.706 232.536 288.786 230.586 286.356 224.58C284.922 221.046 285.756 216.882 287.82 213.678C289.884 210.474 293.034 208.116 296.34 206.226C304.695 201.484 314.289 199.378 323.862 200.184C326.442 200.406 329.934 200.226 330.462 197.694C330.858 195.732 328.896 194.094 326.994 193.494C325.092 192.894 322.95 192.726 321.426 191.442C319.476 189.798 319.254 186.696 320.424 184.434C321.594 182.172 323.856 180.648 326.214 179.694C335.76 175.83 347.148 180.252 353.97 187.968C360.792 195.684 363.834 205.998 365.646 216.132L365.478 216.03Z" fill="#C5E6F1"/>
<path d="M298.662 233.55C292.716 233.55 286.662 230.916 284.406 225.366C282.81 221.424 283.428 216.63 286.056 212.544C288.018 209.496 291.042 206.832 295.302 204.402C304.032 199.456 314.05 197.257 324.048 198.09C326.742 198.324 328.248 197.856 328.392 197.274C328.488 196.788 327.594 195.876 326.334 195.474C325.86 195.318 325.338 195.192 324.792 195.054C323.256 194.682 321.522 194.256 320.064 193.026C317.496 190.866 316.842 186.75 318.546 183.426C319.8 180.996 322.176 179.016 325.416 177.708C335.094 173.784 347.472 177.42 355.53 186.534C363.33 195.372 366.216 207.42 367.698 215.718C367.77 216.102 367.733 216.498 367.592 216.862C367.451 217.226 367.211 217.543 366.899 217.777C366.587 218.012 366.215 218.155 365.827 218.189C365.438 218.224 365.047 218.149 364.698 217.974C351.852 214.248 334.398 216.606 321.192 223.854C319.59 224.73 317.97 225.726 316.392 226.686C312.378 229.152 308.232 231.702 303.474 232.932C301.902 233.336 300.286 233.544 298.662 233.55V233.55ZM319.878 202.11C311.993 202.116 304.244 204.163 297.384 208.05C293.724 210.138 291.174 212.352 289.584 214.818C287.718 217.71 287.226 221.148 288.294 223.818C290.274 228.708 297.18 230.268 302.448 228.912C306.6 227.838 310.296 225.564 314.214 223.158C315.822 222.168 317.484 221.148 319.182 220.218C332.538 212.886 349.332 210.27 362.934 213.24C361.38 205.776 358.548 196.344 352.374 189.36C346.734 182.976 336.384 177.84 326.988 181.644C325.386 182.292 323.268 183.474 322.272 185.4C321.474 186.948 321.672 188.94 322.758 189.84C323.466 190.44 324.558 190.698 325.758 190.998C326.358 191.148 326.958 191.298 327.606 191.502C330.504 192.444 333.108 195.03 332.478 198.138C332.112 199.938 330.474 202.896 323.652 202.308C322.416 202.164 321.144 202.11 319.878 202.11Z" fill="#4C3133"/>
<path d="M465.438 227.304C446.442 233.094 430.236 215.34 426.612 199.104C425.94 196.104 425.274 192.93 426.132 189.966C426.99 187.002 429.942 184.398 432.954 185.058C435.966 185.718 437.466 189 438.774 191.796C440.082 194.592 442.374 197.676 445.41 197.31C448.71 196.92 450.066 192.942 450.702 189.678L454.62 169.53C455.19 166.596 456.048 163.26 458.724 161.922C461.724 160.428 465.516 162.48 467.088 165.432C468.66 168.384 468.588 171.912 468.438 175.254C468.288 178.596 468.102 182.094 469.494 185.142C470.88 178.615 473.453 172.398 477.084 166.8C478.608 164.46 481.134 161.958 483.756 162.906C486.096 163.752 486.702 166.734 486.792 169.218C487.045 176.234 486.083 183.241 483.948 189.93C485.148 186.66 486.45 183.258 489.054 180.93C491.658 178.602 495.996 177.852 498.552 180.216C501.816 183.216 500.184 188.616 498.102 192.558C493.779 200.711 488.467 208.301 482.286 215.154C477.6 220.35 472.146 225.258 465.438 227.304Z" fill="#C5E6F1"/>
<path d="M458.076 230.52C453.041 230.484 448.107 229.097 443.79 226.506C434.562 221.106 426.99 210.546 424.59 199.536C423.936 196.584 423.114 192.906 424.146 189.336C425.244 185.532 429.114 182.016 433.434 182.964C437.43 183.84 439.224 187.68 440.634 190.764L440.676 190.86C441.18 191.94 443.004 195.438 445.158 195.18C447.126 194.946 448.158 191.814 448.638 189.234L452.556 169.08C453.048 166.578 453.954 161.91 457.788 159.996C461.958 157.92 466.92 160.596 468.942 164.4C470.616 167.556 470.706 171 470.562 174.6C471.877 171.463 473.472 168.451 475.326 165.6C477.972 161.532 481.392 159.768 484.47 160.878C486.378 161.568 488.67 163.548 488.892 169.086C489.01 172.279 488.883 175.476 488.514 178.65C491.79 176.334 496.776 175.68 499.974 178.65C503.328 181.752 503.322 187.17 499.974 193.518C495.57 201.824 490.157 209.555 483.858 216.534C479.598 221.25 473.73 226.956 466.062 229.296C463.475 230.097 460.784 230.509 458.076 230.52V230.52ZM432 187.032C430.338 187.032 428.652 188.748 428.136 190.524C427.404 193.044 428.064 196.008 428.652 198.624C430.86 208.542 437.652 218.064 445.89 222.876C451.926 226.392 458.49 227.232 464.814 225.276C471.498 223.242 476.814 218.034 480.714 213.72C486.786 206.99 492 199.533 496.236 191.52C497.124 189.846 499.806 184.194 497.112 181.704C495.426 180.144 492.24 180.846 490.44 182.448C488.166 184.464 486.966 187.716 485.904 190.584C485.723 191.111 485.339 191.544 484.839 191.788C484.338 192.032 483.761 192.067 483.234 191.886C482.707 191.704 482.274 191.321 482.03 190.821C481.786 190.32 481.75 189.743 481.932 189.216C484.004 182.76 484.936 175.993 484.686 169.218C484.638 168.06 484.398 165.3 483.03 164.808C481.794 164.364 480.03 166.008 478.83 167.874C475.331 173.25 472.855 179.226 471.528 185.502C471.437 185.935 471.211 186.328 470.884 186.625C470.556 186.922 470.143 187.108 469.703 187.157C469.264 187.205 468.82 187.114 468.436 186.895C468.051 186.677 467.745 186.342 467.562 185.94C465.978 182.466 466.158 178.596 466.314 175.188V175.086C466.464 171.858 466.494 168.762 465.21 166.35C464.136 164.334 461.526 162.792 459.642 163.734C457.896 164.604 457.176 167.19 456.642 169.86L452.724 190.008C451.608 195.762 449.214 198.9 445.62 199.326C442.176 199.74 439.02 197.352 436.836 192.612L436.788 192.516C435.684 190.152 434.436 187.464 432.468 187.038C432.313 187.02 432.156 187.018 432 187.032V187.032Z" fill="#4C3133"/>
<path d="M445.002 198.312C447.856 198.404 450.647 199.178 453.143 200.567C455.638 201.956 457.765 203.921 459.348 206.298" fill="#C5E6F1"/>
<path d="M459.354 208.398C459.004 208.399 458.658 208.312 458.35 208.146C458.042 207.979 457.781 207.738 457.59 207.444C456.189 205.356 454.314 203.629 452.118 202.405C449.921 201.18 447.467 200.493 444.954 200.4C444.397 200.387 443.868 200.154 443.483 199.751C443.098 199.348 442.889 198.809 442.902 198.252C442.915 197.695 443.148 197.166 443.551 196.781C443.954 196.396 444.493 196.187 445.05 196.2C448.246 196.293 451.372 197.153 454.166 198.706C456.961 200.26 459.341 202.462 461.106 205.128C461.258 205.358 461.363 205.616 461.415 205.887C461.467 206.158 461.465 206.437 461.409 206.707C461.353 206.977 461.245 207.234 461.09 207.462C460.935 207.691 460.737 207.886 460.506 208.038C460.165 208.267 459.765 208.392 459.354 208.398V208.398Z" fill="#4C3133"/>
<path d="M411.3 171.3C411.3 171.3 405.3 194.7 425.7 223.5Z" fill="white"/>
<path d="M425.7 225.6C425.364 225.6 425.033 225.52 424.734 225.365C424.435 225.211 424.178 224.987 423.984 224.712C403.26 195.456 408.984 171.774 409.266 170.778C409.416 170.252 409.765 169.806 410.239 169.533C410.713 169.261 411.275 169.184 411.805 169.319C412.334 169.455 412.791 169.791 413.076 170.257C413.362 170.723 413.454 171.283 413.334 171.816C413.262 172.116 407.934 194.754 427.416 222.288C427.638 222.602 427.77 222.972 427.796 223.356C427.823 223.74 427.743 224.124 427.566 224.466C427.389 224.808 427.121 225.095 426.792 225.295C426.463 225.494 426.085 225.6 425.7 225.6V225.6Z" fill="#4C3133"/>
<path d="M55.3803 183.186H223.56C226.488 183.186 229.296 184.349 231.367 186.419C233.437 188.49 234.6 191.298 234.6 194.226V243.216C234.6 246.144 233.437 248.952 231.367 251.022C229.296 253.093 226.488 254.256 223.56 254.256H218.82C218.489 254.257 218.171 254.39 217.938 254.625C217.704 254.86 217.572 255.178 217.572 255.51V268.356C217.572 268.576 217.514 268.792 217.403 268.983C217.293 269.173 217.134 269.331 216.942 269.44C216.751 269.549 216.534 269.606 216.314 269.604C216.094 269.602 215.878 269.542 215.688 269.43L190.35 254.43C190.158 254.316 189.938 254.256 189.714 254.256H55.3803C52.4523 254.256 49.6443 253.093 47.5739 251.022C45.5035 248.952 44.3403 246.144 44.3403 243.216V194.226C44.3403 191.298 45.5035 188.49 47.5739 186.419C49.6443 184.349 52.4523 183.186 55.3803 183.186V183.186Z" fill="white"/>
<path d="M223.56 183.186C226.488 183.186 229.296 184.349 231.367 186.419C233.437 188.49 234.6 191.298 234.6 194.226V243.216C234.6 246.144 233.437 248.952 231.367 251.022C229.296 253.093 226.488 254.256 223.56 254.256H218.82C218.489 254.257 218.171 254.39 217.937 254.625C217.703 254.86 217.572 255.178 217.572 255.51V268.356C217.572 268.576 217.514 268.792 217.403 268.983C217.293 269.173 217.134 269.331 216.942 269.44C216.751 269.549 216.534 269.606 216.314 269.604C216.094 269.602 215.878 269.542 215.688 269.43L190.35 254.43C190.157 254.316 189.938 254.256 189.714 254.256H55.3801C52.4521 254.256 49.6441 253.093 47.5737 251.022C45.5033 248.952 44.3401 246.144 44.3401 243.216V194.226C44.3401 191.298 45.5033 188.49 47.5737 186.419C49.6441 184.349 52.4521 183.186 55.3801 183.186H223.56ZM223.56 178.986H55.3801C51.3397 178.991 47.4661 180.598 44.6091 183.455C41.7521 186.312 40.1449 190.185 40.1401 194.226V243.216C40.1433 247.257 41.75 251.131 44.6073 253.989C47.4647 256.846 51.3392 258.453 55.3801 258.456H188.904L213.546 273.042C214.373 273.532 215.316 273.795 216.277 273.803C217.239 273.811 218.185 273.565 219.021 273.089C219.856 272.613 220.551 271.925 221.034 271.093C221.517 270.262 221.772 269.317 221.772 268.356V258.456H223.572C227.613 258.453 231.488 256.846 234.345 253.989C237.202 251.131 238.809 247.257 238.812 243.216V194.226C238.807 190.185 237.2 186.312 234.343 183.455C231.486 180.598 227.613 178.991 223.572 178.986H223.56Z" fill="#4C3133"/>
<path d="M44.3402 201.696C54.1521 201.696 62.1062 193.742 62.1062 183.93C62.1062 174.118 54.1521 166.164 44.3402 166.164C34.5283 166.164 26.5742 174.118 26.5742 183.93C26.5742 193.742 34.5283 201.696 44.3402 201.696Z" fill="white"/>
<path d="M44.34 166.164C47.8538 166.164 51.2887 167.206 54.2103 169.158C57.1319 171.11 59.409 173.885 60.7537 177.131C62.0983 180.377 62.4502 183.95 61.7647 187.396C61.0792 190.842 59.3871 194.008 56.9025 196.492C54.4179 198.977 51.2523 200.669 47.806 201.355C44.3597 202.04 40.7876 201.688 37.5413 200.344C34.295 198.999 31.5203 196.722 29.5681 193.8C27.616 190.879 26.574 187.444 26.574 183.93C26.574 179.218 28.4458 174.699 31.7776 171.367C35.1093 168.036 39.6282 166.164 44.34 166.164V166.164ZM44.34 161.964C39.9956 161.964 35.7487 163.252 32.1364 165.666C28.5241 168.079 25.7087 171.51 24.0461 175.524C22.3835 179.538 21.9485 183.954 22.7961 188.215C23.6437 192.476 25.7357 196.39 28.8077 199.462C31.8797 202.534 35.7937 204.626 40.0547 205.474C44.3157 206.321 48.7323 205.886 52.7461 204.224C56.7598 202.561 60.1904 199.746 62.6041 196.134C65.0178 192.521 66.306 188.274 66.306 183.93C66.2997 178.106 63.9834 172.523 59.8653 168.405C55.7473 164.287 50.1638 161.97 44.34 161.964V161.964Z" fill="#4C3133"/>
<path d="M178.344 233.532H207.198C210.065 233.532 212.388 231.208 212.388 228.342V211.332C212.388 208.466 210.065 206.142 207.198 206.142H178.344C175.478 206.142 173.154 208.466 173.154 211.332V228.342C173.154 231.208 175.478 233.532 178.344 233.532Z" fill="#C5E6F1"/>
<path d="M207.198 235.632H178.344C176.411 235.629 174.557 234.859 173.191 233.491C171.824 232.123 171.056 230.269 171.054 228.336V211.332C171.056 209.398 171.824 207.544 173.191 206.177C174.557 204.809 176.411 204.039 178.344 204.036H207.198C209.132 204.039 210.985 204.809 212.352 206.177C213.718 207.544 214.487 209.398 214.488 211.332V228.336C214.487 230.269 213.718 232.123 212.352 233.491C210.985 234.859 209.132 235.629 207.198 235.632V235.632ZM178.344 208.236C177.524 208.237 176.738 208.564 176.159 209.145C175.58 209.725 175.254 210.512 175.254 211.332V228.336C175.254 229.156 175.58 229.943 176.159 230.523C176.738 231.103 177.524 231.43 178.344 231.432H207.198C208.018 231.43 208.804 231.103 209.384 230.523C209.963 229.943 210.288 229.156 210.288 228.336V211.332C210.288 210.512 209.963 209.725 209.384 209.145C208.804 208.564 208.018 208.237 207.198 208.236H178.344Z" fill="#4C3133"/>
<path d="M174.03 233.328C173.604 233.328 173.188 233.198 172.837 232.956C172.487 232.714 172.218 232.371 172.067 231.972C171.916 231.574 171.89 231.139 171.992 230.725C172.094 230.311 172.319 229.938 172.638 229.656L191.748 212.712C192.131 212.38 192.621 212.197 193.128 212.197C193.635 212.197 194.125 212.38 194.508 212.712L213.348 228.786C213.772 229.147 214.036 229.662 214.08 230.217C214.124 230.773 213.946 231.323 213.585 231.747C213.224 232.171 212.709 232.434 212.154 232.479C211.599 232.523 211.048 232.345 210.624 231.984L193.2 217.062L175.428 232.8C175.042 233.141 174.545 233.329 174.03 233.328V233.328Z" fill="#4C3133"/>
<path d="M210.72 207.522L193.14 222.426L174.828 207.522" fill="#C5E6F1"/>
<path d="M193.14 224.526C192.658 224.527 192.191 224.359 191.82 224.052L173.502 209.148C173.07 208.796 172.795 208.287 172.739 207.733C172.682 207.179 172.847 206.625 173.199 206.193C173.551 205.761 174.06 205.486 174.614 205.429C175.168 205.373 175.722 205.538 176.154 205.89L193.116 219.69L209.358 205.89C209.783 205.529 210.334 205.353 210.889 205.398C211.444 205.444 211.959 205.708 212.319 206.133C212.679 206.558 212.856 207.108 212.811 207.664C212.765 208.219 212.501 208.733 212.076 209.094L194.502 223.998C194.126 224.331 193.642 224.518 193.14 224.526V224.526Z" fill="#4C3133"/>
<path d="M158.346 230.448H69.5102C68.9532 230.448 68.4191 230.227 68.0252 229.833C67.6314 229.439 67.4102 228.905 67.4102 228.348C67.4102 227.791 67.6314 227.257 68.0252 226.863C68.4191 226.469 68.9532 226.248 69.5102 226.248H158.346C158.903 226.248 159.437 226.469 159.831 226.863C160.225 227.257 160.446 227.791 160.446 228.348C160.446 228.905 160.225 229.439 159.831 229.833C159.437 230.227 158.903 230.448 158.346 230.448Z" fill="#4C3133"/>
<path d="M158.346 216.384H158.316L110.196 215.64C109.92 215.636 109.648 215.577 109.395 215.467C109.142 215.358 108.913 215.2 108.721 215.002C108.529 214.803 108.378 214.57 108.276 214.313C108.175 214.057 108.125 213.783 108.129 213.507C108.133 213.231 108.192 212.959 108.302 212.706C108.411 212.453 108.57 212.224 108.768 212.032C108.966 211.84 109.2 211.689 109.456 211.587C109.712 211.486 109.986 211.436 110.262 211.44L158.382 212.184C158.939 212.189 159.471 212.415 159.862 212.812C160.252 213.209 160.469 213.745 160.464 214.302C160.459 214.859 160.234 215.391 159.836 215.782C159.439 216.172 158.903 216.389 158.346 216.384V216.384Z" fill="#4C3133"/>
<path d="M42.8999 192H42.8339C42.4938 191.989 42.1616 191.895 41.8658 191.726C41.57 191.558 41.3195 191.32 41.1359 191.034L35.7359 182.634C35.5693 182.403 35.4515 182.14 35.3897 181.861C35.3279 181.583 35.3235 181.295 35.3767 181.015C35.4299 180.735 35.5395 180.468 35.699 180.232C35.8585 179.996 36.0644 179.794 36.3043 179.64C36.5441 179.486 36.8128 179.382 37.0941 179.335C37.3753 179.288 37.6632 179.299 37.9401 179.367C38.217 179.435 38.4772 179.558 38.7048 179.73C38.9324 179.902 39.1227 180.118 39.2639 180.366L43.0199 186.204L51.4199 174.852C51.578 174.616 51.7823 174.414 52.0205 174.259C52.2588 174.104 52.526 173.999 52.8059 173.951C53.0859 173.902 53.3728 173.911 53.6493 173.976C53.9258 174.042 54.1861 174.163 54.4145 174.332C54.6429 174.501 54.8346 174.715 54.978 174.96C55.1215 175.205 55.2136 175.477 55.2489 175.759C55.2842 176.041 55.2619 176.327 55.1833 176.6C55.1048 176.873 54.9716 177.128 54.7919 177.348L44.5919 191.148C44.3974 191.414 44.1426 191.629 43.8484 191.777C43.5543 191.926 43.2292 192.002 42.8999 192V192Z" fill="#4C3133"/>
<path d="M103.5 215.4H95.1C94.543 215.4 94.0089 215.179 93.6151 214.785C93.2213 214.391 93 213.857 93 213.3C93 212.743 93.2213 212.209 93.6151 211.815C94.0089 211.421 94.543 211.2 95.1 211.2H103.5C104.057 211.2 104.591 211.421 104.985 211.815C105.379 212.209 105.6 212.743 105.6 213.3C105.6 213.857 105.379 214.391 104.985 214.785C104.591 215.179 104.057 215.4 103.5 215.4V215.4Z" fill="#4C3133"/>
<path d="M454.62 368.556H311.4C308.906 368.556 306.515 369.546 304.752 371.31C302.989 373.073 301.998 375.464 301.998 377.958V419.682C301.997 420.917 302.24 422.14 302.712 423.282C303.184 424.423 303.877 425.46 304.75 426.334C305.623 427.208 306.66 427.901 307.801 428.374C308.942 428.847 310.165 429.09 311.4 429.09H315.432C315.714 429.09 315.985 429.202 316.185 429.401C316.385 429.6 316.498 429.87 316.5 430.152V441.096C316.5 441.283 316.55 441.467 316.645 441.628C316.739 441.79 316.874 441.924 317.037 442.016C317.199 442.109 317.383 442.157 317.57 442.155C317.758 442.154 317.941 442.103 318.102 442.008L339.702 429.234C339.868 429.139 340.057 429.089 340.248 429.09H454.62C457.114 429.088 459.506 428.096 461.269 426.332C463.032 424.568 464.022 422.176 464.022 419.682V377.958C464.02 375.465 463.029 373.074 461.267 371.311C459.504 369.549 457.113 368.557 454.62 368.556Z" fill="white"/>
<path d="M454.62 368.556C457.113 368.558 459.503 369.549 461.266 371.311C463.029 373.074 464.02 375.465 464.022 377.958V419.682C464.022 422.176 463.031 424.568 461.268 426.332C459.505 428.096 457.114 429.088 454.62 429.09H340.2C340.008 429.089 339.82 429.139 339.654 429.234L318.054 442.008C317.893 442.105 317.709 442.158 317.522 442.16C317.334 442.162 317.149 442.115 316.985 442.022C316.822 441.929 316.687 441.794 316.593 441.631C316.499 441.469 316.45 441.284 316.452 441.096V430.152C316.45 429.87 316.337 429.6 316.137 429.401C315.937 429.202 315.666 429.09 315.384 429.09H311.4C310.165 429.09 308.942 428.847 307.8 428.374C306.659 427.901 305.623 427.208 304.75 426.334C303.876 425.46 303.184 424.423 302.712 423.282C302.24 422.14 301.997 420.917 301.998 419.682V377.958C301.998 375.464 302.988 373.073 304.752 371.31C306.515 369.547 308.906 368.556 311.4 368.556H454.62ZM454.62 364.356H311.4C307.794 364.361 304.337 365.795 301.787 368.345C299.237 370.895 297.803 374.352 297.798 377.958V419.682C297.801 423.289 299.235 426.748 301.785 429.299C304.335 431.85 307.793 433.285 311.4 433.29H312.3V441.09C312.301 442.018 312.548 442.93 313.015 443.732C313.481 444.534 314.152 445.199 314.958 445.658C315.765 446.118 316.678 446.357 317.606 446.35C318.534 446.343 319.444 446.091 320.244 445.62L341.088 433.284H454.62C458.227 433.279 461.685 431.844 464.235 429.293C466.785 426.741 468.219 423.283 468.222 419.676V377.958C468.217 374.352 466.782 370.895 464.233 368.345C461.683 365.795 458.226 364.361 454.62 364.356V364.356Z" fill="#4C3133"/>
<path d="M404.118 408.924C411.083 408.924 416.73 403.277 416.73 396.312C416.73 389.347 411.083 383.7 404.118 383.7C397.152 383.7 391.506 389.347 391.506 396.312C391.506 403.277 397.152 408.924 404.118 408.924Z" fill="#F0F0F0"/>
<path d="M404.118 411C401.208 411 398.364 410.137 395.944 408.521C393.525 406.904 391.639 404.606 390.526 401.918C389.412 399.23 389.121 396.272 389.688 393.418C390.256 390.564 391.657 387.942 393.715 385.885C395.772 383.827 398.394 382.426 401.248 381.859C404.101 381.291 407.06 381.582 409.748 382.696C412.436 383.809 414.734 385.695 416.35 388.114C417.967 390.534 418.83 393.378 418.83 396.288C418.825 400.188 417.273 403.928 414.515 406.686C411.757 409.444 408.018 410.995 404.118 411ZM404.118 385.8C402.039 385.8 400.006 386.416 398.278 387.572C396.549 388.727 395.202 390.368 394.406 392.289C393.61 394.21 393.402 396.324 393.808 398.363C394.213 400.402 395.215 402.275 396.685 403.745C398.155 405.215 400.028 406.216 402.067 406.622C404.106 407.028 406.22 406.819 408.141 406.024C410.061 405.228 411.703 403.881 412.858 402.152C414.013 400.423 414.63 398.391 414.63 396.312C414.627 393.525 413.518 390.853 411.547 388.882C409.577 386.912 406.905 385.803 404.118 385.8V385.8Z" fill="#4C3133"/>
<path d="M447.942 393.78H440.028C442.308 392.07 444.564 390.18 444.228 386.844C443.628 380.538 439.188 383.688 439.188 386.844C439.188 391.254 432.408 389.364 432.33 396.3C432.276 396.526 432.25 396.758 432.252 396.99V404.19C432.252 404.971 432.536 405.726 433.05 406.314C433.564 406.902 434.274 407.283 435.048 407.388L444.6 408.666C445.418 408.775 446.25 408.709 447.041 408.47C447.831 408.232 448.561 407.827 449.182 407.283C449.803 406.739 450.301 406.069 450.642 405.317C450.982 404.565 451.158 403.749 451.158 402.924V397.002C451.159 396.579 451.076 396.16 450.915 395.769C450.754 395.378 450.517 395.023 450.218 394.724C449.92 394.425 449.565 394.187 449.174 394.025C448.784 393.863 448.365 393.78 447.942 393.78V393.78Z" fill="#C5E6F1"/>
<path d="M442.02 383.202C443.022 383.202 443.964 384.18 444.228 386.844C444.564 390.192 442.308 392.07 440.028 393.78H447.942C448.365 393.779 448.785 393.862 449.176 394.024C449.567 394.185 449.923 394.422 450.222 394.722C450.521 395.021 450.759 395.377 450.92 395.768C451.082 396.159 451.165 396.579 451.164 397.002V402.924C451.168 403.751 450.993 404.569 450.653 405.323C450.313 406.077 449.815 406.748 449.192 407.293C448.57 407.837 447.838 408.242 447.046 408.479C446.253 408.716 445.419 408.779 444.6 408.666L435.048 407.4C434.274 407.295 433.564 406.914 433.05 406.326C432.536 405.738 432.252 404.983 432.252 404.202V397.002C432.25 396.77 432.276 396.538 432.33 396.312V396.312C432.408 389.376 439.188 391.266 439.188 386.856C439.188 385.056 440.658 383.214 442.02 383.214V383.202ZM442.02 379.014C440.999 379.044 439.997 379.306 439.092 379.78C438.187 380.254 437.401 380.928 436.794 381.75C435.756 383.047 435.129 384.624 434.994 386.28L434.358 386.628C432.396 387.678 428.358 389.838 428.124 395.892C428.067 396.263 428.039 396.638 428.04 397.014V404.214C428.044 406.011 428.698 407.747 429.881 409.1C431.064 410.453 432.697 411.333 434.478 411.576L444.042 412.848C444.484 412.908 444.929 412.938 445.374 412.938C448.022 412.933 450.56 411.878 452.431 410.004C454.301 408.13 455.352 405.59 455.352 402.942V397.02C455.351 395.106 454.611 393.266 453.286 391.885C451.961 390.503 450.154 389.686 448.242 389.604C448.458 388.564 448.51 387.498 448.398 386.442C447.69 379.38 442.95 379.02 442.008 379.02L442.02 379.014Z" fill="#4C3133"/>
<path d="M377.85 412.242H316.686C316.129 412.242 315.595 412.021 315.201 411.627C314.807 411.233 314.586 410.699 314.586 410.142C314.586 409.585 314.807 409.051 315.201 408.657C315.595 408.263 316.129 408.042 316.686 408.042H377.85C378.407 408.042 378.941 408.263 379.335 408.657C379.729 409.051 379.95 409.585 379.95 410.142C379.95 410.699 379.729 411.233 379.335 411.627C378.941 412.021 378.407 412.242 377.85 412.242Z" fill="#4C3133"/>
<path d="M343.8 399C343.243 399.005 342.707 398.788 342.31 398.398C341.912 398.007 341.686 397.475 341.682 396.918C341.677 396.361 341.894 395.825 342.284 395.428C342.675 395.031 343.207 394.805 343.764 394.8L377.814 394.2C378.371 394.19 378.909 394.401 379.31 394.788C379.711 395.174 379.942 395.704 379.953 396.261C379.963 396.818 379.752 397.356 379.365 397.757C378.979 398.159 378.449 398.39 377.892 398.4L343.842 399H343.8Z" fill="#4C3133"/>
<path d="M333.9 398.4H328.5C327.943 398.4 327.409 398.179 327.015 397.785C326.621 397.391 326.4 396.857 326.4 396.3C326.4 395.743 326.621 395.209 327.015 394.815C327.409 394.421 327.943 394.2 328.5 394.2H333.9C334.457 394.2 334.991 394.421 335.385 394.815C335.779 395.209 336 395.743 336 396.3C336 396.857 335.779 397.391 335.385 397.785C334.991 398.179 334.457 398.4 333.9 398.4V398.4Z" fill="#4C3133"/>
</svg>
