<svg width="600" height="600" viewBox="0 0 600 600" fill="none" xmlns="http://www.w3.org/2000/svg">
<path d="M288.452 390.044C275.329 385.883 261.424 381.195 252.821 370.451C245.482 361.277 243.218 349.154 241.471 337.532C240.394 330.392 239.417 323.238 238.539 316.069C237.02 303.568 235.826 290.787 238.425 278.462C241.023 266.138 247.984 254.164 259.177 248.388C272.011 241.778 288.312 244.113 300.514 236.423C315.437 227.039 318.369 207.138 325.093 190.89C330.126 179.022 337.714 168.411 347.317 159.812C356.92 151.213 368.302 144.839 380.651 141.143C413.324 131.627 450.878 143.407 473.228 169.04C480.294 177.134 486.088 186.86 487.045 197.552C489.74 227.627 455.118 249.757 453.152 279.876C451.835 300.066 465.67 318.852 464.783 339.059C464.248 351.191 458.296 362.647 450.044 371.539C441.793 380.432 431.355 387.05 420.575 392.651C387.459 409.822 350.544 418.354 313.251 417.459" fill="#F4F6F9"/>
<path d="M487.668 338.77L486.869 338.41C486.711 322.933 486.869 308.379 487.747 291.007L487.835 290.664C490.202 291.793 492.852 292.193 495.448 291.812C498.043 291.431 500.466 290.287 502.41 288.526C504.354 286.765 505.73 284.465 506.364 281.92C506.998 279.375 506.861 276.698 505.971 274.231C505.022 271.791 503.402 269.669 501.299 268.11C499.196 266.55 496.695 265.617 494.085 265.418L502.459 231.288L481.681 223.387C475.203 222.158 468.25 223.931 462.307 226.784C444.355 235.387 426.632 244.429 410.734 251.978C410.734 251.978 425.658 264.698 433.102 270.895C433.102 270.895 420.759 294.255 414.158 306.009C391.562 314.313 370.784 327.165 352.253 342.544C342.158 350.919 332.414 360.487 327.674 372.715C325.875 377.41 325.004 382.41 325.11 387.437C322.214 385.926 319.223 384.603 316.156 383.478C305.069 379.255 292.762 375.63 285.731 366.07C282.535 361.734 279.419 355.685 274.038 356.072C270.123 356.361 267.779 359.934 265.628 363.454C263.53 360.811 261.654 357.998 260.019 355.045C264.004 355.369 267.726 353.087 270.825 350.559C276.092 346.249 280.753 340.569 281.693 333.827C282.632 327.086 278.726 319.369 272.036 317.947C271.345 317.772 270.621 317.772 269.93 317.947C267.946 318.527 267.296 321.099 267.7 323.127C268.104 325.154 269.157 327.042 269.245 329.105C269.447 333.783 264.25 337.295 259.589 336.917C254.927 336.54 250.933 333.406 247.633 330.097C243.682 326.102 240.083 321.108 240.224 315.498C240.193 314.378 240.498 313.274 241.102 312.329C244.788 307.229 254.927 316.446 258.509 311.276C260.01 309.108 258.702 306.097 256.999 304.078C253.46 299.895 248.465 297.213 243.024 296.572C240.303 296.265 237.23 296.625 235.422 298.67C234.026 300.241 233.666 302.471 233.535 304.569C233.192 309.627 233.666 314.708 234.939 319.615C231.588 309.507 226.928 299.88 221.078 290.98C219.998 289.356 218.62 287.592 216.689 287.469C214.512 287.32 212.712 289.435 212.414 291.595C212.115 293.754 212.923 295.905 213.748 297.924C217.126 306.23 221.089 314.285 225.608 322.029L214.6 303.911C213.511 302.155 211.966 300.092 209.859 300.399C206.769 300.838 206.857 305.342 207.876 308.3C209.579 313.233 211.475 318.1 213.564 322.898L208.297 311.486C207.7 310.179 206.857 308.704 205.426 308.546C203.557 308.353 202.38 310.565 202.187 312.435C201.687 317.342 204.075 322.038 206.418 326.375C215.817 343.82 225.611 361.046 235.799 378.053C226.609 381.942 232.666 396.803 237.897 402.676C244.323 409.892 253.233 414.456 259.993 421.356C267.147 428.651 271.545 438.167 277.637 446.375C290.866 464.186 303.823 485.473 326.015 485.877C326.015 485.877 351.472 441.108 404.142 439.352C456.812 437.596 450.667 407.75 474.369 391.949C498.07 376.148 521.526 390.132 521.526 390.132C515.459 370.09 503.695 352.245 487.668 338.77Z" fill="white"/>
<path d="M94.6704 348.189L111.718 334.863L111.85 335.047C116.157 341.064 121.424 341.827 127.651 337.339C128.142 336.988 128.66 336.566 129.231 336.075C136.183 330.263 138.817 323.955 137.131 317.148C134.498 313.347 132.83 310.96 132.128 309.985C129.137 305.627 125.122 302.071 120.435 299.627C115.753 297.286 111.855 297.233 108.742 299.469L107.645 300.25C104.461 303.364 100.95 309.824 97.1108 319.633L80.4319 323.302L47.0742 271.159L91.3434 232.947L104.862 249.301L73.26 273.318L88.1832 300.663C93.7663 290.129 98.8957 283.188 103.572 279.84C104.507 279.164 105.57 278.683 106.697 278.427C113.573 275.068 119.914 274.749 125.719 277.47C132.555 280.473 138.866 286.009 144.654 294.079C146.857 297.134 148.885 300.311 150.729 303.595C161.123 319.115 158.896 334.079 144.049 348.487C142.333 350.156 140.499 351.699 138.562 353.105C125.143 362.72 110.512 361.081 94.6704 348.189ZM206.849 177.52C208.004 185.323 208.469 193.214 208.236 201.099C207.996 209.106 206.958 217.069 205.137 224.87C201.678 240.004 196.245 250.07 188.836 255.068C181.983 259.898 173.79 262.464 165.406 262.407L164.063 262.363C156.958 262.243 149.936 260.805 143.355 258.123C136.789 255.454 132.128 248.06 129.371 235.94C127.77 228.675 127.098 221.236 127.37 213.801C127.574 208.03 128.205 202.282 129.257 196.604C131.943 182.5 134.782 171.867 137.772 164.704C140.763 157.541 151.61 149.889 170.313 141.748C177.883 142.335 185.276 144.333 192.11 147.639C199.613 151.126 204.526 161.087 206.849 177.52ZM177.003 164.353C160.435 168.391 151.253 175.276 149.456 185.008C148.544 190.135 148.007 195.323 147.85 200.528C147.692 205.585 147.871 210.647 148.385 215.68C149.398 226.319 151.153 233.658 153.652 237.696C155.355 240.622 161.357 242.231 171.657 242.524C173.009 242.53 174.348 242.267 175.598 241.751C180.28 240.253 184.294 233.766 187.642 222.29C189.624 215.889 190.774 209.259 191.065 202.565C191.197 198.841 190.938 195.113 190.293 191.443C188.701 182.208 184.271 173.184 177.003 164.37V164.353Z" fill="#9ED5F0"/>
<path d="M294.319 238.978L267.658 233.983C264.775 233.443 262 235.343 261.46 238.226L260.209 244.904C259.669 247.787 261.568 250.562 264.451 251.102L291.112 256.096C293.995 256.636 296.77 254.737 297.31 251.854L298.561 245.176C299.101 242.293 297.202 239.518 294.319 238.978Z" fill="white"/>
<path d="M294.816 236.388L268.156 231.393C267.67 231.303 267.176 231.256 266.681 231.252C264.828 231.254 263.034 231.903 261.609 233.087C260.184 234.272 259.217 235.918 258.878 237.74L257.631 244.42C257.433 245.446 257.441 246.501 257.653 247.524C257.866 248.547 258.279 249.517 258.87 250.38C259.46 251.242 260.215 251.978 261.092 252.546C261.969 253.115 262.95 253.503 263.978 253.69L290.638 258.685C291.121 258.772 291.612 258.816 292.104 258.816C293.958 258.824 295.756 258.179 297.182 256.995C298.609 255.81 299.574 254.162 299.908 252.338L301.163 245.658C301.546 243.587 301.093 241.45 299.903 239.712C298.714 237.975 296.885 236.78 294.816 236.388ZM298.573 245.166L297.318 251.846C297.1 253.071 296.457 254.178 295.501 254.974C294.545 255.769 293.338 256.2 292.095 256.192C291.765 256.192 291.436 256.163 291.112 256.104L264.452 251.109C263.764 250.986 263.107 250.727 262.52 250.347C261.934 249.968 261.428 249.475 261.033 248.898C260.639 248.322 260.363 247.672 260.222 246.988C260.081 246.303 260.077 245.597 260.212 244.911L261.458 238.231C261.582 237.543 261.841 236.887 262.22 236.3C262.6 235.713 263.092 235.207 263.669 234.813C264.246 234.418 264.895 234.142 265.58 234.001C266.264 233.86 266.97 233.857 267.656 233.991L294.316 238.986C295.004 239.108 295.66 239.366 296.247 239.745C296.835 240.123 297.341 240.615 297.736 241.191C298.131 241.767 298.408 242.416 298.551 243.1C298.693 243.783 298.697 244.489 298.564 245.175L298.573 245.166ZM271.545 295.299L266.181 323.908C265.97 325.033 265.321 326.029 264.376 326.676C263.431 327.323 262.268 327.568 261.142 327.358L258.439 326.857C257.312 326.644 256.317 325.993 255.67 325.047C255.023 324.101 254.778 322.936 254.989 321.81L260.344 293.201C260.557 292.075 261.208 291.079 262.154 290.432C263.1 289.786 264.264 289.541 265.391 289.751L266.137 289.892C266.453 286.006 266.921 282.129 267.542 278.26C267.497 278.195 267.447 278.133 267.393 278.076C267.257 278.043 267.126 277.99 267.006 277.918C266.128 277.488 265.321 276.856 264.504 276.338C262.959 275.355 261.423 274.363 259.896 273.345C256.724 271.238 253.602 269.064 250.529 266.822C250.316 266.671 250.147 266.465 250.042 266.225C249.937 265.985 249.899 265.721 249.932 265.462C249.538 257.151 250.405 248.828 252.504 240.777C252.596 240.439 252.819 240.152 253.122 239.978C253.426 239.805 253.786 239.759 254.124 239.851C254.462 239.943 254.749 240.165 254.923 240.469C255.096 240.772 255.142 241.133 255.05 241.47C253.05 249.156 252.206 257.097 252.548 265.031C255.296 267.015 258.061 268.955 260.879 270.834C262.395 271.852 263.928 272.856 265.479 273.845C266.769 274.661 268.604 275.425 269.57 276.61C269.88 276.931 270.101 277.327 270.21 277.76C270.198 278.65 270.074 279.534 269.842 280.394C269.549 282.272 269.303 284.159 269.104 286.056C268.946 287.504 268.823 288.961 268.709 290.445C269.683 290.786 270.502 291.463 271.02 292.354C271.539 293.246 271.721 294.293 271.536 295.308L271.545 295.299ZM259.202 241.005C259.369 241.051 259.526 241.129 259.663 241.235C259.8 241.341 259.915 241.473 260.001 241.623C260.087 241.773 260.142 241.939 260.164 242.111C260.186 242.283 260.174 242.458 260.128 242.625C260.083 242.792 260.005 242.948 259.899 243.085C259.793 243.222 259.661 243.337 259.51 243.423C259.36 243.509 259.194 243.565 259.022 243.587C258.85 243.608 258.676 243.596 258.509 243.551L254.172 242.673C253.835 242.58 253.548 242.356 253.375 242.052C253.202 241.747 253.157 241.387 253.251 241.049C253.344 240.711 253.567 240.425 253.872 240.252C254.176 240.079 254.537 240.034 254.875 240.127L259.202 241.005Z" fill="black"/>
<path d="M271.887 234.772C271.499 235.919 271.318 237.126 271.352 238.336C271.396 240.549 271.87 242.726 271.659 244.947C271.44 247.343 270.439 249.775 269.947 252.127L276.549 253.365C279.122 255.073 281.087 257.554 282.16 260.451C283.233 263.347 283.358 266.51 282.518 269.482C282.132 270.869 281.596 272.511 282.518 273.599C282.852 273.943 283.284 274.175 283.756 274.265C284.227 274.354 284.714 274.297 285.151 274.099C286.021 273.692 286.711 272.98 287.091 272.098C288.32 269.517 287.565 266.48 286.898 263.706C286.231 260.932 285.748 257.763 287.364 255.41L287.118 255.349L289.391 255.77C289.47 255.498 289.549 255.217 289.62 254.945C290.978 249.713 291.929 244.383 292.464 239.004C292.464 238.881 292.464 238.758 292.464 238.635L271.887 234.772Z" fill="#9ED5F0"/>
<path d="M483.718 273.854C486.042 272.757 488.584 272.198 491.154 272.219C493.724 272.241 496.256 272.841 498.562 273.977C500.081 274.732 498.746 277.005 497.228 276.25C495.334 275.331 493.259 274.844 491.154 274.823C489.049 274.801 486.965 275.247 485.052 276.127C484.753 276.281 484.407 276.317 484.083 276.23C483.758 276.142 483.478 275.937 483.297 275.653C483.116 275.358 483.06 275.004 483.138 274.667C483.217 274.33 483.425 274.038 483.718 273.854ZM472.552 243.656L467.443 247.958C467.198 248.206 467.061 248.54 467.061 248.888C467.061 249.236 467.198 249.571 467.443 249.819C467.694 250.057 468.027 250.19 468.373 250.19C468.72 250.19 469.053 250.057 469.304 249.819L474.413 245.517C474.657 245.269 474.794 244.935 474.794 244.587C474.794 244.238 474.657 243.904 474.413 243.656C474.162 243.418 473.829 243.285 473.482 243.285C473.136 243.285 472.803 243.418 472.552 243.656ZM467.812 242.208H467.864L468.005 242.102L468.198 241.962C468.47 241.76 468.742 241.567 469.023 241.383C469.179 241.293 469.315 241.173 469.424 241.03C469.533 240.887 469.612 240.723 469.657 240.549C469.702 240.375 469.712 240.194 469.686 240.016C469.66 239.838 469.599 239.667 469.506 239.513C469.327 239.215 469.038 238.999 468.701 238.912C468.365 238.825 468.007 238.874 467.706 239.048C465.298 240.659 463.214 242.708 461.561 245.087C461.399 245.383 461.356 245.731 461.443 246.058C461.529 246.385 461.739 246.666 462.027 246.843C462.331 247.012 462.689 247.057 463.026 246.969C463.363 246.88 463.653 246.665 463.835 246.369C464.011 246.114 464.195 245.842 464.397 245.605V245.552L464.52 245.403L464.827 245.034C465.252 244.529 465.704 244.045 466.179 243.586C466.635 243.138 467.118 242.708 467.61 242.296C467.679 242.271 467.746 242.242 467.812 242.208ZM467.478 227.46C467.129 227.462 466.796 227.602 466.549 227.848C466.303 228.095 466.164 228.428 466.161 228.777C466.17 229.123 466.312 229.453 466.557 229.698C466.802 229.943 467.132 230.085 467.478 230.094H467.689L468.119 230.173C468.417 230.243 468.707 230.322 468.997 230.418C469.141 230.459 469.282 230.512 469.418 230.576L469.637 230.682C469.913 230.814 470.18 230.963 470.436 231.13C470.564 231.2 470.688 231.279 470.805 231.367L470.998 231.507C471.236 231.698 471.461 231.903 471.674 232.121C471.883 232.299 472.072 232.499 472.236 232.718C472.249 232.75 472.267 232.78 472.289 232.806C472.341 232.868 472.385 232.938 472.429 232.999C472.473 233.061 472.613 233.271 472.692 233.412C472.78 233.561 472.896 233.692 473.034 233.796C473.172 233.901 473.33 233.977 473.497 234.02C473.665 234.064 473.839 234.074 474.01 234.05C474.182 234.026 474.347 233.969 474.496 233.882C474.646 233.794 474.776 233.678 474.881 233.54C474.985 233.402 475.061 233.244 475.105 233.077C475.148 232.909 475.159 232.735 475.135 232.563C475.111 232.392 475.054 232.227 474.966 232.078C474.159 230.783 473.062 229.692 471.763 228.891C470.464 228.09 468.998 227.6 467.478 227.46ZM480.329 241.918C480.649 242.376 480.928 242.86 481.163 243.367L481.242 243.586L481.374 243.981C481.456 244.27 481.52 244.563 481.567 244.859C481.662 245.196 481.885 245.482 482.189 245.654C482.494 245.827 482.854 245.872 483.191 245.781C483.515 245.673 483.787 245.447 483.95 245.147C484.113 244.847 484.156 244.496 484.069 244.165C483.831 242.803 483.276 241.516 482.45 240.408C481.624 239.299 480.549 238.401 479.311 237.783C479.012 237.63 478.666 237.594 478.342 237.681C478.017 237.769 477.737 237.974 477.556 238.258C477.382 238.561 477.334 238.92 477.423 239.259C477.512 239.597 477.729 239.887 478.03 240.066C478.293 240.189 478.548 240.33 478.793 240.487L479.171 240.742L479.285 240.838C479.508 241.024 479.719 241.223 479.917 241.435C480.013 241.541 480.11 241.637 480.198 241.743L480.321 241.901L480.329 241.918ZM441.477 287.943L441.222 288.11C441.055 288.215 440.871 288.32 440.695 288.408L440.52 288.487L440.335 288.557L439.756 288.733C439.572 288.777 439.387 288.812 439.194 288.838H439.089H438.782C438.386 288.859 437.989 288.844 437.597 288.794H437.553L437.193 288.724C436.991 288.681 436.791 288.625 436.596 288.557L436.368 288.487L436.166 288.399L435.736 288.198C435.56 288.101 435.384 287.996 435.218 287.882L435.033 287.75L434.91 287.644C434.761 287.513 434.612 287.372 434.471 287.223L434.27 287.004V286.96L434.217 286.881C434.033 286.588 433.745 286.376 433.411 286.288C433.077 286.2 432.721 286.242 432.417 286.407C432.118 286.584 431.9 286.873 431.811 287.209C431.723 287.546 431.77 287.904 431.943 288.206C432.59 289.073 433.404 289.802 434.338 290.35C435.271 290.897 436.304 291.252 437.377 291.394C438.45 291.535 439.54 291.46 440.583 291.174C441.626 290.887 442.602 290.395 443.452 289.725C443.698 289.478 443.837 289.143 443.837 288.794C443.837 288.446 443.698 288.111 443.452 287.864C443.321 287.731 443.164 287.627 442.991 287.559C442.818 287.49 442.633 287.458 442.447 287.466C442.261 287.473 442.078 287.52 441.911 287.602C441.744 287.684 441.596 287.8 441.477 287.943ZM519.349 389.623C518.051 385.293 516.47 381.052 514.618 376.929C509.124 364.733 501.401 353.67 491.847 344.309C487.979 348.88 484.433 353.714 481.234 358.775C469.201 377.864 462.201 399.69 460.885 422.217C460.962 422.327 461.027 422.444 461.079 422.568C461.135 422.783 461.137 423.008 461.085 423.224C461.033 423.44 460.928 423.64 460.78 423.805C460.743 424.077 460.624 424.331 460.44 424.534C460.256 424.737 460.014 424.879 459.748 424.943C459.481 425.006 459.202 424.988 458.946 424.89C458.69 424.792 458.469 424.619 458.313 424.394C456.174 424.483 454.051 423.992 452.169 422.971C452.02 422.889 451.891 422.775 451.791 422.638C451.631 422.637 451.472 422.604 451.326 422.538C451.179 422.473 451.048 422.378 450.941 422.259C450.833 422.14 450.752 421.999 450.702 421.847C450.652 421.695 450.634 421.533 450.65 421.374C451.019 414.628 451.879 407.919 453.222 401.298C457.728 378.939 467.739 358.057 482.349 340.543C476.419 342.594 470.188 343.641 463.914 343.642C451.896 343.671 440.193 339.805 430.556 332.625C422.374 326.467 415.993 318.228 412.078 308.765C411.745 308.758 411.426 308.634 411.174 308.416C410.922 308.198 410.755 307.9 410.7 307.571C409.91 307.879 409.12 308.186 408.33 308.511C408.467 308.701 408.542 308.93 408.542 309.165C408.542 309.4 408.467 309.628 408.33 309.819C404.275 315.943 400.663 322.35 397.523 328.991C391.982 340.826 387.936 353.305 385.479 366.14C383.015 378.967 382.177 392.054 382.986 405.09C383.074 406.459 381.389 406.714 380.669 405.889L372.251 403.668C371.531 404.493 369.845 404.23 369.942 402.869C370.442 395.702 371.303 388.565 372.523 381.485C376.652 357.593 384.888 334.596 396.865 313.514C383.558 320.054 370.954 327.937 359.25 337.04C352.703 341.945 346.54 347.341 340.815 353.184C335.434 358.828 330.65 365.289 327.911 372.654C326.34 376.867 325.535 381.326 325.532 385.822C326.752 386.489 327.955 387.191 329.131 387.963C335.013 391.852 340.192 397.233 341.992 404.23C342.448 405.985 342.746 408.066 341.658 409.681C341.193 410.337 340.553 410.849 339.811 411.159C339.069 411.469 338.256 411.566 337.462 411.437C333.845 411.015 331.08 408.013 328.991 405.292C325.187 400.078 323.065 393.827 322.907 387.375C320.114 385.954 317.242 384.693 314.305 383.601C307.51 381.037 300.514 378.755 294.229 375.042C291.107 373.255 288.27 371.012 285.81 368.388C283.493 365.86 281.851 362.849 279.665 360.215C277.804 357.959 275.276 355.764 272.133 356.704C269.184 357.582 267.402 360.742 265.91 363.182C264.142 366.33 261.86 369.161 259.159 371.557C256.122 374.094 252.426 376.288 248.485 376.955C244.368 377.658 240.005 376.841 235.993 378.158C234.972 378.469 234.048 379.035 233.308 379.804C232.567 380.572 232.035 381.516 231.762 382.547C230.471 387.209 232.692 392.642 234.948 396.645C238.293 402.588 243.929 406.705 249.301 410.691C252.575 413.04 255.711 415.575 258.694 418.284C261.582 421.076 264.174 424.159 266.428 427.484C268.754 430.811 270.817 434.287 273.029 437.71C275.241 441.134 277.418 444.224 279.727 447.367C283.861 453.02 287.899 458.778 292.385 464.133C296.625 469.216 301.304 474.105 306.861 477.757C312.258 481.408 318.581 483.45 325.093 483.647C326.787 483.691 326.787 486.325 325.093 486.281C321.706 486.221 318.344 485.674 315.112 484.657C301.497 480.312 292.008 468.435 283.809 457.391C279.147 451.106 274.425 444.838 270.255 438.211C267.955 434.576 265.716 430.89 263.232 427.405C260.696 423.902 257.749 420.716 254.454 417.915C248.239 412.648 240.856 408.487 235.642 402.114C232.104 397.88 229.799 392.753 228.979 387.296C228.57 384.824 228.903 382.285 229.936 380.002C230.54 378.883 231.372 377.902 232.377 377.124C233.382 376.345 234.539 375.786 235.774 375.481C233.807 372.707 231.841 369.942 229.91 367.15C225.041 360.162 220.239 353.14 215.504 346.082C213.163 342.536 210.823 338.98 208.482 335.416C206.305 332.098 203.943 328.806 202.284 325.19C200.915 322.196 199.651 318.272 200.801 315.007C200.993 314.329 201.339 313.704 201.81 313.18C202.282 312.657 202.868 312.249 203.522 311.987C204.15 311.803 204.817 311.803 205.444 311.987C205.233 311.39 205.074 310.776 204.97 310.152C204.496 307.211 205.304 303.288 209.026 303.279C209.971 303.304 210.888 303.609 211.659 304.157C210.96 302.858 210.327 301.525 209.763 300.162C208.798 297.775 208.411 295.089 209.763 292.762C210.299 291.702 211.191 290.865 212.283 290.398C213.375 289.931 214.596 289.863 215.733 290.208C218.147 291.042 219.674 293.359 221.149 295.299C224.948 300.331 228.353 305.649 231.332 311.206C231.27 310.574 231.191 309.933 231.147 309.292C230.928 305.86 230.779 301.655 233.579 299.144C236.09 296.897 239.724 296.607 242.945 296.976C246.588 297.385 250.082 298.655 253.137 300.68C255.894 302.524 258.94 305.184 259.528 308.625C259.782 309.892 259.547 311.209 258.872 312.311C258.196 313.413 257.129 314.219 255.885 314.568C253.752 315.147 251.434 314.612 249.327 314.181C247.431 313.786 245.184 313.075 243.244 313.585C240.251 314.357 241.242 318.579 241.997 320.686C243.182 323.996 245.614 326.761 248.142 329.113C252.681 333.266 260.581 338.708 266.463 333.441C267.599 332.497 268.364 331.182 268.622 329.728C268.85 328.025 268.025 326.41 267.384 324.891C266.243 322.205 265.558 318.395 268.35 316.411C270.869 314.655 274.864 316.148 277.128 317.693C279.627 319.443 281.561 321.883 282.694 324.715C285.398 331.203 283.519 338.296 279.744 343.94C277.725 346.943 275.303 349.654 272.546 351.999C270.428 353.914 267.876 355.288 265.111 356.002C265.532 356.59 265.989 357.143 266.419 357.757C268.42 355.334 270.808 353.596 274.319 353.903C277.831 354.211 280.166 356.537 282.132 359.1C284.388 361.988 286.205 365.157 288.839 367.738C294.325 373.102 301.655 376.095 308.73 378.755C313.515 380.555 318.343 382.266 322.925 384.505C323.278 377.068 325.53 369.845 329.465 363.525C333.468 357.156 338.353 351.387 343.975 346.389C343.638 346.47 343.283 346.425 342.977 346.264C342.67 346.102 342.432 345.835 342.308 345.511C339.744 339.121 337.111 332.756 334.407 326.418C324.716 303.893 314.082 281.804 302.507 260.151C301.708 258.658 303.981 257.333 304.78 258.825C308.081 265.005 311.3 271.223 314.436 277.479C325.515 299.501 335.654 321.959 344.853 344.853C344.943 345.066 344.968 345.302 344.924 345.529L345.749 344.783C352.297 338.993 359.173 333.585 366.343 328.587C380.568 318.498 396.026 310.273 412.341 304.113C413.512 301.988 414.682 299.861 415.853 297.731C420.809 288.642 425.702 279.516 430.53 270.351L425.447 266.076C419.917 261.394 414.398 256.713 408.891 252.031C408.75 251.887 408.643 251.713 408.579 251.522C408.515 251.331 408.496 251.128 408.522 250.929C408.548 250.729 408.62 250.538 408.731 250.37C408.842 250.202 408.99 250.061 409.163 249.959C414.226 247.554 419.276 245.108 424.315 242.62C433.866 237.933 443.381 233.184 452.941 228.531C457.462 226.328 461.965 223.87 466.776 222.386C469.597 221.489 472.526 220.979 475.484 220.868C473.727 219.515 472.203 217.884 470.972 216.04C467.346 210.632 468.092 195.612 478.749 190.021C482.366 211.369 498.176 204.654 510.79 220.236C520.508 232.253 508.771 255.41 497.772 264.285C499.733 265.043 501.511 266.207 502.99 267.7C504.47 269.193 505.617 270.982 506.357 272.95C507.447 276.303 507.327 279.931 506.021 283.206C504.714 286.48 502.302 289.193 499.203 290.875C497.211 291.882 495.009 292.399 492.777 292.385C491.202 292.382 489.637 292.142 488.133 291.674C487.405 306.685 487.168 321.696 487.256 336.724C487.41 336.779 487.553 336.862 487.677 336.97C489.196 338.243 490.679 339.604 492.128 340.929C492.486 341.072 492.777 341.345 492.944 341.693C494.588 343.267 496.177 344.891 497.711 346.565C508.821 358.691 517.068 373.156 521.842 388.894C522.378 390.5 519.832 391.203 519.349 389.623ZM264.777 359.952C263.68 358.565 262.618 357.151 261.635 355.685C261.52 355.485 261.46 355.259 261.459 355.028C261.459 354.797 261.519 354.57 261.634 354.37C261.748 354.169 261.913 354.002 262.112 353.885C262.31 353.768 262.536 353.705 262.767 353.702C264.457 353.655 266.108 353.184 267.569 352.332C270.48 350.571 273.054 348.306 275.171 345.643C277.448 343.074 279.215 340.095 280.376 336.865C282.264 331.264 281.324 324.83 276.751 320.774C275.736 319.859 274.539 319.168 273.24 318.746C272.107 318.378 270.255 317.868 269.412 318.992C267.657 321.459 270.545 325.058 271.045 327.489C272.309 333.731 265.927 338.594 260.142 338.243C256.672 337.912 253.364 336.617 250.591 334.503C247.829 332.584 245.329 330.312 243.156 327.744C240.965 325.27 239.452 322.269 238.767 319.036C238.284 316.323 238.451 313.075 241.084 311.522C244.701 309.388 249.38 311.846 253.172 312.075C254.858 312.18 256.842 311.767 256.912 309.678C257.017 306.474 253.234 303.753 250.82 302.304C247.881 300.525 244.535 299.528 241.102 299.408C238.038 299.311 234.72 300.154 233.886 303.489C233.553 305.245 233.482 307.041 233.676 308.818C233.776 310.691 233.996 312.556 234.334 314.401C234.795 316.866 235.453 319.291 236.3 321.652C236.885 323.01 237.441 324.382 237.968 325.769C238.504 327.165 236.212 328.121 235.554 326.778C234.896 325.435 234.308 323.873 233.798 322.389C230.04 313.541 225.245 305.17 219.516 297.45C218.313 295.843 216.883 293.245 214.82 292.587C212.757 291.928 211.466 294.255 211.458 295.984C211.458 298.617 213.09 301.093 214.249 303.314C215.513 305.731 216.827 308.116 218.191 310.468C220.918 315.15 223.844 319.735 226.969 324.224C227.943 325.62 225.67 326.901 224.687 325.549L215.803 313.26C214.556 311.504 213.345 309.748 212.054 308.098C211.308 307.124 209.886 305.324 208.438 305.903C206.226 306.781 207.797 311.065 208.438 312.496C210.606 317.403 212.994 322.205 215.548 326.928L220.262 335.241C220.439 335.542 220.489 335.902 220.401 336.24C220.313 336.578 220.094 336.868 219.793 337.045C219.491 337.222 219.132 337.272 218.793 337.183C218.455 337.095 218.166 336.877 217.989 336.575C216.233 333.649 214.539 330.658 212.906 327.604L211.194 324.663L207.85 318.764C207.314 317.824 206.814 316.859 206.234 315.946C205.892 315.393 205.357 314.594 204.707 314.471C203.566 314.26 203.109 316.069 203.022 316.894C202.916 318.527 203.146 320.164 203.697 321.704C204.795 325.154 206.902 328.209 208.859 331.229C213.12 337.772 217.436 344.279 221.807 350.752C227.302 358.887 232.897 366.96 238.591 374.971C242.182 374.594 245.86 375.051 249.371 374.094C253.417 372.838 257.038 370.49 259.835 367.308C261.599 365.333 263.092 362.489 264.812 359.917L264.777 359.952ZM325.594 388.92C325.716 390.263 325.918 391.596 326.199 392.914C326.887 396.215 328.159 399.367 329.956 402.219C331.58 404.756 333.994 407.908 337.032 408.733C341.421 409.909 339.13 403.65 338.234 401.71C336.825 398.75 334.841 396.101 332.397 393.915C330.325 392.001 328.056 390.312 325.629 388.876L325.594 388.92ZM405.169 309.74C404.256 310.126 403.352 310.521 402.457 310.925C401.877 311.179 401.316 311.46 400.701 311.724C400.709 311.959 400.644 312.192 400.517 312.391C396.958 318.434 393.714 324.657 390.799 331.036C380.719 353.144 374.587 376.847 372.681 401.07L380.23 403.036C379.895 396.253 380.003 389.456 380.555 382.688C381.653 369.499 384.374 356.497 388.657 343.975C392.766 331.942 398.31 320.447 405.169 309.74ZM483.85 337.119C484.113 337.019 484.403 337.019 484.666 337.119C484.526 321.608 484.771 306.097 485.544 290.594C483.525 289.56 481.784 288.054 480.47 286.205C480.36 286.064 480.281 285.902 480.236 285.729C480.191 285.556 480.182 285.375 480.209 285.199C480.236 285.022 480.299 284.853 480.393 284.701C480.488 284.55 480.612 284.419 480.759 284.317C480.906 284.215 481.072 284.144 481.247 284.108C481.422 284.072 481.602 284.072 481.777 284.109C481.952 284.145 482.118 284.216 482.265 284.319C482.411 284.421 482.535 284.552 482.629 284.704C483.869 286.492 485.569 287.911 487.55 288.809C489.532 289.708 491.719 290.053 493.881 289.807C496.042 289.561 498.097 288.734 499.826 287.414C501.555 286.094 502.894 284.329 503.7 282.309C504.506 280.288 504.75 278.087 504.404 275.939C504.059 273.791 503.138 271.777 501.739 270.111C500.34 268.444 498.516 267.189 496.46 266.477C494.405 265.765 492.194 265.623 490.065 266.067C489.722 266.138 489.366 266.07 489.074 265.879C488.782 265.687 488.578 265.387 488.507 265.045C488.436 264.702 488.503 264.346 488.695 264.054C488.887 263.762 489.187 263.558 489.529 263.486C489.933 263.399 490.328 263.346 490.732 263.293L488.73 262.416C482.963 253.427 488.151 245.991 488.924 238.977C490.003 228.909 485.333 226.846 479.908 223.782C474.834 222.992 469.646 224.037 464.906 225.871C460.166 227.706 455.566 230.26 450.975 232.481C446.384 234.702 441.652 237.064 437 239.364C428.757 243.437 420.505 247.51 412.21 251.478L412.719 251.908C419.507 257.672 426.305 263.422 433.111 269.157C433.315 269.363 433.445 269.629 433.483 269.916C433.522 270.203 433.465 270.495 433.321 270.746L431.469 274.258C426 284.563 420.549 294.913 414.79 305.087C414.795 305.311 414.743 305.533 414.64 305.732C414.538 305.931 414.387 306.102 414.202 306.228L414.018 306.553C416.005 311.817 418.821 316.731 422.357 321.108C429.109 329.522 438.25 335.695 448.578 338.813C460.193 342.198 472.606 341.611 483.85 337.146V337.119ZM489.994 342.386C488.774 341.254 487.537 340.148 486.264 339.068C486.318 339.278 486.319 339.497 486.267 339.707C486.215 339.917 486.111 340.111 485.965 340.271C481.745 345.091 477.893 350.22 474.439 355.615C462.021 375.131 454.771 397.485 453.371 420.575C453.425 420.585 453.478 420.599 453.529 420.619C453.793 420.768 454.065 420.891 454.337 421.023L454.53 421.093L454.925 421.242C455.458 421.417 456.004 421.549 456.558 421.637H456.663H456.742H457.225C457.506 421.637 457.787 421.637 458.103 421.637H458.366C458.709 415.711 459.445 409.813 460.569 403.984C464.981 381.31 475.092 360.133 489.951 342.448L489.994 342.386ZM426.79 335.021C426.179 334.61 425.488 334.333 424.762 334.206C424.036 334.079 423.292 334.105 422.577 334.284C422.301 334.365 422.058 334.532 421.884 334.761C421.71 334.99 421.615 335.269 421.611 335.557L421.453 340.271C421.453 340.62 421.592 340.955 421.839 341.202C422.086 341.449 422.421 341.587 422.77 341.587C423.119 341.587 423.454 341.449 423.701 341.202C423.948 340.955 424.087 340.62 424.087 340.271C424.131 339.103 424.166 337.936 424.201 336.759C424.381 336.794 424.56 336.838 424.736 336.891C424.859 336.935 425 337.014 424.798 336.891L425.114 337.049C425.216 337.105 425.316 337.167 425.412 337.233L425.526 337.312C425.694 337.442 425.849 337.586 425.992 337.743L426.193 337.971C425.992 337.734 426.193 337.971 426.246 338.076L426.404 338.331C426.424 338.376 426.448 338.42 426.474 338.462C426.536 338.664 426.597 338.857 426.65 339.059C426.65 339.182 426.65 339.296 426.65 339.41C426.646 339.478 426.646 339.545 426.65 339.612L426.606 339.753L426.527 340.034L426.483 340.139C426.387 340.315 426.246 340.49 426.167 340.674C426.086 340.774 425.998 340.868 425.904 340.955L425.693 341.157L425.64 341.201C425.447 341.315 425.272 341.438 425.079 341.544L424.947 341.614C424.842 341.614 424.745 341.693 424.64 341.719L424.262 341.816H424.183C424.008 341.816 423.613 341.912 423.472 341.816C423.472 341.816 423.744 341.886 423.586 341.816C423.509 341.793 423.429 341.775 423.349 341.763C423.224 341.733 423.101 341.695 422.981 341.649C422.65 341.556 422.296 341.595 421.994 341.759C421.693 341.923 421.467 342.199 421.365 342.527C421.279 342.857 421.322 343.208 421.485 343.508C421.648 343.808 421.919 344.035 422.243 344.142C423.445 344.502 424.733 344.444 425.897 343.977C427.061 343.509 428.032 342.661 428.651 341.57C428.977 341.01 429.185 340.39 429.265 339.748C429.345 339.105 429.295 338.453 429.117 337.83C428.653 336.688 427.834 335.725 426.782 335.083L426.79 335.021ZM419.276 370.135C419.633 371.017 419.727 371.983 419.548 372.917C419.369 373.851 418.924 374.714 418.267 375.402C417.9 375.758 417.464 376.034 416.984 376.21C416.505 376.387 415.994 376.462 415.484 376.429C414.458 376.324 413.497 375.879 412.754 375.165C412.059 374.524 411.58 373.684 411.384 372.759C411.367 372.567 411.367 372.373 411.384 372.18C411.276 372.497 411.053 372.763 410.759 372.925C410.466 373.087 410.122 373.135 409.796 373.058C409.461 372.96 409.178 372.735 409.006 372.432C408.834 372.129 408.787 371.771 408.874 371.434C409.262 370.227 409.997 369.162 410.986 368.37C411.976 367.579 413.177 367.096 414.439 366.983C415.506 366.892 416.572 367.161 417.468 367.747C418.299 368.361 418.926 369.212 419.267 370.187L419.276 370.135ZM414.36 369.599C414.422 369.634 414.518 369.617 414.351 369.652L414.36 369.599ZM416.994 372.391C416.99 372.356 416.99 372.32 416.994 372.285C416.99 372.312 416.99 372.338 416.994 372.364C417.003 372.206 417.003 372.048 416.994 371.89C416.994 371.82 416.994 371.741 416.994 371.671C416.994 371.513 416.924 371.355 416.88 371.206L416.801 370.96C416.73 370.837 416.678 370.714 416.599 370.591L416.458 370.38C416.353 370.266 416.256 370.152 416.142 370.047L415.958 369.924C415.895 369.885 415.831 369.85 415.765 369.819C415.563 369.757 415.379 369.705 415.177 369.661H414.931C414.741 369.674 414.55 369.674 414.36 369.661H414.202L413.974 369.713L414.035 369.766C414.278 370.015 414.413 370.349 414.413 370.696C414.413 371.044 414.278 371.378 414.035 371.627C414.001 371.674 413.972 371.724 413.948 371.776C413.948 371.776 413.948 371.82 413.948 371.838C413.948 371.855 413.948 371.882 413.948 371.925C413.948 371.969 413.948 372.013 413.948 372.04C413.948 372.066 413.948 372.136 413.948 372.189C413.948 372.241 413.948 372.233 413.948 372.25C413.948 372.268 414 372.426 414.027 372.514C414.059 372.589 414.098 372.663 414.141 372.733L414.272 372.944V372.996C414.386 373.126 414.506 373.249 414.632 373.365L414.703 373.427L414.852 373.532C414.945 373.59 415.042 373.642 415.142 373.69L415.229 373.734H415.185L415.387 373.786H415.484H415.765L415.993 373.716L416.169 373.62L416.239 373.576C416.279 373.543 416.317 373.508 416.353 373.47C416.406 373.427 416.449 373.365 416.502 373.312L416.599 373.172L416.713 372.952C416.713 372.812 416.801 372.68 416.836 372.54V372.399C416.836 372.399 416.959 372.514 416.967 372.443L416.994 372.391ZM415.238 373.681H415.282C415.133 373.69 415.124 373.699 415.177 373.734L415.238 373.681ZM416.994 372.426V372.364C416.969 372.397 416.957 372.437 416.959 372.478L416.994 372.426ZM316.403 277.207L364.763 250.872L378 243.656C382.319 254.301 386.814 264.873 391.484 275.372C376.42 283.261 361.36 291.162 346.302 299.074L333.275 305.895C331.774 306.685 333.108 308.958 334.609 308.168L380.669 284.028L392.555 277.795C393.204 279.244 393.845 280.701 394.504 282.184C397.839 289.558 401.263 296.891 404.774 304.183C405.512 305.71 407.785 304.376 407.048 302.857C400.921 290.1 395.048 277.225 389.43 264.233C383.812 251.241 378.46 238.117 373.374 224.862C370.495 217.365 367.706 209.839 365.008 202.284C364.438 200.704 361.892 201.406 362.471 202.986C367.065 215.861 371.911 228.613 377.008 241.242L328.894 267.446L315.077 274.977C313.585 275.741 314.919 278.015 316.403 277.207Z" fill="black"/>
<path d="M178.433 410.322C178.433 410.471 178.477 410.138 178.485 410.094C178.494 410.05 178.564 409.769 178.608 409.611C178.681 409.354 178.784 409.106 178.916 408.873C179.163 408.374 179.492 407.92 179.89 407.53C180.698 406.705 181.705 406.1 182.813 405.775C183.914 405.411 185.099 405.392 186.21 405.722C187.218 406.039 188.092 406.681 188.695 407.548C189.303 408.464 189.677 409.516 189.783 410.612C189.888 411.714 189.723 412.826 189.3 413.851C188.869 414.904 188.079 415.772 187.071 416.3C186.585 416.538 186.068 416.707 185.534 416.8C184.977 416.863 184.415 416.863 183.858 416.8C183.763 416.795 183.669 416.78 183.577 416.756L183.015 416.633C182.672 416.545 182.334 416.433 182.006 416.3C181.917 416.251 181.827 416.207 181.733 416.168L181.294 415.94C181.031 415.782 180.654 415.536 180.487 415.404C179.463 414.64 178.751 413.529 178.485 412.279C178.443 412.108 178.368 411.947 178.262 411.806C178.157 411.665 178.024 411.546 177.872 411.457C177.72 411.368 177.552 411.31 177.377 411.287C177.203 411.264 177.025 411.277 176.855 411.324C176.685 411.371 176.527 411.452 176.389 411.561C176.251 411.67 176.136 411.806 176.051 411.961C175.967 412.116 175.914 412.286 175.896 412.461C175.879 412.636 175.896 412.813 175.948 412.982C176.36 414.528 177.193 415.93 178.353 417.032C179.514 418.134 180.958 418.892 182.523 419.223C184.111 419.647 185.791 419.565 187.33 418.989C188.868 418.413 190.189 417.372 191.109 416.01C191.93 414.645 192.388 413.093 192.438 411.501C192.489 409.909 192.131 408.33 191.398 406.916C190.618 405.457 189.39 404.288 187.895 403.582C186.399 402.875 184.716 402.668 183.094 402.992C181.258 403.285 179.561 404.153 178.25 405.472C176.939 406.791 176.081 408.492 175.799 410.331C175.703 411.033 176.475 411.647 177.116 411.647C177.462 411.638 177.792 411.497 178.037 411.252C178.282 411.007 178.424 410.677 178.433 410.331V410.322Z" fill="black"/>
<path d="M352.64 115.027L349.023 107.785C348.847 107.484 348.559 107.264 348.221 107.176C347.884 107.087 347.525 107.135 347.223 107.311C346.939 107.491 346.732 107.771 346.644 108.096C346.556 108.421 346.594 108.768 346.749 109.067L350.366 116.317C350.543 116.619 350.832 116.838 351.171 116.926C351.509 117.014 351.869 116.964 352.17 116.787C352.472 116.61 352.69 116.321 352.778 115.982C352.867 115.644 352.817 115.285 352.64 114.983V115.027Z" fill="black"/>
<path d="M88.8851 195.472L79.2289 188.23C78.926 188.054 78.5658 188.005 78.2269 188.094C77.8881 188.182 77.5982 188.402 77.4205 188.704C77.267 189.003 77.2306 189.349 77.3182 189.673C77.4059 189.998 77.6114 190.278 77.8946 190.459L87.5507 197.701C87.8523 197.877 88.2112 197.926 88.5486 197.837C88.886 197.748 89.1744 197.529 89.3503 197.227C89.5038 196.928 89.5403 196.583 89.4526 196.258C89.365 195.933 89.1595 195.653 88.8763 195.472H88.8851Z" fill="black"/>
<path d="M242.313 242.594C238.86 234.225 237.412 226.196 237.968 218.506C238.202 214.965 238.808 211.457 239.776 208.042C241.564 201.914 244.131 196.04 247.413 190.565C253.131 180.704 258.319 175.612 262.977 175.29C264.252 175.096 265.554 175.158 266.804 175.475C276.267 178.114 281.455 180.967 282.368 184.034C283.755 188.335 283.709 195.522 282.228 205.593C281.556 210.367 280.571 215.091 279.278 219.735C277.95 224.519 276.271 229.199 274.257 233.737C273.717 234.927 273.042 236.052 272.247 237.09L287.732 247.782C288.531 246.386 289.321 244.929 290.093 243.393C293.575 236.6 296.375 229.478 298.45 222.132C300.483 214.894 301.875 207.492 302.611 200.01C304.262 184.279 302.014 173.936 295.87 168.979C290.319 164.351 283.954 160.8 277.101 158.506C257.924 161.731 246.128 166.301 241.716 172.218C237.303 178.135 232.226 187.311 226.485 199.747C224.196 204.752 222.286 209.923 220.771 215.214C218.8 222.024 217.703 229.056 217.505 236.142C217.3 245.693 218.957 252.686 222.474 257.122C230.567 256.192 237.493 252.198 242.313 242.594Z" fill="#9ED5F0"/>
</svg>
