<svg width="600" height="601" viewBox="0 0 600 601" fill="none" xmlns="http://www.w3.org/2000/svg">
<path d="M163.622 340.772C148.743 329.01 134.568 316.042 124.415 300.057C114.261 284.073 108.229 264.871 110.944 246.072C113.658 227.373 126.023 209.479 143.817 203.246C155.881 199.024 169.754 200.029 181.014 193.796C192.675 187.362 199.109 174.393 203.332 161.827C207.554 149.16 210.268 135.79 217.507 124.631C224.745 113.472 238.216 104.826 251.084 108.345C260.333 110.858 267.068 118.8 275.714 122.922C291.698 130.562 310.497 123.927 328.191 124.832C344.879 125.636 363.276 136.895 362.975 153.584C362.874 164.24 355.334 173.087 351.112 182.838C346.89 192.59 348.096 207.066 358.25 209.981C366.192 212.294 373.732 205.86 380.266 200.733C399.266 185.653 423.695 177.711 447.923 178.716C472.151 179.722 495.877 189.775 513.47 206.463C523.121 215.611 531.364 227.675 531.364 240.945C531.364 254.114 523.523 265.977 515.983 276.734C499.596 300.258 480.696 325.491 452.849 332.227C438.272 335.746 422.489 333.634 408.415 338.862C379.462 349.518 366.393 387.117 336.636 395.361C323.466 398.98 309.593 396.064 296.222 393.048C267.872 386.715 239.422 380.381 211.072 374.148C199.813 371.635 188.453 369.122 178.5 363.191C168.648 357.259 160.405 347.407 159.601 335.947" fill="#F4F6F9"/>
<path d="M488.839 233.305L488.336 230.691C494.871 217.321 495.977 201.034 491.252 186.96C490.749 185.352 488.739 182.537 486.125 179.722C486.225 179.621 486.225 179.621 486.326 179.521C487.331 181.23 488.839 182.637 490.649 183.341C493.162 184.246 496.278 183.542 497.786 181.33C498.49 180.225 498.792 178.817 498.993 177.51C499.697 171.378 497.887 165.145 494.871 159.716C491.855 154.288 487.834 149.563 483.813 144.838C482.807 143.631 481.701 142.425 480.193 142.023C479.188 141.721 478.082 142.023 477.177 142.526C476.474 141.822 475.67 141.219 474.765 140.816C472.654 139.711 469.738 139.811 468.13 141.621C467.225 142.626 467.125 144.134 467.527 145.34C466.622 144.436 465.616 143.531 464.611 142.827C463.505 142.023 462.299 141.319 460.992 141.118C458.378 140.716 455.664 142.626 454.659 145.039C453.854 147.15 454.056 149.462 454.759 151.573C442.293 143.229 430.431 152.277 426.108 166.05C423.394 174.695 423.997 184.045 425.103 193.093C426.208 202.14 427.716 211.188 426.711 220.236L424.198 219.13C411.43 220.839 395.647 267.787 384.79 274.824C373.932 281.962 366.191 295.835 369.911 309.005C371.017 313.127 373.229 317.148 372.827 321.37C372.324 326.296 368.403 329.714 365.387 333.434C361.768 337.958 359.355 343.487 358.25 349.318C354.53 343.085 351.916 335.847 348.799 329.111C338.143 306.793 318.54 289.301 296.121 281.861L295.719 281.359C289.687 264.268 271.994 214.908 271.994 214.908C283.354 208.775 306.275 196.008 306.275 196.008C287.375 181.934 266.565 165.446 245.253 149.462C238.215 144.134 229.57 140.012 220.723 139.912L196.193 150.568L195.49 192.087C188.051 190.177 179.405 193.495 175.484 200.13C171.161 207.468 173.071 217.924 179.706 223.252C183.929 226.569 189.76 227.575 194.987 226.469V226.972C191.569 249.893 188.051 269.094 183.728 289.301L180.611 287.391C111.949 328.709 65.5033 407.827 67.8155 488.251C68.2176 502.828 73.1436 517.908 84.1015 527.458C97.7737 539.422 118.081 540.729 135.674 536.506C143.616 534.596 151.457 531.681 159.6 531.882C167.241 532.083 174.579 534.898 182.119 535.803C189.759 536.707 198.506 534.797 202.326 528.162L204.337 527.056C223.639 521.527 243.141 515.998 260.332 505.744C277.523 495.49 292.502 479.807 297.428 460.404C297.83 458.997 297.127 456.886 296.121 456.584C299.037 455.679 301.047 452.563 300.545 449.547C300.545 449.547 335.73 431.15 356.842 446.23C377.953 461.309 428.219 479.405 457.976 446.028C470.844 431.552 480.998 413.959 482.807 394.657C484.717 374.249 477.881 353.54 480.897 333.233C482.606 321.471 487.532 310.412 492.157 299.354C496.781 288.295 501.104 277.036 501.607 265.073C502.31 253.311 498.289 240.644 488.839 233.305Z" fill="white"/>
<path d="M397.758 62.8043C396.954 61.0953 399.568 59.4868 400.372 61.2963C406.605 75.0691 412.737 88.7413 418.97 102.514C419.775 104.223 417.161 105.832 416.356 104.022C410.123 90.2492 403.891 76.577 397.758 62.8043ZM395.245 103.318C400.975 108.244 406.605 113.17 412.335 118.096C413.843 119.403 415.954 117.192 414.446 115.985C408.716 111.059 403.086 106.133 397.356 101.207C395.949 100.001 393.837 102.112 395.245 103.318ZM443.701 67.5292C443.701 77.3812 443.701 87.2333 443.701 97.0853C443.701 98.9954 446.717 98.9954 446.717 97.0853C446.717 87.2333 446.717 77.3812 446.717 67.5292C446.717 65.6191 443.701 65.6191 443.701 67.5292Z" fill="black"/>
<path d="M221.628 450.854C242.438 448.642 262.343 438.891 276.82 423.811C278.428 422.203 279.936 420.393 281.746 418.986C274.909 402.599 268.174 386.112 261.338 369.726C259.428 365.001 256.814 359.773 251.787 358.667C248.671 357.963 245.454 359.27 242.538 360.477C230.776 365.302 219.115 370.228 207.353 375.054C202.829 376.964 197.802 379.377 196.596 384.101C195.792 387.318 196.998 390.636 198.204 393.752C205.744 412.954 213.485 431.954 221.628 450.854Z" fill="#9ED5F0"/>
<path d="M254.904 371.837C254.904 371.032 254.703 370.228 254.301 369.424C254.1 368.117 253.396 366.81 252.089 366.207C249.877 365.101 247.364 366.006 246.057 368.016C245.756 368.419 245.554 368.921 245.353 369.424C244.75 370.63 244.65 372.138 245.152 373.345C245.555 374.35 246.258 375.355 247.263 375.858C247.967 376.16 248.671 376.361 249.375 376.26C249.978 376.361 250.681 376.361 251.285 376.26C253.195 375.858 254.703 373.948 254.904 371.837ZM249.676 370.429C249.777 370.429 249.777 370.429 249.676 370.429C249.777 370.53 249.676 370.429 249.676 370.429ZM259.83 387.419C259.729 388.123 259.327 388.826 258.824 389.329C258.221 389.932 257.417 390.234 256.512 390.334C255.809 390.334 255.004 390.133 254.401 389.832C254.1 389.631 253.798 389.43 253.597 389.128C253.295 388.726 253.094 388.424 252.893 387.922C252.592 387.218 252.592 386.414 252.893 385.71C253.195 384.906 253.697 384.202 254.502 383.699C255.205 383.197 256.211 383.096 257.015 383.297C257.115 383.297 257.216 383.398 257.317 383.398C257.417 383.398 257.518 383.398 257.618 383.398C258.422 383.599 259.126 384.101 259.629 384.805C259.83 385.71 259.93 386.615 259.83 387.419Z" fill="black"/>
<path d="M184.13 469.854C184.331 467.944 187.347 467.944 187.146 469.854C186.743 474.177 186.744 478.6 187.045 482.923C188.252 498.204 194.183 513.183 203.834 525.046C205.04 526.554 202.929 528.665 201.723 527.157C198.807 523.638 196.294 519.818 193.982 515.897C186.241 501.924 182.722 485.738 184.13 469.854ZM231.178 178.918C231.781 178.214 231.681 177.41 231.178 176.807C229.369 174.494 227.459 172.182 225.649 169.87C225.146 169.267 224.041 169.267 223.538 169.87C222.935 170.574 223.035 171.378 223.538 171.981C225.348 174.293 227.258 176.605 229.067 178.918C229.57 179.521 230.676 179.521 231.178 178.918ZM233.49 165.446C236.104 168.06 238.215 171.177 239.723 174.494C240.025 175.299 239.924 176.103 239.221 176.605C238.618 177.008 237.512 176.806 237.11 176.103C236.406 174.494 235.602 172.986 234.596 171.478C234.094 170.674 233.691 170.171 233.189 169.568C232.586 168.865 231.982 168.261 231.379 167.658C230.776 167.055 230.877 166.15 231.379 165.547C231.882 164.843 232.988 164.843 233.49 165.446ZM215.898 162.833C215.898 162.833 215.998 162.732 215.898 162.833V162.833ZM216.903 159.515C217.506 160.118 217.406 161.124 216.903 161.626C216.702 161.827 216.501 162.129 216.3 162.33C216.199 162.431 216.099 162.531 215.998 162.632C215.998 162.732 215.898 162.732 215.898 162.833C215.495 163.335 215.194 163.838 214.892 164.341C214.691 164.642 214.591 164.843 214.49 165.145C214.39 165.245 214.389 165.446 214.289 165.547C214.289 165.648 214.189 165.748 214.189 165.849C214.189 165.849 214.189 165.748 214.189 165.849C214.189 165.949 214.088 165.949 214.088 166.05C213.987 166.15 213.988 166.351 213.988 166.452C213.887 166.753 213.786 167.055 213.686 167.357C213.485 168.161 212.681 168.563 211.876 168.362C211.072 168.161 210.569 167.256 210.871 166.552C211.675 163.838 213.083 161.425 214.993 159.415C215.294 158.912 216.3 159.012 216.903 159.515ZM225.247 155.595C225.448 155.494 225.548 155.293 225.649 155.192H225.75C226.051 155.092 226.353 155.092 226.654 154.991C226.855 154.991 227.157 154.891 227.358 154.891C227.459 154.891 227.559 154.891 227.559 154.891C227.76 154.891 227.861 154.891 228.062 154.79C229.268 154.69 230.474 154.589 231.681 154.589C232.485 154.589 233.189 153.885 233.189 153.081C233.189 152.277 232.485 151.573 231.681 151.573C230.072 151.573 228.363 151.774 226.755 151.975C226.051 152.076 225.247 152.176 224.543 152.377C224.041 152.478 223.538 152.78 223.236 153.182C222.734 153.785 222.734 154.489 223.035 155.092C223.538 155.796 224.543 155.997 225.247 155.595ZM225.951 154.288C225.951 154.288 225.951 154.187 225.951 154.288C225.951 154.187 225.951 154.187 225.951 154.288ZM251.485 237.025C250.48 240.141 249.374 243.358 247.263 245.972C245.253 248.586 242.136 250.596 238.819 250.496C233.792 250.395 230.072 245.771 228.464 241.046C227.056 236.924 226.755 232.4 225.448 228.178C224.644 226.67 224.141 224.86 225.347 223.654C226.152 222.85 227.559 222.85 228.665 223.252C229.771 223.654 230.575 224.559 231.379 225.464C234.496 228.681 238.316 232.098 242.739 231.294C245.454 230.792 248.47 228.68 250.782 230.289C252.692 231.696 252.189 234.712 251.485 237.025ZM256.814 321.169C256.311 324.386 256.512 327.804 259.528 329.714C261.84 331.222 264.655 331.825 267.068 333.333C269.581 334.841 271.19 337.153 271.391 340.069C271.592 342.984 270.486 345.9 269.782 348.714C269.079 351.63 269.179 354.244 271.793 356.053C274.507 357.963 277.121 359.371 278.83 362.286C282.047 367.815 281.444 374.852 280.639 380.985C280.539 381.789 280.036 382.493 279.131 382.493C278.428 382.493 277.523 381.789 277.623 380.985C278.428 374.852 279.433 366.709 274.708 361.884C272.597 359.672 269.38 358.768 267.671 356.154C266.063 353.842 266.163 350.926 266.766 348.312C267.37 345.698 268.475 343.085 268.375 340.37C268.274 337.757 266.364 336.249 264.152 335.243C261.74 334.137 259.226 333.434 257.115 331.725C254.602 329.714 253.597 326.698 253.597 323.582C253.697 319.963 255.205 316.343 254.602 312.724C254.2 310.412 251.687 307.095 249.073 308.703C247.464 309.708 245.956 307.095 247.565 306.089C250.681 304.179 254.602 305.989 256.412 308.804C258.824 312.423 257.417 317.148 256.814 321.169ZM261.941 322.174C262.343 323.18 263.147 323.984 264.052 324.487C264.957 324.989 266.062 325.19 267.068 324.989C268.073 324.788 268.877 324.185 269.481 323.28C270.586 321.772 270.486 319.661 269.581 318.053C269.179 317.248 268.475 316.545 267.772 316.142C266.766 315.64 265.66 315.539 264.554 315.74C263.449 315.941 262.443 316.544 261.74 317.349C261.338 317.751 261.036 318.153 260.734 318.656C260.433 319.259 260.232 319.862 260.232 320.566C260.232 320.968 260.433 321.37 260.634 321.672C260.935 321.973 261.338 322.174 261.74 322.074C261.84 322.174 261.84 322.174 261.941 322.174ZM264.756 321.169L264.856 321.269L264.756 321.169ZM266.264 318.756C266.264 318.756 266.163 318.756 266.264 318.756C266.163 318.756 266.264 318.756 266.264 318.756ZM264.655 318.957C264.756 318.957 264.756 318.857 264.856 318.857C264.957 318.756 265.158 318.756 265.359 318.756H265.459C265.459 318.756 265.459 318.756 265.56 318.756C265.66 318.756 265.861 318.756 265.962 318.756C266.063 318.756 266.063 318.756 266.163 318.756C266.264 318.756 266.264 318.756 266.364 318.857C266.465 318.957 266.565 318.957 266.666 319.058L266.766 319.158L266.867 319.259C266.967 319.359 266.967 319.46 267.068 319.56C267.068 319.56 267.168 319.661 267.168 319.761C267.168 319.862 267.269 319.963 267.269 320.164V320.264C267.269 320.365 267.269 320.566 267.269 320.666C267.269 320.767 267.269 320.767 267.269 320.867V320.968C267.269 321.068 267.269 321.068 267.269 321.169C267.269 321.269 267.269 321.269 267.168 321.37C267.168 321.47 267.068 321.471 267.068 321.571C267.068 321.571 267.068 321.571 266.967 321.672C266.967 321.672 266.967 321.772 266.867 321.772V321.672C266.867 321.772 266.766 321.772 266.766 321.772C266.766 321.772 266.666 321.772 266.666 321.873C266.666 321.873 266.565 321.873 266.565 321.973C266.465 321.973 266.465 321.973 266.364 322.074H266.264H266.163C266.063 322.074 265.862 321.973 265.761 321.973C265.66 321.973 265.66 321.873 265.56 321.873C265.459 321.873 265.459 321.772 265.359 321.772C265.359 321.772 265.359 321.772 265.258 321.772L265.158 321.672C265.057 321.571 265.057 321.571 264.957 321.471C264.957 321.471 264.957 321.47 264.856 321.37L264.756 321.269C264.756 321.169 264.655 321.169 264.655 321.068C264.655 320.968 264.554 320.767 264.554 320.767V320.666C264.554 320.566 264.555 320.465 264.655 320.365C264.756 319.963 264.655 319.56 264.454 319.158C264.555 319.058 264.655 318.957 264.655 318.957ZM266.967 321.672C266.967 321.571 267.068 321.571 267.068 321.571C267.068 321.571 267.068 321.571 266.967 321.672C266.967 321.571 267.068 321.571 266.967 321.672ZM276.819 352.233C276.819 352.233 276.819 352.233 276.92 352.334C276.92 352.233 276.92 352.233 276.819 352.233C276.92 352.233 276.92 352.233 276.819 352.233ZM276.92 350.122C276.92 350.122 276.819 350.122 276.819 350.222C276.819 350.222 276.92 350.222 276.92 350.122ZM276.417 350.826C276.417 350.725 276.417 350.725 276.518 350.725C276.417 350.625 276.417 350.725 276.417 350.826ZM276.116 355.249C277.02 355.651 278.126 355.852 279.131 355.55C280.036 355.349 280.841 354.746 281.444 353.942C282.449 352.535 282.55 350.625 281.846 349.117C281.142 347.508 279.333 346.603 277.724 346.804C276.618 346.905 275.713 347.307 274.909 348.011C274.205 348.614 273.703 349.519 273.602 350.423C273.602 350.524 273.602 350.625 273.602 350.725V350.826C273.2 352.736 274.406 354.545 276.116 355.249ZM278.729 350.021C278.528 349.921 278.629 349.921 278.729 350.021V350.021ZM278.528 349.921C278.428 349.82 278.327 349.82 278.528 349.921V349.921ZM276.417 350.826C276.417 350.725 276.518 350.625 276.518 350.725L276.618 350.625C276.719 350.524 276.819 350.423 276.92 350.323C276.92 350.323 276.819 350.323 276.819 350.423C276.819 350.423 276.92 350.423 276.92 350.323C277.02 350.222 277.121 350.222 277.02 350.222C277.121 350.122 277.221 350.122 277.422 350.021C277.523 350.021 277.523 350.021 277.623 349.921C277.724 349.921 277.724 349.921 277.825 349.921C278.026 349.921 278.227 349.921 278.327 349.921H278.428H278.528C278.629 349.921 278.629 350.021 278.729 350.021L278.83 350.122C278.73 350.021 278.83 350.122 278.83 350.122L278.93 350.222C278.83 350.122 278.83 350.122 278.83 350.122C278.83 350.222 278.93 350.222 278.93 350.323C278.93 350.423 279.031 350.524 279.031 350.625C279.031 350.725 279.031 350.725 279.031 350.826C279.031 351.027 279.031 351.228 279.031 351.328C279.031 351.529 278.93 351.63 278.93 351.831C278.93 351.931 278.83 352.032 278.83 352.032C278.83 352.132 278.729 352.133 278.729 352.133C278.629 352.233 278.629 352.334 278.528 352.334C278.528 352.334 278.629 352.334 278.629 352.233C278.629 352.233 278.528 352.233 278.528 352.334C278.428 352.434 278.327 352.434 278.428 352.334C278.428 352.334 278.327 352.334 278.327 352.434C278.227 352.434 278.126 352.434 278.126 352.535C278.026 352.535 277.925 352.535 277.724 352.535C277.624 352.535 277.523 352.535 277.422 352.434H277.322C277.222 352.334 277.02 352.233 276.92 352.233C276.92 352.233 276.92 352.233 277.02 352.334L276.92 352.233C276.819 352.233 276.819 352.133 276.819 352.133C276.719 352.032 276.618 351.931 276.518 351.831C276.518 351.73 276.417 351.73 276.417 351.63C276.417 351.63 276.417 351.529 276.317 351.529C276.317 351.429 276.317 351.328 276.216 351.228C276.216 351.127 276.216 351.027 276.216 350.926C276.317 350.926 276.317 350.926 276.417 350.826C276.317 350.826 276.417 350.826 276.417 350.826C276.417 350.826 276.317 350.826 276.417 350.826ZM278.528 352.535C278.528 352.535 278.629 352.535 278.528 352.535C278.629 352.434 278.629 352.434 278.528 352.535C278.528 352.535 278.629 352.535 278.528 352.535ZM278.93 350.222C278.93 350.222 278.83 350.122 278.93 350.222C278.83 350.122 278.83 350.122 278.93 350.222ZM300.042 444.721C299.841 444.621 299.74 444.42 299.539 444.319C301.65 441.907 302.756 438.489 302.153 435.272C301.449 431.652 298.333 428.838 294.714 428.134C295.92 425.721 296.825 423.107 296.222 420.494C295.619 417.679 293.306 415.668 290.592 415.065C283.756 413.557 279.232 419.187 274.909 423.509C265.56 432.959 254.099 440.198 241.634 444.621C234.898 447.034 227.961 448.542 220.924 449.245C218.31 442.51 215.797 435.674 213.183 428.938C212.781 428.033 211.474 427.33 210.67 428.234C206.046 434.065 208.157 441.505 209.564 448.14C210.268 451.457 211.072 455.076 210.469 458.595C209.765 462.515 207.051 465.431 203.432 467.039C198.204 469.352 192.273 468.547 186.844 467.844C186.241 467.743 185.738 468.045 185.537 468.547C178.802 458.293 169.553 449.547 158.092 444.822C153.166 442.811 147.737 441.605 142.409 441.404C142.912 436.981 142.61 432.457 142.007 428.134C140.901 419.991 138.79 411.747 139.494 403.403C140.097 396.969 142.711 390.234 148.14 386.414C149.748 385.308 148.24 382.694 146.632 383.8C136.478 390.736 135.473 404.006 136.88 415.165C137.986 423.308 140.399 432.758 139.393 441.404C133.261 441.605 127.129 443.012 121.599 445.928C118.785 447.335 116.07 449.145 114.261 451.759C112.652 454.071 112.049 457.187 113.959 459.6C115.769 461.912 119.187 462.717 121.901 462.918C124.615 463.018 127.33 462.314 129.743 461.209C135.171 458.695 138.991 453.769 140.901 448.14C141.303 446.933 141.605 445.727 141.806 444.52C145.727 444.621 149.748 445.325 153.468 446.43C165.934 450.351 176.087 459.6 183.024 470.357C183.728 471.463 185.135 471.161 185.638 470.357C185.839 470.658 186.241 470.86 186.643 470.96C191.77 471.563 197.199 472.166 202.225 470.658C206.347 469.452 210.167 466.838 212.077 462.817C215.294 455.88 212.178 448.24 210.871 441.303C210.368 438.589 210.167 435.573 211.173 432.859C213.485 438.991 215.797 445.124 218.21 451.256C218.411 451.859 219.014 452.462 219.617 452.362C232.083 451.256 244.147 447.637 255.105 441.706C260.533 438.79 265.761 435.272 270.486 431.25C272.899 429.24 275.11 427.129 277.322 424.917C279.433 422.705 281.544 420.192 284.259 418.684C286.571 417.478 289.888 417.075 291.899 419.086C293.608 420.795 293.206 423.208 292.301 425.419C291.999 425.621 291.798 425.822 291.698 426.224C291.396 426.927 291.195 427.631 290.894 428.234C290.793 428.335 290.693 428.536 290.592 428.637C290.492 428.737 290.492 428.938 290.391 429.139C283.354 443.616 266.766 450.351 252.591 455.981C250.782 456.685 251.586 459.6 253.396 458.896C268.475 452.965 285.264 445.928 292.904 430.949C295.719 431.049 298.434 433.06 298.936 435.975C299.137 437.081 299.037 438.287 298.635 439.393C298.132 439.293 297.529 439.494 297.227 440.097C296.222 441.605 295.116 443.012 294.01 444.52C293.91 444.621 293.809 444.721 293.809 444.822C286.772 453.669 278.026 461.108 268.174 466.637C266.465 467.542 267.973 470.156 269.682 469.251C279.835 463.621 288.682 455.981 295.92 446.933C296.624 446.732 297.328 446.531 297.931 447.134C298.635 447.838 299.037 449.245 299.037 450.15C299.238 452.462 297.73 454.473 295.619 455.177C295.217 455.177 294.814 455.277 294.412 455.579C293.608 456.081 293.507 456.886 293.809 457.489C288.883 465.431 281.946 471.965 273.803 476.489C272.094 477.394 273.602 480.008 275.311 479.103C283.656 474.479 290.693 467.844 295.82 459.902C295.719 460.404 295.619 460.907 295.418 461.41C294.915 463.219 294.312 464.928 293.608 466.738C292.301 470.156 290.592 473.373 288.682 476.489C284.862 482.823 279.936 488.352 274.507 493.378C262.242 504.437 247.163 511.675 231.781 517.104C222.533 520.421 213.083 523.035 203.633 525.749C202.929 525.95 202.628 526.453 202.628 526.956C202.024 526.654 201.22 526.755 200.717 527.559C197.701 532.686 191.469 534.496 185.839 534.697C178.299 534.898 171.061 531.982 163.621 530.977C155.68 529.871 148.039 531.781 140.399 533.892C133.663 535.702 127.028 537.109 120.092 537.411C107.224 537.914 93.652 534.898 84.001 525.95C74.2495 516.903 69.8261 503.331 69.1224 490.363C68.4186 477.595 69.4239 464.627 71.334 452.06C73.2441 439.393 76.3606 426.827 80.4824 414.663C84.6042 402.498 89.7313 390.736 95.8637 379.376C101.996 368.016 109.033 357.058 116.875 346.804C124.716 336.55 133.462 326.899 142.912 318.053C152.261 309.306 162.314 301.264 173.071 294.126C175.685 292.417 178.399 290.708 181.114 288.999C182.823 287.994 181.214 285.38 179.606 286.385C168.246 293.221 157.59 301.063 147.637 309.708C137.584 318.354 128.335 327.905 119.89 338.159C111.446 348.413 103.805 359.27 97.1704 370.731C90.5354 382.191 84.8052 394.154 80.1808 406.52C75.5563 418.885 71.9371 431.753 69.5244 444.721C67.1116 457.69 65.9053 470.859 66.0058 484.13C66.1063 497.601 68.6198 511.373 76.9638 522.432C85.2074 533.39 97.8741 539.02 111.245 540.226C117.98 540.829 124.817 540.427 131.452 539.12C139.192 537.713 146.632 534.697 154.473 533.892C158.595 533.39 162.616 533.691 166.637 534.496C170.659 535.3 174.579 536.406 178.6 537.009C184.833 538.115 191.569 538.014 197.299 534.998C199.913 533.591 202.024 531.58 203.532 529.067C203.633 528.866 203.633 528.765 203.733 528.564C204.035 528.665 204.337 528.665 204.638 528.564C222.834 523.337 241.231 518.109 257.819 508.86C271.994 501.019 284.862 489.86 292.804 475.584C295.015 471.664 296.825 467.542 298.132 463.219C298.735 461.309 299.338 459.399 298.635 457.388C298.635 457.288 298.534 457.187 298.534 457.087C301.047 455.378 302.555 452.362 302.053 449.346C302.053 447.737 301.449 445.928 300.042 444.721ZM135.473 452.864C132.557 456.986 127.531 460.203 122.404 460.103C120.293 460.103 116.472 459.399 115.869 456.886C115.367 454.272 118.282 451.859 120.192 450.552C125.822 446.833 132.356 444.923 138.991 444.621C138.388 447.536 137.282 450.251 135.473 452.864ZM203.633 208.675C203.231 209.278 202.225 209.68 201.522 209.177C196.797 205.659 190.664 204.453 184.934 205.96C183.024 206.463 182.22 203.548 184.13 203.045C190.564 201.336 197.701 202.643 203.03 206.564C203.733 207.066 204.035 207.871 203.633 208.675ZM182.119 296.137C181.214 294.428 183.828 292.92 184.733 294.629C186.543 298.047 188.855 301.063 191.67 303.677C202.527 313.629 218.813 314.936 231.279 307.095C232.887 306.089 234.395 308.703 232.787 309.708C228.967 312.121 224.644 313.83 220.12 314.634C212.479 316.042 204.538 314.936 197.5 311.317C190.966 307.999 185.537 302.671 182.119 296.137ZM304.063 288.999C302.254 292.115 299.941 295.031 297.328 297.444C287.978 305.989 274.306 309.507 262.041 305.888C260.131 305.386 260.935 302.47 262.845 302.973C266.062 303.878 269.279 304.38 272.597 304.28C284.259 303.978 295.619 297.645 301.449 287.491C302.354 285.782 304.968 287.29 304.063 288.999ZM503.114 258.639C502.31 250.596 499.596 242.654 494.268 236.421C492.961 234.913 491.554 233.506 489.945 232.3C489.945 232.3 489.945 232.3 489.844 232.3C490.247 231.797 490.146 231.294 489.945 230.792C495.977 217.823 497.284 202.844 493.464 189.071C493.062 187.764 492.659 186.458 492.056 185.251C493.061 185.352 494.067 185.352 495.072 185.05C500.702 183.643 501.104 177.108 500.601 172.383C499.998 166.452 497.585 160.923 494.368 155.997C492.76 153.584 491.051 151.171 489.141 148.959C487.331 146.748 485.622 144.335 483.612 142.425C481.903 140.816 479.691 140.113 477.479 140.816C476.876 140.314 476.373 139.912 475.669 139.61C472.754 138.102 468.23 138.203 466.421 141.42C466.32 141.621 466.22 141.822 466.119 142.123C464.108 140.515 461.796 139.308 459.182 139.711C456.569 140.113 454.357 142.123 453.352 144.536C452.748 145.944 452.648 147.351 452.749 148.859C449.331 147.25 445.611 146.446 441.59 147.351C434.854 148.859 429.827 154.589 426.912 160.52C422.891 168.764 422.489 178.013 423.192 186.96C423.997 197.214 426.208 207.468 425.605 217.723C425.505 217.823 425.404 217.924 425.304 218.024C425.002 217.723 424.499 217.522 423.997 217.622C421.182 218.024 418.769 220.035 416.959 222.045C414.245 224.86 412.034 228.077 410.023 231.294C404.996 239.337 400.774 247.882 396.25 256.226C394.239 259.946 392.229 263.565 389.917 267.083C388.409 269.395 386.398 272.11 384.388 273.517C374.435 280.353 366.794 292.015 367.9 304.581C368.202 308.1 369.408 311.216 370.514 314.534C371.62 317.851 372.324 321.269 370.615 324.587C369.207 327.301 366.995 329.513 365.085 331.825C363.075 334.238 361.366 336.852 360.059 339.667C359.255 341.476 358.551 343.386 357.948 345.296C356.943 343.386 356.038 341.476 355.234 339.566C352.519 333.434 350.006 327.301 346.688 321.571C343.471 316.142 339.651 310.915 335.429 306.19C326.984 296.84 316.63 288.999 305.169 283.771C302.857 282.666 300.444 281.761 297.931 280.856C297.83 280.253 297.428 279.75 296.825 279.549C293.507 270.099 290.089 260.649 286.671 251.199C283.052 241.146 279.433 230.993 275.814 220.94C275.211 219.231 274.608 217.421 273.904 215.712C283.957 210.183 294.01 204.654 304.063 199.024C305.068 198.421 306.074 197.918 307.079 197.315C308.185 196.712 307.984 195.304 307.079 194.701C296.222 186.558 285.364 178.214 274.608 169.97C268.877 165.547 263.248 161.224 257.517 156.901C252.089 152.78 246.761 148.256 240.829 144.737C236.808 142.324 232.385 140.414 227.76 139.409C230.274 138.203 232.887 136.494 235.3 134.081C241.432 127.948 244.448 108.043 231.882 97.9902C221.527 125.033 202.628 112.065 182.019 129.255C166.034 142.525 175.585 176.203 187.749 190.579C182.22 191.585 177.193 194.802 174.278 199.627C169.553 207.669 171.563 218.929 178.902 224.659C182.32 227.374 186.543 228.68 190.865 228.68C191.67 228.68 192.574 228.58 193.379 228.479C191.067 244.263 188.251 260.046 185.135 275.729C184.23 280.152 183.325 284.576 182.421 289.1C182.119 290.306 183.326 291.11 184.23 290.909C198.104 296.74 212.982 299.957 228.062 300.359C243.443 300.862 258.925 298.549 273.502 293.523C281.142 290.909 288.581 287.391 295.518 283.269C295.619 283.269 295.619 283.369 295.719 283.369C318.841 291.11 337.842 309.005 348.096 331.021C350.81 336.852 353.022 342.984 356.138 348.614C356.339 348.916 356.54 349.318 356.742 349.619C355.133 358.667 356.339 368.318 360.863 376.26C363.779 381.387 369.509 386.414 375.742 384.001C381.975 381.689 381.975 374.249 379.361 369.122C376.345 363.09 369.71 360.376 365.085 355.752C362.974 353.741 361.265 351.429 359.757 348.915C360.16 347.106 360.662 345.196 361.265 343.487C362.271 340.772 363.578 338.259 365.287 335.947C366.996 333.434 369.207 331.323 371.017 328.91C372.826 326.598 374.133 323.883 374.334 320.968C374.536 317.449 373.128 314.031 372.022 310.714C370.012 304.883 370.112 298.952 372.123 293.121C374.133 287.491 377.752 282.464 382.176 278.644C383.784 277.337 385.594 276.232 387.102 274.925C388.107 274.02 389.012 272.914 389.917 271.808C392.229 268.893 394.139 265.676 395.949 262.559C400.472 254.718 404.393 246.675 408.917 238.834C411.028 235.215 413.139 231.495 415.653 228.077C417.362 225.665 419.473 223.151 421.885 221.643C422.891 221.04 423.494 220.739 424.7 220.537C424.901 220.537 425.103 220.437 425.304 220.336C425.304 220.94 425.605 221.342 426.108 221.543C429.928 229.786 436.664 236.723 444.907 240.644C454.156 245.067 465.013 245.469 474.664 241.951C479.389 240.241 483.712 237.628 487.532 234.31L487.633 234.411C493.966 239.337 497.686 246.575 499.294 254.316C501.104 263.163 499.898 272.311 497.384 280.957C491.956 299.655 480.998 316.645 479.088 336.349C477.077 356.254 483.511 376.059 481.299 395.964C479.389 413.356 470.844 429.642 459.283 442.61C447.219 456.182 431.938 466.537 415.854 474.78C413.843 475.786 411.832 476.791 409.822 477.696C408.113 478.5 409.621 481.114 411.33 480.309C428.018 472.368 444.002 462.515 457.071 449.346C469.638 436.679 479.389 420.795 483.109 403.303C485.12 393.652 485.019 383.9 484.114 374.149C483.209 363.995 481.601 353.842 481.701 343.688C481.802 333.534 484.114 323.883 487.733 314.333C491.252 304.983 495.575 295.936 498.792 286.385C502.009 277.539 504.019 267.988 503.114 258.639ZM253.798 295.534C239.02 298.147 223.739 298.047 209.061 295.232C201.019 293.724 193.177 291.311 185.638 288.195C188.855 272.914 191.77 257.633 194.283 242.252C195.088 237.427 195.791 232.601 196.495 227.876C199.41 227.072 202.125 225.564 204.336 223.453C204.94 222.85 204.94 221.945 204.336 221.342C203.733 220.738 202.828 220.738 202.225 221.342C196.696 226.67 186.844 227.172 180.712 222.347C174.68 217.521 172.87 207.871 176.791 201.235C180.712 194.6 190.061 191.484 197.199 194.5C198.003 194.802 198.807 194.5 199.209 193.696C199.511 192.891 199.21 192.087 198.405 191.685C197.802 191.383 197.098 191.182 196.495 190.981L199.913 190.177C209.866 179.923 204.94 168.764 205.744 159.415C206.95 145.541 213.987 144.335 222.13 141.621C234.898 142.425 244.951 151.171 254.703 158.61C265.761 167.055 276.719 175.5 287.677 183.944C292.904 187.965 298.132 191.886 303.46 195.907C295.719 200.23 287.878 204.553 280.137 208.876C277.121 210.484 274.206 212.193 271.19 213.802C270.687 214.103 270.285 214.908 270.486 215.511C272.597 221.442 274.708 227.273 276.819 233.204C280.841 244.363 284.862 255.623 288.883 266.882C290.592 271.607 292.201 276.232 293.91 280.957C281.645 288.094 267.973 293.02 253.798 295.534ZM361.366 356.053C363.477 358.566 365.99 360.577 368.604 362.487C373.228 365.905 378.657 370.027 378.255 376.461C378.054 379.175 376.244 381.286 373.53 381.588C370.615 381.89 368.001 380.382 366.091 378.371C362.069 374.048 360.059 367.413 359.355 361.683C359.054 358.969 359.054 356.254 359.255 353.54C359.959 354.344 360.662 355.249 361.366 356.053ZM482.908 146.044C485.924 149.563 488.94 153.081 491.453 157.002C493.966 160.721 495.977 164.743 496.982 169.166C497.485 171.277 497.786 173.489 497.686 175.701C497.585 177.611 497.485 180.124 495.876 181.431C493.162 183.643 490.046 182.034 488.135 179.621C488.739 178.415 489.04 177.108 489.342 175.902C489.744 173.992 490.045 171.88 490.045 169.97C490.146 165.949 489.342 161.928 488.035 158.108C486.728 154.489 484.918 150.97 482.908 147.753C482.104 146.446 481.199 145.139 480.294 143.933C481.4 144.134 482.204 145.139 482.908 146.044ZM470.241 142.023C472.654 140.716 475.268 142.525 476.876 144.335C478.887 146.547 480.495 149.16 481.903 151.774C483.411 154.489 484.717 157.304 485.622 160.219C486.527 163.235 487.13 166.351 487.03 169.568C487.03 171.177 486.929 172.785 486.527 174.293C486.326 175.097 486.125 175.902 485.924 176.706C485.723 177.309 485.522 178.516 484.918 178.817C484.014 179.119 482.908 177.51 482.606 176.907C481.701 175.5 480.998 173.992 480.294 172.484C479.992 171.981 479.791 171.478 479.59 170.976C479.188 168.261 478.786 165.447 478.082 162.732C476.876 157.404 474.865 152.176 471.648 147.753C470.643 146.346 469.537 145.139 468.331 143.933C468.934 143.43 470.04 142.123 470.241 142.023ZM460.087 142.626C461.997 142.425 463.907 143.933 465.214 145.139C466.622 146.346 467.929 147.753 469.035 149.362C474.262 156.6 475.77 165.547 476.876 174.193C477.178 176.203 478.183 179.621 476.072 180.928C474.765 181.733 473.357 181.431 472.151 180.526C472.251 180.526 472.252 180.426 472.352 180.426C474.363 178.717 476.172 175.801 475.569 173.087C475.066 170.875 473.056 169.367 471.045 168.462C468.632 167.357 466.22 166.854 463.706 166.552C463.103 161.224 460.69 156.399 456.87 152.78C456.87 152.579 456.77 152.378 456.669 152.176C455.262 148.859 455.463 143.129 460.087 142.626ZM427.716 166.954C429.526 160.923 433.044 154.79 438.775 151.674C441.288 150.266 444.203 149.663 447.018 150.065C449.029 150.367 450.838 151.071 452.547 151.975C452.547 152.478 452.849 153.081 453.251 153.383C457.272 156.499 459.987 161.325 460.69 166.351C459.384 166.351 458.077 166.351 456.77 166.452C453.151 166.653 449.632 166.954 446.214 167.759C444.103 165.648 442.293 163.235 441.087 160.42C440.785 159.716 439.679 159.515 438.976 159.917C438.171 160.319 438.071 161.224 438.473 162.028C439.579 164.441 441.087 166.753 442.897 168.664C442.293 168.865 441.69 169.066 441.087 169.267C434.552 171.78 429.727 176.907 425.806 182.637C425.806 177.309 426.208 172.082 427.716 166.954ZM487.03 229.987C486.828 230.289 486.829 230.691 486.929 230.993C480.294 237.527 471.146 241.247 461.796 241.347C452.447 241.448 443.5 237.628 436.764 231.194C433.245 227.876 430.431 223.754 428.621 219.331C429.626 208.072 426.812 196.712 426.108 185.352C426.711 185.653 427.616 185.653 428.119 184.849C431.134 180.225 434.754 175.902 439.68 173.288C443.902 170.976 449.029 169.97 453.854 169.568C457.574 169.267 461.595 168.965 465.315 169.669C467.527 170.071 470.04 170.674 471.749 172.182C473.357 173.489 472.855 175.399 471.648 176.907C471.146 177.51 470.643 177.912 470.14 178.415C469.336 178.214 468.431 178.717 468.23 179.42C466.722 180.023 465.013 180.325 463.304 180.426C459.685 180.727 455.965 180.627 452.346 180.727C450.738 180.727 450.436 182.738 451.542 183.542C454.658 185.754 455.865 189.675 455.865 193.294C455.865 198.019 453.754 202.442 451.944 206.564C451.14 208.273 453.754 209.881 454.558 208.072C456.77 203.146 459.082 198.019 458.881 192.489C458.78 189.272 457.775 186.156 455.865 183.643C458.479 183.643 461.093 183.542 463.706 183.341C465.717 183.14 467.728 182.738 469.638 182.034C470.944 183.341 472.654 184.246 474.664 184.246C476.976 184.246 479.289 182.838 480.093 180.627C480.294 180.023 480.394 179.42 480.495 178.717C481.802 180.526 483.913 182.235 485.924 181.632C486.829 182.637 487.733 183.743 488.537 184.95C489.543 186.457 489.844 187.262 490.347 188.971C492.257 195.304 492.961 201.939 492.559 208.474C492.157 215.913 490.246 223.252 487.03 229.987Z" fill="black"/>
<path d="M417.161 159.214C414.547 154.388 410.123 150.87 404.795 149.362C393.938 146.245 382.478 152.679 379.361 163.637C377.853 168.965 378.456 174.495 381.17 179.32C383.784 184.146 388.208 187.664 393.536 189.172C395.345 189.675 397.255 189.976 399.065 189.976C407.51 189.976 415.25 184.749 418.367 176.606L430.129 177.008C432.944 173.992 435.859 171.981 437.066 171.177L419.674 170.574C419.975 166.754 419.071 162.732 417.161 159.214ZM395.144 183.442C391.425 182.336 388.308 179.923 386.499 176.505C384.589 173.087 384.186 169.166 385.192 165.346C387.001 158.912 392.933 154.589 399.266 154.589C400.573 154.589 401.88 154.791 403.187 155.092C406.907 156.198 410.023 158.611 411.832 162.029C413.441 164.844 413.944 168.061 413.542 171.177C412.938 171.68 412.536 172.484 412.536 173.288C412.536 173.69 412.637 173.992 412.737 174.394C410.023 181.532 402.483 185.553 395.144 183.442ZM533.575 177.41C533.575 179.119 532.269 180.426 530.56 180.426H518.496C517.993 180.426 517.591 180.325 517.189 180.124L500.3 179.521C500.3 179.521 501.003 176.103 500.802 173.489L508.041 173.791L507.94 161.727C507.94 160.018 509.247 158.711 510.956 158.711C512.665 158.711 513.972 160.018 513.972 161.727L514.073 173.992L518.395 174.193L518.697 152.378C518.697 150.769 520.104 149.362 521.713 149.362C523.422 149.362 524.729 150.769 524.729 152.378L524.427 174.293H530.56C532.269 174.394 533.575 175.701 533.575 177.41Z" fill="#FFE945"/>
</svg>
