<svg width="600" height="600" viewBox="0 0 600 600" fill="none" xmlns="http://www.w3.org/2000/svg">
<path d="M392.085 345.61C410.317 366.628 447.011 329.585 469.887 313.677C492.763 297.768 513.548 271.525 506.929 244.468C498.801 211.258 453.746 194.42 452.352 160.28C451.772 144.836 460.713 130.902 465.474 116.27C470.235 101.639 468.725 81.7823 454.675 75.5118C450.494 73.6539 445.733 73.3055 441.089 72.9571C419.49 71.5637 397.891 70.0541 376.293 68.6606C347.843 66.8027 318.465 65.0608 291.64 74.5828C253.553 88.169 226.845 122.076 193.169 144.72C188.525 147.855 183.532 150.875 177.958 151.107C161.236 151.804 153.921 129.624 139.289 121.38C125.006 113.251 105.382 121.147 97.0209 135.314C88.6602 149.481 89.4732 167.48 94.8147 183.04C100.156 198.6 109.446 212.419 117.575 226.702C125.703 240.985 132.786 256.545 133.135 272.918C133.483 290.685 125.703 307.638 117.342 323.315C108.981 338.991 346.798 293.355 392.085 345.61Z" fill="#F4F6F9"/>
<path d="M515.522 499.819C509.484 484.143 521.328 465.215 513.897 450.236C507.742 437.811 491.718 434.559 481.034 425.734C473.835 419.696 469.19 411.335 463.732 403.671C458.274 396.007 451.075 388.807 441.785 387.182L441.901 386.485C434.934 374.873 424.832 364.073 419.722 354.668C415.774 347.584 447.591 331.443 447.591 331.443C424.019 308.103 369.79 265.37 338.553 254.107C337.392 237.85 335.883 197.904 335.883 197.904C348.308 194.768 373.39 188.15 373.39 188.15C358.758 170.035 342.85 149.133 326.361 128.579C320.903 121.728 313.587 115.69 305.226 113.367L278.635 107.91L267.139 156.681C260.636 153.661 252.159 154.939 247.05 160.048C241.012 165.97 240.315 176.537 245.424 183.272C248.675 187.569 253.901 189.891 259.243 190.124L259.126 190.588C250.185 211.722 242.056 229.257 232.999 247.604L232.883 247.139C203.272 260.261 175.519 271.641 148.463 289.756C121.522 307.755 97.2531 330.979 82.6218 360.009C82.6218 360.009 101.085 354.435 118.271 361.403C116.994 362.796 115.949 364.306 115.02 365.931C110.955 373.015 110.259 381.492 107.936 389.272C99.4595 417.373 70.1969 435.372 61.4878 463.473C61.4878 463.473 75.19 494.129 170.526 509.457C173.661 509.922 173.661 504 174.358 501.097C174.938 498.194 174.474 495.058 172.267 492.852C171.339 491.923 170.177 491.342 168.784 490.878C170.99 488.788 173.08 486.582 174.706 484.143C178.538 478.918 180.512 472.647 178.538 466.957C177.261 463.357 174.59 460.338 172.267 457.203C159.378 439.668 184.228 434.559 196.769 423.992C200.253 420.973 203.272 417.141 205.362 413.193C210.936 419.928 218.019 425.502 225.916 429.334C232.767 434.675 239.966 437.346 245.772 438.391C246.701 438.74 247.747 439.088 248.792 439.32L248.327 438.74C248.675 438.74 249.14 438.856 249.488 438.856L256.92 395.31C256.92 395.31 298.375 397.052 301.394 352.694C301.859 345.494 301.162 339.572 299.653 334.463C312.542 332.837 323.806 333.301 333.908 334.346C336.463 336.32 339.134 338.991 341.34 342.359C341.456 343.288 341.921 344.217 342.618 345.03C342.85 345.262 342.966 345.378 343.198 345.61C347.03 353.274 348.888 364.073 345.288 379.401C342.153 392.872 336.463 402.858 330.077 410.406C329.844 410.29 329.728 410.058 329.496 409.941L329.728 410.87C315.445 427.476 298.027 431.308 298.027 431.308L291.524 477.64L394.408 454.416L380.822 400.652C384.305 400.187 387.789 399.258 391.273 398.213C390.924 400.419 390.924 402.742 391.156 405.064C391.853 410.406 394.175 415.515 397.775 419.463H398.704C399.285 447.216 402.42 474.969 408.226 502.026C410.549 512.941 413.8 524.669 422.857 531.172C422.857 531.172 440.044 497.845 479.525 514.102C519.006 530.359 538.05 514.102 538.05 514.102C528.296 514.915 518.89 508.761 515.522 499.819ZM368.513 352.694L365.726 341.662C366.19 341.546 366.771 341.314 367.235 341.198C372.693 339.92 379.312 340.733 382.447 345.378C382.563 345.61 382.679 345.842 382.796 346.075C377.802 347.816 373.041 350.023 368.513 352.694ZM376.409 384.046C382.912 381.376 389.763 379.169 396.382 377.311C390.924 379.285 383.376 383.001 377.106 386.949L376.409 384.046Z" fill="white"/>
<path d="M270.041 308.335L273.758 271.292C273.758 271.292 244.727 276.053 223.128 298.232C224.638 298.581 226.264 299.045 227.773 299.509C232.07 300.787 236.831 302.064 240.547 304.851C243.682 307.29 245.772 311.354 244.727 315.418C243.566 319.482 239.386 321.224 235.437 320.992C230.793 320.76 226.38 318.553 222.084 316.928C218.484 315.534 214.768 314.373 210.82 314.721C210.007 316.231 209.194 317.624 208.497 319.25C209.774 319.831 211.052 320.411 212.329 320.992C218.484 324.127 224.29 328.075 229.515 332.836C233.696 336.668 242.289 344.1 236.018 349.79C234.625 350.951 233.115 351.648 231.489 351.88C233.579 354.319 235.437 357.338 234.741 360.705C234.044 364.189 230.676 366.163 227.309 366.047C223.361 365.931 219.645 363.492 216.161 361.751C214.187 360.822 212.213 359.893 210.239 359.08C210.587 359.312 211.052 359.544 211.4 359.893C213.49 361.286 215.464 362.796 217.322 364.537C218.6 365.815 219.993 367.208 220.458 368.95C222.083 374.408 214.303 375.105 210.936 375.221C207.452 375.337 204.085 374.988 200.717 374.292C201.065 378.24 199.672 382.885 202.11 385.555C204.084 387.762 207.801 389.155 208.73 392.407C209.775 396.122 206.871 403.206 208.265 406.341C219.064 430.843 238.34 438.855 249.836 439.436L257.268 395.89C257.268 395.89 298.723 397.632 301.743 353.274C304.413 312.98 270.041 308.335 270.041 308.335Z" fill="#FFE945"/>
<path d="M197.001 374.293C197.001 373.944 197.001 373.596 196.885 373.131H196.769C196.885 373.48 196.885 373.828 197.001 374.293Z" fill="black"/>
<path d="M208.033 295.213C219.761 281.976 235.089 272.105 252.043 266.88C252.391 266.764 252.623 266.648 252.739 266.415C258.313 267.112 263.887 268.389 269.229 270.131C251.346 276.17 234.741 285.459 220.225 297.42C221.619 297.768 223.128 298.117 224.522 298.465C239.153 286.737 255.991 277.795 273.99 272.338C274.454 272.221 274.687 271.989 274.919 271.757C276.196 271.293 276.544 268.97 274.803 268.389C267.487 265.835 260.055 263.861 252.275 263.048C251.695 262.932 251.23 263.28 250.881 263.745C232.999 269.318 216.858 279.885 204.665 294.052C204.433 294.284 204.317 294.633 204.201 294.865C205.362 294.865 206.755 294.981 208.033 295.213Z" fill="black"/>
<path d="M255.526 401.813C250.765 399.839 247.63 395.427 244.843 391.362C243.334 389.272 241.94 387.066 240.315 385.092C238.805 383.118 236.947 380.912 234.857 379.634C232.534 378.241 229.283 378.009 227.657 380.679C226.148 383.118 227.193 386.369 227.657 388.924C228.934 394.962 230.793 400.884 233.347 406.574C236.25 413.193 240.082 419.232 244.611 424.922C246.004 426.663 248.443 424.225 247.05 422.483C239.85 413.542 234.741 403.091 231.954 392.059C231.257 389.505 230.444 386.601 230.444 383.931C230.328 380.563 233.463 382.653 234.741 383.931C238.108 387.182 240.547 391.362 243.334 395.078C246.353 399.259 249.836 403.091 254.713 405.065C255.642 405.413 256.571 404.716 256.804 403.904C257.036 402.975 256.339 402.162 255.526 401.813Z" fill="black"/>
<path d="M275.499 339.224C273.293 336.32 271.319 333.301 269.345 330.166C260.752 316.115 255.062 300.439 252.507 284.182C252.159 281.976 248.791 282.905 249.139 285.111C251.23 298.929 255.758 312.283 262.145 324.592C265.397 330.747 269.112 336.669 273.293 342.243C275.034 344.449 277.705 347.7 276.196 350.72C275.731 351.649 274.802 352.577 273.641 352.345C272.248 352.113 271.435 350.371 270.854 349.21C268.88 345.726 267.022 342.243 265.164 338.875C263.538 335.856 262.029 332.488 259.823 329.818C258.081 327.611 255.41 325.87 252.507 326.566C249.604 327.263 247.862 330.05 247.63 332.837C247.282 336.204 249.023 339.34 250.533 342.243C252.275 345.61 253.9 348.978 255.41 352.461C258.429 359.429 260.868 366.628 262.726 373.944C263.074 375.337 263.539 376.731 263.306 378.24C263.074 380.098 261.681 379.401 260.519 378.473C257.616 375.918 255.062 372.899 252.623 369.88C247.63 363.725 243.566 356.874 240.43 349.674C239.501 347.584 236.482 349.442 237.411 351.416C240.43 358.035 244.146 364.422 248.559 370.228C250.765 373.131 253.204 376.034 255.758 378.705C257.849 380.911 260.868 384.395 264.351 382.537C266.906 381.143 267.022 378.008 266.558 375.453C265.977 371.738 264.7 368.022 263.539 364.538C261.1 356.99 258.081 349.558 254.481 342.475C253.088 339.572 250.301 335.972 251.114 332.605C251.346 331.443 252.159 330.282 253.32 330.05C254.829 329.818 256.107 331.095 256.92 332.14C257.849 333.301 258.545 334.579 259.242 335.856C260.287 337.83 261.448 339.804 262.493 341.778C264.351 345.262 266.209 348.862 268.299 352.229C269.809 354.784 272.48 356.874 275.615 355.713C278.286 354.668 280.144 351.649 279.911 348.745C280.028 344.913 277.589 342.01 275.499 339.224Z" fill="black"/>
<path d="M203.736 383.35C203.388 380.447 203.271 377.428 203.388 374.525C202.226 374.409 201.065 374.177 199.904 373.944C199.788 376.731 199.904 379.518 200.136 382.305" fill="black"/>
<path d="M207.452 410.638C226.032 436.185 242.289 438.275 248.443 440.133C250.649 440.713 251.578 437.346 249.372 436.765C231.373 431.54 216.51 418.418 208.962 401.581" fill="black"/>
<path d="M339.831 340.152C340.063 338.41 340.76 336.668 341.805 335.274C344.824 331.326 350.049 329.701 354.578 328.307C357.133 327.494 359.688 326.798 362.242 326.217L351.095 282.207L332.515 286.852L322.296 328.539C322.296 328.539 332.399 330.746 339.831 340.152Z" fill="#9ED5F0"/>
<path d="M349.237 366.744C351.56 364.073 354.114 361.518 356.785 359.196C360.385 356.177 364.217 353.39 368.397 351.067L366.423 343.403C362.707 344.448 359.107 346.306 355.508 347.468C352.14 348.629 347.96 349.558 344.476 348.28C346.682 353.854 347.844 361.054 346.915 370.111C347.611 369.066 348.424 367.789 349.237 366.744Z" fill="#9ED5F0"/>
<path d="M370.139 402.741C368.165 402.508 365.842 401.928 364.681 400.186C363.752 398.792 364.1 397.051 364.797 395.657C366.771 392.057 370.835 389.387 374.319 387.18C371.648 388.342 368.977 389.503 366.423 390.896C363.055 392.638 359.455 394.612 355.507 393.799C351.908 393.103 349.585 389.967 349.933 386.367C350.166 383.929 351.559 381.839 353.185 379.865C350.863 379.516 348.888 378.471 347.379 376.149C346.914 375.452 346.682 374.755 346.566 374.059C346.334 375.8 345.985 377.658 345.521 379.516C335.302 423.062 298.259 431.423 298.259 431.423L291.757 477.755L394.64 454.531L381.518 402.508C377.686 403.205 373.971 403.321 370.139 402.741Z" fill="#9ED5F0"/>
<path d="M288.505 423.179C287.925 422.366 288.389 421.321 289.086 420.74C289.899 420.16 290.944 420.624 291.524 421.321C293.731 424.688 296.053 427.94 298.259 431.307C298.84 432.12 298.375 433.165 297.679 433.746C296.866 434.326 295.821 433.862 295.24 433.165C293.034 429.798 290.828 426.546 288.505 423.179ZM345.985 425.849C348.772 429.681 355.159 437.229 349.933 441.642C347.611 443.616 344.244 442.687 342.27 440.597C340.063 438.274 338.67 435.139 336.696 432.585C334.838 430.146 332.631 427.475 330.077 425.733C329.148 425.037 327.29 424.108 326.128 425.269C325.2 426.314 326.245 428.056 326.825 428.985C328.567 432.004 330.657 434.907 332.631 437.926C334.722 441.061 336.812 444.313 338.902 447.448C340.179 449.306 337.16 451.048 335.883 449.19C333.56 445.706 331.354 442.223 329.032 438.739C327.87 436.997 326.709 435.255 325.548 433.514C324.503 432.004 323.458 430.494 322.761 428.753C321.832 426.082 322.413 423.063 325.199 421.901C327.986 420.624 330.774 421.901 332.98 423.643C335.534 425.733 337.741 428.288 339.715 430.843C340.76 432.236 341.689 433.514 342.618 435.023C343.431 436.3 344.127 437.926 345.289 438.855C346.334 439.668 347.727 439.784 348.192 438.391C348.656 437.113 348.075 435.836 347.379 434.675C345.869 431.888 343.895 429.217 341.921 426.546C338.089 421.321 333.793 416.56 329.032 412.147C321.6 421.321 312.078 428.753 301.279 433.514C298.956 448.609 296.634 463.705 294.311 478.801C293.963 480.891 291.06 480.194 290.944 478.22C290.711 478.104 290.479 477.872 290.363 477.64C287.576 473.343 284.441 469.395 280.841 465.679C280.261 465.099 280.26 464.402 280.493 463.937C282.931 449.422 285.486 434.907 287.925 420.276C288.157 419.231 288.97 418.882 289.666 419.114C299.885 417.373 309.523 413.425 318 407.386C328.103 400.187 336.463 389.852 341.108 378.124C341.341 377.079 341.457 376.033 341.573 374.988C341.689 374.524 342.037 374.059 342.502 373.827C343.315 371.389 343.895 368.95 344.244 366.395C345.521 358.499 344.476 350.254 340.295 343.403C336.231 336.901 329.264 332.488 321.716 331.327C321.251 331.443 320.671 331.443 320.206 331.211C319.742 331.211 319.277 331.094 318.929 331.094C317.303 331.094 316.839 329.237 317.536 328.308C315.213 325.869 312.891 323.43 310.452 320.992C309.291 321.108 308.13 320.295 308.478 318.902C313.123 304.154 316.142 288.942 317.536 273.498C317.071 272.453 317.652 271.06 319.045 271.06C319.278 270.944 319.626 270.944 319.858 271.06C324.387 270.944 328.799 270.131 333.096 268.621C333.444 268.273 334.025 268.041 334.489 268.157C335.186 268.041 335.999 268.621 336.231 269.202C340.76 273.034 345.405 276.866 349.933 280.582C349.933 280.582 349.933 280.698 350.05 280.698C350.282 280.698 350.514 280.698 350.746 280.698C351.675 280.814 352.488 281.394 352.488 282.44C352.488 283.252 351.675 284.298 350.746 284.181C345.405 283.601 340.063 284.53 335.302 287.084C334.489 287.549 333.792 287.317 333.328 286.736C333.212 286.852 333.096 286.968 332.864 287.084C330.077 300.903 326.825 314.605 323.11 328.191C331.935 329.817 339.715 335.391 344.011 343.403C349.934 354.435 348.656 367.324 344.127 378.704C343.314 383.465 341.921 388.11 340.063 392.639C337.625 398.561 334.489 404.135 330.657 409.244C336.696 414.237 341.573 419.811 345.985 425.849ZM345.289 280.698C341.689 277.679 338.205 274.776 334.605 271.756C330.657 273.15 326.593 273.963 322.529 274.195C326.245 277.563 330.077 280.814 333.793 284.181C333.909 284.065 334.025 284.065 334.141 283.949C337.509 282.091 341.34 281.046 345.289 280.698ZM313.123 318.321C315.562 320.876 318.116 323.43 320.555 325.985C324.154 312.631 327.29 299.277 330.077 285.691C330.077 285.575 330.077 285.575 330.193 285.459C327.174 282.788 324.154 280.117 321.135 277.446C319.626 291.149 316.839 304.735 312.891 317.973C312.891 318.089 313.007 318.205 313.123 318.321ZM336.115 394.032C325.432 408.78 309.059 418.998 291.176 422.134C288.854 435.952 286.415 449.887 284.093 463.705C286.88 466.608 289.434 469.743 291.757 473.111C293.731 460.338 295.705 447.564 297.679 434.791C295.589 435.604 294.66 432.236 296.75 431.423C297.33 431.191 297.911 430.959 298.376 430.727C298.724 430.03 299.421 429.914 300.001 430.03C303.949 428.288 307.781 426.082 311.381 423.643C322.18 416.211 330.773 405.877 336.115 394.032ZM329.032 450.119C328.567 449.306 327.406 448.958 326.593 449.538C325.78 450.003 325.432 451.048 326.013 451.977C327.987 455.112 329.961 458.363 332.051 461.499C332.515 462.312 333.676 462.66 334.489 462.079C335.302 461.615 335.65 460.57 335.07 459.641C333.096 456.506 331.122 453.254 329.032 450.119ZM355.972 313.096C353.533 309.148 350.746 305.548 347.611 302.18C345.985 300.438 344.244 298.813 342.502 297.187C340.876 295.794 339.134 294.052 337.16 293.471C335.186 293.007 333.096 293.936 332.515 296.026C331.935 298 332.747 300.322 333.328 302.296C334.605 306.941 336.231 311.47 338.321 315.883C340.644 320.76 343.314 325.521 346.45 329.933C347.727 331.791 350.746 330.049 349.469 328.191C343.431 319.831 339.018 310.425 336.463 300.438C336.231 299.742 335.534 298 335.883 297.187C336.347 296.374 337.741 297.651 338.205 298.116C340.179 299.626 341.921 301.367 343.663 303.109C347.263 306.709 350.282 310.657 352.953 314.954C354.114 316.812 357.133 315.07 355.972 313.096Z" fill="black"/>
<path d="M403.93 392.407C406.02 391.71 406.949 395.078 404.859 395.775C393.827 399.49 381.983 404.484 370.138 402.742C368.164 402.51 365.842 401.929 364.681 400.187C363.752 398.794 364.1 397.052 364.797 395.658C366.887 391.71 371.416 388.923 375.131 386.601C380.009 383.466 385.234 380.679 390.576 378.24C394.292 376.614 398.472 374.408 402.652 374.176C404.859 374.06 404.859 377.543 402.652 377.66C402.536 377.66 402.072 377.776 402.304 377.66C402.536 377.66 401.956 377.66 401.956 377.776C401.607 377.892 401.143 377.892 400.794 378.008C399.865 378.24 398.82 378.589 397.891 378.937C395.453 379.75 393.13 380.795 390.924 381.956C385.931 384.278 381.17 386.949 376.525 389.852C374.667 391.13 372.809 392.407 371.067 393.917C369.674 395.078 368.629 396.123 367.816 397.516C367.584 397.865 367.7 397.749 367.7 397.632C367.7 397.749 367.584 397.865 367.584 397.981C367.584 398.097 367.351 398.561 367.584 397.981C367.584 398.097 367.584 398.213 367.584 398.329C367.584 398.329 367.584 398.213 367.584 398.329C367.351 398.097 367.932 398.561 367.584 398.445C367.7 398.561 367.816 398.678 368.048 398.678C368.28 398.794 368.164 398.794 368.164 398.794C368.513 398.91 368.861 399.026 369.325 399.142C371.299 399.606 373.274 399.723 375.248 399.607C385.234 399.49 394.756 395.542 403.93 392.407ZM300.001 145.068C301.162 147.739 302.44 150.41 303.601 153.081C303.949 153.894 305.226 154.126 306.039 153.661C306.852 153.081 307.084 152.152 306.62 151.223C305.459 148.552 304.181 145.881 303.02 143.211C302.672 142.398 301.394 142.165 300.582 142.63C299.769 143.211 299.653 144.139 300.001 145.068ZM308.594 142.746C308.13 141.933 308.478 140.888 309.175 140.308C309.988 139.843 311.149 140.191 311.613 140.888C313.471 144.023 314.748 147.623 315.329 151.223C315.445 152.152 315.097 153.081 314.168 153.313C313.355 153.545 312.194 152.965 312.078 152.152C311.846 150.41 311.381 148.784 310.8 147.159C310.684 146.694 310.452 146.346 310.336 145.881C310.452 146.114 310.22 145.649 310.22 145.649C310.104 145.417 309.987 145.185 309.871 144.952C309.523 144.256 309.059 143.443 308.594 142.746ZM291.989 138.217C291.524 139.03 290.479 139.262 289.55 138.798C288.737 138.333 288.505 137.172 288.969 136.359C290.363 133.921 292.337 131.947 294.776 130.437C295.588 129.973 296.634 130.321 297.214 131.018C297.679 131.831 297.33 132.876 296.634 133.456C296.169 133.689 295.821 134.037 295.356 134.385C295.472 134.269 295.588 134.153 295.705 134.153C294.659 134.966 293.731 135.895 292.918 136.94C293.034 136.824 293.15 136.708 293.15 136.592C292.685 137.172 292.337 137.753 291.989 138.217ZM307.2 127.766C307.433 128.695 306.968 129.624 306.039 129.857C305.226 130.089 304.065 129.508 303.949 128.695C303.601 127.186 304.762 126.141 306.155 126.141C306.852 126.141 307.665 126.257 308.478 126.373C310.104 126.605 311.845 126.837 313.471 127.186C314.4 127.418 314.865 128.463 314.632 129.276C314.4 130.205 313.355 130.669 312.542 130.437C311.381 130.205 310.22 129.973 308.942 129.74C308.826 129.74 308.826 129.74 309.058 129.74C308.942 129.74 308.826 129.74 308.826 129.74C308.71 129.74 308.594 129.74 308.362 129.74C308.129 129.74 307.781 129.624 307.549 129.624C307.2 129.624 306.968 129.624 306.62 129.508C306.504 129.508 306.388 129.508 306.272 129.508C306.156 129.508 306.272 129.508 306.504 129.508C306.968 129.392 307.201 129.044 307.433 128.579C307.201 128.231 307.2 127.999 307.2 127.766C307.2 127.65 307.2 127.65 307.2 127.766ZM538.282 516.309C531.895 516.541 525.741 514.102 520.864 509.922C515.987 505.625 513.2 499.703 512.503 493.316C511.226 481.588 516.219 470.092 514.826 458.48C514.129 453.022 511.69 448.377 507.626 444.662C503.794 441.062 499.033 438.623 494.504 436.069C489.743 433.514 484.982 430.959 480.686 427.592C475.693 423.644 471.861 418.418 468.261 413.077C461.874 403.671 455.023 392.407 443.411 389.388C441.785 392.755 439.811 396.007 437.489 399.026C428.548 410.754 415.31 418.767 400.794 421.205C401.027 429.798 401.491 438.507 402.188 447.1C403.465 463.241 405.788 479.266 408.807 495.174C411.129 507.251 413.336 522.115 424.019 530.011C425.761 531.288 424.019 534.307 422.277 533.03C416.355 528.734 412.755 522.347 410.316 515.612C407.878 508.877 406.6 501.793 405.323 494.826C403.697 486.581 402.42 478.337 401.259 470.092C399.052 454.067 397.775 437.927 397.427 421.786C396.846 421.67 396.614 421.205 396.498 420.624C394.988 418.883 393.711 417.141 392.666 415.051C390.111 410.057 389.066 404.484 389.763 399.026C390.924 398.678 392.202 398.329 393.363 397.981C392.085 405.064 394.175 412.612 398.936 418.186C398.936 418.186 398.936 418.186 399.053 418.186C402.885 417.605 406.717 416.676 410.316 415.399C423.438 410.522 434.47 400.536 440.508 387.878C440.508 387.646 440.508 387.53 440.508 387.298C439.695 385.904 438.766 384.511 437.837 383.117C433.076 376.034 427.967 369.183 423.09 362.215C420.883 359.08 418.677 355.945 416.587 352.693C414.613 349.558 412.871 346.191 410.665 343.172C405.672 336.204 398.472 329.701 390.227 327.147C386.279 325.869 381.751 326.45 377.686 326.915C373.158 327.495 368.745 328.424 364.332 329.469C359.339 330.63 354.114 331.908 349.353 334.114C347.378 335.043 345.405 336.32 344.243 338.178C343.314 339.804 342.85 342.243 344.127 343.868C346.798 347.584 353.301 345.03 356.552 343.752C361.081 342.01 365.377 339.92 370.138 339.34C374.087 338.875 378.499 339.456 381.751 341.894C382.68 342.591 383.492 343.404 384.073 344.333C387.789 343.172 391.505 342.243 395.337 341.662C397.543 341.314 398.472 344.681 396.266 345.029C389.182 346.075 382.215 348.281 375.712 351.3C370.022 354.087 364.564 357.454 359.804 361.635C357.365 363.725 355.043 365.931 352.952 368.254C350.978 370.344 348.656 373.479 351.907 375.686C353.417 376.731 355.159 376.731 356.9 376.382C367.7 365.931 381.634 358.616 396.498 355.945C398.704 355.48 399.633 358.848 397.427 359.312C389.763 360.706 382.447 363.261 375.596 366.976C369.558 370.228 363.984 374.292 358.991 379.169C356.784 381.259 353.185 384.278 353.649 387.762C354.23 391.594 359.223 390.665 361.662 389.504C365.029 387.994 368.28 386.253 371.648 384.743C375.131 383.233 378.499 381.84 382.099 380.563C389.298 377.892 396.614 375.802 404.162 374.176C406.368 373.711 407.297 377.079 405.091 377.543C395.917 379.518 386.86 382.304 378.151 385.788C374.319 387.298 370.487 389.039 366.771 390.897C363.403 392.639 359.804 394.613 355.855 393.8C352.256 393.104 349.933 389.968 350.282 386.369C350.514 383.93 351.907 381.84 353.533 379.866C351.211 379.518 349.237 378.472 347.727 376.15C345.637 372.899 347.379 369.415 349.701 366.744C352.023 364.073 354.578 361.519 357.249 359.196C364.216 353.274 372.229 348.513 380.822 345.378C378.267 342.707 373.97 342.243 370.371 342.707C365.377 343.288 360.732 345.958 355.971 347.584C351.791 348.978 346.449 350.139 342.617 347.12C339.018 344.217 339.482 338.759 342.153 335.275C345.172 331.327 350.398 329.701 354.926 328.308C360.036 326.682 365.261 325.521 370.487 324.476C375.015 323.663 379.544 322.85 384.189 322.734C388.602 322.618 392.55 323.663 396.498 325.637C404.859 329.818 411.594 336.901 416.471 344.913C420.535 351.765 424.948 358.151 429.593 364.538C434.47 371.389 439.579 378.124 443.876 385.324C444.108 385.44 444.34 385.672 444.572 386.02C457.926 389.272 465.474 402.277 472.79 412.844C476.273 417.954 480.221 422.715 485.215 426.314C489.627 429.45 494.504 431.772 499.265 434.443C503.794 436.998 508.439 439.668 512.039 443.5C515.871 447.565 518.077 452.558 518.774 458.016C520.283 469.628 515.522 480.892 516.451 492.388C516.916 498.077 519.238 503.303 523.535 507.135C527.715 510.851 533.173 512.941 538.747 512.709C540.488 512.825 540.488 516.309 538.282 516.309ZM398.124 291.614C403.349 296.142 408.342 300.903 413.219 305.78C414.845 307.406 417.284 304.851 415.658 303.342C398.704 286.504 380.241 271.409 358.759 260.841C352.836 257.938 346.682 255.384 340.528 253.061C339.366 236.456 338.786 219.851 338.089 203.361C338.089 202.084 337.973 200.807 337.973 199.529C348.888 196.742 359.92 193.839 370.835 191.053C371.88 190.82 373.041 190.472 374.086 190.24C375.48 189.891 375.596 188.266 374.899 187.337C366.306 176.654 357.946 165.97 349.469 155.171C344.94 149.481 340.527 143.791 335.999 138.101C331.818 132.876 327.87 127.186 322.993 122.541C319.858 119.522 316.49 116.967 312.658 114.877C315.213 114.296 318 113.367 320.787 111.742C328.219 107.329 335.883 88.9818 326.477 76.2085C309.871 99.5489 294.892 82.4791 270.971 93.859C252.507 102.568 253.204 136.94 261.217 153.778C255.643 153.429 249.953 155.287 246.005 159.235C239.386 165.854 238.573 177.234 244.263 184.666C247.282 188.73 252.043 191.169 257.036 191.982C249.372 210.213 241.011 228.211 232.302 245.978C232.302 245.978 232.302 245.978 232.186 245.978C208.033 256.661 183.647 266.88 160.887 280.35C139.87 292.775 120.129 307.871 103.988 326.334C95.1628 336.437 87.4989 347.468 81.4606 359.429C80.4155 361.403 83.4348 363.144 84.4798 361.17C95.163 339.92 111.072 321.921 129.187 306.709C148.695 290.452 170.758 277.911 193.634 266.996C206.523 260.841 219.645 255.268 232.767 249.462C232.767 249.462 232.767 249.462 232.883 249.462C232.651 250.158 232.883 250.855 233.696 251.203C259.359 262.235 287.925 265.951 315.561 261.887C323.342 260.725 331.005 258.984 338.437 256.661C338.67 256.545 338.902 256.429 339.018 256.313C349.933 260.377 360.616 265.254 370.603 271.292C380.357 277.098 389.531 284.066 398.124 291.614ZM257.268 255.5C249.836 253.642 242.521 251.203 235.438 248.184C235.322 248.184 235.205 248.068 235.089 248.068C244.147 229.605 252.74 211.025 260.636 192.098C263.655 191.981 266.558 191.285 269.229 189.775C270.042 189.311 270.39 188.266 269.926 187.453C269.461 186.64 268.416 186.292 267.603 186.756C261.1 190.472 251.695 188.498 247.05 182.576C242.521 176.537 243.102 167.015 248.443 161.674C253.785 156.332 263.307 155.752 269.345 160.28C270.158 160.861 271.203 160.745 271.783 159.932C272.364 159.119 272.248 158.074 271.435 157.493C270.971 157.145 270.506 156.913 270.158 156.565L273.061 156.681C285.137 149.249 283.163 137.404 286.299 128.579C290.827 115.922 297.563 116.154 305.691 115.574C317.768 119.29 325.315 129.973 332.747 139.379C341.456 150.294 349.933 161.325 358.642 172.357C362.59 177.35 366.538 182.343 370.487 187.337C362.126 189.543 353.649 191.749 345.288 193.956C342.037 194.768 338.786 195.581 335.534 196.394C334.837 196.626 334.257 197.323 334.257 198.02C334.837 212.187 335.418 226.353 336.115 240.52C336.347 244.701 336.579 248.997 336.811 253.178C311.265 261.306 283.396 262.119 257.268 255.5ZM272.364 172.938C272.945 173.634 273.061 174.679 272.364 175.376C271.783 175.957 270.506 176.073 269.926 175.376C266.326 170.847 260.752 168.177 254.946 168.293C252.74 168.293 252.74 164.809 254.946 164.809C261.565 164.693 268.068 167.712 272.364 172.938ZM291.06 221.825C289.898 223.567 288.041 224.728 285.95 225.076C282.002 225.657 278.054 223.799 275.848 220.431C273.293 216.599 273.061 211.606 272.945 207.077C272.945 204.871 276.428 204.871 276.428 207.077C276.544 211.49 276.544 216.831 279.912 219.967C280.957 221.012 282.931 221.592 284.325 221.709C284.557 221.709 284.673 221.709 284.905 221.709C285.021 221.709 285.137 221.709 285.254 221.709C285.486 221.709 285.718 221.592 285.95 221.592L286.415 221.476C287.228 221.128 287.576 220.78 287.924 220.199C288.389 219.386 289.434 219.038 290.363 219.618C291.176 219.967 291.524 221.012 291.06 221.825ZM240.547 304.735C236.947 301.948 232.07 300.671 227.774 299.394C223.245 298 218.6 297.071 213.955 296.259C209.891 295.446 205.71 294.749 201.53 294.633C197.582 294.517 193.982 295.097 190.382 296.723C186.667 298.349 183.299 300.555 180.164 303.226C176.912 306.013 174.009 309.264 171.455 312.748C169.016 316.115 167.158 319.831 164.952 323.315C159.959 331.095 154.501 338.643 149.392 346.307C148.346 347.932 147.301 349.558 146.372 351.184C143.353 350.255 139.87 350.255 136.85 350.603C129.999 351.416 123.38 354.435 118.503 359.312C112.697 365.002 110.491 372.782 108.749 380.563C107.123 387.994 104.917 394.962 101.201 401.581C97.7176 407.735 93.5373 413.425 89.1247 418.999C80.2995 430.146 70.429 440.713 64.0424 453.603C62.5328 456.738 61.1394 459.99 60.0944 463.241C59.3976 465.331 62.765 466.26 63.4618 464.17C71.9386 437.23 97.9499 420.625 108.285 394.613C111.188 387.298 112 379.401 114.555 371.97C116.994 365.235 121.522 359.893 127.909 356.642C130.928 355.132 134.18 354.203 137.547 353.855C139.637 353.622 142.308 353.622 144.398 354.087C141.96 358.616 140.915 363.725 142.889 368.718C144.863 373.595 148.811 377.311 153.224 379.866C157.752 382.537 162.746 384.162 167.971 385.091C173.545 386.136 179.235 386.717 184.925 385.904C189.337 385.324 194.098 383.814 196.305 379.982C197.001 380.33 197.582 380.795 198.163 381.259C203.62 385.904 207.452 392.755 207.452 400.071C207.336 407.154 203.852 414.238 199.208 419.463C195.259 423.992 190.034 427.011 184.925 430.03C177.493 434.327 165.533 440.017 167.158 450.468C168.319 457.435 175.054 461.499 177.144 468.118C179.699 476.131 173.777 483.794 168.435 489.136C165.3 488.439 161.584 488.904 159.146 491.342C156.823 493.665 156.243 497.613 159.03 499.819C159.843 500.516 160.655 500.516 161.468 499.819C164.023 497.729 166.81 495.523 169.364 493.2C169.481 493.316 169.713 493.317 169.829 493.433C175.983 496.916 171.803 504.464 169.248 508.877C168.087 510.851 171.106 512.593 172.267 510.619C174.474 506.903 176.912 502.838 176.564 498.31C176.332 495.058 174.59 492.388 172.035 490.646C174.822 487.859 177.261 484.724 179.003 481.24C180.744 477.64 181.789 473.576 181.209 469.512C180.628 465.331 178.19 462.08 175.751 458.828C172.848 454.996 169.132 450.119 171.455 445.242C173.545 440.946 178.306 438.275 182.138 435.836C187.015 432.933 192.008 430.379 196.537 426.895C202.459 422.366 206.988 416.212 209.426 409.245C211.865 402.277 211.517 394.846 208.149 388.227C206.407 384.743 203.852 381.724 200.949 379.169C200.137 378.472 199.324 377.66 198.279 377.195C197.814 376.963 197.466 376.731 197.001 376.615C197.117 375.453 197.001 374.292 196.769 373.247C201.414 374.408 206.059 375.221 210.82 374.989C214.187 374.873 222.084 374.176 220.342 368.718C219.761 366.976 218.484 365.467 217.206 364.306C215.348 362.564 213.375 361.054 211.284 359.661C210.936 359.429 210.471 359.196 210.123 358.848C212.097 359.661 214.071 360.59 216.045 361.519C219.529 363.144 223.129 365.699 227.193 365.815C230.56 365.931 233.928 363.957 234.625 360.474C235.321 357.106 233.58 354.087 231.373 351.648C232.999 351.416 234.625 350.836 235.902 349.558C242.173 343.868 233.579 336.436 229.399 332.604C224.29 327.96 218.484 323.895 212.213 320.76C209.543 319.483 206.872 318.322 204.201 317.276C205.594 315.767 207.569 314.954 209.891 314.606C214.071 314.025 218.135 315.302 221.967 316.812C226.264 318.438 230.56 320.644 235.321 320.876C239.27 321.108 243.45 319.483 244.611 315.302C245.888 311.238 243.682 307.174 240.547 304.735ZM160.887 495.987C160.771 494.942 161.584 493.781 162.629 493.2C163.326 492.736 164.255 492.504 165.068 492.388C163.675 493.665 162.281 494.826 160.887 495.987ZM232.651 316.812C228.238 315.651 224.058 313.561 219.761 312.167C213.491 310.193 204.898 310.309 200.717 315.999C197.117 314.838 193.286 313.909 189.57 313.328C187.363 312.98 186.434 316.347 188.641 316.696C201.298 318.67 213.374 323.895 223.361 331.792C225.799 333.766 228.238 335.856 230.444 338.178C232.186 339.92 236.018 343.172 234.392 345.958C233.115 348.281 230.444 348.397 228.006 348.049C223.361 343.52 218.019 339.572 212.329 336.32C204.898 332.14 196.769 329.121 188.408 327.611C186.202 327.147 185.273 330.514 187.479 330.979C201.066 333.533 213.839 339.804 223.941 349.094C225.219 350.255 226.38 351.416 227.541 352.577C228.819 353.971 230.328 355.364 230.909 357.222C232.186 360.706 229.167 362.796 225.915 362.215C224.058 361.867 222.432 360.938 220.806 360.125C219.181 359.312 217.439 358.5 215.813 357.687C212.329 356.061 208.846 354.551 205.246 353.274C199.672 351.068 193.866 349.21 188.06 347.7C187.944 347.7 187.828 347.584 187.595 347.584C185.737 346.887 183.88 346.307 181.906 346.075C181.789 346.075 181.557 346.075 181.441 346.075C181.209 346.075 180.977 345.958 180.744 345.842C178.538 345.378 177.609 348.745 179.815 349.21C182.254 349.674 184.576 350.255 187.015 350.952C188.641 351.532 190.382 352.229 192.008 353.042C196.885 355.248 201.762 357.803 206.291 360.706C208.381 361.983 210.355 363.377 212.329 364.886C213.142 365.467 213.955 366.164 214.652 366.86C215.116 367.325 216.045 368.254 216.161 368.486C216.394 368.718 216.51 369.067 216.742 369.299C216.742 369.299 216.858 369.415 216.858 369.531C216.858 369.647 216.974 369.763 216.974 369.879C216.974 369.879 216.974 369.879 216.974 369.996C216.974 369.996 216.974 370.112 216.974 370.228L216.858 370.344C216.742 370.46 216.394 370.576 216.394 370.576C215.232 371.041 213.955 371.157 212.678 371.273C201.646 372.318 190.847 367.673 180.744 364.19C178.654 363.493 177.725 366.86 179.815 367.557C184.112 369.067 188.524 370.576 192.937 371.97C193.053 372.202 193.053 372.434 193.169 372.666C193.634 374.408 193.866 376.266 193.169 378.008C193.053 378.356 193.053 378.589 193.053 378.821C191.312 381.143 187.712 382.072 185.041 382.421C180.164 383.117 175.171 382.769 170.293 381.956C161.7 380.563 151.714 377.195 147.069 369.183C144.05 363.957 145.443 358.383 148.695 353.739C153.456 345.958 158.797 338.527 163.907 330.979C166.113 327.727 168.319 324.36 170.293 320.876C172.384 317.276 174.59 313.793 177.261 310.658C179.932 307.638 182.834 304.968 186.202 302.761C189.337 300.787 192.821 298.697 196.537 298.116C200.369 297.536 204.433 298 208.149 298.581C212.213 299.162 216.161 299.974 220.226 300.903C224.87 301.948 229.515 303.226 233.928 304.968C237.412 306.361 241.476 308.8 241.36 313.096C241.476 317.857 235.902 317.741 232.651 316.812Z" fill="black"/>
<path d="M131.277 188.963C129.535 187.686 131.277 184.667 133.018 185.944C145.327 195.117 157.636 204.407 170.061 213.581C171.803 214.858 170.061 217.877 168.32 216.6C156.011 207.31 143.586 198.137 131.277 188.963ZM169.249 190.24C175.867 196.395 182.486 202.549 189.221 208.704C190.847 210.213 193.285 207.775 191.66 206.265C185.041 200.111 178.422 193.956 171.687 187.802C170.061 186.292 167.623 188.731 169.249 190.24ZM431.102 235.063C442.25 226.819 453.514 218.574 464.661 210.329C466.403 209.052 464.661 206.033 462.919 207.31C451.772 215.555 440.508 223.799 429.36 232.044C427.503 233.438 429.244 236.457 431.102 235.063ZM443.063 247.14C448.404 244.701 453.746 242.379 459.087 239.94C459.9 239.592 460.132 238.315 459.668 237.502C459.203 236.573 458.159 236.457 457.23 236.921C451.888 239.36 446.546 241.682 441.205 244.121C440.392 244.469 440.16 245.746 440.624 246.559C441.205 247.372 442.25 247.488 443.063 247.14ZM144.979 225.541C147.65 226.819 150.321 228.212 152.992 229.489C153.804 229.954 154.965 229.722 155.43 228.909C155.894 228.096 155.662 226.935 154.849 226.47C152.179 225.193 149.508 223.799 146.837 222.522C146.024 222.058 144.863 222.29 144.398 223.103C143.934 223.916 144.05 225.077 144.979 225.541Z" fill="black"/>
</svg>
