<svg width="600" height="601" viewBox="0 0 600 601" fill="none" xmlns="http://www.w3.org/2000/svg">
<path d="M141.425 344.915C126.602 324.382 111.559 303.63 101.897 280.242C92.2344 256.854 88.1718 230.173 95.8579 206.126C104.422 179.225 128.03 157.704 155.59 151.555C168.107 148.81 182.93 148.152 190.616 137.83C193.471 133.987 194.898 129.266 196.216 124.544C200.937 107.196 206.318 87.1022 222.788 79.7456C240.685 71.7301 260.559 83.4788 278.237 92.0433C298.441 101.816 320.401 107.745 342.8 109.392C352.792 110.16 362.894 110.051 372.446 112.905C381.999 115.76 391.113 122.458 393.858 132.011C396.932 143.101 391.003 155.508 394.846 166.269C397.92 174.833 406.594 180.323 415.378 183.068C424.053 185.813 433.386 186.692 442.06 189.766C466.326 198.331 481.698 223.695 484.443 249.278C487.188 274.862 479.283 300.445 468.742 323.833C463.032 336.46 456.554 348.758 447.77 359.518C415.159 399.815 355.427 411.234 305.687 396.521C293.829 393.007 282.19 388.176 270.002 386.31C256.387 384.223 242.552 385.87 228.717 385.541C197.863 384.882 167.338 374.012 142.853 355.126" fill="#F4F6F9"/>
<path d="M516.726 397.509C515.189 392.678 512.884 388.176 510.248 384.003C507.393 379.502 503.989 375 502.672 369.729C501.135 364.02 502.891 358.2 504.319 352.6C505.746 347.001 506.515 341.62 505.636 335.911C503.77 324.162 496.194 314.17 488.727 305.166C490.704 303.08 491.802 300.445 492.021 297.48C492.241 294.186 491.472 290.892 491.582 287.598C491.582 287.049 491.362 286.61 491.143 286.281C492.57 280.681 493.888 275.081 495.315 269.481C496.523 264.76 497.95 259.928 498.499 254.987C500.037 256.195 502.013 256.964 503.989 256.964C510.028 256.964 513.981 249.607 515.958 244.776C518.483 238.737 519.142 232.149 519.032 225.671C518.923 221.937 518.593 218.314 518.264 214.581C517.934 211.726 518.044 208.322 516.177 205.906C515.299 204.808 514.091 204.04 512.773 203.601C512.334 202.173 511.676 200.856 510.687 199.648C508.491 197.013 504.429 195.585 501.354 197.562C500.146 193.828 497.841 190.644 493.558 190.205C488.947 189.766 485.323 192.84 483.567 196.793C480.492 192.181 475.771 188.997 470.061 189.107C464.132 189.217 458.422 192.291 454.25 196.354C449.528 200.965 446.344 207.114 444.148 213.263C441.952 219.302 440.415 225.671 439.646 232.149C438.329 243.898 439.427 256.744 433.058 267.175C432.399 268.273 431.631 269.481 430.862 270.579C426.251 275.63 423.505 282.328 423.286 289.135C423.176 292.649 424.823 296.712 421.968 299.567C419.662 301.872 416.588 303.08 414.502 305.606C409.341 311.754 410.11 320.099 410.22 327.566C410.329 331.848 409.89 335.911 408.463 339.863C407.145 343.597 405.169 347.11 403.522 350.734C400.886 356.334 399.24 362.263 398.691 368.302C392.542 355.785 384.417 344.365 374.644 334.373C364.872 324.382 353.782 315.817 342.143 308.131C337.751 305.166 333.249 302.202 328.528 299.567C328.528 298.908 328.198 298.359 327.759 298.029C326.112 289.135 324.465 280.242 322.818 271.348C320.951 261.136 318.975 250.925 317.108 240.713C316.779 239.066 316.45 237.419 316.12 235.662C325.673 230.282 335.226 224.902 344.669 219.522C345.986 218.753 345.767 217.216 344.669 216.447C335.116 209.42 325.673 202.283 316.12 195.146C311.179 191.413 306.128 187.57 301.078 183.836C296.246 180.213 291.525 176.26 286.255 173.296C282.851 171.319 279.227 169.782 275.494 168.904C277.47 167.806 279.447 166.488 281.313 164.621C286.584 159.241 288.999 141.893 278.129 133.218C269.345 156.825 252.765 145.736 234.868 160.778C221.252 172.307 229.378 201.075 240.028 213.702C235.197 214.69 230.805 217.545 228.28 221.828C224.107 229.074 226.084 239.066 232.672 244.227C235.526 246.533 239.15 247.631 242.773 247.741C240.358 265.089 236.734 282.108 233.33 299.237C223.119 302.641 212.907 306.155 203.794 311.974C194.351 318.013 185.677 325.04 177.442 332.617C173.599 336.13 169.865 339.644 166.132 343.267C164.266 334.373 159.105 326.029 150.98 321.966C151.529 320.978 150.87 319.88 149.992 319.44C150.98 314.499 150.65 309.449 148.784 304.617C146.698 299.127 143.184 294.406 140.11 289.575C133.521 279.253 134.51 266.297 132.972 254.658C132.094 248.29 130.447 241.921 128.251 235.882C125.945 229.733 122.761 223.584 117.93 219.083C113.648 215.13 107.938 212.055 102.009 212.055C96.299 212.055 91.5775 215.239 88.6129 219.961C86.8561 216.008 83.2327 213.043 78.621 213.483C74.3388 213.922 72.1428 217.216 70.935 220.949C67.8605 218.973 63.7979 220.51 61.6019 223.145C60.6137 224.353 59.9548 225.671 59.6254 227.208C58.3078 227.647 57.1 228.416 56.3314 229.514C54.5746 231.929 54.6845 235.333 54.3551 238.188C54.0257 241.921 53.6963 245.545 53.6963 249.278C53.6963 255.756 54.4649 262.344 57.1001 268.383C59.1863 273.214 63.2489 280.461 69.288 280.461C71.2644 280.461 73.2408 279.693 74.778 278.485C75.327 283.426 76.8642 288.257 78.072 292.979C79.4994 298.578 81.0366 304.068 82.4641 309.668C79.0602 313.511 78.7309 319.44 79.6093 324.382C80.1583 327.456 81.2563 330.53 81.2563 333.605C81.2563 336.789 79.4995 339.644 77.8525 342.279C74.5585 347.879 72.4722 354.138 74.1192 360.616C74.4486 362.153 75.1074 363.58 75.876 364.898C76.2054 365.557 76.6446 366.216 76.8642 366.874C77.1936 367.863 76.6446 367.972 75.9858 368.412C73.4604 369.839 71.3742 371.925 69.837 374.341C68.2997 376.757 67.4213 379.502 67.0919 382.247C66.7625 385.321 67.4213 388.286 68.2997 391.25C69.2879 394.544 70.6056 397.948 70.8252 401.352C71.0448 404.975 70.3859 408.599 69.5075 412.222C68.0801 418.481 66.6527 424.63 66.6527 431.108C66.6527 436.818 67.5312 442.637 69.1782 448.127L72.9114 447.907C73.131 448.676 73.3506 449.335 73.68 450.103C73.68 450.103 196.547 485.02 262.867 463.389C329.187 441.649 430.313 382.466 514.97 424.849C517.495 426.057 522.765 416.285 516.726 397.509Z" fill="white"/>
<path d="M207.307 216.996L192.704 231.819C181.834 242.909 164.156 243.018 153.066 232.148L142.305 221.607C131.216 210.737 131.106 193.059 141.976 181.969L156.58 167.036" fill="#FFE945"/>
<path d="M207.391 216.973C211.345 212.952 203.192 198.525 189.181 184.749C175.17 170.974 160.607 163.068 156.653 167.089C152.699 171.111 160.852 185.538 174.863 199.313C188.873 213.088 203.437 220.995 207.391 216.973Z" fill="white"/>
<path d="M54.793 240.604C56.8792 241.483 56.0008 244.996 53.8048 244.118C48.4245 241.922 43.154 239.287 38.2129 236.102C20.8644 225.012 7.35896 208.323 0.112108 188.998C-0.656498 186.802 2.74728 185.923 3.62568 188.01C5.6021 193.17 8.01782 198.111 10.8726 202.943C21.0841 219.742 36.566 233.248 54.793 240.604ZM147.684 226.769C144.939 228.855 142.194 230.942 139.12 232.589C135.606 234.565 131.873 235.663 127.811 236.102C120.454 236.871 112.548 236.322 106.18 240.714C104.313 242.032 106.07 245.216 108.046 243.788C114.415 239.287 122.76 240.385 130.116 239.396C137.912 238.298 144.171 233.906 150.21 229.185L147.684 226.769ZM208.624 218.205C211.149 215.57 210.491 210.519 206.538 203.601C203.024 197.343 197.314 190.206 190.397 183.398C177.111 170.332 160.861 160.12 155.261 165.83C149.661 171.43 160.202 187.57 173.488 200.637C184.138 211.178 196.875 219.852 204.232 219.852C206.099 219.852 207.526 219.303 208.624 218.205ZM187.872 186.033C194.569 192.621 200.059 199.429 203.353 205.358C206.538 211.068 206.977 214.691 205.989 215.679C203.573 218.095 190.726 212.495 176.013 198.001C161.3 183.508 155.48 170.771 157.896 168.355C158.225 168.026 158.884 167.806 159.653 167.806C164.264 167.806 175.354 173.735 187.872 186.033ZM172.06 189.876C176.452 194.158 180.735 198.441 185.127 202.723C186.774 204.37 189.299 201.844 187.652 200.197C183.26 195.915 178.978 191.633 174.586 187.351C172.939 185.704 170.413 188.229 172.06 189.876ZM176.233 183.837C180.625 188.119 184.907 192.402 189.299 196.684C190.946 198.331 193.471 195.805 191.824 194.158C187.432 189.876 183.15 185.594 178.758 181.312C177.111 179.665 174.586 182.19 176.233 183.837ZM151.308 184.057C157.676 195.037 165.033 206.346 176.562 212.495C178.648 213.593 180.405 210.519 178.429 209.421C167.449 203.601 160.531 192.731 154.492 182.3C153.284 180.214 150.21 182.08 151.308 184.057Z" fill="black"/>
<path d="M410.66 148.369L429.546 157.153C443.601 163.631 449.75 180.321 443.271 194.375L436.903 208.1C430.425 222.155 413.735 228.304 399.68 221.825L380.794 213.041" fill="#9ED5F0"/>
<path d="M410.661 148.369C407.257 146.832 401.218 151.883 395.179 160.667L380.795 154.079C379.148 153.31 377.172 154.079 376.403 155.726L375.086 158.581C374.317 160.228 375.086 162.204 376.733 162.973L390.128 169.012C388.921 171.318 387.603 173.733 386.505 176.259C386.395 176.478 386.285 176.808 386.176 177.027L371.353 170.33C369.706 169.561 367.729 170.33 366.961 171.977L365.643 174.831C364.874 176.478 365.643 178.455 367.29 179.223L382.442 186.141C377.611 199.756 376.733 210.956 380.905 212.823C386.066 215.238 396.936 202.611 405.171 184.823C413.296 167.145 415.822 150.785 410.661 148.369Z" fill="white"/>
<path d="M411.426 146.723C408.132 145.186 403.52 147.601 398.36 153.64C397.152 155.068 395.834 156.715 394.627 158.471L381.56 152.542C380.352 151.993 378.925 151.883 377.608 152.432C376.29 152.872 375.302 153.86 374.753 155.068L373.435 157.922C372.886 159.13 372.776 160.558 373.325 161.875C373.764 163.193 374.753 164.181 375.961 164.73L387.599 170.001C386.721 171.538 385.952 173.185 385.184 174.832L372.008 168.903C370.8 168.354 369.373 168.244 368.055 168.793C366.737 169.232 365.749 170.22 365.2 171.428L363.882 174.283C363.333 175.491 363.224 176.918 363.773 178.236C364.212 179.553 365.2 180.541 366.408 181.09L380.133 187.349C378.596 191.961 377.388 196.353 376.839 200.306C375.631 208.211 376.729 213.152 380.023 214.689C380.682 215.019 381.45 215.129 382.109 215.129C389.356 215.129 399.568 201.074 406.595 185.812C414.501 168.903 418.563 150.017 411.426 146.723ZM376.729 160.558C376.619 160.228 376.619 159.789 376.729 159.35L378.047 156.495C378.266 155.946 378.815 155.617 379.474 155.617C379.694 155.617 379.913 155.617 380.133 155.726L401.434 165.389L398.909 170.989L377.608 161.326C377.168 161.216 376.839 160.887 376.729 160.558ZM367.176 176.918C367.067 176.589 367.067 176.149 367.176 175.71L368.494 172.855C368.714 172.526 368.933 172.197 369.372 172.087C369.592 171.977 369.702 171.977 369.921 171.977C370.141 171.977 370.361 171.977 370.58 172.087L391.882 181.749L389.356 187.349L368.055 177.687C367.616 177.577 367.286 177.247 367.176 176.918ZM403.411 184.275C394.736 202.941 384.744 212.823 381.56 211.395C380.243 210.846 379.364 207.333 380.353 200.855C380.902 197.231 382 193.169 383.427 188.886L391.003 192.29L396.603 180.102L388.478 176.369C389.246 174.722 390.125 173.075 390.893 171.538L400.556 175.93L406.156 163.742L398.03 160.009C399.019 158.581 400.117 157.264 401.105 156.056C404.838 151.774 407.803 150.017 409.34 150.017C409.559 150.017 409.779 150.017 409.999 150.127C413.073 151.444 412.085 165.499 403.411 184.275ZM417.575 160.009C417.575 157.703 421.198 157.703 421.198 160.009C421.308 179.773 413.293 199.317 399.238 213.262C397.591 214.909 395.066 212.384 396.713 210.737C410.108 197.341 417.685 178.894 417.575 160.009ZM440.633 204.698C438.327 204.698 438.327 201.074 440.633 201.074C446.343 201.074 450.625 205.027 453.919 209.199C457.103 213.262 460.178 218.313 465.668 219.411C467.974 219.85 466.985 223.364 464.68 222.925C459.299 221.936 455.676 217.654 452.602 213.482C449.637 209.529 446.123 204.698 440.633 204.698ZM518.043 226.877C515.737 226.987 515.737 223.364 518.043 223.254C524.631 222.815 531.109 221.497 537.368 219.521C560.316 212.164 579.092 196.243 596.88 180.651C598.637 179.114 601.162 181.639 599.405 183.177C594.025 187.898 588.755 192.51 583.155 197.012C564.489 212.164 542.748 225.34 518.043 226.877Z" fill="black"/>
<path d="M257.045 533.991C257.045 542.995 249.799 550.242 240.795 550.242C231.791 550.242 224.544 542.995 224.544 533.991C224.544 524.988 231.791 517.741 240.795 517.741C249.799 517.631 257.045 524.988 257.045 533.991ZM283.837 517.631C274.833 517.631 267.586 524.878 267.586 533.881C267.586 542.885 274.833 550.132 283.837 550.132C292.841 550.132 300.087 542.885 300.087 533.881C300.087 524.988 292.841 517.631 283.837 517.631ZM283.837 517.631C274.833 517.631 267.586 524.878 267.586 533.881C267.586 542.885 274.833 550.132 283.837 550.132C292.841 550.132 300.087 542.885 300.087 533.881C300.087 524.988 292.841 517.631 283.837 517.631ZM329.843 517.631C320.84 517.631 313.593 524.878 313.593 533.881C313.593 542.885 320.84 550.132 329.843 550.132C338.847 550.132 346.094 542.885 346.094 533.881C346.094 524.988 338.847 517.631 329.843 517.631Z" fill="#F4F6F9"/>
<path d="M297.671 256.086C298.33 256.745 298.33 257.953 297.671 258.612C296.903 259.271 296.244 260.039 295.585 260.808C295.476 260.918 295.475 261.027 295.366 261.027C295.366 261.027 295.366 261.137 295.256 261.137C295.146 261.357 294.926 261.576 294.817 261.686C294.487 262.125 294.268 262.455 294.048 262.894C293.499 263.772 293.06 264.651 292.621 265.529C292.511 265.639 292.511 265.749 292.511 265.859C292.511 265.859 292.511 265.859 292.511 265.968C292.401 266.188 292.291 266.408 292.181 266.737C291.962 267.176 291.852 267.615 291.742 268.164C291.413 269.153 290.535 269.702 289.546 269.482C288.558 269.262 288.009 268.164 288.228 267.286C289.546 263.004 291.852 259.161 295.146 256.196C295.805 255.318 296.903 255.318 297.671 256.086ZM73.8973 450.104C77.6305 460.645 84.548 470.198 93.5517 476.676C95.4183 477.994 93.6615 481.178 91.6851 479.751C80.9246 471.955 73.1287 460.755 69.3955 448.018C67.7485 442.528 66.8701 436.709 66.8701 430.999C66.8701 424.521 68.2975 418.372 69.7249 412.113C70.6033 408.6 71.2621 404.976 71.0425 401.243C70.8229 397.729 69.5053 394.435 68.5171 391.141C67.6387 388.177 66.9798 385.212 67.3092 382.138C67.6386 379.283 68.517 376.538 70.0542 374.232C71.5915 371.816 73.6778 369.73 76.2032 368.303C76.9718 367.864 77.4109 367.754 77.0815 366.766C76.8619 366.107 76.4227 365.448 76.0933 364.789C75.3247 363.472 74.7757 362.044 74.3365 360.507C72.6895 354.029 74.6659 347.77 78.0698 342.17C79.7168 339.535 81.4736 336.79 81.4736 333.496C81.4736 330.312 80.3756 327.347 79.8265 324.273C78.9481 319.332 79.1677 313.402 82.6813 309.559C81.2539 303.959 79.7167 298.469 78.2893 292.87C77.0815 288.148 75.5443 283.317 74.9953 278.376C73.4581 279.584 71.4817 280.352 69.5052 280.352C63.4662 280.352 59.4036 273.105 57.3174 268.274C54.792 262.235 53.9136 255.647 53.9136 249.169C53.9136 245.436 54.2429 241.812 54.5724 238.079C54.792 235.224 54.792 231.82 56.5488 229.405C57.4272 228.307 58.5252 227.538 59.8428 227.099C60.2821 225.671 60.831 224.244 61.8192 223.036C64.0152 220.401 68.0778 218.864 71.1523 220.84C72.3601 217.107 74.5561 213.813 78.8383 213.374C83.4499 212.935 87.0735 215.899 88.8303 219.852C91.7949 215.131 96.5163 211.946 102.226 211.946C108.155 211.946 113.865 215.021 118.147 218.974C122.978 223.475 126.163 229.624 128.468 235.773C130.774 241.812 132.421 248.181 133.19 254.549C134.727 266.298 133.739 279.145 140.327 289.466C143.401 294.407 146.915 299.128 149.001 304.509C150.868 309.34 151.087 314.391 150.209 319.332C151.087 319.771 151.746 320.869 151.197 321.857C159.432 325.92 164.593 334.265 166.35 343.158C170.083 339.535 173.816 335.912 177.659 332.508C185.894 325.041 194.568 317.904 204.011 311.865C213.125 306.046 223.336 302.532 233.548 299.128C236.842 281.999 240.575 264.98 242.991 247.632C239.367 247.522 235.744 246.424 232.889 244.118C226.301 238.957 224.324 228.966 228.497 221.719C231.022 217.436 235.414 214.582 240.246 213.593C229.705 200.966 221.47 172.198 235.085 160.669C252.873 145.627 269.562 156.717 278.347 133.109C289.327 141.784 286.911 159.132 281.531 164.512C279.664 166.379 277.688 167.806 275.711 168.795C279.445 169.673 283.068 171.21 286.472 173.187C291.742 176.151 296.464 180.104 301.295 183.728C306.346 187.461 311.287 191.194 316.338 195.037C325.78 202.174 335.223 209.311 344.886 216.338C345.984 217.107 346.203 218.754 344.886 219.413C335.333 224.793 325.89 230.283 316.338 235.554C316.667 237.201 316.996 238.848 317.326 240.604C319.192 250.816 321.169 261.027 323.036 271.239C324.683 280.133 326.33 289.027 327.977 297.92C328.416 298.25 328.855 298.799 328.745 299.458C333.357 302.093 337.859 305.058 342.36 308.022C353.999 315.708 365.089 324.273 374.862 334.265C384.634 344.256 392.759 355.676 398.908 368.193C399.457 362.154 401.104 356.225 403.739 350.625C405.386 347.001 407.363 343.488 408.68 339.755C410.108 335.692 410.547 331.739 410.437 327.457C410.327 319.99 409.559 311.646 414.719 305.497C416.805 302.971 419.88 301.764 422.186 299.458C425.04 296.713 423.394 292.54 423.503 289.027C423.613 282.219 426.358 275.521 431.079 270.47C431.848 269.372 432.507 268.164 433.276 267.066C439.644 256.635 438.546 243.789 439.864 232.04C440.632 225.671 442.169 219.193 444.366 213.154C446.562 207.005 449.746 200.857 454.467 196.245C458.64 192.182 464.349 189.108 470.278 188.998C475.988 188.888 480.709 192.072 483.784 196.684C485.541 192.731 489.054 189.657 493.776 190.096C498.058 190.425 500.364 193.719 501.572 197.453C504.646 195.476 508.709 196.904 510.905 199.539C511.893 200.747 512.552 202.064 512.991 203.492C514.309 203.821 515.516 204.59 516.395 205.798C518.152 208.213 518.152 211.617 518.481 214.472C518.92 218.205 519.25 221.828 519.25 225.562C519.359 232.04 518.591 238.628 516.175 244.667C514.199 249.498 510.246 256.855 504.207 256.855C502.231 256.855 500.254 256.086 498.717 254.879C498.168 259.82 496.74 264.651 495.533 269.372C494.105 274.972 492.787 280.572 491.36 286.172C491.689 286.501 491.909 286.831 491.799 287.489C491.69 290.783 492.458 294.077 492.239 297.371C492.129 300.336 491.031 302.971 488.944 305.058C496.411 314.061 503.987 324.053 505.854 335.802C506.732 341.511 505.964 346.892 504.536 352.491C503.109 358.091 501.352 363.911 502.889 369.62C504.317 374.891 507.611 379.393 510.466 383.895C513.211 388.177 515.406 392.569 516.944 397.4C523.093 416.286 518.92 438.026 506.074 453.179C504.536 454.936 502.011 452.41 503.548 450.653C510.466 442.528 514.638 432.207 515.846 421.666C516.834 412.223 515.626 402.561 511.783 393.886C507.72 384.553 499.266 376.757 498.717 366.107C498.388 360.397 500.254 354.907 501.572 349.417C502.779 344.037 503.109 338.766 501.681 333.496C499.156 323.724 492.787 315.379 486.419 307.803C486.309 307.803 486.2 307.912 486.09 307.912C480.71 309.779 475 310.328 469.4 310.328C463.8 310.328 458.091 309.999 452.601 309.23C443.268 308.022 434.483 304.179 427.236 298.25C426.687 300.226 425.48 301.983 423.613 303.411C420.978 305.497 418.123 306.814 416.366 309.779C412.413 316.587 414.609 324.931 414.06 332.288C413.511 340.304 409.339 347.001 406.264 354.248C403.19 361.276 401.982 368.852 402.421 376.428C402.531 376.757 402.641 377.197 402.531 377.416C402.531 377.965 402.641 378.514 402.641 379.173C402.861 381.479 399.347 381.479 399.018 379.173C398.908 378.514 398.908 377.855 398.798 377.197C398.03 375.33 397.261 373.463 396.382 371.707C389.794 357.542 380.352 345.025 369.152 334.155C359.929 325.151 349.607 317.465 338.847 310.438C335.882 308.461 332.808 306.595 329.733 304.728C329.184 305.497 328.196 305.607 327.428 305.277C326.549 308.681 325.671 312.195 324.024 315.269C320.62 321.967 313.702 326.578 306.456 327.896C298.22 329.433 289.656 326.908 282.958 321.967C282.299 321.528 282.08 320.869 282.19 320.21C281.641 320.21 281.092 320.32 280.433 320.32L280.323 320.43C273.954 327.237 263.084 328.006 254.41 325.81C249.249 324.492 245.736 321.198 242.991 316.806C240.136 312.304 237.83 307.473 235.634 302.642C229.815 304.618 223.885 306.485 218.285 308.901C208.184 313.183 199.18 319.551 190.725 326.469C182.49 333.167 174.804 340.523 167.118 347.99C167.228 350.295 167.228 352.601 167.008 354.907C166.899 356.664 166.569 358.531 167.118 360.178C167.557 361.605 168.436 362.593 169.424 363.581C171.62 365.558 174.146 367.205 176.342 369.071C178.538 370.938 180.734 372.914 182.71 375.001C185.565 377.965 188.2 381.259 190.286 384.883C192.482 382.687 194.898 380.601 197.533 378.734C199.4 377.306 201.266 380.491 199.4 381.808C196.764 383.675 194.349 385.871 192.153 388.177C194.788 393.557 195.996 399.486 195.008 405.745C194.129 410.906 190.835 416.176 185.235 416.835C182.82 417.164 180.075 416.505 178.318 414.639C176.342 412.662 175.902 409.808 176.232 407.172C176.671 404.208 178.098 401.353 179.636 398.718C181.063 396.082 182.71 393.667 184.577 391.361C185.565 390.043 186.663 388.726 187.871 387.518C184.247 380.93 178.428 375.33 172.718 370.718C170.632 369.071 168.436 367.644 166.569 365.777C164.483 363.801 163.385 361.385 163.275 358.64C163.056 356.005 163.714 353.48 163.714 350.844C163.714 349.856 163.714 348.868 163.605 347.88C163.495 347.55 163.385 347.221 163.495 346.892C163.385 345.903 163.275 345.025 163.056 344.037C161.409 335.912 156.577 328.116 148.672 324.822C145.927 327.347 142.962 329.543 139.997 331.739C132.641 336.9 124.296 341.621 115.292 342.719C104.861 344.037 94.1007 342.28 84.548 337.998C84.4382 338.217 84.4382 338.327 84.3284 338.547C83.0107 341.841 80.8148 344.696 79.2775 347.88C77.9599 350.625 77.5207 353.919 77.6305 356.993C77.7403 358.531 78.0698 360.068 78.6188 361.495C79.1678 362.923 80.156 364.13 80.705 365.668C81.1442 367.095 81.1442 368.632 80.2658 369.84C79.4972 370.938 78.1795 371.377 77.0815 372.146C74.8855 373.683 73.1287 375.879 72.0307 378.404C70.9327 380.82 70.6033 383.565 71.0425 386.2C71.5915 389.494 72.9091 392.569 73.7875 395.753C75.6541 402.67 74.3365 409.368 72.6895 416.176C71.2621 421.995 70.4936 427.705 70.7132 433.744C70.823 439.344 71.9209 444.834 73.8973 450.104ZM73.2385 231.491C73.3483 234.675 73.8973 237.859 74.7757 240.934C75.2149 240.714 75.6542 240.604 76.2032 240.495C79.1678 239.506 82.2421 239.287 85.4264 239.287C85.3166 236.432 85.3166 233.577 85.646 230.722C85.8656 228.856 86.0852 226.989 86.5244 225.122C86.5244 225.013 86.4146 224.903 86.4146 224.793C86.0852 222.377 85.2068 219.962 83.2303 218.534C81.4735 217.217 78.7286 216.778 76.9718 218.095C75.2149 219.413 74.5562 222.048 74.117 224.024C73.4582 226.44 73.2385 228.966 73.2385 231.491ZM74.8855 270.251C74.5561 270.141 74.2268 269.921 74.0072 269.702C67.1995 264.98 62.9173 257.294 60.8311 249.388C59.6233 244.887 59.0742 240.165 59.0742 235.444C59.0742 234.346 59.0742 233.248 59.0742 232.15C58.3056 233.577 58.3056 235.663 58.1958 237.091C57.2076 247.192 56.4389 258.063 60.7212 267.506C61.7094 269.592 62.9172 271.678 64.3447 273.435C65.6623 274.972 67.1995 276.839 69.3955 276.839C73.1287 276.839 74.7757 273.545 74.8855 270.251ZM78.2893 266.188C78.6187 264.761 78.3991 263.333 78.1795 261.906C78.0697 260.588 77.8501 259.271 77.6305 257.953C74.7757 257.075 72.2503 255.647 70.4935 253.232C68.7367 250.926 67.7485 247.522 69.3955 244.887C69.9445 244.008 70.7131 243.24 71.5915 242.691C70.0543 237.64 69.2857 232.479 69.8347 227.209C69.9445 226.221 70.0543 225.232 70.2739 224.134C67.9681 223.146 66.2112 224.134 65.5524 224.683C62.5878 226.879 62.6976 231.271 62.6976 234.675C62.8074 241.922 63.7957 249.388 67.0897 255.867C68.5171 258.722 70.2739 261.357 72.4699 263.663C73.568 264.87 74.8856 266.078 76.313 266.957C77.411 267.615 77.9599 267.506 78.2893 266.188ZM85.8656 308.022C86.4146 308.242 86.9636 308.681 87.0734 309.23C89.0498 309.779 91.685 309.23 93.5517 308.901C95.7477 308.571 98.0535 308.132 100.249 307.583C104.532 306.485 108.814 305.058 112.767 303.191C120.892 299.348 128.249 294.077 134.398 287.489C134.507 287.38 134.617 287.27 134.727 287.16C132.751 282.658 131.872 277.717 131.323 272.776C130.664 267.066 130.335 261.357 129.676 255.647C129.017 249.828 127.48 244.118 125.504 238.628C123.527 232.918 120.673 227.099 116.39 222.707C112.767 218.974 107.716 215.899 102.336 215.789C96.5163 215.68 92.6732 219.742 90.2576 224.683C90.1478 224.903 90.0381 225.122 89.9283 225.342C88.7205 229.844 88.7205 234.675 88.8303 239.177C88.8303 239.287 88.8303 239.287 88.8303 239.287C89.9283 239.397 90.9164 239.397 92.0144 239.506C96.077 239.836 100.249 240.495 104.093 241.702C105.63 237.31 106.069 232.589 105.191 228.087C104.971 227.099 105.41 226.111 106.508 225.891C107.387 225.672 108.594 226.221 108.704 227.209C109.692 232.479 109.253 237.969 107.496 243.02C108.375 243.349 109.253 243.789 110.022 244.118C116.61 247.412 121.441 253.341 125.174 259.49C126.382 261.467 123.308 263.333 122.1 261.357C118.367 255.318 113.645 249.608 106.947 246.643C102.116 244.557 96.9555 243.569 91.7949 243.13C87.4028 242.8 83.0108 242.361 78.6188 243.349C76.5325 243.789 73.7876 244.557 72.3602 246.424C70.9328 248.29 73.0189 251.145 74.4463 252.353C76.9717 254.439 80.3756 254.988 83.5598 255.208C87.293 255.537 91.0263 255.647 94.8693 255.757C96.736 255.867 97.2849 258.173 95.7477 259.161C92.234 261.576 90.6969 265.968 90.5871 270.141C90.5871 275.521 92.7831 280.682 94.8693 285.623C95.1987 286.501 94.4301 287.599 93.5517 287.819C92.5634 288.038 91.685 287.489 91.3556 286.501C89.0498 280.901 86.5244 274.972 86.9636 268.823C86.9636 268.164 87.0735 267.615 87.1833 266.957C85.0971 267.066 83.1207 266.298 81.6932 264.651C81.6932 265.31 81.6931 265.859 81.5833 266.517C81.3637 268.055 80.5952 269.592 79.2775 270.36C79.0579 270.47 78.7286 270.58 78.509 270.69C78.509 270.909 78.3992 271.129 78.3992 271.349C78.3992 271.788 78.2893 272.227 78.1795 272.556C77.9599 274.862 78.0698 277.168 78.509 279.474C79.3874 284.525 80.9246 289.466 82.2422 294.517C83.5599 299.128 84.7676 303.52 85.8656 308.022ZM83.3403 260.369C84.2187 262.125 85.5363 264.102 87.7323 263.443C88.0617 263.333 88.2812 263.223 88.6106 263.114C89.1596 261.796 89.8185 260.588 90.6969 259.49V259.38C87.9518 259.271 85.3166 259.161 82.5716 258.831C82.901 259.38 83.1207 259.929 83.3403 260.369ZM144.719 304.069C142.413 299.348 139.119 295.175 136.484 290.674C130.006 297.591 122.1 303.191 113.316 307.034C108.814 309.01 104.093 310.548 99.3712 311.646C96.9555 312.195 94.6497 312.524 92.2341 312.853C89.8185 313.183 87.4029 313.293 85.097 312.414C81.4736 316.916 83.4501 323.614 84.4383 328.884C84.8775 330.751 85.0971 332.618 84.9873 334.484C90.1479 336.9 95.8575 338.547 101.567 339.206C106.508 339.755 111.779 339.864 116.72 338.986C120.782 338.217 124.625 336.57 128.249 334.704C134.507 331.41 140.546 327.347 145.817 322.516C145.817 322.406 145.817 322.296 145.817 322.186C147.683 316.038 147.464 309.889 144.719 304.069ZM189.298 391.032C188.2 392.239 187.212 393.557 186.333 394.875C184.577 397.29 182.93 399.925 181.502 402.67C180.294 404.976 178.867 407.941 179.745 410.576C180.404 412.662 182.6 413.541 184.686 413.321C186.992 412.992 188.639 411.455 189.737 409.478C192.153 405.196 191.933 399.596 190.725 394.984C190.286 393.557 189.847 392.239 189.298 391.032ZM275.162 320.1C273.954 319.99 272.747 319.771 271.539 319.441C265.17 317.904 259.131 314.83 253.312 311.975C249.03 309.889 244.857 307.693 240.795 305.277C242.222 308.132 243.759 310.987 245.297 313.842C247.602 317.794 250.237 320.979 254.849 322.296C261.218 324.053 269.453 323.943 275.162 320.1ZM323.255 306.595C323.145 306.595 323.145 306.705 323.036 306.705C321.608 307.583 320.071 308.461 318.534 309.23C315.459 310.767 312.275 312.085 309.091 313.183C303.161 315.269 297.013 317.245 290.974 318.783C289.326 319.222 287.68 319.551 285.923 319.771C293.279 324.602 302.832 326.469 310.957 322.516C314.801 320.759 318.094 317.904 320.181 314.281C321.718 311.975 322.596 309.34 323.255 306.595ZM324.573 300.885C324.463 300.665 324.463 300.336 324.353 300.007C324.134 299.128 324.024 298.14 323.804 297.262C323.365 294.956 322.926 292.65 322.487 290.344C320.291 278.705 318.204 267.066 316.008 255.318C314.8 248.73 313.593 242.142 312.275 235.554C312.165 234.785 312.385 233.907 313.153 233.467C322.267 228.417 331.38 223.256 340.494 218.095C336.102 214.911 331.71 211.617 327.428 208.323C317.875 201.186 308.322 193.829 298.769 186.692C289.876 179.994 280.762 172.089 269.013 171.979C262.425 174.175 257.045 175.822 256.167 187.131C255.508 195.366 259.9 204.919 251.336 214.033L249.359 214.472C249.688 214.582 250.018 214.691 250.347 214.801C251.226 215.131 251.665 216.229 251.336 217.217C251.006 218.095 249.908 218.534 248.92 218.205C242.881 215.68 235.085 218.315 231.791 224.024C228.497 229.624 230.144 237.75 235.195 241.812C240.355 245.765 248.59 245.326 253.202 240.714C253.861 240.055 255.069 240.055 255.728 240.714C256.386 241.373 256.386 242.581 255.728 243.24C253.312 245.655 250.018 247.192 246.724 247.741C246.724 247.851 246.724 248.071 246.724 248.181C244.418 265.31 240.795 282.109 237.501 299.018C237.61 299.018 237.61 299.018 237.72 299.128C244.528 303.301 251.665 307.144 258.912 310.548C265.061 313.402 271.649 316.587 278.566 316.806C285.593 317.026 292.401 314.83 298.989 312.853C305.138 310.987 311.177 309.01 316.997 306.156C319.742 304.728 322.157 302.971 324.683 301.324C324.573 301.105 324.573 300.995 324.573 300.885ZM499.046 246.204C498.717 246.424 498.497 246.643 498.168 246.753C498.388 250.047 500.034 253.341 503.878 253.341C506.074 253.341 507.611 251.475 508.819 249.937C510.246 248.071 511.454 245.985 512.332 243.898C516.505 234.346 515.516 223.475 514.418 213.374C514.308 211.946 514.199 209.86 513.43 208.433C513.43 209.531 513.43 210.629 513.43 211.727C513.43 216.448 512.991 221.17 511.783 225.671C509.917 233.687 505.744 241.373 499.046 246.204ZM501.132 219.193C502.011 219.742 502.78 220.511 503.329 221.389C505.085 224.024 504.097 227.428 502.45 229.844C500.693 232.26 498.168 233.797 495.313 234.675C495.093 235.993 494.984 237.31 494.874 238.628C494.764 240.055 494.544 241.483 494.874 242.91C495.203 244.228 495.752 244.338 496.85 243.569C498.278 242.691 499.485 241.483 500.583 240.275C502.78 237.969 504.536 235.334 505.854 232.479C509.038 225.891 510.026 218.425 510.026 211.178C510.026 207.774 510.026 203.382 507.062 201.296C506.293 200.747 504.536 199.868 502.34 200.857C502.56 201.955 502.67 202.943 502.78 203.931L501.132 219.193ZM485.98 201.845C486.419 203.711 486.748 205.578 486.968 207.445C487.297 210.299 487.407 213.154 487.297 216.009C490.372 215.899 493.446 216.119 496.521 217.107C496.96 217.217 497.399 217.436 497.948 217.546C498.717 214.472 499.266 211.288 499.376 208.103C499.376 205.578 499.156 203.053 498.607 200.637C498.058 198.66 497.399 196.025 495.642 194.708C493.776 193.39 491.031 193.829 489.384 195.147C487.407 196.684 486.639 199.1 486.309 201.515C485.98 201.625 485.98 201.735 485.98 201.845ZM435.581 270.251C438.656 273.325 441.84 276.18 445.464 278.596C452.381 283.427 460.067 287.16 468.192 289.466C474.012 291.113 482.576 292.211 486.968 286.831C487.078 286.721 487.188 286.611 487.297 286.501C487.297 286.391 487.297 286.282 487.297 286.282C488.505 281.231 489.823 276.18 491.031 271.239C492.239 266.298 493.776 261.247 494.544 256.196C494.874 253.89 494.984 251.584 494.764 249.279C494.654 248.839 494.654 248.4 494.544 248.071C494.544 247.851 494.435 247.632 494.435 247.412C494.215 247.302 493.886 247.192 493.666 247.083C492.239 246.314 491.58 244.777 491.25 243.24C491.141 242.581 491.141 242.032 491.141 241.373C489.713 243.02 487.737 243.898 485.65 243.789C485.76 244.447 485.87 244.996 485.87 245.655C486.419 251.804 484.003 257.843 481.807 263.443C481.478 264.321 480.6 264.98 479.611 264.761C478.733 264.541 477.964 263.443 478.294 262.565C480.27 257.624 482.466 252.463 482.356 247.083C482.247 242.91 480.709 238.518 477.086 236.212C475.549 235.224 476.098 232.918 477.964 232.809C481.698 232.589 485.431 232.369 489.274 232.04C492.458 231.711 495.862 231.162 498.278 229.075C499.705 227.868 501.791 225.013 500.254 223.146C498.827 221.389 496.082 220.621 493.995 220.181C489.713 219.193 485.211 219.742 480.819 220.072C475.659 220.621 470.498 221.609 465.667 223.805C459.079 226.77 454.357 232.589 450.734 238.738C449.526 240.714 446.342 238.957 447.55 236.981C451.283 230.722 456.004 224.793 462.483 221.389C463.361 220.95 464.129 220.621 465.008 220.181C463.251 215.131 462.702 209.75 463.581 204.37C463.69 203.382 464.898 202.833 465.777 203.053C466.765 203.272 467.204 204.26 467.094 205.249C466.326 209.86 466.875 214.582 468.412 218.864C472.365 217.656 476.427 216.887 480.49 216.448C481.588 216.338 482.576 216.229 483.674 216.119V216.009C483.784 211.507 483.674 206.676 482.466 202.174C482.357 201.955 482.247 201.735 482.137 201.515C479.721 196.574 475.768 192.621 469.949 192.731C464.569 192.841 459.518 196.025 456.004 199.868C451.832 204.37 449.087 210.19 447.111 215.899C445.244 221.389 443.816 227.209 443.158 233.028C442.499 238.738 442.389 244.447 441.73 250.157C441.181 255.428 440.303 260.808 437.997 265.639C437.338 267.286 436.46 268.823 435.581 270.251ZM482.247 236.212C483.125 237.42 483.784 238.628 484.333 239.836C484.553 239.946 484.882 240.055 485.211 240.165C487.517 240.714 488.725 238.738 489.603 236.981C489.823 236.542 490.152 235.993 490.372 235.554C487.627 235.883 484.882 236.103 482.247 236.212ZM488.286 296.273C488.286 294.517 488.066 292.76 487.956 291.003C485.431 293.199 481.917 294.187 478.623 294.407C470.169 295.066 461.604 291.662 454.138 288.038C446.561 284.305 439.534 279.474 433.605 273.435C431.848 276.07 430.201 278.705 428.883 281.56L428.444 281.67C428.335 281.89 428.334 282.109 428.225 282.329C427.017 286.172 427.017 289.685 427.346 293.638C427.456 293.748 427.566 293.748 427.785 293.968C434.813 300.556 444.036 304.509 453.589 305.716C458.749 306.375 464.129 306.595 469.4 306.595C474.561 306.595 479.721 306.046 484.662 304.509C484.772 304.179 484.882 303.85 485.101 303.63C487.297 301.654 488.396 299.348 488.286 296.273ZM272.417 371.487C270.441 371.707 268.464 372.805 267.915 374.891C267.696 375.769 268.245 376.867 269.233 377.087C269.343 377.087 269.562 377.087 269.672 377.087C269.892 378.734 270.77 380.161 272.088 381.04C273.186 381.808 274.613 382.028 275.821 381.369C276.809 380.82 277.358 379.722 277.578 378.734C278.127 377.087 277.907 375.001 276.919 373.573C275.931 372.256 274.284 371.377 272.417 371.487ZM274.064 378.075C273.954 378.295 273.845 378.514 274.064 378.075V378.075ZM274.174 377.855C274.174 377.965 274.174 377.965 274.064 378.075C274.174 378.075 274.174 378.075 274.064 378.075C274.064 378.075 274.064 378.075 273.955 378.075C273.955 378.075 273.845 378.075 273.845 377.965C273.845 377.965 273.845 377.965 273.955 377.965C273.845 377.855 273.735 377.746 273.735 377.636V377.746C273.735 377.746 273.735 377.746 273.735 377.636C273.625 377.416 273.735 377.526 273.735 377.636L273.625 377.526C273.515 377.416 273.515 377.306 273.406 377.197V377.087C273.406 376.977 273.406 376.977 273.406 376.867C273.406 376.648 273.406 376.318 273.406 376.099C273.406 375.769 273.296 375.44 273.076 375.11H273.186H273.076H273.186H273.296C273.296 375.11 273.296 375.11 273.406 375.22C273.515 375.33 273.625 375.44 273.515 375.33C273.625 375.44 273.625 375.44 273.735 375.55C273.735 375.55 273.735 375.55 273.735 375.44C273.735 375.44 273.735 375.55 273.845 375.55C273.955 375.769 273.955 375.769 273.955 375.659C273.955 375.769 274.064 375.769 274.064 375.879C274.064 375.879 274.064 375.989 274.174 375.989C274.174 376.099 274.174 376.099 274.284 376.208C274.284 376.318 274.284 376.428 274.394 376.538C274.394 376.757 274.394 377.087 274.394 377.306C274.174 377.526 274.174 377.746 274.174 377.855ZM274.394 378.295C274.284 378.295 274.284 378.185 274.284 378.185C274.284 378.185 274.284 378.185 274.394 378.295ZM286.472 389.385C285.813 386.42 286.033 383.565 286.252 380.601C286.472 377.746 286.582 374.671 285.813 371.926C285.484 370.718 284.935 369.511 284.166 368.522C283.397 367.424 281.86 366.436 281.641 365.009C281.311 363.581 281.641 361.934 281.75 360.507C281.86 358.86 282.08 357.323 282.409 355.676C283.068 352.491 284.605 350.186 286.362 347.55C288.119 344.805 288.558 341.951 287.24 338.986C286.142 336.68 283.946 334.594 284.056 331.849C284.166 329.543 280.543 329.543 280.433 331.849C280.323 334.374 281.641 336.461 282.958 338.547C284.386 340.962 285.154 342.719 283.617 345.354C282.08 347.88 280.323 350.076 279.445 353.04C278.566 356.005 278.237 359.189 278.127 362.264C278.017 363.691 277.907 365.119 278.347 366.436C278.896 367.973 279.994 368.962 280.982 370.169C282.739 372.365 282.958 375.11 282.958 377.746C282.848 380.601 282.519 383.455 282.629 386.31C282.739 389.604 283.727 392.679 284.935 395.753C287.57 402.341 292.072 409.588 289.766 416.945C288.997 419.141 292.511 420.129 293.279 417.933C295.366 411.455 292.95 404.976 290.315 399.047C288.668 395.753 287.131 392.679 286.472 389.385ZM254.3 227.758C249.469 224.244 243.1 223.256 237.391 224.793C235.195 225.452 236.073 228.856 238.379 228.307C243.21 226.989 248.371 227.977 252.434 230.942C253.202 231.491 254.41 231.052 254.959 230.283C255.508 229.405 255.179 228.417 254.3 227.758ZM273.735 346.013C274.833 345.574 275.821 344.805 276.48 343.817C277.029 342.829 277.358 341.731 277.468 340.633C277.578 339.535 277.358 338.547 276.919 337.559C276.37 336.351 275.162 335.692 273.845 335.582C272.637 335.472 271.209 336.021 270.441 337.01C269.782 337.668 269.453 338.547 269.233 339.315C269.123 339.425 269.123 339.425 269.013 339.535C268.574 339.974 268.355 340.413 268.135 341.072C267.806 341.951 267.915 343.049 268.245 343.927C269.123 345.903 271.649 346.782 273.735 346.013ZM271.539 342.28C271.649 342.17 271.868 342.06 271.978 341.951C272.088 341.731 272.198 341.621 272.307 341.402C272.307 341.292 272.417 341.292 272.417 341.182C272.637 340.853 272.747 340.413 272.637 340.084C272.637 339.974 272.637 339.974 272.747 339.864C272.747 339.755 272.856 339.645 272.856 339.535C272.856 339.535 272.856 339.425 272.966 339.425L273.076 339.315C273.186 339.315 273.186 339.206 273.296 339.206C273.406 339.206 273.405 339.206 273.515 339.096H273.625C273.735 339.315 273.735 339.425 273.735 339.645C273.735 339.974 273.735 340.194 273.735 340.523C273.625 340.853 273.625 341.072 273.515 341.402C273.405 341.511 273.406 341.621 273.296 341.731C273.186 341.841 273.186 341.951 273.076 342.06C273.076 342.06 273.076 341.951 273.186 341.951C273.186 341.951 273.186 341.951 273.076 342.06C272.966 342.17 272.966 342.17 272.856 342.28C272.747 342.39 272.637 342.39 272.527 342.39C272.417 342.39 272.307 342.5 272.088 342.5C271.978 342.5 271.868 342.5 271.758 342.5C271.649 342.5 271.649 342.5 271.539 342.39H271.429C271.539 342.39 271.539 342.39 271.539 342.28ZM280.762 180.543C281.641 180.324 282.299 179.226 282.08 178.347C281.75 177.359 280.872 176.92 279.884 177.03C279.554 177.14 279.225 177.14 278.896 177.249C278.676 177.249 278.566 177.359 278.347 177.359C278.347 177.359 278.237 177.359 278.127 177.359C277.468 177.469 276.809 177.469 276.151 177.579C274.833 177.689 273.405 177.579 272.088 177.469C271.1 177.359 270.221 178.347 270.331 179.226C270.331 180.324 271.1 180.983 272.088 180.983C274.943 181.312 277.907 181.092 280.762 180.543ZM274.174 190.974C273.625 190.206 272.637 189.767 271.649 190.316C270.88 190.755 270.331 191.963 270.99 192.841C273.405 196.025 275.821 199.1 278.127 202.284C278.676 203.053 279.664 203.492 280.652 202.943C281.421 202.504 281.97 201.296 281.311 200.417C279.005 197.233 276.59 194.159 274.174 190.974ZM288.887 193.939C286.472 191.194 284.056 188.449 281.531 185.814C280.872 185.155 279.554 185.155 279.005 185.814C278.347 186.582 278.347 187.571 279.005 188.339C281.421 191.084 283.837 193.829 286.362 196.464C287.021 197.123 288.338 197.123 288.887 196.464C289.546 195.696 289.546 194.708 288.887 193.939ZM265.17 180.873C264.182 181.202 263.743 182.081 263.853 183.069C264.182 185.375 264.621 187.79 264.072 189.986C263.633 191.743 262.755 193.061 261.108 193.829C260.229 194.268 260.01 195.476 260.449 196.355C260.998 197.233 261.986 197.453 262.974 197.013C265.28 195.915 266.817 193.61 267.476 191.194C268.245 188.229 267.806 185.155 267.366 182.19C267.147 181.092 265.939 180.543 265.17 180.873Z" fill="black"/>
<path d="M228.717 95.0076C229.266 95.7762 228.827 97.0938 228.058 97.533C227.18 98.082 226.192 97.6428 225.533 96.8742C220.702 90.6155 224.984 80.9531 230.145 76.2316C232.78 73.816 236.513 71.8396 240.246 73.0474C242.003 73.5964 243.211 74.914 244.529 76.1218C246.066 77.5492 247.383 77.8786 249.25 76.7806C252.105 75.1336 254.191 72.2788 257.046 70.522C260.01 68.6554 263.305 67.5573 266.818 67.1181C273.406 66.2397 280.214 68.4357 284.716 73.3768C288.778 77.9884 290.974 84.4667 289.437 90.6155C287.79 97.4232 281.971 102.474 275.602 104.78C271.869 106.097 267.696 106.646 263.744 106.427C261.767 106.317 259.791 105.878 257.924 105.988C255.948 106.097 254.96 107.305 254.081 108.842C252.324 111.807 250.897 114.882 248.591 117.517C246.285 120.152 243.211 122.019 239.807 122.568C236.074 123.117 232.341 122.019 229.047 120.481C227.07 119.603 225.313 118.505 223.447 117.297C222.019 116.419 220.592 115.54 219.384 114.333C216.639 111.587 216.859 108.184 218.506 104.78C220.372 100.937 222.788 97.4232 225.423 94.0194C225.972 93.2507 226.96 92.8115 227.949 93.3606C228.717 93.7998 229.156 95.0076 228.607 95.886C226.082 99.18 223.776 102.694 221.8 106.427C220.921 108.074 220.262 109.721 221.58 111.368C222.568 112.686 224.106 113.454 225.533 114.333C228.827 116.419 232.45 118.505 236.403 119.054C240.027 119.493 243.211 118.066 245.627 115.54C247.603 113.454 249.03 110.819 250.458 108.293C251.885 105.548 253.752 102.913 257.046 102.474C258.803 102.254 260.559 102.584 262.426 102.694C264.183 102.803 265.94 102.803 267.696 102.694C270.99 102.474 274.394 101.705 277.359 100.058C282.52 97.3134 286.582 92.3723 286.582 86.3333C286.582 80.9531 283.508 75.6826 279.006 72.9376C273.955 69.7534 267.587 69.8632 262.206 72.0592C259.461 73.267 257.156 75.0238 254.96 77.0002C252.873 78.9766 250.348 81.1726 247.274 81.0628C245.736 81.0628 244.419 80.4041 243.211 79.5256C242.113 78.6472 241.235 77.3296 239.917 76.6708C237.392 75.3532 234.427 77.3296 232.67 79.0864C228.607 82.8197 224.984 90.1763 228.717 95.0076ZM340.494 127.948C344.557 125.422 349.608 128.607 350.267 132.999C350.596 135.634 349.718 137.94 348.29 140.026C346.973 142.002 346.973 144.308 348.949 145.736C350.486 146.834 353.012 146.943 353.78 149.03C354.549 151.006 353.78 153.312 352.573 154.849C350.047 158.033 345.326 159.461 341.592 157.923C336.871 156.057 334.236 150.457 334.895 145.516C335.004 144.528 334.455 143.1 333.138 143.21C330.942 143.43 328.636 143.43 326.44 143.1C325.013 142.881 321.938 142.661 321.169 141.124C320.511 139.806 320.95 137.281 321.169 135.853C321.499 134.097 321.938 132.23 322.816 130.583C324.354 127.618 326.769 125.203 330.063 124.544C333.028 123.885 336.103 124.654 338.079 127.069C339.506 128.826 342.142 126.301 340.604 124.544C337.969 121.25 333.467 120.262 329.404 121.03C324.903 121.909 321.279 125.203 319.413 129.265C318.425 131.461 317.766 133.767 317.436 136.183C317.217 138.379 316.887 141.234 318.095 143.21C319.413 145.406 322.048 146.065 324.354 146.504C327.209 147.053 330.173 147.273 333.028 146.943C332.479 146.175 331.82 145.406 331.271 144.638C330.503 150.457 332.699 156.386 337.53 159.9C342.142 163.194 348.51 162.755 352.902 159.461C356.965 156.386 359.929 149.03 355.098 145.077C354.11 144.308 352.902 143.869 351.804 143.32C351.584 143.21 350.816 142.771 350.816 142.771C350.706 142.332 351.804 141.124 352.024 140.795C353.561 138.269 354.11 135.085 353.671 132.12C352.463 125.422 344.667 121.25 338.628 124.873C336.652 126.081 338.518 129.156 340.494 127.948ZM236.184 105.878C235.854 105.878 235.635 105.878 235.305 105.878C235.086 105.878 234.866 105.878 234.646 105.988C234.427 106.097 234.207 106.207 234.097 106.317C233.878 106.427 233.768 106.646 233.768 106.866C233.658 107.086 233.548 107.305 233.658 107.525C233.658 107.635 233.658 107.854 233.768 107.964C233.878 108.293 233.988 108.513 234.207 108.733C234.317 108.842 234.427 108.952 234.537 109.062C234.866 109.172 235.086 109.282 235.415 109.282C235.745 109.282 235.964 109.282 236.293 109.282C236.513 109.282 236.733 109.282 236.952 109.172C237.172 109.062 237.391 108.952 237.501 108.842C237.721 108.733 237.831 108.513 237.831 108.293C237.94 108.074 238.05 107.854 237.94 107.635C237.94 107.525 237.94 107.305 237.831 107.195C237.721 106.866 237.611 106.646 237.391 106.427C237.282 106.317 237.172 106.207 237.062 106.097C236.843 105.988 236.513 105.878 236.184 105.878ZM265.61 81.5021C265.281 81.8315 265.061 82.0511 264.732 82.3805C264.512 82.4903 264.402 82.7099 264.402 82.9295C264.293 83.1491 264.183 83.3687 264.293 83.5883C264.293 83.8079 264.293 84.0275 264.402 84.2471C264.512 84.4667 264.622 84.6863 264.732 84.7961C264.842 84.9059 264.952 85.0157 265.061 85.1255C265.391 85.2353 265.61 85.3451 265.94 85.3451C266.049 85.3451 266.269 85.3451 266.379 85.2353C266.708 85.1255 266.928 85.0157 267.147 84.7961C267.477 84.4667 267.697 84.2471 268.026 83.9177C268.246 83.8079 268.355 83.5883 268.355 83.3687C268.465 83.1491 268.575 82.9295 268.465 82.7099C268.465 82.4903 268.465 82.2707 268.355 82.0511C268.246 81.8315 268.136 81.6119 268.026 81.5021C267.916 81.3923 267.806 81.2825 267.696 81.1727C267.367 81.0629 267.148 80.953 266.818 80.953C266.708 80.953 266.489 80.953 266.379 81.0628C266.05 81.1726 265.83 81.2825 265.61 81.5021ZM249.03 90.7253C249.36 90.3959 249.579 90.1763 249.909 89.8469C250.128 89.7371 250.238 89.5175 250.238 89.2979C250.348 89.0783 250.458 88.8587 250.348 88.6391C250.348 88.4195 250.348 88.1999 250.238 87.9803C250.128 87.7607 250.019 87.5411 249.909 87.4313C249.799 87.3215 249.689 87.2117 249.579 87.1019C249.25 86.9921 249.03 86.8823 248.701 86.8823C248.591 86.8823 248.372 86.8823 248.262 86.9921C247.932 87.1019 247.713 87.2117 247.493 87.4313C247.164 87.7607 246.944 87.9803 246.615 88.3097C246.395 88.4195 246.285 88.6391 246.285 88.8587C246.176 89.0783 246.066 89.2979 246.176 89.5175C246.176 89.7371 246.176 89.9567 246.285 90.1763C246.395 90.3959 246.505 90.6155 246.615 90.7253C246.725 90.8351 246.834 90.9449 246.944 91.0547C247.274 91.1645 247.493 91.2743 247.823 91.2743C247.932 91.2743 248.152 91.2743 248.262 91.1645C248.591 91.1645 248.811 90.9449 249.03 90.7253ZM346.753 177.578C347.082 177.248 347.302 177.029 347.632 176.699C347.851 176.59 347.961 176.37 347.961 176.15C348.071 175.931 348.18 175.711 348.071 175.492C348.071 175.272 348.071 175.052 347.961 174.833C347.851 174.613 347.741 174.394 347.632 174.284C347.522 174.174 347.412 174.064 347.302 173.954C346.973 173.845 346.753 173.735 346.424 173.735C346.314 173.735 346.094 173.735 345.985 173.845C345.655 173.954 345.436 174.064 345.216 174.284C344.887 174.613 344.667 174.833 344.338 175.162C344.118 175.272 344.008 175.492 344.008 175.711C343.898 175.931 343.789 176.15 343.898 176.37C343.898 176.59 343.898 176.809 344.008 177.029C344.118 177.248 344.228 177.468 344.338 177.578C344.447 177.688 344.557 177.797 344.667 177.907C344.996 178.017 345.216 178.127 345.545 178.127C345.655 178.127 345.875 178.127 345.985 178.017C346.314 178.017 346.533 177.797 346.753 177.578ZM239.478 54.6008C239.807 54.2714 240.027 54.0518 240.356 53.7224C240.576 53.6126 240.685 53.393 240.685 53.1734C240.795 52.9538 240.905 52.7342 240.795 52.5146C240.795 52.295 240.795 52.0754 240.685 51.8558C240.576 51.6362 240.466 51.4166 240.356 51.3068C240.246 51.197 240.137 51.0872 240.027 50.9774C239.697 50.8676 239.478 50.7578 239.148 50.7578C239.038 50.7578 238.819 50.7578 238.709 50.8676C238.38 50.9774 238.16 51.0872 237.94 51.3068C237.611 51.6362 237.392 51.8558 237.062 52.1852C236.843 52.295 236.733 52.5146 236.733 52.7342C236.623 52.9538 236.513 53.1734 236.623 53.393C236.623 53.6126 236.623 53.8322 236.733 54.0518C236.842 54.2714 236.952 54.491 237.062 54.6008C237.172 54.7106 237.282 54.8204 237.391 54.9302C237.721 55.04 237.941 55.1498 238.27 55.1498C238.38 55.1498 238.599 55.1498 238.709 55.04C238.929 54.9302 239.258 54.8204 239.478 54.6008ZM336.651 132.12C336.651 132.01 336.651 132.01 336.651 131.901C336.651 132.01 336.652 132.23 336.761 132.34C336.652 132.23 336.651 132.23 336.651 132.12C336.651 132.23 336.651 132.34 336.651 132.559C336.651 132.45 336.651 132.34 336.651 132.12C336.651 132.34 336.542 132.45 336.542 132.669C336.542 132.559 336.652 132.45 336.761 132.34C336.652 132.45 336.542 132.559 336.432 132.669C336.542 132.559 336.542 132.559 336.651 132.45C336.542 132.559 336.432 132.669 336.322 132.779C336.432 132.669 336.542 132.669 336.542 132.669C336.432 132.779 336.212 132.779 336.102 132.889H336.212C336.432 132.779 336.651 132.779 336.871 132.559C337.091 132.45 337.201 132.23 337.31 132.01C337.42 131.791 337.53 131.571 337.53 131.352C337.53 131.132 337.53 130.912 337.53 130.583C337.42 130.473 337.42 130.254 337.31 130.144C337.201 129.924 336.981 129.705 336.651 129.485C336.542 129.375 336.322 129.375 336.212 129.265C335.883 129.156 335.553 129.156 335.224 129.265C335.004 129.375 334.785 129.375 334.565 129.595C334.565 129.595 334.455 129.595 334.455 129.705C334.346 129.814 334.126 129.924 334.016 130.034C333.907 130.144 333.906 130.144 333.797 130.254C333.687 130.473 333.467 130.583 333.357 130.803C333.248 131.022 333.248 131.132 333.138 131.352V131.461C333.028 131.681 333.028 131.901 333.028 132.23C333.028 132.34 333.028 132.45 333.028 132.45C333.028 132.669 333.028 132.889 333.138 132.999V133.108C333.248 133.328 333.248 133.548 333.467 133.767C333.577 133.987 333.797 134.097 334.016 134.206C334.236 134.316 334.455 134.426 334.675 134.426C334.895 134.426 335.114 134.426 335.444 134.426C335.553 134.316 335.773 134.316 335.883 134.206C336.103 134.097 336.322 133.877 336.542 133.548C336.651 133.438 336.652 133.218 336.761 133.108C336.761 132.779 336.761 132.45 336.651 132.12ZM361.467 120.262C361.796 120.262 362.015 120.262 362.345 120.262C362.564 120.262 362.784 120.262 363.004 120.152C363.223 120.042 363.443 119.932 363.553 119.823C363.772 119.713 363.882 119.493 363.882 119.274C363.992 119.054 364.102 118.834 363.992 118.615C363.992 118.505 363.992 118.285 363.882 118.176C363.772 117.846 363.662 117.627 363.443 117.407C363.333 117.297 363.223 117.187 363.114 117.078C362.784 116.968 362.565 116.858 362.235 116.858C361.906 116.858 361.686 116.858 361.357 116.858C361.137 116.858 360.917 116.858 360.698 116.968C360.478 117.078 360.259 117.187 360.149 117.297C359.929 117.407 359.82 117.627 359.82 117.846C359.71 118.066 359.6 118.285 359.71 118.505C359.71 118.615 359.71 118.834 359.82 118.944C359.929 119.274 360.039 119.493 360.259 119.713C360.368 119.823 360.478 119.932 360.588 120.042C360.808 120.262 361.137 120.262 361.467 120.262Z" fill="black"/>
</svg>
