<svg width="600" height="600" viewBox="0 0 600 600" fill="none" xmlns="http://www.w3.org/2000/svg">
<path d="M227.464 317.964C206.214 322.609 184.471 326.958 162.925 324.586C141.28 322.115 119.536 311.836 108.367 293.156C101.548 281.691 99.5709 266.174 107.379 255.302C115.286 244.43 129.815 241.564 142.96 238.698C158.082 235.337 173.5 230.593 185.064 220.314C196.627 210.035 203.546 193.036 198.011 178.606C193.168 165.856 179.331 154.984 182.593 141.641C185.36 130.275 198.802 125.729 207.005 117.229C215.604 108.334 217.877 95.3861 222.226 83.8224C226.575 72.2586 235.272 60.2007 247.627 60.003C258.498 59.8054 267.394 69.2936 270.853 79.5725C274.312 89.8514 273.62 101.02 274.115 111.793C274.609 122.566 276.684 134.13 284.097 141.938C290.62 148.856 300.504 151.722 309.992 151.92C319.48 152.019 328.869 149.647 338.061 147.275C365.34 140.258 392.618 133.24 419.897 126.223C427.507 124.246 435.414 122.269 443.222 123.357C451.03 124.444 458.838 129.484 460.815 137.095C462.594 144.112 459.233 151.327 455.478 157.554C448.856 168.623 440.949 178.803 431.856 187.995C425.135 194.815 417.426 201.634 415.252 211.024C412.781 221.698 418.315 232.57 425.036 241.169C431.757 249.767 440.059 257.476 444.507 267.459C452.513 285.447 446.187 307.289 433.536 322.312C420.885 337.335 402.996 346.922 385.206 355.225C367.415 363.527 348.933 371.236 333.712 383.689" fill="#F4F6F9"/>
<path d="M501.14 490.135C501.14 492.705 496.988 501.699 443.518 509.507C405.566 515.042 355.159 518.106 301.492 518.106C247.824 518.106 197.418 515.042 159.465 509.507C105.995 501.699 101.844 492.705 101.844 490.135C101.844 487.565 105.995 478.571 159.465 470.763C197.418 465.229 247.824 462.165 301.492 462.165C355.159 462.165 405.566 465.229 443.518 470.763C496.988 478.571 501.14 487.565 501.14 490.135ZM529.308 492.408C529.308 517.216 426.914 537.378 300.503 537.378C174.093 537.378 71.6992 517.216 71.6992 492.408C71.6992 467.601 174.093 447.438 300.503 447.438C426.914 447.438 529.308 467.601 529.308 492.408ZM504.105 490.135C504.105 481.141 483.843 473.63 443.914 467.798C405.862 462.264 355.258 459.101 301.492 459.101C247.725 459.101 197.122 462.165 159.07 467.798C119.14 473.63 98.879 481.141 98.879 490.135C98.879 499.129 119.14 506.641 159.07 512.472C197.122 518.007 247.725 521.169 301.492 521.169C355.258 521.169 405.862 518.106 443.914 512.472C483.843 506.542 504.105 499.03 504.105 490.135Z" fill="#FEAABC"/>
<path d="M513.593 406.52C507.565 400.689 500.152 396.241 492.245 393.474C495.111 394.264 498.076 394.858 500.943 394.067C503.809 393.276 506.28 390.707 506.082 387.741C505.983 386.16 505.193 384.776 504.402 383.492C502.326 379.933 500.152 376.474 498.076 372.916C497.681 372.323 497.286 371.631 496.693 371.335C495.704 370.841 494.518 371.434 493.826 372.323C492.146 374.497 493.135 377.561 493.629 380.23C494.123 382.898 493.53 386.555 490.763 386.951C489.675 387.148 488.489 386.654 487.501 386.16C483.053 383.986 478.803 381.614 474.652 378.846C472.774 377.561 470.699 376.178 469.908 374.003C469.019 371.829 469.809 368.864 472.083 368.271C473.466 367.875 474.85 368.469 476.135 368.963C479.792 370.445 483.35 371.928 487.007 373.41C488.094 373.905 489.28 374.3 490.466 374.201C492.838 373.805 494.222 370.84 493.53 368.567C492.838 366.195 490.861 364.515 488.786 363.23C480.582 358.091 469.711 357.893 461.013 362.044C461.013 361.945 461.013 361.846 461.013 361.649C461.013 359.771 459.135 357.004 458.147 355.323C455.676 351.37 452.315 348.01 448.263 345.736C446.583 344.847 444.804 344.056 443.618 342.573C442.432 341.19 442.037 339.312 441.345 337.632C437.688 328.242 426.223 322.708 416.636 325.771C415.45 326.167 414.264 326.661 413.177 326.266C406.653 324.388 401.02 302.348 398.45 296.615C391.63 281.394 384.712 265.976 374.532 252.831C369.195 246.011 363.364 239.883 356.742 235.139L360.596 230.889C359.114 232.075 357.631 233.459 356.445 234.843C350.317 230.593 343.498 227.43 335.788 225.948L336.283 225.058C334.108 212.901 326.3 171.292 326.3 171.292C334.306 166.844 350.614 157.553 350.614 157.553C337.073 147.67 322.05 136.007 306.731 124.74C301.69 120.984 295.464 118.118 289.138 118.118C277.574 109.421 273.225 128.397 271.051 155.478C265.813 154.391 259.982 156.862 257.313 161.507C254.249 166.745 255.732 174.257 260.476 177.914C263.045 179.89 266.307 180.681 269.47 180.385C269.47 180.78 269.47 181.274 269.371 181.669C267.098 198.076 264.429 210.431 261.464 224.86L260.08 224.465C255.732 224.959 251.482 225.75 247.232 226.936L245.453 224.564C245.947 225.355 246.441 226.145 247.034 226.936C229.837 231.68 213.727 241.959 200.285 255.005L197.221 252.139C198.012 253.325 198.901 254.313 199.988 255.302C187.436 267.557 177.157 282.284 170.832 297.208C170.14 298.888 169.349 300.667 168.065 301.853C166.088 303.632 163.32 303.929 160.751 304.818C147.606 309.661 145.629 330.12 132.385 334.667C130.112 335.457 127.246 335.853 125.961 337.928C122.798 342.87 131.594 347.713 131.594 353.544L131.99 354.236C125.466 351.568 118.35 349.887 111.333 350.678C104.217 351.469 97.1995 355.126 93.4438 361.254C92.6531 362.538 92.0601 364.218 92.3566 365.602C91.4671 365.108 90.4787 364.91 89.4903 365.207C87.909 365.701 86.8218 367.184 86.0311 368.666C84.6474 371.137 83.4614 373.608 82.5718 376.276C81.6823 378.846 81.287 382.009 83.3626 383.689C84.8451 384.875 86.9206 384.678 88.6996 384.48C91.8623 384.085 95.124 383.689 98.2867 383.393C95.6182 385.073 93.6415 387.544 91.2694 389.52C88.7985 391.596 85.8334 393.276 83.1648 395.055C79.5079 397.526 76.1475 400.59 73.2813 403.851C72.5894 404.741 71.7988 405.828 72.0953 406.817C72.293 407.311 72.6883 407.706 73.0837 408.003C75.0604 409.288 77.5312 408.695 79.7056 407.904C81.0893 407.41 82.3741 406.915 83.7578 406.322C83.7578 406.421 83.659 406.421 83.659 406.52C82.8683 407.805 82.2753 409.386 83.066 410.671C83.4614 411.363 84.252 411.857 85.0427 412.055C87.3159 412.648 89.688 411.561 91.8624 410.375C93.3449 409.584 94.8275 408.695 96.31 407.904C96.1123 408.299 95.9146 408.694 95.9146 409.09C95.9146 409.88 96.4088 410.572 97.0018 410.968C98.2867 411.956 100.066 412.055 101.647 411.66C103.229 411.264 104.612 410.276 105.996 409.485C115.286 403.555 125.269 398.514 134.559 392.485C134.856 392.98 135.251 393.474 135.548 393.968C136.931 395.945 138.315 398.02 139.896 399.799C135.35 405.532 132.484 412.351 129.815 418.973C126.455 427.374 123.292 437.258 129.123 444.176C133.966 449.909 143.158 451.194 151.361 452.577C169.942 455.74 187.733 461.967 203.349 470.961C208.587 473.926 214.517 477.583 220.744 478.472C217.482 478.472 214.221 478.077 211.058 477.188C206.907 476.002 202.953 473.926 198.704 473.728C194.948 473.531 191.192 474.618 187.733 476.1C180.617 479.065 173.599 483.81 170.931 491.025C167.175 501.303 173.995 513.065 183.681 518.105C193.367 523.146 204.831 522.849 215.604 521.268C222.622 520.28 229.54 518.698 236.558 517.908C237.052 518.303 237.546 518.6 238.04 518.896L236.953 517.809C240.61 517.414 244.267 517.117 248.023 517.315C256.325 517.611 264.429 519.786 272.731 519.983C281.034 520.181 291.905 516.919 297.144 510.495L295.958 505.751C300.801 517.611 308.51 528.286 318.393 536.489C320.074 537.873 322.248 539.157 324.126 538.169C325.608 537.28 326.004 535.303 326.3 533.623C328.376 522.553 336.085 514.251 345.277 507.332L345.178 508.123C349.724 505.158 355.555 508.321 360.991 508.716C365.439 509.111 369.788 507.53 374.137 506.542C375.224 507.135 376.311 507.431 377.596 507.431L376.706 506.146C377.2 506.047 377.695 506.047 378.189 505.949C386.491 505.356 394.003 509.705 401.811 513.263C402.008 515.239 402.601 517.117 403.787 518.6C406.653 522.355 413.374 522.849 415.845 518.797C416.043 518.402 416.241 518.007 416.438 517.71C424.147 518.6 432.153 517.414 439.269 514.152C442.926 512.472 446.583 509.902 447.967 506.146C451.129 497.844 444.606 486.379 437.688 481.932C436.205 480.943 434.624 480.153 433.043 479.362C445.1 478.67 457.158 476.693 468.92 473.432C471.885 472.641 474.949 471.554 476.728 469.083C477.716 467.6 478.112 465.821 478.507 464.042C481.571 449.118 483.35 433.107 477.519 419.072C477.42 418.677 477.222 418.38 477.024 418.084C479.298 419.962 481.67 421.543 484.437 422.532C486.315 423.223 488.984 423.223 489.577 421.346C489.873 420.456 489.576 419.468 489.28 418.578C487.402 413.735 484.239 409.386 480.286 406.026C485.129 409.881 490.268 413.439 495.605 416.502C497.681 417.688 499.954 418.776 502.227 418.479C504.599 418.183 506.774 415.712 505.785 413.537C505.39 412.45 504.303 411.758 503.414 411.165C497.385 407.212 491.454 403.16 485.425 399.206C492.838 403.654 500.35 408.003 507.762 412.45C510.53 414.032 514.779 415.317 516.163 412.45C516.954 410.474 515.274 408.102 513.593 406.52ZM114.99 365.701C114.199 368.765 111.827 371.335 109.159 373.015C106.49 374.695 103.426 375.782 100.56 377.166C98.9785 377.858 97.0018 378.649 95.5193 377.561C94.5309 376.771 94.2345 375.387 94.3333 374.201C94.4321 372.916 94.8275 371.73 94.8275 370.445C94.8275 369.556 94.6297 368.666 94.1356 367.875C95.2227 368.172 96.5077 367.875 97.6937 367.579C98.9786 367.184 100.263 366.887 101.449 366.294C104.909 364.713 107.577 361.451 111.333 360.759C111.827 360.66 112.42 360.562 113.013 360.759C114.891 361.254 115.385 363.823 114.99 365.701Z" fill="white"/>
<path d="M517.25 408.892C516.36 406.817 514.483 405.235 512.802 403.753C511.023 402.171 509.145 400.689 507.169 399.404C505.192 398.02 503.018 396.736 500.843 395.648C500.942 395.648 501.14 395.549 501.239 395.549C503.709 394.858 505.983 392.98 506.971 390.509C508.157 387.445 506.675 384.677 505.093 382.108C503.215 379.044 501.436 375.881 499.558 372.817C498.867 371.73 498.175 370.445 496.89 369.951C496.198 369.753 495.506 369.753 494.913 369.852C494.913 368.469 494.419 366.986 493.628 365.8C490.762 361.649 485.128 359.376 480.384 358.387C474.257 357.102 467.832 357.695 462.001 359.969C461.606 358.684 461.013 357.597 460.321 356.509C459.431 355.027 458.542 353.544 457.455 352.161C455.082 349.097 452.019 346.428 448.658 344.55C446.978 343.661 445.1 342.87 444.112 341.091C443.222 339.51 442.827 337.632 442.036 336.051C439.368 330.219 433.635 325.969 427.409 324.388C427.013 324.289 426.618 324.19 426.222 324.091C425.926 323.004 425.629 321.917 425.333 320.83C425.135 320.039 424.246 319.545 423.554 319.841C422.763 320.138 422.269 320.83 422.566 321.62C422.763 322.312 422.961 323.004 423.06 323.696C421.281 323.597 419.502 323.696 417.821 324.091C416.438 324.388 414.263 325.475 413.176 324.981C412.385 324.684 411.891 324.19 411.397 323.597C409.816 321.917 408.729 319.743 407.74 317.667C406.554 315.196 405.467 312.528 404.578 309.958C402.897 305.51 401.612 300.865 399.735 296.516C396.967 290.092 394.101 283.569 390.938 277.243C391.136 277.046 391.333 276.848 391.63 276.65C392.223 276.156 392.223 275.069 391.63 274.575C391.037 273.982 390.246 274.081 389.554 274.575C385.502 266.866 381.055 259.354 375.717 252.436C370.677 245.912 364.944 239.884 358.421 234.942C359.41 233.953 360.398 233.064 361.485 232.174C362.078 231.68 361.979 230.593 361.485 230.099C360.793 229.506 360.003 229.605 359.41 230.099C358.224 231.087 357.136 232.075 356.049 233.163C351.602 230.099 346.66 227.727 341.422 226.047C340.137 225.651 338.852 225.355 337.567 225.058C337.567 224.959 337.567 224.959 337.567 224.861C336.183 217.053 334.701 209.244 333.218 201.535C331.637 193.134 330.154 184.832 328.573 176.431C328.276 175.047 328.079 173.664 327.782 172.28C335.59 167.931 343.398 163.484 351.206 159.036C352.294 158.443 352.096 157.059 351.206 156.466C343.398 150.734 335.59 144.903 327.881 138.972C323.829 135.909 319.678 132.845 315.626 129.682C311.672 126.717 307.818 123.455 303.568 121.083C300.8 119.502 297.835 118.217 294.771 117.525C296.353 116.636 298.033 115.548 299.515 113.967C303.864 109.519 305.841 95.2872 296.847 88.171C289.632 107.543 275.992 98.4499 261.464 110.804C250.295 120.293 257.016 143.815 265.615 154.193C261.661 154.984 258.004 157.356 256.028 160.914C252.568 166.844 254.15 175.047 259.586 179.297C261.958 181.175 264.923 182.065 267.888 182.164C265.911 196.001 263.144 209.64 260.377 223.279C260.278 223.279 260.179 223.279 260.08 223.279C255.83 223.773 251.679 224.564 247.627 225.651C247.33 225.157 247.034 224.663 246.737 224.169C246.342 223.477 245.353 223.18 244.662 223.674C243.97 224.07 243.673 224.959 244.167 225.75C244.365 226.047 244.464 226.244 244.662 226.541C235.865 229.209 227.464 233.163 219.656 238.104C212.639 242.552 206.017 247.79 199.988 253.622C199.79 253.424 199.593 253.226 199.395 253.029C199.296 252.93 199.197 252.831 199.099 252.732L199 252.633C199 252.633 199 252.732 199 252.633C199 252.633 199 252.535 198.901 252.535C198.901 252.535 198.901 252.534 198.901 252.633C198.703 252.436 198.505 252.139 198.407 251.843C198.011 251.25 197.122 250.854 196.331 251.348C195.738 251.744 195.343 252.732 195.837 253.424C196.43 254.313 197.023 255.104 197.715 255.796C193.761 259.749 190.006 263.999 186.546 268.447C182 274.278 177.849 280.307 174.39 286.83C172.709 289.894 171.128 293.156 169.645 296.319C168.954 297.9 168.361 299.778 167.076 301.063C165.791 302.347 163.913 302.842 162.134 303.336C159.268 304.127 156.698 305.411 154.425 307.289C152.349 309.068 150.57 311.243 148.989 313.417C145.826 317.963 143.355 323.103 139.896 327.452C138.216 329.527 136.338 331.405 134.065 332.69C131.396 334.271 127.937 334.37 125.466 336.347C120.327 340.795 126.257 346.428 128.629 350.48C128.925 351.073 129.222 351.666 129.518 352.259C124.082 350.283 118.251 349.097 112.42 349.492C106.786 349.887 101.251 351.765 96.8037 355.323C94.6294 357.004 92.5538 359.277 91.3678 361.748C91.0713 362.44 90.7747 363.23 90.5771 364.021C89.5887 363.922 88.6003 364.12 87.7108 364.614C84.9434 366.195 83.4609 369.852 82.176 372.718C80.99 375.585 79.6063 378.748 80.1005 381.811C80.5947 385.073 83.3621 386.654 86.426 386.555C88.2051 386.555 89.984 386.259 91.6642 386.061C92.1584 385.962 92.6526 385.962 93.1468 385.864C92.4549 386.457 91.7631 387.149 91.0712 387.742C88.9957 389.718 86.6236 391.201 84.2516 392.782C79.804 395.648 75.5541 399.009 72.0949 402.962C70.5135 404.741 69.2286 407.113 71.2053 409.189C72.9844 410.968 75.653 410.968 77.9262 410.474C78.9145 410.276 79.9029 409.979 80.8913 409.584C80.8913 410.078 80.8912 410.572 80.9901 411.067C81.5831 413.241 83.8563 414.229 85.9318 414.229C88.4027 414.229 90.676 413.043 92.7515 411.857C93.2457 411.561 93.7399 411.264 94.234 410.968C94.9259 412.549 96.8037 413.636 98.4839 413.834C101.548 414.229 104.118 412.549 106.588 410.968C115.385 405.433 124.774 400.59 133.571 394.956C134.757 396.834 136.14 398.613 137.524 400.294C137.82 399.898 138.117 399.503 138.413 399.108C139.006 399.898 139.698 400.689 140.39 401.381C140.094 401.776 139.797 402.172 139.501 402.567C140.884 403.852 142.466 405.038 144.146 405.927C149.088 408.497 155.018 409.386 160.454 407.805C165.989 406.224 170.337 402.073 173.994 397.823C177.75 393.474 181.308 389.026 185.558 385.172C189.808 384.974 193.959 385.468 198.11 386.259C206.511 387.84 214.616 390.805 222.819 393.375C226.97 394.66 231.121 395.945 235.371 396.933C239.325 397.823 243.377 398.416 247.429 398.91C255.138 399.898 262.946 400.788 270.556 402.468C278.167 404.148 285.579 406.52 292.3 410.474C295.661 412.45 298.527 415.02 301.69 417.293C304.655 419.369 307.916 420.654 311.573 420.061C317.8 419.072 322.05 413.735 327.881 411.758C331.736 410.474 335.294 411.66 338.753 413.439C343.003 415.613 347.253 417.787 351.503 419.962C354.468 421.444 357.334 422.927 360.299 424.508C358.322 425.101 356.247 425.694 354.27 426.287C349.526 427.869 344.782 429.747 340.137 431.723C330.846 435.776 321.852 440.618 312.957 445.362C305.347 449.415 297.539 453.665 291.707 460.089C290.324 461.572 289.039 463.252 287.952 464.932C287.457 465.821 287.062 466.415 287.457 467.304C287.556 467.601 287.754 467.897 287.853 468.095C287.457 472.443 287.359 476.891 287.655 481.24C283.998 483.711 279.649 484.897 275.202 484.402C275.103 484.007 275.004 483.612 274.905 483.315C274.905 483.019 274.807 482.722 274.609 482.426C272.533 476.792 265.812 473.926 259.981 473.135C250.493 471.949 240.906 474.618 231.615 476.1C227.958 476.693 224.203 477.188 220.447 477.188C220.15 477.089 219.261 476.99 218.174 476.891C218.866 477.089 219.557 477.188 220.249 477.188C219.36 477.188 218.47 477.188 217.581 477.089C215.209 476.99 212.738 476.595 210.465 475.903C209.872 475.705 209.18 475.507 208.587 475.31C206.906 475.013 205.523 474.618 205.029 474.321C204.534 474.025 204.139 473.827 203.645 473.531C203.546 473.531 203.546 473.531 203.447 473.432C201.075 472.641 198.604 472.147 196.035 472.246C193.564 472.345 191.093 472.938 188.82 473.728C184.767 475.211 180.715 477.089 177.157 479.659C173.895 482.129 170.93 485.193 169.151 488.949C167.471 492.507 167.076 496.362 167.669 500.216C168.855 508.024 174.291 515.042 181.012 518.896C189.215 523.64 199.098 524.332 208.29 523.541C217.383 522.751 226.179 520.576 235.173 519.39C235.569 519.687 235.865 519.885 236.261 520.181C237.249 520.873 238.237 519.983 238.435 519.094C238.633 519.094 238.731 519.094 238.929 518.995C244.167 518.6 249.307 518.797 254.545 519.489C259.882 520.181 265.121 521.169 270.458 521.466C278.266 521.861 286.766 519.885 293.091 515.239C294.277 514.35 295.364 513.46 296.254 512.472C296.946 513.757 297.638 515.042 298.329 516.326C302.48 523.541 307.818 530.262 314.143 535.797C316.91 538.268 321.852 542.419 325.015 538.169C326.201 536.687 326.3 534.71 326.695 532.832C327.09 530.954 327.684 529.175 328.474 527.396C331.637 520.181 337.271 514.35 343.398 509.606C343.497 509.606 343.497 509.507 343.596 509.507C343.892 509.606 344.288 509.606 344.683 509.309C348.044 507.234 352.195 508.716 355.753 509.507C357.828 509.902 359.805 510.297 361.881 510.199C363.956 510.1 366.032 509.704 368.107 509.21C372.159 508.222 376.113 507.135 380.363 507.431C384.316 507.728 388.072 509.21 391.729 510.792C394.2 511.879 396.671 513.065 399.24 514.251C399.636 516.722 400.624 519.193 402.601 520.774C405.072 522.85 408.827 523.739 411.891 522.751C413.769 522.158 415.153 520.873 416.042 519.39C423.752 520.082 431.56 518.896 438.577 515.635C441.838 514.053 445.1 511.978 447.077 508.815C448.955 505.949 449.35 502.391 448.856 499.03C447.966 492.408 443.914 485.984 438.775 481.833C438.182 481.339 437.49 480.943 436.897 480.449C442.629 479.955 448.362 479.164 453.995 478.077C459.036 477.089 464.175 476.001 469.117 474.519C473.268 473.234 476.727 471.159 478.111 466.81C478.803 464.537 479.198 462.165 479.594 459.793C479.989 457.42 480.384 455.048 480.681 452.577C481.274 447.735 481.669 442.892 481.57 438.049C481.373 432.613 480.681 427.177 479.001 422.037C480.384 422.927 481.867 423.619 483.349 424.014C485.82 424.706 489.181 424.113 489.872 421.247C490.268 419.369 489.279 417.491 488.489 415.811C488.192 415.119 487.797 414.427 487.402 413.735C488.983 414.723 490.564 415.811 492.245 416.7C494.024 417.787 496 418.973 498.076 419.468C501.535 420.357 505.785 418.776 506.279 414.822C506.378 414.328 506.279 413.933 506.279 413.537C507.663 414.328 509.145 414.921 510.727 415.119C512.407 415.415 514.285 415.218 515.57 413.933C517.942 412.945 518.14 410.671 517.25 408.892ZM270.754 182.262C270.754 182.164 270.754 181.966 270.754 181.867C273.522 181.373 276.091 180.187 278.167 178.111C278.76 177.518 278.76 176.629 278.167 176.036C277.574 175.443 276.684 175.443 276.091 176.036C272.336 179.792 265.516 180.187 261.266 176.925C257.016 173.664 255.731 167.042 258.4 162.396C261.068 157.751 267.493 155.577 272.434 157.652C273.225 157.949 274.016 157.652 274.411 156.862C274.806 156.071 274.411 155.28 273.62 154.885C273.324 154.786 273.126 154.687 272.83 154.588L274.51 154.193C281.527 146.781 277.969 138.874 278.463 132.153C279.254 122.862 283.702 121.479 289.039 119.7C298.626 119.798 306.137 126.322 313.451 131.757C321.358 137.589 329.166 143.618 336.974 149.449C340.532 152.118 344.09 154.786 347.747 157.455C340.334 161.705 332.823 165.955 325.41 170.106C324.817 170.402 324.62 171.094 324.718 171.786C325.608 176.728 326.596 181.571 327.486 186.512C329.166 195.704 330.945 204.797 332.625 213.989C333.317 217.646 334.009 221.302 334.602 225.058C334.503 225.157 334.404 225.355 334.305 225.552C329.759 228.023 326.399 231.878 322.742 235.535C318.788 239.488 314.242 242.354 308.707 243.639C303.469 244.924 297.934 244.727 292.893 243.145C287.161 241.366 282.911 237.511 278.661 233.558C276.19 231.186 273.522 228.913 270.754 226.936C268.58 225.355 266.01 224.07 263.342 223.674C266.01 209.936 268.876 196.198 270.754 182.262ZM276.684 518.6C267.295 519.489 258.004 516.524 248.714 516.129C244.859 515.931 240.906 516.129 237.051 516.623C234.482 514.646 232.307 512.175 230.627 509.309C228.848 506.344 228.156 502.193 225.389 499.92C227.761 499.228 230.232 500.216 232.011 501.798C234.284 503.873 235.569 506.838 236.854 509.606C237.15 510.297 238.237 510.495 238.929 510.1C239.72 509.704 239.819 508.815 239.423 508.024C237.941 504.862 236.458 501.501 233.691 499.228C231.022 497.053 227.365 495.769 224.104 497.152C224.005 497.152 224.005 497.251 223.906 497.251C224.499 496.263 224.894 495.077 225.092 493.891C225.685 490.333 224.005 486.577 220.546 485.193C216.79 483.711 213.232 486.577 212.639 490.333C211.947 494.484 214.517 497.844 217.185 500.809C217.185 500.809 217.185 500.809 217.185 500.908C214.912 503.083 212.441 505.059 210.761 507.728C209.773 509.309 208.883 511.088 208.389 512.966C207.895 514.547 207.302 516.722 208.488 518.204C210.662 520.972 215.011 518.402 216.889 516.524C219.162 514.35 220.546 511.088 220.348 508.024C220.249 506.344 219.261 504.367 219.656 502.687V502.588C220.052 502.292 220.348 501.896 220.744 501.501C221.337 501.303 222.127 501.402 222.72 501.699C224.499 502.489 225.29 504.565 225.982 506.146C226.772 508.024 227.563 509.902 228.65 511.582C229.935 513.658 231.517 515.437 233.197 517.117C219.557 519.193 206.017 523.047 192.378 519.885C184.57 518.106 177.651 513.658 173.895 506.443C170.337 499.821 170.733 492.013 175.674 486.182C178.244 483.217 181.605 480.943 185.064 479.164C188.918 477.188 193.366 475.31 197.814 475.409C202.558 475.409 206.808 477.879 211.354 479.065C215.604 480.153 220.15 480.449 224.598 480.153C233.691 479.56 242.586 476.99 251.679 476.199C255.632 475.804 259.783 475.705 263.638 476.694C266.702 477.484 270.062 478.967 271.94 481.635C272.039 481.734 272.138 481.932 272.138 482.031C262.057 482.426 251.975 484.007 242.29 486.972C240.807 487.466 241.005 490.135 242.685 489.838C246.441 489.344 250.196 490.234 253.359 492.211C256.423 494.187 259.19 497.449 259.685 501.106C260.278 505.455 256.225 507.53 252.865 509.21C249.9 510.693 245.353 512.571 242.29 510.1C240.807 508.914 238.732 510.989 240.214 512.175C243.08 514.547 246.737 514.547 250.295 513.46C253.656 512.373 257.609 510.594 260.179 508.123C266.405 502.094 260.377 492.902 254.446 489.443C253.26 488.751 252.074 488.158 250.789 487.763C258.202 486.083 265.714 485.094 273.324 484.897C273.324 485.193 273.423 485.49 273.423 485.786C273.423 486.379 273.818 487.071 274.51 487.17C279.551 487.961 284.591 487.071 288.94 484.6C289.928 493.298 292.399 501.798 296.056 509.803C291.312 515.239 283.603 517.908 276.684 518.6ZM215.505 490.53C215.802 489.246 216.691 487.961 218.075 487.862C219.459 487.664 220.842 488.751 221.534 489.838C223.412 492.804 221.336 496.362 219.162 498.734C216.988 496.46 214.616 493.693 215.505 490.53ZM216.197 512.175C215.406 513.658 214.22 514.844 212.738 515.734C212.342 515.931 211.156 516.623 210.662 516.326C210.168 516.03 210.86 514.152 211.058 513.658C212.046 510.1 214.22 507.431 216.79 505.059C216.988 505.85 217.185 506.641 217.185 507.431C217.383 509.013 216.988 510.792 216.197 512.175ZM372.258 505.553C368.404 506.443 364.45 507.728 360.398 507.333C357.038 506.937 353.776 505.751 350.416 505.553C355.456 502.193 360.694 499.228 365.933 496.263C366.921 495.67 368.008 495.077 368.997 494.583C368.997 494.681 368.898 494.78 368.898 494.879C367.316 498.833 369.194 503.379 372.555 505.652C372.456 505.553 372.357 505.553 372.258 505.553ZM413.572 519.291C411.002 521.268 406.653 520.28 404.775 517.71C402.107 514.152 402.996 509.111 405.171 505.652C405.961 504.367 406.95 503.083 407.839 501.897C408.63 504.17 410.508 506.245 412.089 508.024C414.362 510.792 417.228 516.425 413.572 519.291ZM407.444 493.199C407.147 493.001 406.851 492.804 406.653 492.705C405.269 491.716 402.996 490.135 403.293 488.158C403.688 485.49 408.037 486.28 409.124 487.961C410.112 489.443 410.211 491.123 409.816 492.705C409.519 492.705 409.322 492.705 409.025 492.705C408.432 492.507 407.74 492.705 407.444 493.199ZM441.344 487.565C443.519 490.036 445.199 493.1 446.187 496.164C447.176 499.129 447.571 502.292 446.583 505.257C445.495 508.617 442.431 510.891 439.368 512.472C432.844 515.832 425.432 517.117 418.118 516.524C418.217 515.832 418.217 515.14 418.118 514.449C417.624 510.001 414.856 506.838 412.089 503.577C411.002 502.193 409.618 500.019 410.606 498.141C410.903 498.24 411.101 498.338 411.397 498.536C412.385 498.931 413.275 498.338 413.572 497.548C414.165 497.844 414.758 498.338 415.153 498.734C416.635 500.315 416.932 502.588 417.426 504.664C417.92 506.937 418.612 509.111 420.095 510.89C421.281 512.373 423.356 510.298 422.17 508.815C420.786 507.135 420.49 504.862 419.996 502.786C419.502 500.71 418.909 498.734 417.525 497.053C416.537 495.867 415.054 494.879 413.572 494.484C414.165 494.286 414.856 494.187 415.449 494.088C417.624 494.088 419.304 496.065 420.589 497.548C422.071 499.228 423.554 500.809 425.629 501.699C427.804 502.588 430.077 502.588 431.856 501.007C433.339 499.722 431.164 497.647 429.781 498.931C428.397 500.118 426.222 498.931 425.036 497.943C423.455 496.658 422.368 494.879 420.786 493.496C419.304 492.112 417.525 491.123 415.548 491.025C414.56 491.025 413.572 491.222 412.682 491.519C412.88 488.158 411.694 484.699 408.234 483.414C404.874 482.228 400.426 483.81 400.13 487.763C399.932 490.333 401.81 492.408 403.688 493.891C404.973 494.879 406.357 495.769 407.74 496.559C407.246 497.35 406.752 498.042 406.258 498.734C403.589 502.292 400.822 505.553 400.229 510.1C400.229 510.297 400.229 510.594 400.13 510.792C398.252 509.902 396.374 509.013 394.397 508.123C390.938 506.64 387.479 505.257 383.723 504.565C381.944 504.269 380.264 504.17 378.485 504.269C378.188 503.972 377.793 503.675 377.299 503.675C377.002 503.675 376.706 503.675 376.409 503.675C376.311 503.675 376.212 503.675 376.212 503.675C376.014 503.675 375.915 503.577 375.816 503.577C375.717 503.577 375.52 503.478 375.421 503.478C375.421 503.478 375.322 503.379 375.223 503.379C374.927 503.28 374.729 503.181 374.433 502.984C374.235 502.885 374.037 502.687 373.84 502.588L373.642 502.391C373.543 502.292 373.444 502.193 373.345 502.094C373.148 501.897 372.95 501.699 372.752 501.501C372.752 501.501 372.456 501.205 372.555 501.205C372.456 501.106 372.456 501.007 372.357 500.908C372.159 500.711 372.061 500.414 371.863 500.216C371.764 500.117 371.764 499.92 371.665 499.821C371.665 499.821 371.566 499.722 371.566 499.623C371.369 499.129 371.27 498.635 371.171 498.042C371.171 497.943 371.171 497.943 371.171 497.844C371.171 497.647 371.171 497.548 371.171 497.35C371.171 497.054 371.171 496.856 371.171 496.559C371.171 496.559 371.171 496.559 371.171 496.461C371.171 496.362 371.171 496.362 371.171 496.263C371.171 496.164 371.27 495.966 371.27 495.867C371.369 495.571 371.468 495.275 371.566 494.978C371.863 494.286 371.27 493.397 370.578 493.199C370.479 493.199 370.38 493.199 370.38 493.199C377.496 489.246 384.909 485.687 392.816 483.513C402.897 480.746 413.374 481.042 423.752 480.943C426.618 480.943 429.583 480.845 432.449 480.647C432.844 480.845 433.339 481.042 433.734 481.24C436.699 483.217 439.17 485.095 441.344 487.565ZM478.309 455.839C477.913 458.211 477.518 460.484 477.024 462.857C476.629 464.932 476.332 467.403 474.85 469.083C473.565 470.467 471.786 471.257 470.007 471.85C467.733 472.542 465.46 473.135 463.187 473.63C453.402 476.002 443.519 477.484 433.437 478.176C423.356 478.769 413.275 478.077 403.194 479.164C393.607 480.153 384.613 483.315 375.915 487.565C368.008 491.42 360.299 495.867 352.887 500.513C346.265 504.565 339.84 509.21 334.503 514.943C329.364 520.478 325.904 526.902 324.422 534.413C324.026 536.192 323.434 538.07 321.259 537.181C319.381 536.39 317.701 534.71 316.219 533.326C313.254 530.559 310.486 527.594 307.916 524.431C297.934 511.78 292.004 495.868 291.114 479.856C290.917 475.903 291.016 471.949 291.411 468.095C291.51 467.6 291.312 467.205 291.016 467.008C291.016 466.909 290.917 466.909 290.917 466.81C295.167 459.99 301.986 455.345 308.806 451.392C316.91 446.746 325.311 442.398 333.712 438.345C342.608 433.997 351.701 430.34 361.189 427.671C370.084 425.101 378.88 422.729 386.886 418.084C396.473 412.45 405.269 404.544 415.153 399.305C416.438 399.997 417.821 400.689 419.304 401.183C425.432 403.456 432.35 403.753 438.873 403.259C440.455 403.16 442.135 402.863 443.716 402.764C445.001 402.666 446.286 402.863 447.67 402.764C448.559 402.666 449.35 402.369 449.844 401.875C453.995 404.148 458.542 405.73 462.594 408.2C467.437 411.166 470.995 415.613 475.245 419.27C476.53 422.136 477.518 425.101 478.21 428.165C480.384 437.06 479.791 446.647 478.309 455.839ZM514.483 412.055C513.692 413.043 512.012 412.648 511.023 412.351C509.244 411.857 507.762 410.869 506.18 409.881C504.105 408.596 501.93 407.41 499.855 406.125C495.21 403.357 490.564 400.59 485.919 397.921C484.239 396.933 482.855 399.404 484.437 400.491C488.686 403.357 492.838 406.125 497.088 408.991C499.064 410.276 501.14 411.561 503.018 412.945C503.71 413.439 504.401 414.131 504.204 415.119C504.006 415.91 503.314 416.503 502.622 416.799C500.646 417.787 498.175 416.503 496.396 415.514C494.419 414.427 492.442 413.241 490.564 411.956C486.611 409.387 482.756 406.52 479.099 403.555C479.001 403.456 478.902 403.357 478.803 403.357C477.419 402.369 475.739 404.642 477.024 405.73C477.716 406.323 478.506 406.915 479.297 407.607C480.879 408.991 482.361 410.572 483.547 412.253C485.227 414.526 487.006 417.293 487.797 419.962C488.588 423.026 484.14 421.345 482.855 420.654C480.483 419.468 478.506 417.886 476.53 416.206C472.576 412.648 469.018 408.497 464.472 405.631C460.123 402.863 455.181 401.282 450.635 398.613C448.362 397.329 446.088 395.648 444.606 393.474C442.53 390.608 441.74 387.247 442.234 383.788C442.431 381.91 439.466 381.91 439.269 383.788C438.478 390.212 441.74 395.945 446.78 399.602C445.693 399.602 444.705 399.503 443.618 399.602C440.356 399.898 437.193 400.294 433.833 400.294C430.472 400.294 427.211 399.997 423.949 399.206C418.909 398.02 414.165 395.648 410.606 391.794C408.926 390.015 407.543 387.84 406.752 385.468C405.961 382.997 405.764 380.131 403.194 378.846C401.217 377.759 398.746 378.056 396.473 378.056C396.473 377.957 396.374 377.957 396.374 377.858C395.682 376.771 394.299 377.067 393.804 377.957C391.63 377.858 389.456 377.561 387.281 377.166C385.403 376.771 383.525 376.277 381.746 375.585C381.746 375.387 381.747 375.189 381.845 374.992C381.747 375.387 381.845 374.893 381.845 374.893C381.845 374.794 381.845 374.596 381.944 374.497C382.043 374.003 382.142 373.509 382.241 373.015C382.438 372.224 382.043 371.335 381.252 371.236C380.462 371.038 379.671 371.433 379.473 372.224C379.276 372.916 379.177 373.707 379.078 374.399C376.904 373.312 374.927 371.928 373.247 370.149C364.944 361.649 364.944 348.405 365.043 337.335C365.043 335.458 362.078 335.458 362.078 337.335C361.979 347.911 362.078 359.771 368.404 368.864C371.171 372.817 374.729 375.585 378.88 377.561C378.88 378.056 378.88 378.451 378.88 378.945C378.979 379.736 379.473 380.428 380.363 380.428C381.154 380.428 381.944 379.736 381.845 378.945V378.846C385.996 380.329 390.345 381.021 394.793 381.218C398.647 388.73 398.845 397.724 395.583 405.631C394.892 407.41 397.758 408.2 398.45 406.421C401.81 398.416 401.514 389.224 398.054 381.317C399.24 381.317 400.525 381.218 401.612 381.614C402.996 382.207 403.194 383.788 403.589 385.073C404.281 387.643 405.368 390.015 406.949 392.09C408.531 394.166 410.409 395.945 412.484 397.427C406.06 400.985 400.13 405.532 394.2 409.782C390.642 412.351 386.886 414.724 383.031 416.799C378.781 419.072 374.136 420.654 369.491 422.037C368.008 422.433 366.526 422.927 365.043 423.322C356.741 419.072 348.439 414.526 340.038 410.474C336.381 408.695 332.526 407.607 328.573 408.695C325.509 409.485 322.742 411.363 320.073 413.043C317.503 414.723 314.835 416.601 311.771 417.194C308.015 417.886 304.951 415.811 302.085 413.636C298.922 411.166 295.76 408.793 292.201 406.817C288.742 404.939 284.987 403.456 281.231 402.171C273.62 399.7 265.714 398.317 257.807 397.23C249.505 396.142 241.301 395.352 233.197 393.178C224.598 390.904 216.197 387.741 207.598 385.369C203.447 384.183 199.197 383.294 194.947 382.701C193.267 382.503 191.488 382.306 189.808 382.306C193.564 379.637 197.814 377.759 202.36 376.573C208.092 375.091 214.122 374.497 219.755 372.521C222.918 371.434 225.883 369.951 228.551 367.876C231.121 365.8 233.394 363.329 235.371 360.66C239.621 355.027 242.685 348.405 244.464 341.585C244.958 339.707 242.092 338.917 241.598 340.795C240.115 346.626 237.644 352.161 234.284 357.103C231.022 361.847 227.069 366.195 221.732 368.666C216.691 371.038 210.959 371.73 205.523 372.916C199.889 374.102 194.552 375.782 189.709 378.846C184.965 381.91 180.814 385.864 177.157 390.212C173.698 394.265 170.436 398.811 166.087 401.974C161.64 405.235 156.303 406.421 150.966 405.038C148.396 404.445 146.024 403.358 143.948 401.776C141.675 400.096 139.896 397.823 138.315 395.549C137.82 394.759 137.227 393.968 136.634 393.276C138.315 392.189 139.995 391.003 141.576 389.916C144.245 387.939 147.012 385.962 148.989 383.195C150.768 380.526 151.657 376.968 149.483 374.3C148.297 372.817 146.221 374.893 147.407 376.375C148.89 378.253 147.012 381.218 145.727 382.602C144.047 384.579 141.873 386.16 139.797 387.643C135.35 390.904 130.606 393.77 125.861 396.538C120.92 399.404 115.978 402.172 111.135 405.038C108.763 406.421 106.391 408.003 104.019 409.386C103.03 409.979 101.844 410.572 100.658 410.77C99.7688 410.869 97.8909 410.77 97.5944 409.584C97.5944 409.485 97.5944 409.386 97.5944 409.287C98.2862 408.892 99.077 408.398 99.7688 408.003C104.612 405.038 109.158 401.677 113.606 398.119C114.891 397.032 113.21 394.858 111.827 395.747C108.664 397.823 105.501 399.997 102.437 402.073C100.955 403.061 99.4723 404.049 97.8909 405.136C97.0014 405.729 96.013 406.421 95.42 407.311C93.7398 408.299 92.0596 409.189 90.3794 410.078C88.9957 410.77 86.0306 412.055 84.7457 410.474C84.2516 409.881 84.4493 408.991 84.9435 408.102C87.5132 406.915 89.8852 405.532 92.1584 404.148C96.9025 401.084 101.251 397.328 104.908 392.98C105.897 391.794 104.513 389.52 103.129 390.608C96.7049 395.549 88.5015 398.218 83.5598 404.939C83.4609 405.137 83.2632 405.334 83.1644 405.532C82.7691 405.73 82.3738 405.927 81.9784 406.026C80.1005 406.817 77.8273 407.805 75.7517 407.607C75.1587 407.509 73.8738 407.311 73.8738 406.52C73.8738 405.631 75.3565 404.445 75.9495 403.852C79.2111 400.392 82.8679 397.526 86.9202 394.956C89.1934 393.573 91.3678 392.09 93.3445 390.311C95.4201 388.532 97.199 386.457 99.4723 384.974C100.559 384.282 100.263 382.009 98.6816 382.207C95.3212 382.602 92.0596 382.997 88.6992 383.393C86.4259 383.59 83.7574 383.491 83.6586 380.625C83.5597 378.055 84.7458 375.288 85.833 373.015C86.426 371.73 87.019 370.544 87.7108 369.358C88.3038 368.37 89.1934 366.986 90.3794 366.788C90.6759 366.689 91.0713 366.788 91.3678 366.887C91.5655 367.48 91.9608 367.974 92.455 368.469C92.8503 368.765 93.1468 368.963 93.6409 369.16C93.9374 369.951 93.9375 370.84 93.7399 371.73C93.3445 374.201 92.8504 377.265 95.2224 378.846C97.5945 380.428 100.263 379.044 102.536 378.056C105.304 376.87 108.17 375.782 110.74 374.102C114.495 371.631 118.646 366.591 116.571 361.846C114.1 356.114 107.28 361.056 104.118 363.23C101.844 364.812 99.077 366.097 96.3096 366.492C96.0131 366.492 95.8153 366.492 95.5188 366.492C95.42 366.294 95.2223 366.096 95.1235 365.899C94.827 365.503 94.4316 365.207 94.1351 364.91C94.1351 364.021 94.5305 362.934 95.0247 362.143C97.6932 357.695 102.339 354.73 107.181 353.248C113.705 351.271 120.623 352.062 126.949 354.039C128.53 354.533 130.111 355.126 131.693 355.719C133.175 356.312 134.658 357.004 135.745 358.19C137.623 360.265 138.018 363.329 138.315 365.998C138.512 367.876 141.477 367.876 141.28 365.998C140.983 363.23 140.588 360.265 139.204 357.794C137.821 355.521 135.646 354.236 133.373 353.248C133.175 350.579 131.693 348.306 130.21 346.231C129.024 344.649 126.85 342.277 127.047 340.103C127.344 337.138 131.989 336.841 134.163 335.952C136.634 334.963 138.71 333.382 140.588 331.603C144.541 327.65 147.111 322.708 149.977 318.063C152.646 313.714 155.809 309.167 160.651 306.894C163.715 305.51 167.372 305.412 169.843 302.743C171.128 301.359 171.82 299.58 172.611 297.9C173.302 296.319 173.994 294.836 174.785 293.255C177.849 286.929 181.506 280.801 185.657 275.069C190.104 268.842 195.046 263.011 200.482 257.575C201.075 257.97 201.569 258.366 202.162 258.761C202.854 259.156 203.843 258.959 204.238 258.267C204.633 257.575 204.436 256.686 203.744 256.191C203.447 255.994 203.25 255.895 203.052 255.697C202.953 255.598 202.854 255.5 202.755 255.5C207.203 251.348 211.848 247.395 216.79 243.936C225.982 237.413 236.162 232.174 247.034 229.012C248.319 230.791 249.801 232.471 251.284 233.953C251.877 234.448 252.865 234.546 253.359 233.953C253.853 233.36 253.952 232.471 253.359 231.878C252.173 230.692 251.086 229.506 249.999 228.221C251.877 227.727 253.656 227.331 255.534 227.035C257.214 226.738 258.894 226.541 260.673 226.343C260.772 226.343 260.871 226.343 260.97 226.244C261.167 226.541 261.562 226.738 262.057 226.738C265.121 226.64 267.69 228.122 270.062 229.901C272.632 231.779 275.004 233.953 277.376 236.128C281.824 240.279 286.271 244.035 292.103 246.011C302.48 249.471 314.538 247.296 322.841 240.081C327.585 235.93 331.242 230.692 336.974 227.826C343.398 229.209 349.23 231.878 354.567 235.436C353.776 236.424 353.084 237.413 352.392 238.5C351.997 239.192 352.195 240.18 352.887 240.575C353.578 240.971 354.468 240.773 354.962 240.081C355.456 239.29 355.95 238.599 356.543 237.808C356.543 237.808 356.642 237.709 356.642 237.61C356.642 237.511 356.741 237.511 356.741 237.413C356.84 237.314 356.939 237.215 357.038 237.116C362.078 240.872 366.723 245.32 370.875 250.162C377.694 258.168 383.13 267.162 387.874 276.551C387.084 277.243 386.392 277.836 385.601 278.528C385.008 279.022 385.008 280.11 385.601 280.604C386.194 281.197 387.084 281.197 387.677 280.604C388.171 280.11 388.665 279.714 389.258 279.22C391.531 283.767 393.607 288.313 395.682 292.859C396.868 295.429 397.857 297.505 398.746 299.976C399.537 302.249 400.328 304.522 401.118 306.795C402.897 311.935 404.676 317.074 407.444 321.818C408.432 323.597 409.618 325.376 411.298 326.661C412.089 327.254 412.88 327.748 413.868 327.946C415.746 328.243 417.525 327.353 419.304 326.958C421.083 326.562 422.961 326.463 424.74 326.661C424.839 327.056 424.938 327.452 425.036 327.946C425.234 328.737 426.124 329.231 426.816 328.934C427.507 328.737 428.002 328.045 427.903 327.254C431.065 328.144 434.03 329.824 436.403 332.097C438.775 334.37 440.158 337.039 441.245 340.103C441.838 341.783 442.629 343.463 444.112 344.649C445.594 345.934 447.373 346.626 449.054 347.713C452.216 349.69 454.984 352.259 457.059 355.422C457.949 356.806 458.937 358.289 459.629 359.771C459.925 360.364 460.123 360.858 460.123 361.352C456.664 363.131 453.6 365.503 451.129 368.567C449.943 370.05 451.92 372.027 453.205 370.643C460.321 363.131 472.576 360.364 477.518 360.858C481.966 361.253 486.809 362.835 490.268 365.701C492.047 367.184 493.628 369.457 492.343 371.73C490.861 374.201 487.204 371.73 485.326 371.038C482.262 369.753 479.297 368.37 476.134 367.282C473.762 366.393 471.094 366.689 469.611 369.061C468.425 370.939 468.524 373.509 469.512 375.387C470.797 377.759 473.169 379.34 475.344 380.724C477.913 382.404 480.582 383.986 483.349 385.369C484.733 386.061 486.117 386.852 487.5 387.445C488.884 388.137 490.367 388.73 491.849 388.433C493.925 388.038 495.21 386.259 495.704 384.282C496.297 381.811 495.605 379.637 495.21 377.265C495.012 376.079 494.814 374.498 495.506 373.41C496.692 371.631 497.582 373.905 498.175 374.893C500.053 378.155 502.029 381.317 503.907 384.579C504.599 385.863 505.39 387.247 505.192 388.73C504.994 390.015 504.006 391.102 502.919 391.794C500.053 393.672 496.297 392.881 493.233 391.991C491.355 391.497 490.663 394.265 492.442 394.858C500.151 397.526 507.465 401.875 513.297 407.607C513.692 408.596 515.669 410.671 514.483 412.055ZM96.3096 369.457C96.3096 369.358 96.3096 369.358 96.3096 369.259C97.6933 369.061 99.077 368.567 100.263 368.172C103.129 367.184 105.304 365.503 107.676 363.823C109.158 362.835 113.013 360.364 113.606 363.428C114.1 366.096 112.024 368.666 110.147 370.247C107.774 372.323 104.711 373.509 101.844 374.794C100.559 375.288 99.3734 375.98 97.9897 376.277C96.3095 376.672 95.7165 375.486 95.9142 373.905C96.013 372.521 96.5072 371.038 96.3096 369.457ZM491.553 384.875C490.762 385.765 489.675 385.369 488.687 384.974C487.006 384.282 485.425 383.294 483.745 382.503C480.78 380.922 477.913 379.143 475.047 377.364C473.07 376.079 470.501 374.102 470.995 371.434C471.687 368.073 475.937 370.544 477.815 371.335C481.076 372.718 484.338 374.3 487.698 375.387C488.983 375.782 490.169 375.782 491.355 375.387C491.355 376.277 491.454 377.265 491.652 378.154C492.146 380.131 493.134 383.096 491.553 384.875ZM284.789 151.92C284.987 149.153 286.667 146.781 289.039 145.298C291.609 143.717 294.672 143.321 297.637 143.124C298.428 143.124 299.12 143.815 299.12 144.606C299.12 145.397 298.428 146.089 297.637 146.089C295.364 146.187 292.893 146.484 290.818 147.67C290.027 148.164 289.236 148.856 288.742 149.449C288.643 149.647 288.446 149.844 288.347 150.042C288.248 150.141 288.248 150.24 288.149 150.339C288.149 150.437 288.149 150.437 288.05 150.437C288.05 150.437 288.05 150.437 288.05 150.536C287.853 150.932 287.754 151.525 287.754 151.821C287.655 152.612 287.161 153.304 286.271 153.304C285.58 153.402 284.789 152.711 284.789 151.92ZM288.545 127.606C288.149 126.915 288.446 125.926 289.039 125.531C292.103 123.752 296.056 123.356 299.417 124.641C300.207 124.938 300.603 125.63 300.405 126.42C300.207 127.112 299.318 127.705 298.626 127.409C297.143 126.816 295.957 126.717 294.376 126.816H293.981C293.882 126.816 293.684 126.816 293.585 126.914C293.19 127.013 292.795 127.112 292.399 127.211C292.202 127.31 292.103 127.31 291.905 127.409L291.609 127.508C291.213 127.705 290.917 127.804 290.521 128.002C289.829 128.496 288.94 128.298 288.545 127.606ZM300.701 138.083C301.789 136.502 303.172 134.821 304.951 133.833C307.027 132.746 309.3 133.141 311.474 133.635C312.265 133.833 312.66 134.723 312.463 135.414C312.265 136.205 311.376 136.699 310.684 136.403C310.288 136.304 309.794 136.205 309.399 136.106C308.905 136.007 308.707 136.007 308.312 135.909C308.114 135.909 307.916 135.909 307.62 135.909C307.521 135.909 307.521 135.909 307.521 135.909C307.422 135.909 307.323 135.909 307.225 136.007L306.829 136.106C306.73 136.205 306.533 136.205 306.434 136.304C306.335 136.403 306.137 136.502 306.038 136.6C305.94 136.699 305.841 136.699 305.94 136.6C305.841 136.699 305.742 136.699 305.742 136.798C305.446 137.095 305.149 137.292 304.852 137.589C304.259 138.281 303.864 138.775 303.37 139.368C302.876 140.06 302.085 140.257 301.294 139.862C300.603 139.763 300.306 138.775 300.701 138.083ZM209.575 475.409C207.895 474.816 206.313 474.223 204.633 473.63C201.372 471.752 198.11 469.973 194.849 468.292C186.942 464.438 178.738 461.275 170.337 458.705C166.087 457.42 161.739 456.333 157.39 455.444C153.338 454.554 149.187 453.961 145.134 453.171C138.216 451.886 130.21 449.711 126.454 443.089C122.6 436.27 124.873 427.869 127.443 421.049C130.111 414.032 132.978 406.817 137.425 400.689C137.623 400.392 137.82 400.195 138.018 399.898C138.71 400.689 139.402 401.381 140.094 402.073C138.216 404.544 136.634 407.311 135.251 410.078C133.669 413.439 132.187 416.799 130.902 420.258C129.518 423.816 128.233 427.473 127.64 431.229C127.047 434.688 127.245 438.543 129.123 441.607C130.902 444.572 133.867 446.549 137.03 447.735C140.489 449.118 144.245 449.81 147.902 450.502C151.954 451.194 156.006 451.886 159.96 452.775C168.361 454.653 176.663 457.124 184.669 460.386C192.477 463.45 199.889 467.304 207.203 471.455C210.761 473.531 214.517 475.507 218.569 476.595C218.767 476.693 218.964 476.694 219.261 476.694C216.592 476.595 212.54 476.002 209.575 475.409ZM308.905 200.251C308.707 201.041 307.916 201.437 307.126 201.239C299.021 200.053 291.707 194.716 288.05 187.402C287.161 185.722 289.731 184.239 290.62 185.919C293.981 192.64 300.504 197.285 307.916 198.373C308.608 198.57 309.102 199.559 308.905 200.251ZM155.907 340.004C156.599 340.498 156.401 341.585 155.907 342.079C155.611 342.376 155.215 342.475 154.82 342.475C154.425 342.475 154.128 342.277 153.733 342.079C154.029 342.376 153.634 342.079 153.634 341.981C153.535 341.882 153.436 341.783 153.239 341.684C153.041 341.486 152.745 341.388 152.547 341.19C152.053 340.893 151.559 340.597 151.064 340.399C150.966 340.3 150.867 340.3 150.768 340.202C150.669 340.202 150.274 339.905 150.669 340.103C150.373 340.004 150.175 339.905 149.878 339.806C149.384 339.609 148.791 339.411 148.198 339.312C147.408 339.114 147.012 338.225 147.21 337.533C147.408 336.742 148.297 336.347 148.989 336.545C151.559 337.237 153.931 338.423 155.907 340.004ZM232.11 275.761C231.912 278.429 231.714 281.098 231.516 283.767C231.418 284.557 230.923 285.249 230.034 285.249C229.243 285.249 228.453 284.557 228.551 283.767C228.749 281.098 228.947 278.429 229.145 275.761C229.243 274.97 229.738 274.278 230.627 274.278C231.319 274.278 232.11 274.97 232.11 275.761ZM280.934 140.06C280.737 139.664 280.737 139.368 280.737 138.874C281.132 136.106 282.12 133.339 283.504 130.868C283.899 130.176 284.789 129.978 285.58 130.374C286.271 130.769 286.469 131.758 286.074 132.449C285.777 133.042 285.382 133.635 285.085 134.228C284.987 134.327 284.986 134.525 284.888 134.624C284.888 134.723 284.789 134.821 284.789 134.821C284.69 135.118 284.591 135.414 284.393 135.81C283.998 137.095 283.702 138.379 283.504 139.664C283.405 140.455 282.417 140.85 281.725 140.653C281.527 140.653 281.132 140.356 280.934 140.06ZM140.193 372.521C140.193 373.41 139.501 373.904 138.71 374.003C134.855 374.497 131.001 375.684 127.443 377.364C125.664 378.253 123.885 379.242 122.303 380.428C120.92 381.416 119.239 382.602 118.646 384.282C117.955 386.061 115.088 385.271 115.78 383.492C116.67 381.317 118.152 379.933 119.931 378.55C121.71 377.166 123.687 375.98 125.664 374.992C129.815 372.916 134.164 371.631 138.71 371.038C139.501 370.939 140.193 371.829 140.193 372.521ZM271.446 358.98C271.644 359.771 271.248 360.562 270.458 360.759C269.766 360.957 268.778 360.463 268.679 359.771C268.283 357.893 267.789 356.015 267.394 354.039C267.196 353.248 267.591 352.457 268.382 352.259C269.074 352.062 270.062 352.556 270.161 353.248C270.557 355.126 270.952 357.102 271.446 358.98ZM196.529 352.358C195.54 356.015 194.552 359.573 193.564 363.23C193.366 364.021 192.476 364.515 191.785 364.219C190.994 364.021 190.5 363.131 190.796 362.44C191.785 358.783 192.773 355.225 193.761 351.568C193.959 350.777 194.849 350.283 195.54 350.579C196.232 350.678 196.726 351.568 196.529 352.358ZM281.725 291.575C281.527 292.365 280.638 292.859 279.946 292.563C278.562 292.168 277.277 291.772 275.894 291.377C275.103 291.179 274.708 290.389 274.905 289.598C275.103 288.807 275.993 288.313 276.684 288.609C278.068 289.005 279.353 289.4 280.737 289.795C281.527 289.993 281.923 290.784 281.725 291.575ZM344.387 355.323C344.98 355.916 344.98 356.806 344.387 357.399C343.893 357.992 342.805 357.992 342.311 357.399C340.927 355.916 339.643 354.335 338.259 352.853C337.666 352.26 337.666 351.37 338.259 350.777C338.753 350.184 339.84 350.184 340.334 350.777C341.718 352.358 343.102 353.841 344.387 355.323ZM277.673 167.536C277.277 168.228 276.289 168.524 275.597 168.03C272.237 165.658 267.987 164.769 264.033 165.856C262.156 166.35 261.365 163.484 263.243 162.989C267.888 161.705 273.126 162.594 277.08 165.46C277.772 165.955 278.068 166.844 277.673 167.536ZM341.718 265.087C340.038 267.557 338.259 270.028 336.579 272.499C336.084 273.191 335.294 273.389 334.503 272.993C333.811 272.598 333.515 271.61 334.009 270.918C335.689 268.447 337.468 265.976 339.148 263.505C339.643 262.813 340.433 262.616 341.224 263.011C341.817 263.406 342.113 264.395 341.718 265.087Z" fill="black"/>
</svg>
