<svg width="600" height="600" viewBox="0 0 600 600" fill="none" xmlns="http://www.w3.org/2000/svg">
<path d="M293.742 391.184C367.965 391.184 428.134 331.014 428.134 256.792C428.134 182.569 367.965 122.4 293.742 122.4C219.52 122.4 159.351 182.569 159.351 256.792C159.351 331.014 219.52 391.184 293.742 391.184Z" fill="#F4F6F9"/>
<path d="M408.604 259.306C405.51 255.148 404.543 249.347 406.187 244.416C408.024 253.311 414.792 261.046 423.3 264.14L408.604 259.306ZM403.093 264.913C402.61 264.237 402.126 263.56 401.643 262.786C400.966 261.916 400.192 261.046 399.515 260.176L403.093 264.913ZM521.532 247.317C521.435 247.8 520.952 248.09 520.565 248.283C517.954 249.734 515.247 251.087 512.637 252.538C512.153 255.051 511.476 257.565 510.51 259.886C503.258 278.159 484.308 290.051 464.681 291.985C474.833 291.598 484.985 293.629 493.783 298.56C496.587 300.107 499.294 302.04 500.648 304.941C502.001 307.745 501.711 311.709 499.101 313.546C496.684 315.286 493.397 314.706 490.593 313.933C482.181 311.805 473.769 309.098 465.165 309.292C459.75 309.485 454.142 311.129 449.888 314.319C453.466 314.899 457.043 315.479 460.137 317.22C462.941 318.767 465.358 321.28 466.035 324.374C466.808 324.084 467.485 323.891 468.258 323.794C470.676 323.504 473.286 324.471 474.736 326.405C475.703 327.758 476.09 329.595 476.09 331.336C476.09 332.399 475.993 333.463 475.8 334.526C478.314 336.073 479.667 339.457 479.57 342.841C479.474 346.805 477.54 350.673 475.316 353.96C474.93 354.54 474.543 355.023 474.156 355.604C468.259 364.885 458.977 371.363 449.308 372.91C444.281 373.78 439.253 373.297 434.516 371.653L434.419 373.877C440.607 387.606 439.156 404.526 430.841 416.998C425.234 425.41 416.919 431.598 410.828 439.719C404.737 447.841 401.063 459.249 406.38 467.951C229.35 501.404 179.268 381.515 61.0225 475.299C79.1992 408.007 119.517 346.902 174.337 303.781L176.271 304.844C180.331 289.568 184.005 274.969 187.486 258.532C183.232 258.629 178.978 257.275 175.787 254.471C169.696 249.057 168.342 239.002 172.887 232.137C175.981 227.496 181.492 224.789 187.003 224.693C185.359 217.054 183.329 209.416 182.748 201.585C182.072 193.367 183.038 184.858 187.099 177.704C187.873 176.35 188.84 174.997 189.806 173.74C203.439 157.303 227.513 161.751 242.21 174.03C261.74 190.369 280.884 207.289 298.19 221.695C298.19 221.695 275.566 232.717 264.447 238.035C264.447 238.035 271.312 294.402 273.245 310.838L276.629 310.645C295.58 323.214 309.309 344.485 313.563 367.882C314.82 374.844 315.4 382.192 317.237 388.96C319.751 383.835 323.425 379.291 327.872 376.101C331.643 373.393 336.091 371.17 337.831 366.819C339.378 363.048 338.314 358.697 338.314 354.637C338.218 341.488 348.949 330.562 360.842 326.695C372.637 322.828 385.4 324.471 397.679 326.211L399.226 327.372C403.963 322.537 408.894 317.993 414.115 313.739C425.33 304.651 438.093 297.109 452.112 293.725C455.206 292.952 458.3 292.469 461.394 292.178C459.46 292.275 457.43 292.178 455.496 292.082C434.612 290.631 415.469 278.836 402.029 262.786C399.032 258.532 396.035 254.181 393.038 249.927C403.383 257.469 415.082 263.753 427.844 264.817C433.645 265.3 439.64 264.527 445.054 262.593C439.93 259.402 435.482 255.148 431.615 250.411C430.745 249.347 429.971 248.284 429.778 246.93C429.391 243.449 433.452 242.966 435.676 244.319C437.899 245.576 439.156 248.187 440.413 250.314C437.319 244.803 434.322 239.195 431.615 233.491C430.938 232.137 430.261 230.687 430.261 229.14C430.261 227.593 431.132 225.949 432.582 225.563C434.806 224.982 436.643 227.206 437.803 229.237C440.607 233.974 443.41 238.808 446.311 243.546C441.573 232.911 436.836 221.792 437.126 210.19C437.126 208.546 437.706 204.002 439.156 202.842C441.767 200.908 443.797 205.065 444.377 206.903C447.375 216.088 450.275 225.369 455.496 233.491C457.913 237.262 460.814 240.742 464.198 243.546C467.292 235.618 468.935 226.916 475.123 221.212C484.018 212.994 499.681 215.798 507.319 225.273C511.863 230.977 513.894 238.228 513.7 245.576C515.731 245.673 517.761 245.673 519.791 245.77C520.275 245.77 520.758 245.77 521.242 246.06C521.725 246.35 521.628 246.833 521.532 247.317ZM449.502 314.513C448.825 315.093 448.051 315.673 447.471 316.253L448.341 317.51L449.502 314.513Z" fill="white"/>
<path d="M175.691 306.778C174.434 305.424 176.464 303.394 177.721 304.747C183.232 310.549 189.613 315.383 196.671 319.057C209.144 325.631 223.55 328.628 237.666 327.758C244.627 327.275 251.588 325.825 258.163 323.407C264.641 320.99 272.279 317.316 274.889 310.355C275.566 308.615 278.37 309.388 277.693 311.128C274.599 319.54 265.898 323.794 257.969 326.598C243.95 331.626 228.481 332.109 214.075 328.725C199.572 325.148 185.939 317.703 175.691 306.778ZM175.497 306.198C175.787 307.455 177.914 307.745 178.301 306.198C182.265 291.308 185.939 276.322 189.226 261.239C189.226 261.143 189.227 261.046 189.323 260.949C193.191 260.659 196.961 259.209 199.862 256.695C200.442 256.212 200.539 255.245 200.055 254.665C199.572 254.085 198.605 253.988 198.025 254.471C192.417 259.306 183.039 259.306 177.431 254.375C171.92 249.444 170.663 240.162 174.82 233.974C178.978 227.786 188.066 225.369 194.738 228.657C195.414 229.043 196.285 228.753 196.671 227.98C197.058 227.206 196.768 226.433 195.994 226.046C195.318 225.659 194.544 225.369 193.771 225.176C194.158 221.212 194.254 217.248 194.157 213.187L194.834 210.77C200.345 211.253 205.856 209.416 210.884 206.999C216.685 204.292 222.486 200.618 225.29 194.914C227.707 190.079 227.804 184.375 226.547 179.154C225.483 174.706 223.55 170.452 221.519 166.295C223.743 166.778 225.87 167.358 227.997 168.132C233.025 169.969 237.762 172.676 241.92 176.157C247.817 181.088 253.715 186.115 259.613 191.143C271.795 201.585 283.978 212.123 296.257 222.469C288.619 226.239 280.884 229.913 273.149 233.684C270.248 235.134 267.251 236.488 264.351 237.938C263.964 238.132 263.577 238.712 263.674 239.195C264.447 245.866 265.317 252.538 266.091 259.306C267.638 271.681 269.088 284.057 270.538 296.432C271.118 301.653 271.795 306.875 272.375 311.999C272.569 313.836 275.469 313.836 275.276 311.999C274.019 301.363 272.762 290.728 271.505 280.189C270.152 268.877 268.798 257.662 267.348 246.35C267.058 244.223 266.864 242.192 266.574 240.065C276.533 235.328 286.588 230.397 296.546 225.563C297.513 225.079 298.577 224.596 299.544 224.112C300.317 223.726 300.511 222.372 299.834 221.792C288.038 211.93 276.436 201.875 264.737 191.916C258.549 186.599 252.458 181.378 246.174 176.157C245.884 175.867 245.594 175.673 245.207 175.383C242.887 163.491 220.359 147.925 207.403 159.044C193.964 153.146 172.307 163.491 164.475 175.963C154.517 191.916 155 211.737 161.381 224.982C163.702 229.817 166.506 234.264 169.6 238.615C168.439 244.513 169.986 250.894 174.144 255.341C171.437 259.982 167.279 263.656 162.445 265.783C155.774 268.587 147.942 268.394 141.464 265.203C139.917 264.43 137.597 263.656 136.727 265.203C136.147 266.17 136.823 267.427 137.5 268.394C146.975 281.833 162.348 290.922 178.688 292.662V292.758C177.721 296.432 176.754 300.106 175.787 303.877C175.304 303.49 174.434 303.297 173.757 303.781C163.025 312.192 152.873 321.377 143.301 331.046C133.729 340.811 124.834 351.059 116.52 361.888C108.205 372.717 100.567 384.029 93.7021 395.824C86.7408 407.62 80.5528 419.899 75.1385 432.468C69.7241 445.037 65.18 457.896 61.4093 470.948C60.9259 472.592 60.5392 474.139 60.0558 475.783C59.5724 477.62 62.3761 478.393 62.8596 476.556C66.4369 463.407 70.7877 450.548 75.912 437.979C81.0363 425.506 87.0308 413.324 93.6053 401.529C100.277 389.733 107.721 378.324 115.746 367.399C123.771 356.57 132.472 346.225 141.851 336.363C151.229 326.501 161.188 317.316 171.727 308.711C173.177 308.035 174.337 307.068 175.497 306.198ZM247.624 199.554C245.4 197.427 243.273 195.204 241.05 193.076C240.469 192.496 240.566 191.626 241.05 191.046C241.63 190.466 242.597 190.466 243.08 191.046C245.304 193.173 247.431 195.397 249.654 197.524C250.234 198.104 250.138 198.974 249.654 199.554C249.171 200.135 248.108 200.038 247.624 199.554ZM436.353 374.07C439.447 381.128 440.8 388.766 440.22 396.501C439.737 403.269 437.803 410.037 434.419 415.935C430.842 422.219 425.717 427.247 420.786 432.371C415.855 437.399 410.828 442.717 408.121 449.291C405.607 455.286 404.833 462.344 408.217 468.145C409.184 469.788 406.67 471.239 405.704 469.595C401.836 463.02 402.513 454.995 405.414 448.227C411.021 434.788 424.557 427.247 431.712 414.871C438.48 403.076 439.35 388.089 433.839 375.617C433.162 373.877 435.579 372.427 436.353 374.07ZM237.085 195.687C239.019 197.717 240.953 199.748 242.886 201.778C243.467 202.358 243.467 203.228 242.886 203.808C242.403 204.389 241.34 204.389 240.856 203.808C238.923 201.778 236.989 199.748 235.055 197.717C234.475 197.137 234.475 196.267 235.055 195.687C235.635 195.107 236.602 195.107 237.085 195.687ZM237.279 182.151C236.989 181.861 236.892 181.474 236.892 181.088C236.892 180.701 237.086 180.314 237.279 180.024C237.376 179.927 237.569 179.831 237.762 179.734C237.956 179.637 238.149 179.637 238.342 179.637C239.116 179.541 239.793 179.541 240.566 179.444C240.953 179.444 241.34 179.637 241.63 179.831C241.92 180.121 242.016 180.507 242.016 180.894C242.016 181.281 241.823 181.668 241.63 181.958C241.533 182.054 241.34 182.151 241.146 182.248C240.953 182.345 240.759 182.345 240.566 182.345C239.793 182.441 239.116 182.441 238.342 182.538C237.956 182.635 237.569 182.441 237.279 182.151ZM199.765 240.645C200.345 241.129 200.249 242.192 199.765 242.676C199.185 243.256 198.315 243.159 197.735 242.676C193.481 239.195 187.68 237.745 182.362 238.905C180.525 239.292 179.751 236.488 181.588 236.101C187.97 234.844 194.641 236.488 199.765 240.645ZM232.445 189.016C232.541 189.403 232.444 189.789 232.251 190.176C231.671 191.433 231.091 192.786 230.608 194.043C230.414 194.333 230.028 194.624 229.737 194.72C229.351 194.817 228.964 194.72 228.577 194.527C228.287 194.333 227.997 194.043 227.9 193.657C227.804 193.27 227.901 192.883 228.094 192.496C228.674 191.239 229.254 189.886 229.737 188.629C229.931 188.339 230.317 188.049 230.608 187.952C230.994 187.856 231.381 187.952 231.768 188.146C232.058 188.339 232.348 188.629 232.445 189.016ZM241.63 329.885C239.696 329.595 237.569 330.079 236.022 331.142C236.022 331.142 236.022 331.142 236.022 331.046C235.442 330.466 234.475 330.466 233.991 331.046C231.574 333.656 231.188 337.91 233.025 340.907C234.862 343.905 238.632 345.161 242.016 344.195C245.4 343.324 247.624 340.231 247.431 336.75C247.141 333.656 245.014 330.466 241.63 329.885ZM241.823 341.294C241.63 341.391 241.726 341.391 241.823 341.294V341.294ZM242.79 340.714C242.79 340.811 242.693 340.811 242.79 340.714V340.714ZM244.433 337.814C244.433 337.91 244.433 337.91 244.433 337.814C244.433 337.91 244.433 338.007 244.433 337.91C244.433 338.007 244.337 338.2 244.337 338.297C244.337 338.394 244.24 338.587 244.24 338.684C244.24 338.78 244.143 338.877 244.143 338.877C244.047 339.167 243.853 339.36 243.757 339.65C243.757 339.747 243.66 339.747 243.66 339.747C243.563 339.844 243.467 340.037 243.273 340.134C243.177 340.231 243.08 340.327 242.983 340.424L242.886 340.521C242.596 340.714 242.306 340.811 242.016 341.004C241.92 341.004 241.823 341.101 241.823 341.101C241.726 341.197 241.533 341.198 241.436 341.198C241.243 341.198 241.146 341.294 240.953 341.294C240.856 341.294 240.663 341.294 240.566 341.391C240.276 341.391 239.986 341.391 239.696 341.391C239.503 341.391 239.406 341.391 239.213 341.391H239.116C239.019 341.391 238.923 341.391 238.923 341.391C238.632 341.294 238.342 341.294 238.052 341.198C237.956 341.198 237.762 341.101 237.762 341.101C237.762 341.101 237.762 341.101 237.666 341.101C237.569 341.101 237.472 341.004 237.375 341.004C237.085 340.908 236.892 340.714 236.602 340.521C236.602 340.521 236.505 340.424 236.409 340.424C236.215 340.327 236.119 340.134 236.022 340.037C236.022 339.941 235.925 339.94 235.925 339.844C235.829 339.65 235.732 339.554 235.635 339.36C235.538 339.167 235.442 338.974 235.345 338.78C235.345 338.78 235.345 338.78 235.345 338.684C235.345 338.587 235.248 338.49 235.248 338.49C235.152 338.104 235.055 337.813 234.958 337.427C234.958 337.427 234.958 337.427 234.958 337.33C234.958 337.233 234.958 337.137 234.958 337.137C234.958 337.04 234.958 336.943 234.958 336.847C235.538 336.75 236.119 336.363 236.215 335.783C236.215 335.686 236.312 335.493 236.312 335.396C236.312 335.3 236.409 335.203 236.409 335.106C236.505 334.816 236.699 334.623 236.795 334.333C236.795 334.333 236.795 334.333 236.795 334.236L236.892 334.14C236.989 334.043 237.085 333.946 237.182 333.849C237.279 333.753 237.376 333.656 237.472 333.559L237.569 333.463C237.859 333.269 238.052 333.173 238.342 332.979C238.439 332.979 238.536 332.883 238.632 332.883C238.536 332.883 238.922 332.786 239.019 332.786C239.309 332.689 239.599 332.592 239.889 332.592C239.889 332.592 239.889 332.592 239.986 332.592C239.986 332.592 239.986 332.592 240.083 332.592C240.276 332.592 240.373 332.592 240.566 332.592C240.663 332.592 240.856 332.592 240.953 332.592C241.049 332.592 241.146 332.592 241.243 332.592C241.533 332.689 241.823 332.689 242.113 332.786C242.113 332.786 242.21 332.786 242.21 332.883C242.306 332.979 242.5 332.979 242.597 333.076C242.693 333.173 242.887 333.269 242.983 333.269C243.08 333.366 243.08 333.366 243.177 333.463C243.273 333.559 243.37 333.656 243.467 333.753C243.467 333.753 243.66 333.946 243.66 334.043C243.853 334.236 243.95 334.526 244.143 334.72C244.24 334.816 244.24 334.913 244.337 335.01C244.337 335.01 244.433 335.203 244.433 335.3C244.53 335.59 244.627 335.88 244.724 336.17C244.724 336.267 244.82 336.75 244.724 336.363C244.724 336.46 244.724 336.653 244.724 336.75C244.434 337.233 244.433 337.524 244.433 337.814C244.433 337.91 244.433 337.91 244.433 337.814C244.433 337.91 244.433 337.91 244.433 337.814ZM249.171 265.783C248.978 264.913 248.204 264.623 247.431 264.817C245.497 265.107 243.563 265.107 241.63 264.817C241.823 264.527 242.016 264.236 242.21 263.946C243.08 262.206 242.597 260.176 241.146 258.919C240.083 257.952 238.632 257.469 237.182 257.565C237.085 256.792 236.795 256.018 236.215 255.341C233.992 252.441 229.447 252.538 227.127 255.341C226.74 255.825 226.354 256.405 226.16 256.985C224.226 254.955 222.679 252.538 221.519 250.024C220.842 248.283 218.038 249.057 218.715 250.797C219.972 253.795 221.713 256.405 223.84 258.725C223.55 259.015 223.356 259.402 223.356 259.789C222.969 263.753 222.776 268.297 225.967 271.294C227.32 272.551 229.061 273.325 230.898 273.228C232.638 273.131 234.282 272.261 235.539 271.004C236.699 269.844 237.569 268.491 238.342 267.137C241.533 267.91 244.917 268.104 248.204 267.62C248.978 267.524 249.364 266.46 249.171 265.783ZM229.447 256.985C230.318 256.018 231.478 255.825 232.638 256.212C233.702 256.598 234.282 257.372 234.282 258.435V258.532C233.218 259.209 232.348 260.176 231.671 261.336C230.511 260.659 229.447 259.886 228.481 259.112C228.577 258.339 228.964 257.565 229.447 256.985ZM233.315 269.071C232.155 270.134 230.898 270.714 229.351 270.134C227.997 269.651 226.837 268.201 226.45 266.75C225.967 265.203 225.967 263.56 226.063 261.916C226.45 262.399 227.127 262.399 227.707 262.206C230.027 263.946 232.638 265.3 235.442 266.267C234.862 267.33 234.185 268.297 233.315 269.071ZM239.696 262.399C239.599 262.69 239.406 263.076 239.116 263.27C238.826 263.463 238.632 263.463 238.342 263.366C237.666 263.173 237.182 263.463 236.892 263.85C236.119 263.56 235.442 263.366 234.668 262.98C235.538 262.399 236.215 261.626 236.699 260.659C237.376 260.466 238.052 260.466 238.729 260.852C239.406 261.143 239.889 261.723 239.696 262.399ZM222.099 343.808C216.588 346.322 211.077 348.835 205.083 349.996C196.381 351.736 186.229 350.092 180.622 342.551C177.818 338.78 176.561 334.14 175.594 329.595C174.434 324.084 173.467 318.67 172.307 313.159C171.92 311.322 174.724 310.548 175.111 312.385C176.271 318.09 177.238 323.891 178.495 329.595C179.365 333.753 180.622 338.104 183.329 341.391C185.939 344.485 189.613 346.322 193.481 347.192C202.859 349.222 212.141 345.065 220.456 341.294C222.293 340.617 223.84 343.034 222.099 343.808ZM244.433 338.007C244.433 337.91 244.433 337.91 244.433 338.007V338.007ZM182.072 379.968C180.815 379.968 179.558 380.258 178.495 380.838C178.591 379.388 178.495 377.841 177.818 376.487C176.851 374.264 174.434 372.62 172.017 372.62C169.31 372.717 167.473 374.94 167.376 377.551C167.279 379.194 167.859 380.645 168.633 381.998C166.312 380.645 163.798 379.581 160.995 380.258C158.287 380.838 156.257 383.159 156.45 385.963C156.74 388.67 158.868 390.99 161.381 391.86C162.832 392.344 164.282 392.44 165.732 392.247C165.055 393.311 164.475 394.471 164.282 395.728C163.799 398.531 165.055 401.819 167.666 403.172C170.663 404.719 174.047 402.882 175.691 400.175C176.657 398.532 176.851 396.888 176.754 395.148C180.332 397.178 185.069 397.178 187.97 393.504C189.903 391.087 190.58 387.606 189.42 384.609C188.163 381.612 185.262 379.871 182.072 379.968ZM173.564 397.855C172.983 399.692 170.856 401.722 168.826 400.562C167.182 399.692 166.699 397.371 167.182 395.728C167.859 393.311 169.986 391.57 171.92 390.313C172.113 390.217 172.21 390.12 172.307 389.927C172.403 390.313 172.597 390.603 172.693 390.893C173.564 393.117 174.337 395.631 173.564 397.855ZM186.906 388.573C186.519 391.377 184.392 393.697 181.588 393.697C178.978 393.697 176.561 392.054 175.401 389.733C175.304 389.346 175.111 388.96 175.014 388.67C174.53 387.413 173.08 387.413 172.403 388.186C172.113 387.703 171.533 387.413 170.856 387.703C168.536 388.573 166.119 389.636 163.605 389.443C161.768 389.25 159.834 388.09 159.351 386.156C158.868 384.319 160.511 383.159 162.155 382.965C164.475 382.772 166.602 384.125 168.439 385.286C169.406 385.866 170.276 385.286 170.47 384.416C170.76 384.706 170.953 384.996 171.243 385.189C172.5 386.543 174.627 384.512 173.273 383.159C171.92 381.805 170.276 380.161 170.083 378.131C169.986 376.777 170.76 375.231 172.307 375.521C173.757 375.714 175.014 377.068 175.304 378.421C175.884 380.742 174.917 383.255 174.24 385.479C173.757 387.316 176.464 387.993 177.044 386.252C177.721 383.835 180.525 382.578 182.942 382.869C185.842 383.255 187.293 385.866 186.906 388.573ZM503.839 307.165C503.452 303.974 501.518 301.363 499.004 299.43C493.687 295.272 486.725 292.758 480.151 291.501C473.19 290.148 466.035 290.051 458.977 291.018C444.861 292.952 431.615 299.43 420.11 307.745C412.568 313.256 405.704 319.443 399.129 326.115C399.032 326.018 398.839 325.921 398.646 325.921C387.043 324.374 375.151 322.731 363.646 325.728C354.654 328.048 346.533 333.656 341.602 341.584C339.185 345.452 337.734 349.899 337.541 354.443C337.251 359.471 339.281 365.369 335.897 369.72C333.093 373.297 328.549 375.231 325.165 378.228C322.458 380.548 320.234 383.352 318.301 386.349C316.657 378.808 316.27 370.976 314.433 363.532C309.792 344.581 298.964 326.888 283.591 314.803C281.754 313.352 279.917 311.999 277.983 310.742C276.436 309.678 274.986 312.192 276.533 313.256C280.013 315.576 283.301 318.186 286.395 320.99C286.201 321.28 286.201 321.667 286.298 322.054C288.038 328.048 285.234 334.333 280.497 338.104C275.179 342.454 267.831 342.648 261.547 340.327C257.776 338.974 254.489 336.653 251.685 333.849C250.331 332.496 248.301 334.526 249.654 335.88C255.165 341.488 262.997 345.258 271.022 344.678C278.37 344.195 285.041 339.65 288.135 332.883C289.392 330.079 289.972 327.082 289.682 324.084C298.48 333.173 305.248 344.291 309.406 356.28C310.953 360.728 312.113 365.272 312.983 369.913C313.853 374.844 314.337 379.871 315.303 384.802C315.593 386.543 315.98 388.283 316.464 390.023C312.596 398.242 311.146 408.297 313.95 417.095C315.4 421.736 318.591 426.087 323.715 426.763C328.162 427.344 331.837 424.153 332.707 419.899C333.674 415.258 332.127 410.907 329.516 407.136C326.519 402.786 322.845 399.015 320.911 394.084C320.428 392.827 320.041 391.667 319.654 390.41C321.008 387.703 322.845 385.092 324.875 382.869C326.325 381.225 328.066 379.775 329.806 378.421C331.546 377.164 333.287 376.101 335.027 374.844C336.767 373.49 338.411 371.943 339.475 370.106C340.635 367.979 341.118 365.562 341.118 363.145C341.118 360.534 340.732 357.924 340.732 355.313C340.732 353.186 341.118 351.059 341.795 349.029C344.309 340.811 351.077 334.236 358.715 330.659C368.383 326.115 379.792 326.598 390.137 327.758C392.458 328.048 394.778 328.338 397.099 328.629C393.811 332.012 390.524 335.493 387.334 338.974C386.077 340.424 384.723 341.874 383.466 343.228C382.209 344.581 384.239 346.709 385.496 345.258C404.35 324.471 425.04 301.847 453.466 295.079C466.518 291.985 480.924 292.662 492.913 298.946C495.62 300.3 498.521 301.943 500.165 304.554C501.518 306.681 502.002 309.775 500.165 311.805C497.941 314.126 494.073 312.869 491.463 312.192C487.789 311.225 484.115 310.162 480.344 309.388C473.093 307.744 465.455 306.875 458.203 309.098C455.4 309.968 452.692 311.225 450.372 312.966C450.275 313.062 450.179 313.159 450.082 313.256C447.471 315.189 445.248 317.8 443.894 320.797C443.121 322.441 445.634 323.988 446.408 322.247C447.568 319.637 449.405 317.413 451.532 315.769C454.723 316.253 458.01 316.833 460.814 318.477C463.424 319.927 465.842 322.537 465.938 325.631C466.132 329.015 463.811 332.109 461.491 334.43C461.394 334.526 461.201 334.623 461.104 334.816C460.717 334.623 460.33 334.333 460.04 334.14C455.303 331.239 450.469 328.628 445.441 326.308C439.833 323.697 434.032 321.377 428.038 319.54C426.297 318.96 425.524 321.764 427.264 322.344C436.546 325.341 445.441 329.209 453.949 333.946C456.076 335.106 458.107 336.363 460.234 337.62C461.974 338.684 464.198 339.844 465.068 341.874C465.938 343.808 464.971 345.452 463.038 345.935C460.621 346.515 457.817 345.355 455.593 344.582C450.082 342.744 444.764 340.617 439.447 338.49C438.576 338.2 437.513 338.974 437.61 339.844C438.286 346.418 432.679 352.123 425.911 350.963C424.074 350.672 423.3 353.38 425.137 353.767C429.101 354.443 433.259 353.477 436.353 350.673C438.77 348.449 440.317 345.258 440.51 341.971C444.087 343.421 447.762 344.775 451.436 346.128C452.016 349.706 453.466 353.186 457.333 354.057C459.17 354.443 460.911 354.25 462.554 353.573C463.134 355.023 463.714 356.57 464.585 357.827C465.841 359.664 467.775 360.534 469.709 360.534C466.228 364.305 462.071 367.302 457.333 369.333C450.469 372.233 442.734 372.523 435.676 370.01C431.518 368.559 427.844 366.045 424.654 363.048C423.3 361.695 421.27 363.822 422.623 365.079C423.107 365.562 423.59 365.949 424.074 366.432C418.273 369.526 411.311 370.3 404.93 368.463C398.936 366.722 393.811 362.661 390.524 357.344C388.687 354.347 387.43 350.963 387.043 347.482C386.947 346.709 386.463 346.032 385.593 346.032C384.916 346.032 384.046 346.709 384.143 347.482C385.013 354.347 388.397 360.728 393.521 365.369C399.032 370.203 406.284 372.717 413.632 372.233C417.886 371.943 422.14 370.783 425.911 368.656C426.201 368.559 426.297 368.366 426.491 368.172C431.905 372.137 438.383 374.457 445.248 374.65C453.369 374.844 461.104 371.653 467.389 366.722C471.063 363.822 474.156 360.341 476.67 356.474C478.12 354.733 479.377 352.606 480.344 350.576C481.891 347.289 482.858 343.711 482.278 340.134C481.891 337.717 480.731 335.3 478.797 333.753C479.377 330.079 478.797 326.018 475.703 323.794C473.48 322.151 470.869 321.86 468.355 322.441C467.582 320.507 466.325 318.767 464.681 317.413C461.974 315.189 458.687 314.126 455.303 313.449C456.657 312.772 458.203 312.192 459.654 311.709C466.615 309.678 473.866 310.742 480.828 312.385C484.695 313.256 488.369 314.416 492.236 315.286C495.234 315.963 498.714 316.446 501.325 314.609C503.162 312.966 504.129 309.968 503.839 307.165ZM319.654 398.628C321.975 402.979 325.745 406.363 328.163 410.714C329.903 413.904 330.87 418.352 328.743 421.639C326.132 425.7 320.718 423.573 318.494 420.286C315.884 416.418 315.303 411.294 315.303 406.75C315.303 402.399 316.174 398.145 317.624 394.084C318.204 395.728 318.881 397.178 319.654 398.628ZM477.444 337.04C478.507 338.49 478.991 340.521 478.991 342.261C478.991 346.032 477.25 349.609 475.123 352.703C473.673 354.83 469.709 359.858 466.905 356.764C465.842 355.507 465.261 353.766 464.585 352.219C466.325 351.156 468.065 349.706 469.419 348.449C472.996 345.355 475.993 341.488 477.444 337.04ZM468.452 327.081C468.549 326.501 468.549 325.825 468.452 325.245C469.902 324.858 471.546 324.954 472.996 325.825C476.283 327.662 475.8 332.399 474.93 335.493C473.866 339.167 471.643 342.358 469.032 345.065C467.679 346.419 466.228 347.579 464.778 348.642C463.328 349.706 461.781 350.769 459.944 351.156C457.913 351.543 456.076 350.866 455.013 349.029C454.626 348.449 454.336 347.772 454.143 346.999C454.433 347.095 454.626 347.192 454.916 347.289C457.527 348.159 460.234 349.126 462.941 348.642C465.068 348.255 467.002 346.902 467.678 344.775C468.839 341.004 466.228 338.2 463.231 336.17C465.842 333.753 467.969 330.562 468.452 327.081Z" fill="black"/>
<path d="M477.443 295.466C478.894 297.206 479.184 299.817 478.024 301.847C477.637 302.524 476.767 302.717 475.993 302.33C475.316 301.944 475.123 300.977 475.51 300.3C475.606 300.203 475.606 300.107 475.703 300.01C475.703 299.816 475.8 299.623 475.896 299.526C475.896 299.43 475.896 299.43 475.896 299.333V299.236C475.896 299.043 475.896 298.85 475.896 298.656C475.896 298.56 475.896 298.56 475.896 298.463C475.896 298.27 475.8 298.076 475.703 297.98C475.703 297.98 475.703 297.98 475.703 297.883C475.703 297.786 475.606 297.689 475.606 297.593C475.606 297.496 475.51 297.496 475.51 297.399C475.413 297.303 475.316 297.206 475.123 297.013C475.026 297.013 475.026 296.916 474.929 296.916C474.833 296.916 474.736 296.819 474.64 296.819C474.446 296.723 474.35 296.723 474.156 296.626C474.06 296.626 474.059 296.626 473.963 296.626C473.769 296.626 473.576 296.626 473.383 296.626H473.286C473.189 296.626 473.189 296.626 473.189 296.626C472.996 296.626 472.803 296.723 472.609 296.819C471.836 297.109 471.062 296.529 470.869 295.852C470.772 295.466 470.869 295.079 471.062 294.692C471.255 294.305 471.546 294.209 471.932 294.015C473.576 293.242 476.09 293.919 477.443 295.466ZM522.402 250.411C521.048 251.184 519.598 251.861 518.244 252.634C517.084 253.214 515.924 253.891 514.86 254.471C513.41 261.143 510.413 267.33 506.255 272.745C495.91 286.184 479.184 293.919 462.264 294.596C462.941 295.176 463.521 295.949 463.811 296.819C464.778 299.236 463.617 302.137 461.49 303.587C460.814 303.974 459.943 303.684 459.46 303.104C459.073 302.427 459.363 301.557 459.943 301.073C459.943 301.073 460.137 300.977 460.137 300.88C460.234 300.783 460.233 300.783 460.233 300.783C460.33 300.687 460.427 300.59 460.427 300.59C460.427 300.59 460.427 300.493 460.524 300.493C460.62 300.397 460.62 300.397 460.524 300.493C460.62 300.397 460.814 300.107 460.814 299.913C460.814 299.913 460.814 299.913 460.814 299.817C460.814 299.72 460.91 299.623 460.91 299.526C461.007 299.333 461.007 299.14 461.104 298.946C461.104 298.85 461.104 298.753 461.104 298.656C461.104 298.56 461.104 298.463 461.104 298.269C461.104 298.076 461.007 297.883 460.91 297.69C460.91 297.69 460.91 297.593 460.814 297.593C460.717 297.496 460.717 297.399 460.62 297.303C460.62 297.303 460.62 297.206 460.524 297.206C460.427 297.109 460.427 297.109 460.33 297.013C460.234 296.916 459.943 296.723 459.847 296.626C459.847 296.626 459.847 296.626 459.75 296.626C459.653 296.529 459.557 296.529 459.46 296.433C459.363 296.336 459.267 296.336 459.17 296.336C458.977 296.239 458.783 296.239 458.493 296.142C458.396 296.142 458.3 296.142 458.203 296.142C458.107 296.142 458.01 296.142 457.816 296.142C457.043 296.336 456.269 295.949 456.076 295.176C455.979 294.982 455.979 294.789 456.076 294.692C454.722 294.596 453.272 294.499 451.919 294.306C432.968 291.888 415.952 281.446 403.286 267.33C402.996 267.234 402.609 267.04 402.416 266.75C401.933 266.074 401.449 265.3 400.966 264.623C399.709 263.173 398.549 261.626 397.388 260.079C397.098 259.789 397.098 259.402 397.098 259.112C395.358 256.695 393.715 254.278 391.974 251.764C391.201 250.604 392.748 248.96 394.004 249.734C396.518 251.571 399.032 253.215 401.643 254.858C402.996 255.728 404.446 256.502 405.8 257.275C404.253 253.408 404.06 249.057 405.316 245.093C405.703 243.836 407.83 243.643 408.12 245.093C409.957 253.505 416.145 260.853 424.267 263.85C424.363 263.947 424.557 263.947 424.653 264.043C428.037 264.623 431.518 264.817 434.999 264.527C437.319 264.333 439.64 263.85 441.96 263.27C441.283 262.786 440.51 262.206 439.833 261.723C437.899 260.176 435.966 258.436 434.225 256.599C432.582 254.858 430.841 253.021 429.488 250.991C428.424 249.347 427.941 247.123 429.004 245.286C429.874 243.933 431.615 243.353 433.162 243.353C433.645 243.353 434.032 243.449 434.419 243.449C433.839 242.386 433.258 241.226 432.678 240.162C431.808 238.422 430.938 236.585 430.068 234.844C429.391 233.297 428.714 231.557 428.811 229.817C429.101 226.82 431.808 224.306 434.805 225.466C436.256 226.046 437.319 227.11 438.189 228.367C437.222 225.079 436.352 221.792 435.966 218.311C435.482 214.927 435.386 211.543 435.869 208.256C436.256 205.839 437.126 202.358 440.123 202.068C442.927 201.778 444.667 204.872 445.537 207.096C446.988 210.77 447.954 214.637 449.308 218.311C452.402 226.82 456.85 235.908 463.521 242.289C466.131 235.134 467.872 227.593 473.286 222.082C480.151 215.121 490.883 214.734 499.391 218.601C509.059 223.049 514.28 233.007 514.957 243.353C514.957 244.029 515.054 244.61 515.054 245.286C516.601 245.286 518.148 245.383 519.695 245.383C521.048 245.383 522.402 245.77 522.982 247.027C524.432 248.38 523.659 249.637 522.402 250.411ZM407.927 251.958C408.217 254.665 409.184 257.179 410.828 259.402C412.181 259.982 413.631 260.563 414.985 261.143C411.988 258.629 409.571 255.535 407.927 251.958ZM520.275 248.284C520.081 248.284 519.888 248.284 519.791 248.284C519.211 248.284 518.631 248.284 517.954 248.284L518.051 248.187H512.83C510.606 248.09 508.382 248.09 506.159 247.994C504.322 247.994 504.322 245.093 506.159 245.093C508.382 245.19 510.606 245.19 512.83 245.286C512.733 241.322 512.056 237.455 510.51 233.781C506.835 224.886 498.23 218.891 488.465 218.988C484.211 219.085 479.86 220.438 476.67 223.436C472.996 226.82 470.966 231.557 469.322 236.198C468.355 238.905 467.485 241.612 466.518 244.319C470.095 247.123 474.156 249.25 478.99 250.217C480.827 250.604 480.054 253.408 478.217 253.021C470.772 251.571 464.294 247.027 459.363 241.419C454.529 235.811 451.145 229.237 448.438 222.372C446.988 218.698 445.827 215.024 444.571 211.35C444.087 209.996 443.797 208.546 443.12 207.193C442.83 206.516 442.154 205.066 441.283 204.969C439.64 204.775 439.35 209.513 439.253 210.576C438.963 214.154 439.446 217.925 440.123 221.405C441.767 229.237 444.957 236.681 448.148 243.933C448.921 245.576 446.601 247.027 445.634 245.383C443.41 241.612 441.187 237.842 438.963 234.168C438.286 233.007 434.612 225.563 432.678 228.947C431.808 230.494 432.775 232.427 433.452 233.878C434.419 235.811 435.289 237.745 436.352 239.679C438.286 243.353 440.22 247.027 442.25 250.701C443.217 252.344 440.703 253.795 439.736 252.151C438.383 249.83 436.256 244.996 432.678 246.35C429.488 247.51 435.289 252.924 436.352 253.988C439.156 256.985 442.25 259.692 445.731 261.916C452.885 266.557 461.49 269.264 470.095 267.911C471.932 267.621 472.706 270.424 470.869 270.714C464.971 271.585 458.977 270.908 453.369 268.974C450.662 268.007 448.051 266.75 445.537 265.203C439.06 267.427 432.002 267.911 425.234 266.944C415.952 265.59 407.347 261.626 399.419 256.599C400.869 258.726 402.319 260.756 403.77 262.883C404.253 263.463 404.833 264.14 405.316 264.72C419.239 280.48 439.35 292.178 460.814 291.888C480.054 291.598 499.778 281.35 508.673 263.947C509.929 261.529 510.896 259.016 511.67 256.405C511.186 256.598 510.8 256.889 510.316 257.082C508.673 257.952 507.222 255.438 508.866 254.568C510.123 253.891 511.283 253.214 512.54 252.634C512.54 252.441 512.54 252.344 512.637 252.151L515.731 250.894V250.991C516.794 250.411 517.954 249.83 519.018 249.25C519.308 248.767 519.791 248.477 520.275 248.284ZM521.242 248.38C521.145 248.38 521.242 248.38 521.242 248.38V248.38ZM469.032 261.723C462.651 261.916 456.463 259.886 451.339 256.018C450.758 255.535 449.695 255.922 449.308 256.502C448.921 257.275 449.211 258.049 449.791 258.532C455.302 262.69 462.07 264.817 468.935 264.623C470.869 264.527 470.869 261.626 469.032 261.723ZM495.91 233.394C493.01 233.007 489.916 234.264 488.079 236.585C487.595 237.165 487.499 238.035 488.079 238.615C488.562 239.098 489.626 239.195 490.109 238.615C491.463 236.971 493.493 236.005 495.523 236.198C497.457 236.391 499.197 237.745 500.068 239.389C500.454 240.065 501.421 240.259 502.098 239.872C502.775 239.485 502.968 238.615 502.581 237.842C501.228 235.425 498.714 233.684 495.91 233.394Z" fill="black"/>
<path d="M530.136 289.278L491.946 281.156C489.819 280.673 488.465 278.643 488.949 276.516L494.073 252.441C494.556 250.314 496.587 248.96 498.714 249.444L536.904 257.565C539.031 258.049 540.385 260.079 539.902 262.206L534.777 286.281C534.294 288.311 532.263 289.665 530.136 289.278Z" fill="#FFE945"/>
<path d="M497.07 253.505C499.971 256.212 502.968 258.919 505.869 261.626C507.416 263.076 508.866 264.43 510.413 265.88C511.09 266.557 511.863 267.137 512.54 267.814C513.217 268.491 513.99 269.361 514.764 269.844C515.634 270.424 516.504 269.941 517.374 269.748C518.244 269.458 519.211 269.264 520.081 268.974C522.015 268.491 523.852 267.911 525.786 267.427C529.653 266.364 533.521 265.3 537.485 264.237C539.322 263.753 538.548 260.949 536.711 261.433C529.556 263.367 522.402 265.397 515.247 267.331C515.731 267.427 516.214 267.621 516.697 267.717C510.8 262.303 504.998 256.889 499.101 251.571C497.747 250.217 495.717 252.248 497.07 253.505Z" fill="black"/>
</svg>
