<svg width="600" height="600" viewBox="0 0 600 600" fill="none" xmlns="http://www.w3.org/2000/svg">
<path d="M177.399 277.393C165.312 274.348 155.346 266.136 145.842 258.108C127.019 242.238 108.103 226.367 89.2793 210.588C109.118 212.987 129.418 212.064 148.979 207.728C155.531 206.251 162.267 204.406 167.526 200.161C173.524 195.363 177.122 188.258 180.167 181.246C193.547 151.165 202.497 114.625 185.335 86.5742C197.33 107.428 211.355 127.174 227.042 145.352C250.479 113.426 278.253 84.6367 309.256 60C305.842 78.1776 309.533 97.5547 319.314 113.241C323.282 119.516 328.449 125.513 335.369 128.097C344.781 131.603 355.3 128.374 364.712 124.775C389.164 115.64 412.97 104.66 435.854 92.1106C414.908 109.365 392.393 129.481 389.81 156.517C389.348 161.13 389.902 166.574 393.593 169.343C396.638 171.557 400.698 171.372 404.481 171.096C434.008 168.789 463.535 166.39 493.062 164.083C478.299 174.325 464.274 185.767 451.355 198.224C446.834 202.653 442.313 210.219 446.926 214.556C449.602 217.047 453.755 216.678 457.353 216.217C476.546 213.91 496.2 215.663 514.746 221.2C517.791 222.122 521.113 223.322 522.682 226.182C525.635 231.349 520.744 237.347 516.223 241.223C489.741 263.737 460.583 283.114 429.487 298.8C409.556 308.858 388.703 317.532 371.171 331.372C361.298 339.216 352.071 348.812 339.798 351.672C324.573 355.179 309.072 347.059 296.615 337.647C284.066 328.235 272.255 316.978 257.307 312.641C244.942 309.043 231.286 310.519 219.383 305.629C201.113 298.155 188.841 276.563 169.095 276.101" fill="#F4F6F9"/>
<path d="M483.928 286.436C481.99 297.047 477.285 307.013 472.302 316.609C465.197 330.358 457.538 343.737 449.418 356.932C445.82 362.745 441.944 368.743 436.408 372.803C428.196 378.801 417.4 379.816 407.158 378.524C400.514 386.275 393.778 394.025 385.658 400.3C383.075 402.33 380.306 404.175 377.169 405.283C368.403 408.235 358.438 403.991 349.395 404.083C348.749 404.914 348.011 405.652 347.181 406.39C333.894 418.939 315.9 426.228 297.631 426.413C281.944 426.598 266.35 421.523 253.617 412.295C250.849 414.233 248.357 416.632 246.327 419.4C239.868 427.982 244.297 436.748 245.404 449.389C244.759 449.481 244.205 449.666 243.651 449.758C248.634 459.077 251.679 469.412 252.509 480.023C239.96 479.654 227.411 481.776 215.601 486.298L215.877 487.036C211.725 480.669 208.403 473.749 205.912 466.459C205.635 465.629 205.358 464.706 205.266 463.783C202.682 465.167 200.191 466.644 197.7 468.12C182.013 456.125 167.342 442.284 157.93 424.937C148.611 407.59 145.197 386.275 152.486 367.912C159.13 351.303 175.739 338.385 193.363 338.109C189.764 329.066 188.011 319.193 188.38 309.504C189.118 289.481 198.53 270.565 211.448 255.156C212.186 254.233 213.017 253.31 213.755 252.48C199.73 235.686 185.612 218.985 171.587 202.192C206.281 172.941 244.666 147.935 285.543 128.097C289.695 126.067 294.77 124.129 298.553 126.713C300.122 127.82 301.229 129.573 302.244 131.234C319.13 159.47 336.016 187.797 352.902 216.032C369.972 223.506 384.828 236.425 393.778 252.849C395.716 256.355 397.377 260.046 398.669 263.829C399.314 263.276 399.96 262.722 400.514 262.168C411.587 252.572 424.32 244.268 438.715 241.684C453.109 239.193 469.441 243.529 478.023 255.433C484.574 264.106 485.866 275.825 483.928 286.436ZM302.244 426.321C292.002 426.321 283.79 451.511 283.79 482.607C283.79 513.703 292.094 538.893 302.244 538.893C312.394 538.893 320.699 513.703 320.699 482.607C320.699 451.511 312.486 426.321 302.244 426.321ZM200.56 474.764C193.732 476.609 191.61 490.819 195.854 506.413C200.099 522.007 209.049 533.264 215.97 531.326C222.798 529.481 224.92 515.271 220.675 499.677C216.431 483.991 207.388 472.826 200.56 474.764ZM384.828 462.584C377.723 461.845 370.71 474.302 369.049 490.45C367.388 506.598 371.817 520.254 378.83 520.9C385.935 521.638 392.948 509.181 394.609 493.033C396.269 476.978 391.84 463.322 384.828 462.584Z" fill="white"/>
<path d="M452.371 413.864C450.802 412.941 452.279 410.542 453.755 411.465C464.089 417.647 474.424 423.921 484.758 430.104C486.327 431.026 484.851 433.425 483.374 432.503C473.04 426.32 462.705 420.046 452.371 413.864ZM437.607 429.365C443.513 435.271 449.418 441.176 455.323 447.082C456.615 448.374 458.553 446.343 457.261 445.144C451.356 439.239 445.45 433.333 439.545 427.428C438.253 426.136 436.315 428.074 437.607 429.365ZM124.897 433.61C114.193 438.316 103.49 443.114 92.786 447.82C91.1251 448.558 92.6014 450.957 94.1701 450.219C104.874 445.513 115.577 440.715 126.281 436.009C127.849 435.271 126.465 432.964 124.897 433.61ZM130.802 310.888C113.455 314.21 95.7387 315.317 78.1147 314.117C76.3615 314.025 76.3615 316.793 78.1147 316.886C96.0155 318.085 114.009 316.885 131.54 313.564C133.293 313.287 132.555 310.611 130.802 310.888ZM124.435 328.696C116.777 330.265 109.026 331.741 101.367 333.31C99.6141 333.679 100.352 336.355 102.105 335.986C109.764 334.417 117.515 332.941 125.174 331.372C126.927 331.003 126.189 328.327 124.435 328.696ZM340.814 133.264C343.12 127.912 345.427 122.468 347.734 117.116C348.011 116.47 347.919 115.64 347.273 115.178C346.719 114.809 345.704 114.994 345.335 115.64C343.028 120.992 340.721 126.436 338.415 131.787C338.138 132.433 338.23 133.264 338.876 133.725C339.43 134.094 340.445 134.002 340.814 133.264ZM182.567 119.331C178.691 114.717 174.816 110.103 171.033 105.49C170.571 104.936 169.556 105.028 169.095 105.49C168.541 106.043 168.634 106.874 169.095 107.428C172.971 112.041 176.846 116.655 180.629 121.268C181.091 121.822 182.105 121.73 182.567 121.268C183.12 120.715 183.028 119.884 182.567 119.331ZM154.055 112.226C160.883 117.67 167.619 123.206 174.447 128.65C175.831 129.757 177.769 127.82 176.385 126.712C169.556 121.268 162.821 115.732 155.992 110.288C154.608 109.181 152.671 111.118 154.055 112.226Z" fill="black"/>
<path d="M349.303 426.967C350.041 441.084 350.133 455.202 349.58 469.32C349.58 470.427 348.38 470.796 347.642 470.519H347.55C339.43 471.257 331.31 471.995 323.19 472.734C321.437 472.918 321.437 470.15 323.19 469.965C331.125 469.227 338.968 468.489 346.904 467.843C347.365 454.187 347.273 440.531 346.535 426.967C342.659 426.782 338.876 426.598 335.001 426.228C333.247 426.044 333.247 423.276 335.001 423.46C339.245 423.829 343.582 424.106 347.826 424.199V423.645C347.826 423.829 347.826 424.014 347.826 424.199C362.129 424.66 376.431 423.83 390.641 421.707C392.394 421.43 393.132 424.106 391.379 424.383C377.446 426.505 363.42 427.336 349.303 426.967ZM311.748 486.298C311.379 488.051 314.055 488.789 314.424 487.036C316.915 475.409 316.362 463.322 312.947 451.88C312.394 450.219 309.81 450.865 310.272 452.618C313.593 463.599 314.147 475.225 311.748 486.298ZM297.261 437.763C292.371 445.513 289.879 454.741 290.341 463.876C290.433 465.629 293.201 465.629 293.109 463.876C292.74 455.202 294.954 446.528 299.66 439.147C300.583 437.67 298.184 436.286 297.261 437.763ZM383.167 471.073C384.92 470.335 385.843 471.811 386.212 473.287C387.596 477.716 387.873 482.514 387.134 487.036C387.042 487.774 387.319 488.512 388.057 488.697C388.703 488.881 389.626 488.512 389.718 487.774C390.179 484.821 390.364 481.869 390.087 478.824C389.81 476.055 389.349 473.011 388.057 470.519C386.765 468.212 384.182 467.382 381.783 468.489C379.199 469.689 378.276 472.457 377.538 474.948C377.077 476.701 379.753 477.44 380.214 475.686C380.86 474.118 381.413 471.811 383.167 471.073ZM201.667 507.982C201.021 508.166 200.468 508.997 200.744 509.642C202.867 515.363 205.912 520.715 209.695 525.513C210.525 526.621 211.54 527.543 212.924 527.912C214.216 528.189 215.6 527.912 216.708 527.174C219.199 525.606 219.845 522.653 220.214 519.977C220.306 519.239 220.029 518.501 219.291 518.316C218.645 518.132 217.723 518.501 217.63 519.239C217.353 521.269 217.077 523.852 215.139 524.96C213.109 526.159 211.633 523.576 210.618 522.192C207.665 518.132 205.266 513.61 203.42 508.904C203.144 508.259 202.405 507.797 201.667 507.982ZM481.898 298.893C478.668 307.566 474.332 315.871 469.903 323.991C465.289 332.572 460.491 341.061 455.508 349.366C450.987 357.024 446.558 365.421 439.914 371.511C434.009 376.955 426.35 379.539 418.415 380.092C414.816 380.369 411.217 380.185 407.711 379.816C403.836 384.337 399.96 388.766 395.808 393.01C392.394 396.425 388.703 399.839 384.735 402.699C384.089 401.961 383.443 401.315 382.798 400.669C382.982 400.485 383.167 400.392 383.443 400.208C391.656 394.21 398.484 386.367 405.127 378.708C400.052 376.125 394.793 373.818 389.441 371.88C384.182 370.035 378.83 368.558 373.478 367.359C370.987 366.805 368.126 366.067 365.727 367.082C364.804 367.451 364.159 368.005 363.513 368.651C363.513 368.743 363.513 368.835 363.513 368.927C363.605 371.88 361.759 374.371 359.268 375.663C355.024 383.599 350.871 391.627 346.719 399.562C345.612 400.485 344.505 401.499 343.582 402.607C343.49 402.791 343.397 402.976 343.305 403.16L342.105 405.006C341.921 405.098 341.736 405.098 341.552 405.19C341.275 405.559 340.998 405.929 340.721 406.39C340.537 406.205 340.352 405.929 340.352 405.652C333.524 407.959 326.05 408.42 318.668 407.959C316.546 407.866 314.424 407.682 312.394 407.497C312.855 410.727 312.117 414.049 309.81 416.54C308.149 418.385 305.935 419.585 303.536 419.862C303.812 421.43 303.997 422.999 304.274 424.568C314.424 423.553 324.297 420.323 333.155 415.156C334.816 414.141 336.477 413.126 338.045 412.019C337.584 413.31 337.215 414.694 336.938 416.079C335.001 417.278 333.063 418.385 331.033 419.4C323.651 423.091 315.808 425.675 307.688 426.874C316.177 433.518 322.175 455.571 322.175 482.422C322.175 483.068 322.175 483.806 322.175 484.452C326.696 484.268 331.217 484.36 335.646 484.637C346.535 485.467 357.33 487.959 367.573 491.926C367.573 491.373 367.665 490.819 367.757 490.173C369.51 473.011 377.169 460.277 385.104 461.107C393.04 461.938 397.93 475.963 396.177 493.126C395.347 501.061 393.224 508.535 390.179 513.887C387.134 519.331 383.351 522.192 379.66 522.192C379.383 522.192 379.199 522.192 378.922 522.192C374.954 521.823 371.633 518.039 369.603 511.765C368.034 506.967 367.388 501.061 367.573 494.787C353.178 489.158 337.676 486.482 322.267 487.221C321.437 517.209 313.04 540 302.428 540C292.002 540 283.697 517.855 282.682 488.512C274.747 489.066 266.811 490.173 258.968 491.742C258.784 491.834 258.691 491.834 258.507 491.834C258.415 493.587 258.322 495.34 258.322 497.094C258.23 498.847 255.462 498.847 255.554 497.094C255.739 491.465 256.015 485.744 256.2 480.115C256.2 479.1 257.123 478.639 257.953 478.824C258.046 478.455 258.322 478.086 258.876 477.993C266.627 475.779 274.747 474.579 282.774 474.487C283.789 452.157 289.049 434.256 296.154 427.52C293.293 427.52 290.341 427.243 287.48 426.874C275.485 425.306 263.951 420.692 253.986 413.772C251.863 415.34 249.926 417.186 248.265 419.308C245.127 423.276 244.297 427.889 244.758 432.872C244.943 434.533 245.127 436.194 245.404 437.855C245.866 439.7 246.327 441.453 246.696 443.299C246.788 443.76 246.696 444.129 246.511 444.406C246.788 445.975 246.973 447.543 247.157 449.112C247.25 449.666 246.696 450.311 246.142 450.404H246.05C247.434 453.08 248.634 455.94 249.649 458.801C252.14 465.537 253.616 472.549 254.17 479.746C254.17 480.023 254.078 480.3 253.893 480.577C253.063 479.562 252.14 478.547 251.125 477.716C250.11 468.397 247.342 459.354 243.097 451.05C230.548 453.818 218.368 458.247 207.111 464.245C207.388 465.721 208.126 467.29 208.588 468.489C209.326 470.519 210.156 472.549 211.079 474.487C211.448 475.317 211.909 476.24 212.278 477.071C212.002 477.347 211.725 477.624 211.54 477.901C212.002 478.362 212.371 478.916 212.832 479.377C216.431 483.899 219.568 490.173 221.598 497.186C232.578 497.463 243.559 497.832 254.539 498.385C256.292 498.478 256.292 501.246 254.539 501.153C243.836 500.6 233.04 500.231 222.336 499.954C226.488 516.194 223.905 530.219 216.338 532.249C215.693 532.434 215.139 532.526 214.493 532.526C207.203 532.526 198.714 521.638 194.562 506.321C190.041 489.712 192.532 475.041 200.283 472.918C202.774 472.272 205.45 472.918 208.126 474.856C206.742 471.811 205.45 468.674 204.528 465.444C202.59 466.551 200.56 467.659 198.714 468.858C198.345 469.135 197.699 469.135 197.33 468.858C186.258 460.369 175.646 451.05 166.973 440.069C151.84 420.877 142.521 395.04 150.179 370.773C155.9 352.687 172.694 337.555 191.794 336.355C189.118 328.974 187.55 321.13 187.365 313.195C186.904 292.618 195.762 272.872 208.311 256.909C209.603 255.248 210.987 253.587 212.371 252.019C198.622 235.594 184.781 219.17 171.033 202.745C170.571 202.192 170.387 201.269 171.033 200.807C172.694 199.331 174.447 197.947 176.2 196.563C189.949 185.306 204.159 174.695 218.922 164.729C233.686 154.764 248.911 145.629 264.505 137.14C268.38 135.017 272.348 132.987 276.315 130.957C280.191 129.02 283.974 126.897 287.942 125.329C291.448 123.852 295.6 122.93 299.107 124.775C300.86 125.698 302.059 127.266 303.074 128.835C304.366 130.773 305.473 132.803 306.673 134.833C316.731 151.719 326.881 168.605 336.938 185.49C342.751 195.179 348.472 204.867 354.285 214.464C363.051 218.339 371.171 223.599 378.276 230.058C387.319 238.27 395.254 249.066 399.776 260.877C410.479 251.557 422.751 243.345 436.685 240.3C450.71 237.255 467.042 240.208 477.1 251.096C488.818 264.291 487.619 283.483 481.898 298.893ZM210.525 481.499C207.573 477.901 204.62 475.871 202.129 475.871C201.759 475.871 201.39 475.963 200.929 476.055C195.577 477.532 192.809 489.896 197.146 506.044C201.483 522.192 210.156 531.511 215.508 530.035C220.86 528.558 223.628 516.286 219.291 500.323C215.139 500.231 210.987 500.139 206.834 500.139C205.081 500.139 205.081 497.37 206.834 497.37C210.71 497.463 214.585 497.463 218.461 497.555C216.523 491.188 213.755 485.559 210.525 481.499ZM370.156 493.126C374.124 494.787 377.999 496.632 381.783 498.755C383.351 499.585 381.967 501.984 380.398 501.153C376.984 499.308 373.57 497.555 369.972 496.079C369.879 501.615 370.525 506.874 371.909 511.119C373.57 516.286 376.062 519.331 378.922 519.608C381.69 519.885 384.827 517.393 387.503 512.688C390.364 507.613 392.394 500.6 393.224 492.941C394.977 476.332 390.179 464.521 384.643 463.968C384.458 463.968 384.366 463.968 384.182 463.968C378.738 463.968 372.002 474.395 370.341 490.635C370.341 491.465 370.248 492.295 370.156 493.126ZM336.015 211.88C334.355 219.17 332.971 226.552 331.956 233.933C328.357 260.046 328.818 286.713 333.34 312.641C333.432 313.01 333.34 313.287 333.155 313.564C335.001 314.118 336.754 314.671 338.599 315.225C337.492 308.397 336.569 301.569 335.923 294.648C333.616 267.982 335.554 240.946 341.552 214.833C341.921 213.08 344.597 213.818 344.228 215.571C342.567 222.861 341.183 230.242 340.168 237.624C336.661 262.63 337.031 288.189 340.998 313.103C342.567 311.626 344.043 310.15 345.52 308.581C347.365 306.551 349.395 304.337 350.225 301.569C350.318 301.292 350.41 300.923 350.41 300.646C349.856 301.107 349.21 301.476 348.38 301.661C346.258 302.307 343.582 301.753 342.29 299.816C340.906 297.693 341.736 295.11 343.582 293.633C345.612 292.065 348.195 291.972 350.225 293.541C350.502 293.726 350.779 294.002 351.056 294.279C351.517 292.618 351.702 290.957 351.794 289.389C352.255 283.207 350.687 277.024 347.55 271.765C346.627 270.196 349.026 268.812 349.949 270.381C351.517 272.964 352.717 275.733 353.455 278.593C355.024 284.222 355.3 290.865 353.27 296.309C353.178 296.678 352.994 297.047 352.809 297.416C353.086 298.247 353.178 299.17 353.178 300.092C352.994 303.23 351.333 305.998 349.395 308.305C346.996 311.257 344.228 313.749 341.46 316.425C341.552 317.44 340.629 318.086 339.799 318.086C339.337 318.547 338.876 319.1 338.415 319.562C335.093 323.253 332.325 327.682 332.601 332.849C332.878 337.924 336.2 342.63 340.352 345.398C345.058 348.535 350.779 349.366 356.223 348.166C368.588 345.582 377.077 335.525 383.628 325.467C387.134 320.115 390.456 314.671 393.501 309.043C396.546 303.322 399.13 297.416 400.237 290.957C402.452 278.408 398.945 265.306 393.04 254.141C387.965 244.637 380.86 236.332 372.555 229.504C362.036 220.831 349.395 214.741 336.015 211.88ZM348.011 295.386C346.442 294.741 343.397 296.586 344.781 298.431C346.165 300.277 348.934 298.8 349.856 297.416C349.856 297.324 349.949 297.324 349.949 297.232C349.58 296.401 348.934 295.756 348.011 295.386ZM213.939 250.358C224.089 239.1 236.085 229.596 248.449 220.738C247.25 217.97 246.973 214.833 247.988 211.972C249.095 208.835 251.679 206.436 254.631 205.144C246.235 198.039 237.561 180.415 245.035 171.28C254.816 159.285 267.088 164.545 269.949 148.028C278.161 152.365 278.714 163.991 275.854 168.143C274.931 169.527 273.824 170.634 272.809 171.557C275.393 171.742 277.976 172.295 280.468 173.126C284.251 174.51 287.849 176.54 291.54 178.293C295.323 180.139 299.014 181.984 302.797 183.829C309.81 187.336 316.823 190.842 323.928 194.256C324.666 194.625 324.851 195.917 324.205 196.471C318.668 201.177 313.132 205.882 307.503 210.496C307.873 211.603 308.334 212.618 308.703 213.726C313.501 226.182 318.299 238.639 323.005 251.096C323.282 251.926 322.821 252.48 322.175 252.664C321.067 257.555 318.668 261.984 315.439 265.767C308.887 273.518 298.922 277.947 288.864 277.393C278.714 276.84 268.841 271.765 262.936 263.46C262.751 263.184 262.659 262.907 262.659 262.722C262.567 262.538 262.567 262.353 262.567 262.076C262.751 250.358 262.567 238.731 262.105 227.013C261.09 227.29 259.983 227.474 258.876 227.474C257.123 227.474 255.277 227.105 253.709 226.275C252.232 225.536 250.941 224.429 249.926 223.045C246.05 225.813 242.267 228.581 238.484 231.534C238.668 231.626 238.853 231.719 239.037 231.903C244.205 237.532 248.911 243.622 253.155 249.989C260.629 261.246 266.627 273.518 271.056 286.252C275.3 298.616 277.884 311.534 278.899 324.545C282.036 323.345 285.081 322.145 288.126 320.761C296.338 317.163 304.643 313.287 313.501 311.811C317.746 311.073 321.99 310.98 326.235 311.719C327.711 311.995 329.095 312.272 330.479 312.641C329.187 305.352 328.265 298.062 327.619 290.773C325.312 264.198 327.25 237.255 333.155 211.142C326.511 209.942 319.683 209.573 312.855 210.035C311.102 210.127 311.102 207.359 312.855 207.267C315.439 207.082 318.115 206.99 320.698 207.082C330.571 207.359 340.352 209.389 349.58 212.895C343.397 202.561 337.215 192.226 331.033 181.892C321.16 165.375 311.287 148.858 301.506 132.434C300.491 130.773 299.568 128.835 297.907 127.636C296.431 126.621 294.493 126.436 292.74 126.713C288.68 127.359 284.989 129.573 281.39 131.419C273.639 135.294 265.981 139.354 258.415 143.599C243.282 152.088 228.518 161.315 214.216 171.188C200.191 180.877 186.627 191.211 173.616 202.192C177.676 206.99 181.644 211.788 185.704 216.586C195.208 227.936 204.62 239.1 213.939 250.358ZM267.18 328.697C270.225 327.774 273.27 326.759 276.223 325.744C275.669 318.455 274.654 311.165 273.086 303.968C270.225 290.957 265.704 278.408 259.614 266.598C253.524 254.879 246.05 243.899 237.1 234.118C236.823 233.841 236.731 233.472 236.731 233.195C235.623 234.118 234.424 235.041 233.317 235.963C237.561 241.869 241.806 247.774 245.866 253.772C260.445 275.548 272.44 301.753 267.18 328.697ZM262.567 206.159C262.382 206.897 261.644 207.359 260.906 207.267C256.754 206.436 252.048 209.02 250.664 212.987C249.28 216.955 251.217 222.03 255.001 223.968C258.784 225.906 264.043 224.614 266.442 221.2C266.904 220.554 267.734 220.461 268.38 220.83C269.026 221.292 269.118 222.122 268.749 222.768C267.734 224.245 266.442 225.352 264.874 226.182C265.427 238.178 265.52 250.265 265.427 262.261C268.472 266.598 272.717 269.827 277.515 272.042C286.096 275.917 296.154 275.917 304.458 271.396C312.394 267.151 318.299 259.493 319.96 250.542C319.037 248.051 318.022 245.56 317.1 243.068C312.947 232.18 308.795 221.384 304.551 210.496C304.366 210.035 304.551 209.389 304.92 209.112C310.179 204.683 315.531 200.254 320.791 195.825C317.561 194.256 314.424 192.687 311.287 191.119C304.274 187.613 297.353 184.106 290.341 180.692C288.772 179.954 287.203 179.124 285.543 178.293C285.819 178.57 286.096 178.847 286.373 179.123C286.834 179.769 286.927 180.508 286.373 181.061C285.912 181.615 284.897 181.615 284.435 181.061C284.159 180.692 283.882 180.415 283.513 180.139C283.42 180.046 283.42 180.046 283.328 179.954C283.144 179.862 282.959 179.677 282.774 179.585C282.682 179.585 282.59 179.493 282.498 179.493H282.405C282.221 179.4 282.036 179.4 281.852 179.308C281.759 179.308 281.759 179.308 281.667 179.308C281.575 179.308 281.575 179.308 281.575 179.308C281.483 179.308 281.39 179.308 281.298 179.308C281.298 179.308 281.298 179.308 281.206 179.308C281.114 179.308 281.114 179.308 281.206 179.308C281.021 179.308 280.744 179.4 280.652 179.4C280.56 179.4 280.468 179.493 280.468 179.493C280.375 179.493 280.283 179.585 280.283 179.677L280.191 179.769L280.099 179.862C280.099 179.862 280.099 179.862 280.099 179.954C280.099 180.046 280.006 180.139 280.006 180.139C280.006 180.231 279.914 180.323 279.914 180.415C279.914 180.508 279.914 180.692 279.914 180.508C279.914 180.323 279.914 180.6 279.914 180.784C279.914 180.877 279.914 180.877 279.914 180.969C279.914 181.061 280.099 181.338 279.914 180.969C280.191 181.707 280.099 182.445 279.453 182.907C278.899 183.276 277.884 183.091 277.515 182.445C276.961 181.246 276.961 179.954 277.607 178.847C278.161 177.739 279.268 177.001 280.375 176.725C280.929 176.632 281.483 176.54 281.944 176.632C277.884 174.879 273.547 173.772 269.026 174.51C268.841 174.51 268.749 174.51 268.565 174.51C264.689 176.632 261.552 178.478 262.29 185.859C262.844 191.303 266.811 197.024 262.382 204.037L261.46 204.498C261.552 204.498 261.736 204.498 261.829 204.591C262.198 204.683 262.659 205.329 262.567 206.159ZM199.268 346.782C201.667 350.934 204.528 354.81 207.757 358.408C210.987 361.915 214.678 365.421 219.383 366.621C224.551 368.005 229.995 366.344 234.793 364.314C237.284 363.299 239.683 362.099 242.082 360.9C244.297 359.792 246.511 358.593 248.357 356.932C251.033 354.625 253.247 351.58 252.509 347.889C251.863 344.844 250.11 342.076 249.003 339.216C247.711 335.709 247.434 332.111 248.818 328.512C249.741 326.206 251.033 324.083 251.494 321.684C251.863 319.193 251.31 316.701 250.479 314.302C248.726 309.504 245.589 305.444 243.928 300.646C242.451 296.309 241.99 291.419 244.666 287.451C245.681 285.975 248.08 287.359 247.065 288.835C245.773 290.773 245.312 292.988 245.496 295.294C246.327 305.444 257.4 313.564 253.709 324.36C252.878 326.667 251.586 328.789 250.941 331.188C250.848 331.649 250.756 332.111 250.756 332.572C254.355 331.926 257.953 331.188 261.552 330.265C262.659 329.989 263.766 329.712 264.874 329.435C264.597 329.158 264.505 328.697 264.597 328.235C266.073 321.038 266.165 313.656 265.243 306.459C262.013 280.438 246.419 258.385 231.379 237.716C222.152 245.559 213.663 254.233 206.65 264.198C195.393 280.346 188.288 299.816 190.41 319.654C191.333 329.066 194.47 338.478 199.268 346.782ZM258.415 368.005C258.599 368.281 258.507 367.728 258.23 368.097L258.138 368.189C257.953 368.558 258.138 369.02 258.415 369.389C261.275 369.481 264.135 369.573 266.996 369.666C266.627 369.389 266.35 368.927 266.258 368.466C265.52 362.007 259.983 356.286 253.616 355.363C250.848 359.516 246.327 362.007 241.898 364.129C237.007 366.528 231.932 369.02 226.488 369.758C224.735 370.035 222.982 370.035 221.229 369.758C224.458 373.449 228.149 376.771 232.302 379.447C234.332 380.738 236.546 382.307 238.945 382.768C240.052 383.045 241.067 382.953 241.806 382.122C242.544 381.384 243.097 380.462 244.02 379.908C246.419 378.524 248.726 380.369 250.756 381.569C252.601 382.676 254.908 383.045 257.031 382.307C258.968 381.661 260.352 379.908 260.537 377.878C260.629 376.863 260.537 375.756 259.983 374.833C259.43 373.818 258.415 373.172 257.584 372.526C255.923 371.142 254.355 368.466 256.015 366.436C257.215 364.96 259.799 364.867 260.814 366.621C261.736 368.097 259.337 369.481 258.415 368.005ZM275.762 402.976C281.206 402.33 286.65 402.422 292.094 402.791C292.924 401.038 294.216 399.562 295.785 398.639C294.032 398.639 294.124 395.963 295.877 395.871C297.261 395.779 298.738 395.871 300.122 396.148C300.029 393.749 299.845 391.257 299.753 388.858C296.708 389.227 293.57 388.581 291.079 386.828C286.742 383.876 284.528 378.247 285.543 373.172C277.515 372.895 269.487 372.618 261.46 372.434C261.644 372.618 261.736 372.711 261.921 372.895C263.305 374.741 263.674 377.14 263.12 379.354C262.013 383.876 257.492 386.182 253.063 385.536C251.863 385.352 250.756 384.983 249.741 384.429C248.726 383.876 247.803 382.953 246.696 382.584C245.496 382.122 244.943 382.953 244.205 383.783C243.466 384.614 242.636 385.26 241.529 385.629C239.314 386.275 236.915 385.352 234.885 384.337C232.578 383.137 230.456 381.753 228.334 380.277C224.182 377.232 220.491 373.633 217.261 369.573C217.077 369.389 216.984 369.204 216.984 369.02C215.139 368.374 213.478 367.451 211.817 366.252C207.757 363.299 204.435 359.423 201.483 355.456C198.53 351.488 195.946 347.151 193.824 342.63C193.363 341.707 192.994 340.692 192.532 339.677C183.213 340.138 174.17 344.014 167.065 350.196C158.761 357.301 153.317 366.99 151.102 377.693C148.703 389.32 150.179 401.5 154.055 412.665C161.806 435.087 179.43 452.434 197.884 466.644C212.002 457.97 227.688 451.88 243.928 448.558C243.559 445.329 242.913 442.099 242.359 438.87C242.082 437.947 241.898 437.117 241.621 436.194L228.611 406.298C226.304 402.053 223.905 397.809 221.598 393.564C220.768 391.996 223.074 390.612 223.997 392.18C226.027 395.871 228.149 399.562 230.087 403.253C234.424 411.28 238.484 419.4 241.713 427.982C242.267 423.922 243.928 420.231 246.788 416.909C254.17 408.328 265.058 404.175 275.762 402.976ZM301.413 424.844C301.137 423.184 300.86 421.523 300.675 419.862C299.383 419.677 298.092 419.123 296.892 418.293C292.832 415.433 290.71 410.265 291.356 405.375C287.019 405.098 282.774 405.006 278.438 405.375C270.779 406.021 262.844 408.051 256.292 412.295C266.996 419.585 279.637 424.014 292.463 424.844C295.416 425.029 298.461 425.029 301.413 424.844ZM282.405 485.929C282.405 484.821 282.405 483.714 282.405 482.607C282.405 480.854 282.405 479.193 282.498 477.532C274.747 477.624 266.996 478.824 259.43 480.946C259.245 481.038 258.968 481.038 258.784 480.946C258.691 483.714 258.599 486.482 258.415 489.25C266.35 487.497 274.378 486.482 282.405 485.929ZM304.735 428.351C304.92 429.55 305.104 430.842 305.289 432.042C305.381 432.78 305.104 433.518 304.366 433.703C303.72 433.887 302.798 433.518 302.705 432.78C302.428 431.119 302.152 429.366 301.875 427.705C294.401 428.259 286.558 446.713 285.358 474.671C290.987 474.764 296.708 475.41 302.244 476.517C303.997 476.886 303.259 479.562 301.506 479.193C296.154 478.085 290.71 477.532 285.266 477.44C285.174 479.1 285.174 480.854 285.174 482.515C285.174 483.622 285.174 484.637 285.174 485.652C288.495 485.467 291.817 485.375 295.139 485.375C296.892 485.375 296.892 488.143 295.139 488.143C291.817 488.143 288.495 488.235 285.174 488.42C286.189 517.947 294.401 537.324 302.152 537.324C310.456 537.324 319.222 515.271 319.222 482.422C319.314 453.08 312.209 432.226 304.735 428.351ZM306.95 402.515C305.842 401.315 304.458 400.392 302.982 399.746C302.982 399.839 302.89 400.023 302.797 400.115C302.521 400.485 302.152 400.669 301.598 400.577C301.413 400.577 301.137 400.485 300.952 400.392C299.107 399.931 297.169 400.577 295.785 401.869C294.216 403.437 293.755 405.836 293.939 408.051C294.216 411.65 296.523 415.617 300.029 416.909C300.398 417.001 300.768 417.094 301.137 417.186C301.229 417.094 301.321 417.094 301.413 417.001C301.783 416.909 302.244 417.001 302.613 417.186C305.289 417.001 307.78 415.156 308.98 412.665C310.641 409.435 309.441 405.098 306.95 402.515ZM353.455 380.738C352.348 381.2 351.148 381.569 349.949 381.569C346.627 381.661 343.582 379.908 341.275 377.601C339.799 380.185 336.754 381.938 333.709 381.476C331.679 381.2 329.833 379.908 328.634 378.247C327.25 379.908 325.127 381.015 322.913 381.015C319.13 380.923 316.085 377.97 314.701 374.556C314.424 373.818 314.239 373.172 314.055 372.434C312.025 372.711 309.902 372.987 307.872 373.449C307.965 375.479 307.965 377.417 308.057 379.447C308.057 380.554 308.149 381.661 308.149 382.768C308.149 383.875 308.149 384.521 307.319 385.352C305.935 386.644 304.182 387.566 302.336 388.212C302.521 391.073 302.613 393.933 302.797 396.794C306.027 397.901 308.887 399.931 310.641 402.976C311.01 403.53 311.287 404.083 311.471 404.729C313.04 404.914 314.608 405.006 316.177 405.19C325.035 405.836 334.17 405.467 342.29 402.053C345.52 395.871 348.749 389.689 352.071 383.414C352.532 382.584 352.994 381.661 353.455 380.738ZM360.468 367.913C359.914 366.067 358.161 364.591 356.223 364.498C355.116 364.406 354.193 362.93 355.208 362.099C358.714 359.331 362.59 356.378 364.251 352.134C364.712 350.75 364.989 349.458 364.989 348.074C363.513 348.812 362.036 349.458 360.468 349.919C355.208 351.673 349.21 352.042 343.951 350.104C339.153 348.351 334.908 344.937 332.417 340.508C329.833 335.986 329.372 330.634 331.31 325.836C332.509 322.699 334.539 320.023 336.754 317.532C332.14 316.24 327.619 314.487 322.913 314.21C313.962 313.656 305.197 316.701 297.077 320.115C288.772 323.53 280.652 327.313 272.163 330.081C265.243 332.295 258.138 334.049 250.941 335.34C251.033 335.709 251.033 335.986 251.125 336.355C251.956 339.585 253.801 342.445 254.908 345.675C255.739 348.074 255.831 350.565 255.093 352.872C262.567 354.533 268.38 360.9 269.303 368.466C269.395 369.02 268.934 369.481 268.472 369.666C274.839 369.85 281.206 370.035 287.48 370.311C288.311 370.311 289.141 371.142 288.772 372.065C287.203 376.494 288.772 381.938 292.832 384.522C294.862 385.813 297.353 386.275 299.753 385.998C299.66 384.429 301.69 384.245 302.336 385.352C303.536 384.891 304.643 384.245 305.658 383.322C305.566 379.631 305.473 375.94 305.289 372.249C305.289 371.696 305.75 371.05 306.304 370.958C308.887 370.496 311.471 370.035 314.055 369.758C314.055 366.805 314.793 363.76 315.716 360.992C318.392 352.411 322.913 344.475 328.726 337.555C329.833 336.171 331.863 338.201 330.664 339.493C327.988 342.722 325.589 346.136 323.559 349.827C321.806 353.057 320.237 356.378 319.037 359.793C317.746 363.391 316.454 367.359 316.915 371.234C317.284 374.187 319.13 377.416 322.175 378.155C324.297 378.708 326.973 377.232 327.434 375.017C327.342 374.464 327.342 373.91 327.342 373.264C327.526 371.788 329.741 371.234 330.018 372.895C330.11 373.541 330.202 374.095 330.11 374.741C330.479 376.678 331.956 378.524 334.078 378.801C336.661 379.17 339.06 377.14 339.522 374.648C339.706 373.726 341.183 373.264 341.829 374.002C343.674 376.309 346.258 378.616 349.395 378.801C351.979 378.985 354.747 377.416 355.3 374.741C355.393 374.095 356.039 373.818 356.592 373.726C356.777 373.726 357.054 373.633 357.238 373.541C358.161 371.696 359.176 369.666 360.468 367.913ZM483.005 283.483C484.02 275.271 483.097 266.598 479.037 259.216C475.439 252.664 469.533 247.866 462.705 245.19C447.757 239.285 431.61 243.16 418.138 251.096C411.956 254.787 406.05 259.124 400.514 263.922C403.651 273.149 404.758 282.838 402.913 292.526C401.713 298.708 399.222 304.522 396.269 310.058C393.317 315.686 389.903 321.13 386.396 326.482C381.413 334.233 375.416 341.799 367.573 346.598C367.942 349.089 367.48 351.673 366.373 354.072C364.804 357.486 362.036 360.162 359.084 362.468C360.56 363.206 361.759 364.314 362.498 365.698C363.697 364.775 365.174 364.129 366.742 363.945C369.51 363.576 372.278 364.314 374.954 364.867C386.488 367.451 397.561 371.511 407.988 377.047C408.08 377.047 408.08 377.14 408.172 377.14C415.093 377.97 422.013 377.693 428.749 375.202C436.869 372.157 442.221 365.606 446.742 358.501C451.817 350.565 456.523 342.445 461.137 334.233C465.75 326.021 470.272 317.809 474.332 309.32C478.391 301.292 481.898 292.618 483.005 283.483ZM254.17 212.618C253.524 212.987 253.34 213.91 253.709 214.556C254.078 215.202 254.908 215.387 255.646 215.018C258.415 213.633 261.921 213.633 264.689 214.925C265.335 215.202 266.165 215.11 266.627 214.464C266.996 213.818 266.811 212.895 266.165 212.526C262.29 210.773 257.953 210.773 254.17 212.618ZM267.55 193.426C274.47 190.75 281.206 187.797 287.942 184.568C289.51 183.829 290.987 186.228 289.326 186.967C288.403 187.428 287.573 187.797 286.65 188.166C286.742 188.258 286.927 188.351 287.019 188.443C287.296 188.72 287.388 188.997 287.573 189.273C287.757 189.735 287.757 190.196 287.665 190.658C287.573 191.119 287.296 191.58 286.927 191.857C286.558 192.226 286.096 192.503 285.635 192.595C285.174 192.688 284.62 192.78 284.159 192.595C283.605 192.411 283.144 192.042 282.774 191.488C282.498 191.027 282.405 190.473 282.498 189.919C280.006 191.027 277.607 192.134 275.116 193.149C275.208 193.241 275.3 193.426 275.393 193.518C275.485 193.703 275.577 193.979 275.67 194.164C275.762 194.348 275.762 194.625 275.762 194.902C275.762 195.363 275.669 195.825 275.393 196.286C275.3 196.378 275.3 196.471 275.208 196.563C275.116 196.655 275.116 196.747 275.024 196.84C274.839 197.024 274.654 197.117 274.47 197.209C274.285 197.301 274.193 197.393 274.009 197.393C273.824 197.393 273.639 197.486 273.455 197.486C273.363 197.486 273.178 197.486 273.086 197.486C272.809 197.486 272.624 197.393 272.348 197.301C272.163 197.209 271.886 197.117 271.702 197.024C271.609 196.932 271.425 196.84 271.333 196.748C271.24 196.655 271.148 196.471 271.056 196.378C270.871 196.194 270.871 195.917 270.779 195.732V195.64C270.779 195.64 270.779 195.64 270.779 195.548C270.779 195.363 270.687 195.179 270.687 194.994C269.949 195.271 269.118 195.64 268.38 195.917C266.627 196.747 265.889 194.072 267.55 193.426ZM273.363 194.994C273.363 194.994 273.363 195.087 273.455 195.087C273.363 194.994 273.363 194.994 273.363 194.994ZM266.165 189.827C268.288 188.997 270.41 188.258 272.532 187.428C273.178 187.151 273.732 186.505 273.455 185.767C273.27 185.121 272.44 184.567 271.794 184.844C269.672 185.675 267.55 186.413 265.427 187.243C264.781 187.52 264.228 188.166 264.505 188.904C264.597 189.55 265.427 190.104 266.165 189.827ZM280.929 179.4C280.929 179.308 280.929 179.308 280.929 179.4V179.4ZM284.989 227.474C284.712 227.474 284.435 227.474 284.159 227.474C284.159 227.474 283.974 227.474 283.882 227.474C283.789 227.474 283.697 227.474 283.605 227.382C283.051 227.29 282.498 227.105 282.036 226.921C281.298 226.644 280.099 225.998 279.545 225.536C279.084 225.167 278.714 224.798 278.345 224.429C278.161 224.245 277.976 224.06 277.792 223.783C277.607 223.599 277.792 223.783 277.699 223.599C277.607 223.506 277.515 223.322 277.423 223.23C276.777 222.215 276.408 221.476 276.131 220.369C275.946 219.631 275.116 219.17 274.47 219.446C273.732 219.631 273.363 220.461 273.547 221.107C274.839 226.275 279.822 230.15 285.081 230.15C286.742 230.242 286.742 227.474 284.989 227.474Z" fill="black"/>
<path d="M336.477 424.475C335.277 414.417 340.168 403.806 348.564 398.177C356.961 392.549 368.68 391.995 377.538 396.885C386.396 401.776 392.209 411.926 391.932 422.076" fill="#9ED5F0"/>
<path d="M206.465 499.862C203.328 491.096 207.48 480.392 214.401 475.409C221.229 470.427 229.995 470.058 237.93 471.903C243.928 473.195 249.925 475.871 253.985 481.13C258.045 486.482 259.43 494.971 255.923 500.784L255.462 500.231C239.776 498.57 223.997 497.924 208.311 498.385" fill="#9ED5F0"/>
</svg>
