<svg width="600" height="600" viewBox="0 0 600 600" fill="none" xmlns="http://www.w3.org/2000/svg">
<path d="M119.886 352.847C123.75 340.239 127.715 327.632 131.579 315.024C134.12 306.687 136.764 298.045 136.154 289.301C134.324 264.798 107.685 246.293 109.21 221.79C110.227 205.624 124.055 192.508 139.407 187.424C154.76 182.442 171.536 183.866 187.499 186.102C203.563 188.339 219.831 191.288 235.794 189.051C237.827 188.746 239.861 188.339 241.487 187.119C243.724 185.391 244.538 182.544 245.351 179.9C253.993 152.754 275.65 130.08 302.39 120.218C310.727 117.168 319.674 115.236 328.622 115.948C352.312 117.879 371.121 138.519 378.035 161.192C380.272 168.309 381.492 175.732 384.338 182.646C392.472 202.37 411.587 214.978 428.566 227.89C445.546 240.904 461.407 255.444 475.743 271.406C480.217 276.388 484.792 281.777 486.52 288.284C490.587 303.128 479.505 317.769 467.507 327.428C447.986 343.289 424.499 353.762 400.403 361.184C338.891 380.299 271.888 380.909 210.07 362.912C202.445 360.676 194.718 358.236 186.889 359.151C178.958 360.066 171.943 364.438 164.419 366.776C156.794 369.115 147.236 368.809 142.458 362.506" fill="#F4F6F9"/>
<path d="M493.942 336.681H477.369C477.369 334.749 477.166 332.817 476.556 330.987C475.742 328.75 474.014 326.615 471.675 326.005C469.337 325.395 466.795 326.513 465.168 328.344V327.53C464.965 328.039 464.761 328.445 464.66 328.953C464.456 329.258 464.253 329.665 464.05 329.97C463.643 330.885 463.44 331.902 463.338 332.919C463.237 333.427 463.033 334.037 462.931 334.545C462.83 333.325 462.626 332.105 462.22 330.885C461.406 328.649 459.678 326.513 457.339 325.903C455.814 325.497 454.289 325.802 452.866 326.513C443.512 314.516 432.735 303.535 420.839 294.08L420.432 295.503C421.55 281.472 425.211 233.482 425.211 233.482C435.378 230.94 456.018 225.45 456.018 225.45C444.02 210.606 430.904 193.423 417.382 176.545C412.908 170.953 406.909 165.971 399.996 164.141L383.321 162.718L368.274 199.523C362.987 197.388 356.378 198.405 352.311 202.472C347.43 207.352 346.821 215.994 350.989 221.485C353.633 224.942 358.005 226.975 362.275 227.077L362.173 227.484C354.853 244.87 348.142 259.206 340.72 274.253L339.398 274.152C301.067 278.015 264.363 295.605 237.42 323.057C233.251 327.327 229.286 331.8 225.524 336.579H105.041C80.7413 336.579 61.0166 356.304 61.0166 380.604V385.992C61.0166 410.292 80.7413 430.017 105.041 430.017H190.04C189.329 444.556 191.565 460.011 201.733 470.178C209.46 477.905 220.644 481.362 231.523 481.87C242.402 482.379 253.281 480.345 264.058 478.413C297.306 472.618 330.858 468.754 364.512 466.823C377.526 466.111 390.743 465.603 403.249 461.841C415.145 458.18 426.431 451.063 432.531 440.184C432.836 440.286 433.141 440.286 433.446 440.388C443.105 442.218 453.069 442.726 462.931 443.133C464.457 443.234 465.778 443.133 466.998 442.929C477.877 444.353 488.756 445.675 499.534 447.098C501.364 447.301 503.194 447.505 504.923 446.996C506.651 446.386 508.074 444.658 507.769 442.929C507.464 441.099 505.532 440.083 503.804 439.371C498.009 437.032 491.908 435.507 485.706 434.796C488.248 433.27 490.587 431.644 493.027 429.915H493.942C518.242 429.915 537.966 410.19 537.966 385.891V380.502C537.966 356.405 518.242 336.681 493.942 336.681Z" fill="white"/>
<path d="M371.324 215.486C368.375 211.826 363.902 209.691 359.123 209.691C357.191 209.691 357.191 206.641 359.123 206.641C364.614 206.539 370.002 209.081 373.459 213.351C373.967 213.961 374.069 214.876 373.459 215.486C372.951 216.096 371.832 216.198 371.324 215.486ZM398.979 197.185C399.284 197.897 400.402 198.1 401.114 197.693C401.826 197.185 402.029 196.372 401.622 195.558C400.606 193.321 399.691 191.186 398.674 188.949C398.369 188.238 397.251 188.034 396.539 188.441C395.827 188.949 395.624 189.763 396.03 190.576C397.047 192.813 398.064 194.948 398.979 197.185ZM403.656 186.611C402.944 187.018 402.639 187.933 403.148 188.746C403.554 189.356 403.859 189.966 404.164 190.678C404.266 190.881 404.368 190.983 404.368 191.186L404.469 191.39C404.571 191.695 404.775 192 404.876 192.305C405.385 193.626 405.689 195.05 405.994 196.473C406.096 197.287 407.113 197.795 407.825 197.49C408.638 197.185 409.045 196.473 408.841 195.66C408.333 192.711 407.316 189.763 405.689 187.119C405.384 186.407 404.368 186.102 403.656 186.611ZM387.49 185.594C388.202 186.001 389.117 185.797 389.625 185.086C389.829 184.679 390.133 184.272 390.438 183.967C391.048 183.256 391.76 182.544 392.472 181.934C392.777 181.731 393.082 181.527 393.387 181.324C394.099 180.917 394.404 179.901 393.895 179.189C393.489 178.477 392.574 178.172 391.76 178.681C389.828 179.901 388.1 181.527 386.982 183.561C386.575 184.171 386.778 185.187 387.49 185.594ZM399.182 177.155C398.877 175.935 399.894 174.918 401.114 174.918C401.724 174.918 402.334 175.02 402.944 175.122C404.368 175.325 405.689 175.529 407.011 175.834C407.825 176.037 408.231 176.952 408.028 177.664C407.825 178.477 406.909 178.884 406.198 178.681C405.181 178.477 404.266 178.274 403.249 178.172H403.148C403.046 178.172 402.944 178.172 402.843 178.172C402.639 178.172 402.334 178.172 402.131 178.07C401.927 178.07 401.724 178.07 401.419 177.969C401.317 178.07 401.114 178.172 401.013 178.172C400.301 178.375 399.284 177.867 399.182 177.155ZM402.131 177.054C402.029 177.054 402.029 177.054 402.131 177.054C402.029 177.054 402.029 177.054 402.131 177.054ZM395.827 255.647C397.759 255.749 397.759 252.699 395.827 252.597C390.54 252.394 385.558 249.242 383.118 244.565C382.203 242.836 379.56 244.361 380.475 246.09C383.423 251.783 389.422 255.444 395.827 255.647ZM540 381.214V386.603C540 411.716 519.564 432.152 494.45 432.152H494.044C492.925 432.965 491.705 433.779 490.587 434.592C492.518 434.897 494.552 435.304 496.484 435.812C499.331 436.524 502.177 437.439 504.821 438.557C506.854 439.371 509.091 440.591 509.803 442.828C510.515 445.268 508.99 447.708 506.854 448.725C504.211 450.047 501.059 449.437 498.212 449.03C487.943 447.708 477.674 446.386 467.405 445.065C464.152 445.471 460.695 445.166 457.34 444.963C451.137 444.658 444.935 444.15 438.733 443.235C437.106 443.031 435.48 442.726 433.955 442.421C432.531 444.76 430.904 446.895 429.176 448.928C417.585 461.637 400.301 466.009 383.83 467.636C374.171 468.551 364.41 468.856 354.649 469.568C344.685 470.28 334.62 471.093 324.656 472.11C304.728 474.143 285.003 476.888 265.279 480.345C247.587 483.395 228.473 487.157 211.493 478.922C204.478 475.566 198.683 470.076 194.921 463.162C191.26 456.35 189.634 448.725 189.125 441.099C188.922 438.049 188.922 434.999 188.922 431.949H105.55C80.4364 431.949 60 411.512 60 386.399V381.01C60 355.897 80.4364 335.461 105.55 335.461H225.321C232.54 326.412 240.572 318.176 249.519 310.754C262.33 300.282 276.564 291.639 291.815 285.234C307.168 278.829 323.334 274.66 339.907 273.033C340.008 273.033 340.212 273.033 340.314 273.033C347.431 258.494 354.243 243.751 360.648 228.805C356.581 228.195 352.718 226.162 350.277 222.807C345.6 216.706 346.211 207.251 351.701 201.76C354.955 198.507 359.632 196.982 364.207 197.287C357.7 183.357 357.09 155.296 372.239 148.178C391.964 138.825 404.266 152.855 417.89 133.639C425.719 144.112 419.314 159.159 413.213 162.819C410.977 164.141 408.74 164.955 406.706 165.361C409.858 166.988 412.705 169.225 415.145 171.665C419.11 175.528 422.364 180.206 425.821 184.476C429.481 189.153 433.141 193.728 436.802 198.405C443.715 207.251 450.629 216.096 457.645 224.84C458.356 225.653 458.153 227.077 456.933 227.382C446.969 230.025 437.107 232.567 427.143 235.109C427.041 236.736 426.939 238.363 426.736 239.989C426.024 249.648 425.211 259.307 424.499 268.966C423.889 277.202 423.279 285.437 422.567 293.673C434.158 302.925 444.63 313.499 453.781 325.192C453.984 325.09 454.086 325.09 454.289 324.988C456.831 324.175 459.475 324.988 461.406 326.717C462.22 327.428 462.83 328.344 463.338 329.259C463.44 329.055 463.542 328.954 463.643 328.75C463.745 328.344 463.948 327.937 464.05 327.53C464.355 326.818 464.965 326.513 465.575 326.513C466.389 325.802 467.405 325.293 468.422 324.988C470.964 324.175 473.607 324.988 475.539 326.717C477.573 328.547 478.488 331.19 478.894 333.936C478.996 334.444 478.996 334.952 478.996 335.562H494.145C519.564 335.664 540 356.1 540 381.214ZM466.49 330.275C466.083 331.292 465.778 332.41 465.473 333.529C465.372 335.359 465.778 337.189 466.49 338.816C467.1 340.036 465.982 341.154 464.965 341.154C464.965 341.256 464.965 341.358 464.965 341.459C465.067 342.069 465.372 342.68 465.575 343.29C466.389 344.916 467.71 346.34 469.439 346.95C471.066 347.458 472.997 347.357 474.217 346.136C475.539 344.916 475.946 342.985 476.149 341.256C476.352 339.121 476.353 336.782 476.048 334.647C475.641 331.19 472.997 326.615 468.829 328.547C467.812 328.75 467.1 329.462 466.49 330.275ZM454.696 328.344C453.679 328.852 452.866 329.564 452.256 330.377C452.154 330.58 452.052 330.885 451.951 331.089C452.256 332.105 452.561 333.122 452.663 334.139C452.968 336.884 452.968 339.731 452.561 342.476C452.459 343.188 452.256 343.9 452.053 344.611C452.866 345.628 453.883 346.441 455.103 346.848C456.73 347.356 458.661 347.255 459.881 346.035C461.101 344.916 461.508 343.188 461.712 341.561C461.305 339.528 461.407 337.393 461.813 335.257C461.813 334.952 461.813 334.749 461.712 334.444C461.406 330.987 458.763 326.412 454.696 328.344ZM424.194 340.138C424.397 340.849 424.601 341.561 424.906 342.171C425.719 343.798 427.041 345.221 428.769 345.831C430.396 346.34 432.328 346.238 433.548 345.018C434.666 344.001 435.073 342.578 435.276 341.053C434.971 339.019 435.073 336.884 435.48 334.851C435.48 334.342 435.378 333.834 435.378 333.427C434.972 329.97 432.328 325.395 428.159 327.327C427.143 327.835 426.329 328.547 425.719 329.36C425.313 330.377 425.008 331.495 424.703 332.614C424.601 334.444 425.008 336.274 425.719 337.901C426.431 339.019 425.313 340.239 424.194 340.138ZM438.428 341.154C438.632 341.866 438.835 342.578 439.14 343.188C439.953 344.815 441.275 346.238 443.004 346.848C444.63 347.356 446.562 347.255 447.782 346.035C448.189 345.73 448.494 345.221 448.697 344.815C448.697 344.713 448.596 344.713 448.596 344.611C446.867 341.053 447.172 337.189 448.087 333.529C448.087 332.715 448.291 331.8 448.596 330.987C447.376 328.75 445.241 327.022 442.495 328.344C441.479 328.852 440.665 329.564 440.055 330.377C439.648 331.394 439.343 332.512 439.038 333.631C438.937 335.461 439.343 337.291 440.055 338.918C440.665 340.036 439.547 341.256 438.428 341.154ZM341.127 276.388C345.295 280.557 349.871 284.217 354.954 287.166C374.272 298.553 399.081 300.892 419.822 292.148C420.025 289.098 420.33 286.048 420.534 282.896C421.347 272.322 422.16 261.748 422.974 251.072C423.381 245.378 423.889 239.685 424.296 234.092C424.296 233.381 424.702 232.771 425.414 232.669C434.971 230.229 444.427 227.789 453.984 225.247C450.731 221.18 447.477 217.011 444.224 212.944C437.107 203.895 430.091 194.846 422.974 185.899C416.772 178.07 410.671 169.326 400.606 166.378C393.997 166.785 388.507 166.785 384.948 176.952C382.406 184.171 384.033 193.932 374.069 200.032H371.832C372.137 200.235 372.544 200.439 372.849 200.744C373.561 201.252 373.662 202.167 373.154 202.879C372.646 203.59 371.731 203.692 371.019 203.184C366.139 199.422 358.31 199.93 353.938 204.302C349.566 208.674 349.057 216.401 352.718 221.383C356.378 226.365 364.105 227.89 369.494 224.84C370.206 224.433 371.121 224.637 371.527 225.45C371.934 226.162 371.731 227.077 370.917 227.484C368.782 228.704 366.342 229.314 363.902 229.415C357.293 245.073 350.176 260.527 342.652 275.88C342.347 276.388 341.737 276.592 341.127 276.388ZM189.227 429.204C189.43 425.238 189.837 421.375 190.447 417.409C191.565 409.174 193.395 401.04 195.734 393.008C200.411 377.147 207.426 361.896 216.577 347.967C218.712 344.815 220.847 341.663 223.186 338.612H105.753C82.2665 338.612 63.2537 357.727 63.2537 381.112V386.501C63.2537 409.987 82.3681 429 105.753 429H189.227V429.204ZM431.718 440.388C429.379 439.676 427.143 438.253 425.211 436.931C416.67 430.729 411.79 419.951 413.315 409.479C410.773 410.292 407.825 410.496 405.181 410.292C400.606 410.089 396.132 408.869 391.963 407.14C384.236 403.989 377.323 399.108 369.9 395.346C362.377 391.584 354.345 389.958 345.906 390.568C328.926 391.788 313.268 400.633 298.831 409.072C297.611 409.784 296.289 408.666 296.594 407.344C297.407 404.09 296.391 400.43 294.256 397.787C287.85 400.633 280.936 402.057 273.921 402.057C273.006 402.057 272.091 401.04 272.497 400.125C275.039 393.313 282.766 389.043 289.884 391.178C291.815 391.788 293.544 392.804 294.967 394.126C295.984 393.618 296.899 393.11 297.916 392.601C304.219 388.941 309.405 383.857 313.472 377.859C317.03 372.673 320.487 367.284 324.147 362.099C328.113 356.405 332.383 350.915 337.263 345.933C341.534 341.663 346.312 337.698 352.108 335.766H352.209H352.311C352.514 335.766 352.718 335.766 352.819 335.766H421.144C421.246 334.749 421.449 333.631 421.754 332.614C421.856 331.699 421.957 330.784 422.262 329.869C422.466 329.157 422.771 328.547 423.177 327.937C423.279 327.53 423.482 327.123 423.584 326.717C423.889 326.005 424.499 325.7 425.109 325.7C425.922 324.988 426.939 324.48 427.956 324.175C430.498 323.362 433.141 324.175 435.073 325.903C435.988 326.818 436.7 327.835 437.208 328.954C437.31 328.547 437.513 328.14 437.615 327.733C437.92 327.022 438.53 326.717 439.14 326.717C439.953 326.005 440.97 325.497 441.987 325.192C444.529 324.378 447.172 325.192 449.104 326.92C449.307 327.123 449.511 327.327 449.816 327.632C450.019 327.124 450.426 326.818 450.934 326.717C442.292 315.838 432.531 305.975 421.856 297.231C420.941 298.045 419.212 297.74 419.314 296.215C419.314 296.011 419.314 295.808 419.415 295.503C414.027 297.638 408.333 299.062 402.538 299.875C379.051 303.027 354.039 294.791 337.67 277.405C337.467 277.202 337.365 276.897 337.263 276.694C334.213 277.1 331.163 277.507 328.113 278.015C312.252 280.862 296.797 285.946 282.36 293.266C267.922 300.587 254.501 309.941 242.707 321.023C231.015 332.207 220.949 345.12 213.018 359.252C205.088 373.385 199.191 388.636 195.632 404.395C193.802 412.224 192.582 420.256 192.074 428.39C191.565 435.914 191.769 443.54 193.396 450.86C195.022 458.079 198.174 464.993 203.461 470.178C209.155 475.77 216.679 478.922 224.406 480.345C233.353 481.972 242.504 481.26 251.451 479.938C261.11 478.515 270.667 476.583 280.225 475.16C299.441 472.211 318.759 469.873 338.077 468.144C347.736 467.331 357.496 466.619 367.155 466.111C376.408 465.603 385.66 465.196 394.81 463.366C409.553 460.417 424.194 453.503 431.718 440.388ZM288.969 394.126C284.292 392.703 279.004 394.94 276.361 398.905C281.648 398.701 286.935 397.482 291.815 395.448C291.002 394.838 290.087 394.431 288.969 394.126ZM465.473 442.421C470.15 442.218 473.506 439.778 476.861 436.829C483.368 431.135 490.993 425.645 494.654 417.511C496.789 412.631 497.094 407.141 496.687 401.854C496.484 398.905 495.976 395.956 495.365 393.11C495.162 392.194 494.654 387.009 492.925 387.721C492.112 388.026 491.705 389.348 491.502 390.059C491.095 391.381 490.79 392.703 490.485 394.024C489.773 396.871 489.163 399.718 488.553 402.565C487.943 405.514 487.435 408.462 487.028 411.512C486.926 412.326 486.927 413.139 486.418 413.851C486.113 414.359 485.605 414.766 485.198 415.173C484.283 416.189 483.368 417.104 482.351 417.918C478.488 421.273 473.201 423.408 468.32 421.171C466.083 420.155 464.355 418.223 463.033 416.189C461.813 414.359 460.695 412.326 460.288 410.191C459.78 407.751 460.288 405.514 462.017 403.785C463.847 401.955 466.49 400.837 468.727 399.617C471.37 398.193 473.912 396.77 476.556 395.346C478.691 394.126 481.233 392.804 482.351 390.568C483.165 388.941 483.368 386.501 481.64 385.281C479.708 383.959 476.556 384.569 474.421 385.179C471.676 385.891 469.032 387.213 466.389 388.331C463.847 389.449 461.305 390.466 458.763 391.483C453.374 393.516 447.782 395.143 442.394 397.075C437.005 399.006 431.921 401.548 426.939 404.395C423.482 406.327 419.924 408.462 416.365 410.292C415.552 415.884 416.874 421.578 419.72 426.458C421.347 429.305 423.482 431.847 426.024 433.881C428.363 435.812 431.413 437.642 434.463 438.049C435.378 438.151 435.683 439.269 435.48 440.083C439.648 440.794 443.817 441.303 447.986 441.709C451.036 442.014 454.086 442.218 457.136 442.319C459.881 442.319 462.728 442.523 465.473 442.421ZM473.811 443.031C473.912 443.031 474.014 443.031 474.116 443.031C474.014 443.031 474.014 442.929 473.912 442.929C473.912 443.031 473.811 443.031 473.811 443.031ZM486.52 437.134C482.961 439.269 479.199 441.303 475.437 443.031C475.336 443.133 475.132 443.133 475.031 443.133C476.353 443.336 477.572 443.438 478.894 443.641C484.486 444.353 490.078 445.065 495.67 445.776C498.314 446.081 501.161 446.895 503.804 446.59C505.634 446.386 508.176 444.556 506.143 442.726C504.414 441.303 501.771 440.591 499.636 439.981C497.094 439.168 494.552 438.456 492.01 437.948C490.078 437.643 488.35 437.337 486.52 437.134ZM490.892 430.729C495.67 427.475 500.144 423.815 504.313 419.85C506.448 417.918 508.38 415.783 510.311 413.647C512.243 411.512 514.378 409.377 515.802 406.937C517.53 403.989 514.175 404.192 512.345 404.904C509.6 405.819 507.058 407.242 504.516 408.666C502.686 409.784 500.856 411.004 499.229 412.427C499.229 412.631 499.127 412.834 499.127 413.038C498.212 417.613 496.077 421.781 493.23 425.442C490.79 428.594 487.842 431.339 484.791 433.982C485.096 433.982 485.402 433.982 485.707 434.084C487.537 432.966 489.265 431.847 490.892 430.729ZM536.95 381.214C536.95 357.727 517.835 338.714 494.45 338.714H479.403C479.403 339.934 479.301 341.256 479.098 342.476C478.691 345.018 477.674 347.56 475.437 348.983C471.472 351.627 466.287 349.695 463.745 346.035C463.135 347.153 462.322 348.17 461.203 348.983C457.746 351.322 453.476 350.102 450.629 347.458C450.121 348.068 449.612 348.577 449.002 348.983C444.834 351.729 439.445 349.492 437.005 345.628C436.496 346.543 435.683 347.357 434.768 347.967C430.294 351.017 424.296 348.068 422.161 343.595C421.449 341.968 421.042 340.341 420.94 338.714H352.616C346.211 340.951 340.924 346.136 336.45 351.118C331.773 356.304 327.706 361.998 323.741 367.793C320.182 372.978 316.929 378.468 313.065 383.349C308.693 388.839 303.203 393.211 297.001 396.465C298.729 398.905 299.746 401.854 299.746 404.904C307.27 400.532 314.895 396.465 322.927 393.211C330.655 390.059 338.788 387.822 347.126 387.416C355.463 387.009 363.495 388.941 370.917 392.499C378.441 396.16 385.253 401.142 393.082 404.294C396.946 405.819 401.013 407.039 405.08 407.242C407.113 407.344 409.146 407.242 411.18 406.835C412.502 406.53 413.518 406.225 414.535 405.514C415.45 404.904 416.569 405.615 416.772 406.53C423.177 403.175 429.278 399.108 435.887 396.261C441.275 393.923 446.969 392.194 452.561 390.263C455.408 389.348 458.153 388.331 460.898 387.212C463.643 386.094 466.185 384.874 468.93 383.654C473.201 381.824 480.013 379.485 483.978 383.145C487.74 386.704 485.401 392.398 482.046 395.143C479.809 396.973 477.166 398.193 474.726 399.617C471.981 401.142 469.235 402.565 466.49 404.192C464.355 405.412 462.423 406.835 463.033 409.581C463.542 411.817 464.863 414.054 466.287 415.783C467.914 417.816 470.15 419.138 472.794 419.036C475.641 418.935 478.183 417.308 480.216 415.478C481.233 414.563 482.25 413.546 483.165 412.529C483.978 411.614 483.876 409.784 484.08 408.564C484.588 405.514 485.198 402.463 485.808 399.413C486.418 396.363 487.13 393.415 487.943 390.364C488.452 388.331 489.367 386.094 491.299 385.077C493.434 383.959 495.67 385.179 496.687 387.111C497.907 389.551 498.212 392.601 498.619 395.245C499.331 399.515 499.839 403.887 499.636 408.259C501.771 406.734 503.906 405.412 506.244 404.294C508.786 403.073 511.532 401.548 514.378 401.447C517.124 401.345 519.564 403.073 519.259 406.022C519.055 407.75 518.038 409.072 517.022 410.394C516.107 411.614 515.09 412.834 514.073 413.953C511.938 416.393 509.701 418.731 507.363 420.968C504.414 423.815 501.364 426.458 498.111 429C519.767 427.068 536.746 408.767 536.746 386.704V381.214H536.95ZM356.276 306.789C362.072 310.856 369.392 312.381 376.408 311.161C379.661 310.652 382.711 309.534 385.558 307.907C386.473 311.364 389.828 314.008 393.285 314.821C398.776 316.041 404.063 312.889 408.638 310.042C410.265 309.026 408.74 306.382 407.113 307.399C403.554 309.636 399.284 312.482 394.81 311.974C391.455 311.567 387.998 308.924 388.507 305.264C388.608 304.145 387.083 303.332 386.168 303.942C379.356 308.721 370.206 310.042 362.377 306.687C355.26 303.637 349.871 297.13 348.041 289.606C347.634 287.674 344.686 288.488 345.092 290.419C346.719 297.028 350.786 302.925 356.276 306.789ZM113.074 395.753C113.48 399.718 111.04 403.785 107.38 405.31C103.618 406.835 99.0427 404.904 97.7209 401.04C97.1109 399.108 97.6193 397.075 98.8394 395.55C98.2294 391.483 102.296 387.823 106.363 388.128C110.125 388.433 112.667 392.093 113.074 395.753ZM109.82 394.94C109.21 392.805 107.481 390.873 105.245 391.178C104.228 391.279 103.211 391.89 102.5 392.703C102.296 392.906 102.195 393.109 102.093 393.313C102.805 393.109 103.618 393.11 104.33 393.211C105.143 393.313 105.55 394.329 105.346 395.041C105.143 395.855 104.33 396.261 103.516 396.058C102.398 395.855 101.076 396.973 100.669 398.091C100.161 399.21 100.466 400.43 101.279 401.345C103.008 403.175 105.651 403.175 107.685 401.65C109.718 400.023 110.43 397.278 109.82 394.94ZM133.103 398.702C134.12 401.345 133.51 404.497 131.781 406.632C129.951 408.971 126.799 409.682 124.054 408.767C121.106 407.75 118.869 405.412 118.564 402.26C118.462 401.548 119.072 401.04 119.581 400.837C119.072 400.532 118.666 399.718 118.869 399.108C119.987 396.058 123.139 394.126 126.393 394.126C129.443 394.126 131.985 395.855 133.103 398.702ZM130.561 401.548C130.561 401.243 130.561 401.04 130.561 400.735C130.561 400.735 130.561 400.735 130.561 400.633C130.561 400.633 130.561 400.633 130.561 400.532C130.561 400.43 130.561 400.328 130.46 400.227C130.358 399.922 130.256 399.718 130.256 399.413C130.256 399.413 130.256 399.413 130.256 399.312C130.155 399.21 130.155 399.108 130.053 399.007C129.951 398.905 129.85 398.701 129.85 398.6C129.85 398.6 129.748 398.498 129.748 398.396C129.748 398.295 129.646 398.295 129.646 398.193C129.545 398.092 129.443 397.99 129.341 397.888C129.341 397.888 129.138 397.786 129.138 397.685C129.036 397.685 129.036 397.583 128.935 397.583C128.731 397.481 128.528 397.38 128.325 397.278C128.325 397.278 128.223 397.176 128.121 397.176C128.019 397.176 127.816 397.075 127.715 397.075C127.613 397.075 127.511 396.973 127.409 396.973C127.308 396.973 127.308 396.973 127.308 396.973C127.105 396.973 126.799 396.973 126.596 396.973C126.494 396.973 126.393 396.973 126.189 396.973C126.189 396.973 126.088 396.973 125.986 396.973H125.681C125.579 396.973 125.478 396.973 125.376 397.075C125.173 397.176 124.868 397.177 124.664 397.278H124.563C124.461 397.38 124.359 397.38 124.156 397.482C123.953 397.583 123.749 397.685 123.546 397.888C123.444 397.888 123.444 397.99 123.343 397.99C123.241 398.092 123.139 398.193 123.037 398.193C122.834 398.295 122.733 398.498 122.631 398.702C122.631 398.702 122.529 398.803 122.428 398.905C122.326 399.007 122.326 399.108 122.224 399.21C122.123 399.312 122.122 399.413 122.021 399.617C122.021 399.617 122.021 399.617 122.021 399.718C121.817 400.227 121.512 400.633 121.004 400.735C121.411 401.04 121.614 401.548 121.716 402.057C121.716 401.65 121.716 402.158 121.716 402.26C121.716 402.463 121.817 402.565 121.817 402.768C121.817 402.87 121.818 402.87 121.919 402.972C122.021 403.073 122.021 403.175 122.123 403.277C122.224 403.379 122.326 403.582 122.326 403.683C122.326 403.683 122.427 403.887 122.529 403.887L122.631 403.989C122.733 404.09 122.733 404.09 122.834 404.192C122.936 404.293 123.038 404.395 123.139 404.497C123.241 404.599 123.343 404.7 123.444 404.802C123.546 404.802 123.546 404.904 123.648 404.904C123.851 405.107 124.156 405.209 124.359 405.31C124.359 405.31 124.664 405.412 124.664 405.514C124.766 405.514 124.868 405.615 124.969 405.615C125.274 405.717 125.579 405.819 125.884 405.819H125.986C126.088 405.819 126.291 405.819 126.393 405.819C126.596 405.819 126.901 405.819 127.104 405.819C127.206 405.819 127.206 405.819 127.308 405.819C127.41 405.819 127.511 405.717 127.715 405.717C127.816 405.717 127.918 405.615 128.02 405.615H128.121C128.324 405.514 128.528 405.412 128.833 405.209C128.833 405.209 128.935 405.209 128.935 405.107C129.036 405.005 129.138 404.904 129.24 404.904C129.341 404.802 129.443 404.7 129.545 404.599C129.646 404.497 129.85 404.192 129.646 404.497C129.748 404.294 129.951 404.09 130.053 403.887C130.155 403.785 130.155 403.582 130.256 403.48C130.358 403.277 130.46 403.073 130.46 402.768C130.561 402.565 130.561 402.26 130.561 402.057V401.955C130.46 401.853 130.561 401.752 130.561 401.548ZM154.556 394.94C156.285 397.38 156.59 400.837 155.166 403.48C154.353 404.904 153.031 406.022 151.506 406.53C149.778 407.039 147.947 406.734 146.422 406.022C145.406 405.615 144.592 404.904 143.779 404.09C143.271 404.09 142.762 403.785 142.457 403.379C141.745 402.057 141.542 400.532 141.644 399.108C141.644 398.6 141.745 397.99 141.847 397.482C141.949 397.075 142.152 396.871 142.355 396.668C143.067 395.245 144.186 393.923 145.507 393.11C147.032 392.194 148.863 391.788 150.591 392.195C152.32 392.601 153.641 393.618 154.556 394.94ZM150.083 403.683C150.083 403.683 150.184 403.683 150.083 403.683C150.286 403.683 150.286 403.683 150.083 403.683ZM150.896 403.48C150.794 403.582 150.896 403.48 150.896 403.48V403.48ZM153.031 400.023C153.031 399.718 153.031 399.413 153.031 399.21V399.108C153.031 399.006 153.031 398.905 152.93 398.702C152.828 398.397 152.828 398.092 152.726 397.787L152.625 397.583C152.625 397.481 152.523 397.38 152.523 397.38C152.421 397.176 152.218 396.871 152.116 396.668C152.116 396.668 152.116 396.668 152.116 396.566C152.014 396.465 151.913 396.363 151.811 396.261C151.709 396.16 151.608 396.058 151.506 395.956C151.506 395.956 151.506 395.956 151.404 395.855C151.201 395.753 150.998 395.55 150.693 395.448C150.693 395.448 150.591 395.448 150.591 395.346C150.591 395.346 150.591 395.346 150.489 395.346C150.388 395.346 150.184 395.245 150.083 395.245C150.083 395.245 149.879 395.245 149.778 395.143C149.676 395.143 149.473 395.143 149.473 395.143C149.269 395.143 149.168 395.143 148.964 395.143C148.964 395.143 148.964 395.143 148.863 395.143H148.761C148.456 395.245 148.151 395.245 147.947 395.346C147.846 395.346 147.846 395.448 147.744 395.448C147.642 395.55 147.439 395.55 147.338 395.651C147.236 395.753 147.134 395.855 146.931 395.855C146.931 395.855 146.829 395.956 146.727 395.956C146.422 396.16 146.219 396.465 146.016 396.668L145.914 396.77C145.812 396.872 145.711 396.973 145.609 397.176C145.406 397.481 145.304 397.786 145.101 398.091C145.101 398.193 145.101 398.193 144.999 398.295C144.897 398.397 144.897 398.6 144.897 398.702C144.897 398.803 144.796 399.006 144.796 399.108C144.796 399.21 144.796 399.312 144.796 399.515C144.796 399.21 144.796 399.617 144.897 399.718C144.897 399.922 144.999 400.023 144.999 400.227C144.999 400.227 145.101 400.328 145.101 400.43C145.304 400.735 145.406 401.04 145.711 401.345C145.812 401.447 145.812 401.447 145.914 401.548C146.016 401.65 146.117 401.853 146.321 401.955C146.422 402.057 146.626 402.159 146.727 402.362L146.829 402.463C146.931 402.463 146.931 402.565 147.032 402.565C147.338 402.769 147.642 402.972 147.947 403.074C147.947 403.074 148.049 403.175 148.151 403.175C148.354 403.277 148.456 403.277 148.659 403.379C148.863 403.48 149.066 403.48 149.269 403.48H149.371C149.676 403.48 149.981 403.48 150.286 403.48C150.388 403.48 150.388 403.48 150.489 403.48C150.591 403.48 150.794 403.379 150.896 403.379C150.896 403.379 150.998 403.379 150.998 403.277C151.099 403.175 151.303 403.175 151.404 403.074C151.404 403.074 151.608 402.972 151.71 402.87C151.811 402.769 151.913 402.768 151.913 402.667C152.015 402.565 152.116 402.464 152.218 402.362C152.218 402.26 152.319 402.26 152.319 402.158C152.421 401.955 152.625 401.752 152.726 401.447C152.726 401.447 152.726 401.345 152.828 401.345C152.828 401.243 152.93 401.142 152.93 401.04C153.031 400.735 153.031 400.532 153.133 400.227V400.125C153.031 400.328 153.031 400.125 153.031 400.023ZM148.863 395.143H148.761C148.761 395.143 148.761 395.143 148.863 395.143Z" fill="black"/>
</svg>
