<svg width="600" height="600" viewBox="0 0 600 600" fill="none" xmlns="http://www.w3.org/2000/svg">
<path d="M168.967 426.582C203.383 331.672 55.7337 323.916 145.7 255.763C160.533 245.292 177.499 234.434 182.249 216.984C186.708 200.503 178.953 183.343 178.856 166.184C191.75 73.2121 302.947 93.9587 363.054 131.089C387.388 143.305 414.824 159.785 417.635 186.834C418.702 197.401 415.696 208.356 419.186 218.438C437.994 255.666 495.193 238.409 504.693 307.144C510.025 383.635 434.213 374.425 415.502 422.317" fill="#F4F6F9"/>
<path d="M437.122 409.423C415.89 380.92 387.291 354.26 368.387 341.075C358.886 334.386 349.288 329.442 339.787 325.758C335.134 312.379 330.771 299.291 326.409 284.846C330.771 284.556 335.037 282.811 338.042 279.708C349.676 267.299 338.43 248.976 324.082 250.043C326.215 233.465 329.705 216.79 320.107 202.151C280.747 158.719 237.509 235.695 209.976 256.441C209.976 256.441 234.019 265.845 245.846 270.401C245.846 270.401 243.713 314.221 243.035 333.611C218.701 346.989 198.536 367.542 185.545 389.452H71.9239C64.7498 389.452 59.7086 397.692 61.9383 405.739L88.308 501.134C89.7622 506.272 93.7368 509.762 98.2933 509.762H102.559C105.177 517.906 112.835 523.917 121.851 523.917H283.074C294.61 524.014 303.432 514.416 303.432 503.17C310.703 510.635 352.39 523.917 381.765 523.917C401.155 523.917 447.689 519.845 454.475 516.161C477.064 503.946 473.38 451.013 437.122 409.423ZM241.774 496.869C241.774 495.705 241.58 494.639 241.289 493.475L234.697 469.724C236.927 469.045 239.06 468.463 241.193 467.979C242.259 468.851 243.81 469.627 246.04 469.917C254.668 470.79 264.169 467.3 271.925 472.923C276.481 476.219 278.517 481.842 281.619 486.495C284.819 491.052 289.278 494.639 294.319 496.869C285.691 496.869 265.72 496.869 241.774 496.869ZM303.432 499.68C303.335 499.777 303.335 499.777 303.238 499.874C303.142 499.68 303.142 499.583 303.045 499.389C303.239 499.389 303.432 499.486 303.723 499.486C303.529 499.583 303.529 499.583 303.432 499.68Z" fill="white"/>
<path d="M149.384 245.292L104.885 258.671C97.5174 260.901 89.8586 256.732 87.6288 249.364C85.0112 237.731 72.0205 215.142 90.1495 209.519L134.648 196.14C142.016 193.911 149.675 198.079 151.904 205.447C154.522 217.081 167.513 239.669 149.384 245.292Z" fill="#FFE945"/>
<path d="M84.3329 221.347C94.3184 227.067 104.498 232.593 114.774 237.731C116.034 238.409 117.295 238.991 118.555 239.573C119.621 240.154 120.785 240.833 121.948 241.124C123.79 241.512 125.729 241.124 127.086 239.864C127.862 239.088 128.25 238.216 128.637 237.246C129.219 235.889 129.898 234.532 130.576 233.174C131.837 230.46 133.097 227.842 134.357 225.128C137.169 219.02 140.077 213.009 142.889 206.902C143.664 205.254 141.144 203.703 140.368 205.448C135.618 215.53 130.964 225.516 126.214 235.598C125.438 237.149 124.857 238.894 122.724 238.409C121.754 238.216 120.882 237.537 120.009 237.149C118.749 236.567 117.489 235.889 116.228 235.307C111.381 232.884 106.534 230.363 101.686 227.745C96.3542 224.837 91.0222 221.929 85.7871 218.826C84.139 217.954 82.6848 220.474 84.3329 221.347Z" fill="black"/>
<path d="M281.134 105.883C280.456 147.861 218.022 147.861 217.247 105.883C217.925 63.9054 280.359 63.9054 281.134 105.883Z" fill="#FEAABC"/>
<path d="M260.291 97.7394C257.673 92.989 250.984 92.5043 247.203 96.1883C245.361 98.0303 244.682 100.551 244.973 102.975C244.198 102.005 243.131 101.23 241.871 100.842C239.932 100.26 237.605 100.648 235.957 101.811C234.212 103.071 232.952 105.01 233.049 107.24C233.146 110.149 235.279 112.281 237.605 113.833C239.35 114.996 241.386 115.771 243.422 116.45C246.234 117.42 249.045 118.001 251.953 118.486C252.923 118.68 253.795 118.777 254.765 118.874C255.54 118.971 256.219 118.098 256.219 117.42C256.219 117.129 256.122 116.935 256.025 116.741C256.316 113.445 258.352 110.633 259.709 107.725C261.357 104.623 262.133 101.036 260.291 97.7394ZM256.801 107.337C255.443 110.052 253.795 112.766 253.214 115.868C250.887 115.481 248.463 114.996 246.136 114.414C245.07 114.123 243.907 113.736 242.84 113.348C242.646 113.251 242.356 113.154 242.162 113.057H242.065C241.968 112.96 241.774 112.96 241.677 112.863C241.289 112.669 240.902 112.475 240.514 112.281C239.835 111.894 239.156 111.506 238.478 111.021C238.478 111.021 238.187 110.827 238.381 110.924C238.575 111.118 238.381 110.924 238.284 110.827C238.187 110.73 237.993 110.633 237.896 110.536C237.702 110.342 237.411 110.149 237.217 109.858C237.12 109.761 237.024 109.664 236.927 109.567L236.83 109.47C236.733 109.276 236.539 109.082 236.442 108.791C236.345 108.694 236.345 108.597 236.248 108.5C236.151 108.307 236.054 108.113 236.054 107.822C236.054 107.725 236.054 107.725 236.054 107.628C236.054 107.628 236.054 107.628 236.054 107.531C236.054 107.337 236.054 107.143 236.054 106.949V107.046V106.949C236.054 106.755 236.054 106.852 236.054 106.949C236.054 106.852 236.054 106.852 236.054 106.755C236.054 106.562 236.151 106.368 236.248 106.174C236.248 106.077 236.345 105.98 236.345 105.98C236.442 105.786 236.539 105.592 236.636 105.495C236.733 105.398 236.733 105.398 236.83 105.301C236.927 105.107 237.12 105.01 237.217 104.913C237.314 104.817 237.314 104.817 237.411 104.72C237.605 104.623 237.702 104.526 237.896 104.429C238.09 104.332 238.187 104.235 238.381 104.138C238.478 104.138 238.575 104.041 238.672 104.041C238.866 103.944 239.06 103.944 239.253 103.847C239.35 103.847 239.35 103.847 239.447 103.847C239.447 103.847 239.447 103.847 239.544 103.847C239.738 103.847 239.932 103.847 240.126 103.847C240.223 103.847 240.32 103.847 240.417 103.847C240.611 103.847 240.805 103.944 240.998 103.944C241.095 103.944 241.192 104.041 241.289 104.041C241.483 104.138 241.677 104.235 241.871 104.332C241.968 104.332 241.968 104.429 242.065 104.429C242.065 104.429 242.162 104.429 242.162 104.526C242.356 104.72 242.55 104.817 242.647 105.01L242.743 105.107C242.743 105.204 242.84 105.301 242.937 105.301C243.131 105.495 243.228 105.786 243.325 105.98C243.422 106.077 243.422 106.174 243.519 106.271C243.519 106.368 243.519 106.368 243.616 106.465C243.713 106.755 243.81 107.046 243.907 107.434C244.101 108.21 244.973 108.694 245.652 108.404C246.427 108.21 246.912 107.337 246.621 106.659C246.524 106.368 246.428 106.077 246.331 105.786C247.3 105.98 248.463 105.204 248.075 104.041C247.882 103.459 247.785 102.975 247.688 102.393C247.688 101.811 247.688 101.326 247.785 100.939C247.979 100.066 248.366 99.1936 248.948 98.7089C250.208 97.3516 251.856 96.673 253.698 96.77C254.474 96.77 255.25 97.0608 256.025 97.5455C256.801 98.0303 257.382 98.7089 257.867 99.5814C259.224 102.102 258.061 104.913 256.801 107.337Z" fill="black"/>
<path d="M236.83 109.373C236.927 109.373 236.927 109.373 236.83 109.373C236.927 109.47 236.926 109.47 236.926 109.47C237.023 109.47 236.927 109.373 236.83 109.373Z" fill="black"/>
<path d="M402.221 176.169C404.063 175.878 404.838 178.69 402.996 178.981C399.118 179.659 395.144 179.562 391.266 179.175C387.291 178.787 383.219 178.108 379.341 176.945C375.948 175.878 372.555 174.521 369.841 172.195C367.611 170.256 366.157 167.638 366.544 164.633C367.126 160.658 370.228 157.459 373.234 155.035C373.137 155.423 372.943 155.714 372.846 156.101C372.749 153.969 372.07 152.224 370.907 150.478C370.035 149.218 369.065 147.958 368.774 146.407C368.483 144.565 369.259 142.917 370.422 141.462C371.295 140.396 372.264 139.427 373.331 138.457C373.525 138.263 373.912 138.069 374.106 137.778C374.3 137.585 374.3 136.906 374.3 136.615C374.494 135.936 374.688 135.258 374.882 134.579C376.142 130.411 378.469 126.339 382.347 124.206C390.393 119.843 400.088 125.078 406.583 129.926C405.905 130.507 405.129 130.992 404.45 131.574C403.675 126.824 404.644 121.685 406.583 117.226C408.134 113.542 410.946 109.567 415.212 108.888C416.278 108.695 417.344 108.791 418.411 108.985C419.671 109.276 420.35 109.761 421.125 110.827C422.095 112.282 422.483 114.22 422.483 115.965C422.483 120.231 420.931 124.303 420.931 128.569C420.834 134.773 424.034 139.717 428.59 143.789C430.044 145.049 427.912 147.085 426.554 145.825C421.707 141.559 418.314 136.227 418.023 129.732C417.829 125.563 419.089 121.588 419.477 117.517C419.574 116.159 419.671 114.608 419.186 113.251C418.992 112.863 418.702 112.475 418.508 112.088C418.411 111.894 418.12 111.797 418.605 112.088C418.411 111.991 418.12 111.991 417.829 111.894C417.15 111.7 416.375 111.7 415.696 111.894C412.206 112.572 410.073 116.45 409.007 119.553C407.747 123.043 406.874 127.211 407.456 130.895C407.65 131.962 406.486 133.416 405.323 132.543C399.022 127.793 387.873 121.588 381.183 129.15C379.826 130.701 378.857 132.737 378.178 134.676C377.693 136.033 377.402 137.294 377.112 138.651C376.821 140.008 375.173 140.881 374.203 141.947C373.137 143.014 371.78 144.468 371.877 145.922C371.877 146.213 372.167 146.795 372.458 147.182C372.749 147.764 373.137 148.249 373.525 148.83C374.494 150.285 375.27 151.836 375.657 153.484C375.851 154.55 376.336 156.198 375.56 157.071C374.882 157.846 373.912 158.428 373.234 159.204C372.07 160.367 370.907 161.724 370.228 163.275C369.744 164.245 369.55 165.505 369.647 166.281C370.034 168.511 371.876 170.159 373.912 171.419C376.627 173.067 379.826 174.036 382.928 174.812C388.842 176.363 396.016 177.236 402.221 176.169ZM419.477 184.604C420.737 177.72 422.192 170.837 424.712 164.245C425.973 160.949 427.621 157.653 429.947 155.035C430.917 153.969 431.983 152.902 433.341 152.224C433.922 151.933 434.504 151.642 435.086 151.448C435.861 151.254 436.637 151.545 437.315 151.933C440.418 153.678 440.805 158.04 440.612 161.143C440.418 163.178 440.127 165.02 439.739 167.153C438.576 173.067 436.927 179.078 434.213 184.41C433.05 186.737 431.498 189.354 429.366 190.711C428.396 191.293 427.718 191.584 426.651 191.487C425.779 191.39 424.615 190.905 423.646 190.13C422.192 188.966 420.156 191.002 421.61 192.166C433.728 201.763 440.224 177.72 441.969 169.965C443.229 164.148 445.071 156.78 441.193 151.545C439.933 149.897 438.285 148.733 436.249 148.346C434.504 148.055 432.662 148.927 431.208 149.897C428.105 151.933 425.876 155.035 424.131 158.331C420.059 166.184 418.217 175.006 416.569 183.634C416.375 185.67 419.186 186.446 419.477 184.604Z" fill="black"/>
<path d="M524.276 348.831L467.853 358.138C457.383 359.883 447.397 352.709 445.652 342.239C443.229 326.243 434.794 302.2 457.868 297.546L514.291 288.24C524.761 286.495 534.746 293.669 536.491 304.139C538.915 320.135 547.349 344.178 524.276 348.831Z" fill="#9ED5F0"/>
<path d="M476.773 311.313C478.421 316.451 479.584 321.686 480.65 326.921C481.232 330.217 481.717 333.514 482.686 336.713C483.268 338.652 484.334 340.785 486.564 341.172C489.085 341.56 491.605 339.718 493.544 338.458C498.876 334.871 503.724 330.702 508.668 326.63C509.25 326.146 509.153 325.079 508.668 324.594C501.979 317.517 493.156 312.379 483.656 310.149C481.814 309.762 481.038 312.573 482.88 312.961C491.993 315.094 500.234 319.844 506.632 326.63C506.632 325.952 506.632 325.273 506.632 324.594C502.366 328.085 498.004 331.672 493.544 334.968C492.284 335.937 490.927 336.81 489.569 337.585C489.279 337.682 489.085 337.876 488.794 337.973C488.6 338.07 488.697 338.07 488.309 338.167C488.115 338.264 487.921 338.264 487.728 338.361C487.631 338.361 487.534 338.361 487.437 338.458C487.728 338.458 487.631 338.458 487.437 338.458C487.34 338.458 486.855 338.458 487.049 338.458C487.243 338.458 486.855 338.361 486.758 338.361C487.146 338.555 486.758 338.361 486.661 338.264C487.049 338.555 486.661 338.167 486.467 338.07C486.273 337.876 486.564 338.264 486.467 338.07C486.37 337.973 486.37 337.876 486.273 337.876C486.176 337.682 486.079 337.488 485.982 337.294C485.789 336.907 485.983 337.294 485.789 336.907C485.692 336.616 485.595 336.422 485.498 336.131C484.625 333.223 484.237 330.12 483.656 327.115C482.589 321.589 481.329 316.063 479.681 310.634C479.002 308.792 476.191 309.568 476.773 311.313Z" fill="black"/>
<path d="M203.674 187.512C203.19 186.833 203.577 185.961 204.159 185.476C204.838 184.991 205.71 185.379 206.195 185.961C206.292 186.155 206.389 186.348 206.583 186.445C206.292 186.155 206.68 186.542 206.777 186.639C206.97 186.93 207.164 187.124 207.455 187.318C207.552 187.415 207.746 187.512 207.843 187.609C207.746 187.512 207.649 187.415 207.843 187.609L207.94 187.706C208.134 187.9 208.425 187.997 208.715 188.094C208.812 188.094 208.812 188.19 208.909 188.19C209.2 188.287 208.521 188.094 208.812 188.19C208.909 188.19 209.006 188.287 209.103 188.287C209.297 188.384 209.588 188.384 209.879 188.481C209.588 188.384 209.588 188.481 209.782 188.481C209.879 188.481 209.879 188.481 209.976 188.481C210.073 188.481 210.17 188.481 210.364 188.481C210.46 188.481 210.557 188.481 210.654 188.481C210.751 188.481 211.042 188.481 210.751 188.481C210.46 188.481 210.654 188.481 210.751 188.481C210.945 188.481 211.139 188.384 211.333 188.287C211.43 188.287 211.527 188.19 211.624 188.19H211.721C211.915 188.094 211.527 188.287 211.527 188.287C211.721 188.19 211.915 188.094 212.109 187.997C212.303 187.9 212.496 187.803 212.593 187.706C212.787 187.609 212.302 187.9 212.496 187.803L212.593 187.706C212.69 187.609 212.787 187.609 212.884 187.512C212.981 187.415 213.175 187.221 213.272 187.124C213.369 187.027 213.466 186.93 213.563 186.833C213.66 186.639 213.369 187.124 213.563 186.833C213.66 186.639 213.757 186.445 213.854 186.348C213.951 186.155 214.047 185.961 214.144 185.767C214.241 185.573 214.048 185.961 214.048 185.961C214.048 185.864 214.144 185.864 214.144 185.767C214.144 185.67 214.241 185.573 214.241 185.476C214.338 185.282 214.338 185.088 214.435 184.797C214.435 184.603 214.435 184.313 214.435 184.797C214.435 184.7 214.435 184.603 214.435 184.507C214.435 184.313 214.435 184.119 214.435 183.828C214.435 183.731 214.435 183.634 214.435 183.537C214.435 183.343 214.532 183.925 214.435 183.731V183.634C214.435 183.44 214.338 183.149 214.241 182.955C214.241 182.858 214.048 182.568 214.241 182.955C214.144 182.858 214.144 182.761 214.048 182.665C213.951 182.471 213.854 182.277 213.66 182.083L213.563 181.986C213.369 181.792 213.757 182.18 213.66 182.083C213.563 181.986 213.466 181.889 213.466 181.792C213.272 181.598 213.078 181.404 212.884 181.21C212.787 181.21 212.787 181.113 212.69 181.113C212.69 181.113 212.981 181.307 212.787 181.21C212.69 181.113 212.496 181.016 212.4 180.919C212.109 180.726 211.818 180.629 211.527 180.435C211.43 180.338 211.236 180.338 211.139 180.241C211.042 180.241 210.945 180.144 210.945 180.144C211.236 180.241 211.042 180.144 210.945 180.144C210.848 180.144 210.848 180.144 210.751 180.144C210.848 180.144 210.848 180.144 210.945 180.144C210.848 180.144 210.751 180.144 210.654 180.144C210.461 180.144 210.364 180.144 210.17 180.144C210.073 180.144 209.976 180.144 209.879 180.144C209.879 180.144 210.267 180.047 209.976 180.144C209.782 180.144 209.588 180.241 209.491 180.241C209.297 180.241 209.103 180.338 209.006 180.435C208.716 180.532 209.2 180.338 209.006 180.435C208.909 180.435 208.812 180.532 208.715 180.532C208.425 180.726 208.134 180.823 207.843 181.016C207.552 181.21 208.037 180.823 207.746 181.016C207.649 181.113 207.552 181.113 207.455 181.21C207.358 181.307 207.261 181.404 207.164 181.501C207.067 181.598 206.874 181.792 206.777 181.889C206.583 182.18 206.874 181.695 206.777 181.889C206.68 181.986 206.68 182.083 206.583 182.083C206.389 182.374 206.098 182.761 206.098 183.052C206.195 182.761 206.195 182.955 206.098 182.955C206.098 183.052 206.001 183.149 206.001 183.246C205.904 183.44 205.904 183.537 205.904 183.731C205.904 183.828 205.904 183.925 205.807 184.022C205.71 184.41 205.807 183.731 205.807 184.022C205.807 184.119 205.807 184.313 205.807 184.41C205.807 184.507 205.904 184.894 205.807 184.991C205.807 184.894 205.71 184.7 205.807 184.894C205.807 184.991 205.807 185.088 205.904 185.185C206.098 185.961 205.71 186.736 204.934 186.93C204.256 187.124 203.287 186.639 203.19 185.961C202.22 181.695 205.613 177.526 209.782 177.042C210.17 177.042 210.558 176.945 210.945 177.042C211.527 177.139 212.012 177.236 212.593 177.526C213.175 177.817 213.757 178.108 214.338 178.496C215.502 179.368 216.374 180.435 216.956 181.792C217.828 183.828 217.344 186.349 216.083 188.094C214.726 190.032 212.69 191.293 210.364 191.39C207.552 191.681 205.225 189.742 203.674 187.512ZM512.061 441.609C513.612 443.742 515.842 445.39 518.557 445.196C520.883 445.002 522.919 443.742 524.277 441.9C525.537 440.155 526.021 437.731 525.343 435.695C524.955 434.532 524.18 433.368 523.21 432.593C522.531 432.011 521.853 431.526 521.077 431.236C520.399 430.945 519.623 430.848 518.847 430.848C515.357 430.848 511.77 433.368 511.286 436.955C511.189 437.731 511.48 438.507 512.255 438.7C512.934 438.894 513.903 438.507 514 437.731C514 437.44 514.097 437.149 514.194 436.858C514.194 436.761 514.194 436.761 514.291 436.665C514.291 436.568 514.291 436.568 514.291 436.761C514.291 436.665 514.485 436.471 514.485 436.277C514.582 436.18 514.582 436.083 514.679 435.889C514.679 435.792 514.776 435.792 514.776 435.695C514.97 435.501 514.776 435.695 514.776 435.792C514.873 435.501 515.26 435.21 515.454 435.113C515.454 435.113 515.842 434.823 515.648 434.92C515.454 435.113 515.745 434.823 515.745 434.823C515.842 434.823 515.842 434.726 515.939 434.726C516.23 434.532 516.521 434.435 516.715 434.241C516.812 434.241 516.812 434.144 516.909 434.144C516.618 434.241 516.715 434.241 516.812 434.144C517.006 434.047 517.103 434.047 517.296 433.95C517.49 433.95 517.587 433.853 517.781 433.853C517.878 433.853 517.878 433.853 517.975 433.853C518.072 433.853 518.363 433.756 518.072 433.853C517.878 433.95 518.169 433.853 518.169 433.853C518.266 433.853 518.266 433.853 518.363 433.853C518.46 433.853 518.654 433.853 518.751 433.853C518.848 433.853 519.041 433.853 519.138 433.853C519.429 433.853 518.944 433.756 519.138 433.853C519.235 433.853 519.332 433.853 519.429 433.853C519.623 433.853 519.72 433.95 519.914 433.95C520.011 433.95 520.399 434.144 520.205 434.047C520.011 433.95 520.302 434.144 520.302 434.144C520.399 434.144 520.399 434.241 520.496 434.241C520.592 434.338 520.787 434.435 520.883 434.532C520.98 434.629 521.077 434.629 520.786 434.532C520.883 434.532 520.883 434.629 520.98 434.629C521.077 434.726 521.174 434.823 521.271 434.92C521.465 435.113 521.659 435.307 521.853 435.501L521.95 435.598C522.047 435.695 521.756 435.307 521.853 435.501C521.95 435.598 521.95 435.695 522.047 435.792C522.144 435.986 522.241 436.18 522.434 436.374C522.628 436.665 522.338 436.18 522.434 436.374C522.434 436.471 522.532 436.568 522.532 436.665C522.628 436.858 522.628 437.052 522.725 437.343C522.822 437.634 522.725 436.955 522.725 437.343C522.725 437.44 522.725 437.537 522.725 437.634C522.725 437.828 522.725 438.022 522.725 438.313C522.725 438.7 522.822 438.022 522.725 438.313C522.725 438.41 522.726 438.507 522.629 438.603C522.629 438.797 522.531 438.991 522.434 439.282C522.434 439.379 522.338 439.476 522.338 439.573C522.241 439.767 522.532 439.282 522.338 439.573C522.241 439.767 522.144 439.961 522.047 440.155C521.95 440.349 521.853 440.542 521.659 440.736C521.562 440.93 521.853 440.445 521.659 440.736C521.562 440.833 521.465 440.93 521.465 441.027C521.368 441.221 521.174 441.318 521.077 441.415C520.98 441.512 520.98 441.512 520.883 441.609C520.593 441.9 521.077 441.512 520.883 441.609C520.496 441.803 520.205 441.997 519.817 442.191C519.623 442.287 520.205 442.094 519.817 442.191C519.72 442.191 519.623 442.287 519.526 442.287C519.332 442.384 519.138 442.384 518.847 442.481H518.751C518.557 442.578 519.041 442.481 518.847 442.481C518.751 442.481 518.654 442.481 518.46 442.481C518.266 442.481 517.975 442.481 517.781 442.481C517.49 442.481 518.169 442.578 517.781 442.481C517.684 442.481 517.587 442.481 517.393 442.384C517.296 442.384 517.103 442.287 517.006 442.287C516.909 442.287 516.909 442.287 516.909 442.191C516.618 442.094 516.909 442.287 517.006 442.191C516.909 442.191 516.424 441.9 516.327 441.803C516.23 441.706 516.133 441.609 515.939 441.609C515.842 441.512 515.842 441.512 516.036 441.706C516.036 441.609 515.842 441.609 515.842 441.512C515.648 441.318 515.357 441.124 515.163 440.833C515.067 440.736 514.97 440.639 514.873 440.445C514.776 440.349 514.679 440.155 514.873 440.445C514.776 440.349 514.776 440.252 514.679 440.155C514.194 439.573 513.419 439.185 512.643 439.67C511.964 440.058 511.577 441.027 512.061 441.609ZM448.464 269.723C448.464 269.529 448.367 269.432 448.367 269.238C448.464 269.626 448.367 269.432 448.367 269.335C448.367 269.238 448.367 269.238 448.367 269.141C448.367 269.044 448.367 268.85 448.367 268.753C448.367 268.656 448.464 268.365 448.367 268.85C448.367 268.753 448.367 268.656 448.367 268.559C448.367 268.462 448.464 268.268 448.464 268.171C448.464 268.074 448.755 267.59 448.464 267.978C448.658 267.687 448.755 267.396 448.949 267.202L449.046 267.105C449.143 267.008 449.337 266.911 449.046 267.105C449.143 267.008 449.24 266.911 449.337 266.717C449.434 266.62 449.531 266.523 449.628 266.426C449.725 266.329 449.725 266.329 449.822 266.232C450.112 265.942 449.628 266.329 449.822 266.232C450.015 266.039 450.306 265.942 450.5 265.748C450.597 265.748 450.694 265.651 450.694 265.651C450.694 265.651 450.306 265.748 450.597 265.748C450.791 265.651 450.888 265.651 451.082 265.554C451.179 265.554 451.373 265.457 451.47 265.457C451.76 265.36 451.082 265.457 451.373 265.457C451.47 265.457 451.567 265.457 451.567 265.457C451.664 265.457 451.857 265.457 451.954 265.457C452.051 265.457 452.148 265.457 452.148 265.457C451.857 265.457 451.857 265.457 451.954 265.457C452.051 265.457 452.051 265.457 452.148 265.457C452.051 265.457 452.051 265.36 451.954 265.36C451.954 265.36 452.051 265.36 452.051 265.457C452.148 265.457 452.148 265.554 452.245 265.554C452.342 265.651 452.439 265.651 452.633 265.748C452.827 265.845 453.118 266.039 453.312 266.232C453.409 266.232 453.409 266.329 453.506 266.329C453.118 266.039 453.312 266.232 453.409 266.232C453.506 266.329 453.602 266.329 453.602 266.426C453.796 266.62 453.893 266.717 454.087 266.911L454.184 267.008C453.893 266.62 453.99 266.814 454.087 266.911C454.184 267.008 454.184 267.008 454.281 267.105C454.378 267.299 454.475 267.493 454.572 267.59C454.669 267.784 454.378 267.202 454.475 267.396C454.475 267.396 454.475 267.493 454.572 267.493C454.572 267.59 454.669 267.687 454.669 267.687C454.669 267.784 454.669 267.881 454.766 267.978C454.766 268.171 454.766 268.462 454.766 267.881C454.766 268.074 454.766 268.171 454.766 268.365C454.766 268.462 454.766 268.559 454.766 268.656V268.753C454.766 269.044 454.766 268.559 454.766 268.559C454.669 268.656 454.669 268.947 454.669 269.044C454.669 269.238 454.572 269.432 454.475 269.529C454.378 269.723 454.669 269.141 454.572 269.335C454.572 269.335 454.572 269.432 454.475 269.432C454.475 269.529 454.378 269.626 454.378 269.626C454.281 269.819 454.184 269.916 454.087 270.11C454.087 270.207 453.99 270.207 453.99 270.304C454.281 269.819 454.087 270.11 453.99 270.304C453.893 270.401 453.699 270.595 453.602 270.692C453.505 270.789 453.021 271.177 453.506 270.789C453.312 270.886 453.215 270.983 453.021 271.08C452.924 271.177 452.73 271.274 452.536 271.274C452.245 271.468 452.827 271.177 452.633 271.274C452.536 271.274 452.439 271.371 452.342 271.371C452.148 271.468 452.051 271.468 451.858 271.468C451.664 271.468 451.373 271.468 451.954 271.468C451.857 271.468 451.76 271.468 451.663 271.468C451.47 271.468 451.276 271.468 451.082 271.468C450.985 271.468 450.791 271.371 451.276 271.468H451.179C451.082 271.468 450.985 271.468 450.888 271.371C450.791 271.371 450.694 271.274 450.597 271.274C450.597 271.274 450.5 271.274 450.5 271.177C450.209 271.08 450.791 271.371 450.597 271.274C450.403 271.177 450.209 271.08 450.015 270.983C449.918 270.886 449.821 270.886 449.725 270.789C450.209 271.08 449.822 270.789 449.628 270.692C449.434 270.498 449.24 270.304 449.046 270.11L448.949 270.013C448.755 269.723 449.143 270.207 448.949 270.013C448.852 269.916 448.755 269.723 448.658 269.626C448.464 269.335 448.367 269.044 448.174 268.753C447.786 268.074 446.816 267.784 446.138 268.268C445.459 268.753 445.265 269.529 445.653 270.304C446.719 272.437 448.561 274.182 451.082 274.279C452.924 274.376 454.863 273.407 456.026 272.049C457.286 270.498 457.965 268.462 457.286 266.523C456.899 265.457 456.317 264.487 455.445 263.809C454.96 263.421 454.378 263.033 453.796 262.645C453.603 262.548 453.409 262.452 453.215 262.355C452.924 262.258 452.633 262.161 452.245 262.161C451.954 262.161 451.567 262.161 451.276 262.161C449.725 262.355 448.173 263.13 447.107 264.294C446.041 265.457 445.362 267.008 445.459 268.656C445.459 269.044 445.556 269.529 445.653 269.916C445.847 270.692 446.719 271.177 447.398 270.886C448.173 271.274 448.658 270.498 448.464 269.723ZM62.3262 282.519C64.1682 283.586 66.3979 283.877 68.3368 282.907C69.791 282.132 70.8573 280.484 71.1482 278.836C71.439 276.994 71.0513 275.152 69.791 273.794C69.1124 273.116 68.2398 272.631 67.2703 272.34C66.6886 272.146 66.1071 272.146 65.5255 272.049C64.7499 272.049 64.0712 272.243 63.2956 272.534C60.3872 273.891 59.0299 278.06 60.7749 280.774C61.1627 281.453 62.1323 281.744 62.8109 281.259C63.4895 280.871 63.7804 279.999 63.2956 279.223C63.1987 279.126 63.1987 279.029 63.1018 278.932C63.0048 278.739 63.1018 279.029 63.1018 279.029C63.1018 279.029 63.0047 278.932 63.0047 278.836C63.0047 278.739 62.9077 278.545 62.9077 278.448C62.9077 278.351 62.9077 278.351 62.9077 278.254C62.9077 278.06 62.9077 278.545 62.9077 278.351C62.9077 278.06 62.9077 277.866 62.9077 277.575V277.381C63.0047 277.575 62.8108 277.672 62.9077 277.478C62.9077 277.284 63.0047 277.187 63.0047 276.994C63.0047 276.897 63.1018 276.8 63.1018 276.606L63.1986 276.412C63.1986 276.412 63.1016 276.703 63.1986 276.509C63.2955 276.218 63.4896 276.024 63.5865 275.83L63.6833 275.636C63.6833 275.636 63.4896 275.927 63.5865 275.733C63.6835 275.636 63.7802 275.539 63.8772 275.442C63.9741 275.345 64.0711 275.248 64.1681 275.152C64.362 274.958 64.0713 275.248 64.0713 275.248C64.0713 275.248 64.2651 275.152 64.2651 275.055C64.362 274.958 64.459 274.958 64.556 274.861C64.6529 274.861 64.6529 274.764 64.7498 274.764C64.9437 274.667 64.6528 274.861 64.6528 274.764C64.6528 274.764 64.9438 274.667 65.0407 274.667C65.1377 274.667 65.1376 274.667 65.2346 274.667C65.5254 274.57 64.9437 274.667 65.2346 274.667C65.4285 274.667 65.7193 274.667 65.9131 274.667C66.0101 274.667 66.01 274.667 66.107 274.667C66.107 274.667 65.7193 274.57 65.9131 274.667C66.0101 274.667 66.1071 274.667 66.204 274.764C66.3979 274.764 66.5917 274.861 66.7856 274.958C66.8825 274.958 66.9795 275.055 67.0765 275.055C67.0765 275.055 66.6887 274.861 66.8826 274.958C66.8826 274.958 66.9797 274.958 66.9797 275.055C67.1735 275.152 67.2705 275.249 67.4644 275.345C67.5613 275.345 67.5613 275.442 67.6582 275.442C67.6582 275.442 67.3674 275.152 67.4644 275.345L67.5612 275.442C67.6581 275.539 67.7551 275.636 67.8521 275.733C67.8521 275.733 68.046 276.024 67.8521 275.733C67.6582 275.539 67.8522 275.733 67.9491 275.83C68.0461 275.927 68.143 276.121 68.143 276.218C68.143 276.315 68.3369 276.509 68.143 276.218C68.046 275.927 68.143 276.218 68.143 276.315C68.2399 276.412 68.2398 276.606 68.2398 276.8C68.2398 276.897 68.2398 276.897 68.2398 276.994C68.3367 277.284 68.2398 276.606 68.2398 276.897C68.2398 277.187 68.2398 277.478 68.2398 277.769C68.2398 278.06 68.3367 277.478 68.2398 277.672C68.2398 277.769 68.2398 277.769 68.2398 277.866C68.2398 278.06 68.143 278.157 68.143 278.351C68.143 278.448 68.0461 278.642 67.9491 278.739C68.143 278.157 67.949 278.739 67.8521 278.836C67.7551 278.932 67.7552 279.126 67.6582 279.223C67.6582 279.32 67.5612 279.32 67.5612 279.417C67.852 279.029 67.6581 279.223 67.5612 279.417C67.4642 279.514 67.3672 279.611 67.2703 279.708C67.1734 279.708 67.1734 279.805 67.0765 279.805C66.9795 279.902 67.2703 279.708 67.2703 279.708L67.1735 279.805C67.0766 279.902 66.8825 279.999 66.7856 280.096C66.5917 280.193 66.3979 280.193 66.8826 280.096C66.7857 280.096 66.6887 280.193 66.5917 280.193C66.3978 280.29 66.3009 280.29 66.107 280.29C65.9131 280.387 66.3008 280.29 66.3008 280.29C66.2039 280.29 66.2039 280.29 66.107 280.29C66.01 280.29 65.9131 280.29 65.8161 280.29C65.6222 280.29 65.4285 280.29 65.2346 280.29C65.7193 280.29 65.3315 280.29 65.2346 280.29C65.1376 280.29 65.0406 280.29 64.9437 280.193C64.7498 280.096 64.459 279.999 64.2651 279.999C64.7498 280.096 64.265 279.999 64.1681 279.902C64.0711 279.805 63.8773 279.805 63.7804 279.708C63.1017 279.32 62.1322 279.514 61.7444 280.193C61.4536 281.259 61.6475 282.132 62.3262 282.519Z" fill="black"/>
<path d="M313.03 266.426C317.683 261.87 324.373 259.543 330.868 260.415C331.644 260.512 332.322 260.997 332.322 261.87C332.322 262.548 331.644 263.421 330.868 263.324C325.148 262.548 319.234 264.487 315.066 268.559C313.805 269.819 311.769 267.783 313.03 266.426ZM284.334 285.912L284.237 285.815C284.237 285.815 284.237 285.912 284.334 285.912ZM275.027 228.52C275.415 229.199 276.384 229.49 277.063 229.005C277.741 228.52 277.935 227.744 277.547 226.969C276.869 225.709 276.19 224.448 275.511 223.188C275.124 222.509 274.154 222.219 273.476 222.703C272.797 223.188 272.603 223.964 272.991 224.739C273.67 225.999 274.348 227.26 275.027 228.52ZM273.766 292.214C273.766 292.311 273.766 292.311 273.766 292.214C273.766 292.311 273.766 292.311 273.766 292.214C273.766 292.214 273.766 292.311 273.766 292.214ZM273.766 292.214C273.766 292.311 273.766 292.311 273.766 292.214V292.214ZM303.917 501.231C304.014 501.231 304.014 501.231 303.917 501.231C304.014 501.231 303.917 501.231 303.917 501.231ZM290.441 362.985C291.217 366.087 290.15 369.383 287.63 371.322C284.721 373.455 280.262 373.164 277.644 370.644C275.221 368.414 274.639 364.633 275.802 361.628C277.063 358.138 280.165 356.005 283.849 356.102C284.818 356.102 285.303 356.974 285.206 357.75C285.982 357.944 286.757 358.235 287.533 358.719C288.987 359.689 289.957 361.24 290.441 362.985ZM285.109 369.383C285.109 369.383 285.303 369.286 285.109 369.383V369.383ZM287.727 365.215C287.727 364.924 287.727 364.633 287.727 364.439C287.727 364.342 287.727 364.342 287.727 364.342V364.245C287.727 364.148 287.63 363.954 287.63 363.857C287.533 363.567 287.436 363.276 287.339 363.082C287.339 362.985 287.242 362.985 287.242 362.888C287.145 362.791 287.145 362.597 287.048 362.5C286.951 362.403 286.951 362.306 286.854 362.209L286.757 362.112C286.563 361.919 286.37 361.628 286.079 361.434L285.982 361.337C285.885 361.24 285.788 361.24 285.691 361.143C285.594 361.046 285.4 360.949 285.206 360.949C285.109 360.949 285.109 360.949 285.012 360.852C284.721 360.755 284.431 360.658 284.043 360.658C283.946 360.658 283.946 360.658 283.849 360.658C283.655 360.658 283.461 360.658 283.267 360.658C283.073 360.658 282.88 360.658 282.686 360.658C282.589 360.658 282.104 360.755 282.298 360.658C281.619 360.755 280.941 360.464 280.65 359.883C280.456 359.98 280.359 360.077 280.165 360.174C280.165 360.174 280.165 360.174 280.068 360.174L279.971 360.27C279.68 360.464 279.486 360.755 279.195 361.046C279.195 361.143 279.098 361.143 279.098 361.24C279.001 361.434 278.905 361.531 278.808 361.725C278.711 361.822 278.614 362.015 278.614 362.112L278.517 362.306V362.403C278.42 362.694 278.323 363.082 278.226 363.373C278.226 363.567 278.129 363.664 278.129 363.857C278.129 363.954 278.129 363.954 278.129 364.051C278.129 364.342 278.129 364.633 278.129 365.021C278.129 365.215 278.129 365.409 278.129 365.506V365.603C278.129 365.603 278.129 365.603 278.129 365.699C278.226 365.99 278.226 366.281 278.323 366.572C278.42 366.766 278.42 366.863 278.517 367.057C278.517 367.154 278.614 367.154 278.614 367.251C278.711 367.541 278.905 367.735 279.098 368.026L279.195 368.22C279.292 368.317 279.389 368.414 279.486 368.608C279.583 368.705 279.68 368.802 279.874 368.899L279.971 368.996C279.971 368.996 279.971 368.996 280.068 368.996C280.359 369.19 280.65 369.383 280.941 369.48C281.037 369.48 281.134 369.577 281.134 369.577C281.328 369.674 281.522 369.674 281.619 369.771C281.813 369.868 282.007 369.868 282.201 369.868H282.298C282.395 369.868 282.492 369.868 282.492 369.868C282.879 369.868 283.17 369.868 283.558 369.868C283.558 369.868 283.558 369.868 283.655 369.868C283.752 369.868 283.849 369.868 283.946 369.771C284.14 369.771 284.237 369.674 284.43 369.674C284.624 369.674 284.721 369.577 284.915 369.48C285.012 369.48 285.012 369.383 285.109 369.383C285.4 369.286 285.594 369.093 285.788 368.996C285.885 368.996 285.982 368.899 285.982 368.802C286.079 368.705 286.176 368.608 286.273 368.511C286.37 368.414 286.467 368.317 286.564 368.22L286.66 368.123C286.854 367.832 286.951 367.638 287.048 367.348C287.048 367.348 287.048 367.251 287.145 367.251C287.145 367.251 287.145 367.251 287.145 367.154C287.145 367.057 287.242 366.863 287.242 366.766C287.339 366.475 287.339 366.281 287.436 365.99C287.436 365.893 287.436 365.893 287.436 365.893C287.436 365.893 287.436 365.893 287.436 365.796C287.727 365.506 287.727 365.312 287.727 365.215ZM343.665 390.712C344.344 394.396 341.338 396.916 338.236 398.274C339.593 400.309 340.563 402.539 340.659 404.963C340.756 406.611 340.175 408.453 338.818 409.519C337.557 410.586 335.812 410.877 334.261 410.392C330.771 409.325 329.414 405.641 329.22 402.151C328.251 402.636 327.087 402.83 325.924 402.733C322.337 402.539 318.75 399.631 319.137 395.753C319.428 393.426 320.786 391.487 323.112 390.809C324.567 390.421 326.021 390.518 327.281 391.196C326.699 389.064 326.505 386.834 327.378 384.798C328.735 381.696 332.71 381.017 335.231 383.247C336.394 384.313 336.879 385.574 336.879 386.834C339.884 386.058 343.083 387.512 343.665 390.712ZM339.593 389.645C339.496 389.645 339.593 389.645 339.593 389.645V389.645ZM330.092 386.155C330.189 386.058 330.189 386.058 330.092 386.155V386.155ZM336.006 407.774C336.2 407.774 336.2 407.774 336.006 407.774V407.774ZM337.266 407.096C337.169 407.193 337.169 407.193 337.266 407.096V407.096ZM340.854 391.875C340.854 391.778 340.854 391.584 340.854 391.487C340.854 391.487 340.854 391.487 340.854 391.39C340.854 391.293 340.757 391.196 340.757 391.003L340.659 390.809C340.659 390.712 340.563 390.615 340.563 390.615C340.466 390.518 340.466 390.421 340.369 390.324C340.466 390.421 340.466 390.421 340.272 390.227C340.175 390.13 340.078 390.033 339.981 389.936C339.884 389.839 339.787 389.839 339.69 389.742C339.69 389.742 339.69 389.742 339.593 389.742C339.496 389.742 339.302 389.645 339.205 389.645C339.108 389.645 339.011 389.645 339.011 389.645C338.915 389.645 338.818 389.645 338.721 389.645C338.721 389.645 338.527 389.645 338.43 389.645C338.333 389.645 338.139 389.645 338.139 389.742C338.042 389.742 337.848 389.839 337.751 389.839C337.751 389.839 337.654 389.839 337.654 389.936C337.557 390.033 337.363 390.13 337.266 390.13C337.169 390.13 336.879 390.421 336.879 390.421C336.782 390.518 336.588 390.615 336.491 390.712C336.297 390.809 336.2 391.003 336.103 391.196C335.521 392.457 334.649 393.62 333.873 394.59C333.389 395.171 332.516 395.074 331.934 394.686C331.353 394.202 331.256 393.426 331.547 392.844C332.128 391.681 332.807 390.421 333.776 389.354C333.873 389.257 333.873 389.064 333.873 389.064C333.97 388.87 333.97 388.579 334.067 388.385C334.067 388.288 334.067 388.191 334.164 388.094C334.164 387.9 334.164 387.706 334.164 387.512C334.164 387.319 334.067 386.834 334.164 387.222C334.164 387.125 334.067 386.931 334.067 386.834C334.067 386.737 333.97 386.64 333.97 386.446C333.97 386.446 333.97 386.349 333.873 386.349C333.776 386.252 333.679 386.058 333.679 385.961L333.583 385.864C333.486 385.767 333.389 385.67 333.292 385.573C333.195 385.477 333.001 385.38 332.904 385.38H332.807C332.613 385.38 332.419 385.283 332.225 385.186H332.128C332.031 385.186 331.934 385.186 331.74 385.186C331.644 385.186 331.547 385.283 331.353 385.283H331.256C331.159 385.38 331.062 385.38 330.965 385.477C330.965 385.477 330.965 385.477 330.868 385.573C330.771 385.67 330.674 385.767 330.577 385.864L330.48 385.961C330.48 385.961 330.48 385.864 330.577 385.864L330.48 385.961C330.48 385.961 330.48 385.961 330.48 385.864V385.961C330.383 386.058 330.383 386.155 330.286 386.252C330.286 386.252 330.189 386.349 330.189 386.446C330.093 386.64 330.092 386.737 329.995 386.931C329.995 387.028 329.899 387.222 329.899 387.319C329.899 387.415 329.899 387.609 329.899 387.706C329.899 388.191 329.899 388.579 329.899 389.064C329.899 389.161 329.899 389.161 329.899 389.161C329.899 389.161 329.899 389.161 329.899 389.257C329.899 389.354 329.898 389.548 329.995 389.645C330.092 389.936 330.093 390.13 330.189 390.421C330.383 391.003 330.577 391.584 330.771 392.166C331.062 392.941 330.48 393.717 329.802 393.911C329.705 393.911 329.608 393.911 329.511 393.911C329.414 394.299 329.123 394.59 328.832 394.783C328.056 395.171 327.281 394.88 326.796 394.299C326.118 393.329 324.373 393.426 323.306 394.105C322.821 394.396 322.531 394.783 322.337 395.365C322.24 395.559 322.24 395.753 322.24 395.947C322.143 396.238 322.24 395.947 322.24 396.141C322.24 396.335 322.24 396.432 322.24 396.625C322.24 396.722 322.24 396.819 322.24 396.819C322.24 397.013 322.337 397.11 322.337 397.304L322.434 397.498C322.531 397.789 322.724 397.983 322.821 398.274C322.821 398.37 322.918 398.37 322.918 398.467C323.015 398.564 323.112 398.661 323.209 398.758C323.403 398.952 323.403 398.952 323.694 399.146C324.663 399.825 325.633 400.019 326.893 399.922C327.087 399.922 326.893 399.922 327.184 399.922C327.378 399.922 327.572 399.825 327.669 399.825C328.057 399.728 328.056 399.728 328.347 399.534C328.929 399.243 329.317 398.952 329.802 398.37C330.577 397.401 332.419 398.177 332.322 399.437C332.225 400.697 332.128 402.345 332.322 403.315C332.419 403.896 332.516 404.381 332.71 404.963C332.71 405.06 332.807 405.254 332.904 405.351C333.001 405.545 333.098 405.738 333.195 405.932C333.292 406.126 333.389 406.32 333.583 406.514C333.583 406.611 333.679 406.611 333.679 406.611C333.679 406.611 333.679 406.611 333.776 406.708C333.97 406.902 334.164 407.096 334.358 407.29C334.455 407.386 334.552 407.483 334.649 407.483C334.746 407.58 334.94 407.58 335.037 407.677H335.134C335.231 407.677 335.425 407.774 335.522 407.774H335.618C335.618 407.774 335.618 407.774 335.715 407.774C335.812 407.774 336.006 407.774 336.103 407.774H336.2C336.297 407.774 336.491 407.677 336.588 407.677H336.685C336.782 407.58 336.879 407.58 337.073 407.483C337.073 407.483 337.17 407.483 337.17 407.386C337.267 407.29 337.364 407.193 337.46 407.096L337.557 406.999C337.557 406.999 337.557 406.999 337.557 406.902C337.654 406.805 337.654 406.708 337.751 406.514C337.751 406.514 337.751 406.514 337.751 406.417C337.751 406.417 337.751 406.417 337.751 406.32C337.751 406.223 337.848 406.029 337.848 405.932C337.848 405.835 337.945 405.448 337.945 405.544C337.945 405.448 337.945 405.254 337.945 405.157C337.945 404.963 337.945 404.769 337.945 404.575C337.945 404.478 337.945 404.381 337.945 404.284C337.557 401.957 336.394 400.019 334.94 398.08C334.358 397.304 335.037 396.141 335.812 395.947C336.976 395.656 337.945 395.268 338.915 394.59C339.399 394.299 339.399 394.202 339.787 393.911C339.884 393.814 340.078 393.62 340.175 393.523L340.272 393.426L340.369 393.329C340.466 393.135 340.563 393.038 340.659 392.844L340.757 392.651C340.853 392.457 340.853 392.166 340.95 391.972C340.853 391.972 340.854 391.875 340.854 391.875ZM337.751 404.478C337.751 404.575 337.751 404.672 337.751 404.478V404.478ZM469.889 489.112C469.308 497.062 467.272 505.303 462.231 511.701C460.292 514.125 457.771 516.451 454.863 517.712C452.342 518.875 449.53 519.36 446.816 519.844C437.315 521.59 427.621 522.559 417.926 523.432C407.747 524.304 397.567 525.08 387.291 525.37C376.724 525.661 366.157 524.692 355.783 522.85C344.634 520.911 333.582 518.002 322.821 514.319C318.653 512.864 314.484 511.216 310.509 509.277C308.086 508.114 305.662 506.854 303.529 505.109C302.657 515.482 294.222 524.013 283.364 524.013H283.267H122.045C113.029 524.013 105.37 518.099 102.753 509.859H98.4872C93.9307 509.859 89.8589 506.369 88.5016 501.231L62.1322 405.835C59.9024 397.789 64.9435 389.548 72.1175 389.548H183.994C188.26 382.277 193.204 375.394 198.536 368.899C206.776 358.913 216.277 349.994 226.747 342.432C231.498 338.942 236.539 335.743 241.677 332.932C241.774 329.344 241.968 325.661 242.065 322.073C242.55 310.828 243.034 299.582 243.616 288.336C243.907 282.713 244.101 277.187 244.392 271.564C241.677 270.498 238.963 269.431 236.248 268.365C227.329 264.972 218.507 261.482 209.588 257.992C208.327 257.507 208.231 256.15 209.2 255.374C210.073 254.696 210.945 254.017 211.818 253.241C221.318 245.098 229.365 235.306 237.702 226.096C244.973 218.147 252.438 210.1 260.873 203.217C262.618 190.711 284.237 173.648 298.1 183.731C335.328 169.577 364.411 216.596 350.645 247.425C348.609 252.563 346.089 257.507 343.18 262.257C345.022 267.686 344.537 273.988 339.981 279.611C347.349 290.275 363.054 294.153 374.397 286.979C375.948 286.009 378.275 285.137 379.244 286.591C374.591 303.169 355.008 314.706 338.527 318.099C339.302 320.328 340.078 322.558 340.854 324.788C341.338 324.982 341.726 325.079 342.211 325.273C355.783 330.799 368.095 338.651 379.535 347.764C390.781 356.78 401.251 366.669 411.237 377.042C420.834 387.028 429.947 397.595 438.285 408.744C442.357 413.494 446.234 418.535 449.724 423.77C456.705 434.338 462.231 445.971 465.818 458.09C468.92 468.075 470.665 478.642 469.889 489.112ZM268.047 197.594C271.052 195.461 274.154 193.522 277.547 191.971C274.057 193.232 270.761 195.17 268.047 197.594ZM246.331 268.947C246.912 269.141 247.397 269.625 247.397 270.304C247.3 272.437 247.203 274.57 247.106 276.702C246.621 286.882 246.137 296.964 245.749 307.144C245.361 316.838 244.876 326.533 244.586 336.228C250.887 338.457 257.383 340.203 263.975 341.366C289.666 345.922 316.714 342.044 340.078 330.411C338.721 326.63 337.363 322.849 336.103 319.068C332.322 308.21 328.832 297.255 325.439 286.3H325.342C321.367 286.3 317.489 285.137 314.29 282.81C313.611 282.325 313.514 281.453 313.999 280.774C314.484 280.096 315.357 279.999 316.035 280.483C322.143 285.04 331.837 284.167 337.17 278.641C343.665 271.758 342.211 263.13 337.945 257.701C333.583 252.272 325.536 248.879 317.392 253.629C316.714 254.017 315.841 253.823 315.453 253.144C315.066 252.466 315.259 251.593 315.938 251.109C316.714 250.624 317.489 250.236 318.265 249.945C317.392 245.098 316.617 240.251 315.841 235.403C287.436 235.985 272.7 218.341 284.625 192.165C277.257 194.589 270.567 199.145 264.653 203.799C253.989 212.427 244.78 222.606 235.667 232.786C228.493 240.735 221.415 249.17 213.078 255.956C213.272 256.053 213.563 256.15 213.757 256.247C224.518 260.512 235.473 264.778 246.331 268.947ZM231.304 506.854C233.437 506.854 235.376 505.787 236.83 503.848C238.769 501.231 239.447 497.547 238.575 494.154L212.205 398.758C211.139 394.88 208.231 392.263 205.031 392.263H72.2145C70.0817 392.263 68.1428 393.329 66.6886 395.268C64.7497 397.886 64.071 401.57 64.9436 404.963L91.313 500.358C92.3794 504.236 95.2879 506.854 98.4872 506.854H231.304V506.854ZM229.559 437.537C229.074 437.537 228.589 437.634 228.105 437.537C226.747 437.343 225.875 436.761 225.293 435.986L234.212 468.366C235.667 467.978 237.024 467.59 238.478 467.203C238.09 466.524 237.896 465.651 237.896 464.779C237.702 460.319 242.453 457.896 246.331 457.605C249.045 457.411 251.857 457.993 254.571 457.023C255.734 456.635 256.704 455.86 256.898 454.599C257.092 453.727 257.092 452.854 256.898 451.982C256.219 448.88 252.244 448.201 249.433 447.91C245.555 447.522 241.483 447.813 237.605 447.038C233.243 446.165 229.171 442.093 229.559 437.537ZM235.085 471.08L241.289 493.475C241.58 494.638 241.774 495.802 241.774 496.868C263.102 496.868 281.231 496.868 291.12 496.868C286.951 494.541 283.17 491.342 280.456 487.367C276.772 482.132 274.639 475.346 268.434 472.535C262.327 469.82 255.347 471.565 248.948 471.468C246.428 471.468 243.228 470.983 240.902 469.432C238.963 470.014 237.024 470.499 235.085 471.08ZM300.621 501.715V501.619V501.522C300.621 501.037 300.427 500.649 300.136 500.358C299.457 500.164 298.779 500.067 298.1 499.874C293.544 499.874 270.373 499.874 241.58 499.874C240.611 505.399 236.539 509.859 231.207 509.859H105.758C108.279 516.451 114.58 521.105 121.948 521.105H283.17H283.267C288.115 521.105 292.574 519.166 295.87 515.579C299.36 511.798 301.009 506.757 300.621 501.715ZM305.274 495.414C307.116 492.99 308.667 490.373 310.025 487.755C312.739 482.423 314.678 476.509 315.26 470.596C315.453 467.978 315.55 465.361 314.969 462.743C314.775 461.87 314.581 460.998 314.29 460.028C311.769 456.441 309.152 453.048 306.341 449.849C299.942 442.384 292.865 435.307 285.012 429.393C277.838 423.964 269.792 419.117 261.067 416.984C253.408 415.142 245.458 416.015 238.963 420.571C238.284 421.056 237.508 421.638 236.83 422.219C246.912 419.311 257.77 420.086 267.368 424.546C269.113 425.322 267.562 427.842 265.914 427.067C255.734 422.316 243.422 422.122 233.146 426.679C232.758 426.873 232.467 426.873 232.176 426.776C231.886 426.873 231.595 427.067 231.304 427.164C230.431 427.745 229.559 428.424 228.977 429.296C228.105 430.557 227.232 432.399 227.717 433.853C227.814 434.241 228.105 434.628 228.492 434.725C229.365 435.016 230.237 434.725 231.11 434.435C231.207 434.435 231.207 434.435 231.304 434.435C239.835 424.061 254.571 429.684 263.684 435.986C265.235 437.052 263.781 439.573 262.23 438.506C254.183 432.98 240.902 427.164 233.34 436.47C233.243 436.664 233.049 436.761 232.952 436.761C232.952 436.761 232.952 436.761 232.952 436.858C231.692 439.767 234.503 442.869 237.024 443.935C238.672 444.614 240.611 444.614 242.453 444.711C246.622 444.905 251.178 444.711 255.153 446.165C258.74 447.522 260.679 450.431 260.291 454.309C260.097 455.666 259.903 456.829 258.837 457.896C257.964 458.865 256.898 459.447 255.734 459.835C253.117 460.707 250.305 460.61 247.591 460.513C245.652 460.513 243.519 460.901 242.162 462.355C241.289 463.325 240.902 464.585 241.386 465.651C242.162 467.493 244.489 468.269 246.331 468.463C249.433 468.948 252.729 468.56 255.831 468.366C262.23 467.978 268.822 468.269 273.96 472.632C278.711 476.703 280.553 483.005 284.528 487.658C288.211 492.118 293.253 495.22 298.779 496.868C299.069 496.868 299.167 496.868 299.167 496.868C300.039 496.868 300.912 497.159 301.59 497.547C302.172 497.644 302.753 497.741 303.335 497.838C303.917 497.159 304.595 496.286 305.274 495.414ZM466.496 474.28C465.042 463.228 461.649 452.37 456.899 442.287C451.373 430.363 444.102 419.408 435.376 409.519C434.989 409.035 434.892 408.55 435.086 408.065L434.116 407.774C431.886 404.769 429.56 401.861 427.136 399.049C417.247 387.028 406.389 375.588 395.047 364.924C385.643 356.199 375.851 347.764 365.187 340.59C357.916 335.743 350.257 331.574 342.211 328.278C342.502 329.151 342.792 330.023 343.083 330.896C343.277 331.477 343.083 331.962 342.793 332.253C342.889 332.544 342.986 332.835 342.889 333.125C341.823 338.361 339.399 343.111 336.006 347.183C330.093 354.066 321.464 358.332 312.545 359.301C303.335 360.27 294.028 357.459 287.145 351.254C285.788 349.994 287.824 347.958 289.181 349.219C292.768 352.418 297.034 354.648 301.687 355.811C317.78 359.689 335.618 349.897 339.787 333.804C333.873 336.712 327.669 339.039 321.27 340.978C295.385 348.637 266.98 347.861 241.58 338.457C240.805 338.167 240.514 337.488 240.611 336.809C231.498 342.141 222.966 348.443 215.211 355.52C206.001 363.954 197.857 373.455 190.877 383.732C189.617 385.67 188.357 387.609 187.193 389.548H204.644C209.2 389.548 213.272 393.038 214.629 398.177L224.227 433.077C224.227 431.332 224.905 429.393 225.778 428.036C226.553 426.97 227.426 426.097 228.396 425.322C228.88 424.934 229.462 424.643 230.044 424.352C230.141 424.255 230.334 424.255 230.431 424.158C230.528 424.158 230.722 423.964 230.819 423.964C230.916 423.867 231.11 423.577 231.207 423.48C232.758 421.638 234.6 419.99 236.539 418.535C243.616 413.3 252.535 412.234 260.969 414.173C270.47 416.306 279.195 421.638 286.854 427.454C295.192 433.853 302.753 441.318 309.443 449.461C310.994 451.303 312.545 453.242 313.999 455.278C314.775 452.951 316.811 451.303 318.847 449.946C321.755 448.104 324.663 446.456 328.153 445.777C334.94 444.517 341.726 446.456 348.415 447.716C348.9 447.813 349.288 447.91 349.773 448.007C349.967 448.007 350.16 448.104 350.354 448.104C350.548 448.104 350.839 448.007 351.033 448.007C351.712 447.813 352.293 447.716 352.875 447.522C354.329 447.038 355.88 446.553 357.334 445.971C361.018 444.614 364.702 443.063 368.289 441.512C376.53 438.119 384.867 434.628 393.592 432.399C396.404 431.72 399.506 431.041 402.608 430.751C402.318 430.169 401.93 429.684 401.639 429.199C401.348 428.812 401.057 428.424 400.573 428.036C400.476 427.939 400.476 427.939 400.573 428.036C400.476 427.939 400.379 427.842 400.185 427.745C399.991 427.551 399.797 427.261 399.603 426.97C399.312 426.582 399.021 426.194 398.731 425.903C396.21 422.995 393.108 420.862 389.618 419.214C384.092 416.693 377.305 415.918 372.749 411.652C366.253 405.641 368.968 394.686 370.907 387.416C371.392 385.574 374.203 386.349 373.718 388.191C372.458 392.844 371.295 397.886 371.779 402.733C372.07 405.641 373.04 408.065 375.076 409.907C376.918 411.555 379.632 412.525 382.056 413.397C388.745 415.724 395.337 417.954 400.282 423.383C400.669 423.77 400.96 424.158 401.348 424.643C401.639 425.031 402.221 425.515 402.318 426C402.415 426 402.415 426.097 402.511 426.097C402.608 426.194 402.705 426.291 402.802 426.291C402.996 426.485 403.19 426.679 403.384 426.873C404.354 428.036 405.129 429.393 405.905 430.751V430.848C409.007 430.944 412.109 431.623 414.727 433.174C417.635 434.919 419.574 437.828 420.544 441.027C420.834 441.899 421.028 442.869 421.125 443.838C421.222 444.614 421.319 445.099 420.931 445.777C420.737 446.165 420.447 446.65 420.156 447.038C419.186 448.298 418.023 449.461 416.375 449.655C413.176 450.043 410.946 446.747 409.492 444.42C407.359 441.027 405.808 437.343 404.063 433.756C403.481 433.756 402.899 433.756 402.415 433.853C394.271 434.532 386.225 437.44 378.663 440.445C371.295 443.354 364.121 446.65 356.656 449.364C355.298 449.849 354.038 450.334 352.584 450.625C352.002 450.819 351.421 450.915 350.936 451.012C349.579 451.303 347.931 450.722 346.67 450.431C340.272 449.17 333.486 447.231 326.99 449.073C324.082 449.946 321.173 451.594 318.847 453.533C317.198 454.89 316.326 456.441 316.617 458.574C316.811 459.835 317.295 461.095 317.489 462.258C317.78 463.519 317.877 464.779 317.974 466.039C318.071 468.754 317.877 471.565 317.392 474.28C316.326 479.999 314.29 485.622 311.479 490.761C310.121 493.281 308.57 495.608 306.825 497.838C305.953 498.904 305.08 499.97 304.111 500.843C303.626 501.231 304.111 500.843 303.82 501.134C303.82 501.134 303.82 501.134 303.723 501.134V501.231C303.82 501.328 303.82 501.425 303.917 501.619C303.917 501.715 304.014 501.715 304.014 501.812C304.014 501.812 304.014 501.812 304.111 501.909C304.208 502.103 304.402 502.2 304.595 502.394C304.789 502.588 304.983 502.782 305.177 502.879C305.371 503.073 305.565 503.17 305.662 503.267C308.183 505.109 311.091 506.563 313.999 507.823C322.918 511.798 332.516 514.609 342.017 516.936C352.972 519.651 364.121 521.687 375.366 522.365C384.382 522.85 393.592 522.268 402.608 521.686C412.885 521.008 423.161 520.135 433.438 518.875C437.509 518.39 441.678 517.809 445.75 517.033C447.301 516.742 448.852 516.451 450.403 516.064C450.985 515.87 451.566 515.773 452.148 515.579C452.439 515.482 452.633 515.385 452.924 515.288C453.021 515.288 453.311 515.094 453.408 515.094C459.225 512.477 462.909 506.272 464.751 500.455C467.563 492.118 467.563 483.005 466.496 474.28ZM350.451 448.007H350.548C350.354 448.007 350.257 448.007 350.451 448.007ZM418.605 444.226C418.605 444.129 418.605 444.129 418.605 444.032C418.508 443.644 418.411 443.16 418.314 442.675C418.12 441.899 417.926 441.027 417.538 440.251C415.696 435.889 411.915 434.144 407.65 433.659C408.813 436.083 409.976 438.506 411.237 440.833C412.012 442.287 412.788 443.644 413.854 444.905C414.242 445.39 414.727 445.874 415.115 446.068C415.211 446.165 415.405 446.262 415.502 446.262C415.696 446.359 415.599 446.262 415.599 446.359C415.696 446.359 415.793 446.456 415.987 446.456C415.987 446.456 415.987 446.456 416.084 446.456C416.181 446.456 416.278 446.456 416.278 446.456C416.375 446.456 416.472 446.456 416.569 446.359C416.569 446.359 416.763 446.262 417.053 446.068C417.344 445.874 417.926 445.099 418.314 444.614C418.411 444.614 418.508 444.42 418.605 444.226ZM418.605 444.226C418.605 444.42 418.702 444.42 418.605 444.226V444.226ZM158.4 442.19C160.824 446.165 161.308 451.691 158.885 455.86C156.461 460.222 150.838 462.355 146.282 460.028C142.307 457.993 140.368 453.145 140.368 448.88C140.368 445.486 141.531 442.287 143.858 440.154C143.955 439.767 144.149 439.476 144.537 439.185C146.96 437.537 149.966 436.664 152.777 437.44C155.104 438.215 157.14 440.057 158.4 442.19ZM155.298 442.772C154.231 441.415 152.971 440.542 151.323 440.154C150.741 440.057 149.675 440.057 148.899 440.251C148.802 440.251 148.802 440.251 148.705 440.348C148.511 440.542 148.318 440.639 148.124 440.736C144.246 442.19 142.792 446.456 143.276 450.334C143.47 451.885 144.052 453.63 145.022 455.084C145.797 456.344 147.057 457.411 148.415 457.799C149.966 458.283 151.808 458.09 153.456 457.314C155.104 456.441 156.364 454.793 156.946 453.145C158.206 449.752 157.527 445.583 155.298 442.772ZM281.522 349.994C282.298 348.346 279.777 346.795 279.002 348.54C275.996 354.841 269.986 358.816 263.199 359.883C257.189 360.852 250.402 359.204 246.427 354.357C243.907 351.351 243.034 347.474 243.131 343.596C243.131 341.754 240.223 341.754 240.223 343.596C240.126 347.57 240.999 351.642 243.325 355.035C245.361 358.041 248.27 360.174 251.663 361.531C258.449 364.245 266.496 363.179 272.7 359.495C276.578 357.265 279.68 353.969 281.522 349.994ZM273.766 291.826V291.923C273.766 291.923 273.766 291.826 273.766 291.826ZM253.698 249.17C254.571 249.364 255.153 248.879 255.444 248.2C256.607 245.292 257.867 242.286 259.031 239.378C259.321 238.699 258.74 237.73 258.061 237.633C257.189 237.439 256.607 237.924 256.316 238.602C255.153 241.511 253.892 244.516 252.729 247.425C252.438 248.103 253.02 248.976 253.698 249.17ZM271.343 293.765C269.985 291.535 271.634 288.627 273.766 287.561C274.445 287.173 275.221 286.979 275.996 286.882C276.19 284.07 279.292 282.131 281.91 281.938C283.461 281.841 285.109 282.422 286.176 283.489C286.66 283.973 287.048 284.652 287.339 285.331C289.181 283.101 290.635 280.483 291.508 277.672C292.089 275.927 294.901 276.702 294.319 278.448C293.35 281.55 291.701 284.458 289.763 286.979C290.053 287.173 290.247 287.464 290.344 287.754C291.12 290.081 291.314 292.602 290.926 295.025C290.344 298.225 288.211 301.618 284.721 302.199C280.747 302.878 277.741 299.873 275.802 296.77C272.7 297.74 269.404 298.225 266.011 298.031C264.169 297.934 264.169 295.025 266.011 295.122C268.143 295.219 270.179 295.025 272.215 294.638C271.828 294.444 271.537 294.153 271.343 293.765ZM273.766 292.311C273.96 292.505 273.863 292.408 273.766 292.311V292.311ZM286.079 290.857C283.849 292.893 281.231 294.541 278.42 295.704C278.808 296.286 279.195 296.77 279.583 297.255C279.971 297.643 280.262 297.934 280.65 298.322C280.65 298.322 280.65 298.322 280.747 298.419C280.844 298.515 280.941 298.515 280.941 298.612C281.134 298.709 281.328 298.903 281.522 299C281.619 299.097 281.716 299.097 281.813 299.194C281.813 299.194 281.91 299.194 281.91 299.291C282.007 299.291 282.201 299.388 282.298 299.388C282.492 299.388 282.589 299.485 282.782 299.485C282.782 299.485 283.073 299.485 283.073 299.582C283.17 299.582 283.364 299.582 283.461 299.582C283.558 299.582 283.752 299.582 283.849 299.582H283.946C284.043 299.582 284.237 299.485 284.334 299.485C284.431 299.485 284.721 299.388 284.721 299.388C284.818 299.388 284.915 299.291 285.012 299.291C285.109 299.194 285.303 299.194 285.4 299.097C285.4 299.097 285.594 299 285.594 298.903L285.691 298.806C285.788 298.709 285.788 298.709 285.885 298.612C285.982 298.515 286.079 298.419 286.176 298.322C286.273 298.225 286.369 298.128 286.369 298.031C286.369 298.031 286.564 297.837 286.564 297.74C286.757 297.449 286.951 297.061 287.145 296.77C287.145 296.674 287.242 296.48 287.339 296.48C287.436 296.383 287.436 296.189 287.533 296.092C287.63 295.704 287.727 295.316 287.824 294.928C287.921 294.541 287.921 294.25 288.018 294.056C288.115 292.699 288.018 291.535 287.824 290.372C287.63 290.857 287.048 291.244 286.466 291.244C286.37 290.954 286.273 290.954 286.079 290.857ZM278.808 287.27C278.808 287.367 278.808 287.464 278.808 287.561C280.068 288.239 281.134 289.306 281.91 290.469C282.976 289.693 284.043 288.821 285.012 287.948C284.915 287.561 284.818 287.076 284.721 286.688V286.591C284.721 286.494 284.625 286.494 284.625 286.397C284.528 286.203 284.431 286.106 284.334 285.912C284.237 285.815 284.237 285.815 284.237 285.815L284.14 285.719C284.043 285.622 283.946 285.525 283.752 285.428C283.655 285.428 283.655 285.331 283.558 285.331C283.461 285.234 283.364 285.234 283.17 285.137H283.073C282.976 285.137 282.783 285.04 282.686 285.04H282.589C282.492 285.04 282.298 285.04 282.201 285.04C282.104 285.04 281.91 285.04 281.813 285.04H281.716C281.425 285.137 281.134 285.137 280.941 285.234C280.844 285.234 280.844 285.234 280.747 285.331C280.65 285.428 280.553 285.428 280.456 285.525C280.262 285.622 279.971 285.815 279.777 285.912L279.68 286.009C279.583 286.106 279.486 286.203 279.389 286.3C279.389 286.3 279.292 286.397 279.195 286.494C279.195 286.591 279.098 286.591 279.098 286.688C279.001 286.785 279.002 286.882 278.905 286.979V287.076C278.905 286.979 278.808 287.076 278.808 287.27ZM275.996 289.887C276.093 289.887 276.093 289.887 276.093 289.887C276.093 289.887 275.996 289.887 275.996 289.887ZM273.67 291.923V292.02V292.117C273.67 292.02 273.573 292.02 273.67 292.117V292.214C273.67 292.214 273.67 292.214 273.67 292.117C273.767 292.214 273.766 292.214 273.863 292.311C273.96 292.408 274.057 292.408 274.154 292.505C274.445 292.602 274.639 292.602 274.93 292.699C275.027 292.699 275.124 292.699 275.221 292.699C275.414 292.699 275.511 292.699 275.705 292.699C276.093 292.699 276.481 292.893 276.675 293.086C277.547 292.699 278.323 292.311 279.195 291.923C278.226 291.341 277.256 290.663 276.675 289.693C276.675 289.693 276.675 289.693 276.578 289.693C276.481 289.693 276.384 289.693 276.287 289.693C276.19 289.693 276.093 289.693 275.996 289.693H275.899C275.802 289.693 275.318 289.79 275.221 289.887C275.221 289.887 275.511 289.693 275.318 289.79C275.318 289.79 275.221 289.79 275.221 289.887C275.124 289.887 275.027 289.984 274.93 290.081C274.833 290.178 274.736 290.178 274.639 290.275C274.445 290.372 274.348 290.566 274.251 290.663C274.251 290.663 274.251 290.663 274.154 290.76C274.154 290.857 274.057 290.857 274.057 290.954C273.96 291.051 273.96 291.148 273.96 291.244C273.96 291.341 273.863 291.438 273.863 291.535C273.766 291.729 273.67 291.729 273.67 291.923ZM261.745 250.527C262.618 250.721 263.199 250.236 263.49 249.557C264.557 246.843 265.526 244.128 266.592 241.511C266.883 240.832 266.302 239.863 265.623 239.766C264.75 239.572 264.169 240.057 263.878 240.735C262.811 243.45 261.842 246.164 260.776 248.782C260.485 249.364 261.066 250.333 261.745 250.527ZM263.878 217.565C264.653 217.565 265.332 217.565 266.108 217.565C266.495 217.565 266.883 217.371 267.174 217.177C267.465 216.886 267.659 216.499 267.562 216.111C267.562 215.723 267.465 215.335 267.174 215.044C266.883 214.754 266.495 214.657 266.108 214.657C265.332 214.657 264.653 214.657 263.878 214.657C263.49 214.657 263.102 214.851 262.812 215.044C262.521 215.335 262.327 215.723 262.424 216.111C262.424 216.499 262.521 216.886 262.812 217.177C263.102 217.468 263.49 217.565 263.878 217.565Z" fill="black"/>
</svg>
