<svg width="600" height="600" viewBox="0 0 600 600" fill="none" xmlns="http://www.w3.org/2000/svg">
<path d="M269.357 317.822C273.935 302.061 279.395 288.853 285.823 278.022C292.251 267.191 300.704 254.776 311.094 240.775C318.667 230.385 324.655 221.755 328.969 215.063C333.284 208.371 336.894 200.887 339.8 192.609C342.618 184.332 344.026 175.527 344.026 166.017V165.753C344.026 149.287 339.8 136.519 331.347 127.361C322.893 118.292 311.094 113.713 295.949 113.713C280.628 113.713 268.74 119.348 260.287 130.619C251.834 141.89 247.519 157.828 247.343 178.521V178.785H188.523V178.521C189.315 153.513 193.982 132.116 202.7 114.417C211.417 96.7185 223.656 83.1582 239.33 73.9125C255.092 64.6668 273.759 60 295.333 60C317.874 60 337.246 64.1385 353.272 72.5036C369.386 80.8688 381.626 92.9323 390.079 108.782C398.532 124.632 402.759 143.651 402.759 166.017V166.281C402.759 179.754 400.998 191.817 397.475 202.648C393.953 213.478 389.727 222.812 384.708 230.825C379.688 238.75 372.82 248.436 364.103 259.795C354.593 271.946 346.932 282.689 341.121 292.023C335.221 301.444 330.29 312.715 326.328 325.835C322.365 339.044 320.34 354.189 320.34 371.447H262.4C262.576 351.459 264.778 333.584 269.357 317.822ZM261.08 416.795H321.925V477.641H261.08V416.795Z" fill="#F4F6F9"/>
<path d="M472.762 462.583C464.837 440.922 469.24 431.764 466.158 409.222C462.812 385.007 455.239 360.176 445.201 338.339C441.767 330.854 435.867 321.872 430.232 315.445C406.017 287.972 383.739 263.316 348.341 247.379V247.555C347.901 245.089 347.461 242.624 346.933 240.246C350.103 237.164 353.977 234.435 357.851 231.793C364.367 227.302 370.795 222.812 377.311 218.409C378.896 217.352 380.481 216.207 381.362 214.799C382.242 213.39 382.33 211.541 381.01 210.572C380.041 209.868 378.544 209.78 377.135 209.604C375.022 209.427 372.821 209.251 370.707 209.692C368.594 210.044 366.569 210.924 364.719 211.893C357.059 215.591 350.191 219.994 343.498 224.661C341.385 215.679 339.008 206.257 336.542 194.986C336.542 194.81 336.542 194.722 336.63 194.546C341.121 195.691 346.14 194.987 349.838 192.169C355.738 187.766 357.675 178.785 354.065 172.357C351.159 167.161 344.907 164.079 339.008 164.608C339.624 135.638 333.372 118.467 316.554 119.26C308.981 119.084 301.409 122.43 295.157 126.833C276.401 140.041 257.998 153.777 241.356 165.4C241.356 165.4 260.816 177.023 270.414 182.659C270.414 182.659 262.225 213.038 255.62 233.818C255.356 233.818 255.18 233.73 254.916 233.73C251.042 233.554 246.727 235.491 245.67 238.661C244.878 241.127 246.111 243.857 247.96 245.882C248.488 246.498 249.104 247.027 249.721 247.555C212.65 274.94 187.643 289.028 165.981 325.13C158.057 338.251 140.974 363.786 136.043 377.963C130.055 395.31 123.539 412.04 132.521 430.795C129.527 431.236 124.948 432.821 124.42 435.462C123.803 438.368 124.684 441.362 125.565 444.18C126.533 447.438 127.854 451.048 131.288 452.633C127.59 454.658 125.477 458.62 126.005 462.407C126.533 466.193 129.791 469.539 133.93 470.684C129.175 473.502 130.143 480.37 134.37 483.716C138.685 487.062 144.848 487.766 150.572 488.207C156.295 488.647 162.371 488.911 167.214 491.729L167.831 490.936C167.919 495.251 171.617 498.861 175.667 501.415C195.392 514.006 228.5 510.308 248.488 522.548L250.513 524.749C256.941 532.234 266.099 539.19 276.842 539.102C284.326 539.014 291.194 535.58 297.358 531.882C307.484 525.718 316.818 518.233 323.951 509.516C343.587 515.063 360.053 506.786 380.393 511.629C412.973 519.378 459.29 509.78 465.894 497.981C472.322 486.974 476.989 474.118 472.762 462.583Z" fill="white"/>
<path d="M195.215 140.746C196.096 146.821 196.272 153.073 196.624 159.237C196.712 160.91 194.07 160.91 193.982 159.237C193.63 153.514 193.454 147.702 192.75 142.067C192.221 137.752 191.077 133.085 188.259 129.651C185.881 126.833 182.271 124.72 178.485 124.632C174.787 124.632 171.264 127.009 170.736 130.796C170.472 132.557 171.088 134.406 172.585 135.462C173.906 136.431 175.755 136.871 177.252 135.991C178.749 135.198 180.07 137.488 178.573 138.28C173.818 140.834 168.006 136.783 168.006 131.588C168.006 126.745 171.969 122.695 176.724 121.99C181.214 121.374 185.881 123.399 189.051 126.481C192.838 130.267 194.511 135.639 195.215 140.746ZM210.801 177.905C210.801 177.905 210.713 177.905 210.801 177.905C210.713 177.905 210.713 177.905 210.801 177.905C210.713 177.817 210.713 177.816 210.713 177.816C210.713 177.905 210.713 177.905 210.801 177.905ZM210.448 179.049C210.448 178.961 210.448 178.961 210.448 179.049V179.049ZM213.442 178.169C213.354 179.842 212.298 181.075 210.977 182.043C210.713 182.219 210.448 182.395 210.184 182.571C209.832 182.836 209.392 182.924 208.952 182.836C208.775 182.748 208.599 182.659 208.423 182.571C207.807 182.131 207.367 181.515 207.102 180.722C206.75 179.666 206.926 178.257 207.719 177.376C207.631 177.112 207.631 176.848 207.719 176.584C207.983 175.791 208.599 175.175 209.392 174.911C210.096 174.735 210.801 174.823 211.417 175.087C212.562 175.703 213.53 176.848 213.442 178.169ZM209.568 180.106C209.568 180.106 209.568 180.018 209.568 180.106C209.568 180.018 209.568 180.018 209.568 180.106ZM209.656 179.049C209.832 178.873 209.744 178.961 209.656 179.049V179.049ZM210.184 177.288C210.184 177.376 210.184 177.376 210.184 177.288C210.096 177.376 210.096 177.376 210.184 177.288C210.184 177.376 210.184 177.376 210.184 177.288ZM210.625 178.785C210.625 178.697 210.713 178.609 210.713 178.609C210.713 178.521 210.801 178.433 210.801 178.257C210.801 178.169 210.801 178.081 210.801 177.993L210.713 177.905V177.993C210.625 177.905 210.625 177.905 210.537 177.816C210.537 177.816 210.537 177.816 210.448 177.816C210.36 177.816 210.272 177.728 210.272 177.728H210.184C210.184 177.728 210.184 177.728 210.096 177.728C210.096 177.905 210.184 177.993 210.184 178.169C210.184 178.433 210.008 178.873 209.832 179.137C209.744 179.225 209.656 179.313 209.568 179.313L209.48 179.401V179.49C209.48 179.578 209.48 179.578 209.48 179.666C209.48 179.754 209.48 179.93 209.48 180.018C209.48 180.018 209.48 180.018 209.48 180.106C209.568 180.018 209.832 179.842 209.48 180.106C209.568 180.018 209.568 180.018 209.656 179.93C209.832 179.842 209.92 179.666 210.096 179.578C210.184 179.49 210.184 179.49 210.272 179.401L210.36 179.313C210.36 179.313 210.36 179.401 210.272 179.401C210.448 179.049 210.537 178.873 210.625 178.785ZM469.063 218.85C467.39 218.409 466.686 220.963 468.359 221.403C472.762 222.548 474.611 227.655 473.378 231.706C471.969 236.373 467.478 239.719 462.988 241.127C458.145 242.624 452.773 242.184 448.283 239.719C444.056 237.429 440.006 233.819 434.898 233.643C430.584 233.467 425.653 236.02 425.389 240.775C425.3 242.448 427.942 242.448 428.03 240.775C428.294 236.549 434.018 235.756 437.188 236.725C439.829 237.517 442.119 239.19 444.408 240.599C446.786 242.008 449.163 243.329 451.893 244.033C457 245.354 462.547 244.738 467.214 242.272C471.529 240.071 475.403 236.02 476.284 231.001C477.164 225.894 474.347 220.171 469.063 218.85ZM411.828 246.675C411.828 246.675 411.828 246.587 411.828 246.675V246.675ZM414.206 245.002C414.646 245.97 414.734 247.115 414.118 248.084C413.677 248.788 412.973 249.228 412.092 249.405C411.3 249.581 410.419 249.493 409.715 249.052L409.627 248.964C408.482 249.405 406.985 249.052 406.281 247.908C406.193 247.732 406.017 247.467 406.017 247.291C405.929 246.939 406.017 246.587 406.193 246.235C406.369 245.794 406.545 245.354 406.897 245.002C407.514 244.121 408.306 243.505 409.363 243.065C411.036 242.272 413.325 243.153 414.206 245.002ZM410.419 245.354C410.331 245.354 410.243 245.442 410.155 245.442H410.067H409.979C410.067 245.442 410.155 245.53 410.331 245.53C410.86 245.618 411.212 246.147 411.3 246.675H411.388H411.476H411.564H411.652C411.652 246.675 411.74 246.675 411.828 246.587C411.828 246.587 411.828 246.587 411.828 246.499V246.411C411.828 246.411 411.828 246.411 411.828 246.323V246.235V246.323V246.235C411.828 246.235 411.828 246.235 411.828 246.147V246.058C411.74 245.97 411.74 245.882 411.652 245.794C411.652 245.794 411.652 245.794 411.564 245.706C411.476 245.618 411.388 245.53 411.3 245.53C411.3 245.53 411.3 245.53 411.212 245.53C411.124 245.53 411.036 245.442 410.948 245.354C411.036 245.354 411.124 245.354 410.948 245.354H410.86H410.772C410.684 245.354 410.331 245.266 410.595 245.266C410.772 245.354 410.683 245.266 410.595 245.266C410.507 245.266 410.507 245.266 410.419 245.266C410.507 245.354 410.507 245.354 410.419 245.354C410.331 245.354 410.419 245.354 410.419 245.354C410.419 245.354 410.331 245.354 410.419 245.354ZM411.916 246.499V246.411C411.828 246.411 411.828 246.499 411.916 246.499ZM411.828 246.323C411.828 246.323 411.828 246.235 411.828 246.323V246.235V246.323ZM410.507 245.354H410.419C410.507 245.442 410.507 245.354 410.507 245.354ZM451.805 118.556C451.453 115.21 450.22 111.864 447.842 109.398C445.729 107.285 442.911 105.876 440.006 105.348C436.836 104.732 433.313 105.084 430.496 106.845C428.03 108.342 424.156 113.009 427.678 115.386C429.087 116.355 430.408 114.065 428.999 113.097C428.294 112.656 430.143 110.455 430.584 110.015C431.464 109.222 432.521 108.606 433.666 108.166C436.131 107.373 438.773 107.461 441.15 108.254C443.616 109.046 445.817 110.543 447.226 112.745C448.987 115.562 449.515 118.996 449.075 122.166C448.107 129.387 443.176 135.11 437.188 138.721C430.408 142.859 422.747 144.356 415.35 146.998C411.388 148.406 407.425 150.432 404.872 153.866C402.494 157.036 401.174 161.086 402.406 164.961C402.935 166.546 405.488 165.841 404.96 164.256C403.727 160.47 405.576 156.595 408.306 153.954C411.388 150.96 415.703 149.551 419.665 148.406C427.678 145.941 435.867 143.563 442.471 138.192C448.283 133.701 452.509 126.217 451.805 118.556ZM400.469 179.049C399.941 179.049 399.413 179.049 398.884 179.049C398.708 179.049 398.532 179.049 398.356 179.137C398.18 179.225 398.092 179.313 397.916 179.401C397.828 179.49 397.74 179.666 397.652 179.842C397.563 180.018 397.563 180.194 397.563 180.37C397.563 180.722 397.652 181.074 397.916 181.339C398.18 181.603 398.532 181.691 398.884 181.691C399.413 181.691 399.941 181.691 400.469 181.691C400.645 181.691 400.821 181.691 400.998 181.603C401.174 181.515 401.262 181.427 401.438 181.339C401.526 181.251 401.614 181.074 401.702 180.898C401.79 180.722 401.79 180.546 401.79 180.37C401.79 180.018 401.702 179.666 401.438 179.401C401.174 179.137 400.821 179.049 400.469 179.049Z" fill="black"/>
<path d="M271.998 305.759C270.501 304.966 271.822 302.677 273.319 303.469C284.942 309.633 298.855 311.394 311.711 308.841C313.384 308.489 314.088 311.042 312.415 311.394C298.855 314.124 284.326 312.187 271.998 305.759ZM475.579 477.376C475.227 483.012 473.642 488.471 470.736 493.314C467.919 497.893 464.044 501.679 459.642 504.585C449.075 511.629 435.955 514.183 423.54 515.152C416.143 515.768 408.658 515.68 401.262 515.24C397.299 514.975 393.337 514.623 389.374 514.095C385.148 513.567 381.097 512.774 376.959 512.07C367.889 510.573 358.82 511.541 349.75 512.246C341.473 512.862 333.284 512.95 325.183 510.925C321.397 515.768 317.082 520.083 312.239 523.869C309.95 525.63 307.66 527.303 305.195 528.888C302.465 530.649 299.647 532.146 297.006 533.907C292.075 537.253 286.263 539.366 280.275 539.895C268.564 540.863 257.381 535.052 250.161 525.982C249.633 525.278 249.016 524.573 248.488 523.781C248.4 523.781 248.224 523.693 248.048 523.605C241.708 519.73 234.487 517.617 227.267 516.12C213.707 513.214 199.618 512.246 186.41 507.755C180.246 505.642 173.378 502.648 169.239 497.277C168.183 495.956 167.478 494.459 167.038 492.874C166.95 492.874 166.862 492.786 166.774 492.786C162.899 490.584 158.409 490.056 154.006 489.704C147.05 489.176 138.684 489.176 133.137 484.156C129.439 480.81 128.382 474.823 131.552 471.125C128.294 469.54 125.476 466.634 124.86 462.935C124.155 458.973 126.005 455.187 128.999 452.721C127.502 451.576 126.445 449.992 125.652 448.23C124.508 445.677 123.627 442.771 123.187 440.041C122.747 437.224 123.011 434.318 124.772 431.94C126.181 430.091 128.118 428.859 130.407 428.506C122.571 405.26 131.64 380.341 142.559 359.472C145.905 353.132 149.515 346.88 153.213 340.716C156.736 334.905 160.258 329.093 164.044 323.458C171 313.243 178.837 303.558 187.378 294.752C205.517 275.997 225.154 261.556 247.079 247.643C244.966 245.354 243.381 242.448 244.437 239.278C245.67 235.492 249.985 233.555 253.683 233.378C253.947 233.378 254.211 233.378 254.388 233.378C254.564 232.85 254.74 232.234 254.916 231.705C258.262 220.963 261.432 210.132 264.426 199.301C265.923 194.018 267.42 188.735 268.828 183.364C266.627 182.043 264.426 180.81 262.224 179.489C255.004 175.263 247.783 170.948 240.563 166.633C239.682 166.105 239.771 164.872 240.563 164.344C245.846 160.646 251.13 156.859 256.413 153.073C266.275 146.029 276.049 138.808 285.911 131.764C290.666 128.33 295.421 124.632 300.616 121.99C303.698 120.405 306.956 119.26 310.302 118.556C308.189 117.411 305.987 115.914 303.962 113.801C298.767 108.342 296.742 91.0829 307.836 82.7178C316.025 106.316 332.756 95.6617 350.102 110.895C363.487 122.782 354.505 151.576 343.586 163.64C348.253 164.608 352.656 167.514 354.945 171.741C358.82 178.785 356.794 188.471 350.278 193.226C347.461 195.339 343.939 196.396 340.416 196.396C339.536 196.396 338.743 196.308 337.863 196.22C338.655 200.006 339.536 203.704 340.416 207.491C341.649 212.686 342.97 217.969 344.203 223.164C345.612 222.195 347.02 221.227 348.517 220.258C352.656 217.617 356.794 215.063 361.197 212.862C363.399 211.717 365.6 210.572 367.977 209.78C370.355 208.987 372.82 208.899 375.286 208.987C377.399 209.075 379.953 209.075 381.714 210.396C383.299 211.717 383.475 213.918 382.594 215.679C381.626 217.705 379.512 219.026 377.751 220.346C375.462 221.931 373.173 223.516 370.883 225.101C366.392 228.271 361.814 231.353 357.323 234.523C353.536 237.165 349.75 239.806 346.58 243.24C347.109 244.209 347.461 245.178 347.637 246.234C347.989 246.146 348.341 246.146 348.694 246.322C351.775 247.995 354.769 249.668 357.851 251.43C369.915 258.474 381.626 266.311 392.544 275.116C403.463 283.833 413.589 293.519 422.571 304.262C431.817 315.269 439.83 327.156 446.346 339.924C453.39 353.748 458.761 368.365 462.459 383.423C464.485 391.612 466.07 399.977 467.214 408.43C468.359 416.707 468.535 424.984 468.711 433.349C468.887 440.922 469.592 448.407 471.705 455.715C472.41 458.004 473.378 460.294 473.994 462.671C474.435 464.344 474.699 466.105 474.875 467.866C475.579 470.948 475.756 474.118 475.579 477.376ZM261.96 218.145C260.463 223.34 258.878 228.535 257.293 233.643C265.042 235.051 270.501 242.712 277.017 246.675C284.062 250.989 293.131 254.159 301.408 252.398C306.075 251.43 310.038 248.436 313.912 245.794C317.875 243.064 321.749 240.159 325.623 237.253C331.171 233.114 336.63 228.888 342.266 224.925C339.976 215.151 337.511 205.465 335.397 195.691C332.844 194.899 330.554 193.578 328.705 191.641C328.177 191.112 328.177 190.32 328.705 189.792C329.234 189.263 330.026 189.263 330.554 189.792C335.221 194.547 343.674 195.251 349.046 191.2C354.417 187.238 356.178 178.961 352.92 173.061C349.662 167.25 341.737 164.344 335.485 166.809C334.781 167.074 334.077 166.721 333.812 166.017C333.548 165.313 333.9 164.608 334.605 164.344C335.133 164.168 335.662 163.992 336.278 163.816L333.46 163.023C325.183 153.866 329.674 144.444 329.145 136.343C328.441 124.367 322.453 123.135 315.409 120.581C309.597 120.757 304.138 122.959 299.207 125.864C294.188 128.858 289.521 132.556 284.678 135.991C279.835 139.513 274.992 142.947 270.149 146.469C261.432 152.809 252.715 159.061 243.909 165.313C244.173 165.489 244.437 165.577 244.614 165.753C253.419 171.036 262.312 176.319 271.206 181.515C271.734 181.779 271.998 182.483 271.822 183.011C271.294 185.037 270.766 186.974 270.149 188.999C267.508 198.773 264.778 208.459 261.96 218.145ZM249.104 245.97C250.689 247.643 252.626 248.964 254.476 250.373C256.149 251.606 257.646 253.015 259.142 254.511C267.331 263.229 270.413 275.028 276.137 285.242C281.772 283.129 288.288 284.89 293.924 286.211C297.886 287.179 301.937 288.06 305.899 289.029C309.509 289.909 313.296 290.525 316.818 291.758C319.019 292.551 321.397 293.784 322.365 295.985C326.592 292.375 329.322 287.091 333.636 283.481C336.278 281.192 339.8 279.431 341.737 276.525C342.97 274.764 343.058 272.386 341.385 271.33C341.121 271.506 340.945 271.682 340.681 271.858C340.064 272.386 339.448 272.915 338.831 273.443C337.599 274.588 336.542 275.732 335.397 276.965C334.957 277.494 333.988 277.405 333.548 276.965C333.02 276.437 333.108 275.644 333.548 275.116C335.309 273.091 337.246 271.242 339.272 269.569C339.272 269.128 339.448 268.6 339.888 268.424C341.825 267.631 343.498 266.046 343.939 263.933C344.379 262.084 343.674 260.323 342.706 258.738C340.504 260.763 338.391 262.788 336.19 264.814C335.661 265.342 334.869 265.342 334.341 264.814C333.812 264.373 333.812 263.405 334.341 262.965C336.718 260.763 339.096 258.562 341.473 256.273C341.473 256.008 341.649 255.656 341.825 255.48C344.731 252.926 346.404 249.052 344.995 245.53C343.058 247.555 341.033 249.492 339.096 251.518C338.567 252.046 337.775 251.958 337.246 251.518C336.718 250.989 336.718 250.109 337.246 249.668C339.536 247.379 341.737 245.09 344.027 242.8C344.115 242.624 344.203 242.448 344.291 242.272C345.788 240.511 347.461 239.014 349.31 237.517C353.096 234.435 357.235 231.705 361.285 228.976C365.6 225.982 369.915 222.988 374.229 219.994C376.166 218.673 378.368 217.441 379.953 215.679C380.481 215.063 381.097 214.095 380.833 213.214C380.569 212.422 379.512 212.245 378.72 212.069C376.431 211.717 373.965 211.541 371.676 211.893C369.21 212.245 367.009 213.302 364.807 214.359C348.253 222.548 334.165 234.611 319.195 245.354C315.409 248.083 311.535 250.989 307.396 253.102C303.698 254.952 299.559 255.656 295.421 255.48C287.496 255.04 279.483 251.87 272.967 247.203C269.269 244.561 266.187 240.951 262.312 238.574C258.79 236.372 254.388 235.14 250.425 236.901C248.928 237.605 247.343 238.75 246.991 240.423C246.551 242.448 247.784 244.561 249.104 245.97ZM173.994 478.433C174.17 478.257 174.346 478.169 174.522 478.081C173.642 476.936 172.849 475.791 172.057 474.647C170.208 472.005 168.271 469.452 165.893 467.162C163.604 464.961 160.962 463.112 158.32 461.35C153.037 457.828 147.402 454.57 143.175 449.815C138.596 444.708 134.722 438.897 132.08 432.557C131.816 432.028 131.64 431.5 131.464 430.972H131.376C129.351 431.06 127.59 432.293 126.621 434.054C125.476 436.167 125.652 438.633 126.269 440.834C127.237 444.708 128.382 449.551 132.256 451.488C133.137 451.929 133.049 453.338 132.256 453.778C129.263 455.451 126.973 458.885 127.678 462.495C128.382 465.929 131.376 468.483 134.634 469.363C135.691 469.716 135.955 471.213 134.986 471.741C132.521 473.238 131.992 475.968 132.873 478.609C134.81 484.685 142.647 486.006 148.106 486.534C154.446 487.15 161.138 486.974 166.95 489.792C167.038 488.999 167.126 488.295 167.39 487.503C168.447 483.98 171.264 481.075 173.994 478.433ZM244.878 519.026C243.029 516.472 241.179 514.007 239.066 511.629C236.248 508.371 233.255 505.289 229.909 502.648C224.537 498.421 218.373 495.956 211.857 494.195C203.14 491.817 194.335 489.704 185.793 486.886C184.297 486.358 182.712 486.006 181.391 485.037C180.158 484.156 179.013 483.188 177.957 482.131C177.34 481.515 176.724 480.81 176.107 480.106C176.019 480.194 176.019 480.282 175.931 480.37C173.202 483.1 169.503 486.446 169.503 490.584C169.415 494.371 172.585 497.453 175.491 499.478C180.598 503.088 186.586 505.29 192.662 506.874C199.178 508.636 205.782 509.692 212.386 510.837C223.128 512.598 234.751 514.183 244.878 519.026ZM322.365 510.309C320.78 509.78 321.485 507.315 323.07 507.755C323.422 507.843 323.686 507.931 324.038 508.019C324.038 508.019 324.038 508.019 324.038 507.931C330.026 499.742 333.988 490.32 335.926 480.37C339.976 459.149 334.693 436.871 326.24 417.412C323.95 412.128 320.956 407.109 319.019 401.65C317.346 396.895 316.554 391.876 316.642 386.945C316.73 377.523 319.812 368.541 322.013 359.472C324.214 350.226 325.183 340.892 321.837 331.823C320.868 329.181 319.548 326.628 318.051 324.25C317.17 322.841 316.29 321.521 315.321 320.288C314.352 318.967 312.856 317.734 312.151 316.237C311.535 315.005 311.006 313.42 310.742 311.835H310.918C311.182 307.344 316.114 304.526 318.755 301.356C319.724 300.211 320.78 298.626 320.076 296.953C319.107 294.664 315.849 293.872 313.736 293.343C306.427 291.494 298.943 289.909 291.634 288.148C288.817 287.532 285.999 286.915 283.093 286.827C280.628 286.739 277.986 286.915 275.785 288.236C273.231 289.733 272.527 292.375 272.527 295.104C272.527 298.098 273.055 300.916 272.615 303.91C272.351 305.583 269.797 304.878 270.061 303.205C270.678 299.683 269.533 296.073 270.061 292.463C270.413 289.909 271.822 287.796 273.848 286.387C270.766 281.016 268.476 275.204 265.835 269.569C264.162 265.958 262.224 262.524 259.847 259.266C257.205 255.744 253.859 253.102 250.425 250.461C250.073 250.197 249.633 249.844 249.28 249.492C243.645 253.102 239.771 255.832 234.223 259.707C213.442 273.971 193.894 290.085 177.957 309.545C169.768 319.495 162.987 330.238 156.295 341.157C149.075 352.956 142.119 365.107 137.099 378.051C132.521 389.674 129.439 402.09 130.407 414.682C131.464 427.538 137.276 440.041 146.345 449.199C150.836 453.778 156.559 456.86 161.843 460.47C164.396 462.231 166.95 464.256 169.151 466.546C171.264 468.747 173.026 471.301 174.875 473.854C176.724 476.408 178.573 478.961 180.95 481.075C182.183 482.219 183.504 483.188 185.177 483.716C186.498 484.156 187.819 484.597 189.139 485.037C193.718 486.534 198.385 487.855 203.052 488.999C209.92 490.761 216.965 492.258 223.392 495.339C230.349 498.597 236.072 503.881 241.091 509.692C244.966 514.095 248.4 518.85 251.834 523.605C255.268 528.448 260.111 532.322 265.57 534.788C270.678 537.077 276.401 537.869 281.948 537.077C284.766 536.637 287.496 535.844 290.138 534.788C293.043 533.467 295.597 531.53 298.327 530.033C307.308 525.014 315.761 518.498 322.365 510.309ZM472.322 466.37C471.617 462.143 469.856 458.181 468.799 454.042C467.831 450.344 467.214 446.557 466.862 442.771C466.158 435.639 466.422 428.418 466.07 421.198C465.277 404.468 461.755 387.649 456.824 371.711C452.421 357.623 446.434 343.974 438.949 331.207C431.817 319.231 423.363 308.048 413.854 297.922C404.52 287.972 394.129 278.99 383.123 270.889C372.028 262.7 360.317 255.48 348.253 248.876C347.989 251.694 346.668 254.423 344.643 256.537C346.228 258.914 347.373 261.644 346.668 264.55C346.228 266.487 344.995 268.16 343.41 269.392C344.731 270.537 345.524 272.298 345.347 274.235C345.083 277.141 343.146 279.343 340.945 281.104C338.479 283.129 335.661 284.89 333.46 287.268C329.85 291.142 327.12 295.809 322.894 298.979C322.718 300.3 322.101 301.532 321.309 302.677C319.9 304.526 318.139 306.023 316.466 307.608C315.233 308.841 313.648 310.338 313.56 312.187C313.736 313.244 314 314.476 314.528 315.357C315.233 316.501 316.378 317.558 317.258 318.703C323.862 327.332 327.473 337.546 326.592 348.553C325.888 357.887 322.629 366.78 320.692 375.85C318.579 385.8 318.843 395.838 323.334 405.172C325.887 410.543 328.617 415.827 330.818 421.374C332.932 426.745 334.781 432.205 336.278 437.752C341.561 457.916 342.001 479.93 332.756 499.038C331.083 502.472 329.145 505.73 326.944 508.812C330.114 509.604 333.46 510.044 336.718 510.132C345.436 510.573 354.065 509.164 362.782 508.812C367.273 508.636 371.852 508.812 376.254 509.428C380.481 510.044 384.62 510.925 388.846 511.453C403.375 513.302 418.256 513.831 432.785 511.453C444.056 509.604 455.943 505.906 464.132 497.629C472.233 489.264 474.171 477.641 472.322 466.37ZM391.312 425.689C393.425 427.626 392.456 430.355 390.783 432.205C388.846 434.406 385.764 436.255 382.77 435.727C380.393 435.374 378.896 433.437 378.368 431.236C378.28 430.884 378.192 430.443 378.015 430.091C376.431 431.412 375.11 432.997 373.613 434.494C371.676 436.431 369.562 438.016 367.009 439.161C362.078 441.45 356.442 442.331 350.983 441.538C349.31 441.274 350.014 438.721 351.687 438.985C353.096 439.161 354.417 439.249 355.826 439.161C361.637 438.897 367.361 436.871 371.588 432.733C373.349 430.972 375.022 429.123 376.959 427.538C373.965 421.022 368.065 416.179 364.455 410.015C362.342 406.405 361.197 402.442 361.99 398.216C362.43 395.662 363.751 393.461 364.896 391.259C366.04 389.234 367.977 386.24 367.009 383.775C366.04 381.221 362.342 380.781 360.141 379.724C357.675 378.58 355.474 376.907 353.537 375.057C349.75 371.271 347.108 366.252 346.316 360.969C346.052 359.296 348.605 358.591 348.87 360.264C349.662 365.988 352.656 371.183 357.147 374.793C359.348 376.554 361.814 377.699 364.455 378.668C367.273 379.724 369.65 381.485 369.827 384.743C370.091 389.762 365.6 393.725 364.543 398.48C363.663 402.178 364.895 405.788 366.833 409.046C370.443 415.034 376.078 419.789 379.16 426.129C381.009 425.16 383.035 424.632 385.06 424.368C387.173 424.104 389.727 424.28 391.312 425.689ZM386.028 426.921C384.091 427.009 381.978 427.538 380.217 428.506C380.305 428.682 380.305 428.77 380.393 428.947C380.921 430.532 381.097 432.821 383.123 433.173C384.62 433.437 386.205 432.557 387.349 431.676C388.318 430.972 389.375 430.003 389.727 428.859C390.431 426.921 387.173 426.833 386.028 426.921ZM309.157 140.745C307.044 143.123 305.459 145.853 304.402 148.846C304.138 149.463 304.666 150.343 305.283 150.431C305.987 150.608 306.692 150.167 306.868 149.551C306.956 149.199 307.132 148.935 307.22 148.582C307.22 148.494 307.308 148.406 307.308 148.318V148.23C307.396 148.054 307.484 147.878 307.484 147.79C307.748 147.173 308.101 146.469 308.453 145.853C308.805 145.236 309.157 144.708 309.597 144.092C309.686 143.915 309.774 143.827 309.862 143.651C309.862 143.651 309.862 143.651 309.862 143.563C309.862 143.563 309.862 143.563 309.862 143.475C309.95 143.387 309.95 143.299 310.038 143.299C310.302 143.035 310.478 142.771 310.742 142.419C311.182 141.89 311.271 141.01 310.742 140.569C310.478 140.305 309.597 140.217 309.157 140.745ZM294.981 149.463C295.685 149.815 296.389 149.551 296.83 149.023C298.503 146.645 300.176 144.268 301.849 141.89C302.289 141.362 301.937 140.393 301.408 140.041C300.704 139.689 300 139.953 299.559 140.481C297.886 142.859 296.213 145.236 294.54 147.614C294.1 148.23 294.364 149.199 294.981 149.463ZM296.389 133.877C298.591 134.406 300.88 134.934 303.081 135.462C303.786 135.638 304.578 135.286 304.666 134.582C304.843 133.877 304.49 133.085 303.786 132.997C301.585 132.468 299.295 131.94 297.094 131.412C296.389 131.236 295.597 131.588 295.509 132.292C295.245 132.909 295.685 133.701 296.389 133.877ZM308.189 131.852C308.805 132.204 309.686 132.028 310.038 131.412C310.654 130.179 311.535 129.21 312.767 128.594C313.824 128.066 314.969 127.802 316.114 128.242C316.114 128.242 316.378 128.33 316.378 128.418C316.466 128.506 316.554 128.506 316.642 128.594C316.73 128.594 316.73 128.682 316.818 128.682C316.818 128.682 316.818 128.682 316.906 128.77C316.994 128.858 317.17 128.946 317.258 129.122C317.258 129.122 317.434 129.386 317.522 129.386C317.61 129.475 317.61 129.563 317.698 129.651C317.786 129.827 317.875 129.915 317.963 130.091C317.963 130.179 318.051 130.267 318.051 130.267C318.139 130.531 318.227 130.795 318.315 131.06C318.315 131.06 318.315 131.059 318.315 131.148C318.315 131.236 318.315 131.236 318.315 131.324C318.315 131.5 318.315 131.588 318.315 131.764C318.315 131.764 318.315 131.764 318.315 131.852C318.315 132.028 318.227 132.116 318.227 132.292C318.227 132.292 318.227 132.292 318.227 132.38C318.227 132.468 318.139 132.468 318.139 132.556C318.139 132.645 317.875 132.997 318.051 132.733C317.61 133.261 317.522 134.053 318.051 134.582C318.491 135.022 319.459 135.11 319.9 134.582C320.78 133.525 321.133 132.204 320.956 130.795C320.78 129.475 320.164 128.242 319.283 127.361C317.17 125.16 313.912 125.16 311.447 126.657C309.95 127.537 308.717 128.858 308.012 130.355C307.308 130.707 307.484 131.5 308.189 131.852ZM277.105 228.712C277.546 229.24 278.514 229.152 278.955 228.712C279.483 228.183 279.395 227.391 278.955 226.862C277.194 224.661 275.961 222.107 275.256 219.466C274.728 217.529 274.2 214.711 275.432 212.862C276.753 210.925 279.219 212.51 280.187 214.007C280.98 215.151 281.244 216.56 281.596 217.881C281.948 219.29 282.389 220.699 283.005 222.107C283.798 223.604 285.999 222.284 285.295 220.787C284.062 218.321 284.062 215.503 282.741 213.126C281.596 211.101 279.483 209.252 277.017 209.34C274.64 209.428 272.967 211.277 272.439 213.478C271.822 215.856 272.263 218.409 272.967 220.787C273.759 223.604 275.168 226.334 277.105 228.712ZM266.891 305.054C250.425 311.747 238.626 327.596 235.808 345.031C235.104 349.346 234.928 353.836 235.368 358.239C235.632 360.44 235.984 362.642 236.513 364.755C237.217 367.661 238.186 370.567 238.626 373.473C239.418 378.492 238.098 383.07 235.192 387.121C232.462 390.995 228.764 394.253 225.154 397.335C217.493 404.115 207.895 414.77 213.178 425.777C213.883 427.274 216.172 425.953 215.468 424.456C211.065 415.21 219.87 405.7 226.21 399.977C232.814 394.077 240.563 387.649 241.444 378.227C241.972 372.68 239.683 367.309 238.538 361.937C237.657 357.799 237.481 353.572 237.833 349.346C238.538 340.892 241.444 332.615 246.11 325.571C251.306 317.646 258.702 311.13 267.508 307.52C269.093 306.904 268.476 304.35 266.891 305.054ZM335.75 180.722C335.838 180.634 335.926 180.546 336.014 180.37C336.19 180.194 336.278 180.018 336.454 179.841C336.806 179.489 337.07 179.137 337.423 178.873C338.127 178.257 338.655 177.816 339.448 177.288C341.033 176.319 342.442 175.615 344.203 175.175C344.907 174.998 345.347 174.206 345.083 173.59C344.907 172.885 344.115 172.533 343.498 172.709C339.448 173.678 335.926 176.143 333.46 179.401C333.02 179.93 333.372 180.898 333.9 181.25C334.605 181.603 335.309 181.25 335.75 180.722Z" fill="black"/>
</svg>
