<svg width="600" height="601" viewBox="0 0 600 601" fill="none" xmlns="http://www.w3.org/2000/svg">
<path d="M268.728 277.474C252.162 283.258 233.814 276.796 218.586 268.066C203.358 259.336 189.15 248.158 172.248 243.466C161.88 240.574 149.448 240.796 141.912 248.482C133.398 257.17 134.682 271.282 137.712 283.072C144.87 310.624 159.168 337.072 181.728 354.472C204.288 371.872 235.8 378.73 262.2 368.032C288.6 357.334 306.954 327.232 300.3 299.524C298.5 292.15 294.942 284.92 288.846 280.402C282.75 275.884 273.846 274.714 267.558 278.956L268.728 277.474Z" fill="#C5E6F1"/>
<path d="M160.272 241.738C164.331 241.766 168.367 242.341 172.272 243.448C189.174 248.158 203.382 259.336 218.61 268.048C229.806 274.468 242.688 279.664 255.312 279.664C259.884 279.691 264.429 278.945 268.752 277.456L267.582 278.938C270.26 277.186 273.4 276.275 276.6 276.322C281.006 276.358 285.288 277.786 288.834 280.402C294.93 284.92 298.512 292.15 300.288 299.524C306.954 327.208 288.6 357.334 262.2 368.032C253.664 371.444 244.548 373.172 235.356 373.12C216.3 373.12 196.986 366.148 181.752 354.424C159.192 337.066 144.894 310.624 137.736 283.054C134.682 271.276 133.398 257.152 141.936 248.464C146.688 243.616 153.39 241.738 160.296 241.738H160.272ZM160.272 237.538C151.416 237.538 144.036 240.298 138.912 245.524C130.908 253.69 129.144 266.668 133.674 284.11C137.29 298.365 142.908 312.034 150.36 324.712C158.292 338.02 167.994 349.138 179.16 357.754C195.318 370.192 215.79 377.32 235.326 377.32C245.06 377.377 254.713 375.543 263.748 371.92C277.614 366.298 289.512 355.75 297.252 342.226C305.25 328.264 307.77 312.748 304.35 298.54C302.766 291.94 299.22 282.88 291.318 277.018C287.057 273.864 281.902 272.149 276.6 272.122C274.159 272.109 271.734 272.515 269.43 273.322C269.268 273.292 269.103 273.274 268.938 273.268H268.716C268.572 273.259 268.428 273.259 268.284 273.268C267.929 273.305 267.581 273.385 267.246 273.508C263.393 274.82 259.347 275.477 255.276 275.452C245.112 275.452 233.466 271.726 220.662 264.394C216.552 262.036 212.418 259.432 208.416 256.918C197.502 250.054 186.216 242.95 173.364 239.368C169.099 238.166 164.691 237.541 160.26 237.508L160.272 237.538Z" fill="#4C3133"/>
<path d="M195.048 271.78L186.402 248.98C181.867 246.699 177.128 244.847 172.248 243.448C165.81 241.648 158.58 241.048 152.22 242.704L147.108 244.642C145.184 245.632 143.43 246.923 141.912 248.464C133.398 257.152 134.682 271.264 137.712 283.054C138.852 287.434 140.172 291.79 141.678 296.086L192.822 276.682C193.291 276.507 193.72 276.242 194.086 275.9C194.452 275.559 194.747 275.149 194.954 274.694C195.16 274.238 195.275 273.746 195.291 273.246C195.308 272.746 195.225 272.248 195.048 271.78V271.78Z" fill="#81C4D4"/>
<path d="M269.82 388.331C294.6 354.809 312.384 320.146 332.76 283.48C340.398 269.74 353.76 264.353 362.928 251.711C372.156 238.949 377.442 222.875 376.914 206.759C376.458 192.779 369.75 172.079 376.38 159.959C383.484 146.981 403.176 146.831 416.64 151.529C449.226 162.893 471.114 192.005 481.374 224.201C491.634 256.397 489.108 298.6 473.574 328.3C458.04 358 437.136 372.862 408.984 389.2C387.984 401.392 362.076 404.038 338.184 405.796C314.292 407.554 289.584 402.083 269.616 388.061L269.82 388.331Z" fill="#C5E6F1"/>
<path d="M400.038 148.726C405.689 148.749 411.298 149.702 416.64 151.546C449.226 162.91 471.114 192.022 481.374 224.218C491.634 256.414 489.108 298.618 473.574 328.318C458.04 358.018 437.136 372.862 408.984 389.2C387.984 401.392 362.076 404.038 338.184 405.796C335.312 406.008 332.432 406.114 329.544 406.114C308.544 406.114 287.394 400.456 269.886 388.246C294.636 354.748 312.402 320.116 332.76 283.48C340.398 269.74 353.76 264.352 362.928 251.71C372.156 238.948 377.442 222.874 376.914 206.758C376.458 192.778 369.75 172.078 376.38 159.958C380.85 151.798 390.294 148.708 400.038 148.708V148.726ZM269.616 388.06L269.886 388.246L269.82 388.33L269.616 388.06V388.06ZM400.038 144.526C387.15 144.526 377.436 149.296 372.696 157.96C367.404 167.62 369.402 181.216 371.166 193.204C371.892 198.184 372.588 202.888 372.714 206.896C373.103 222.083 368.462 236.973 359.514 249.25C355.692 254.536 351.066 258.454 346.17 262.606C340.014 267.826 333.648 273.226 329.082 281.44C325.74 287.44 322.434 293.476 319.23 299.302C302.928 329.002 287.508 357.082 267.444 384.454C267.138 384.641 266.856 384.865 266.604 385.12C265.907 385.833 265.486 386.771 265.416 387.766C265.347 388.761 265.634 389.748 266.226 390.55L266.43 390.826C266.896 391.461 267.533 391.95 268.266 392.236C285.588 404.068 306.75 410.314 329.532 410.314C332.496 410.314 335.532 410.2 338.478 409.984C363.426 408.184 389.58 405.322 411.078 392.836C423.798 385.45 437.172 377.194 448.77 366.922C460.632 356.422 469.686 344.77 477.27 330.268C492.984 300.208 496.236 257.068 485.358 222.946C473.538 185.854 448.986 158.38 418.008 147.58C412.215 145.586 406.135 144.555 400.008 144.526H400.038Z" fill="#4C3133"/>
<path d="M269.82 388.331L269.886 388.241L269.616 388.061L269.82 388.331Z" fill="#C5E6F1"/>
<path d="M269.616 388.06L269.886 388.24L269.82 388.33L269.616 388.06V388.06ZM269.616 383.86C268.839 383.86 268.077 384.075 267.415 384.482C266.753 384.889 266.217 385.471 265.866 386.165C265.516 386.858 265.364 387.635 265.429 388.409C265.493 389.183 265.771 389.925 266.232 390.55L266.43 390.826C266.82 391.355 267.33 391.784 267.916 392.08C268.503 392.376 269.151 392.53 269.808 392.53V392.53C270.465 392.531 271.112 392.378 271.699 392.083C272.286 391.788 272.795 391.36 273.186 390.832L273.234 390.76C273.572 390.309 273.816 389.795 273.951 389.247C274.085 388.7 274.109 388.131 274.019 387.575C273.93 387.018 273.729 386.485 273.429 386.008C273.129 385.531 272.736 385.119 272.274 384.796L272.1 384.676L272.022 384.622C271.319 384.129 270.481 383.863 269.622 383.86H269.616Z" fill="#4C3133"/>
<path d="M481.374 224.218C474.24 201.832 461.478 180.94 443.4 166.468C450.738 177.223 456.453 188.999 460.362 201.418C470.622 233.62 468.096 275.818 452.562 305.518C437.028 335.218 416.136 350.062 387.984 366.4C366.984 378.592 341.076 381.238 317.184 382.996C303.544 384.042 289.828 382.603 276.702 378.748C274.486 381.924 272.214 385.088 269.886 388.24C289.8 402.13 314.4 407.542 338.184 405.796C362.076 404.038 387.984 401.392 408.984 389.2C437.136 372.862 458.028 358.048 473.568 328.318C489.108 298.588 491.634 256.42 481.374 224.218Z" fill="#81C4D4"/>
<path d="M248.82 365.53L248.886 365.44L248.616 365.26L248.82 365.53Z" fill="#C5E6F1"/>
<path d="M248.616 365.26L248.886 365.44L248.82 365.53L248.616 365.26V365.26ZM248.616 361.06C247.839 361.06 247.077 361.275 246.415 361.682C245.753 362.089 245.217 362.671 244.866 363.364C244.516 364.058 244.364 364.835 244.429 365.609C244.493 366.383 244.771 367.124 245.232 367.75L245.43 368.026C245.82 368.555 246.33 368.984 246.916 369.28C247.503 369.576 248.151 369.73 248.808 369.73V369.73C249.465 369.731 250.112 369.578 250.699 369.283C251.286 368.988 251.795 368.559 252.186 368.032L252.234 367.96C252.572 367.509 252.816 366.994 252.951 366.447C253.085 365.9 253.109 365.331 253.019 364.774C252.93 364.218 252.729 363.685 252.429 363.208C252.129 362.73 251.736 362.318 251.274 361.996L251.1 361.876L251.022 361.822C250.319 361.329 249.481 361.063 248.622 361.06H248.616Z" fill="#4C3133"/>
<path d="M444.252 184.348C438.066 179.092 428.97 180.898 421.548 183.856C414.126 186.814 406.35 190.756 398.61 188.89C395.01 188.026 391.746 185.95 388.104 185.374C385.863 185.053 383.577 185.296 381.454 186.08C379.33 186.865 377.436 188.167 375.942 189.868C375.81 190.018 375.684 190.174 375.558 190.336C376.008 195.82 376.758 201.37 376.914 206.758C377.136 214.165 376.194 221.561 374.124 228.676C394.104 223.636 417.252 228.316 435.48 217.66C441.12 214.36 446.184 209.428 448.374 203.014C450.564 196.6 449.28 188.62 444.252 184.348Z" fill="#81C4D4"/>
<path d="M380.4 134.266C391.752 106.966 420.864 88.0662 450.42 88.8642C454.68 88.9722 459.588 89.8602 461.67 93.5742C464.016 97.7742 461.34 103.084 457.746 106.252C454.152 109.42 449.598 111.52 446.592 115.252C458.05 114.41 469.561 114.577 480.99 115.75C484.506 116.11 488.094 116.59 491.25 118.186C494.406 119.782 497.1 122.692 497.514 126.208C497.928 129.724 496.032 133.096 493.314 135.298C490.596 137.5 487.212 138.634 483.822 139.408C470.832 142.323 457.23 140.548 445.422 134.398C437.394 130.198 430.218 123.946 421.386 121.906C414.432 120.304 407.076 121.504 400.386 124.036C393.696 126.568 387.63 130.384 381.588 134.17" fill="#C5E6F1"/>
<path d="M471.636 142.84C462.187 142.858 452.873 140.594 444.486 136.24C441.78 134.818 439.164 133.174 436.632 131.578C431.442 128.308 426.546 125.224 420.954 123.934C415.104 122.584 408.27 123.292 401.196 125.98C394.698 128.452 388.626 132.256 382.764 135.934C382.295 136.225 381.731 136.322 381.192 136.204C380.808 136.355 380.389 136.389 379.986 136.302C379.583 136.216 379.215 136.013 378.926 135.719C378.638 135.425 378.442 135.052 378.364 134.648C378.286 134.243 378.328 133.825 378.486 133.444C384.138 119.848 394.428 107.71 407.466 99.2441C420.504 90.7781 435.786 86.3441 450.498 86.7341C457.098 86.9081 461.466 88.8521 463.53 92.5181C466.482 97.7741 463.332 104.122 459.156 107.794C457.667 109.057 456.107 110.233 454.482 111.316C453.774 111.808 453.078 112.294 452.406 112.78C462.014 112.365 471.639 112.65 481.206 113.632C484.86 114.004 488.712 114.52 492.204 116.278C496.404 118.384 499.146 121.99 499.608 125.932C500.07 129.874 498.174 134.038 494.67 136.894C491.394 139.564 487.41 140.716 484.308 141.424C480.15 142.369 475.9 142.844 471.636 142.84V142.84ZM414.87 119.062C417.234 119.054 419.591 119.313 421.896 119.836C428.184 121.288 433.614 124.708 438.87 128.02C441.33 129.568 443.88 131.17 446.442 132.52C457.815 138.409 470.896 140.108 483.396 137.32C487.338 136.42 489.996 135.28 492.03 133.63C494.43 131.668 495.75 128.902 495.456 126.43C495.102 123.43 492.576 121.168 490.326 120.034C487.476 118.594 484.056 118.15 480.798 117.814C469.492 116.657 458.107 116.493 446.772 117.322C446.363 117.357 445.952 117.27 445.592 117.073C445.231 116.876 444.937 116.577 444.745 116.213C444.553 115.85 444.472 115.438 444.513 115.03C444.553 114.621 444.713 114.233 444.972 113.914C446.994 111.4 449.58 109.606 452.076 107.872C453.566 106.881 454.998 105.805 456.366 104.65C459.408 101.974 461.58 97.6602 459.852 94.5822C458.568 92.2962 455.382 91.0721 450.378 90.9401C423.888 90.2441 397.29 106.24 384.9 129.646C389.582 126.659 394.534 124.116 399.69 122.05C404.529 120.151 409.672 119.146 414.87 119.086V119.062Z" fill="#4C3133"/>
<path d="M385.584 206.14C387.874 206.14 389.73 204.284 389.73 201.994C389.73 199.704 387.874 197.848 385.584 197.848C383.294 197.848 381.438 199.704 381.438 201.994C381.438 204.284 383.294 206.14 385.584 206.14Z" fill="#4C3133"/>
<path d="M418.152 201.994C420.442 201.994 422.298 200.138 422.298 197.848C422.298 195.558 420.442 193.702 418.152 193.702C415.862 193.702 414.006 195.558 414.006 197.848C414.006 200.138 415.862 201.994 418.152 201.994Z" fill="#4C3133"/>
<path d="M368.532 182.944C367.829 182.944 367.149 182.697 366.61 182.247C366.07 181.797 365.706 181.172 365.58 180.481C365.455 179.789 365.576 179.076 365.922 178.465C366.268 177.854 366.818 177.383 367.476 177.136L371.928 175.462C372.297 175.323 372.689 175.259 373.083 175.272C373.477 175.285 373.864 175.375 374.223 175.538C374.582 175.7 374.905 175.932 375.174 176.22C375.443 176.507 375.653 176.845 375.792 177.214C375.931 177.583 375.995 177.975 375.982 178.369C375.969 178.763 375.879 179.15 375.716 179.509C375.554 179.868 375.322 180.191 375.034 180.46C374.747 180.729 374.409 180.939 374.04 181.078L369.6 182.752C369.259 182.881 368.897 182.946 368.532 182.944V182.944Z" fill="#4C3133"/>
<path d="M410.598 178.546C410.447 178.546 410.297 178.534 410.148 178.51L405.45 177.796C405.049 177.75 404.662 177.624 404.311 177.425C403.96 177.226 403.653 176.959 403.408 176.638C403.163 176.318 402.985 175.952 402.885 175.561C402.785 175.171 402.764 174.764 402.825 174.365C402.885 173.966 403.026 173.584 403.237 173.241C403.449 172.898 403.728 172.6 404.057 172.367C404.386 172.134 404.758 171.97 405.152 171.884C405.547 171.798 405.954 171.793 406.35 171.868L411.048 172.582C411.793 172.698 412.467 173.091 412.936 173.683C413.404 174.274 413.633 175.02 413.576 175.772C413.52 176.524 413.182 177.227 412.63 177.741C412.078 178.255 411.352 178.543 410.598 178.546V178.546Z" fill="#4C3133"/>
<path d="M534.93 189.1C534.93 189.1 547.92 186.262 554.316 198.928C560.712 211.594 549.942 226.642 549.942 226.642C549.942 226.642 535.386 224.38 534.942 215.176C534.942 215.176 539.964 214.306 538.32 209.902C536.676 205.498 532.674 210.004 532.674 210.004C532.674 210.004 524.538 200.674 534.93 189.1Z" fill="#E2E2E0"/>
<path d="M549.942 228.742C549.836 228.751 549.73 228.751 549.624 228.742C548.958 228.64 533.364 226.09 532.866 215.296C532.842 214.785 533.006 214.283 533.327 213.884C533.647 213.485 534.102 213.217 534.606 213.13C535.05 213.046 536.124 212.668 536.46 212.068C536.554 211.84 536.597 211.594 536.586 211.348C536.576 211.101 536.512 210.86 536.4 210.64C536.336 210.443 536.243 210.257 536.124 210.088C535.418 210.38 534.79 210.832 534.288 211.408C534.087 211.626 533.843 211.8 533.571 211.92C533.3 212.04 533.007 212.102 532.71 212.104C532.413 212.102 532.12 212.038 531.85 211.915C531.581 211.792 531.34 211.613 531.144 211.39C531.048 211.282 521.886 200.512 533.394 187.702C533.69 187.376 534.08 187.15 534.51 187.054C534.654 187.024 549.168 184.054 556.212 197.986C563.106 211.624 552.144 227.212 551.676 227.872C551.478 228.145 551.216 228.367 550.915 228.518C550.613 228.669 550.28 228.746 549.942 228.742V228.742ZM537.342 216.586C538.806 221.464 545.994 223.606 548.982 224.302C551.172 220.738 557.262 209.362 552.468 199.87C547.608 190.27 538.554 190.714 536.046 191.05C530.046 198.136 531.714 204.064 533.178 206.878C534.274 206.098 535.624 205.761 536.958 205.936C538.026 206.14 539.478 206.86 540.336 209.164C540.684 209.955 540.845 210.816 540.807 211.679C540.77 212.543 540.535 213.386 540.12 214.144C539.458 215.226 538.48 216.078 537.318 216.586H537.342Z" fill="#B9B9B9"/>
<path d="M547.104 215.758C546.571 215.758 546.058 215.555 545.67 215.19C545.281 214.826 545.045 214.328 545.01 213.796C543.6 192.466 522.6 179.23 522.408 179.098C521.931 178.806 521.589 178.336 521.458 177.792C521.327 177.248 521.417 176.674 521.709 176.197C522.001 175.72 522.471 175.378 523.015 175.247C523.559 175.116 524.133 175.206 524.61 175.498C525.552 176.098 547.65 189.976 549.21 213.49C549.229 213.765 549.193 214.042 549.105 214.303C549.017 214.565 548.878 214.807 548.696 215.015C548.514 215.222 548.293 215.392 548.046 215.515C547.799 215.637 547.529 215.71 547.254 215.728L547.104 215.758Z" fill="#B9B9B9"/>
<path d="M494.826 423.352C497.982 429.736 507.702 430.03 513.354 425.704C519.006 421.378 521.598 414.244 523.908 407.506L527.31 397.564C520.68 403.27 510.324 400.102 502.032 402.88C498.423 404.171 495.306 406.554 493.115 409.699C490.923 412.843 489.766 416.592 489.804 420.424" fill="#E2E2E0"/>
<path d="M504.45 430.702C503.256 430.705 502.067 430.571 500.904 430.3C499.213 429.96 497.619 429.244 496.241 428.205C494.863 427.167 493.736 425.832 492.942 424.3C492.695 423.801 492.657 423.224 492.836 422.696C493.015 422.168 493.396 421.733 493.896 421.486C494.396 421.24 494.973 421.202 495.501 421.381C496.028 421.559 496.463 421.941 496.71 422.44C497.229 423.417 497.962 424.265 498.853 424.922C499.744 425.578 500.771 426.026 501.858 426.232C503.616 426.61 505.433 426.612 507.191 426.236C508.949 425.861 510.608 425.117 512.058 424.054C517.404 419.968 519.894 412.69 521.898 406.846L523.53 402.046C520.11 403.246 516.33 403.39 512.682 403.546C509.034 403.702 505.716 403.852 502.674 404.872C499.493 406.021 496.746 408.128 494.812 410.902C492.878 413.677 491.852 416.982 491.874 420.364C491.882 420.64 491.836 420.915 491.738 421.173C491.64 421.431 491.493 421.667 491.303 421.868C491.114 422.069 490.887 422.23 490.636 422.343C490.384 422.457 490.113 422.519 489.837 422.527C489.561 422.536 489.286 422.49 489.029 422.392C488.771 422.294 488.534 422.146 488.334 421.957C488.133 421.768 487.971 421.541 487.858 421.289C487.745 421.038 487.682 420.766 487.674 420.49C487.601 416.202 488.882 411.999 491.335 408.48C493.788 404.961 497.287 402.305 501.336 400.888C504.936 399.688 508.776 399.514 512.496 399.352C517.632 399.13 522.486 398.92 525.912 395.968C526.262 395.668 526.7 395.492 527.16 395.466C527.62 395.44 528.076 395.566 528.458 395.824C528.839 396.083 529.125 396.46 529.271 396.897C529.417 397.334 529.415 397.806 529.266 398.242L525.864 408.184C523.68 414.568 520.956 422.512 514.602 427.384C511.659 429.545 508.101 430.708 504.45 430.702V430.702Z" fill="#B9B9B9"/>
<path d="M486.09 423.401C485.418 423.401 484.746 423.383 484.074 423.347C483.517 423.317 482.995 423.068 482.622 422.653C482.249 422.238 482.056 421.692 482.085 421.136C482.114 420.579 482.364 420.056 482.779 419.683C483.193 419.31 483.739 419.117 484.296 419.147C489.283 419.374 494.264 418.59 498.94 416.842C503.616 415.094 507.891 412.419 511.506 408.977C511.696 408.756 511.93 408.577 512.193 408.452C512.456 408.326 512.743 408.257 513.034 408.248C513.325 408.24 513.615 408.292 513.885 408.401C514.155 408.511 514.399 408.675 514.603 408.884C514.806 409.093 514.963 409.342 515.065 409.615C515.166 409.888 515.21 410.179 515.193 410.47C515.176 410.761 515.099 411.045 514.966 411.304C514.833 411.564 514.648 411.793 514.422 411.977C506.78 419.257 496.645 423.343 486.09 423.401V423.401Z" fill="#B9B9B9"/>
<path d="M217.95 180.004C210.33 180.772 204.102 172.684 204.48 165.556C204.858 158.428 209.616 152.356 214.2 146.8L220.962 138.556C219.948 147.25 229.128 154.33 231.762 162.862C234.048 170.308 230.562 178.768 223.65 182.692" fill="#E2E2E0"/>
<path d="M223.638 184.792C223.174 184.793 222.722 184.639 222.354 184.356C221.986 184.072 221.723 183.675 221.605 183.226C221.487 182.776 221.521 182.301 221.702 181.873C221.883 181.446 222.201 181.09 222.606 180.862C228.666 177.436 231.732 169.966 229.74 163.462C228.78 160.336 226.74 157.246 224.766 154.258C222.576 150.94 220.338 147.544 219.33 143.842L215.82 148.12C211.86 152.956 206.928 158.974 206.574 165.658C206.4 168.952 207.978 172.684 210.582 175.174C212.694 177.184 215.232 178.174 217.74 177.904C218.297 177.849 218.853 178.016 219.286 178.371C219.72 178.725 219.994 179.237 220.05 179.794C220.106 180.351 219.938 180.907 219.583 181.341C219.229 181.774 218.717 182.049 218.16 182.104C214.422 182.482 210.702 181.108 207.684 178.234C204.174 174.886 202.14 169.99 202.38 165.46C202.806 157.402 208.224 150.79 212.58 145.48L219.342 137.236C219.63 136.886 220.023 136.639 220.463 136.531C220.903 136.423 221.366 136.46 221.783 136.637C222.2 136.814 222.549 137.121 222.777 137.512C223.006 137.904 223.101 138.358 223.05 138.808C222.534 143.266 225.324 147.49 228.282 151.972C230.418 155.206 232.626 158.572 233.76 162.256C236.322 170.584 232.416 180.16 224.676 184.528C224.359 184.706 224.001 184.797 223.638 184.792Z" fill="#B9B9B9"/>
<path d="M226.356 190C226.041 190 225.731 189.93 225.447 189.794C225.164 189.658 224.914 189.46 224.718 189.214C217.422 180.16 214.23 168.214 216.192 157.318C216.291 156.77 216.603 156.283 217.06 155.965C217.518 155.648 218.083 155.524 218.631 155.623C219.179 155.722 219.666 156.034 219.984 156.492C220.301 156.949 220.425 157.514 220.326 158.062C218.58 167.8 221.442 178.462 227.988 186.58C228.235 186.889 228.389 187.261 228.434 187.654C228.48 188.047 228.413 188.444 228.243 188.801C228.073 189.158 227.805 189.46 227.472 189.672C227.138 189.884 226.751 189.997 226.356 190V190Z" fill="#B9B9B9"/>
<path d="M283.052 359.954L137.694 327.223C132.712 326.101 127.765 329.23 126.643 334.212L106.036 425.724C104.915 430.706 108.044 435.654 113.025 436.775L258.384 469.507C263.365 470.629 268.313 467.499 269.435 462.518L290.042 371.005C291.163 366.023 288.034 361.076 283.052 359.954Z" fill="#F0F0F0"/>
<path d="M260.466 471.826C259.62 471.827 258.777 471.733 257.952 471.544L112.59 438.82C111.136 438.495 109.761 437.886 108.543 437.028C107.325 436.17 106.288 435.081 105.491 433.822C104.695 432.563 104.155 431.159 103.902 429.691C103.648 428.223 103.687 426.719 104.016 425.266L124.614 333.748C124.941 332.295 125.551 330.92 126.409 329.702C127.268 328.484 128.358 327.448 129.617 326.651C130.877 325.855 132.28 325.315 133.749 325.061C135.217 324.808 136.721 324.846 138.174 325.174L283.536 357.898C286.47 358.563 289.02 360.363 290.628 362.905C292.237 365.447 292.772 368.523 292.116 371.458L271.512 462.97C270.947 465.48 269.547 467.723 267.54 469.332C265.533 470.942 263.038 471.821 260.466 471.826V471.826ZM135.666 329.092C134.045 329.096 132.474 329.65 131.209 330.664C129.945 331.678 129.062 333.091 128.706 334.672L108.114 426.184C107.907 427.099 107.883 428.046 108.043 428.971C108.203 429.895 108.543 430.779 109.044 431.572C109.546 432.365 110.199 433.052 110.966 433.592C111.733 434.132 112.599 434.517 113.514 434.722L258.876 467.44C260.724 467.854 262.661 467.518 264.261 466.505C265.862 465.493 266.996 463.887 267.414 462.04L288 370.534C288.414 368.686 288.078 366.749 287.065 365.149C286.053 363.548 284.447 362.414 282.6 361.996L137.25 329.272C136.732 329.153 136.203 329.093 135.672 329.092H135.666Z" fill="#4C3133"/>
<path d="M130.056 330.7L195.75 414.424L289.74 366.652" fill="#F0F0F0"/>
<path d="M195.75 416.524C195.431 416.524 195.116 416.452 194.829 416.313C194.543 416.173 194.291 415.971 194.094 415.72L128.4 331.996C128.216 331.781 128.077 331.531 127.992 331.261C127.907 330.99 127.877 330.706 127.905 330.424C127.933 330.142 128.018 329.869 128.154 329.62C128.29 329.372 128.475 329.154 128.698 328.979C128.921 328.804 129.177 328.676 129.45 328.602C129.724 328.529 130.009 328.511 130.29 328.551C130.57 328.591 130.84 328.687 131.082 328.833C131.324 328.98 131.535 329.174 131.7 329.404L196.338 411.766L288.792 364.78C289.287 364.539 289.857 364.502 290.38 364.677C290.902 364.852 291.335 365.226 291.584 365.717C291.834 366.208 291.88 366.777 291.714 367.303C291.547 367.828 291.181 368.266 290.694 368.524L196.698 416.296C196.404 416.445 196.079 416.523 195.75 416.524V416.524Z" fill="#4C3133"/>
<path d="M111.54 409.27C111.075 409.269 110.624 409.114 110.257 408.828C109.89 408.543 109.628 408.144 109.512 407.694C109.396 407.244 109.432 406.768 109.616 406.341C109.8 405.914 110.12 405.56 110.526 405.334L164.004 375.754C164.246 375.61 164.514 375.515 164.793 375.476C165.072 375.438 165.356 375.456 165.628 375.529C165.9 375.602 166.154 375.729 166.376 375.903C166.598 376.076 166.782 376.293 166.919 376.539C167.055 376.785 167.141 377.057 167.17 377.337C167.2 377.617 167.172 377.9 167.09 378.169C167.008 378.439 166.873 378.689 166.692 378.905C166.511 379.121 166.289 379.298 166.038 379.426L112.56 409.006C112.248 409.18 111.897 409.271 111.54 409.27V409.27Z" fill="#4C3133"/>
<path d="M273.366 444.4C273.002 444.4 272.645 444.304 272.329 444.123C272.014 443.942 271.75 443.682 271.566 443.368L240.966 391.606C240.801 391.37 240.686 391.102 240.63 390.819C240.573 390.536 240.575 390.244 240.636 389.962C240.697 389.68 240.815 389.414 240.983 389.179C241.152 388.945 241.367 388.748 241.615 388.6C241.863 388.453 242.138 388.358 242.425 388.322C242.711 388.286 243.002 388.309 243.278 388.39C243.555 388.471 243.813 388.608 244.034 388.793C244.256 388.978 244.437 389.206 244.566 389.464L275.166 441.232C275.354 441.551 275.455 441.913 275.458 442.283C275.461 442.652 275.366 443.016 275.184 443.338C275.001 443.659 274.737 443.927 274.418 444.113C274.098 444.3 273.736 444.399 273.366 444.4V444.4Z" fill="#4C3133"/>
<path d="M158.917 222.268L101.631 244.006C99.6665 244.752 98.6784 246.948 99.4237 248.913L113.109 284.977C113.854 286.941 116.051 287.93 118.015 287.184L175.301 265.446C177.266 264.701 178.254 262.504 177.508 260.54L163.823 224.475C163.078 222.511 160.881 221.523 158.917 222.268Z" fill="white"/>
<path d="M160.26 222.04C161.031 222.041 161.784 222.276 162.418 222.714C163.052 223.152 163.538 223.773 163.812 224.494L177.498 260.566C177.855 261.509 177.822 262.555 177.408 263.474C176.994 264.393 176.232 265.11 175.29 265.468L118.002 287.206C117.058 287.563 116.012 287.531 115.091 287.117C114.171 286.703 113.453 285.941 113.094 284.998L99.414 248.932C99.0552 247.989 99.0856 246.942 99.4986 246.022C99.9115 245.101 100.673 244.383 101.616 244.024L158.91 222.292C159.341 222.127 159.798 222.041 160.26 222.04V222.04ZM160.26 217.84C159.29 217.839 158.328 218.016 157.422 218.362L100.128 240.1C98.144 240.853 96.5402 242.363 95.6693 244.298C94.7985 246.234 94.7318 248.435 95.484 250.42L109.2 286.474C109.778 287.985 110.799 289.286 112.128 290.208C113.458 291.129 115.034 291.628 116.652 291.64C117.622 291.641 118.584 291.464 119.49 291.118L176.784 269.38C178.766 268.624 180.367 267.113 181.237 265.179C182.106 263.244 182.173 261.044 181.422 259.06L167.742 222.994C167.159 221.481 166.132 220.18 164.797 219.261C163.462 218.341 161.881 217.846 160.26 217.84V217.84Z" fill="#4C3133"/>
<path d="M99.78 246.946L141.3 260.77L162.714 223.066" fill="#F0F0F0"/>
<path d="M141.3 262.87C141.076 262.869 140.853 262.833 140.64 262.762L99.114 248.962C98.8524 248.874 98.6106 248.736 98.4024 248.555C98.1942 248.374 98.0236 248.154 97.9005 247.907C97.7774 247.661 97.7041 247.392 97.6847 247.117C97.6654 246.842 97.7005 246.565 97.788 246.304C97.8754 246.042 98.0136 245.8 98.1945 245.592C98.3754 245.384 98.5955 245.213 98.8424 245.09C99.0892 244.967 99.3578 244.894 99.633 244.875C99.9081 244.855 100.184 244.89 100.446 244.978L140.328 258.256L160.89 222.04C161.165 221.555 161.622 221.2 162.159 221.052C162.425 220.979 162.703 220.959 162.977 220.993C163.251 221.027 163.515 221.115 163.755 221.251C163.995 221.387 164.206 221.569 164.375 221.787C164.545 222.005 164.67 222.254 164.743 222.52C164.816 222.786 164.836 223.064 164.802 223.338C164.768 223.612 164.68 223.876 164.544 224.116L143.13 261.82C142.945 262.141 142.678 262.407 142.356 262.591C142.035 262.776 141.671 262.872 141.3 262.87V262.87Z" fill="#4C3133"/>
<path d="M110.766 279.478C110.405 279.478 110.05 279.384 109.736 279.207C109.421 279.03 109.158 278.774 108.971 278.466C108.784 278.157 108.68 277.805 108.669 277.444C108.657 277.083 108.739 276.726 108.906 276.406L120.546 254.128C120.674 253.883 120.848 253.666 121.06 253.489C121.271 253.312 121.516 253.178 121.779 253.095C122.042 253.012 122.319 252.982 122.594 253.007C122.869 253.031 123.136 253.109 123.381 253.237C123.626 253.364 123.843 253.539 124.02 253.751C124.197 253.962 124.331 254.207 124.414 254.47C124.496 254.733 124.526 255.01 124.502 255.285C124.478 255.56 124.4 255.827 124.272 256.072L112.632 278.35C112.453 278.69 112.185 278.975 111.856 279.174C111.527 279.373 111.15 279.478 110.766 279.478Z" fill="#4C3133"/>
<path d="M174.252 254.836C173.934 254.835 173.619 254.761 173.334 254.62L151.092 243.82C150.844 243.699 150.622 243.531 150.439 243.325C150.255 243.118 150.115 242.878 150.024 242.617C149.934 242.356 149.896 242.08 149.913 241.805C149.929 241.529 149.999 241.26 150.12 241.012C150.241 240.764 150.409 240.542 150.615 240.358C150.822 240.175 151.062 240.034 151.323 239.944C151.583 239.854 151.859 239.816 152.135 239.832C152.41 239.849 152.68 239.919 152.928 240.04L175.2 250.84C175.628 251.047 175.973 251.393 176.178 251.822C176.384 252.251 176.438 252.737 176.331 253.201C176.225 253.664 175.964 254.078 175.591 254.374C175.219 254.67 174.758 254.83 174.282 254.83L174.252 254.836Z" fill="#4C3133"/>
<path d="M431.754 456.91L295.062 531.04C291.493 532.977 287.3 533.416 283.407 532.261C279.514 531.107 276.239 528.453 274.302 524.884L222.702 429.79C221.454 427.489 220.816 424.907 220.85 422.289C220.883 419.672 221.587 417.106 222.894 414.838L266.58 339.118C267.955 336.738 269.945 334.772 272.341 333.426C274.738 332.08 277.452 331.403 280.2 331.468L373.368 333.346C376.071 333.401 378.712 334.171 381.021 335.578C383.33 336.985 385.226 338.979 386.514 341.356L437.934 436.156C439.865 439.728 440.299 443.921 439.14 447.812C437.981 451.704 435.324 454.976 431.754 456.91V456.91Z" fill="#E2E2E0"/>
<path d="M287.784 535.012C286.099 535.009 284.424 534.762 282.81 534.28C280.615 533.635 278.569 532.56 276.792 531.118C275.016 529.676 273.543 527.896 272.46 525.88L220.86 430.786C219.452 428.165 218.734 425.23 218.773 422.255C218.812 419.281 219.606 416.365 221.082 413.782L264.768 338.062C266.326 335.364 268.58 333.134 271.295 331.605C274.01 330.075 277.085 329.303 280.2 329.368L373.386 331.24C376.46 331.306 379.462 332.183 382.088 333.782C384.713 335.382 386.87 337.647 388.338 340.348L439.758 435.148C441.953 439.209 442.449 443.974 441.135 448.399C439.821 452.824 436.806 456.548 432.75 458.752V458.752L296.064 532.894C293.524 534.281 290.678 535.009 287.784 535.012V535.012ZM279.864 333.562C277.545 333.56 275.267 334.169 273.258 335.328C271.249 336.487 269.581 338.154 268.422 340.162L224.742 415.882C223.62 417.841 223.016 420.053 222.986 422.31C222.955 424.566 223.5 426.794 224.568 428.782L276.168 523.876C276.994 525.402 278.113 526.75 279.46 527.844C280.808 528.937 282.357 529.754 284.021 530.247C285.684 530.741 287.429 530.902 289.154 530.721C290.88 530.54 292.553 530.02 294.078 529.192L430.752 455.062C432.277 454.236 433.625 453.117 434.718 451.769C435.81 450.421 436.627 448.871 437.12 447.208C437.613 445.544 437.773 443.8 437.592 442.075C437.41 440.349 436.891 438.676 436.062 437.152L384.648 342.352C383.534 340.302 381.898 338.583 379.906 337.369C377.913 336.155 375.635 335.489 373.302 335.44L280.134 333.562H279.864Z" fill="#1D1D1B"/>
<path d="M324.355 273.14L199.643 340.797C196.649 342.421 195.538 346.166 197.163 349.16L275.386 493.348C277.01 496.343 280.754 497.453 283.748 495.829L408.46 428.172C411.455 426.548 412.565 422.803 410.941 419.809L332.718 275.621C331.093 272.626 327.349 271.516 324.355 273.14Z" fill="#F0F0F0"/>
<path d="M327.282 272.44C328.389 272.445 329.475 272.747 330.426 273.316C331.376 273.885 332.155 274.7 332.682 275.674L410.922 419.848C411.7 421.287 411.876 422.976 411.41 424.544C410.945 426.112 409.876 427.431 408.438 428.212L283.728 495.856C283.016 496.243 282.234 496.487 281.428 496.572C280.622 496.657 279.807 496.582 279.029 496.352C278.252 496.122 277.527 495.741 276.898 495.231C276.268 494.72 275.744 494.091 275.358 493.378L197.154 349.186C196.379 347.75 196.205 346.065 196.669 344.501C197.134 342.937 198.199 341.62 199.632 340.84L324.348 273.178C325.247 272.685 326.256 272.427 327.282 272.428V272.44ZM327.282 268.228C325.557 268.231 323.86 268.664 322.344 269.488L197.628 337.132C195.212 338.444 193.416 340.662 192.634 343.298C191.852 345.934 192.148 348.773 193.458 351.19L271.668 495.376C272.315 496.575 273.191 497.636 274.248 498.496C275.305 499.356 276.521 500 277.826 500.39C279.132 500.78 280.502 500.909 281.857 500.769C283.213 500.63 284.527 500.224 285.726 499.576L410.442 431.908C412.854 430.59 414.646 428.37 415.425 425.735C416.204 423.099 415.908 420.262 414.6 417.844L336.402 273.64C335.509 272.002 334.19 270.636 332.585 269.686C330.979 268.735 329.147 268.236 327.282 268.24V268.228Z" fill="#4C3133"/>
<path d="M324.348 273.178L216.66 331.588L231.834 413.134L243.876 435.334C244.916 435.443 245.967 435.403 246.996 435.214L375.132 411.364C377.964 410.837 380.471 409.206 382.101 406.831C383.732 404.456 384.352 401.531 383.826 398.698L375.666 354.85L332.712 275.65C332.326 274.938 331.803 274.309 331.173 273.8C330.543 273.29 329.819 272.91 329.043 272.68C328.266 272.45 327.451 272.376 326.646 272.462C325.84 272.547 325.059 272.791 324.348 273.178V273.178Z" fill="#E2E2E0"/>
<path d="M221.063 241.397L351.732 217.085C354.565 216.558 357.492 217.178 359.868 218.808C362.244 220.439 363.875 222.947 364.402 225.78L394.011 384.917C394.539 387.75 393.919 390.676 392.288 393.053C390.657 395.429 388.15 397.06 385.316 397.587L257.178 421.429C254.344 421.956 251.418 421.336 249.042 419.705C246.665 418.075 245.034 415.567 244.507 412.734L214.428 251.072C214.228 250.001 214.241 248.901 214.466 247.835C214.692 246.77 215.125 245.758 215.741 244.86C216.357 243.961 217.144 243.193 218.057 242.599C218.97 242.005 219.992 241.597 221.063 241.397Z" fill="white"/>
<path d="M353.742 216.886C356.276 216.891 358.73 217.781 360.678 219.402C362.625 221.023 363.946 223.274 364.41 225.766L394.026 384.898C394.552 387.73 393.932 390.656 392.301 393.031C390.671 395.406 388.164 397.037 385.332 397.564L257.196 421.414C255.793 421.677 254.353 421.66 252.956 421.366C251.56 421.071 250.235 420.503 249.059 419.695C247.882 418.888 246.877 417.856 246.099 416.659C245.322 415.462 244.789 414.123 244.53 412.72L214.44 251.062C214.24 249.991 214.254 248.892 214.479 247.826C214.705 246.76 215.138 245.749 215.754 244.851C216.37 243.953 217.158 243.185 218.071 242.591C218.984 241.997 220.005 241.589 221.076 241.39L351.738 217.072C352.399 216.951 353.07 216.889 353.742 216.886ZM353.742 212.686C352.812 212.688 351.884 212.775 350.97 212.944L220.302 237.262C217.047 237.872 214.167 239.749 212.294 242.48C210.422 245.211 209.709 248.574 210.312 251.83L240.396 413.488C241.039 416.944 242.869 420.067 245.571 422.315C248.274 424.563 251.677 425.796 255.192 425.8C256.122 425.798 257.05 425.712 257.964 425.542L386.1 401.692C388.045 401.331 389.9 400.591 391.559 399.513C393.217 398.435 394.647 397.04 395.767 395.409C396.886 393.778 397.673 391.943 398.083 390.007C398.493 388.072 398.517 386.075 398.154 384.13L368.538 224.998C367.897 221.542 366.066 218.418 363.364 216.17C360.661 213.921 357.258 212.689 353.742 212.686V212.686Z" fill="#4C3133"/>
<path d="M348.696 238.89L236.412 258.668C232.95 259.278 230.637 262.579 231.247 266.042L231.471 267.312C232.081 270.775 235.382 273.087 238.845 272.478L351.128 252.699C354.591 252.089 356.903 248.788 356.293 245.325L356.069 244.055C355.459 240.592 352.158 238.28 348.696 238.89Z" fill="#F0F0F0"/>
<path d="M352.812 262.253L240.529 282.031C237.066 282.641 234.754 285.943 235.364 289.405L235.588 290.676C236.197 294.138 239.499 296.451 242.961 295.841L355.245 276.062C358.707 275.453 361.02 272.151 360.41 268.689L360.186 267.418C359.576 263.956 356.275 261.643 352.812 262.253Z" fill="#F0F0F0"/>
<path d="M356.93 285.623L244.647 305.401C241.184 306.011 238.872 309.312 239.481 312.775L239.705 314.045C240.315 317.508 243.617 319.82 247.079 319.21L359.362 299.432C362.825 298.822 365.138 295.521 364.528 292.058L364.304 290.788C363.694 287.325 360.392 285.013 356.93 285.623Z" fill="#F0F0F0"/>
<path d="M361.048 308.992L248.764 328.771C245.302 329.381 242.989 332.682 243.599 336.145L243.823 337.415C244.433 340.877 247.734 343.19 251.197 342.58L363.48 322.802C366.943 322.192 369.255 318.89 368.645 315.428L368.422 314.157C367.812 310.695 364.51 308.382 361.048 308.992Z" fill="#F0F0F0"/>
<path d="M365.159 332.362L252.876 352.14C249.414 352.75 247.101 356.052 247.711 359.514L247.935 360.785C248.545 364.247 251.846 366.56 255.309 365.95L367.592 346.171C371.054 345.561 373.367 342.26 372.757 338.797L372.533 337.527C371.923 334.064 368.622 331.752 365.159 332.362Z" fill="#F0F0F0"/>
<path d="M369.276 355.726L256.993 375.504C253.53 376.114 251.218 379.415 251.828 382.878L252.051 384.148C252.661 387.611 255.963 389.923 259.425 389.313L371.709 369.535C375.171 368.925 377.484 365.624 376.874 362.161L376.65 360.891C376.04 357.428 372.739 355.116 369.276 355.726Z" fill="#F0F0F0"/>
<path d="M237 456.154L332.112 436.324L400.626 367.414L441.96 443.614C442.387 444.402 442.654 445.267 442.746 446.158C442.838 447.05 442.754 447.951 442.498 448.81C442.241 449.668 441.818 450.468 441.252 451.163C440.686 451.858 439.989 452.435 439.2 452.86L287.598 535.096C286.811 535.524 285.947 535.792 285.057 535.885C284.166 535.979 283.265 535.896 282.407 535.641C281.548 535.387 280.748 534.965 280.052 534.401C279.356 533.837 278.779 533.142 278.352 532.354L237 456.154Z" fill="white"/>
<path d="M400.626 367.414L441.96 443.614C442.387 444.402 442.654 445.267 442.746 446.158C442.838 447.05 442.754 447.951 442.498 448.809C442.241 449.668 441.818 450.468 441.252 451.163C440.686 451.858 439.989 452.435 439.2 452.86L287.598 535.096C286.811 535.524 285.947 535.793 285.057 535.887C284.166 535.981 283.265 535.898 282.406 535.644C281.547 535.389 280.747 534.967 280.051 534.403C279.356 533.838 278.778 533.142 278.352 532.354L237 456.154L332.112 436.324L400.626 367.414ZM400.626 363.214C400.069 363.211 399.516 363.32 399.001 363.533C398.486 363.747 398.019 364.06 397.626 364.456L330.048 432.472L236.166 452.044C235.525 452.177 234.924 452.458 234.41 452.865C233.897 453.272 233.486 453.794 233.211 454.388C232.935 454.982 232.802 455.632 232.822 456.287C232.843 456.941 233.016 457.582 233.328 458.158L274.662 534.358C276.054 536.926 278.41 538.836 281.211 539.668C284.011 540.499 287.028 540.184 289.596 538.792L441.222 456.55C443.782 455.155 445.685 452.804 446.515 450.009C447.344 447.215 447.034 444.206 445.65 441.64L404.322 365.44C404.01 364.863 403.568 364.368 403.03 363.992C402.493 363.617 401.875 363.373 401.226 363.28C401.027 363.254 400.827 363.24 400.626 363.238V363.214Z" fill="#4C3133"/>
<path d="M281.952 518.554L246.984 454.078L237 456.154L278.328 532.354C278.755 533.141 279.332 533.837 280.028 534.401C280.724 534.965 281.524 535.387 282.383 535.641C283.241 535.896 284.142 535.979 285.033 535.885C285.923 535.792 286.787 535.523 287.574 535.096L439.2 452.86C439.987 452.433 440.683 451.855 441.247 451.16C441.811 450.464 442.233 449.664 442.487 448.805C442.742 447.947 442.825 447.046 442.731 446.155C442.638 445.265 442.37 444.401 441.942 443.614L440.244 440.44L291.198 521.296C290.411 521.723 289.547 521.992 288.657 522.085C287.766 522.179 286.865 522.096 286.007 521.841C285.148 521.587 284.348 521.165 283.652 520.601C282.956 520.037 282.379 519.341 281.952 518.554V518.554Z" fill="#F0F0F0"/>
<path d="M280.512 491.548L315.24 420.568C316.528 417.942 318.645 415.813 321.264 414.512C323.884 413.21 326.859 412.808 329.73 413.368L399.564 426.982" fill="white"/>
<path d="M280.512 493.654C280.192 493.653 279.876 493.579 279.588 493.438C279.089 493.193 278.707 492.759 278.527 492.233C278.347 491.706 278.383 491.13 278.628 490.63L313.356 419.644C314.85 416.6 317.305 414.133 320.342 412.624C323.378 411.115 326.828 410.649 330.156 411.298L399.99 424.918C400.263 424.968 400.524 425.072 400.757 425.223C400.99 425.374 401.191 425.571 401.348 425.8C401.505 426.03 401.614 426.288 401.67 426.56C401.726 426.833 401.728 427.113 401.675 427.386C401.621 427.659 401.515 427.919 401.36 428.15C401.206 428.381 401.007 428.579 400.776 428.733C400.544 428.887 400.285 428.993 400.012 429.046C399.739 429.099 399.458 429.097 399.186 429.04L329.328 415.42C326.909 414.953 324.404 415.295 322.199 416.392C319.993 417.489 318.21 419.281 317.124 421.492L282.402 492.472C282.229 492.826 281.96 493.124 281.626 493.333C281.292 493.542 280.906 493.653 280.512 493.654V493.654Z" fill="#4C3133"/>
<path d="M287.064 321.532C315.963 321.532 339.39 298.105 339.39 269.206C339.39 240.307 315.963 216.88 287.064 216.88C258.165 216.88 234.738 240.307 234.738 269.206C234.738 298.105 258.165 321.532 287.064 321.532Z" fill="#F0F0F0"/>
<path d="M287.106 323.638C273.407 323.655 260.206 318.507 250.134 309.221C240.063 299.935 233.863 287.194 232.769 273.539C231.676 259.884 235.771 246.319 244.236 235.549C252.702 224.779 264.916 217.596 278.443 215.433C291.97 213.27 305.815 216.286 317.217 223.879C328.619 231.472 336.74 243.084 339.959 256.399C343.178 269.714 341.26 283.754 334.586 295.717C327.913 307.68 316.975 316.688 303.954 320.944C298.514 322.721 292.829 323.63 287.106 323.638V323.638ZM287.106 218.956C274.776 218.92 262.862 223.411 253.624 231.578C244.386 239.744 238.468 251.018 236.992 263.259C235.516 275.5 238.585 287.857 245.616 297.986C252.648 308.114 263.153 315.309 275.138 318.204C287.123 321.1 299.755 319.495 310.635 313.695C321.515 307.894 329.887 298.301 334.163 286.736C338.439 275.171 338.32 262.439 333.83 250.956C329.34 239.473 320.79 230.037 309.804 224.44C302.776 220.859 295.005 218.981 287.118 218.956H287.106Z" fill="#4C3133"/>
<path d="M287.064 307.576C308.255 307.576 325.434 290.397 325.434 269.206C325.434 248.015 308.255 230.836 287.064 230.836C265.873 230.836 248.694 248.015 248.694 269.206C248.694 290.397 265.873 307.576 287.064 307.576Z" fill="#F0F0F0"/>
<path d="M287.022 309.7C276.825 309.711 266.999 305.878 259.502 298.966C252.005 292.055 247.389 282.571 246.573 272.407C245.757 262.243 248.802 252.145 255.101 244.126C261.399 236.107 270.488 230.756 280.556 229.14C290.624 227.524 300.931 229.763 309.423 235.408C317.914 241.054 323.966 249.692 326.371 259.601C328.777 269.51 327.359 279.962 322.402 288.872C317.444 297.783 309.31 304.498 299.622 307.678C295.556 309.017 291.303 309.7 287.022 309.7ZM287.1 232.9C283.265 232.902 279.454 233.51 275.808 234.7C268.989 236.927 262.983 241.125 258.55 246.765C254.117 252.404 251.456 259.232 250.904 266.384C250.351 273.536 251.931 280.691 255.445 286.945C258.959 293.199 264.248 298.27 270.644 301.518C277.04 304.766 284.255 306.044 291.377 305.191C298.5 304.339 305.209 301.393 310.658 296.727C316.106 292.061 320.049 285.885 321.987 278.978C323.925 272.072 323.771 264.745 321.546 257.926C319.168 250.66 314.558 244.33 308.374 239.836C302.189 235.341 294.745 232.912 287.1 232.894V232.9Z" fill="#4C3133"/>
<path d="M282.69 248.404C285.03 251.89 292.08 276.004 292.08 276.004C292.08 276.004 272.4 260.38 270.054 256.888C269.497 256.058 269.109 255.127 268.912 254.147C268.714 253.168 268.712 252.159 268.905 251.178C269.098 250.198 269.482 249.265 270.035 248.432C270.588 247.6 271.3 246.885 272.13 246.328C272.96 245.771 273.891 245.383 274.871 245.186C275.85 244.989 276.859 244.986 277.84 245.179C278.821 245.372 279.754 245.756 280.586 246.309C281.418 246.863 282.133 247.574 282.69 248.404V248.404Z" fill="#FFD900"/>
<path d="M292.08 278.116C291.605 278.115 291.145 277.954 290.772 277.66C288.732 276.034 270.768 261.718 268.314 258.064C267.579 257.006 267.061 255.813 266.792 254.554C266.523 253.294 266.507 251.994 266.745 250.728C266.983 249.462 267.47 248.257 268.179 247.181C268.888 246.106 269.803 245.182 270.873 244.464C271.942 243.746 273.143 243.248 274.407 242.998C275.67 242.749 276.971 242.754 278.233 243.012C279.495 243.271 280.692 243.778 281.756 244.503C282.82 245.229 283.729 246.159 284.43 247.24V247.24C286.884 250.894 293.364 272.938 294.096 275.44C294.219 275.868 294.204 276.325 294.052 276.744C293.9 277.164 293.619 277.524 293.25 277.774C292.903 278.002 292.495 278.121 292.08 278.116V278.116ZM276.366 247.138C275.273 247.135 274.205 247.461 273.3 248.074C272.7 248.477 272.184 248.995 271.784 249.598C271.384 250.2 271.106 250.875 270.967 251.585C270.827 252.295 270.829 253.025 270.972 253.734C271.115 254.444 271.397 255.118 271.8 255.718C273.042 257.572 281.094 264.406 288.126 270.118C285.474 261.442 282.186 251.404 280.926 249.556C280.422 248.811 279.742 248.201 278.947 247.779C278.152 247.358 277.266 247.137 276.366 247.138V247.138Z" fill="#4C3133"/>
<path d="M300.276 292.702C303.066 292.702 305.328 290.44 305.328 287.65C305.328 284.86 303.066 282.598 300.276 282.598C297.486 282.598 295.224 284.86 295.224 287.65C295.224 290.44 297.486 292.702 300.276 292.702Z" fill="#FFD900"/>
<path d="M300.264 294.802C298.9 294.8 297.566 294.409 296.417 293.674C295.268 292.939 294.354 291.891 293.781 290.653C293.209 289.416 293.002 288.04 293.185 286.689C293.369 285.337 293.934 284.067 294.816 283.026C295.697 281.986 296.858 281.219 298.161 280.817C299.464 280.414 300.855 280.393 302.169 280.754C303.484 281.116 304.668 281.846 305.582 282.858C306.495 283.871 307.101 285.123 307.326 286.468V286.468C307.639 288.338 307.196 290.256 306.096 291.801C304.996 293.345 303.328 294.39 301.458 294.706C301.063 294.771 300.664 294.803 300.264 294.802V294.802ZM300.264 284.704C300.101 284.703 299.938 284.717 299.778 284.746C299.395 284.808 299.028 284.946 298.699 285.152C298.37 285.358 298.086 285.628 297.864 285.946C297.638 286.261 297.477 286.618 297.39 286.996C297.302 287.374 297.29 287.765 297.354 288.147C297.419 288.53 297.557 288.896 297.763 289.224C297.969 289.553 298.238 289.838 298.554 290.062C299.029 290.399 299.594 290.588 300.177 290.605C300.76 290.622 301.334 290.466 301.828 290.157C302.322 289.847 302.714 289.399 302.953 288.867C303.193 288.336 303.27 287.745 303.174 287.17V287.17C303.059 286.483 302.706 285.859 302.175 285.408C301.645 284.957 300.972 284.707 300.276 284.704H300.264Z" fill="#4C3133"/>
<path d="M329.677 302.051L326.244 305.676C324.3 307.728 324.388 310.967 326.44 312.911L367.69 351.987C369.742 353.931 372.981 353.843 374.925 351.791L378.358 348.167C380.302 346.115 380.214 342.876 378.162 340.932L336.912 301.856C334.86 299.912 331.621 299.999 329.677 302.051Z" fill="#FFD900"/>
<path d="M371.202 355.462C369.355 355.463 367.579 354.754 366.24 353.482L324.99 314.44C324.3 313.789 323.746 313.009 323.359 312.144C322.971 311.278 322.759 310.345 322.733 309.397C322.708 308.45 322.869 307.506 323.209 306.621C323.549 305.736 324.061 304.927 324.714 304.24L328.146 300.64C328.796 299.95 329.576 299.395 330.441 299.007C331.306 298.62 332.24 298.406 333.187 298.38C334.135 298.354 335.079 298.515 335.964 298.855C336.849 299.194 337.659 299.705 338.346 300.358L379.596 339.43C380.982 340.748 381.789 342.561 381.84 344.473C381.892 346.385 381.184 348.239 379.872 349.63V349.63L376.44 353.23C375.79 353.92 375.009 354.475 374.143 354.861C373.276 355.247 372.342 355.458 371.394 355.48L371.202 355.462ZM333.402 302.53H333.318C332.921 302.539 332.53 302.628 332.168 302.789C331.805 302.951 331.478 303.183 331.206 303.472L327.774 307.072C327.499 307.358 327.284 307.697 327.141 308.067C326.998 308.437 326.929 308.832 326.94 309.229C326.951 309.626 327.04 310.016 327.203 310.378C327.365 310.74 327.598 311.067 327.888 311.338L369.126 350.44C369.413 350.716 369.751 350.932 370.122 351.075C370.493 351.219 370.888 351.288 371.286 351.277C371.683 351.266 372.075 351.177 372.437 351.014C372.8 350.85 373.127 350.617 373.398 350.326L376.824 346.726C377.099 346.44 377.314 346.101 377.457 345.731C377.6 345.361 377.668 344.966 377.658 344.569C377.647 344.172 377.558 343.782 377.395 343.42C377.233 343.058 377 342.731 376.71 342.46L335.46 303.358C334.902 302.826 334.161 302.53 333.39 302.53H333.402Z" fill="#4C3133"/>
<path d="M361.116 304.006C355.92 299.398 347.202 295.468 340.116 296.62C332.916 297.79 326.85 303.22 321.732 307.954C318.39 311.032 315.27 314.644 314.154 319.048C313.038 323.452 314.478 328.768 318.462 330.952C321.378 332.548 325.152 332.302 327.744 334.372C329.808 336.028 330.606 338.746 331.722 341.14C333.384 344.698 336.228 347.986 340.044 348.886C342.361 349.353 344.764 349.129 346.956 348.244C352.434 346.222 356.556 341.68 360.396 337.294C363.396 333.916 366.396 330.424 367.89 326.17C370.578 318.424 367.248 309.442 361.116 304.006Z" fill="#C5E6F1"/>
<path d="M342.72 296.44C349.236 296.44 356.52 299.974 361.116 304.03C367.248 309.466 370.578 318.43 367.896 326.194C366.426 330.448 363.378 333.94 360.402 337.318C356.538 341.704 352.44 346.246 346.962 348.268C345.475 348.84 343.899 349.145 342.306 349.168C341.547 349.17 340.789 349.083 340.05 348.91C336.234 348.01 333.39 344.71 331.728 341.164C330.612 338.764 329.814 336.052 327.75 334.396C325.158 332.326 321.384 332.596 318.468 330.976C314.484 328.792 313.068 323.476 314.16 319.072C315.252 314.668 318.396 311.056 321.738 307.978C326.856 303.262 332.928 297.814 340.122 296.644C340.981 296.506 341.85 296.438 342.72 296.44V296.44ZM342.72 292.24C341.623 292.24 340.527 292.326 339.444 292.498C330.822 293.896 323.928 300.25 318.894 304.888C315.828 307.708 311.58 312.142 310.086 318.04C308.634 323.776 310.356 331.324 316.452 334.66C318.1 335.495 319.854 336.101 321.666 336.46C323.076 336.796 324.408 337.108 325.122 337.66C325.932 338.308 326.544 339.742 327.192 341.26C327.42 341.8 327.66 342.358 327.924 342.922C330.396 348.22 334.464 351.886 339.078 352.978C340.136 353.228 341.219 353.352 342.306 353.35C344.396 353.329 346.467 352.937 348.42 352.192C355.02 349.75 359.754 344.392 363.552 340.078C366.624 336.598 370.104 332.65 371.868 327.55C373.451 322.803 373.427 317.667 371.802 312.934C370.274 308.289 367.551 304.128 363.906 300.868C359.4 296.872 351.162 292.24 342.72 292.24V292.24Z" fill="#4C3133"/>
</svg>
