<svg width="600" height="601" viewBox="0 0 600 601" fill="none" xmlns="http://www.w3.org/2000/svg">
<path d="M206.167 425.722C186.23 436.763 163.505 445.982 141.21 441.587C118.914 437.192 99.0831 414.146 105.943 392.493C110.231 378.987 123.523 368.268 122.88 354.119C122.237 340.291 108.945 331.287 98.6546 322.069C74.5366 300.309 62.531 265.9 67.8905 233.958C71.9638 209.089 91.5799 183.149 116.77 185.722C126.31 186.686 134.885 191.617 144.104 193.975C191.268 205.766 232.858 149.062 281.201 154.1C293.957 155.386 306.177 161.068 318.932 160.424C342.622 159.245 359.986 137.593 382.604 130.518C399.326 125.159 418.62 128.696 432.448 139.522C446.275 150.348 454.208 168.249 453.029 185.829C451.849 203.944 441.773 220.023 435.556 236.959C429.339 254.002 427.946 275.44 441.13 287.875C447.883 294.199 457.209 297.093 464.284 303.096C477.683 314.565 479.397 335.468 473.073 351.868C466.749 368.375 454.1 381.452 441.773 393.994" fill="#F4F6F9"/>
<path d="M566.761 383.276C562.795 362.91 564.618 340.078 551.755 323.892C538.356 307.063 510.164 305.027 494.514 319.712L491.728 319.497L488.941 303.955C487.547 295.701 486.154 287.126 484.76 278.014V277.907C485.403 278.014 486.154 278.122 486.797 278.229C486.904 278.229 487.011 278.229 487.118 278.229C487.761 278.336 488.297 278.336 488.941 278.336C489.048 278.336 489.155 278.336 489.262 278.336C489.905 278.336 490.548 278.336 491.298 278.229C491.298 278.229 491.299 278.229 491.406 278.229C492.156 278.122 492.799 278.014 493.55 277.907H493.657C494.3 277.8 494.836 277.586 495.479 277.371C495.694 277.264 495.801 277.264 496.015 277.157C496.444 277.05 496.872 276.835 497.301 276.621C497.516 276.514 497.73 276.406 497.944 276.299C498.373 276.085 498.802 275.87 499.231 275.656C499.445 275.549 499.553 275.442 499.767 275.335C500.303 275.013 500.839 274.584 501.375 274.155C508.021 268.903 510.379 259.042 507.27 251.109C506.949 250.252 506.52 249.394 506.091 248.537C505.77 248.108 505.555 247.572 505.233 247.143C505.126 247.036 505.019 246.822 504.912 246.714C504.698 246.393 504.483 246.179 504.161 245.857C504.054 245.75 503.84 245.535 503.733 245.428C503.518 245.214 503.304 244.892 502.983 244.678C502.875 244.571 502.661 244.356 502.554 244.249C502.339 244.035 502.018 243.82 501.696 243.606C501.589 243.499 501.375 243.392 501.268 243.284C500.839 242.963 500.41 242.641 499.981 242.427C499.767 242.32 499.659 242.212 499.445 242.105C499.123 241.891 498.909 241.784 498.588 241.569C498.373 241.462 498.159 241.355 497.837 241.248C497.623 241.141 497.409 241.033 497.087 240.926C496.766 240.819 496.551 240.712 496.229 240.605C496.015 240.497 495.8 240.39 495.586 240.39C495.265 240.283 494.943 240.176 494.729 240.069C494.514 240.069 494.407 239.961 494.193 239.961C493.014 239.64 491.835 239.426 490.548 239.318C490.441 239.318 490.334 239.318 490.227 239.318C489.798 239.318 489.477 239.318 489.048 239.211C488.941 239.211 488.726 239.211 488.619 239.211C488.19 239.211 487.869 239.211 487.44 239.211C487.333 239.211 487.225 239.211 487.118 239.211C486.689 239.211 486.26 239.318 485.939 239.318L487.333 191.833L457.105 181.006C447.35 181.114 437.81 185.723 429.985 191.511C406.403 209.198 383.357 227.42 362.562 242.963C362.562 242.963 362.562 242.963 362.669 243.07C362.24 243.392 361.812 243.713 361.276 244.035C361.276 244.035 386.68 258.184 399.114 264.937C399.114 264.937 390.753 288.197 383.143 309.636C372.638 300.096 358.275 294.2 343.697 294.736C329.119 295.272 314.648 302.561 307.252 314.459C302.642 321.855 300.713 330.431 297.068 338.256C293.424 346.081 287.1 353.798 278.203 355.299L274.987 353.155C274.558 352.727 274.129 352.298 273.808 351.869C273.701 351.762 273.594 351.655 273.486 351.44C273.165 351.119 272.95 350.797 272.629 350.476C272.521 350.261 272.307 350.154 272.2 349.94C271.985 349.618 271.664 349.404 271.45 349.082C271.343 348.868 271.128 348.653 271.021 348.546C270.806 348.225 270.592 348.01 270.378 347.689C270.271 347.474 270.056 347.26 269.949 347.045C269.734 346.724 269.52 346.402 269.306 346.081C269.199 345.866 269.091 345.652 268.984 345.438C268.77 345.116 268.555 344.687 268.448 344.366C268.341 344.151 268.234 344.044 268.127 343.83C267.805 343.294 267.591 342.758 267.376 342.222C266.304 339.756 265.769 337.184 265.554 334.504C265.447 333.861 265.447 333.218 265.447 332.467C265.447 331.824 265.447 331.181 265.34 330.431C265.34 324.428 266.304 318.211 266.412 312.101C266.412 311.458 266.412 310.708 266.412 310.064C266.197 300.953 262.981 292.056 257.729 284.553C249.797 273.191 237.149 264.937 223.214 263.544C222.463 263.436 221.606 263.436 220.748 263.436C218.819 263.436 216.889 263.651 215.067 264.079C211.316 265.044 207.993 266.974 206.599 270.511C206.278 271.261 206.17 272.012 206.063 272.762C203.383 270.725 200.167 269.117 197.059 267.831C184.41 262.364 171.976 256.147 159.328 250.466C153.111 247.679 146.786 244.785 140.247 242.641C137.461 241.677 134.781 241.248 132.208 241.248C113.664 233.423 98.2289 216.915 91.7974 214.772C85.3659 212.628 81.0783 216.915 85.3659 228.706C88.6889 237.925 99.9439 242.534 104.66 244.142C102.517 244.678 100.373 245.321 98.3362 246.179C88.0458 250.145 78.9341 256.683 70.0373 263.115C67.5719 264.937 64.9994 266.759 63.1772 269.225C61.3549 271.69 60.3905 275.013 61.3552 277.907C62.1056 280.051 64.1418 281.873 66.2856 282.195C65.4281 283.695 64.7853 285.303 64.571 287.018C64.2494 289.805 65.5356 293.021 68.2153 293.986C70.252 294.736 72.5028 294.093 74.4322 293.235C82.15 290.02 87.5098 285.303 91.7974 278.336C92.6549 276.942 93.7266 275.763 94.7985 274.691C90.6181 281.23 87.7242 288.305 86.5451 295.379C86.1164 297.952 86.0091 301.168 88.0457 302.883C90.2967 304.812 93.9411 303.847 96.5137 302.239C107.126 295.701 106.483 283.052 115.915 275.656C118.059 274.048 120.632 272.548 123.311 272.976C127.17 273.619 135.531 277.371 135.853 281.337C136.282 286.697 132.53 292.271 128.242 295.058C121.489 299.453 114.2 295.379 107.34 299.345C104.017 301.275 101.445 305.348 102.624 308.993C104.017 313.602 109.484 315.21 114.2 315.853C128.028 317.675 142.284 316.818 155.897 313.387C164.473 311.244 171.333 309.743 179.801 312.851C180.659 313.173 181.409 313.495 182.052 313.816C181.945 313.923 181.838 313.923 181.731 314.031C181.409 314.245 181.088 314.459 180.766 314.781C180.552 314.888 180.337 315.102 180.23 315.21C179.909 315.424 179.587 315.746 179.265 316.067C179.051 316.282 178.944 316.389 178.73 316.603C178.408 316.925 178.193 317.246 177.872 317.568C177.764 317.782 177.55 317.997 177.443 318.104C177.229 318.425 176.907 318.747 176.692 319.069C176.585 319.283 176.371 319.497 176.264 319.712C176.049 320.033 175.835 320.462 175.621 320.784C175.513 320.998 175.406 321.212 175.299 321.427C175.085 321.748 174.87 322.177 174.763 322.499C174.656 322.713 174.549 322.927 174.442 323.249C174.227 323.678 174.12 323.999 174.013 324.428C173.905 324.642 173.799 324.964 173.799 325.178C173.691 325.607 173.584 325.929 173.37 326.357C173.263 326.572 173.263 326.893 173.155 327.108C173.048 327.537 172.941 327.858 172.834 328.287C172.727 328.609 172.727 328.823 172.619 329.145C172.512 329.573 172.512 329.895 172.405 330.324C172.405 330.645 172.298 330.967 172.298 331.288C172.298 331.717 172.191 332.039 172.191 332.467C172.191 332.789 172.191 333.111 172.083 333.432C172.083 333.754 171.976 334.182 171.976 334.504C171.976 334.826 171.976 335.254 171.976 335.576C171.976 335.898 171.976 336.326 171.976 336.648C171.976 337.077 171.976 337.398 171.976 337.827C171.976 338.149 171.976 338.47 171.976 338.792C171.976 339.22 172.083 339.649 172.083 340.078C172.083 340.4 172.084 340.614 172.191 340.936C172.298 341.471 172.298 342.115 172.405 342.651C172.405 342.758 172.405 342.865 172.405 342.972C172.726 345.116 173.155 347.153 173.691 349.189C173.906 349.832 174.013 350.583 174.227 351.226C175.728 356.693 177.55 362.159 178.73 367.626C178.837 368.269 179.051 369.02 179.158 369.663C179.587 371.699 179.801 373.843 180.015 375.987C181.409 396.032 169.618 414.254 163.723 433.549C163.508 434.299 163.294 435.049 163.08 435.907C161.793 440.516 160.935 445.232 160.721 450.056C160.4 458.31 162.222 466.456 165.867 473.853C167.367 476.854 169.082 479.641 171.012 482.321C176.585 489.931 184.089 496.148 192.664 500.007C193.522 500.436 194.379 500.757 195.344 501.079C195.88 501.293 196.416 501.508 197.059 501.722C198.131 502.044 199.203 502.473 200.382 502.687C202.204 503.116 204.026 503.544 205.849 503.759C206.706 503.866 207.456 503.973 208.314 504.08L218.819 493.147C233.397 479.641 261.374 459.703 291.602 469.243C335.55 483.178 437.382 471.387 484.546 436.014C531.71 400.641 598.061 437.836 598.061 437.836C582.089 423.794 570.942 404.285 566.761 383.276Z" fill="white"/>
<path d="M474.897 257.754C474.468 256.897 474.79 256.039 475.433 255.504C481.328 251.109 489.153 249.715 496.335 251.645C498.372 252.181 497.515 255.289 495.478 254.753C489.154 253.038 482.4 254.432 477.148 258.29C476.398 258.934 475.326 258.505 474.897 257.754ZM463.427 210.59C463.427 210.698 463.535 210.698 463.535 210.805C463.642 210.912 463.642 211.126 463.749 211.234C463.856 211.555 463.963 211.877 464.071 212.305C464.285 213.163 465.25 213.699 466 213.377C466.858 213.163 467.394 212.306 467.072 211.448C466.215 208.554 464.607 205.767 462.57 203.623C462.034 202.98 460.855 202.98 460.319 203.623C459.676 204.266 459.676 205.231 460.319 205.874C460.533 206.088 460.748 206.41 460.962 206.624C461.069 206.732 461.176 206.839 461.283 206.946L461.391 207.053C461.391 207.053 461.391 207.053 461.391 207.16C461.82 207.696 462.141 208.232 462.463 208.875C462.784 209.411 463.106 209.947 463.427 210.59ZM448.206 198.263H448.528C448.849 198.263 449.064 198.371 449.386 198.371C449.707 198.371 450.029 198.478 450.35 198.478C450.457 198.478 450.457 198.478 450.564 198.478C450.672 198.692 450.886 198.799 451.1 198.907C451.851 199.335 452.923 199.121 453.351 198.371C453.673 197.727 453.673 197.084 453.351 196.441C453.03 195.905 452.494 195.584 451.851 195.476C450.993 195.262 450.136 195.155 449.278 195.048C447.456 194.833 445.741 194.619 443.919 194.619C443.061 194.619 442.311 195.369 442.311 196.227C442.311 197.084 443.061 197.835 443.919 197.835C445.205 197.835 446.598 197.942 447.885 198.049C447.885 198.263 447.992 198.263 448.206 198.263ZM426.34 213.27C426.554 213.27 426.661 213.27 426.876 213.27C427.197 213.27 427.519 213.27 427.84 213.27C427.84 213.27 428.054 213.27 428.162 213.27C428.269 213.27 428.376 213.27 428.59 213.377C428.912 213.485 429.234 213.485 429.555 213.592C430.198 213.806 430.413 213.913 431.056 214.235C431.377 214.342 431.592 214.556 431.913 214.771C432.02 214.771 432.021 214.878 432.021 214.878C432.021 214.878 432.021 214.878 432.128 214.985C432.235 215.092 432.342 215.2 432.449 215.307C433.414 216.164 433.95 217.022 434.272 218.201C434.808 220.238 437.916 219.38 437.38 217.343C435.451 210.59 426.34 207.911 420.98 212.413C420.337 212.949 420.444 214.128 420.98 214.664C421.623 215.307 422.587 215.2 423.231 214.664C423.338 214.557 423.338 214.556 423.338 214.556C423.338 214.556 423.338 214.556 423.445 214.556C423.552 214.449 423.66 214.342 423.874 214.342C423.981 214.235 424.195 214.235 424.303 214.128C424.41 214.128 424.732 213.913 424.732 213.913C425.053 213.806 426.018 213.485 426.232 213.485C425.804 213.377 426.232 213.27 426.34 213.27ZM448.528 223.989C450.243 222.274 452.923 221.631 455.174 222.381C457.318 223.025 459.032 224.954 459.676 227.098C460.212 229.134 463.321 228.277 462.785 226.24C461.927 222.917 459.354 220.238 456.031 219.273C452.601 218.201 448.742 219.273 446.277 221.738C444.776 223.132 447.027 225.49 448.528 223.989ZM418.836 285.839C416.692 288.09 413.798 289.376 410.69 289.054C409.832 288.947 409.082 289.805 409.082 290.662C409.082 291.627 409.832 292.163 410.69 292.27C414.656 292.699 418.622 290.877 421.301 287.982C424.088 284.981 425.482 281.015 424.838 276.835C424.731 275.977 423.66 275.548 422.909 275.763C421.945 275.977 421.623 276.835 421.837 277.692C422.052 279.086 421.837 280.586 421.301 282.087C420.765 283.48 419.801 284.874 418.836 285.839ZM413.905 387.563C410.154 387.349 406.509 388.313 402.758 388.313C399.22 388.313 395.79 387.777 392.36 386.705C389.251 385.741 385.714 384.133 384.213 381.024C382.927 378.452 383.356 374.914 386.357 373.95C389.037 373.092 392.038 374.378 393.86 376.415C396.219 379.095 397.076 382.632 398.041 385.955C398.577 387.992 401.686 387.134 401.15 385.098C399.542 379.309 397.291 372.556 390.752 370.841C388.179 370.198 385.178 370.412 383.034 372.127C380.676 374.057 379.926 377.165 380.461 380.06C381.855 386.92 389.787 389.814 395.79 390.886C399.435 391.529 403.079 391.636 406.723 391.207C410.153 390.779 414.227 389.921 417.442 391.636C420.015 393.03 421.623 395.71 419.801 398.497C417.871 401.498 414.013 402.034 410.69 402.248C405.759 402.677 398.684 402.784 396.862 397.103C395.897 394.316 395.04 391.636 392.038 390.564C389.573 389.707 386.678 390.243 384.642 391.636C382.069 393.351 380.89 396.46 380.676 399.461C380.462 402.998 381.962 405.893 382.82 409.216C383.785 412.86 381.534 415.111 378.64 416.826C375.745 418.541 372.744 419.935 370.171 422.079C364.811 426.688 362.025 434.941 367.063 440.837C368.456 442.445 370.707 440.087 369.314 438.586C365.026 433.548 369.099 426.795 373.494 423.579C377.675 420.578 383.999 418.97 385.928 413.718C387.107 410.502 385.607 407.501 384.642 404.392C383.784 401.712 383.57 398.604 384.964 396.031C386.143 393.994 388.822 392.708 391.073 393.566C393.646 394.53 393.646 398.068 394.718 400.212C397.291 404.821 403.294 405.785 408.117 405.678C413.798 405.571 421.194 404.606 423.445 398.389C425.803 392.172 419.372 387.885 413.905 387.563ZM389.895 399.997C396.326 410.823 396.219 424.865 389.573 435.585C388.501 437.3 391.288 438.908 392.36 437.192C399.649 425.616 399.756 410.18 392.681 398.389C391.609 396.567 388.823 398.175 389.895 399.997ZM596.88 439.122C585.732 429.153 576.836 416.612 571.048 402.784C568.475 396.674 566.545 390.243 565.259 383.811C563.973 377.38 563.329 370.841 562.579 364.41C561.186 351.761 559.578 338.362 552.289 327.429C540.069 309.313 511.663 305.991 495.585 320.89C494.513 321.855 493.226 321.104 492.905 320.14C494.62 329.037 496.335 337.933 498.264 346.83C498.693 348.867 495.585 349.725 495.156 347.688C494.084 342.757 493.12 337.933 492.155 333.003C488.618 315.102 485.509 297.201 482.829 279.086C479.613 278.121 476.612 276.513 474.146 274.155C473.503 273.512 473.503 272.547 474.146 271.904C474.79 271.261 475.754 271.261 476.398 271.904C482.615 277.906 493.441 278.442 500.194 273.083C506.947 267.723 508.877 257.004 504.482 249.608C500.087 242.212 489.689 238.782 481.864 242.212C481.007 242.533 480.149 242.212 479.721 241.354C479.399 240.497 479.72 239.639 480.578 239.21C481.328 238.889 482.079 238.674 482.829 238.46L478.97 237.603C468.037 226.24 473.397 213.913 472.432 203.623C471.038 188.187 463.213 187.008 454.102 183.9C446.92 184.436 440.167 187.223 434.164 190.974C427.733 195.048 421.73 199.978 415.727 204.588C409.617 209.304 403.401 214.021 397.291 218.737C386.357 227.205 375.316 235.673 364.276 243.927C364.704 244.141 365.026 244.356 365.455 244.57C376.924 251.001 388.501 257.326 400.078 263.65C400.614 263.972 401.042 264.829 400.828 265.472C399.97 267.83 399.113 270.081 398.363 272.44C394.397 283.588 390.323 294.735 386.357 305.776C385.928 307.062 385.5 308.242 384.964 309.528C384.964 309.957 384.857 310.385 384.535 310.707C381.212 320.033 377.782 329.465 374.459 338.791C374.459 338.898 374.352 338.898 374.352 339.005C374.888 339.005 375.424 339.22 375.745 339.756C380.354 348.653 387.108 356.478 395.147 362.48C409.618 373.307 428.054 378.237 445.955 375.236C463.963 372.127 480.578 361.837 490.868 346.723C492.047 345.008 494.835 346.616 493.655 348.331C487.653 357.228 479.506 364.624 470.073 369.984C453.459 379.416 433.414 381.989 415.085 376.308C397.184 370.734 381.641 358.085 372.958 341.471C372.637 340.935 372.744 340.399 372.958 339.97C371.993 339.97 370.921 339.22 371.35 338.041C373.28 332.467 375.316 326.893 377.246 321.319C378.532 317.567 379.926 313.815 381.212 310.171C373.601 303.525 364.276 298.916 354.307 297.094C337.478 294.092 318.183 300.202 308.643 315.102C303.391 323.248 301.784 333.003 297.174 341.471C293.53 348.117 287.849 354.227 280.452 356.37C282.275 358.193 284.097 360.122 285.812 362.159C288.492 365.374 290.528 368.912 292.029 372.878C298.246 389.064 293.101 407.501 288.17 423.365C287.527 425.294 284.418 424.544 285.061 422.507C286.24 418.541 287.42 414.575 288.492 410.502C290.528 402.355 292.029 393.994 291.493 385.634C290.957 377.487 288.17 369.769 282.81 363.552C277.772 357.657 271.341 352.833 267.375 345.973C262.766 337.934 263.516 328.715 264.266 319.818C264.588 315.531 264.91 311.136 264.481 306.848C264.052 303.204 263.194 299.559 261.908 296.129C259.335 289.376 255.155 283.159 249.903 278.121C244.651 273.083 238.326 269.224 231.359 267.08C225.141 265.151 216.888 263.757 211.1 267.616C209.17 268.902 208.205 270.51 207.776 272.44C207.455 273.726 207.455 275.227 207.455 276.62C207.455 276.942 207.455 277.371 207.562 277.692C207.884 281.765 208.098 285.517 207.348 289.59C205.847 296.879 201.774 303.632 196.2 308.456C193.413 310.921 190.197 312.851 186.66 314.137C186.339 314.244 185.91 314.351 185.588 314.566C184.624 314.887 183.659 315.316 182.801 315.745C182.587 315.852 182.372 316.066 182.158 316.174C182.051 316.281 181.944 316.388 181.729 316.495C180.443 317.46 179.264 318.746 178.299 320.033C174.226 325.714 173.154 333.217 173.69 340.077C174.333 349.081 177.978 357.657 180.121 366.339C182.158 374.807 182.372 383.275 180.55 391.851C177.12 408.037 168.437 422.507 164.364 438.479C162.435 445.982 161.792 453.807 163.399 461.525C164.9 468.599 167.902 475.352 172.082 481.248C180.443 493.039 193.842 501.614 208.42 502.901C210.456 503.115 210.456 506.331 208.42 506.116C204.668 505.795 201.024 505.045 197.487 503.973C183.123 499.363 171.01 488.323 164.471 474.817C161.256 468.063 159.326 460.56 159.219 453.057C159.112 444.696 161.256 436.442 164.043 428.617C169.617 412.86 178.514 397.317 178.621 380.274C178.621 370.627 175.298 361.516 172.833 352.404C170.689 344.472 169.509 336.433 171.331 328.393C172.403 323.677 174.869 318.318 178.728 314.887C176.048 313.923 173.261 313.387 170.367 313.387C164.579 313.28 159.005 315.102 153.324 316.281C141.533 318.853 129.313 319.604 117.307 318.425C112.912 317.996 107.982 317.46 104.337 314.673C100.693 311.779 99.835 307.062 102.193 302.989C104.873 298.273 110.126 296.558 115.271 296.451C117.951 296.343 120.63 296.558 123.203 296.022C125.775 295.486 128.027 294.2 129.849 292.377C131.564 290.662 133.064 288.626 133.815 286.267C134.351 284.552 134.994 282.301 133.815 280.693C132.743 279.193 130.921 278.228 129.313 277.371C127.598 276.513 125.776 275.763 123.953 275.334C119.451 274.262 115.271 278.442 112.912 281.872C110.447 285.303 108.946 289.269 107.017 293.02C105.087 296.879 102.622 300.417 99.1921 302.989C95.7619 305.562 89.9738 308.134 86.5437 304.061C83.5424 300.524 85.1499 294.843 86.2218 290.877C86.5434 289.697 86.865 288.518 87.2937 287.446C83.7564 290.877 79.576 293.556 74.9668 295.379C72.287 296.451 69.1785 297.201 66.4988 295.486C64.3549 294.199 63.2832 291.734 62.9617 289.376C62.7473 287.446 63.176 285.517 64.0336 283.695C62.7473 283.052 61.6754 282.194 60.8178 281.015C58.8884 278.228 59.1024 274.584 60.3887 271.582C61.675 268.581 64.0334 266.33 66.4988 264.293C69.1785 262.257 71.9657 260.22 74.7527 258.29C80.3266 254.324 86.1148 250.465 92.3319 247.571C94.5829 246.499 96.9413 245.428 99.4066 244.677H99.2994C94.5829 242.212 90.4026 238.46 87.0797 234.28C83.5424 229.885 78.3972 222.167 82.792 216.7C85.579 213.27 90.5097 212.627 94.4758 214.342C99.085 216.379 102.193 220.666 105.945 223.882C116.986 233.208 131.135 237.71 144.641 243.069C146.142 243.605 147.642 244.248 149.036 244.784C161.792 250.144 174.333 256.254 186.874 262.042C192.448 264.615 198.344 266.759 203.703 269.76C204.239 270.081 204.775 270.403 205.311 270.725C207.562 264.936 214.101 262.471 220.425 262.364C227.822 262.257 235.432 264.722 241.864 268.366C248.509 272.118 254.298 277.37 258.8 283.48C263.194 289.59 266.41 296.665 267.589 304.061C269.09 313.065 267.054 322.069 267.161 331.073C267.268 335.682 268.018 340.184 270.269 344.258C272.199 347.795 274.878 350.796 277.773 353.583C277.88 353.691 278.094 353.905 278.201 354.012C288.277 352.19 294.173 342.864 297.71 333.967C301.248 324.963 303.927 315.531 310.573 308.242C316.469 301.917 324.293 297.415 332.654 295.164C350.126 290.341 369.099 295.7 382.82 307.17C385.5 299.559 388.287 292.056 390.967 284.445C393.218 278.335 395.361 272.118 397.612 266.008C394.718 264.4 391.824 262.9 389.037 261.292C379.604 256.147 370.279 250.894 360.953 245.749C359.774 245.106 359.988 243.605 360.953 242.962C367.599 238.031 374.137 233.101 380.676 228.063C393.11 218.523 405.437 208.983 417.978 199.443C423.874 194.941 429.77 190.01 436.308 186.472C440.274 184.329 444.455 182.721 448.742 181.649C445.955 180.255 443.061 178.433 440.381 175.753C433.521 169 430.305 146.919 444.133 135.771C455.602 165.677 476.505 151.314 499.336 170.287C517.023 184.972 506.411 222.274 493.012 238.139C499.122 239.21 504.696 242.748 507.912 248.107C513.164 257.004 510.913 269.331 502.767 275.763C499.015 278.764 494.299 280.157 489.582 280.157C488.618 280.157 487.653 280.05 486.688 279.943C487.438 284.767 488.189 289.59 488.939 294.307C490.333 302.882 491.833 311.35 493.441 319.818C493.441 319.389 493.548 319.068 493.977 318.746C503.302 310.171 516.487 307.062 528.814 309.099C539.962 310.921 549.931 317.138 556.148 326.678C563.437 337.934 564.937 351.547 566.438 364.517C567.188 371.163 567.832 377.809 569.225 384.347C570.619 391.1 572.762 397.746 575.657 404.07C581.338 416.612 589.484 427.867 599.775 437.085C600.739 438.264 598.381 440.515 596.88 439.122ZM101.872 241.89C102.622 242.212 103.373 242.426 104.123 242.641C107.446 243.391 110.983 242.962 114.52 243.069C118.701 241.569 123.096 240.39 127.49 239.854C119.665 236.316 112.055 232.35 105.302 227.098C103.48 225.704 101.765 224.204 100.157 222.703C98.4416 221.095 96.8339 219.273 94.9044 217.987C91.9031 215.95 87.0795 215.092 84.7213 218.63C83.3278 220.881 84.3999 223.882 85.4718 226.026C86.9725 228.92 89.0089 231.6 91.1527 234.065C94.2613 237.174 97.7986 239.961 101.872 241.89ZM65.3196 280.372C66.8202 278.014 68.6426 275.87 70.2505 273.94C73.895 269.438 77.8612 265.365 82.2561 261.613C90.617 254.432 100.157 248.643 110.447 244.677C108.303 244.999 106.267 245.428 104.23 245.963C94.7974 248.536 86.1145 253.681 78.0752 259.255C75.6098 260.97 73.1445 262.793 70.6791 264.615C68.4281 266.33 65.9627 268.045 64.2476 270.403C62.8542 272.44 61.7824 275.227 62.7471 277.692C63.1758 278.764 64.1405 279.836 65.3196 280.372ZM204.239 273.512C200.809 271.046 196.629 269.438 192.77 267.723C186.553 264.936 180.55 262.149 174.44 259.255C168.545 256.468 162.649 253.788 156.647 251.109C156.325 251.109 156.004 251.109 155.682 250.894C149.465 247.679 142.497 245.535 135.744 243.177C130.063 242.212 124.382 243.498 118.915 245.106C113.556 246.714 108.41 248.75 103.372 251.216C93.618 256.147 84.7213 262.793 77.2179 270.725C75.2884 272.761 73.3588 274.905 71.6437 277.156C70.7862 278.228 69.9288 279.407 69.0712 280.586C68.3209 281.658 67.6779 282.73 67.0347 283.909C67.0347 284.016 66.9274 284.016 66.9274 284.124C65.8555 286.375 65.3195 289.162 66.8201 291.305C68.6424 293.878 71.8584 292.699 74.1094 291.627C78.8258 289.59 83.0063 286.696 86.4364 282.837C88.1515 280.908 89.4375 278.657 90.9381 276.513C91.6885 275.548 92.439 274.691 93.2965 273.833C102.193 259.791 117.2 248.536 134.244 248.643C136.28 248.643 136.28 251.859 134.244 251.859C132.1 251.859 129.956 251.966 127.919 252.395C121.273 253.574 115.163 256.468 109.804 260.434C104.123 264.615 99.2994 270.082 95.5477 276.084C93.4038 279.514 91.6889 283.159 90.2954 286.91C89.5451 288.947 88.9017 291.091 88.4729 293.128C88.0442 295.164 87.4009 297.522 87.8297 299.559C88.9016 305.24 95.9765 300.738 98.3347 298.594C104.445 292.913 105.945 284.231 111.09 277.799C113.985 274.262 118.594 270.617 123.525 271.368C127.062 271.904 130.814 273.726 133.708 275.87C135.101 276.942 136.494 278.228 137.03 279.943C137.673 281.873 137.352 284.231 136.709 286.053C135.315 290.662 131.885 294.95 127.598 297.094C122.667 299.559 117.522 298.38 112.376 299.13C108.196 299.773 102.622 303.311 103.908 308.349C104.98 312.315 109.911 313.494 113.448 314.137C119.237 315.102 125.132 315.209 130.921 315.102C136.816 314.995 142.712 314.351 148.5 313.28C154.074 312.208 159.541 310.493 165.222 309.742C169.617 309.206 173.904 309.421 178.085 310.6C179.157 310.921 180.229 311.243 181.301 311.779C181.515 311.886 181.622 311.886 181.729 311.993C182.372 311.672 182.908 311.457 183.658 311.243C190.947 308.992 197.165 303.632 200.809 296.986C202.631 293.664 203.918 290.019 204.347 286.267C205.097 282.087 203.811 277.799 204.239 273.512Z" fill="black"/>
<path d="M46.8869 366.982L72.1836 379.309C70.2541 381.882 67.2532 383.704 64.0375 384.24C58.5707 384.99 52.8893 382.096 49.7807 377.487C47.7441 374.378 46.7797 370.627 46.8869 366.982ZM114.739 286.053C112.809 285.41 110.987 287.017 109.594 288.411C100.911 297.522 92.8717 307.062 85.2611 317.138C83.7604 316.602 82.1526 316.173 80.4375 316.066C73.5773 315.423 66.5027 318.317 61.6791 323.248C55.3548 329.572 52.0321 339.112 44.2071 343.507C39.3835 346.294 32.4158 347.473 31.0223 352.833L29.3071 352.297C36.5961 357.442 44.7431 361.301 52.7824 365.053C66.3957 371.484 80.1158 378.023 93.7291 384.454C95.5513 377.38 92.5499 377.38 90.942 369.983C89.5485 363.445 94.158 355.298 95.4443 348.76C96.8377 341.792 98.767 334.396 96.3016 327.643C95.1225 324.534 93.086 321.962 90.5134 319.925C98.6599 311.779 106.485 303.311 113.988 294.628C115.06 293.342 116.24 291.948 116.561 290.233C116.883 288.518 116.347 286.696 114.739 286.053Z" fill="#FFE945"/>
<path d="M27.1607 331.825C26.8391 332.575 25.6604 332.789 24.9101 332.36C24.0525 331.932 23.9453 330.967 24.3741 330.109C28.0186 321.641 35.0928 314.888 43.7753 311.673C44.6328 311.351 45.4907 311.994 45.705 312.744C45.9194 313.602 45.3835 314.46 44.6331 314.674C36.8082 317.782 30.4836 324.107 27.1607 331.825ZM3.14995 328.716C8.83108 314.995 19.4433 303.526 32.4134 296.344C36.1651 294.308 40.0239 292.7 44.0972 291.413C46.0266 290.77 45.276 287.662 43.2393 288.305C28.2326 293.021 15.0482 302.99 6.36568 316.067C3.90028 319.712 1.86386 323.678 0.148804 327.751C-0.708726 329.788 2.39961 330.645 3.14995 328.716ZM108.519 348.118C110.234 355.621 110.02 363.339 107.661 370.628C107.018 372.557 110.127 373.415 110.77 371.485C113.235 363.66 113.45 355.299 111.628 347.26C111.199 345.223 108.09 346.081 108.519 348.118ZM129.314 333.861C136.603 346.831 138.104 362.696 133.602 376.845C132.959 378.774 136.067 379.632 136.71 377.702C141.534 362.696 139.819 345.974 132.101 332.253C131.136 330.431 128.349 332.146 129.314 333.861Z" fill="black"/>
<path d="M315.72 105.437C315.076 104.793 315.184 103.829 315.72 103.186C316.363 102.542 317.328 102.65 317.971 103.186L318.078 103.293C318.185 103.4 318.185 103.4 317.971 103.186C318.078 103.186 318.185 103.293 318.185 103.293C318.292 103.4 318.399 103.4 318.507 103.4C318.614 103.507 318.721 103.4 318.399 103.4C318.614 103.4 318.828 103.507 319.043 103.614C319.15 103.614 319.257 103.614 319.364 103.722C319.042 103.614 319.15 103.722 319.364 103.722C319.578 103.722 319.793 103.722 319.9 103.722C320.007 103.722 320.114 103.722 320.329 103.722C319.9 103.722 320.114 103.722 320.329 103.722C320.543 103.722 320.757 103.614 320.865 103.614C320.972 103.614 321.079 103.507 321.186 103.507C320.865 103.507 320.972 103.614 321.079 103.507C321.294 103.4 321.401 103.293 321.615 103.186C321.722 103.186 321.83 103.078 321.83 102.971C321.83 102.971 321.508 103.186 321.722 103.078C321.83 102.971 322.044 102.864 322.151 102.65C322.151 102.65 322.366 102.328 322.258 102.542C322.151 102.757 322.258 102.542 322.258 102.435C322.366 102.328 322.365 102.221 322.472 102.114C322.472 102.007 322.58 102.007 322.58 101.899C322.58 102.007 322.472 102.007 322.472 102.114C322.472 102.007 322.58 101.792 322.58 101.578C322.58 101.578 322.58 101.256 322.687 101.256C322.687 101.471 322.687 101.578 322.687 101.363V101.256C322.687 101.042 322.687 100.935 322.687 100.72C322.687 100.506 322.687 100.613 322.687 100.827C322.687 100.72 322.687 100.72 322.687 100.613C322.687 100.506 322.687 100.506 322.687 100.399L322.472 99.7555C322.472 99.7555 322.687 100.077 322.472 99.7555C322.472 99.6483 322.366 99.6483 322.366 99.5411C322.258 99.3267 322.151 99.2195 322.044 99.0051C321.829 98.6836 322.258 99.2195 322.044 99.0051C321.937 98.8979 321.937 98.8979 321.83 98.7907C321.723 98.6836 321.401 98.362 321.401 98.362C321.401 98.362 321.722 98.5764 321.508 98.4692C321.401 98.362 321.294 98.362 321.294 98.2548C321.187 98.2548 321.079 98.1476 320.972 98.1476C320.865 98.1476 320.865 98.0404 320.758 98.0404H320.865C320.972 98.0404 320.972 98.1476 320.865 98.0404C320.757 98.0404 320.758 98.0404 320.65 97.9332C320.543 97.9332 320.436 97.8261 320.329 97.8261C320.221 97.8261 320.222 97.8261 320.115 97.8261C320.222 97.8261 320.221 97.8261 320.329 97.8261H320.115C320.007 97.8261 319.9 97.8261 319.793 97.8261C319.685 97.8261 319.686 97.8261 319.579 97.8261C319.686 97.8261 319.685 97.8261 319.793 97.8261C319.685 97.9333 319.471 97.9332 319.257 97.9332C319.15 97.9332 319.15 97.9332 319.043 98.0404C318.935 98.1476 318.936 98.0404 319.15 98.0404C319.15 98.1476 318.935 98.1476 318.828 98.1476C318.721 98.2548 318.507 98.362 318.399 98.362C318.078 98.5764 318.399 98.4692 318.399 98.362L318.185 98.5763C318.078 98.6835 317.971 98.7908 317.863 98.898L317.756 99.0051C317.863 98.7908 317.971 98.7908 317.863 98.898C317.863 99.0052 317.756 99.0051 317.756 99.1123C317.649 99.3267 317.542 99.4339 317.435 99.6483C317.435 99.7554 317.327 99.7555 317.327 99.8627C317.327 99.7555 317.435 99.7554 317.435 99.6483L317.327 99.8627C317.22 100.077 317.22 100.291 317.113 100.399C317.113 100.506 317.113 100.506 317.113 100.613C317.113 100.399 317.113 100.291 317.113 100.399C317.113 100.506 317.113 100.613 317.113 100.613C317.113 100.827 317.113 101.042 317.113 101.256C317.113 101.578 317.113 101.149 317.113 101.149C317.113 101.149 317.113 101.363 317.22 101.471C317.22 101.578 317.542 102.221 317.327 101.792C317.649 102.65 317.542 103.507 316.792 104.043C316.148 104.472 314.969 104.258 314.54 103.507C314.004 102.221 313.79 100.935 314.219 99.5411C314.541 98.362 315.184 97.1829 316.148 96.4325C317.971 94.7175 320.543 94.3959 322.794 95.575C324.831 96.6469 326.224 99.1123 326.01 101.363C325.796 103.829 324.187 105.651 321.936 106.401C319.685 107.366 317.327 106.937 315.72 105.437ZM179.801 128.268C182.052 130.198 184.411 132.234 186.662 134.164C187.305 134.7 188.27 134.807 188.913 134.164C189.449 133.521 189.556 132.449 188.913 131.913C186.662 129.983 184.303 127.947 182.052 126.017C181.409 125.481 180.445 125.374 179.801 126.017C179.266 126.553 179.158 127.625 179.801 128.268ZM285.277 215.522C284.956 222.382 284.634 229.242 284.313 236.21C284.206 238.246 287.421 238.246 287.529 236.21C287.85 229.35 288.172 222.489 288.493 215.522C288.6 213.485 285.385 213.485 285.277 215.522Z" fill="black"/>
</svg>
