<svg width="600" height="600" viewBox="0 0 600 600" fill="none" xmlns="http://www.w3.org/2000/svg">
<path d="M252.734 452.198C251.918 432.408 229.475 420.881 209.787 418.637C190.099 416.494 168.88 419.045 151.538 409.251C136.032 400.478 126.953 383.34 122.261 366.1C117.568 348.86 116.242 330.906 111.448 313.666C104.205 287.449 89.005 262.864 88.801 235.627C88.597 202.575 113.998 171.054 146.336 164.219C164.392 160.444 183.57 163.607 201.422 158.71C240.391 147.999 260.487 103.114 297.211 86.1799C320.776 75.2646 348.319 77.2029 373.822 82.6095C385.86 85.1598 397.795 88.4243 408.302 94.7491C424.012 104.236 435.437 120.66 438.906 138.614C446.863 179.623 415.749 217.775 410.444 259.294C407.894 279.288 411.566 299.997 420.952 317.951C428.5 332.335 439.416 344.678 447.169 358.96C454.819 373.241 459.002 390.991 451.963 405.579C448.087 413.638 441.048 419.963 433.397 424.655C408.404 440.059 377.189 439.957 347.809 439.345" fill="#F4F6F9"/>
<path d="M355.358 289.796C355.358 297.039 355.46 304.996 360.05 310.607C366.273 318.36 377.8 318.666 387.695 318.258C412.79 317.237 437.885 316.115 462.878 314.585C474.916 313.871 478.078 321.114 484.607 330.805C491.237 340.598 496.848 351.004 501.439 361.817C503.581 336.314 510.62 309.178 509.192 283.574C506.947 240.627 504.601 197.782 502.357 154.835C502.051 149.326 501.643 143.511 498.276 139.227C492.768 132.188 482.363 132.29 473.487 133.106C453.391 134.84 433.397 136.472 413.301 138.207C398.407 139.431 376.27 137.595 364.233 148.204C358.622 153.202 355.766 160.751 355.154 168.3C354.236 177.685 356.276 186.968 356.072 196.353C355.766 206.759 355.97 217.164 355.868 227.467C355.664 248.277 355.562 268.986 355.358 289.796Z" fill="white"/>
<path d="M510.824 285.001C510.416 275.922 509.906 266.741 509.396 257.662C508.376 239.3 507.458 221.04 506.438 202.678C505.927 193.497 505.417 184.316 505.009 175.237C504.805 170.646 504.499 166.056 504.295 161.465C504.091 157.283 503.989 153.202 503.479 149.02C502.969 145.449 502.051 141.675 499.909 138.716C497.97 136.064 495.42 134.228 492.36 133.004C486.137 130.556 479.098 130.963 472.57 131.576C454.31 133.106 436.151 134.636 417.891 136.268C411.26 136.88 404.63 137.084 397.897 137.39C391.368 137.696 384.737 138.206 378.311 139.736C372.292 141.267 366.273 143.817 361.887 148.407C356.786 153.712 354.338 160.955 353.624 168.096C352.706 176.971 354.542 185.744 354.542 194.619C354.542 203.698 354.338 212.675 354.338 221.754C354.338 240.014 354.134 258.172 353.93 276.432C353.93 280.921 353.828 285.409 353.828 289.898C353.828 295.815 353.828 301.935 356.276 307.444C358.52 312.545 362.805 316.115 368.008 318.053C373.108 319.889 378.719 320.093 384.125 320.093C391.266 319.991 398.305 319.583 405.446 319.277C420.34 318.665 435.233 317.951 450.127 317.135C453.901 316.931 457.574 316.727 461.246 316.421C463.899 316.217 466.551 316.115 469.101 316.931C473.284 318.155 476.038 321.42 478.486 324.786C486.851 336.823 494.298 349.473 500.011 362.938C500.623 364.468 502.765 363.448 502.867 362.122C504.295 344.882 507.764 327.948 509.6 310.81C510.62 302.037 511.232 293.468 510.824 285.001ZM507.662 299.283C506.743 316.217 503.479 332.845 501.235 349.575C500.929 351.717 500.725 353.757 500.521 355.9C498.379 351.309 496.134 346.821 493.584 342.434C490.422 336.823 486.851 331.417 483.281 326.01C480.833 322.338 478.384 318.461 474.712 315.911C470.427 312.851 465.429 312.85 460.328 313.156C445.639 314.075 430.847 314.789 416.157 315.503C408.71 315.809 401.263 316.115 393.816 316.523C387.798 316.727 381.779 317.237 375.76 316.523C370.048 315.809 364.029 313.871 360.662 308.872C356.888 303.363 356.888 296.223 356.888 289.796C356.99 271.944 357.092 254.194 357.296 236.342C357.398 227.467 357.398 218.592 357.398 209.615C357.398 205.228 357.5 200.74 357.602 196.353C357.704 192.069 357.398 187.784 356.99 183.602C356.378 175.543 355.868 167.382 358.622 159.629C360.867 153.202 365.355 148.305 371.476 145.347C377.086 142.695 383.411 141.573 389.532 141.063C395.857 140.451 402.283 140.349 408.608 140.043C416.667 139.634 424.726 138.818 432.785 138.104C441.66 137.39 450.535 136.574 459.308 135.86C463.797 135.452 468.285 135.146 472.671 134.738C476.038 134.432 479.302 134.228 482.669 134.33C488.993 134.636 495.522 136.574 498.481 142.593C500.113 145.857 500.419 149.632 500.623 153.202C500.929 157.589 501.133 161.975 501.337 166.26C501.847 175.237 502.255 184.214 502.765 193.191C503.683 211.043 504.703 228.997 505.621 246.849C506.131 255.724 506.539 264.701 507.049 273.576C507.662 282.247 508.07 290.714 507.662 299.283ZM476.65 232.771C469.203 231.445 461.552 230.119 454.922 226.141C449.107 222.672 444.618 217.368 443.19 210.737C441.762 204.31 442.884 197.679 443.292 191.151C443.394 189.416 443.394 187.58 443.292 185.846C443.19 184.418 443.088 182.99 442.476 181.766C441.15 179.317 437.885 179.215 435.641 180.133C430.745 182.071 428.602 187.988 428.398 192.885C428.092 199.617 430.337 206.044 430.745 212.777C430.949 217.572 430.439 223.488 426.46 226.855C421.972 230.629 415.749 229.609 410.342 228.997C404.018 228.283 396.775 228.385 391.776 232.975C388.104 236.342 386.88 242.36 390.348 246.135C394.326 248.787 399.223 249.705 403.814 248.481C405.752 247.971 406.568 250.929 404.63 251.439C399.937 252.664 394.836 252.052 390.552 249.807C387.594 253.072 388.206 258.58 392.592 260.416C393 260.62 393.306 260.927 393.51 261.233C397.999 262.559 402.692 262.967 407.282 262.355C408.098 262.253 408.812 263.171 408.812 263.885C408.812 264.803 408.098 265.313 407.282 265.415C402.386 266.027 397.387 265.619 392.694 264.191C391.164 267.863 392.592 272.046 395.959 274.086C396.265 273.984 396.571 273.882 396.979 274.086C402.385 275.82 408.098 276.228 413.607 275.106C415.545 274.698 416.361 277.656 414.423 278.065C409.22 279.085 403.915 278.983 398.917 277.758C397.285 279.595 398.713 282.247 400.447 283.471C402.793 285.205 405.956 285.919 408.71 286.532C420.033 288.674 430.439 283.573 441.354 281.329C452.371 279.085 463.797 279.595 474.508 282.757C476.446 283.267 475.63 286.225 473.692 285.715C466.959 283.777 460.022 282.859 452.983 283.063C446.964 283.267 441.048 284.389 435.335 286.022C429.521 287.654 423.808 289.49 417.789 290.102C412.076 290.612 405.854 289.694 400.651 287.246C398.407 286.123 396.367 284.389 395.551 281.941C395.041 280.513 395.143 278.881 395.653 277.452C390.246 275.004 387.696 268.577 389.94 263.171C389.736 262.967 389.532 262.559 389.532 262.253C387.594 260.825 386.166 258.784 385.757 256.336C385.247 253.48 386.063 250.419 388.002 248.277C383.921 243.789 384.737 236.546 388.614 232.057C393.612 226.242 401.773 225.222 409.016 225.936C414.117 226.446 421.666 228.487 425.44 223.692C428.602 219.612 427.99 213.185 427.276 208.39C426.256 201.556 424.216 194.415 426.358 187.58C427.888 182.378 431.765 177.379 437.477 176.767C440.232 176.461 443.19 177.379 444.924 179.725C446.761 182.378 446.76 186.05 446.658 189.11C446.556 195.843 445.026 202.78 446.251 209.513C447.475 215.939 451.555 220.836 457.166 223.998C463.388 227.569 470.631 228.793 477.67 230.017C479.404 230.119 478.588 233.077 476.65 232.771ZM398.713 151.366C397.693 149.734 400.345 148.204 401.365 149.836C405.14 155.752 409.832 161.057 415.137 165.648C415.749 166.158 415.647 167.28 415.137 167.79C414.525 168.402 413.607 168.3 412.995 167.79C407.486 163.097 402.691 157.589 398.713 151.366ZM456.146 170.748C460.328 165.138 464.613 159.527 468.795 153.916C469.305 153.304 470.121 152.896 470.937 153.406C471.549 153.814 471.957 154.834 471.447 155.548C467.265 161.159 462.981 166.77 458.798 172.38C458.288 172.992 457.472 173.4 456.656 172.89C456.044 172.482 455.636 171.462 456.146 170.748ZM436.049 163.301C436.049 158.303 436.049 153.304 436.049 148.306C436.049 146.367 439.11 146.367 439.11 148.306C439.11 153.304 439.11 158.303 439.11 163.301C439.11 165.342 436.049 165.342 436.049 163.301Z" fill="black"/>
<path d="M250.081 304.18C293.436 298.977 337.097 296.835 380.758 297.549C386.777 297.651 393.306 297.957 397.896 301.833C404.425 307.342 404.425 317.237 403.813 325.704C400.447 373.956 397.08 422.105 393.714 470.357C393.306 475.968 392.796 481.884 389.123 486.169C386.267 489.433 381.982 491.065 377.8 492.392C350.869 500.859 319.551 503.205 291.702 498.512C280.175 496.574 275.278 498.104 266.301 506.265C257.018 514.732 249.163 524.729 243.144 535.848C242.226 537.481 240.288 539.419 238.86 538.195C238.35 537.685 238.248 536.971 238.146 536.257C233.759 500.961 229.781 466.99 230.087 431.49C230.393 394.358 235.188 357.43 239.88 320.604C240.39 316.829 240.9 312.851 243.043 309.688C245.185 306.526 247.735 304.486 252.122 304.486" fill="white"/>
<path d="M405.446 317.135C405.242 312.443 404.323 307.444 401.467 303.568C398.305 299.283 393.51 297.243 388.41 296.529C382.391 295.713 376.168 295.917 370.048 295.917C363.315 295.917 356.582 295.917 349.849 296.019C323.02 296.427 296.293 297.957 269.668 300.507C263.139 301.119 256.61 301.833 250.082 302.65C249.674 302.65 249.367 302.854 249.061 303.16C245.389 304.078 242.533 306.628 240.798 310.198C239.472 312.749 238.962 315.503 238.554 318.359C238.146 321.522 237.738 324.786 237.33 327.948C235.596 341.21 233.964 354.471 232.536 367.733C229.679 394.358 227.843 421.085 228.659 447.914C229.373 474.233 232.23 500.45 235.392 526.565C235.8 529.83 236.106 533.196 236.616 536.461C236.922 538.909 238.962 540.847 241.513 539.623C243.859 538.399 244.879 535.644 246.103 533.502C247.531 530.952 249.163 528.504 250.796 526.055C254.162 521.261 257.835 516.67 261.915 512.488C265.485 508.713 269.362 504.837 273.85 502.083C277.217 499.94 280.889 499.124 284.97 499.226C290.478 499.43 295.885 500.756 301.291 501.368C313.431 502.695 325.672 502.797 337.71 501.674C349.645 500.654 361.58 498.512 373.21 495.248C378.412 493.819 384.023 492.391 388.308 488.923C392.592 485.455 394.122 480.048 394.734 474.845C394.836 473.621 395.04 472.397 395.142 471.071C395.346 470.765 395.346 470.459 395.244 470.051C395.652 465.256 395.856 460.36 396.162 455.565C396.672 448.832 397.081 441.998 397.591 435.265C398.509 421.901 399.427 408.538 400.447 395.174C401.365 381.607 402.385 368.141 403.303 354.573C403.813 347.841 404.222 341.006 404.732 334.273C405.14 328.663 405.752 322.848 405.446 317.135ZM391.98 471.989C391.572 477.09 390.756 482.598 386.777 486.271C382.799 489.841 376.78 491.167 371.782 492.493C370.762 492.799 369.741 493.003 368.823 493.31C368.721 493.106 368.619 492.901 368.415 492.697C362.601 487.801 362.295 478.518 365.559 472.091C368.925 465.358 376.678 460.972 384.125 463.318C387.593 464.44 390.654 467.093 392.184 470.459C392.082 470.969 392.082 471.479 391.98 471.989ZM392.49 465.46C388.104 460.36 380.963 458.319 374.332 460.564C365.457 463.522 360.152 472.397 360.458 481.578C360.56 486.169 362.193 490.963 365.457 494.228C362.091 495.044 358.622 495.758 355.256 496.37L355.154 496.268C354.746 496.064 354.338 495.86 353.93 495.554C353.726 495.452 353.624 495.35 353.42 495.248L353.317 495.146C353.317 495.146 353.215 495.044 353.113 495.044C352.399 494.432 351.787 493.819 351.175 493.207C351.073 493.105 351.073 493.003 350.971 493.003C350.869 492.799 350.665 492.595 350.563 492.493C350.359 492.085 350.053 491.779 349.849 491.371C349.645 490.963 349.441 490.555 349.237 490.249C349.135 490.045 349.033 489.841 348.931 489.637L348.829 489.433C348.829 489.331 348.727 489.331 348.727 489.229C348.523 488.719 348.115 488.311 347.605 488.107C347.299 487.495 346.585 487.291 345.871 487.393C343.626 487.699 341.382 488.005 339.24 488.311C338.73 488.413 338.22 488.413 337.608 488.515C337.302 488.515 337.098 488.617 336.792 488.617C336.792 488.617 336.588 488.617 336.486 488.617C336.486 488.515 336.486 488.413 336.486 488.311C336.384 487.903 336.486 487.495 336.486 487.189C336.69 483.414 336.894 479.64 337.2 475.764C340.158 476.784 343.32 477.192 346.483 476.886C347.299 476.784 348.013 476.273 348.013 475.355C348.013 475.151 347.911 474.845 347.809 474.641C348.829 469.439 350.971 464.44 354.338 460.258C354.848 459.646 354.95 458.728 354.338 458.115C354.032 457.809 353.521 457.605 353.011 457.708C350.869 456.381 348.727 454.953 346.585 453.627C351.073 450.363 355.46 447.098 359.948 443.936C360.152 446.588 361.172 449.138 362.805 451.281V451.383C363.009 452.097 363.927 452.811 364.641 452.403C368.211 450.975 371.986 450.465 375.76 450.669C376.576 450.771 377.29 449.954 377.29 449.138C377.29 448.628 377.086 448.322 376.78 448.016C377.698 444.854 378.82 441.896 380.351 439.039C380.963 439.549 381.779 439.957 382.595 440.263C383.513 440.569 384.431 440.671 385.349 440.773C386.165 440.875 387.185 441.079 387.695 441.691C388.92 443.018 387.389 445.466 386.675 446.69C385.553 448.73 384.431 451.179 385.349 453.423C385.655 454.137 386.267 454.647 387.083 454.545C387.185 454.647 387.185 454.749 387.287 454.749C387.491 454.851 387.696 455.055 387.9 455.157C389.226 456.177 390.348 457.299 391.368 458.626C391.47 458.728 391.572 458.83 391.572 458.932C391.776 459.238 392.082 459.544 392.49 459.646C392.592 459.646 392.694 459.646 392.796 459.646C392.796 461.584 392.592 463.522 392.49 465.46ZM336.588 488.617C336.588 488.515 336.588 488.515 336.588 488.617C336.69 488.515 336.588 488.515 336.588 488.617ZM401.569 335.395C400.651 348.453 399.733 361.408 398.815 374.466C396.979 400.683 395.142 426.9 393.306 453.117C393.204 454.035 393.204 454.953 393.102 455.769C391.878 454.341 390.45 453.015 388.818 451.893C388.614 451.791 388.308 451.689 388.001 451.689C387.797 449.954 389.124 448.322 389.838 446.792C390.858 444.854 391.572 442.508 390.45 440.365C389.532 438.427 387.389 437.815 385.451 437.509C384.431 437.407 381.779 437.203 381.677 435.775C381.575 434.245 379.637 433.633 378.82 434.959C376.576 438.835 374.842 442.916 373.618 447.302V447.404C370.66 447.404 367.599 447.914 364.743 448.934C363.213 446.69 362.397 443.834 362.805 441.181C363.009 440.059 361.785 438.529 360.56 439.447C354.746 443.732 348.829 448.016 343.014 452.301C342.096 453.015 341.994 454.239 343.014 454.953C345.565 456.585 348.115 458.217 350.767 459.85C347.809 464.032 345.769 468.827 344.749 473.825C341.892 473.825 339.138 473.315 336.486 472.193C335.363 471.683 334.241 472.295 334.139 473.519C333.935 476.172 333.833 478.824 333.629 481.476C333.527 482.802 333.425 484.128 333.425 485.557C333.323 486.679 333.221 487.801 333.425 488.923C333.629 489.943 334.139 490.759 334.955 491.269C336.077 491.881 337.506 491.473 338.73 491.269C341.178 490.963 343.524 490.555 345.973 490.249C347.095 492.901 348.727 495.248 350.869 497.084C340.464 498.716 329.957 499.532 319.45 499.43C313.737 499.43 307.922 499.022 302.21 498.512C296.803 497.9 291.396 496.676 285.99 496.37C282.011 496.166 278.135 496.676 274.462 498.41C270.178 500.45 266.506 503.817 263.139 507.081C254.978 514.834 247.939 523.913 242.431 533.808C241.819 534.828 241.411 536.053 240.39 536.767C240.186 536.971 239.982 537.073 239.778 536.971C239.472 536.767 239.472 534.93 239.37 534.726C238.962 531.564 238.554 528.402 238.248 525.239C237.432 518.813 236.718 512.386 236.004 505.857C234.576 493.208 233.352 480.558 232.637 467.807C232.127 459.238 231.821 450.771 231.719 442.202C242.737 441.181 252.53 446.792 261.405 452.913C255.59 460.564 249.47 468.113 243.247 475.457C241.921 475.253 241.002 477.192 242.125 478.212C242.431 478.722 242.941 479.232 243.553 479.232C248.654 482.7 253.754 486.169 258.855 489.535C260.181 490.453 261.405 488.923 260.997 487.699C267.015 480.048 273.034 472.397 279.155 464.746C280.787 465.664 282.419 466.378 284.052 467.194C289.764 469.643 296.803 471.683 302.618 468.623C306.29 466.684 308.738 462.094 307.82 458.115C311.697 458.728 315.777 457.503 318.532 454.647C321.796 451.179 322.51 445.772 320.572 441.487C324.754 440.365 329.243 438.631 331.385 434.653C332.915 431.898 333.119 428.328 331.487 425.676C333.731 424.86 335.567 423.023 336.689 420.881C338.322 417.617 338.322 413.944 336.996 410.578C336.588 409.456 336.077 408.436 335.465 407.416C339.138 403.335 339.444 396.806 336.282 392.318C337.098 391.094 338.016 389.87 338.832 388.543C343.728 388.441 348.625 388.339 353.521 388.237C354.134 388.645 355.052 388.645 355.562 388.135C359.438 383.341 363.417 378.648 367.293 373.854C367.803 373.242 367.905 372.425 367.395 371.813C368.007 366.713 368.517 361.51 369.129 356.41C369.129 356.308 369.231 356.206 369.231 356.002C369.231 355.798 369.231 355.492 369.333 355.288V355.186C370.353 353.859 368.415 351.921 366.987 353.247C364.335 355.696 361.682 358.144 359.132 360.694C359.744 355.9 359.948 351.105 359.438 346.31C359.336 345.494 358.826 344.78 357.908 344.78C357.602 344.78 357.296 344.882 357.092 345.086C352.297 344.78 347.503 344.78 342.708 345.086C344.239 342.74 345.769 340.496 347.299 338.149C347.401 337.945 347.503 337.741 347.503 337.639C348.727 336.823 347.911 334.477 346.177 334.885C339.546 336.619 332.915 337.946 326.182 338.864C325.366 338.966 324.754 339.476 324.652 340.19C321.694 345.596 318.736 351.003 315.879 356.308C315.675 356.716 315.675 357.124 315.777 357.43C315.777 357.634 315.675 357.94 315.777 358.144C316.899 364.061 319.042 369.875 322 375.18C320.674 377.118 319.45 379.056 318.123 380.994C318.021 380.994 317.817 380.893 317.715 380.893C299.863 379.056 281.705 380.893 264.567 386.503C262.731 387.115 263.547 390.074 265.383 389.461C281.501 384.259 298.639 382.321 315.471 383.749C314.553 385.789 313.227 387.523 311.595 389.054C307.31 387.931 302.924 387.319 298.537 387.115C296.599 387.013 296.599 390.073 298.537 390.175C302.72 390.277 306.902 390.992 310.983 392.012C310.983 392.012 310.983 392.012 311.085 392.114C316.287 395.378 321.796 398.133 326.488 402.009C330.671 405.375 335.975 410.986 334.955 416.903C334.445 419.759 332.507 422.615 329.651 423.125C324.856 418.637 319.042 415.475 312.615 413.842C310.677 413.332 309.86 416.291 311.799 416.801C317.511 418.229 322.714 420.983 326.998 424.962C326.998 425.37 327.305 425.88 327.713 426.084C330.365 427.716 329.957 431.694 328.325 433.939C325.978 437.101 321.49 438.121 317.919 439.039C313.023 435.061 307.718 431.694 302.005 429.042C301.291 428.736 300.373 428.838 299.863 429.552C299.455 430.164 299.659 431.286 300.373 431.694C306.494 434.551 312.207 438.121 317.307 442.61C317.511 442.712 317.613 442.814 317.817 442.916C319.143 446.078 318.736 449.955 316.389 452.505C314.145 454.953 310.575 455.769 307.514 454.953C307.514 454.953 307.514 454.851 307.412 454.851C303.026 449.853 297.313 446.18 290.988 444.14C289.152 443.528 288.336 446.486 290.172 447.098C295.171 448.73 299.659 451.485 303.434 455.157C303.23 455.667 303.332 456.177 303.842 456.687C305.372 458.218 305.27 460.462 304.556 462.4C303.638 464.746 301.597 466.174 299.251 466.786C293.539 468.215 287.112 465.562 282.113 463.012C271.096 457.401 262.119 448.526 250.898 443.324C244.879 440.569 238.452 438.835 231.822 439.447C231.72 423.125 232.331 406.702 233.658 390.38C234.678 377.526 236.106 364.571 237.636 351.717C238.452 345.188 239.268 338.66 240.084 332.233C240.492 329.071 240.9 325.908 241.308 322.746C241.717 319.89 241.921 316.931 242.839 314.177C244.267 309.688 247.429 306.118 252.326 306.016C252.734 306.016 253.142 305.812 253.346 305.608C278.237 302.751 303.332 300.813 328.325 299.895C341.28 299.385 354.236 299.181 367.191 299.283C373.312 299.283 379.535 299.181 385.757 299.589C390.756 299.997 395.856 301.221 399.019 305.404C401.875 309.076 402.487 313.973 402.589 318.563C402.589 323.97 401.977 329.683 401.569 335.395ZM263.853 454.647C264.975 455.463 266.097 456.279 267.22 456.993C270.178 459.135 273.238 461.176 276.299 463.114C270.382 470.663 264.465 478.11 258.549 485.659C254.264 482.802 250.082 479.946 245.797 477.09C252.02 469.745 258.038 462.298 263.853 454.647ZM324.448 373.548C321.592 368.447 319.654 363.04 318.532 357.328C321.388 352.023 324.244 346.719 327.203 341.516C332.507 340.802 337.812 339.782 343.116 338.558C338.526 345.392 333.935 352.125 329.447 358.96C328.937 359.266 328.529 359.98 328.733 360.49C328.733 361.102 329.345 361.612 329.957 361.816C335.67 366.509 341.892 370.589 348.523 373.956C349.339 374.364 350.155 373.956 350.563 373.446C350.665 373.344 350.869 373.242 350.971 373.14C355.868 368.039 360.866 363.041 366.069 358.246C365.559 362.939 365.049 367.529 364.437 372.222C364.437 372.426 364.437 372.528 364.539 372.732C361.07 376.914 357.704 381.097 354.236 385.177C349.135 385.279 343.932 385.381 338.832 385.483C338.628 385.483 338.526 385.483 338.424 385.585C337.914 385.483 337.302 385.687 336.996 386.299C334.037 390.584 331.181 394.868 328.223 399.255C326.489 397.929 324.652 396.602 322.714 395.48C320.266 393.95 317.817 392.522 315.267 390.992C315.675 390.482 315.981 389.87 316.389 389.36C319.348 384.871 322.408 380.28 325.366 375.792C325.672 374.772 325.162 373.956 324.448 373.548ZM339.138 362.938C339.24 358.858 339.24 354.88 339.342 350.799C339.342 350.391 339.24 350.085 339.036 349.881C339.546 349.167 339.954 348.453 340.464 347.739C340.668 347.841 340.872 347.841 341.076 347.841C346.177 347.433 351.277 347.433 356.378 347.739C356.786 352.839 356.48 358.042 355.46 363.04V363.142C349.951 363.652 344.545 363.448 339.138 362.938ZM352.91 366.509C351.481 367.937 350.155 369.365 348.727 370.793C346.075 369.365 343.422 367.835 340.872 366.203C344.851 366.509 348.931 366.611 352.91 366.509ZM336.179 354.166C336.077 357.022 336.077 359.98 335.975 362.837C334.751 361.918 333.425 360.898 332.303 359.98C333.629 358.042 334.955 356.104 336.179 354.166ZM330.263 400.989C331.589 398.949 333.017 396.908 334.343 394.97C335.976 397.929 335.669 401.907 333.629 404.661C332.609 403.335 331.487 402.213 330.263 400.989C330.263 400.989 330.263 401.091 330.263 400.989ZM278.237 352.329C278.747 353.043 278.339 354.063 277.727 354.471C277.013 354.879 276.095 354.573 275.585 353.961C272.524 349.473 269.464 344.984 266.301 340.496C262.323 343.046 258.243 345.698 254.264 348.249C256.406 352.431 258.447 356.614 260.589 360.796C260.589 360.898 260.691 361 260.691 361.102C264.873 358.654 269.056 356.104 273.238 353.655C274.972 352.635 276.503 355.288 274.768 356.308C270.382 358.96 265.995 361.612 261.507 364.162C260.487 364.775 259.467 364.06 259.263 363.142C258.753 363.142 258.14 362.938 257.936 362.428C255.794 358.246 253.754 353.961 251.612 349.779C250.286 349.779 249.47 347.739 250.898 346.923C250.898 346.923 251 346.922 251 346.82C251.102 346.616 251.306 346.412 251.51 346.31C251.714 346.208 251.918 346.106 252.122 346.106C256.406 343.352 260.691 340.598 264.975 337.742C265.485 337.333 266.098 337.435 266.506 337.742C267.22 337.333 268.138 337.64 268.546 338.252C271.708 342.944 274.973 347.637 278.237 352.329ZM350.155 353.757C350.767 354.777 350.563 356.104 349.747 356.818C349.339 357.124 348.931 357.43 348.421 357.43C348.319 357.43 348.217 357.532 348.115 357.532C347.707 357.634 347.401 357.634 346.993 357.532C346.789 357.532 346.483 357.43 346.279 357.226C345.259 356.614 344.851 355.492 345.055 354.369C345.157 353.961 345.463 353.451 345.769 353.145C345.973 352.941 346.177 352.839 346.381 352.737C346.585 352.635 346.789 352.533 347.095 352.533C347.503 352.431 347.809 352.431 348.217 352.533C348.421 352.533 348.727 352.635 348.931 352.737C349.543 352.941 349.951 353.349 350.155 353.757ZM261.507 350.391C261.507 350.289 261.507 350.187 261.507 350.085C261.507 349.983 261.405 349.983 261.405 349.881C261.303 349.473 261.303 348.963 261.405 348.555C261.507 348.147 261.711 347.739 262.017 347.433C262.323 347.127 262.629 346.922 263.037 346.82C263.139 346.82 263.241 346.719 263.241 346.719C263.445 346.719 263.649 346.617 263.853 346.617C264.057 346.617 264.261 346.617 264.465 346.719C264.567 346.719 264.567 346.718 264.669 346.82C265.077 347.024 265.383 347.127 265.689 347.433C265.995 347.739 266.199 348.045 266.301 348.453C266.403 348.759 266.403 348.963 266.301 349.269C266.199 349.575 266.097 349.779 265.893 349.983C265.791 350.085 265.689 350.085 265.587 350.187C265.587 350.289 265.587 350.391 265.587 350.493C265.587 350.697 265.485 350.901 265.383 351.105C265.179 351.411 264.873 351.717 264.465 351.819C264.159 351.921 263.751 351.921 263.445 351.921C263.343 351.921 263.343 352.023 263.241 352.023C263.139 352.023 262.935 352.023 262.833 352.125C262.425 352.125 262.017 351.921 261.711 351.717C261.609 351.615 261.507 351.411 261.405 351.207C261.507 350.799 261.507 350.595 261.507 350.391Z" fill="black"/>
<path d="M313.635 82.304C312.207 60.7795 285.888 64.2477 269.77 63.0236C246.103 61.2894 222.232 60.9833 198.463 62.2074C170.716 63.5336 128.483 61.7996 105.939 80.7738C95.3296 89.7508 90.6372 104.236 90.2291 118.212C89.7191 132.188 92.8814 145.959 95.0236 159.629C100.226 192.783 100.226 226.753 94.8197 259.906C93.0855 270.72 91.1471 282.961 97.7779 291.632C101.858 296.835 108.183 299.589 114.508 301.527C141.337 309.892 170.206 308.056 198.26 306.118C215.295 304.894 233.148 302.037 250.184 302.241C264.057 302.445 276.299 313.157 285.072 323.664C293.845 334.171 300.169 346.412 306.494 358.552C303.536 352.941 309.963 332.233 310.881 325.602C312.411 313.973 313.839 302.241 315.267 290.612C317.919 269.19 320.062 248.991 319.246 227.569C317.307 179.215 316.899 130.862 313.635 82.304Z" fill="white"/>
<path d="M207.441 246.849C206.625 245.114 209.277 243.482 210.093 245.318C213.766 253.173 223.048 256.03 231.107 253.989C240.288 251.745 247.123 244.605 252.326 237.056C253.448 235.423 256.1 236.954 254.978 238.586C252.326 242.36 249.47 246.033 246.103 249.093C240.187 254.398 232.434 258.274 224.273 257.662C217.336 257.152 210.501 253.275 207.441 246.849ZM100.124 191.15C108.795 192.987 117.364 194.925 126.035 196.761C127.973 197.169 128.79 194.211 126.851 193.803C118.18 191.966 109.612 190.028 100.941 188.192C99.0023 187.784 98.1861 190.742 100.124 191.15ZM232.128 141.369C232.434 141.675 232.536 142.083 232.536 142.491C232.536 142.899 232.332 143.205 232.128 143.613C230.801 145.245 229.475 146.979 228.047 148.611C227.537 149.326 226.415 149.122 225.905 148.611C225.599 148.305 225.497 147.897 225.497 147.489C225.497 147.081 225.701 146.775 225.905 146.367C227.231 144.735 228.557 143.001 229.985 141.369C230.495 140.654 231.515 140.858 232.128 141.369ZM220.192 146.877C220.906 147.183 221.927 147.081 222.335 146.367C222.845 145.245 223.457 144.123 224.171 143.103C224.375 142.899 224.477 142.593 224.681 142.389C224.681 142.287 224.783 142.287 224.783 142.185C224.885 142.083 224.987 141.981 225.089 141.879C225.497 141.369 225.905 140.859 226.415 140.451C227.027 139.838 227.027 138.818 226.415 138.308C225.803 137.696 224.885 137.696 224.273 138.308C222.334 140.246 220.804 142.491 219.682 144.939C219.478 145.347 219.376 145.653 219.478 146.163C219.58 146.265 219.886 146.673 220.192 146.877ZM236.82 136.88C237.33 137.594 237.738 138.308 238.146 139.022C238.248 139.43 238.452 139.736 238.554 140.144C238.758 140.961 239.677 141.471 240.391 141.165C241.207 140.961 241.717 140.144 241.411 139.328C240.799 137.288 239.779 135.452 238.35 134.024C237.84 133.412 236.718 133.412 236.208 134.024C235.596 134.636 235.596 135.554 236.208 136.166C236.514 136.37 236.718 136.574 236.82 136.88ZM225.905 131.065C226.823 131.065 227.843 131.167 228.761 131.269C229.067 131.269 229.373 131.371 229.577 131.371C229.679 131.371 229.883 131.371 229.985 131.473C230.087 131.575 230.19 131.678 230.292 131.78C231.006 132.188 232.026 131.984 232.434 131.269C232.74 130.657 232.74 130.045 232.434 129.535C232.128 129.127 231.72 128.821 231.21 128.617C230.699 128.515 230.087 128.413 229.577 128.311C228.353 128.107 227.129 128.005 225.905 128.005C225.089 128.005 224.375 128.719 224.375 129.535C224.477 130.453 225.089 131.065 225.905 131.065ZM202.646 180.337C202.646 180.541 202.748 180.745 202.85 180.949C202.952 181.153 203.156 181.357 203.258 181.561C203.462 181.765 203.666 181.969 203.87 182.071C204.074 182.173 204.38 182.275 204.584 182.377C204.788 182.479 205.094 182.479 205.4 182.479C205.502 182.479 205.502 182.479 205.604 182.479C205.808 182.479 206.013 182.479 206.217 182.377C206.421 182.275 206.727 182.173 206.931 182.071C207.339 181.867 207.441 181.663 207.747 181.255C207.951 181.051 207.951 180.847 208.053 180.541C208.155 180.337 208.155 180.031 208.155 179.725C208.155 179.521 208.155 179.317 208.155 179.113C208.155 178.909 208.053 178.705 208.053 178.501C207.951 178.297 207.951 178.093 207.849 177.991C207.747 177.787 207.645 177.685 207.543 177.583C207.339 177.379 207.135 177.175 206.931 177.073C206.727 176.971 206.625 176.869 206.421 176.869C206.319 176.869 206.319 176.869 206.217 176.767C206.013 176.665 205.707 176.665 205.4 176.665C204.788 176.665 204.279 176.869 203.768 177.175C203.666 177.277 203.462 177.379 203.258 177.583C203.156 177.685 202.952 177.889 202.85 178.093C202.85 178.195 202.748 178.195 202.748 178.297C202.646 178.501 202.544 178.705 202.544 178.909C202.544 179.011 202.544 179.215 202.544 179.317C202.544 179.419 202.442 179.521 202.544 179.725C202.544 179.929 202.544 180.133 202.646 180.337ZM320.98 240.626C320.878 250.317 320.164 260.008 319.246 269.597C318.328 279.492 317.001 289.286 315.777 299.079C315.165 304.077 314.553 308.974 313.941 313.972C313.431 318.359 312.921 322.746 312.207 327.03C311.289 332.437 309.759 337.843 308.738 343.25C308.126 346.106 307.616 349.065 307.412 352.023C307.31 353.859 307.106 356.205 307.922 357.838C308.84 359.572 306.188 361.102 305.27 359.368C302.516 354.063 299.761 348.759 296.803 343.658C290.988 333.457 284.256 323.766 275.585 315.809C271.504 312.034 267.016 308.77 261.915 306.526C259.467 305.403 256.916 304.69 254.366 304.179C251.408 303.669 248.347 303.771 245.389 303.873C232.536 304.179 219.682 305.811 206.829 307.036C194.077 308.26 181.224 309.076 168.37 309.28C155.823 309.586 143.173 309.076 130.728 306.934C124.607 305.914 118.486 304.485 112.57 302.445C107.571 300.813 102.573 298.569 98.7982 294.794C90.8412 287.041 91.2493 275.31 92.6775 265.109C93.4936 258.988 94.6158 252.969 95.3299 246.849C96.146 240.32 96.656 233.689 97.064 227.058C97.7781 213.899 97.6761 200.739 96.86 187.682C95.9419 174.522 94.0036 161.465 91.8613 148.509C88.1889 126.679 85.5367 100.972 101.655 83.2218C107.775 76.4891 116.242 72.1026 124.709 69.0423C133.788 65.8799 143.377 64.1457 152.967 63.1256C162.76 62.0034 172.553 61.5953 182.346 61.2893C192.751 60.9833 203.156 60.3711 213.561 60.1671C227.129 59.861 240.697 59.9632 254.264 60.5753C260.283 60.8813 266.2 61.2893 272.116 61.5954C275.687 61.7994 279.359 61.7995 282.929 61.9015C290.172 62.1055 297.721 62.6155 304.454 65.6759C311.289 68.8382 314.961 74.857 315.471 82.3038C315.675 84.8541 315.777 87.4044 315.981 89.9547C317.206 110.051 318.022 130.147 318.634 150.244C319.246 170.442 319.756 190.64 320.47 210.737C320.47 220.734 321.082 230.731 320.98 240.626ZM317.92 234.301C317.818 224.202 317.205 214.103 316.899 204.004C316.287 183.703 315.675 163.403 315.063 143.205C314.349 122.904 313.533 102.604 312.207 82.3038C312.003 78.9374 310.983 75.5708 308.841 72.9185C304.658 67.7159 297.415 66.2878 291.09 65.5737C284.052 64.7576 276.911 65.0637 269.872 64.5536C256.61 63.6355 243.349 63.1255 230.087 63.0234C217.846 62.9214 205.707 63.5337 193.465 63.9417C174.797 64.6558 155.823 64.5538 137.461 68.5322C128.586 70.4705 119.915 73.3267 112.162 78.1212C103.695 83.5279 97.8801 91.4847 94.7177 100.972C91.1473 111.887 91.2494 123.414 92.5756 134.636C94.1058 147.387 96.8599 159.935 98.2881 172.686C101.246 198.393 101.042 224.508 97.7781 250.215C97.064 256.03 95.9418 261.742 95.2278 267.557C94.6157 272.658 94.3097 278.064 95.5338 283.063C96.86 288.367 99.9204 292.55 104.511 295.406C109.101 298.365 114.508 299.895 119.813 301.323C127.566 303.363 135.42 304.689 143.377 305.301C143.377 305.199 143.377 305.097 143.377 304.995C143.377 296.018 143.275 287.041 143.071 278.064C142.459 246.645 140.929 215.327 139.603 183.907C126.749 182.173 113.896 180.439 101.042 178.705C100.226 178.603 99.8182 177.583 100.022 176.869C100.226 175.951 101.042 175.645 101.859 175.849C115.12 177.685 128.28 179.419 141.541 181.255C142.255 181.357 142.663 182.173 142.663 182.683C143.071 191.66 143.377 200.637 143.785 209.614C144.296 221.754 144.805 233.995 145.214 246.135L145.316 246.033C157.761 237.056 171.329 229.609 185.61 223.896C185.712 223.896 185.814 223.794 185.916 223.794C186.426 221.142 186.834 218.489 187.344 215.837C189.895 202.066 192.445 188.192 194.995 174.42C187.14 170.034 179.184 165.545 171.329 161.159C170.207 160.547 170.411 159.119 171.329 158.507C175.715 155.242 180.102 151.978 184.488 148.713C192.649 142.593 200.708 136.37 208.869 130.351C212.847 127.393 216.724 124.128 221.11 121.884C223.457 120.66 225.803 119.742 228.353 119.13C226.721 118.314 225.089 117.192 223.559 115.56C219.172 111.071 217.132 96.7893 226.211 89.5465C230.904 102.196 238.35 102.808 246.919 104.95C249.368 103.93 251.816 103.012 254.366 102.298C260.691 100.462 267.73 100.87 272.218 106.277C276.095 110.969 276.911 117.09 275.891 123.006C274.769 129.535 271.708 135.656 268.138 141.165C266.608 143.511 264.975 145.755 263.241 147.999C265.995 148.101 268.24 149.733 269.77 151.978C271.402 154.426 271.708 157.588 271.402 160.445C271.096 163.607 270.28 166.872 269.056 169.728C266.914 174.726 262.323 178.807 256.712 178.501C256.508 178.909 256.203 179.113 255.794 179.317C255.08 180.235 254.264 181.153 253.448 181.969C253.448 182.071 253.55 182.173 253.55 182.275C255.59 197.067 258.141 211.757 261.099 226.344C261.405 226.344 261.711 226.446 261.915 226.651C273.136 235.628 283.848 245.319 293.845 255.622C295.171 257.05 293.029 259.192 291.703 257.764C282.215 247.971 272.116 238.79 261.507 230.221C258.753 234.709 253.856 237.362 248.858 239.096C243.043 241.136 236.922 242.564 230.903 243.89C224.375 245.217 217.54 246.135 210.909 245.318C210.399 245.216 209.787 245.114 209.277 245.114C209.277 245.523 209.175 245.931 208.869 246.237C203.564 251.439 194.689 252.664 188.365 248.583C182.142 244.605 179.183 236.444 181.428 229.405C181.53 229.099 181.734 228.793 181.938 228.691C169.594 233.995 157.863 240.728 146.948 248.583C146.336 248.991 145.826 248.889 145.418 248.583C145.826 260.314 146.132 272.046 146.336 283.777C150.518 279.085 157.863 277.656 163.372 280.921C165.106 281.941 163.576 284.593 161.842 283.573C157.353 280.921 151.028 282.247 148.07 286.531C147.662 287.041 147.05 287.347 146.438 287.245C146.54 291.836 146.54 296.324 146.54 300.915C150.416 297.344 156.231 296.018 161.229 297.855C162.045 298.161 162.555 298.875 162.249 299.691C162.045 300.405 161.128 301.017 160.413 300.711C155.925 299.079 150.722 300.507 147.662 304.179C147.356 304.485 147.05 304.587 146.642 304.587C146.642 304.689 146.642 304.791 146.642 304.893C146.642 305.098 146.642 305.2 146.54 305.404C162.556 306.526 178.673 305.608 194.689 304.587C207.339 303.771 219.886 302.139 232.536 301.119C238.758 300.609 245.185 300.201 251.51 300.405C256.61 300.609 261.507 302.241 265.996 304.587C275.585 309.688 283.44 317.951 289.866 326.52C295.579 334.069 300.272 342.332 304.658 350.697C304.964 346.82 305.882 342.944 306.698 339.271C307.82 333.865 309.351 328.356 310.065 322.847C312.615 302.955 315.471 283.063 317.103 263.171C317.511 253.887 318.022 244.095 317.92 234.301ZM185.202 227.772V227.671C184.284 228.079 183.366 228.385 182.55 228.793C183.57 228.691 184.692 229.405 184.284 230.629C182.448 236.342 184.692 243.074 189.793 246.339C194.791 249.501 201.728 248.787 206.217 244.808C197.648 242.666 189.589 237.566 185.916 229.405C185.406 229.099 184.998 228.487 185.202 227.772ZM198.056 174.318C197.75 176.053 197.444 177.889 197.036 179.623C194.077 195.537 191.119 211.451 188.262 227.466C188.262 227.568 188.365 227.569 188.365 227.671C190.609 232.669 194.485 236.443 199.178 238.994C209.481 244.604 221.518 243.38 232.638 240.83C238.146 239.606 243.655 238.28 248.959 236.24C252.734 234.811 256.406 232.669 258.651 229.303C258.447 229.099 258.243 228.895 258.141 228.487C255.182 214.103 252.734 199.617 250.592 185.03C243.859 191.252 235.494 195.741 226.517 197.781C225.803 198.801 224.783 199.413 223.559 199.821C222.13 200.331 220.294 200.637 218.764 200.637C217.234 200.637 215.704 200.229 214.48 199.107C213.868 198.495 213.459 197.781 213.255 197.067C212.847 197.271 212.235 197.373 211.827 197.067C211.113 196.659 210.807 195.639 211.317 194.925C212.949 192.476 215.602 190.946 218.458 190.64C220.906 190.334 223.457 190.946 225.497 192.477C226.211 192.987 226.721 193.701 227.027 194.517C236.616 192.069 245.389 186.764 251.918 179.419C250.082 178.807 248.449 177.583 247.225 176.053C245.185 173.4 244.675 170.034 245.185 166.769C245.797 163.199 247.633 159.833 249.98 156.874L248.552 156.568C241.513 149.121 245.083 141.164 244.471 134.432C243.655 125.149 239.269 123.72 233.862 121.884H233.76C228.659 121.986 223.865 123.823 219.58 126.577C215.398 129.229 211.521 132.392 207.645 135.35C203.666 138.308 199.688 141.368 195.709 144.327C188.773 149.631 181.734 154.834 174.695 160.037C182.244 164.321 189.691 168.504 197.24 172.686C197.954 172.992 198.158 173.706 198.056 174.318ZM266.301 138.614C271.504 130.147 277.319 116.58 269.26 108.113C264.669 103.42 258.039 104.644 252.53 106.582C252.224 106.684 251.918 106.787 251.612 106.889C254.876 108.113 258.345 109.847 261.813 112.805C268.444 118.314 268.852 128.719 266.301 138.614ZM248.144 168.198C247.838 172.074 250.184 176.359 254.162 176.665C254.264 176.563 254.366 176.461 254.468 176.359C254.978 175.645 255.896 175.543 256.508 175.849C262.017 176.563 265.689 171.054 267.118 166.464C268.342 162.383 269.77 156.466 266.404 152.998C262.833 149.121 258.039 153.1 255.284 155.854C251.918 159.221 248.45 163.199 248.144 168.198ZM223.763 195.231C223.865 195.231 223.967 195.231 224.069 195.129C223.967 195.027 223.865 194.925 223.763 194.823C223.151 194.313 222.539 194.007 221.824 193.803C220.702 193.496 219.58 193.395 218.458 193.599C218.458 193.701 218.458 193.803 218.458 194.007C218.458 194.823 217.744 195.639 216.928 195.537C216.724 195.537 216.826 195.435 216.724 195.537C216.622 195.537 216.622 195.537 216.52 195.741C216.316 196.047 216.316 196.149 216.418 196.353C216.52 196.557 216.724 196.863 217.03 197.067C217.336 197.271 217.744 197.475 218.152 197.475C219.274 197.679 220.396 197.373 221.518 197.169C221.926 197.067 222.334 196.965 222.742 196.863C222.538 196.149 222.742 195.333 223.763 195.231ZM256.202 161.057C258.141 162.179 260.079 163.301 262.017 164.321C262.731 164.729 263.751 164.525 264.159 163.811C264.567 163.097 264.363 162.179 263.649 161.669C261.711 160.547 259.773 159.425 257.835 158.404C257.121 157.996 256.1 158.2 255.692 158.915C255.284 159.731 255.488 160.649 256.202 161.057ZM253.754 166.055C256.305 167.279 258.753 168.606 261.303 169.83C262.017 170.238 263.037 170.034 263.445 169.32C263.853 168.606 263.649 167.586 262.935 167.178C260.385 165.953 257.937 164.627 255.386 163.403C254.672 162.995 253.652 163.199 253.244 163.913C252.836 164.627 253.04 165.647 253.754 166.055ZM127.361 273.882C127.259 281.329 126.953 288.674 126.545 296.12C126.443 298.059 129.504 298.059 129.606 296.12C130.932 270.209 130.83 244.196 129.402 218.183C128.994 210.737 128.484 203.392 127.872 195.945C127.668 194.007 124.607 194.007 124.811 195.945C127.055 221.856 127.872 247.869 127.361 273.882ZM202.85 300.609C195.505 295.304 189.691 288.266 182.856 282.247C176.531 276.636 169.084 272.046 160.515 270.924C155.925 270.311 151.334 271.026 147.254 273.066C145.52 273.984 147.05 276.534 148.784 275.718C155.925 272.148 164.392 273.984 171.227 277.656C178.673 281.635 184.386 287.857 190.303 293.774C193.771 297.242 197.342 300.507 201.32 303.363C202.952 304.383 204.482 301.731 202.85 300.609ZM165.514 290.714C159.801 287.041 151.946 287.755 146.846 292.244C145.316 293.57 147.56 295.712 148.988 294.386C153.068 290.816 159.393 290.51 163.984 293.366C165.616 294.488 167.248 291.836 165.514 290.714Z" fill="black"/>
</svg>
