<svg width="600" height="600" viewBox="0 0 600 600" fill="none" xmlns="http://www.w3.org/2000/svg">
<path d="M244.535 365.083C231.713 371.4 215.873 368.665 203.711 361.406C191.454 354.146 182.214 342.738 173.823 331.235C169.015 324.541 164.395 317.659 161.661 309.927C152.892 284.943 165.715 257.035 184.194 237.99C202.579 218.945 226.244 205.84 246.043 188.209C254.434 180.761 262.071 172.558 271.028 165.864C293.562 148.799 323.638 142.105 351.357 148.045C366.253 151.25 380.773 158.227 391.05 169.447C399.064 178.121 404.249 188.963 410.66 198.863C416.883 208.48 424.237 217.342 432.628 225.168C440.076 232.145 448.279 238.367 455.067 246.004C477.978 271.932 479.109 314.453 457.707 341.606C443.565 359.52 422.069 369.985 400.572 377.245C383.224 383.185 391.615 330.953 373.324 329.161C360.031 327.841 314.964 349.149 301.67 370.645C296.013 379.791 285.736 379.791 275.082 379.131C261.789 378.377 248.683 374.134 237.369 367.063" fill="#F4F6F9"/>
<path d="M206.067 473.413C206.633 468.793 210.876 465.305 212.007 460.779C212.479 458.894 212.384 456.819 212.29 454.839C211.536 440.886 211.536 426.838 212.29 412.884C212.573 406.944 213.044 400.816 216.156 395.724C218.513 391.859 222.284 388.653 222.755 384.128C223.038 381.393 222.001 378.754 222.001 376.02C222.001 373.285 223.604 370.08 226.338 370.08L225.112 369.514C226.055 363.857 222.473 358.389 218.136 354.618C213.799 350.846 208.519 348.206 204.37 344.341C199.562 339.909 196.356 334.158 193.339 328.407C187.777 317.942 182.497 307.005 181.554 295.22C181.271 291.731 181.46 288.148 182.685 284.943C185.514 277.683 193.056 273.723 200.033 270.329L200.316 268.632C202.579 261.466 210.404 257.318 217.853 256.941C225.301 256.564 232.561 259.204 239.632 261.844C251.323 266.181 263.674 271.083 270.556 281.454C277.251 291.448 276.025 302.196 276.591 313.51C277.062 322.184 279.796 329.444 279.042 338.495C278.759 341.512 278.382 344.529 278.759 347.452C279.608 353.297 283.662 358.766 283.002 364.611L282.248 361.594C288.565 373.097 292.524 385.825 293.844 398.93C294.316 403.173 294.504 407.698 296.673 411.375C298.841 415.052 302.707 417.409 305.724 420.521C315.152 430.515 313.832 446.26 311.569 459.931" fill="white"/>
<path d="M309.307 422.878C307.421 420.143 304.97 417.975 302.424 415.712C299.784 413.355 297.521 410.904 296.484 407.415C295.447 403.833 295.447 400.156 294.976 396.479C294.504 392.613 293.75 388.842 292.901 385.07C291.016 377.339 288.093 369.891 284.416 362.82C284.228 357.729 281.305 353.203 280.268 348.3C279.608 345.283 280.079 342.078 280.362 339.061C280.645 335.949 280.551 332.838 280.173 329.821C279.513 324.07 278.099 318.318 277.911 312.473C277.628 306.816 277.816 301.065 276.968 295.408C276.214 289.751 274.234 284.283 270.84 279.663C267.822 275.514 263.863 272.215 259.526 269.48C255.094 266.746 250.192 264.578 245.383 262.692C239.821 260.524 234.164 258.261 228.412 256.846C222.378 255.338 215.873 255.055 210.027 257.412C204.936 259.486 200.694 263.163 198.996 268.443C198.902 268.82 198.902 269.198 199.091 269.48C192.868 272.497 186.268 275.986 182.686 282.114C178.443 289.374 180.046 298.802 182.214 306.439C184.571 314.83 188.625 322.75 192.68 330.387C194.659 334.064 196.639 337.646 199.185 340.852C201.731 344.152 204.748 346.886 208.142 349.243C211.913 351.883 215.873 354.24 219.079 357.54C222.001 360.651 224.453 364.8 223.698 369.231C223.698 369.42 223.698 369.514 223.698 369.608C222.19 370.551 221.153 372.342 220.776 374.134C220.021 377.716 222.001 381.205 221.247 384.788C220.587 387.993 218.136 390.539 216.25 393.084C214.176 395.913 212.762 399.119 212.007 402.607C211.253 406.19 210.97 409.867 210.876 413.544C210.687 417.692 210.499 421.935 210.499 426.178C210.31 434.663 210.499 443.148 210.782 451.634C210.876 453.802 211.065 456.065 210.97 458.328C210.876 460.214 210.31 461.91 209.367 463.608C207.67 466.719 205.219 469.547 204.748 473.13C204.653 473.884 204.936 474.639 205.69 474.827C206.35 475.016 207.293 474.639 207.387 473.884C207.859 470.867 209.65 468.51 211.253 465.965C213.044 462.948 213.893 459.931 213.704 456.442C213.421 448.428 213.044 440.414 213.139 432.306C213.139 424.386 213.233 416.372 213.987 408.452C214.27 404.964 214.93 401.381 216.439 398.27C217.853 395.347 220.021 392.99 221.813 390.35C222.756 388.936 223.51 387.427 223.981 385.825C224.453 383.939 224.264 381.959 223.981 380.074C223.698 378.188 223.227 376.302 223.698 374.417C223.981 373.568 224.453 372.625 225.207 372.06C233.881 374.04 242.649 376.114 251.606 375.454C259.149 374.888 266.597 372.531 273.008 368.571C275.931 366.78 278.665 364.8 281.116 362.443C281.305 362.82 281.493 363.197 281.682 363.574C281.682 363.951 281.682 364.328 281.588 364.706C281.493 365.648 282.248 366.12 282.908 366.025C285.642 371.588 287.905 377.339 289.507 383.279C290.45 386.862 291.299 390.539 291.865 394.216C292.43 397.893 292.619 401.664 293.184 405.341C293.75 408.829 294.976 411.941 297.333 414.581C299.501 417.126 302.33 419.012 304.593 421.369C308.835 425.8 310.909 431.74 311.569 437.774C312.324 445.034 311.475 452.294 310.25 459.459C309.967 461.251 312.701 462.005 312.984 460.214C314.964 448.145 316.661 433.72 309.307 422.878ZM262.92 370.08C255.566 372.625 247.929 373.097 240.198 372.154C235.955 371.588 231.712 370.645 227.564 369.703C227.47 369.231 227.093 368.854 226.527 368.854C227.093 361.406 221.624 355.466 215.873 351.223C212.573 348.772 208.99 346.698 205.879 343.963C202.768 341.229 200.411 338.024 198.242 334.535C196.074 331.047 194.188 327.275 192.302 323.598C190.322 319.733 188.437 315.867 186.928 311.813C185.42 307.853 184.194 303.705 183.44 299.556C182.78 295.502 182.308 290.977 183.44 286.923C185.608 279.097 193.528 275.043 200.222 271.837C200.505 272.309 201.071 272.686 201.731 272.592C203.239 272.309 204.936 272.026 206.445 272.403C208.236 272.874 208.896 274.194 209.179 275.986C209.65 279.003 209.179 282.303 207.859 285.037C207.387 285.98 206.822 286.828 206.256 287.677C205.502 287.771 205.03 288.337 205.03 289.091C203.899 290.128 202.673 290.977 201.165 291.542C197.488 292.957 192.774 293.334 188.908 292.391C187.117 291.92 186.363 294.654 188.154 295.125C191.925 296.068 196.074 295.879 199.845 294.937C201.825 294.465 203.616 293.711 205.219 292.58C205.973 296.445 208.33 299.933 211.725 301.913C211.819 302.008 211.913 302.008 212.007 302.008C212.385 303.422 212.856 304.742 213.422 306.062C215.119 309.928 218.324 314.736 223.133 314.264C223.51 314.264 223.793 314.076 224.075 313.887C225.961 316.056 228.412 317.847 231.147 318.884C226.715 323.033 224.641 329.444 226.15 335.384C226.621 337.175 229.355 336.421 228.884 334.629C227.564 329.255 229.732 323.127 234.258 319.827L234.352 319.733C234.541 319.733 234.729 319.827 234.918 319.827C238.783 320.393 242.743 319.921 246.42 318.507C249.72 317.187 253.209 315.019 254.529 311.53C255.377 309.267 254.906 307.099 253.68 305.402C253.774 305.308 253.869 305.308 253.963 305.213C254.246 305.025 254.529 304.93 254.812 304.742C254.906 304.742 255 304.648 255 304.648C255.189 304.553 255.283 304.553 255.471 304.459C255.754 304.365 256.037 304.27 256.414 304.27C256.509 304.27 256.603 304.27 256.697 304.27C256.886 304.27 256.98 304.27 257.169 304.27C257.357 304.27 257.546 304.27 257.64 304.27C257.734 304.27 257.829 304.27 257.829 304.27C257.923 304.27 257.923 304.27 258.017 304.27C257.923 304.27 257.923 304.27 257.829 304.27C257.923 304.27 258.206 304.365 258.3 304.365C258.488 304.365 258.677 304.459 258.866 304.459C259.62 304.648 260.469 304.176 260.563 303.516C260.751 302.762 260.374 302.008 259.62 301.819C256.886 300.971 253.775 301.631 251.606 303.422C251.135 303.139 250.757 302.856 250.192 302.668C249.249 302.291 248.306 302.008 247.363 301.913C247.458 301.913 247.458 301.819 247.552 301.819C248.495 301.065 249.249 300.122 249.909 299.085C251.512 296.728 253.02 294.371 254.623 292.108C255.094 291.448 254.717 290.505 254.152 290.128C253.492 289.751 252.643 290.034 252.172 290.6C250.757 292.674 249.343 294.748 248.023 296.822C247.458 297.671 246.986 298.425 246.326 299.085C246.232 299.179 245.949 299.462 245.855 299.556C245.949 299.462 245.666 299.745 245.666 299.745C245.572 299.839 245.478 299.839 245.383 299.934C245.383 299.934 245.289 299.933 245.289 300.028C245.195 300.028 245.101 300.122 245.006 300.122C245.006 300.122 244.535 300.122 244.818 300.122C244.063 300.028 243.309 300.311 243.121 301.065C243.026 301.442 243.12 301.914 243.403 302.291C243.215 302.291 243.12 302.385 242.932 302.385C243.026 302.196 243.121 302.008 243.121 301.725C243.026 297.859 240.104 294.182 236.238 293.522C235.484 293.428 234.635 293.711 234.541 294.465C234.352 295.125 234.729 296.068 235.484 296.162C235.861 296.257 236.238 296.351 236.615 296.445C236.709 296.445 236.804 296.539 236.898 296.539C236.709 296.445 236.709 296.445 236.804 296.445C236.804 296.445 236.898 296.445 236.898 296.539C237.086 296.634 237.275 296.728 237.369 296.822C237.558 296.917 237.652 297.011 237.841 297.105C237.935 297.199 238.029 297.199 238.029 297.294C237.746 297.105 237.935 297.294 238.029 297.294C238.312 297.576 238.595 297.859 238.878 298.142C238.972 298.236 239.066 298.331 239.066 298.331L238.972 298.236C238.972 298.331 239.066 298.331 239.066 298.425C239.161 298.614 239.255 298.708 239.349 298.896C239.444 299.085 239.538 299.274 239.632 299.368C239.632 299.462 239.726 299.556 239.726 299.651C239.821 300.028 240.009 300.311 240.009 300.688C240.009 300.782 240.009 300.876 240.103 300.971C240.103 301.159 240.103 301.348 240.103 301.536C240.103 302.008 240.386 302.573 240.858 302.762C239.632 303.233 238.406 303.799 237.275 304.365C235.672 305.119 237.086 307.57 238.689 306.816C241.612 305.402 245.195 303.705 248.495 304.836C249.249 305.119 249.909 305.402 250.38 305.873C250.475 305.967 250.475 306.062 250.569 306.156C250.663 306.25 250.757 306.25 250.852 306.345C251.983 307.57 252.455 309.173 251.606 310.87C250.192 313.604 246.892 315.207 244.158 316.15C241.046 317.187 237.558 317.47 234.352 316.716C228.318 315.301 223.887 310.776 222.567 304.742C221.907 301.536 221.813 298.142 222.096 294.937C222.378 291.92 223.416 288.808 225.584 286.64C228.035 284.188 231.524 283.057 234.729 282.02C238.878 280.7 243.026 279.38 247.175 278.06C248.872 277.494 248.118 274.76 246.42 275.326C242.084 276.74 237.652 278.06 233.315 279.474C229.921 280.606 226.338 281.926 223.698 284.471C221.058 287.017 219.833 290.6 219.361 294.182C218.89 298.048 218.984 302.102 219.927 305.873C220.398 307.759 221.153 309.55 222.19 311.153C219.078 310.87 217.099 307.288 215.967 304.648C214.459 301.254 213.893 297.482 213.799 293.805C213.704 290.034 214.176 286.074 215.213 282.397C215.684 280.417 216.533 278.72 218.041 277.306C219.361 276.08 221.153 275.137 222.756 274.289C226.244 272.592 229.732 273.629 233.409 273.723C235.201 273.817 235.201 270.989 233.409 270.895C229.732 270.706 226.15 269.763 222.567 271.272C218.513 272.969 214.647 275.609 213.044 279.851C211.536 283.906 211.065 288.62 210.97 292.957C210.97 294.465 211.065 295.974 211.253 297.482C209.179 295.502 207.953 292.674 207.765 289.751C207.859 289.562 208.047 289.468 208.142 289.28C210.027 286.923 211.347 284.094 211.819 281.077C212.29 278.06 212.479 274.195 210.593 271.649C209.745 270.423 208.613 269.763 207.293 269.386C207.388 269.197 207.482 269.009 207.482 268.82C207.482 268.443 207.576 268.066 207.765 267.595C207.859 267.312 207.859 267.218 207.953 267.123C208.048 266.935 208.142 266.652 208.33 266.463C208.802 265.709 209.556 264.955 210.122 264.483C212.007 263.069 214.176 262.503 216.439 262.032C217.193 261.843 217.664 260.995 217.381 260.335C217.193 259.581 216.439 259.204 215.684 259.392C212.95 259.958 210.31 260.806 208.142 262.503C206.162 264.106 204.842 266.369 204.653 268.915C204.653 269.009 204.653 269.103 204.653 269.197C203.428 269.197 202.202 269.386 201.071 269.574C201.071 269.574 201.071 269.48 200.976 269.48C201.165 269.292 201.353 269.103 201.448 268.82C202.862 264.483 206.539 261.372 210.687 259.675C215.684 257.695 220.964 257.789 226.15 258.921C231.807 260.146 237.275 262.315 242.743 264.389C247.457 266.18 252.077 268.16 256.414 270.612C260.657 273.063 264.617 276.08 267.634 279.851C271.028 284.094 273.008 289.091 273.951 294.465C274.799 299.745 274.705 305.119 274.894 310.493C275.082 316.056 276.025 321.524 276.968 326.993C277.439 330.104 277.722 333.309 277.628 336.515C277.534 340.003 276.779 343.492 277.251 346.98C277.722 350.846 279.702 354.523 280.834 358.294C275.837 363.763 269.708 367.722 262.92 370.08ZM254.906 304.742C255 304.742 254.906 304.742 254.906 304.742V304.742ZM245.006 300.028C244.912 300.028 244.912 300.028 245.006 300.028V300.028ZM289.79 391.387C285.076 393.556 280.362 395.724 275.554 397.516C266.88 400.721 258.017 402.135 248.872 400.627C239.726 399.213 231.147 395.347 222.756 391.67C221.058 390.916 222.567 388.465 224.17 389.219C228.695 391.199 233.315 393.273 238.029 394.876C246.326 397.799 255.094 399.307 263.863 397.798C272.537 396.29 280.551 392.613 288.376 388.936C289.979 388.182 291.393 390.633 289.79 391.387ZM273.102 383.562C273.668 384.222 274.422 384.693 275.271 384.976C276.874 385.542 278.853 385.07 279.985 383.75C281.022 382.431 281.494 380.545 280.834 378.942C280.456 377.999 279.985 377.339 279.136 376.774C278.476 376.302 277.534 376.114 276.779 376.114C275.837 376.114 274.894 376.396 274.139 376.868C273.197 377.434 272.631 378.188 272.254 379.225C272.159 379.508 272.16 379.885 272.348 380.168C272.16 380.451 271.971 380.734 272.065 381.016C272.16 381.959 272.442 382.808 273.102 383.562ZM276.496 382.431C276.496 382.431 276.591 382.431 276.685 382.431C276.591 382.431 276.496 382.431 276.496 382.431ZM277.534 382.336C277.534 382.242 277.534 382.242 277.534 382.336V382.336ZM277.911 382.053C277.911 382.053 278.005 381.959 278.005 381.865C278.005 381.959 277.911 381.959 277.911 382.053ZM278.194 381.582L278.288 381.393C278.193 381.488 278.194 381.582 278.194 381.582ZM278.382 380.922C278.382 380.828 278.382 380.828 278.382 380.828C278.382 380.828 278.382 380.828 278.382 380.922ZM278.288 379.885C278.288 379.885 278.288 379.885 278.288 379.791C278.288 379.885 278.288 379.885 278.288 379.885ZM278.099 379.602C278.099 379.602 278.005 379.508 278.005 379.413C278.099 379.508 278.099 379.602 278.099 379.602ZM275.931 379.131C275.836 379.131 275.837 379.131 275.837 379.131C275.837 379.131 275.836 379.131 275.931 379.131ZM275.177 379.696C275.271 379.602 275.365 379.508 275.365 379.413C275.365 379.413 275.459 379.414 275.459 379.319C275.554 379.225 275.648 379.225 275.742 379.131C275.742 379.131 275.837 379.131 275.837 379.036C275.931 379.036 276.119 378.942 276.214 378.942C276.308 378.942 276.308 378.942 276.402 378.942C276.496 378.942 276.591 378.942 276.779 378.942C276.874 378.942 276.874 378.942 276.968 378.942C277.062 378.942 277.251 379.036 277.251 379.036C277.345 379.036 277.345 379.036 277.439 379.131C277.534 379.225 277.628 379.225 277.722 379.319L277.816 379.413L277.911 379.508C277.911 379.508 277.911 379.602 278.005 379.602C278.005 379.696 278.099 379.696 278.099 379.791C278.099 379.791 278.099 379.791 278.194 379.885C278.194 379.979 278.288 380.168 278.288 380.262V380.356C278.288 380.451 278.288 380.639 278.288 380.733C278.288 380.828 278.288 380.922 278.288 380.922C278.288 381.016 278.194 381.205 278.194 381.205C278.194 381.205 278.194 381.299 278.194 381.393V381.488C278.194 381.582 278.099 381.582 278.099 381.676C278.099 381.676 278.005 381.771 278.005 381.865C278.005 381.865 278.005 381.959 277.911 381.959C277.816 382.053 277.816 382.053 277.722 382.148L277.628 382.242C277.534 382.336 277.439 382.336 277.345 382.431H277.251C277.156 382.431 277.157 382.431 277.062 382.431C276.968 382.431 276.874 382.431 276.685 382.431C276.685 382.431 276.685 382.431 276.591 382.431H276.496C276.308 382.431 276.214 382.336 276.025 382.336C276.025 382.336 275.931 382.336 275.931 382.242C275.836 382.148 275.648 382.053 275.554 381.959C275.459 381.865 275.459 381.865 275.365 381.77C275.271 381.676 275.271 381.676 275.177 381.582L275.082 381.488C275.082 381.394 274.988 381.393 274.988 381.299C274.988 381.299 274.988 381.299 274.988 381.205V381.111C274.988 381.016 274.894 380.922 274.894 380.828V380.733C274.894 380.545 274.799 380.451 274.799 380.356C274.894 380.262 274.988 380.168 274.988 379.979C274.988 379.885 275.082 379.885 275.082 379.791C275.082 379.791 275.082 379.696 275.177 379.696Z" fill="black"/>
<path d="M338.157 536.393C333.631 524.514 340.985 511.786 346.736 500.377C354.75 484.349 359.936 466.813 361.727 448.993C362.67 439.565 363.236 429.1 370.213 422.689V422.783C374.455 388.087 370.496 351.788 382.375 318.884C383.978 314.547 385.864 310.116 389.352 307.004C392.463 304.082 396.612 302.479 400.666 301.065C407.831 298.708 415.28 296.822 422.822 295.691C429.422 294.653 436.305 294.088 442.622 296.068C447.43 297.576 452.333 300.782 454.69 305.401C455.538 307.099 455.444 309.361 457.047 310.21C458.744 311.058 461.949 309.644 464.118 310.87C466.098 312.001 467.606 313.793 469.115 315.584C471.189 318.13 473.169 320.77 474.96 323.504C476.092 325.107 477.129 326.804 477.506 328.689C477.883 330.481 477.6 332.272 477.317 334.063C474.395 351.317 465.438 367.439 452.238 378.942C448.561 382.147 444.507 385.07 440.453 387.804C436.493 390.444 430.836 392.707 427.442 396.101C424.802 398.741 424.614 403.361 423.859 406.944C422.728 412.412 421.88 417.975 421.314 423.537L422.822 425.046C428.573 426.837 430.742 434.003 430.176 439.943C429.611 445.882 427.253 451.633 427.253 457.667C427.348 466.813 432.91 474.827 437.436 482.841C446.959 499.812 451.861 519.328 451.484 538.75" fill="white"/>
<path d="M476.469 323.127C474.772 320.581 472.887 318.036 471.001 315.584C469.304 313.416 467.607 311.248 465.25 309.833C464.212 309.268 463.175 308.985 461.95 308.89C460.724 308.89 459.593 309.173 458.367 308.985C457.424 308.89 457.141 308.23 456.859 307.382C456.481 306.25 456.198 305.119 455.538 303.988C454.313 301.725 452.427 299.933 450.447 298.331C440.83 291.071 427.914 293.051 416.883 295.22C410.849 296.445 404.815 298.048 398.969 300.122C393.878 301.914 389.069 304.365 385.77 308.796C382.47 313.322 380.678 318.884 379.076 324.164C377.284 329.915 375.964 335.761 374.927 341.701C370.873 365.46 371.722 389.69 369.647 413.732C369.365 416.467 369.082 419.201 368.799 421.935C363.802 426.743 362.01 433.626 361.162 440.226C360.691 443.808 360.408 447.485 359.936 451.068C359.465 455.311 358.711 459.459 357.862 463.608C356.071 471.999 353.619 480.201 350.508 488.121C347.397 495.947 343.248 503.206 339.854 510.843C336.271 518.951 333.443 528.003 336.649 536.676C337.309 538.374 340.043 537.619 339.383 535.922C336.554 528.38 338.723 520.46 341.74 513.389C344.945 505.94 349 498.964 352.205 491.515C355.411 483.878 357.956 476.053 359.842 468.039C361.633 460.213 362.67 452.388 363.519 444.374C364.273 437.397 365.31 429.76 370.307 424.481C370.307 424.481 370.307 424.481 370.402 424.481C385.487 429.383 402.175 434.663 417.92 429.1C419.711 428.44 421.691 427.875 423.2 426.555C428.951 429.006 429.517 437.02 428.574 442.394C427.82 446.543 426.594 450.597 426.122 454.745C425.745 458.705 426.311 462.571 427.537 466.342C430.082 473.885 434.891 480.39 438.473 487.461C442.245 494.909 445.073 502.829 447.053 510.937C449.222 519.988 450.259 529.323 450.164 538.657C450.164 540.448 452.993 540.448 452.993 538.657C453.276 521.591 449.599 504.526 442.339 489.064C440.548 485.293 438.474 481.616 436.399 477.939C434.325 474.45 432.251 470.868 430.742 467.002C429.234 463.136 428.48 459.176 428.857 455.122C429.234 450.785 430.648 446.543 431.402 442.3C432.439 435.7 431.119 427.215 424.614 424.103C424.708 423.349 424.52 422.689 423.86 422.029C423.577 421.746 423.388 421.652 423.105 421.652C423.483 418.258 424.048 414.958 424.614 411.564C424.708 411.375 424.708 411.187 424.708 410.904C425.085 409.018 425.368 407.133 425.651 405.247C426.028 402.984 426.311 400.533 427.442 398.459C428.574 396.29 430.837 394.97 432.817 393.745C435.079 392.33 437.436 391.199 439.699 389.879C442.151 388.37 444.602 386.673 446.864 384.976C451.39 381.676 455.633 377.999 459.404 373.757C466.475 365.931 471.944 356.786 475.432 346.886C476.281 344.435 477.035 341.984 477.601 339.438C478.261 336.798 478.921 333.97 479.015 331.235C479.392 328.313 478.166 325.673 476.469 323.127ZM448.467 342.549C448.184 342.549 447.902 342.549 447.619 342.549H447.43C450.07 339.815 451.956 336.138 453.181 332.367C453.558 333.31 454.03 334.252 454.501 335.007C454.03 337.269 453.276 339.532 451.579 341.041C450.919 341.701 449.976 342.172 449.033 342.361C448.939 342.361 448.844 342.361 448.75 342.455C448.75 342.549 448.467 342.549 448.467 342.549ZM417.166 426.461C415.186 427.121 413.206 427.686 411.226 428.063C406.983 428.818 402.552 428.912 398.215 428.535C389.164 427.78 380.396 424.858 371.722 422.029C372.476 415.241 373.042 408.453 373.419 401.664C384.544 409.584 398.215 413.827 411.886 413.638C415.091 413.638 418.297 413.261 421.503 412.79C421.408 413.45 421.314 414.015 421.22 414.675C420.748 417.598 420.371 420.615 420.088 423.632C419.994 424.386 420.466 424.763 421.031 424.952C420.843 425.046 420.56 425.235 420.371 425.329C419.334 425.706 418.297 426.083 417.166 426.461ZM475.809 335.007C475.338 337.552 474.772 340.004 474.018 342.549C471.095 352.355 466.287 361.5 459.781 369.325C452.804 377.716 443.942 384.411 434.419 389.69C430.365 391.953 425.84 394.31 424.237 399.024C423.482 401.287 423.2 403.644 422.728 406.001C422.446 407.321 422.257 408.547 421.974 409.867C409.057 412.224 395.386 410.338 383.507 404.493C380.018 402.796 376.719 400.816 373.702 398.459L373.607 398.364C374.361 382.996 374.644 367.628 376.436 352.355C377.756 340.852 380.113 329.35 384.167 318.413C386.052 313.416 388.598 308.796 393.218 305.873C398.026 302.951 403.872 301.442 409.246 300.028C415.091 298.519 421.031 297.199 426.971 296.539C432.628 295.879 438.568 295.879 444.036 297.954C448.279 299.651 452.144 302.668 453.842 306.91C452.899 307.005 452.05 307.948 452.71 308.985C453.558 310.305 453.841 311.813 453.936 313.416C451.296 317.376 450.73 322.467 451.673 327.181C451.484 328.03 451.296 328.878 451.013 329.727C449.41 335.478 446.393 341.795 440.453 343.869C440.548 343.681 440.736 343.492 440.831 343.304C442.905 339.815 444.13 335.855 445.45 332.084C446.959 327.747 448.279 323.41 448.939 318.884C449.693 313.887 449.504 308.89 447.996 304.176C447.43 302.479 444.696 303.233 445.262 304.93C447.807 312.662 446.204 320.77 443.753 328.313C442.622 331.99 441.302 335.667 439.793 339.155C438.379 342.266 436.588 345.189 433.476 346.792C430.648 348.206 427.348 348.3 424.425 347.263C426.217 345.849 428.008 344.435 429.517 342.738C431.591 340.475 432.911 337.741 433.853 334.818C434.891 331.613 435.928 328.407 436.588 325.201C438.096 318.601 438.191 311.342 434.231 305.591C433.194 304.082 430.742 305.496 431.779 307.005C434.702 311.153 435.174 316.433 434.514 321.43C434.137 324.164 433.382 326.804 432.628 329.538C431.874 331.99 431.214 334.535 430.177 336.798C429.045 339.249 427.442 341.135 425.462 342.832C423.577 344.435 421.597 346.132 419.523 347.452C416.034 349.715 409.623 351.883 407.737 346.509C406.795 343.775 407.643 340.852 408.775 338.212C409.529 336.327 410.849 333.592 413.206 333.592C414.149 333.592 414.808 332.649 414.526 331.801C413.394 328.03 413.677 324.07 415.468 320.487C415.657 320.11 415.657 319.639 415.563 319.356C417.26 317.47 418.674 315.302 419.806 313.039C420.088 312.379 419.994 311.436 419.334 311.059C418.674 310.682 417.731 310.87 417.354 311.53C416.694 312.944 415.846 314.359 414.903 315.679C414.809 315.773 414.714 315.962 414.62 316.056L414.526 316.15C414.431 316.244 414.431 316.244 414.337 316.339C414.054 316.622 413.866 316.999 413.583 317.282C413.394 317.47 413.206 317.659 413.017 317.847C408.963 316.245 408.02 311.059 407.36 307.193C407.266 306.439 406.323 306.062 405.663 306.251C404.909 306.439 404.532 307.193 404.72 307.948C405.192 310.682 405.663 313.51 407.077 315.962C408.115 317.753 409.623 319.262 411.509 320.204C411.509 320.487 411.697 320.864 411.886 321.053C411.98 321.147 412.074 321.241 412.263 321.241C411.226 324.353 410.943 327.652 411.603 330.858C409.812 331.424 408.492 332.932 407.454 334.535C405.946 337.081 404.815 340.192 404.72 343.209C404.626 345.755 405.38 348.583 407.266 350.375C409.434 352.449 412.452 352.732 415.186 352.166C417.637 351.695 419.994 350.469 422.068 348.96C425.274 350.658 429.045 351.035 432.534 350.092C434.985 349.432 437.059 348.018 438.756 346.226C439.039 346.698 439.605 346.981 440.265 346.792C442.15 346.321 443.848 345.566 445.356 344.529C448.09 345.849 451.296 345.189 453.653 343.304C455.444 341.795 456.576 339.721 457.236 337.458C457.33 337.552 457.519 337.646 457.613 337.741C460.913 339.721 464.967 339.249 468.455 340.664C470.152 341.324 470.906 338.589 469.209 337.929C466.287 336.704 462.893 336.987 459.97 335.761C456.953 334.441 455.821 330.764 455.067 327.841C453.558 322.09 454.407 315.113 459.781 311.719C460.441 311.719 461.007 311.625 461.667 311.625C462.987 311.625 463.93 311.908 464.967 312.662C467.135 314.359 468.832 316.81 470.529 318.979C472.321 321.336 474.112 323.693 475.526 326.238C476.752 329.161 476.375 331.895 475.809 335.007ZM382.658 413.638C382.753 414.298 382.753 415.052 382.375 415.618C381.998 416.184 381.527 416.561 380.867 416.749C379.735 417.032 378.604 416.655 377.756 415.901C377.378 415.524 377.001 415.052 376.907 414.581C376.718 414.015 376.813 413.449 377.001 412.884C377.001 412.789 377.096 412.695 377.096 412.601C377.378 411.941 378.038 411.47 378.698 411.375C378.981 411.281 379.264 411.281 379.547 411.281C379.83 411.281 380.207 411.375 380.49 411.469C381.056 411.658 381.527 411.941 381.904 412.318C382.187 412.601 382.564 413.167 382.658 413.638ZM426.5 357.634C430.742 363.48 431.214 371.682 427.725 378.094C426.877 379.696 424.425 378.282 425.274 376.679C428.291 371.117 427.725 364.234 424.048 359.143C423.011 357.54 425.463 356.126 426.5 357.634Z" fill="black"/>
<path d="M292.43 380.168C293.656 369.325 298.559 359.049 306.101 351.223C307.044 350.186 308.175 349.055 308.27 347.64C308.364 346.038 307.044 344.623 306.478 343.115C304.97 339.438 307.327 335.289 307.704 331.33C308.081 327.087 306.007 323.033 306.101 318.79C306.101 311.625 313.078 305.213 320.243 305.685L317.981 303.422C325.712 281.643 306.761 263.541 298.087 245.061C295.07 238.65 292.336 231.767 293.09 224.791C293.845 217.814 299.407 210.837 306.478 210.931C305.347 203.483 313.267 196.129 320.621 197.92C322.601 194.62 324.675 191.038 328.069 189.34C331.463 187.643 336.554 188.492 337.969 192.075C340.42 189.34 343.531 186.795 347.208 186.795C350.697 186.795 353.808 189.246 355.599 192.169C357.391 195.092 358.145 198.58 358.899 201.974C364.65 198.109 373.136 201.314 376.907 207.16C380.679 213.005 380.773 220.454 379.641 227.336C378.416 234.69 375.964 241.856 372.382 248.361C368.422 255.432 362.388 262.315 360.125 270.14C357.485 279.003 360.785 289.091 363.425 297.577L363.142 295.502C367.385 302.102 369.459 310.022 368.988 317.753C368.893 319.073 368.799 320.582 369.365 321.807C370.025 323.221 371.533 324.07 372.665 325.201C373.796 326.333 374.55 328.218 373.419 329.444" fill="white"/>
<path d="M372.287 251.378C376.624 244.213 379.641 236.198 381.055 227.902C382.281 220.453 382.375 211.874 377.567 205.557C373.607 200.371 366.159 197.26 359.936 199.9C358.711 194.714 356.825 189.152 351.734 186.606C347.208 184.249 342.777 185.946 339.194 188.963C338.723 188.492 337.969 188.586 337.403 189.057C335.234 187.172 332.123 186.7 329.2 187.455C324.863 188.68 322.129 192.64 319.961 196.317C319.866 196.317 319.772 196.411 319.678 196.411C312.23 195.563 305.253 201.974 304.97 209.328C304.781 209.422 304.593 209.517 304.404 209.611C304.31 209.611 304.31 209.705 304.215 209.705C298.558 210.742 294.127 215.645 292.43 221.113C289.884 228.939 292.996 237.424 296.296 244.495C302.047 257.035 311.381 267.689 316.001 280.7C318.641 287.959 319.112 295.596 316.566 302.95C316.378 303.61 316.566 304.082 317.038 304.459C312.889 305.213 309.118 307.853 306.855 311.436C305.441 313.604 304.593 316.244 304.593 318.79C304.593 322.184 305.818 325.484 306.195 328.784C306.478 331.989 305.347 334.818 304.781 337.929C304.498 339.343 304.404 340.663 304.687 342.078C304.97 343.68 305.912 344.906 306.572 346.414C307.138 347.734 306.478 348.677 305.63 349.714C304.593 350.846 303.556 351.977 302.518 353.109C300.539 355.466 298.747 358.011 297.239 360.746C293.844 366.78 291.77 373.379 291.016 380.168C290.827 381.959 293.656 381.959 293.844 380.168C294.504 374.416 296.296 368.665 298.936 363.574C300.256 361.028 301.858 358.483 303.65 356.22C304.498 355.183 305.347 354.146 306.29 353.109C307.233 352.071 308.458 351.034 309.118 349.714C309.778 348.583 309.872 347.263 309.401 345.943C309.024 344.717 308.081 343.68 307.61 342.36C306.573 339.532 308.081 336.421 308.647 333.592C309.307 330.575 308.93 327.652 308.27 324.635C307.704 321.807 306.95 318.978 307.704 316.15C309.118 310.776 314.492 306.722 320.055 307.005C320.526 307.005 320.809 306.91 320.998 306.627C329.295 308.324 337.874 308.419 346.171 306.816C350.131 306.062 354.185 305.025 357.862 303.422C360.031 302.479 362.105 301.065 363.425 299.179C365.688 303.705 367.102 308.607 367.385 313.699C367.479 315.207 367.479 316.621 367.385 318.13C367.29 319.733 367.29 321.335 368.139 322.75C368.799 323.881 369.742 324.635 370.779 325.39C371.344 325.861 373.042 327.369 372.287 328.312C371.156 329.727 373.136 331.707 374.267 330.292C376.341 327.652 374.456 324.824 372.287 323.033C370.967 321.996 370.119 321.053 370.119 319.261C370.119 317.47 370.307 315.773 370.213 313.981C369.93 307.099 367.762 300.405 364.085 294.654C363.99 294.465 363.802 294.276 363.613 294.182C361.445 287.111 359.276 279.663 360.691 272.309C362.576 264.578 368.139 258.072 372.287 251.378ZM350.98 189.34C354.845 191.697 356.259 196.223 357.202 200.466C356.354 200.56 355.411 200.748 354.656 200.937C353.242 201.22 351.734 201.785 350.508 202.54C347.774 204.331 346.737 207.442 347.397 210.648C348.34 215.551 352.677 218.662 357.391 219.793C357.202 220.171 357.202 220.642 357.391 221.019C357.296 221.113 357.202 221.302 357.108 221.49C356.919 222.245 356.636 222.999 356.448 223.753C356.354 224.13 356.259 224.507 356.071 224.885C355.976 225.167 355.977 225.45 355.788 225.639C355.505 225.922 354.939 226.016 354.562 226.11C353.997 226.205 353.431 226.299 352.865 226.299C350.791 226.393 348.811 225.827 347.114 224.79C347.114 224.507 347.208 224.319 347.208 224.036C347.397 220.171 346.077 216.305 345.7 212.439C345.322 208.668 344.851 204.897 343.908 201.126C343.06 197.826 341.928 194.526 340.608 191.414C343.437 188.869 347.114 186.983 350.98 189.34ZM329.295 190.377C331.652 189.34 335.611 189.717 336.743 192.452C337.026 193.112 337.686 193.583 338.346 193.489C339.571 196.411 340.514 199.428 341.268 202.54C342.211 206.594 342.588 210.648 343.06 214.702C343.437 218.002 344.663 221.396 344.285 224.696L344.191 224.79C344.003 225.167 343.908 225.545 344.097 225.827C344.097 225.922 344.003 226.11 344.003 226.204C343.626 227.619 342.777 229.033 341.268 229.599C339.854 230.164 338.346 229.976 337.403 228.75C337.12 228.373 336.743 228.279 336.366 228.279C335.234 220.642 332.594 213.005 329.012 206.217C327.315 203.011 325.523 199.523 322.6 197.26C324.298 194.62 326.278 191.603 329.295 190.377ZM320.338 199.334C320.432 199.334 320.432 199.334 320.526 199.334C322.883 201.031 324.392 203.671 325.806 206.217C327.503 209.328 329.012 212.534 330.237 215.833C331.463 219.228 332.406 222.716 333.16 226.204C333.726 228.75 334.48 231.956 333.443 234.596C332.783 236.293 331.275 236.67 329.577 236.576C327.88 236.481 326.278 236.198 324.675 235.727C324.392 233.37 323.26 230.824 322.6 228.844C320.903 224.036 319.018 218.945 316.472 214.514C314.681 211.402 311.381 208.479 307.798 208.574C308.458 202.823 314.681 198.014 320.338 199.334ZM361.822 297.011C360.691 299.273 358.239 300.593 355.977 301.442C352.394 302.856 348.622 303.799 344.851 304.459C337.12 305.779 329.2 305.59 321.563 303.987C320.998 303.893 320.621 304.082 320.338 304.365C319.961 304.365 319.584 304.365 319.206 304.365C319.301 304.27 319.395 304.082 319.489 303.893C321.092 299.368 321.563 294.654 321.186 290.034C321.375 290.222 321.752 290.411 322.129 290.411C334.669 290.788 347.303 287.582 358.051 281.077C358.522 286.451 360.219 291.825 361.822 297.011ZM358.334 271.554C357.862 273.629 357.768 275.703 357.768 277.871C347.114 284.565 334.574 287.959 322.035 287.488C321.469 287.488 321.092 287.771 320.904 288.054C320.715 286.828 320.526 285.603 320.243 284.377C318.641 277.966 315.624 272.026 312.324 266.369C308.93 260.523 305.158 254.961 301.953 249.115C298.37 242.515 294.599 234.973 294.599 227.336C294.599 220.548 299.03 212.345 306.667 212.345C307.327 212.345 307.798 211.968 307.987 211.402C310.627 211.214 313.078 213.854 314.304 216.116C316.284 219.699 317.886 223.659 319.301 227.525C320.055 229.599 320.715 231.579 321.375 233.653C321.658 234.501 322.035 235.633 322.129 236.576C322.129 236.67 322.129 236.764 322.129 236.858C322.129 237.518 321.941 238.084 321.375 238.556C318.924 240.63 314.681 238.65 312.512 237.047C308.93 234.407 306.761 230.164 304.781 226.299C303.933 224.696 301.481 226.11 302.33 227.713C303.178 229.41 304.027 231.013 305.064 232.616C304.875 232.71 304.687 232.71 304.404 232.804C304.027 232.899 303.65 232.993 303.273 232.993C302.99 233.087 302.896 233.087 302.424 233.087C300.916 233.181 299.596 233.181 298.276 232.804C297.522 232.616 296.673 232.993 296.579 233.747C296.39 234.501 296.767 235.35 297.521 235.444C300.539 236.104 303.744 235.916 306.667 234.879C307.798 236.481 309.212 237.896 310.721 239.121C313.832 241.478 318.735 243.27 322.412 241.101C323.543 240.441 324.203 239.498 324.58 238.461C327.786 239.404 331.84 239.97 334.386 237.99C336.271 236.481 336.837 234.124 336.837 231.767C338.723 232.899 341.268 232.804 343.154 231.767C344.757 230.824 345.888 229.316 346.454 227.619C348.622 228.75 351.074 229.222 353.525 229.033C354.939 228.939 356.825 228.656 357.862 227.43C358.522 226.676 358.711 225.827 358.994 224.885C359.088 224.507 359.276 224.036 359.371 223.659C361.256 225.733 363.802 227.147 366.63 227.713C367.385 227.807 368.233 227.525 368.327 226.77C368.516 226.11 368.139 225.167 367.385 225.073C367.007 224.979 366.536 224.885 366.159 224.79C365.97 224.696 365.782 224.696 365.593 224.602C365.499 224.602 365.311 224.508 365.216 224.508C364.462 224.13 363.708 223.753 362.953 223.282C362.859 223.188 362.859 223.188 362.765 223.093L362.67 222.999C362.482 222.905 362.388 222.716 362.199 222.622C361.916 222.339 361.633 222.056 361.351 221.773C361.256 221.585 361.068 221.49 360.974 221.302L360.879 221.208C360.785 221.113 360.785 221.113 360.691 221.019C360.502 220.83 360.408 220.642 360.313 220.359C360.785 220.359 361.256 220.453 361.728 220.359C365.97 220.265 370.025 218.662 373.607 216.682C375.21 215.834 373.796 213.382 372.193 214.231C366.442 217.436 358.428 219.511 352.96 214.608C350.791 212.722 349.094 209.234 350.791 206.405C351.545 205.18 352.771 204.52 354.091 204.143C354.845 203.86 355.599 203.765 356.354 203.577C357.108 203.482 357.862 203.2 358.522 203.388C358.899 203.577 359.276 203.482 359.559 203.388C359.654 203.388 359.748 203.294 359.842 203.294C365.027 199.994 372.099 202.728 375.493 207.442C379.924 213.571 379.453 222.056 378.038 229.127C376.436 237.141 373.325 244.684 368.988 251.567C364.933 257.789 359.842 264.012 358.334 271.554ZM340.514 268.16C329.86 264.86 327.88 251.189 329.483 241.761C329.766 239.97 332.5 240.724 332.217 242.515C330.803 250.341 332.217 262.692 341.268 265.426C343.06 265.992 342.305 268.726 340.514 268.16Z" fill="black"/>
<path d="M154.495 125.04C153.458 123.531 155.909 122.117 156.946 123.626C165.149 135.505 174.577 146.348 185.231 156.059C186.551 157.284 184.571 159.264 183.251 158.039C172.409 148.233 162.792 137.108 154.495 125.04ZM450.353 107.786C439.605 123.437 429.517 139.465 419.994 155.87C417.26 160.584 414.62 165.298 411.98 170.012C411.132 171.615 413.583 173.029 414.432 171.427C423.577 154.833 433.382 138.522 443.753 122.683C446.676 118.157 449.693 113.632 452.804 109.2C453.841 107.692 451.39 106.278 450.353 107.786ZM357.108 60.6449C352.865 66.9618 356.259 76.39 363.331 78.9356C364.933 79.5013 365.593 77.2386 364.462 76.39C358.899 72.3359 350.32 75.2586 347.962 81.5756C347.303 83.2726 350.037 84.0269 350.697 82.3299C353.242 75.8244 348.905 67.7161 342.117 66.1133C342.023 67.0562 341.834 67.9989 341.74 68.8474C347.397 69.5074 353.054 67.6217 357.296 63.8504C358.616 62.6248 356.637 60.645 355.317 61.8706C351.64 65.1705 346.642 66.5847 341.74 66.019C340.137 65.8304 339.854 68.4702 341.363 68.7531C346.737 70.073 349.942 76.2957 347.962 81.4812C348.905 81.764 349.754 81.9526 350.697 82.2355C352.488 77.5214 359.088 75.8243 363.048 78.7471C363.425 77.8985 363.802 77.05 364.179 76.2015C358.711 74.3159 356.448 66.8676 359.653 62.0592C360.596 60.5506 358.145 59.1364 357.108 60.6449ZM120.742 190.849C121.591 192.546 123.193 193.489 124.796 194.337C126.305 195.186 127.53 196.129 128.19 197.731C129.416 200.56 128.85 204.143 126.493 206.217C127.342 206.594 128.096 206.877 128.945 207.254C129.227 204.237 132.622 202.351 135.356 202.257C139.316 202.068 142.898 204.331 146.104 206.311C146.481 205.463 146.858 204.614 147.235 203.766C143.747 202.351 141.296 198.769 141.296 194.997C141.296 191.132 143.747 187.737 147.141 186.229C148.555 185.569 147.707 183.683 146.387 183.589C143.935 183.4 141.956 184.909 140.353 186.512C138.656 188.115 137.147 189.529 134.979 190.189C130.83 191.414 126.21 190.095 123.571 186.7C122.439 185.286 120.459 187.266 121.591 188.68C124.608 192.357 129.605 193.96 134.319 193.206C136.581 192.829 138.75 191.886 140.447 190.377C142.238 188.869 143.935 186.229 146.575 186.417C146.293 185.569 146.104 184.626 145.821 183.778C141.39 185.757 138.373 190.472 138.561 195.374C138.75 200.371 142.05 204.708 146.575 206.5C148.084 207.065 149.027 204.708 147.707 203.954C143.653 201.503 139.127 198.863 134.225 199.711C130.265 200.371 126.682 203.2 126.305 207.348C126.21 208.668 127.908 209.045 128.756 208.385C131.679 205.84 132.527 201.503 131.396 197.92C130.83 196.128 129.793 194.526 128.285 193.3C126.682 192.074 124.325 191.509 123.382 189.623C122.439 187.738 119.988 189.152 120.742 190.849ZM281.305 76.2957C280.834 92.1351 282.059 107.975 284.982 123.531C285.359 125.323 287.999 124.568 287.716 122.777C284.887 107.409 283.662 91.8522 284.133 76.2957C284.228 74.5043 281.399 74.5043 281.305 76.2957ZM449.033 212.817C450.447 214.136 452.71 213.759 453.936 212.345C454.596 211.497 454.973 210.554 454.973 209.422C454.973 208.385 454.69 207.348 454.407 206.405C454.219 205.745 453.653 205.368 453.087 205.368C451.484 205.274 449.882 205.274 448.373 205.18C447.619 205.18 446.959 205.84 446.959 206.594C446.959 207.348 447.619 208.008 448.373 208.008C449.976 208.103 451.579 208.102 453.087 208.197C452.616 207.82 452.144 207.537 451.767 207.16C451.861 207.537 451.956 207.914 452.05 208.291C452.05 208.479 452.144 208.668 452.144 208.857V208.951C452.144 208.763 452.144 208.668 452.144 208.762C452.144 208.857 452.144 208.951 452.144 209.045C452.144 209.234 452.144 209.422 452.144 209.611V209.705C452.144 209.894 452.144 209.8 452.144 209.611C452.144 209.611 452.144 209.8 452.05 209.894C452.05 209.988 452.05 210.082 451.956 210.177V210.271C451.862 210.46 451.956 210.365 452.05 210.177C451.956 210.271 451.956 210.365 451.862 210.459C452.05 210.177 452.05 210.271 451.956 210.365C451.956 210.46 451.862 210.459 451.862 210.459C451.862 210.459 451.767 210.554 451.673 210.554C451.956 210.271 451.861 210.365 451.767 210.459C451.673 210.554 451.579 210.554 451.39 210.648C451.202 210.742 451.673 210.554 451.485 210.648C451.39 210.648 451.39 210.648 451.296 210.742C451.201 210.742 451.202 210.742 451.107 210.742C450.824 210.837 451.484 210.742 451.202 210.742C451.107 210.742 451.107 210.742 451.013 210.742C450.73 210.742 451.107 210.742 451.202 210.742C451.202 210.742 451.013 210.742 451.013 210.648C450.73 210.554 451.202 210.742 451.107 210.742C451.107 210.742 451.013 210.648 450.919 210.648C450.824 210.648 451.202 210.931 451.013 210.648C450.447 210.082 449.505 210.082 449.033 210.648C448.562 211.402 448.467 212.345 449.033 212.817ZM262.92 110.615C264.9 117.12 266.88 123.72 268.859 130.225C269.425 131.922 272.16 131.262 271.594 129.471C269.614 122.966 267.634 116.366 265.654 109.86C265.183 108.163 262.448 108.917 262.92 110.615ZM181.177 139.936C183.817 142.576 186.362 145.122 189.002 147.762C189.568 148.327 190.511 148.327 190.982 147.762C191.454 147.196 191.548 146.348 190.982 145.782C188.343 143.142 185.797 140.596 183.157 137.956C182.591 137.391 181.648 137.391 181.177 137.956C180.706 138.428 180.611 139.371 181.177 139.936ZM415.657 134.279C412.546 138.993 409.529 143.708 406.418 148.422C405.38 149.93 407.832 151.344 408.869 149.836C411.98 145.122 414.997 140.408 418.108 135.694C419.146 134.185 416.694 132.676 415.657 134.279Z" fill="black"/>
</svg>
