<svg width="600" height="600" viewBox="0 0 600 600" fill="none" xmlns="http://www.w3.org/2000/svg">
<path d="M307.314 236.964L282.642 201.966C281.631 200.533 280.346 199.315 278.862 198.381C277.378 197.448 275.724 196.817 273.995 196.525C272.266 196.233 270.497 196.287 268.788 196.682C267.08 197.077 265.467 197.806 264.042 198.828L258.642 202.692C256.578 204.178 254.131 205.039 251.592 205.173C249.053 205.307 246.528 204.708 244.32 203.448C242.208 202.248 240.038 201.104 237.81 200.016C228.9 195.709 219.42 192.699 209.658 191.076C207.023 190.63 204.584 189.398 202.662 187.542C200.74 185.685 199.424 183.29 198.888 180.672L198.186 177.282C197.83 175.56 197.137 173.926 196.145 172.474C195.154 171.023 193.884 169.782 192.41 168.824C190.935 167.867 189.285 167.211 187.556 166.896C185.826 166.58 184.051 166.611 182.334 166.986L140.4 176.118C136.976 176.861 133.985 178.926 132.075 181.862C130.165 184.799 129.491 188.371 130.2 191.802L131.778 199.41C132.276 201.832 132.091 204.344 131.243 206.667C130.396 208.989 128.919 211.03 126.978 212.562C125.642 213.626 124.324 214.722 123.024 215.85C121.056 217.587 118.62 218.707 116.021 219.071C113.421 219.435 110.771 219.026 108.402 217.896L102.216 214.896C99.0412 213.362 95.3874 213.153 92.058 214.313C88.7286 215.473 85.9963 217.908 84.4619 221.082L65.5859 260.154C64.8243 261.726 64.3799 263.432 64.278 265.176C64.1761 266.92 64.4188 268.666 64.9921 270.316C65.5655 271.966 66.4583 273.487 67.6195 274.791C68.7808 276.096 70.1877 277.159 71.7599 277.92L78.8039 281.328C81.1188 282.429 83.0668 284.175 84.4141 286.355C85.7615 288.536 86.451 291.059 86.3999 293.622C86.1769 301.88 86.9199 310.136 88.6139 318.222C89.1282 320.728 88.903 323.33 87.9656 325.711C87.0282 328.092 85.419 330.149 83.3339 331.632L75.8699 336.996C73.0239 339.042 71.1007 342.128 70.5186 345.584C69.9366 349.041 70.7428 352.587 72.7619 355.452L97.4339 390.456C98.446 391.887 99.7312 393.104 101.215 394.037C102.7 394.97 104.354 395.6 106.082 395.891C107.811 396.182 109.58 396.129 111.288 395.733C112.996 395.338 114.609 394.609 116.034 393.588L123.714 388.074C125.785 386.569 128.248 385.698 130.805 385.568C133.362 385.438 135.901 386.054 138.114 387.342C140.49 388.734 142.94 390.042 145.464 391.266C152.546 394.695 159.993 397.311 167.664 399.066C170.138 399.635 172.397 400.903 174.17 402.721C175.944 404.538 177.157 406.826 177.666 409.314L179.778 419.514C180.14 421.227 180.838 422.852 181.83 424.295C182.823 425.737 184.091 426.97 185.561 427.921C187.031 428.872 188.675 429.523 190.398 429.837C192.121 430.151 193.889 430.122 195.6 429.75L237.6 420.6C241.024 419.858 244.017 417.794 245.927 414.857C247.837 411.92 248.511 408.347 247.8 404.916L245.91 396C245.38 393.471 245.602 390.842 246.548 388.437C247.495 386.033 249.126 383.958 251.238 382.47C254.418 380.238 257.475 377.834 260.394 375.27C262.351 373.559 264.769 372.465 267.346 372.123C269.923 371.782 272.543 372.208 274.878 373.35L281.058 376.35C284.232 377.881 287.884 378.089 291.211 376.927C294.538 375.766 297.268 373.331 298.8 370.158L317.676 331.086C319.209 327.91 319.418 324.256 318.257 320.927C317.096 317.597 314.659 314.865 311.484 313.332L304.368 309.894C302.054 308.764 300.116 306.991 298.786 304.787C297.455 302.583 296.789 300.041 296.868 297.468C297.084 288.966 296.278 280.469 294.468 272.16C293.93 269.641 294.141 267.019 295.075 264.618C296.009 262.217 297.625 260.142 299.724 258.648L304.2 255.42C307.047 253.375 308.971 250.289 309.554 246.833C310.138 243.376 309.332 239.83 307.314 236.964V236.964ZM212.718 360.684C199.948 364.817 186.239 365.071 173.324 361.413C160.41 357.755 148.87 350.35 140.164 340.134C131.458 329.918 125.977 317.349 124.415 304.018C122.852 290.687 125.277 277.192 131.384 265.239C137.491 253.286 147.005 243.412 158.723 236.867C170.441 230.321 183.838 227.397 197.217 228.465C210.597 229.533 223.36 234.544 233.892 242.865C244.424 251.187 252.252 262.444 256.386 275.214C259.132 283.693 260.18 292.63 259.472 301.515C258.763 310.399 256.311 319.057 252.256 326.994C248.201 334.931 242.622 341.991 235.838 347.772C229.054 353.553 221.198 357.94 212.718 360.684V360.684Z" fill="#F0F0F0"/>
<path d="M390.3 366.479L395.274 382.499C395.534 383.341 395.958 384.122 396.523 384.798C397.087 385.473 397.781 386.03 398.562 386.435C399.344 386.841 400.198 387.087 401.076 387.159C401.953 387.231 402.837 387.128 403.674 386.855L406.176 386.057C407.387 385.669 408.684 385.637 409.912 385.965C411.141 386.292 412.249 386.966 413.106 387.905C413.79 388.657 414.504 389.387 415.248 390.095C417.597 392.347 420.185 394.337 422.964 396.029C424.033 396.696 424.89 397.652 425.437 398.786C425.984 399.92 426.198 401.186 426.054 402.437L425.724 405.437C425.628 406.311 425.707 407.195 425.955 408.037C426.203 408.88 426.616 409.666 427.169 410.348C427.723 411.03 428.406 411.596 429.18 412.013C429.953 412.429 430.802 412.689 431.676 412.776L448.416 414.431C450.158 414.605 451.899 414.083 453.258 412.979C454.618 411.876 455.487 410.28 455.676 408.54L455.946 406.068C456.079 404.802 456.575 403.602 457.375 402.612C458.174 401.622 459.243 400.884 460.452 400.487C461.752 400.087 463.04 399.613 464.316 399.065C465.501 398.581 466.801 398.453 468.058 398.694C469.315 398.936 470.475 399.538 471.396 400.427L472.476 401.465C473.751 402.683 475.458 403.345 477.22 403.306C478.983 403.267 480.658 402.529 481.878 401.256L493.638 388.955C494.855 387.681 495.517 385.976 495.478 384.214C495.439 382.452 494.701 380.778 493.428 379.559L492 378.173C491.09 377.309 490.445 376.203 490.141 374.985C489.837 373.767 489.887 372.488 490.284 371.297C491.377 368.094 492.116 364.78 492.486 361.415C492.629 360.148 493.137 358.949 493.947 357.964C494.758 356.98 495.836 356.25 497.052 355.865L497.946 355.577C499.615 355.044 501.006 353.873 501.816 352.319C502.626 350.765 502.79 348.954 502.272 347.279L497.298 331.259C497.038 330.418 496.613 329.637 496.049 328.961C495.485 328.285 494.792 327.728 494.01 327.322C493.229 326.916 492.374 326.67 491.497 326.597C490.619 326.524 489.736 326.626 488.898 326.897L487.572 327.323C486.382 327.712 485.106 327.755 483.892 327.445C482.679 327.136 481.579 326.488 480.72 325.577C480.1 324.909 479.458 324.257 478.794 323.621C475.819 320.777 472.468 318.354 468.834 316.421C467.672 315.797 466.724 314.838 466.112 313.669C465.5 312.5 465.253 311.174 465.402 309.863V309.863C465.497 308.99 465.417 308.106 465.168 307.263C464.92 306.42 464.506 305.635 463.952 304.953C463.398 304.27 462.715 303.705 461.941 303.288C461.167 302.871 460.318 302.612 459.444 302.525L442.71 300.869C440.968 300.696 439.227 301.218 437.868 302.322C436.508 303.425 435.639 305.021 435.45 306.761L435.234 308.687C435.095 309.914 434.619 311.078 433.86 312.051C433.101 313.024 432.088 313.768 430.932 314.201C430.532 314.357 430.132 314.519 429.732 314.687C428.547 315.172 427.247 315.3 425.99 315.059C424.732 314.817 423.573 314.215 422.652 313.326L421.566 312.287C420.292 311.07 418.586 310.408 416.824 310.447C415.063 310.487 413.388 311.224 412.17 312.497L400.404 324.797C399.186 326.072 398.525 327.777 398.564 329.539C398.603 331.301 399.341 332.975 400.614 334.193L402.036 335.555C402.948 336.421 403.595 337.529 403.899 338.749C404.203 339.969 404.152 341.251 403.752 342.443C402.702 345.517 401.98 348.692 401.598 351.918C401.446 353.176 400.934 354.365 400.125 355.34C399.315 356.316 398.241 357.038 397.032 357.419L394.632 358.187C392.964 358.721 391.574 359.891 390.763 361.444C389.952 362.996 389.785 364.805 390.3 366.479ZM429.9 345.071C438.3 333.731 454.902 333.275 463.704 344.141C466.623 347.82 468.248 352.358 468.328 357.053C468.409 361.748 466.939 366.339 464.148 370.115C455.718 381.449 439.146 381.911 430.344 371.045C427.424 367.367 425.798 362.829 425.718 358.134C425.638 353.438 427.108 348.847 429.9 345.071V345.071Z" fill="#F0F0F0"/>
<path d="M557.4 411.6H50.9999C45.698 411.6 41.3999 415.898 41.3999 421.2C41.3999 426.502 45.698 430.8 50.9999 430.8H557.4C562.702 430.8 567 426.502 567 421.2C567 415.898 562.702 411.6 557.4 411.6Z" fill="#F0F0F0"/>
<path d="M557.4 411.599C559.946 411.599 562.388 412.611 564.188 414.411C565.989 416.212 567 418.653 567 421.199C567 423.745 565.989 426.187 564.188 427.988C562.388 429.788 559.946 430.799 557.4 430.799H51C48.4539 430.799 46.0121 429.788 44.2117 427.988C42.4114 426.187 41.4 423.745 41.4 421.199C41.4 418.653 42.4114 416.212 44.2117 414.411C46.0121 412.611 48.4539 411.599 51 411.599H557.4ZM557.4 407.399H51C47.34 407.399 43.8299 408.853 41.2419 411.441C38.6539 414.029 37.2 417.539 37.2 421.199C37.2 424.859 38.6539 428.369 41.2419 430.957C43.8299 433.545 47.34 434.999 51 434.999H557.4C561.06 434.999 564.57 433.545 567.158 430.957C569.746 428.369 571.2 424.859 571.2 421.199C571.2 417.539 569.746 414.029 567.158 411.441C564.57 408.853 561.06 407.399 557.4 407.399Z" fill="#4C3133"/>
<path d="M59.0999 423.9C56.5538 423.9 54.112 422.888 52.3117 421.088C50.5113 419.288 49.4999 416.846 49.4999 414.3C49.5032 413.411 49.6283 412.527 49.8719 411.672C47.5384 411.948 45.3872 413.07 43.8258 414.826C42.2644 416.582 41.4012 418.85 41.3999 421.2C41.3999 423.746 42.4113 426.188 44.2117 427.988C46.012 429.788 48.4538 430.8 50.9999 430.8H557.4C559.487 430.799 561.517 430.118 563.182 428.86C564.847 427.601 566.057 425.835 566.628 423.828C566.254 423.873 565.877 423.897 565.5 423.9H59.0999Z" fill="#E2E2E0"/>
<path d="M97.4999 475.799C97.2241 475.798 96.9514 475.742 96.6972 475.635C96.443 475.528 96.2124 475.372 96.0185 475.176C95.8246 474.98 95.6712 474.747 95.5671 474.492C95.4631 474.236 95.4103 473.963 95.4119 473.687L95.6939 433.787C95.6971 433.232 95.9197 432.701 96.3132 432.31C96.7067 431.919 97.239 431.699 97.7939 431.699C98.0697 431.701 98.3424 431.757 98.5966 431.864C98.8508 431.971 99.0814 432.127 99.2753 432.323C99.4692 432.519 99.6226 432.751 99.7266 433.007C99.8307 433.262 99.8835 433.535 99.8819 433.811L99.5999 473.711C99.5967 474.266 99.3741 474.797 98.9806 475.188C98.5871 475.58 98.0548 475.799 97.4999 475.799V475.799Z" fill="#4C3133"/>
<path d="M97.4999 490.8C96.9429 490.8 96.4088 490.579 96.015 490.185C95.6212 489.791 95.3999 489.257 95.3999 488.7V480.9C95.3999 480.343 95.6212 479.809 96.015 479.415C96.4088 479.021 96.9429 478.8 97.4999 478.8C98.0569 478.8 98.591 479.021 98.9848 479.415C99.3786 479.809 99.5999 480.343 99.5999 480.9V488.7C99.5999 489.257 99.3786 489.791 98.9848 490.185C98.591 490.579 98.0569 490.8 97.4999 490.8Z" fill="#4C3133"/>
<path d="M119.1 485.999C118.544 485.999 118.011 485.779 117.617 485.386C117.223 484.994 117.002 484.461 117 483.905L116.868 433.805C116.867 433.529 116.921 433.256 117.025 433.001C117.13 432.746 117.284 432.514 117.479 432.319C117.673 432.123 117.904 431.968 118.159 431.861C118.413 431.755 118.686 431.7 118.962 431.699V431.699C119.518 431.699 120.051 431.92 120.445 432.312C120.838 432.705 121.06 433.237 121.062 433.793L121.194 483.893C121.195 484.169 121.141 484.442 121.036 484.697C120.932 484.952 120.778 485.184 120.583 485.38C120.389 485.575 120.158 485.731 119.903 485.837C119.649 485.943 119.376 485.998 119.1 485.999V485.999Z" fill="#4C3133"/>
<path d="M119.1 497.399C118.543 497.399 118.009 497.178 117.615 496.784C117.221 496.39 117 495.856 117 495.299V491.099C117 490.542 117.221 490.008 117.615 489.614C118.009 489.22 118.543 488.999 119.1 488.999C119.657 488.999 120.191 489.22 120.585 489.614C120.979 490.008 121.2 490.542 121.2 491.099V495.299C121.2 495.856 120.979 496.39 120.585 496.784C120.191 497.178 119.657 497.399 119.1 497.399Z" fill="#4C3133"/>
<path d="M494.1 476.399C493.543 476.399 493.009 476.178 492.615 475.784C492.221 475.39 492 474.856 492 474.299V433.799C492 433.242 492.221 432.708 492.615 432.314C493.009 431.92 493.543 431.699 494.1 431.699C494.657 431.699 495.191 431.92 495.585 432.314C495.979 432.708 496.2 433.242 496.2 433.799V474.299C496.2 474.856 495.979 475.39 495.585 475.784C495.191 476.178 494.657 476.399 494.1 476.399V476.399Z" fill="#4C3133"/>
<path d="M494.1 490.199C493.543 490.199 493.009 489.978 492.615 489.584C492.221 489.19 492 488.656 492 488.099V483.299C492 482.742 492.221 482.208 492.615 481.814C493.009 481.42 493.543 481.199 494.1 481.199C494.657 481.199 495.191 481.42 495.585 481.814C495.979 482.208 496.2 482.742 496.2 483.299V488.099C496.2 488.656 495.979 489.19 495.585 489.584C495.191 489.978 494.657 490.199 494.1 490.199V490.199Z" fill="#4C3133"/>
<path d="M516.3 510.6C515.743 510.6 515.209 510.378 514.815 509.985C514.421 509.591 514.2 509.057 514.2 508.5V503.7C514.2 503.143 514.421 502.609 514.815 502.215C515.209 501.821 515.743 501.6 516.3 501.6C516.857 501.6 517.391 501.821 517.785 502.215C518.179 502.609 518.4 503.143 518.4 503.7V508.5C518.4 509.057 518.179 509.591 517.785 509.985C517.391 510.378 516.857 510.6 516.3 510.6V510.6Z" fill="#4C3133"/>
<path d="M516.3 496.799C515.745 496.799 515.213 496.58 514.819 496.189C514.426 495.797 514.203 495.266 514.2 494.711L513.924 435.011C513.921 434.457 514.137 433.923 514.526 433.527C514.915 433.131 515.445 432.906 516 432.899V432.899C516.554 432.901 517.086 433.121 517.479 433.512C517.872 433.903 518.095 434.433 518.1 434.987L518.376 494.687C518.377 494.963 518.325 495.237 518.221 495.492C518.117 495.747 517.963 495.98 517.769 496.176C517.575 496.372 517.345 496.528 517.091 496.635C516.836 496.742 516.564 496.798 516.288 496.799H516.3Z" fill="#4C3133"/>
<path d="M393.288 264.899H215.712C207.09 264.899 200.1 271.889 200.1 280.511V391.487C200.1 400.11 207.09 407.099 215.712 407.099H393.288C401.91 407.099 408.9 400.11 408.9 391.487V280.511C408.9 271.889 401.91 264.899 393.288 264.899Z" fill="white"/>
<path d="M393.288 409.2H215.688C210.996 409.189 206.5 407.318 203.184 403.998C199.869 400.678 198.005 396.18 198 391.488V280.488C198.011 275.796 199.882 271.3 203.201 267.984C206.521 264.669 211.02 262.805 215.712 262.8H393.312C398.004 262.811 402.5 264.681 405.816 268.001C409.131 271.321 410.995 275.82 411 280.512V391.512C410.989 396.204 409.118 400.7 405.799 404.015C402.479 407.331 397.98 409.195 393.288 409.2V409.2ZM215.688 267C212.11 267.009 208.681 268.437 206.153 270.969C203.624 273.502 202.203 276.933 202.2 280.512V391.512C202.21 395.09 203.637 398.519 206.17 401.047C208.702 403.575 212.134 404.997 215.712 405H393.312C396.89 404.99 400.319 403.563 402.847 401.03C405.376 398.498 406.797 395.066 406.8 391.488V280.488C406.79 276.909 405.363 273.481 402.83 270.952C400.298 268.424 396.866 267.003 393.288 267H215.688Z" fill="#4C3133"/>
<path d="M382.02 279.684H226.38C218.825 279.684 212.7 285.808 212.7 293.364V390.636C212.7 398.191 218.825 404.316 226.38 404.316H382.02C389.575 404.316 395.7 398.191 395.7 390.636V293.364C395.7 285.808 389.575 279.684 382.02 279.684Z" fill="white"/>
<path d="M382.02 406.416H226.38C222.196 406.411 218.185 404.747 215.227 401.789C212.269 398.831 210.605 394.82 210.6 390.636V293.364C210.605 289.18 212.269 285.169 215.227 282.211C218.185 279.253 222.196 277.589 226.38 277.584H382.02C386.204 277.589 390.215 279.253 393.173 282.211C396.131 285.169 397.795 289.18 397.8 293.364V390.636C397.795 394.82 396.131 398.831 393.173 401.789C390.215 404.747 386.204 406.411 382.02 406.416ZM226.38 281.784C223.31 281.787 220.366 283.008 218.195 285.179C216.024 287.35 214.803 290.294 214.8 293.364V390.636C214.803 393.706 216.024 396.65 218.195 398.821C220.366 400.992 223.31 402.213 226.38 402.216H382.02C385.09 402.213 388.034 400.992 390.205 398.821C392.376 396.65 393.597 393.706 393.6 390.636V293.364C393.597 290.294 392.376 287.35 390.205 285.179C388.034 283.008 385.09 281.787 382.02 281.784H226.38Z" fill="#4C3133"/>
<path d="M377.316 298.2H312.684C308.993 298.2 306 301.193 306 304.884V316.716C306 320.408 308.993 323.4 312.684 323.4H377.316C381.007 323.4 384 320.408 384 316.716V304.884C384 301.193 381.007 298.2 377.316 298.2Z" fill="#F0F0F0"/>
<path d="M378.978 336H319.422C314.329 336 310.2 340.129 310.2 345.222V374.778C310.2 379.871 314.329 384 319.422 384H378.978C384.071 384 388.2 379.871 388.2 374.778V345.222C388.2 340.129 384.071 336 378.978 336Z" fill="#F0F0F0"/>
<path d="M190.8 395.1H415.2C417.348 395.101 419.407 395.955 420.926 397.474C422.444 398.992 423.298 401.052 423.3 403.2V409.5H182.7V403.2C182.702 401.052 183.555 398.992 185.074 397.474C186.593 395.955 188.652 395.101 190.8 395.1V395.1Z" fill="#F0F0F0"/>
<path d="M423.3 411.6H182.7C182.143 411.6 181.609 411.379 181.215 410.985C180.821 410.591 180.6 410.057 180.6 409.5V403.2C180.6 400.495 181.675 397.9 183.587 395.988C185.5 394.075 188.095 393 190.8 393H415.2C417.905 393 420.5 394.075 422.412 395.988C424.325 397.9 425.4 400.495 425.4 403.2V409.5C425.4 410.057 425.179 410.591 424.785 410.985C424.391 411.379 423.857 411.6 423.3 411.6V411.6ZM184.8 407.4H421.2V403.2C421.2 401.609 420.568 400.083 419.443 398.957C418.317 397.832 416.791 397.2 415.2 397.2H190.8C189.209 397.2 187.683 397.832 186.557 398.957C185.432 400.083 184.8 401.609 184.8 403.2V407.4Z" fill="#4C3133"/>
<path d="M144.048 445.152C141.125 445.147 138.251 444.407 135.69 442.998C130.518 440.172 121.842 432.066 121.83 409.5C121.83 408.943 122.051 408.409 122.445 408.015C122.839 407.621 123.373 407.4 123.93 407.4C124.487 407.4 125.021 407.621 125.415 408.015C125.809 408.409 126.03 408.943 126.03 409.5C126.03 424.398 130.296 435.264 137.706 439.308C139.843 440.474 142.257 441.034 144.689 440.928C147.121 440.823 149.478 440.055 151.506 438.708C156.69 435.384 159.492 429.234 159.006 422.25C158.406 413.85 160.452 407.286 165.054 402.798C172.494 395.556 183.804 396.552 184.254 396.594C184.53 396.62 184.798 396.7 185.043 396.83C185.287 396.959 185.504 397.136 185.681 397.349C185.858 397.562 185.99 397.809 186.072 398.073C186.153 398.338 186.182 398.616 186.156 398.892C186.13 399.168 186.05 399.436 185.92 399.681C185.791 399.925 185.614 400.142 185.401 400.319C185.187 400.496 184.941 400.628 184.677 400.71C184.412 400.791 184.134 400.82 183.858 400.794V400.794C183.762 400.794 173.964 399.96 167.946 405.846C164.28 409.446 162.672 414.846 163.146 421.98C163.746 430.512 160.218 438.096 153.726 442.26C150.842 444.128 147.484 445.131 144.048 445.152V445.152Z" fill="#4C3133"/>
<path d="M122.7 383.1C128.429 383.1 133.923 385.375 137.973 389.426C142.024 393.477 144.3 398.971 144.3 404.7V409.5H101.1V404.7C101.1 398.971 103.376 393.477 107.426 389.426C111.477 385.375 116.971 383.1 122.7 383.1V383.1Z" fill="#FFD900"/>
<path d="M144.3 411.6H101.1C100.543 411.6 100.009 411.379 99.6151 410.985C99.2213 410.591 99 410.057 99 409.5V404.7C99 398.414 101.497 392.386 105.942 387.942C110.386 383.497 116.414 381 122.7 381C128.986 381 135.014 383.497 139.458 387.942C143.903 392.386 146.4 398.414 146.4 404.7V409.5C146.4 410.057 146.179 410.591 145.785 410.985C145.391 411.379 144.857 411.6 144.3 411.6V411.6ZM103.2 407.4H142.2V404.7C142.2 399.528 140.146 394.568 136.489 390.911C132.832 387.254 127.872 385.2 122.7 385.2C117.528 385.2 112.568 387.254 108.911 390.911C105.254 394.568 103.2 399.528 103.2 404.7V407.4Z" fill="#4C3133"/>
<path d="M143.442 400.8H101.958C101.401 400.8 100.867 400.578 100.473 400.185C100.079 399.791 99.858 399.257 99.858 398.7C99.858 398.143 100.079 397.609 100.473 397.215C100.867 396.821 101.401 396.6 101.958 396.6H143.442C143.999 396.6 144.533 396.821 144.927 397.215C145.321 397.609 145.542 398.143 145.542 398.7C145.542 399.257 145.321 399.791 144.927 400.185C144.533 400.578 143.999 400.8 143.442 400.8Z" fill="#4C3133"/>
<path d="M122.7 400.2C122.143 400.2 121.609 399.979 121.215 399.585C120.821 399.191 120.6 398.657 120.6 398.1V383.1C120.6 382.543 120.821 382.009 121.215 381.615C121.609 381.221 122.143 381 122.7 381C123.257 381 123.791 381.221 124.185 381.615C124.579 382.009 124.8 382.543 124.8 383.1V398.1C124.8 398.657 124.579 399.191 124.185 399.585C123.791 399.979 123.257 400.2 122.7 400.2Z" fill="#4C3133"/>
<path d="M263.82 294.3H236.58C233.333 294.3 230.7 296.932 230.7 300.18V327.42C230.7 330.667 233.333 333.3 236.58 333.3H263.82C267.067 333.3 269.7 330.667 269.7 327.42V300.18C269.7 296.932 267.067 294.3 263.82 294.3Z" fill="#F0F0F0"/>
<path d="M420.096 142.799C390.78 130.415 303.846 142.722 243.888 217.71C196.944 276.425 226.968 322.451 256.794 351.743C285.168 379.601 360.81 414.851 378.366 389.789C400.512 358.199 322.476 304.745 331.74 275.399C339.924 249.425 410.4 240.911 433.092 213.905C460.836 180.888 440.148 151.277 420.096 142.799Z" fill="#C5E6F1"/>
<path d="M394.008 138.599C404.808 138.599 413.808 140.123 420.096 142.799C440.148 151.277 460.836 180.887 433.092 213.905C410.4 240.911 339.924 249.425 331.74 275.399C322.476 304.799 400.512 358.199 378.366 389.813C374.166 395.813 366.588 398.369 357.132 398.369C327.21 398.369 278.352 372.935 256.794 351.767C226.968 322.475 196.944 276.449 243.888 217.733C290.946 158.855 354.6 138.599 394.008 138.599ZM394.008 134.399C352.998 134.399 288.216 155.543 240.6 215.087C218.826 242.327 211.038 269.795 217.458 296.735C222.126 316.301 234.03 335.279 253.848 354.737C264.858 365.537 282.858 377.537 301.992 386.765C323.07 396.965 342.648 402.545 357.126 402.545C368.688 402.545 376.992 399.065 381.798 392.201C388.164 383.111 388.128 371.951 381.678 358.085C376.38 346.685 367.422 334.775 358.764 323.237C345.702 305.837 332.196 287.837 335.742 276.641C339.48 264.773 361.314 255.917 382.428 247.355C403.338 238.871 424.962 230.099 436.296 216.605C451.788 198.179 452.046 181.877 449.538 171.443C446.16 157.409 435.24 144.647 421.722 138.935C414.726 135.977 405.138 134.411 394.002 134.411L394.008 134.399Z" fill="#4C3133"/>
<path d="M273 343.343C243.174 314.051 213.15 268.025 260.094 209.309C277.157 187.846 298.11 169.789 321.858 156.083C295.122 168.497 267.432 188.273 243.894 217.709C196.95 276.425 226.974 322.451 256.8 351.743C285.174 379.601 360.816 414.851 378.372 389.789L378.456 389.663C349.308 392.999 295.836 365.771 273 343.343Z" fill="#81C4D4"/>
<path d="M421.86 160.199C430.86 165.743 433.386 181.199 429.918 185.657C426.45 190.115 416.31 184.499 400.644 191.447C384.978 198.395 358.644 200.957 359.664 184.889C360.684 168.821 367.272 164.795 385.218 166.355C403.164 167.915 411.69 153.953 421.86 160.199Z" fill="#81C4D4"/>
<path d="M422.646 153.599H422.544L417.546 153.437C416.75 153.411 415.998 153.07 415.454 152.489C414.91 151.907 414.619 151.134 414.645 150.338C414.671 149.543 415.012 148.79 415.594 148.246C416.175 147.702 416.948 147.411 417.744 147.437L422.742 147.599C423.538 147.612 424.296 147.94 424.849 148.512C425.403 149.083 425.707 149.852 425.694 150.647C425.681 151.443 425.353 152.201 424.781 152.754C424.21 153.308 423.442 153.612 422.646 153.599V153.599Z" fill="#4C3133"/>
<path d="M379.248 163.433C378.576 163.433 377.923 163.207 377.394 162.792C376.866 162.377 376.492 161.796 376.333 161.143C376.174 160.49 376.238 159.802 376.517 159.191C376.795 158.579 377.271 158.078 377.868 157.769L382.308 155.471C382.658 155.29 383.04 155.179 383.432 155.146C383.825 155.112 384.22 155.156 384.596 155.275C384.971 155.395 385.32 155.587 385.621 155.841C385.922 156.094 386.171 156.405 386.352 156.755C386.533 157.105 386.644 157.487 386.677 157.88C386.711 158.272 386.667 158.667 386.547 159.043C386.428 159.418 386.236 159.767 385.982 160.068C385.728 160.369 385.418 160.618 385.068 160.799L380.628 163.097C380.201 163.318 379.728 163.433 379.248 163.433Z" fill="#4C3133"/>
<path d="M419.868 179.147C422.512 179.147 424.656 177.004 424.656 174.359C424.656 171.715 422.512 169.571 419.868 169.571C417.224 169.571 415.08 171.715 415.08 174.359C415.08 177.004 417.224 179.147 419.868 179.147Z" fill="#4C3133"/>
<path d="M384.912 184.716C387.556 184.716 389.7 182.572 389.7 179.928C389.7 177.283 387.556 175.14 384.912 175.14C382.268 175.14 380.124 177.283 380.124 179.928C380.124 182.572 382.268 184.716 384.912 184.716Z" fill="#4C3133"/>
<path d="M366.708 128.946C349.764 128.868 324.582 137.736 312.162 145.59C306.684 149.052 297.522 155.454 291.45 157.728C285.378 160.002 277.302 158.898 274.248 153.18C272.448 149.814 272.85 145.59 274.566 142.188C276.282 138.786 279.156 136.104 282.252 133.878C290.065 128.278 299.389 125.172 309 124.968C311.586 124.92 315.048 124.368 315.288 121.8C315.474 119.808 313.35 118.38 311.4 117.966C309.45 117.552 307.296 117.624 305.64 116.508C303.528 115.08 302.982 112.02 303.906 109.644C304.83 107.268 306.906 105.444 309.168 104.322C338.142 90.0596 366.708 128.946 366.708 128.946Z" fill="#C5E6F1"/>
<path d="M285.33 160.914C280.08 160.914 274.884 158.826 272.4 154.164C270.396 150.414 270.504 145.578 272.688 141.24C274.32 138.006 277.044 135.036 281.022 132.174C289.182 126.334 298.914 123.091 308.946 122.868C311.652 122.82 313.146 122.19 313.182 121.602C313.224 121.11 312.24 120.294 310.944 120.018C310.452 119.916 309.924 119.844 309.366 119.766C307.8 119.556 306.03 119.316 304.452 118.248C301.668 116.37 300.588 112.344 301.932 108.882C303.155 106.025 305.399 103.727 308.226 102.438C320.826 96.2395 335.292 98.7115 350.046 109.596C356.955 114.771 363.13 120.86 368.4 127.698C368.629 128.011 368.767 128.381 368.798 128.768C368.83 129.155 368.754 129.543 368.579 129.889C368.404 130.236 368.136 130.527 367.806 130.731C367.476 130.935 367.096 131.044 366.708 131.046H366.492C350.328 131.046 325.53 139.62 313.284 147.366C312.192 148.056 310.944 148.872 309.606 149.766C304.104 153.366 297.252 157.824 292.206 159.72C290.003 160.522 287.675 160.926 285.33 160.914V160.914ZM322.41 103.314C318.132 103.307 313.911 104.295 310.08 106.2C308.205 107.04 306.7 108.532 305.844 110.4C305.214 112.026 305.64 114 306.798 114.762C307.566 115.278 308.658 115.428 309.924 115.602C310.524 115.68 311.172 115.77 311.814 115.902C314.814 116.538 317.658 118.83 317.364 121.992C317.19 123.828 315.876 126.93 309.024 127.062C299.842 127.27 290.938 130.246 283.476 135.6C280.062 138.06 277.758 140.532 276.438 143.148C274.89 146.226 274.764 149.694 276.102 152.208C278.586 156.858 285.624 157.686 290.718 155.808C295.344 154.074 301.98 149.748 307.314 146.274C308.67 145.386 309.93 144.564 311.04 143.874C323.04 136.284 345.552 128.238 362.418 127.074C356.31 119.868 340.2 103.314 322.41 103.314Z" fill="#4C3133"/>
<path d="M200.1 389.1C200.1 389.1 210.3 350.7 251.1 357.3C251.1 357.3 260.1 318.9 304.5 320.1C348.9 321.3 351.3 363.9 351.3 363.9C351.3 363.9 389.1 362.7 391.5 395.1L200.1 394.5V389.1Z" fill="white"/>
<path d="M391.5 397.2L200.1 396.6C199.544 396.599 199.011 396.377 198.619 395.983C198.226 395.589 198.006 395.056 198.006 394.5V389.1C198.006 388.918 198.03 388.736 198.078 388.56C200.246 381.487 203.872 374.947 208.722 369.36C215.838 361.2 228.654 352.2 249.6 354.954C251.764 348.374 255.135 342.256 259.542 336.912C266.958 327.912 280.77 317.352 304.542 318C328.458 318.648 340.482 331.086 346.362 341.4C349.905 347.708 352.22 354.63 353.184 361.8C359.358 362.02 365.457 363.236 371.244 365.4C384.81 370.62 392.538 380.838 393.582 394.956C393.603 395.242 393.564 395.53 393.469 395.801C393.374 396.072 393.224 396.32 393.028 396.53C392.833 396.741 392.597 396.909 392.334 397.024C392.071 397.139 391.787 397.199 391.5 397.2ZM202.2 392.4L389.172 393C387.648 381.69 381.162 373.746 369.858 369.36C363.942 367.152 357.681 366.014 351.366 366C350.819 366.015 350.288 365.817 349.885 365.447C349.482 365.078 349.238 364.566 349.206 364.02C348.473 356.753 346.24 349.716 342.648 343.356C334.848 329.79 322.014 322.674 304.446 322.2C286.878 321.726 272.796 327.528 262.884 339.45C258.4 344.817 255.084 351.06 253.146 357.78C253.022 358.301 252.706 358.755 252.261 359.051C251.815 359.347 251.274 359.464 250.746 359.376C234.648 356.772 221.604 361.014 211.968 371.976C207.573 377.068 204.25 382.994 202.2 389.4V392.4Z" fill="#4C3133"/>
<path d="M440.7 405.563C440.7 405.563 432.99 376.547 402.156 381.533C402.156 381.533 395.358 352.511 361.8 353.417C328.242 354.323 326.436 386.519 326.436 386.519C326.436 386.519 297.87 385.613 296.052 410.099L440.7 409.643V405.563Z" fill="white"/>
<path d="M296.052 412.2C295.764 412.2 295.479 412.14 295.215 412.026C294.951 411.911 294.713 411.744 294.516 411.534C294.32 411.32 294.169 411.07 294.073 410.796C293.977 410.523 293.938 410.233 293.958 409.944C295.608 387.672 317.772 384.816 324.558 384.468C325.335 379.128 327.086 373.977 329.724 369.27C334.23 361.356 343.446 351.816 361.758 351.324C379.968 350.838 390.522 358.926 396.192 365.802C399.467 369.781 401.996 374.32 403.656 379.2C419.448 377.25 429.156 384.084 434.574 390.3C438.289 394.576 441.066 399.584 442.728 405C442.775 405.176 442.8 405.357 442.8 405.54V409.62C442.8 410.176 442.58 410.709 442.187 411.102C441.794 411.496 441.262 411.718 440.706 411.72L296.064 412.2H296.052ZM325.896 388.614C322.35 388.614 301.356 389.406 298.41 407.994L438.6 407.55V405.858C437.748 402.954 429.888 379.17 402.492 383.604C401.964 383.696 401.422 383.582 400.975 383.286C400.529 382.991 400.213 382.535 400.092 382.014C398.635 377.001 396.155 372.345 392.808 368.34C385.446 359.478 375 355.2 361.86 355.518C348.72 355.836 339.138 361.2 333.36 371.352C330.713 376.06 329.068 381.265 328.53 386.64C328.5 387.187 328.258 387.7 327.854 388.07C327.45 388.441 326.917 388.638 326.37 388.62L325.896 388.614Z" fill="#4C3133"/>
<path d="M233.7 364.499C238.671 364.499 242.7 360.47 242.7 355.499C242.7 350.528 238.671 346.499 233.7 346.499C228.729 346.499 224.7 350.528 224.7 355.499C224.7 360.47 228.729 364.499 233.7 364.499Z" fill="white"/>
<path d="M233.7 366.599C231.505 366.599 229.359 365.948 227.533 364.729C225.708 363.509 224.285 361.775 223.445 359.747C222.605 357.719 222.385 355.487 222.813 353.334C223.242 351.181 224.299 349.203 225.851 347.651C227.403 346.098 229.381 345.041 231.534 344.613C233.688 344.184 235.92 344.404 237.948 345.244C239.976 346.084 241.71 347.507 242.929 349.333C244.149 351.158 244.8 353.304 244.8 355.499C244.797 358.442 243.626 361.264 241.545 363.345C239.464 365.426 236.643 366.596 233.7 366.599ZM233.7 348.599C232.335 348.599 231.001 349.004 229.867 349.762C228.732 350.52 227.847 351.598 227.325 352.859C226.803 354.12 226.666 355.507 226.933 356.846C227.199 358.184 227.856 359.413 228.821 360.378C229.786 361.343 231.015 362.001 232.354 362.267C233.692 362.533 235.08 362.396 236.34 361.874C237.601 361.352 238.679 360.468 239.437 359.333C240.195 358.198 240.6 356.864 240.6 355.499C240.598 353.67 239.871 351.916 238.577 350.622C237.284 349.328 235.529 348.601 233.7 348.599V348.599Z" fill="#4C3133"/>
<path d="M191.4 241.499C201.507 241.499 209.7 233.306 209.7 223.199C209.7 213.093 201.507 204.899 191.4 204.899C181.293 204.899 173.1 213.093 173.1 223.199C173.1 233.306 181.293 241.499 191.4 241.499Z" fill="white"/>
<path d="M191.4 243.6C187.365 243.6 183.421 242.403 180.066 240.162C176.712 237.92 174.097 234.734 172.553 231.007C171.009 227.279 170.605 223.177 171.392 219.22C172.179 215.263 174.122 211.628 176.975 208.775C179.828 205.922 183.463 203.979 187.42 203.192C191.377 202.405 195.479 202.809 199.207 204.353C202.934 205.897 206.12 208.511 208.362 211.866C210.604 215.221 211.8 219.165 211.8 223.2C211.8 228.61 209.651 233.799 205.825 237.625C201.999 241.451 196.81 243.6 191.4 243.6ZM191.4 207C188.196 207 185.064 207.95 182.4 209.73C179.736 211.51 177.659 214.04 176.433 217C175.207 219.961 174.886 223.218 175.511 226.36C176.136 229.503 177.679 232.389 179.945 234.655C182.21 236.921 185.097 238.463 188.24 239.089C191.382 239.714 194.639 239.393 197.599 238.167C200.56 236.941 203.09 234.864 204.87 232.2C206.65 229.536 207.6 226.404 207.6 223.2C207.6 218.903 205.893 214.783 202.855 211.745C199.817 208.707 195.697 207 191.4 207Z" fill="#4C3133"/>
<path d="M474.3 288.299C479.436 288.299 483.6 284.135 483.6 278.999C483.6 273.863 479.436 269.699 474.3 269.699C469.164 269.699 465 273.863 465 278.999C465 284.135 469.164 288.299 474.3 288.299Z" fill="white"/>
<path d="M474.3 290.4C472.045 290.4 469.841 289.731 467.967 288.478C466.092 287.226 464.631 285.445 463.768 283.362C462.905 281.279 462.679 278.987 463.119 276.776C463.559 274.564 464.645 272.533 466.239 270.939C467.833 269.344 469.865 268.259 472.076 267.819C474.287 267.379 476.58 267.605 478.663 268.467C480.746 269.33 482.526 270.791 483.779 272.666C485.031 274.541 485.7 276.745 485.7 279C485.7 282.023 484.499 284.923 482.361 287.061C480.223 289.199 477.324 290.4 474.3 290.4V290.4ZM474.3 271.8C472.876 271.8 471.484 272.222 470.3 273.013C469.116 273.804 468.193 274.929 467.648 276.244C467.103 277.56 466.961 279.008 467.238 280.404C467.516 281.801 468.202 283.084 469.209 284.091C470.216 285.098 471.499 285.783 472.895 286.061C474.292 286.339 475.74 286.196 477.055 285.652C478.371 285.107 479.495 284.184 480.287 283C481.078 281.816 481.5 280.424 481.5 279C481.5 277.09 480.741 275.259 479.391 273.908C478.041 272.558 476.21 271.8 474.3 271.8Z" fill="#4C3133"/>
<path d="M425.4 396.3C431.199 396.3 435.9 391.599 435.9 385.8C435.9 380.001 431.199 375.3 425.4 375.3C419.601 375.3 414.9 380.001 414.9 385.8C414.9 391.599 419.601 396.3 425.4 396.3Z" fill="white"/>
<path d="M425.4 398.4C422.908 398.4 420.472 397.661 418.4 396.277C416.328 394.892 414.713 392.924 413.759 390.622C412.806 388.32 412.556 385.786 413.042 383.342C413.528 380.898 414.728 378.653 416.491 376.891C418.253 375.129 420.498 373.928 422.942 373.442C425.386 372.956 427.92 373.206 430.222 374.159C432.524 375.113 434.492 376.728 435.877 378.8C437.261 380.872 438 383.308 438 385.8C438 389.142 436.673 392.347 434.31 394.71C431.947 397.073 428.742 398.4 425.4 398.4ZM425.4 377.4C423.739 377.4 422.115 377.893 420.733 378.816C419.352 379.739 418.275 381.051 417.639 382.586C417.004 384.121 416.837 385.81 417.161 387.439C417.486 389.068 418.286 390.565 419.46 391.74C420.635 392.915 422.132 393.715 423.761 394.039C425.391 394.363 427.08 394.197 428.615 393.561C430.149 392.925 431.461 391.848 432.384 390.467C433.307 389.086 433.8 387.462 433.8 385.8C433.8 383.572 432.915 381.436 431.34 379.861C429.764 378.285 427.628 377.4 425.4 377.4Z" fill="#4C3133"/>
</svg>
