<svg width="600" height="600" viewBox="0 0 600 600" fill="none" xmlns="http://www.w3.org/2000/svg">
<path d="M280.418 443.948C284.903 430.005 235.135 401.525 169.259 380.336C103.382 359.147 46.3432 353.274 41.8585 367.217C37.3738 381.16 87.1417 409.64 153.018 430.828C218.895 452.017 275.934 457.891 280.418 443.948Z" fill="#F0F0F0"/>
<path d="M28.134 364.302C27.9158 364.304 27.6989 364.269 27.492 364.2C27.2293 364.116 26.9857 363.981 26.7752 363.803C26.5647 363.625 26.3915 363.407 26.2655 363.162C26.1395 362.916 26.0632 362.649 26.041 362.374C26.0188 362.099 26.051 361.822 26.136 361.56C29.178 352.086 42.6 346.8 64.92 346.296C65.1958 346.29 65.4701 346.338 65.7273 346.437C65.9845 346.537 66.2195 346.687 66.419 346.877C66.6184 347.068 66.7784 347.296 66.8898 347.548C67.0011 347.8 67.0617 348.072 67.068 348.348C67.0743 348.624 67.0262 348.898 66.9265 349.155C66.8268 349.412 66.6774 349.647 66.4869 349.847C66.2963 350.046 66.0683 350.206 65.816 350.318C65.5636 350.429 65.2918 350.49 65.016 350.496C44.934 350.952 32.544 355.344 30.132 362.844C29.9969 363.268 29.7305 363.637 29.3713 363.899C29.012 364.162 28.5787 364.303 28.134 364.302Z" fill="#F0F0F0"/>
<path d="M69.786 410.514C69.3587 410.519 68.94 410.393 68.586 410.154L60.828 404.874C60.3907 404.551 60.0955 404.072 60.0043 403.536C59.9132 403 60.0333 402.45 60.3394 402.001C60.6455 401.552 61.1137 401.239 61.6457 401.128C62.1776 401.017 62.7319 401.117 63.192 401.406L70.95 406.68C71.3216 406.934 71.6018 407.3 71.7494 407.725C71.8969 408.151 71.904 408.612 71.7696 409.041C71.6352 409.471 71.3664 409.846 71.0028 410.111C70.6391 410.376 70.2 410.517 69.75 410.514H69.786Z" fill="#F0F0F0"/>
<path d="M52.2421 398.646C51.8102 398.639 51.3911 398.499 51.0421 398.244C31.5841 384.138 22.9801 371.448 26.1661 361.56C26.2426 361.288 26.3731 361.035 26.5497 360.815C26.7264 360.595 26.9455 360.413 27.1942 360.279C27.4428 360.146 27.7158 360.064 27.9969 360.038C28.2779 360.012 28.5612 360.044 28.8299 360.13C29.0986 360.216 29.3471 360.356 29.5606 360.54C29.7741 360.725 29.9483 360.951 30.0726 361.204C30.197 361.457 30.269 361.733 30.2843 362.015C30.2997 362.297 30.2582 362.579 30.1621 362.844C27.6661 370.644 36.1621 382.278 53.5081 394.848C53.8666 395.109 54.1333 395.477 54.2701 395.898C54.4068 396.32 54.4066 396.774 54.2694 397.196C54.1322 397.617 53.8651 397.985 53.5063 398.245C53.1475 398.506 52.7155 398.646 52.2721 398.646H52.2421Z" fill="#F0F0F0"/>
<path d="M243.228 464.478H243.072C216.36 462.522 183.504 455.604 150.558 445.008C150.295 444.923 150.052 444.788 149.841 444.61C149.631 444.431 149.457 444.213 149.331 443.968C149.205 443.722 149.128 443.454 149.106 443.179C149.083 442.904 149.115 442.628 149.199 442.365C149.283 442.102 149.419 441.858 149.597 441.648C149.776 441.437 149.994 441.264 150.239 441.138C150.485 441.012 150.752 440.935 151.027 440.912C151.303 440.89 151.579 440.921 151.842 441.006C184.482 451.506 216.99 458.358 243.378 460.29C243.654 460.3 243.925 460.364 244.176 460.478C244.427 460.593 244.653 460.756 244.841 460.958C245.029 461.16 245.176 461.397 245.272 461.655C245.368 461.914 245.413 462.189 245.403 462.465C245.393 462.741 245.329 463.012 245.215 463.263C245.1 463.514 244.937 463.74 244.735 463.928C244.533 464.116 244.296 464.262 244.037 464.359C243.779 464.455 243.504 464.5 243.228 464.49V464.478Z" fill="#F0F0F0"/>
<path d="M257.856 465.048H255.498C254.941 465.041 254.41 464.813 254.021 464.414C253.632 464.015 253.418 463.478 253.425 462.921C253.432 462.364 253.66 461.833 254.059 461.444C254.458 461.055 254.995 460.841 255.552 460.848C260.274 460.914 264.708 460.782 268.752 460.458C269.309 460.413 269.861 460.591 270.287 460.952C270.713 461.314 270.978 461.83 271.023 462.387C271.068 462.944 270.891 463.496 270.529 463.922C270.167 464.348 269.651 464.613 269.094 464.658C265.596 464.904 261.834 465.048 257.856 465.048Z" fill="#F0F0F0"/>
<path d="M474.483 451.721C537.356 423.926 583.555 390.604 577.672 377.296C571.788 363.988 516.05 375.733 453.178 403.529C390.305 431.325 344.106 464.646 349.989 477.954C355.873 491.262 411.611 479.517 474.483 451.721Z" fill="#F0F0F0"/>
<path d="M361.284 495.3H361.2C347.544 494.7 339.102 490.95 336.108 484.176C331.272 473.244 342.264 456.618 367.056 437.376C367.496 437.034 368.054 436.881 368.607 436.95C369.16 437.019 369.663 437.305 370.005 437.745C370.347 438.185 370.501 438.743 370.431 439.296C370.362 439.849 370.076 440.352 369.636 440.694C347.184 458.136 336.09 473.766 339.948 482.502C342.216 487.626 349.626 490.602 361.386 491.124C361.943 491.136 362.473 491.369 362.858 491.771C363.243 492.173 363.453 492.712 363.441 493.269C363.429 493.826 363.197 494.355 362.794 494.741C362.392 495.126 361.853 495.336 361.296 495.324L361.284 495.3Z" fill="#F0F0F0"/>
<path d="M380.772 432.048C380.324 432.049 379.887 431.907 379.525 431.642C379.163 431.378 378.896 431.004 378.762 430.576C378.628 430.148 378.634 429.689 378.78 429.265C378.926 428.841 379.203 428.475 379.572 428.22C385.53 424.128 391.992 420 398.772 415.95C399.247 415.705 399.798 415.65 400.312 415.796C400.826 415.943 401.265 416.281 401.539 416.74C401.813 417.199 401.902 417.745 401.787 418.268C401.672 418.79 401.362 419.248 400.92 419.55C394.2 423.552 387.81 427.626 381.93 431.67C381.589 431.906 381.187 432.037 380.772 432.048Z" fill="#F0F0F0"/>
<path d="M423.21 485.262C422.704 485.265 422.213 485.084 421.829 484.754C421.445 484.424 421.193 483.966 421.12 483.465C421.047 482.963 421.158 482.453 421.431 482.027C421.705 481.6 422.124 481.288 422.61 481.146C442.236 475.368 461.454 468.288 480.138 459.954C498.799 451.774 516.897 442.366 534.312 431.79C534.549 431.646 534.811 431.55 535.084 431.508C535.358 431.465 535.637 431.477 535.906 431.543C536.175 431.608 536.428 431.726 536.651 431.889C536.875 432.053 537.063 432.258 537.207 432.495C537.351 432.731 537.447 432.994 537.489 433.267C537.532 433.54 537.52 433.819 537.454 434.088C537.389 434.357 537.271 434.61 537.108 434.834C536.944 435.057 536.739 435.246 536.502 435.39C518.932 446.057 500.674 455.547 481.848 463.8C462.994 472.207 443.601 479.348 423.798 485.178C423.608 485.235 423.409 485.263 423.21 485.262V485.262Z" fill="#F0F0F0"/>
<path d="M522.9 345.27C529.789 345.27 535.374 339.685 535.374 332.796C535.374 325.907 529.789 320.322 522.9 320.322C516.011 320.322 510.426 325.907 510.426 332.796C510.426 339.685 516.011 345.27 522.9 345.27Z" fill="#F0F0F0"/>
<path d="M117.69 461.214C120.394 461.214 122.586 459.022 122.586 456.318C122.586 453.614 120.394 451.422 117.69 451.422C114.986 451.422 112.794 453.614 112.794 456.318C112.794 459.022 114.986 461.214 117.69 461.214Z" fill="#F0F0F0"/>
<path d="M558.816 361.212C561.818 361.212 564.252 358.778 564.252 355.776C564.252 352.774 561.818 350.34 558.816 350.34C555.814 350.34 553.38 352.774 553.38 355.776C553.38 358.778 555.814 361.212 558.816 361.212Z" fill="#F0F0F0"/>
<path d="M57.546 315.054C61.7942 315.054 65.238 311.61 65.238 307.362C65.238 303.114 61.7942 299.67 57.546 299.67C53.2978 299.67 49.854 303.114 49.854 307.362C49.854 311.61 53.2978 315.054 57.546 315.054Z" fill="#F0F0F0"/>
<path d="M543.474 430.608C543.02 430.609 542.578 430.464 542.214 430.193C541.85 429.922 541.583 429.54 541.454 429.105C541.325 428.67 541.341 428.205 541.498 427.779C541.656 427.353 541.947 426.99 542.328 426.744C547.026 423.69 551.52 420.6 555.684 417.558C556.135 417.229 556.697 417.093 557.248 417.179C557.799 417.265 558.293 417.566 558.621 418.017C558.95 418.467 559.086 419.03 559 419.58C558.914 420.131 558.613 420.625 558.162 420.954C553.962 424.038 549.378 427.17 544.614 430.266C544.275 430.487 543.879 430.606 543.474 430.608V430.608Z" fill="#F0F0F0"/>
<path d="M187.278 358.23C187.278 364.305 189.692 370.132 193.988 374.428C198.284 378.724 204.111 381.138 210.186 381.138H456C462.076 381.138 467.903 378.724 472.199 374.428C476.495 370.132 478.908 364.305 478.908 358.23V195.114H187.308L187.278 358.23Z" fill="white"/>
<path d="M268.908 381.138H456C462.076 381.138 467.902 378.725 472.198 374.428C476.495 370.132 478.908 364.306 478.908 358.23V195.114H187.308V358.23C187.308 364.306 189.722 370.132 194.018 374.428C198.314 378.725 204.141 381.138 210.216 381.138" fill="white"/>
<path d="M456 383.244H268.908C268.351 383.244 267.817 383.023 267.423 382.629C267.029 382.235 266.808 381.701 266.808 381.144C266.808 380.587 267.029 380.053 267.423 379.659C267.817 379.265 268.351 379.044 268.908 379.044H456C461.518 379.038 466.808 376.842 470.709 372.94C474.61 369.038 476.803 363.748 476.808 358.23V197.214H189.408V358.23C189.413 363.748 191.606 369.038 195.507 372.94C199.408 376.842 204.698 379.038 210.216 379.044C210.773 379.044 211.307 379.265 211.701 379.659C212.095 380.053 212.316 380.587 212.316 381.144C212.316 381.701 212.095 382.235 211.701 382.629C211.307 383.023 210.773 383.244 210.216 383.244C203.585 383.236 197.228 380.598 192.539 375.908C187.851 371.219 185.214 364.861 185.208 358.23V195.114C185.208 194.557 185.429 194.023 185.823 193.629C186.217 193.235 186.751 193.014 187.308 193.014H478.908C479.465 193.014 479.999 193.235 480.393 193.629C480.787 194.023 481.008 194.557 481.008 195.114V358.23C481.002 364.861 478.365 371.219 473.677 375.908C468.988 380.598 462.631 383.236 456 383.244Z" fill="#4C3133"/>
<path d="M255.288 383.244L241.68 383.088C241.123 383.088 240.589 382.866 240.195 382.473C239.801 382.079 239.58 381.545 239.58 380.988C239.58 380.431 239.801 379.897 240.195 379.503C240.589 379.109 241.123 378.888 241.68 378.888V378.888L255.288 379.044C255.845 379.044 256.379 379.265 256.773 379.659C257.167 380.053 257.388 380.587 257.388 381.144C257.388 381.701 257.167 382.235 256.773 382.629C256.379 383.022 255.845 383.244 255.288 383.244Z" fill="#4C3133"/>
<path d="M456 165.042H210.186C204.111 165.042 198.284 167.455 193.988 171.752C189.692 176.048 187.278 181.874 187.278 187.95V195.114H478.878V187.95C478.878 181.88 476.469 176.057 472.179 171.762C467.89 167.467 462.071 165.05 456 165.042V165.042Z" fill="white"/>
<path d="M478.902 197.214H187.302C186.745 197.214 186.211 196.993 185.817 196.599C185.423 196.205 185.202 195.671 185.202 195.114V187.95C185.21 181.32 187.847 174.964 192.536 170.275C197.224 165.587 203.58 162.95 210.21 162.942H456C462.63 162.95 468.987 165.587 473.675 170.275C478.363 174.964 481 181.32 481.008 187.95V195.114C481.009 195.39 480.955 195.664 480.849 195.92C480.744 196.175 480.589 196.407 480.393 196.603C480.197 196.798 479.964 196.952 479.709 197.057C479.453 197.162 479.179 197.215 478.902 197.214ZM189.378 193.014H476.778V187.95C476.772 182.438 474.582 177.154 470.687 173.254C466.793 169.354 461.512 167.156 456 167.142H210.186C204.669 167.148 199.381 169.343 195.48 173.243C191.579 177.144 189.384 182.433 189.378 187.95V193.014Z" fill="#4C3133"/>
<path d="M420.156 188.124H408.972C408.415 188.124 407.881 187.903 407.487 187.509C407.093 187.115 406.872 186.581 406.872 186.024C406.872 185.467 407.093 184.933 407.487 184.539C407.881 184.145 408.415 183.924 408.972 183.924H420.156C420.713 183.924 421.247 184.145 421.641 184.539C422.035 184.933 422.256 185.467 422.256 186.024C422.256 186.581 422.035 187.115 421.641 187.509C421.247 187.903 420.713 188.124 420.156 188.124V188.124Z" fill="#4C3133"/>
<path d="M441.138 174.834H429.948V186.024H441.138V174.834Z" fill="#FFD900"/>
<path d="M441.138 188.124H429.948C429.391 188.124 428.857 187.903 428.463 187.509C428.069 187.115 427.848 186.581 427.848 186.024V174.834C427.848 174.277 428.069 173.743 428.463 173.349C428.857 172.955 429.391 172.734 429.948 172.734H441.138C441.695 172.734 442.229 172.955 442.623 173.349C443.017 173.743 443.238 174.277 443.238 174.834V186C443.241 186.278 443.189 186.553 443.085 186.811C442.981 187.068 442.827 187.303 442.632 187.5C442.436 187.698 442.204 187.855 441.947 187.962C441.691 188.069 441.416 188.124 441.138 188.124V188.124ZM432.048 183.924H439.038V176.934H432.048V183.924Z" fill="#4C3133"/>
<path d="M462.816 188.124C462.541 188.127 462.269 188.075 462.015 187.972C461.76 187.869 461.529 187.717 461.334 187.524L450.144 176.34C449.75 175.942 449.53 175.404 449.533 174.844C449.536 174.284 449.761 173.749 450.159 173.355C450.557 172.961 451.095 172.741 451.655 172.744C452.214 172.747 452.75 172.972 453.144 173.37L464.334 184.554C464.63 184.848 464.832 185.224 464.914 185.633C464.997 186.042 464.955 186.467 464.796 186.852C464.636 187.238 464.366 187.568 464.019 187.8C463.672 188.031 463.263 188.155 462.846 188.154L462.816 188.124Z" fill="#4C3133"/>
<path d="M451.626 188.124C451.352 188.127 451.079 188.075 450.825 187.972C450.571 187.869 450.339 187.717 450.144 187.524C449.948 187.329 449.793 187.098 449.687 186.843C449.581 186.588 449.526 186.315 449.526 186.039C449.526 185.763 449.581 185.49 449.687 185.235C449.793 184.98 449.948 184.748 450.144 184.554L461.334 173.37C461.529 173.173 461.761 173.016 462.017 172.909C462.272 172.802 462.546 172.746 462.823 172.744C463.101 172.743 463.375 172.796 463.632 172.901C463.889 173.006 464.122 173.16 464.319 173.355C464.516 173.55 464.673 173.782 464.78 174.037C464.887 174.293 464.943 174.567 464.945 174.844C464.946 175.121 464.893 175.396 464.788 175.653C464.683 175.909 464.529 176.143 464.334 176.34L453.144 187.524C452.944 187.721 452.707 187.876 452.446 187.979C452.185 188.082 451.906 188.131 451.626 188.124V188.124Z" fill="#4C3133"/>
<path d="M256.098 221.688H218.46C212.439 221.688 207.558 226.569 207.558 232.59V270.228C207.558 276.249 212.439 281.13 218.46 281.13H256.098C262.119 281.13 267 276.249 267 270.228V232.59C267 226.569 262.119 221.688 256.098 221.688Z" fill="#F0F0F0"/>
<path d="M458.232 347.22H349.914C344.871 347.22 340.782 351.308 340.782 356.352V357.672C340.782 362.715 344.871 366.804 349.914 366.804H458.232C463.276 366.804 467.364 362.715 467.364 357.672V356.352C467.364 351.308 463.276 347.22 458.232 347.22Z" fill="#F0F0F0"/>
<path d="M458.232 312.954H349.914C344.871 312.954 340.782 317.042 340.782 322.086V323.406C340.782 328.449 344.871 332.538 349.914 332.538H458.232C463.276 332.538 467.364 328.449 467.364 323.406V322.086C467.364 317.042 463.276 312.954 458.232 312.954Z" fill="#F0F0F0"/>
<path d="M458.232 278.688H349.914C344.871 278.688 340.782 282.777 340.782 287.82V289.14C340.782 294.183 344.871 298.272 349.914 298.272H458.232C463.276 298.272 467.364 294.183 467.364 289.14V287.82C467.364 282.777 463.276 278.688 458.232 278.688Z" fill="#F0F0F0"/>
<path d="M148.368 128.52C148.368 128.52 142.2 117.042 153.6 107.844C165 98.6461 183.09 104.958 183.09 104.958C183.09 104.958 184.398 119.19 175.074 121.914C175.074 121.914 172.926 117.414 168.822 120.066C164.718 122.718 170.334 125.346 170.334 125.346C170.334 125.346 162.816 135.36 148.368 128.52Z" fill="#E2E2E0"/>
<path d="M157.986 132.996C154.333 132.933 150.741 132.051 147.474 130.416C147.066 130.225 146.732 129.907 146.52 129.51C146.448 129.378 139.698 116.382 152.292 106.212C164.442 96.39 183.012 102.702 183.798 102.972C184.178 103.108 184.512 103.349 184.76 103.668C185.008 103.987 185.159 104.37 185.196 104.772C185.256 105.42 186.534 120.768 175.674 123.936C175.196 124.076 174.683 124.041 174.228 123.838C173.773 123.634 173.405 123.276 173.19 122.826C172.866 122.179 172.324 121.667 171.66 121.38C171.363 121.337 171.06 121.355 170.77 121.433C170.48 121.512 170.209 121.649 169.974 121.836C169.809 121.941 169.654 122.061 169.512 122.196C170.005 122.716 170.588 123.141 171.234 123.45C171.516 123.583 171.765 123.777 171.963 124.018C172.161 124.259 172.303 124.541 172.379 124.843C172.455 125.146 172.463 125.462 172.402 125.767C172.34 126.073 172.212 126.362 172.026 126.612C170.284 128.625 168.128 130.238 165.705 131.34C163.281 132.442 160.648 133.007 157.986 132.996V132.996ZM149.946 126.93C158.748 130.812 164.46 127.788 167.058 125.67C166.056 124.855 165.41 123.683 165.258 122.4C165.18 121.302 165.546 119.706 167.706 118.308C168.435 117.78 169.272 117.419 170.157 117.251C171.041 117.083 171.952 117.112 172.824 117.336C174.014 117.696 175.073 118.394 175.872 119.346C180.618 116.832 181.098 109.596 181.074 106.536C176.838 105.372 163.566 102.51 154.944 109.476C146.322 116.442 148.98 124.638 149.946 126.93Z" fill="#B9B9B9"/>
<path d="M139.134 144.318C138.897 144.317 138.662 144.276 138.438 144.198C137.913 144.013 137.482 143.628 137.241 143.126C136.999 142.625 136.966 142.048 137.148 141.522C137.508 140.496 146.244 116.256 169.878 108.894C170.403 108.749 170.965 108.814 171.443 109.075C171.922 109.336 172.28 109.773 172.442 110.294C172.604 110.814 172.557 111.378 172.312 111.864C172.066 112.351 171.641 112.723 171.126 112.902C149.526 119.628 141.198 142.68 141.126 142.902C140.982 143.316 140.713 143.675 140.356 143.928C139.999 144.182 139.572 144.318 139.134 144.318Z" fill="#B9B9B9"/>
<path d="M393.498 92.7898C387.744 97.6318 389.898 107.676 395.76 112.392C401.622 117.108 409.596 117.954 417.084 118.626L428.142 119.61C420.618 114.246 421.26 102.81 416.316 95.0098C412.002 88.1938 403.008 84.7258 395.232 86.8918" fill="#E2E2E0"/>
<path d="M428.148 121.71H427.956L416.898 120.726C409.818 120.096 400.998 119.31 394.44 114.036C392.493 112.411 390.913 110.39 389.806 108.108C388.699 105.826 388.09 103.335 388.02 100.8C387.978 96.8939 389.442 93.4859 392.148 91.1999C392.574 90.841 393.126 90.6663 393.681 90.7141C394.237 90.762 394.75 91.0284 395.109 91.4549C395.468 91.8813 395.642 92.4329 395.595 92.9882C395.547 93.5435 395.28 94.057 394.854 94.4159C393.97 95.2056 393.274 96.1838 392.818 97.2784C392.362 98.3729 392.158 99.5558 392.22 100.74C392.272 102.66 392.732 104.548 393.569 106.277C394.406 108.007 395.601 109.539 397.074 110.772C402.642 115.248 410.754 115.968 417.27 116.55L422.826 117.042C420.678 113.802 419.544 109.92 418.434 106.122C417.414 102.636 416.364 99.0359 414.54 96.1559C410.73 90.1559 402.672 87.0239 395.796 88.9559C395.527 89.0421 395.243 89.0731 394.961 89.0469C394.68 89.0208 394.406 88.9381 394.158 88.8037C393.909 88.6694 393.69 88.4862 393.514 88.2652C393.337 88.0441 393.208 87.7898 393.132 87.5174C393.056 87.2449 393.037 86.96 393.074 86.6798C393.111 86.3995 393.204 86.1296 393.348 85.8863C393.492 85.643 393.684 85.4313 393.912 85.2639C394.139 85.0964 394.399 84.9767 394.674 84.9119C399.025 83.7684 403.626 84.0221 407.826 85.6373C412.025 87.2524 415.61 90.1471 418.074 93.9119C420.21 97.2899 421.35 101.178 422.448 104.94C423.978 110.178 425.448 115.14 429.342 117.918C429.703 118.175 429.973 118.54 430.114 118.961C430.255 119.381 430.259 119.836 430.126 120.259C429.993 120.682 429.729 121.052 429.373 121.316C429.016 121.58 428.585 121.724 428.142 121.728L428.148 121.71Z" fill="#B9B9B9"/>
<path d="M411.264 110.25C410.869 110.251 410.481 110.139 410.148 109.926C405.205 106.766 400.953 102.639 397.647 97.7925C394.341 92.9462 392.05 87.481 390.912 81.7259C390.847 81.4502 390.839 81.1642 390.888 80.8852C390.936 80.6062 391.041 80.3399 391.195 80.1024C391.349 79.8648 391.55 79.6609 391.785 79.503C392.02 79.345 392.285 79.2362 392.563 79.1832C392.841 79.1301 393.127 79.1339 393.404 79.1943C393.681 79.2546 393.942 79.3704 394.173 79.5345C394.404 79.6986 394.599 79.9077 394.747 80.1492C394.895 80.3908 394.993 80.6597 395.034 80.9399C396.063 86.1276 398.13 91.0538 401.111 95.4224C404.092 99.7911 407.925 103.512 412.38 106.362C412.765 106.605 413.06 106.966 413.222 107.391C413.384 107.816 413.403 108.282 413.277 108.719C413.152 109.156 412.887 109.54 412.524 109.814C412.161 110.088 411.719 110.237 411.264 110.238V110.25Z" fill="#B9B9B9"/>
<path d="M357.414 265.104L345.858 267.408C333.999 269.759 321.692 267.309 311.638 260.595C301.584 253.882 294.604 243.454 292.23 231.6L284.538 193.014C282.187 181.157 284.635 168.852 291.346 158.798C298.057 148.744 308.482 141.763 320.334 139.386L331.884 137.082C343.741 134.731 356.046 137.18 366.1 143.89C376.154 150.601 383.135 161.026 385.512 172.878L393.21 211.464C395.564 223.323 393.117 235.631 386.406 245.688C379.695 255.744 369.268 262.727 357.414 265.104ZM323.502 155.304C315.864 156.833 309.146 161.331 304.822 167.81C300.497 174.288 298.921 182.218 300.438 189.858L308.136 228.444C309.665 236.081 314.163 242.8 320.642 247.124C327.12 251.448 335.05 253.025 342.69 251.508L354.24 249.204C361.877 247.675 368.596 243.177 372.92 236.698C377.244 230.22 378.821 222.29 377.304 214.65L369.6 176.064C368.07 168.429 363.574 161.713 357.098 157.389C350.623 153.065 342.696 151.486 335.058 153L323.502 155.304Z" fill="#FFD900"/>
<path d="M336.93 270.396C325.901 270.376 315.219 266.541 306.697 259.542C298.174 252.543 292.335 242.81 290.172 231.996L282.48 193.44C280.019 181.037 282.579 168.165 289.598 157.647C296.618 147.13 307.522 139.827 319.92 137.34L331.476 135.036C343.883 132.572 356.76 135.131 367.283 142.151C377.805 149.172 385.112 160.08 387.6 172.482L395.292 211.068C397.751 223.471 395.189 236.344 388.169 246.861C381.149 257.378 370.244 264.681 357.846 267.168V267.168L346.296 269.466C343.212 270.086 340.075 270.397 336.93 270.396V270.396ZM340.8 138.312C337.939 138.313 335.085 138.596 332.28 139.158L320.724 141.462C309.425 143.733 299.488 150.391 293.09 159.977C286.693 169.563 284.357 181.295 286.596 192.6L294.288 231.186C296.556 242.492 303.216 252.437 312.808 258.839C322.399 265.24 334.139 267.575 345.45 265.332L357 263.046L357.414 265.104L357 263.046C368.306 260.781 378.252 254.122 384.654 244.531C391.056 234.94 393.391 223.201 391.146 211.89L383.454 173.304C381.474 163.445 376.145 154.575 368.37 148.197C360.596 141.819 350.855 138.327 340.8 138.312V138.312ZM336.9 254.184C329.629 254.161 322.59 251.627 316.972 247.011C311.355 242.395 307.504 235.98 306.072 228.852L298.38 190.266C296.756 182.08 298.447 173.584 303.08 166.642C307.713 159.701 314.911 154.881 323.094 153.24V153.24L334.644 150.936C342.83 149.314 351.325 151.005 358.266 155.638C365.207 160.271 370.027 167.468 371.67 175.65L379.368 214.236C380.991 222.422 379.301 230.918 374.667 237.86C370.034 244.801 362.837 249.621 354.654 251.262L343.098 253.566C341.057 253.976 338.981 254.183 336.9 254.184V254.184ZM323.916 157.362C316.825 158.783 310.587 162.959 306.571 168.973C302.556 174.988 301.09 182.35 302.496 189.444L310.2 228.03C311.621 235.121 315.797 241.359 321.811 245.374C327.826 249.39 335.188 250.856 342.282 249.45L353.838 247.146C360.928 245.722 367.164 241.545 371.179 235.529C375.193 229.514 376.658 222.152 375.252 215.058L367.56 176.472C366.137 169.381 361.96 163.144 355.944 159.129C349.929 155.114 342.566 153.65 335.472 155.058L323.916 157.362Z" fill="#4C3133"/>
<path d="M387.335 198.77L295.178 217.151C284.62 219.257 277.768 229.524 279.874 240.082L294.132 311.568C296.238 322.126 306.505 328.978 317.063 326.872L409.22 308.491C419.778 306.385 426.63 296.119 424.524 285.56L410.266 214.075C408.16 203.516 397.893 196.664 387.335 198.77Z" fill="#F0F0F0"/>
<path d="M391.164 198.408C395.669 198.414 400.033 199.979 403.515 202.838C406.996 205.698 409.38 209.674 410.262 214.092L424.518 285.6C425.524 290.67 424.476 295.932 421.603 300.228C418.731 304.525 414.269 307.506 409.2 308.514L317.058 326.892C315.795 327.141 314.511 327.268 313.224 327.27C308.719 327.264 304.355 325.699 300.873 322.84C297.392 319.98 295.008 316.004 294.126 311.586L279.87 240.096C278.868 235.027 279.92 229.768 282.794 225.474C285.669 221.18 290.131 218.204 295.2 217.2L387.36 198.822C388.62 198.568 389.902 198.439 391.188 198.438L391.164 198.408ZM391.188 194.238C389.626 194.239 388.069 194.394 386.538 194.7L294.378 213.078C288.217 214.309 282.796 217.936 279.308 223.162C275.82 228.389 274.551 234.786 275.778 240.948L290.034 312.438C290.64 315.491 291.842 318.394 293.571 320.982C295.3 323.569 297.523 325.79 300.111 327.518C302.7 329.246 305.604 330.446 308.657 331.05C311.71 331.654 314.852 331.65 317.904 331.038L410.064 312.66C416.222 311.423 421.638 307.795 425.125 302.57C428.612 297.346 429.885 290.951 428.664 284.79L414.384 213.276C413.307 207.914 410.412 203.087 406.188 199.613C401.964 196.139 396.669 194.23 391.2 194.208L391.188 194.238Z" fill="#4C3133"/>
<path d="M323.022 314.292C320.511 314.793 317.926 314.794 315.415 314.296C312.904 313.798 310.515 312.81 308.386 311.389C306.256 309.968 304.428 308.141 303.004 306.013C301.581 303.884 300.591 301.497 300.09 298.986L285.834 227.502C285.488 225.757 285.381 223.972 285.516 222.198C283.142 224.463 281.38 227.292 280.393 230.421C279.405 233.551 279.226 236.879 279.87 240.096L294.126 311.586C295.138 316.655 298.122 321.114 302.421 323.984C306.72 326.854 311.982 327.9 317.052 326.892L409.2 308.514C413.365 307.676 417.143 305.5 419.959 302.318C422.775 299.137 424.475 295.122 424.8 290.886C422.144 293.442 418.813 295.186 415.2 295.914L323.022 314.292Z" fill="#DEDFDF"/>
<path d="M359.064 254.592L356.136 239.91L341.196 242.91L344.142 257.682C342.05 259.784 340.691 262.504 340.266 265.439C339.841 268.374 340.373 271.368 341.783 273.977C343.193 276.586 345.405 278.672 348.093 279.925C350.781 281.178 353.801 281.531 356.706 280.933C359.611 280.335 362.246 278.817 364.22 276.605C366.195 274.392 367.404 271.602 367.668 268.648C367.933 265.694 367.239 262.734 365.689 260.205C364.14 257.677 361.816 255.715 359.064 254.61V254.592Z" fill="#4C3133"/>
<path d="M356.136 239.91L359.064 254.592C361.808 255.708 364.12 257.678 365.658 260.21C367.196 262.741 367.878 265.701 367.604 268.65C367.33 271.6 366.115 274.383 364.137 276.588C362.159 278.793 359.524 280.304 356.622 280.896C355.729 281.072 354.82 281.16 353.91 281.16C351.192 281.15 348.538 280.337 346.281 278.825C344.023 277.312 342.262 275.167 341.219 272.658C340.176 270.148 339.897 267.387 340.417 264.719C340.937 262.052 342.233 259.598 344.142 257.664L341.196 242.892L356.136 239.892V239.91ZM356.136 235.692C355.858 235.693 355.581 235.722 355.308 235.776L340.368 238.776C339.277 238.995 338.317 239.637 337.699 240.563C337.082 241.489 336.857 242.622 337.074 243.714L339.6 256.476C337.374 259.389 336.091 262.913 335.922 266.575C335.754 270.237 336.707 273.864 338.655 276.969C340.604 280.075 343.454 282.512 346.825 283.953C350.196 285.395 353.926 285.773 357.518 285.037C361.109 284.301 364.39 282.486 366.922 279.834C369.454 277.182 371.116 273.821 371.685 270.199C372.254 266.577 371.704 262.868 370.108 259.568C368.512 256.267 365.946 253.533 362.754 251.73L360.234 239.094C360.045 238.141 359.532 237.283 358.781 236.666C358.031 236.049 357.09 235.711 356.118 235.71L356.136 235.692Z" fill="#4C3133"/>
<path d="M348.714 245.33L312.139 252.625L318.165 282.84L354.741 275.545L348.714 245.33Z" fill="white"/>
<path d="M318.156 284.952C317.671 284.952 317.201 284.784 316.826 284.476C316.451 284.169 316.193 283.741 316.098 283.266L310.098 253.05C309.99 252.504 310.103 251.938 310.413 251.476C310.722 251.013 311.202 250.693 311.748 250.584L348.348 243.288C348.618 243.234 348.897 243.233 349.168 243.287C349.439 243.341 349.696 243.447 349.926 243.6C350.155 243.754 350.353 243.951 350.506 244.18C350.659 244.41 350.766 244.667 350.82 244.938L356.82 275.148C356.874 275.419 356.874 275.697 356.821 275.968C356.767 276.239 356.661 276.496 356.507 276.726C356.354 276.956 356.157 277.153 355.928 277.306C355.698 277.46 355.441 277.566 355.17 277.62L318.6 284.916C318.453 284.941 318.305 284.953 318.156 284.952ZM314.604 254.292L319.8 280.386L352.254 273.912L347.058 247.8L314.604 254.292Z" fill="#4C3133"/>
<path d="M295.256 308.905C312.82 305.402 324.077 287.611 320.399 269.169C316.72 250.727 299.5 238.617 281.935 242.12C264.37 245.624 253.113 263.414 256.792 281.856C260.47 300.298 277.691 312.408 295.256 308.905Z" fill="white"/>
<path d="M289.2 311.616C272.928 311.616 258.186 299.556 254.742 282.276C252.831 272.982 254.582 263.309 259.632 255.276C262.051 251.38 265.243 248.022 269.011 245.408C272.778 242.794 277.042 240.98 281.538 240.078C300.204 236.352 318.57 249.228 322.47 268.776C324.38 278.071 322.626 287.744 317.574 295.776C315.156 299.672 311.966 303.031 308.199 305.645C304.432 308.259 300.169 310.072 295.674 310.974C293.543 311.403 291.374 311.618 289.2 311.616V311.616ZM288 243.63C286.1 243.63 284.205 243.816 282.342 244.188C278.405 244.983 274.674 246.576 271.377 248.869C268.08 251.162 265.287 254.106 263.172 257.52C258.696 264.641 257.148 273.217 258.852 281.454C261.894 296.736 274.884 307.416 289.188 307.416C291.086 307.416 292.979 307.23 294.84 306.858C298.781 306.067 302.519 304.477 305.821 302.185C309.123 299.893 311.921 296.948 314.04 293.532C318.512 286.407 320.06 277.831 318.36 269.592C315.282 254.31 302.298 243.63 288 243.63Z" fill="#4C3133"/>
<path d="M277.14 286.326C281.616 286.326 285.246 282.697 285.246 278.22C285.246 273.743 281.616 270.114 277.14 270.114C272.663 270.114 269.034 273.743 269.034 278.22C269.034 282.697 272.663 286.326 277.14 286.326Z" fill="white"/>
<path d="M277.116 288.432C275.186 288.426 273.297 287.872 271.669 286.836C270.041 285.799 268.741 284.322 267.919 282.576C267.097 280.83 266.787 278.886 267.026 276.971C267.265 275.056 268.042 273.248 269.267 271.757C270.492 270.266 272.115 269.153 273.947 268.547C275.78 267.942 277.747 267.868 279.619 268.336C281.491 268.803 283.193 269.793 284.525 271.189C285.858 272.584 286.767 274.33 287.148 276.222V276.222C287.41 277.536 287.411 278.889 287.149 280.204C286.888 281.518 286.371 282.769 285.627 283.883C284.882 284.998 283.925 285.954 282.811 286.699C281.696 287.443 280.446 287.961 279.132 288.222C278.469 288.36 277.793 288.43 277.116 288.432V288.432ZM277.152 272.232C276.749 272.232 276.347 272.273 275.952 272.352C274.986 272.547 274.083 272.977 273.323 273.604C272.563 274.231 271.969 275.035 271.593 275.946C271.217 276.857 271.072 277.846 271.169 278.826C271.267 279.807 271.604 280.748 272.152 281.567C272.699 282.386 273.44 283.058 274.309 283.523C275.177 283.988 276.147 284.232 277.132 284.233C278.118 284.234 279.088 283.993 279.958 283.53C280.828 283.067 281.57 282.398 282.12 281.58C282.561 280.925 282.868 280.189 283.021 279.414C283.175 278.639 283.172 277.842 283.014 277.068V277.068C282.745 275.707 282.012 274.482 280.941 273.6C279.87 272.718 278.527 272.235 277.14 272.232H277.152Z" fill="#4C3133"/>
<path d="M319.914 268.896C319.394 268.894 318.894 268.698 318.51 268.348C318.125 267.998 317.885 267.518 317.834 267.001C317.783 266.484 317.926 265.966 318.235 265.548C318.544 265.13 318.997 264.841 319.506 264.738L351.306 258.396C351.58 258.331 351.865 258.322 352.143 258.369C352.422 258.416 352.687 258.519 352.925 258.671C353.162 258.824 353.367 259.022 353.526 259.255C353.685 259.488 353.795 259.751 353.85 260.028C353.906 260.305 353.905 260.59 353.847 260.866C353.79 261.142 353.678 261.404 353.517 261.636C353.356 261.868 353.15 262.065 352.912 262.215C352.673 262.366 352.406 262.467 352.128 262.512L320.328 268.854C320.192 268.882 320.053 268.896 319.914 268.896Z" fill="#4C3133"/>
<path d="M262.566 317.508C257.244 308.58 257.22 302.034 262.872 298.632C268.524 295.23 277.41 307.962 277.41 307.962C277.41 307.962 286.536 306.012 291.654 292.104C291.654 292.104 302.316 281.784 304.128 299.304C304.128 299.304 313.974 295.968 311.676 308.52C311.676 308.52 321.498 306.582 318.474 320.52C315.45 334.458 285.714 356.358 262.566 317.508Z" fill="#C5E6F1"/>
<path d="M292.8 341.484C284.514 341.484 272.07 337.596 260.742 318.588C252.684 305.052 257.928 299.148 261.774 296.832C267.864 293.166 275.442 301.92 278.172 305.478C280.602 304.428 286.092 301.086 289.668 291.378C289.776 291.082 289.95 290.815 290.178 290.598C290.706 290.088 295.452 285.666 300.132 287.37C303.132 288.462 305.016 291.57 305.898 296.826C306.907 296.701 307.931 296.78 308.91 297.058C309.888 297.336 310.8 297.808 311.592 298.446C313.5 300.09 314.322 302.766 314.052 306.408C315.802 306.598 317.437 307.374 318.69 308.61C321.132 311.1 321.744 315.258 320.49 320.964C318.69 329.112 309.228 339.15 296.982 341.148C295.599 341.371 294.201 341.483 292.8 341.484V341.484ZM264.354 316.434C275.928 335.856 288.126 338.34 296.322 337.002C306.522 335.34 314.922 326.91 316.404 320.076C317.292 315.978 317.046 312.954 315.708 311.574C314.37 310.194 312.072 310.578 312.042 310.584C311.707 310.643 311.363 310.62 311.039 310.518C310.715 310.416 310.42 310.238 310.179 309.998C309.938 309.757 309.759 309.463 309.656 309.139C309.553 308.815 309.53 308.471 309.588 308.136C310.188 304.878 309.93 302.568 308.856 301.626C307.5 300.426 304.8 301.284 304.776 301.296C304.476 301.393 304.158 301.422 303.845 301.381C303.532 301.339 303.232 301.228 302.968 301.055C302.704 300.882 302.482 300.653 302.318 300.383C302.154 300.113 302.053 299.81 302.022 299.496C301.542 294.876 300.33 291.888 298.692 291.294C297.054 290.7 294.462 292.422 293.424 293.298C287.928 307.698 278.244 309.9 277.824 309.99C277.42 310.075 277 310.04 276.616 309.889C276.232 309.737 275.901 309.476 275.664 309.138C272.526 304.656 266.628 298.782 263.934 300.402C259.476 303.09 259.62 308.478 264.348 316.41L264.354 316.434Z" fill="#4C3133"/>
<path d="M304.128 299.304C304.128 299.304 304.68 308.406 297.618 312.504Z" fill="#C5E6F1"/>
<path d="M297.6 314.586C297.137 314.587 296.687 314.435 296.32 314.155C295.952 313.874 295.688 313.479 295.567 313.033C295.447 312.586 295.478 312.112 295.654 311.685C295.831 311.257 296.144 310.9 296.544 310.668C302.364 307.302 302.016 299.502 302.01 299.424C301.977 298.867 302.167 298.32 302.538 297.903C302.909 297.486 303.43 297.234 303.987 297.201C304.544 297.168 305.091 297.358 305.508 297.729C305.925 298.1 306.177 298.621 306.21 299.178C306.21 299.598 306.744 309.624 298.656 314.304C298.335 314.489 297.971 314.587 297.6 314.586V314.586Z" fill="#4C3133"/>
<path d="M311.676 308.52C311.676 308.52 311.538 316.92 304.476 321.69Z" fill="#C5E6F1"/>
<path d="M304.464 323.79C304.012 323.795 303.571 323.655 303.205 323.389C302.84 323.124 302.57 322.748 302.435 322.317C302.3 321.885 302.308 321.422 302.457 320.996C302.607 320.57 302.89 320.203 303.264 319.95C309.36 315.828 309.546 308.55 309.552 308.484C309.561 307.927 309.79 307.396 310.19 307.009C310.59 306.621 311.128 306.408 311.685 306.417C312.242 306.426 312.772 306.655 313.16 307.055C313.548 307.455 313.761 307.993 313.752 308.55C313.752 308.94 313.506 318.096 305.616 323.43C305.276 323.662 304.875 323.787 304.464 323.79Z" fill="#4C3133"/>
<path d="M410.532 268.632C410.043 268.632 409.57 268.461 409.194 268.148C408.818 267.836 408.564 267.402 408.474 266.922L400.074 222.162C399.975 221.616 400.096 221.053 400.41 220.596C400.725 220.139 401.208 219.825 401.753 219.722C402.298 219.62 402.862 219.738 403.321 220.05C403.78 220.362 404.097 220.843 404.202 221.388L412.602 266.148C412.704 266.695 412.584 267.261 412.269 267.72C411.954 268.179 411.469 268.494 410.922 268.596C410.794 268.623 410.663 268.635 410.532 268.632Z" fill="#4C3133"/>
<path d="M413.682 285.768C413.185 285.768 412.705 285.592 412.326 285.271C411.947 284.95 411.694 284.505 411.612 284.016L410.214 275.616C410.157 275.339 410.157 275.054 410.213 274.777C410.269 274.501 410.38 274.238 410.54 274.005C410.7 273.773 410.905 273.574 411.143 273.423C411.381 273.271 411.647 273.169 411.926 273.123C412.204 273.076 412.489 273.086 412.764 273.153C413.038 273.219 413.296 273.34 413.523 273.508C413.75 273.676 413.94 273.889 414.083 274.132C414.226 274.376 414.318 274.646 414.354 274.926L415.752 283.326C415.84 283.872 415.709 284.432 415.386 284.881C415.063 285.331 414.576 285.635 414.03 285.726C413.915 285.752 413.799 285.766 413.682 285.768Z" fill="#4C3133"/>
<path d="M220.2 260.568C211.572 251.004 199.152 246.348 186.912 244.968C167.503 242.838 147.997 248.015 132.198 259.488C113.85 272.796 101.148 293.952 94.7523 316.812C91.731 327.839 89.9203 339.161 89.3523 350.58C88.8444 360.552 89.0449 370.547 89.9523 380.49C108.654 392.358 138.66 405.75 173.502 416.958C188.034 421.632 202.104 425.508 215.172 428.526C207.666 413.34 208.272 394.848 212.172 378.006C212.538 376.452 212.922 374.91 213.336 373.392C218.526 354.318 227.136 336.432 231.054 316.992C234.972 297.552 233.208 274.998 220.2 260.568Z" fill="#C5E6F1"/>
<path d="M178.272 244.452C181.153 244.451 184.032 244.615 186.894 244.944C199.134 246.348 211.554 251.004 220.182 260.544C233.208 274.974 234.972 297.492 231.066 316.944C227.16 336.396 218.538 354.276 213.348 373.344C212.934 374.862 212.55 376.404 212.184 377.958C208.266 394.8 207.66 413.292 215.184 428.478C202.116 425.478 188.046 421.584 173.514 416.91C138.672 405.702 108.666 392.31 89.9641 380.442C89.0568 370.499 88.8563 360.504 89.3641 350.532C89.9321 339.113 91.7428 327.79 94.7641 316.764C101.16 293.904 113.862 272.748 132.21 259.44C145.618 249.725 161.744 244.477 178.302 244.44L178.272 244.452ZM178.302 240.24C160.86 240.302 143.877 245.834 129.744 256.056C111.666 269.166 97.8061 290.328 90.7441 315.648C87.6464 326.969 85.7915 338.593 85.2121 350.316C84.6944 360.485 84.8949 370.679 85.8121 380.82C85.8689 381.463 86.0733 382.085 86.4094 382.637C86.7455 383.188 87.2043 383.655 87.7501 384C107.514 396.546 138.324 410.004 172.266 420.924C186.582 425.526 200.718 429.45 214.266 432.588C215.041 432.768 215.852 432.723 216.603 432.46C217.354 432.196 218.015 431.725 218.508 431.101C219.002 430.477 219.308 429.725 219.391 428.933C219.474 428.142 219.33 427.343 218.976 426.63C211.242 410.988 213.264 392.052 216.318 378.924C216.678 377.388 217.056 375.888 217.446 374.46C219.594 366.564 222.414 358.674 225.144 351.06C228.96 340.374 232.914 329.328 235.23 317.79C237.408 306.924 237.732 296.01 236.16 286.218C234.318 274.71 230.004 265.134 223.338 257.754C212.634 245.892 197.892 241.974 187.416 240.774C184.395 240.426 181.356 240.251 178.314 240.252L178.302 240.24Z" fill="#4C3133"/>
<path d="M129.276 384.294C121.134 380.447 114.316 374.271 109.685 366.548C105.054 358.825 102.818 349.902 103.26 340.908V340.614C103.822 329.195 105.632 317.871 108.66 306.846C114.3 286.686 124.86 267.846 139.86 254.568C137.219 256.053 134.665 257.688 132.21 259.464C113.862 272.772 101.16 293.928 94.764 316.788C91.7427 327.815 89.932 339.137 89.364 350.556C88.8561 360.528 89.0566 370.523 89.964 380.466C108.666 392.334 138.672 405.726 173.514 416.934C188.046 421.608 202.116 425.484 215.184 428.502C212.925 423.861 211.331 418.924 210.45 413.838C202.968 411.792 195.276 409.512 187.44 406.992C165.6 399.978 145.71 392.106 129.276 384.294Z" fill="#81C4D4"/>
<path d="M517.86 376.2C517.273 373.764 516.558 371.361 515.718 369C511.374 356.826 503.034 345.642 491.334 340.14C479.634 334.638 464.472 335.814 455.166 344.79C445.518 354.096 444.03 368.73 442.17 381.99C441.282 388.332 440.172 394.662 438.798 400.938C434.55 420.384 427.824 439.284 417.648 456.27C429.756 452.328 442.848 447.402 456.348 441.606C481.968 430.608 504.348 418.494 520.086 407.634L520.464 407.25C520.734 396.858 520.302 386.298 517.86 376.2Z" fill="#C5E6F1"/>
<path d="M476.286 336.804C481.485 336.8 486.622 337.937 491.334 340.134C503.034 345.636 511.374 356.82 515.718 368.994C516.558 371.355 517.273 373.758 517.86 376.194C520.302 386.268 520.734 396.828 520.464 407.232L520.086 407.616C504.336 418.476 481.968 430.59 456.348 441.588C442.854 447.384 429.756 452.31 417.648 456.252C427.848 439.266 434.55 420.366 438.798 400.92C440.172 394.644 441.282 388.32 442.17 381.972C444.03 368.694 445.518 354.06 455.166 344.772C460.764 339.372 468.48 336.792 476.286 336.792V336.804ZM476.286 332.592C466.908 332.592 458.37 335.844 452.25 341.748C442.122 351.516 440.112 366.15 438.336 379.056L438 381.42C437.106 387.792 435.99 394.062 434.682 400.02C430.212 420.498 423.282 438.69 414.03 454.092C413.648 454.729 413.442 455.456 413.432 456.199C413.423 456.942 413.611 457.674 413.977 458.321C414.343 458.967 414.874 459.505 415.516 459.88C416.158 460.254 416.887 460.452 417.63 460.452C418.071 460.453 418.508 460.382 418.926 460.242C431.526 456.138 444.684 451.158 457.986 445.452C482.952 434.73 505.842 422.526 522.456 411.072C522.686 410.914 522.899 410.733 523.092 410.532L523.47 410.142C524.196 409.387 524.613 408.387 524.64 407.34C524.976 394.44 524.112 384.234 521.928 375.204C521.303 372.616 520.544 370.063 519.654 367.554C514.542 353.232 504.87 341.838 493.104 336.3C487.832 333.842 482.085 332.57 476.268 332.574L476.286 332.592Z" fill="#4C3133"/>
<path d="M517.86 376.2C517.273 373.764 516.558 371.361 515.718 369C511.374 356.826 503.028 345.642 491.334 340.14C490.284 339.643 489.209 339.203 488.112 338.82C497.334 344.82 504.03 354.558 507.762 365.022C508.602 367.383 509.317 369.786 509.904 372.222L509.976 372.522C511.921 380.854 511.101 389.593 507.642 397.419C504.183 405.244 498.271 411.732 490.8 415.902C477.852 423.204 461.436 432.03 448.368 437.64C439.422 441.48 430.662 444.93 422.244 447.972C420.788 450.772 419.248 453.542 417.624 456.282C429.732 452.34 442.824 447.414 456.324 441.618C481.944 430.62 504.324 418.506 520.062 407.646L520.44 407.262C520.734 396.858 520.302 386.298 517.86 376.2Z" fill="#81C4D4"/>
<path d="M232.152 288.126C205.704 291.408 178.188 279.726 160.704 288.126C143.22 296.526 147.414 323.094 170.49 322.398C190.632 321.798 217.158 322.776 228.69 326.754C229.584 323.526 230.394 320.268 231.054 316.962C233.03 307.479 233.401 297.732 232.152 288.126V288.126Z" fill="#81C4D4"/>
<path d="M198.066 224.46C178.356 223.26 148.464 231.93 133.5 240.258C126.9 243.93 115.812 250.776 108.6 253.026C101.388 255.276 92.0583 253.452 88.8783 246.6C87.0123 242.574 87.7503 237.678 89.9643 233.832C92.1783 229.986 95.7123 227.052 99.4563 224.664C108.912 218.666 119.958 215.663 131.148 216.048C134.148 216.162 138.222 215.754 138.672 212.772C139.02 210.474 136.644 208.668 134.4 208.056C132.156 207.444 129.648 207.39 127.8 205.986C125.436 204.186 124.998 200.586 126.234 197.886C127.47 195.186 129.972 193.194 132.702 192.036C167.4 177.336 198.066 224.46 198.066 224.46Z" fill="#C5E6F1"/>
<path d="M102.558 256.02C96.1323 256.02 89.6823 253.326 86.9583 247.482C84.9183 243.084 85.3563 237.588 88.1283 232.782C90.2103 229.182 93.5283 225.936 98.3283 222.894C108.148 216.675 119.615 213.559 131.232 213.954C133.596 214.044 136.416 213.702 136.602 212.454C136.746 211.536 135.264 210.468 133.854 210.084C133.254 209.928 132.654 209.808 132.006 209.682C130.236 209.34 128.232 208.95 126.528 207.654C123.528 205.38 122.592 200.808 124.32 197.01C125.67 194.052 128.358 191.61 131.886 190.098C146.832 183.768 163.374 187.572 179.73 201.12C187.408 207.572 194.17 215.041 199.83 223.32C200.042 223.646 200.159 224.025 200.169 224.414C200.178 224.802 200.079 225.186 199.883 225.522C199.687 225.858 199.402 226.133 199.059 226.316C198.716 226.5 198.328 226.584 197.94 226.56C179.082 225.408 149.4 233.82 134.52 242.088C133.2 242.826 131.694 243.69 130.08 244.614C123.456 248.4 115.2 253.164 109.2 255.03C107.048 255.688 104.809 256.022 102.558 256.02V256.02ZM129.162 218.112C119.042 218.132 109.134 221.018 100.584 226.434C96.3843 229.104 93.5223 231.87 91.7823 234.876C89.7243 238.476 89.3403 242.604 90.7863 245.718C93.4863 251.544 101.646 252.99 107.976 251.016C113.514 249.294 121.542 244.68 127.992 240.978C129.624 240.036 131.142 239.178 132.474 238.422C147.078 230.298 174.198 222.342 193.908 222.222C188.973 215.622 183.3 209.607 177 204.294C161.742 191.694 147.126 188.214 133.548 193.968C130.992 195.054 129.078 196.752 128.148 198.768C127.362 200.496 127.488 203.118 129.078 204.324C130.002 205.026 131.364 205.29 132.804 205.566C133.506 205.704 134.232 205.842 134.958 206.04C138.24 206.934 141.288 209.64 140.76 213.096C140.46 215.112 138.804 218.454 131.082 218.16C130.438 218.128 129.798 218.112 129.162 218.112Z" fill="#4C3133"/>
<path d="M182.4 280.44C181.884 280.44 181.387 280.251 181.002 279.907C180.617 279.564 180.372 279.091 180.313 278.579C180.254 278.066 180.386 277.55 180.684 277.129C180.981 276.707 181.424 276.41 181.926 276.294L191.016 274.194C191.559 274.068 192.129 274.163 192.602 274.458C193.074 274.753 193.41 275.223 193.536 275.766C193.662 276.309 193.567 276.879 193.272 277.352C192.977 277.824 192.507 278.16 191.964 278.286L182.874 280.386C182.719 280.421 182.56 280.44 182.4 280.44V280.44Z" fill="#4C3133"/>
<path d="M236.928 285.336C236.603 285.335 236.283 285.259 235.992 285.114L224.802 279.516C224.551 279.396 224.325 279.226 224.14 279.018C223.954 278.81 223.812 278.567 223.722 278.303C223.631 278.039 223.594 277.76 223.613 277.482C223.631 277.203 223.705 276.932 223.83 276.682C223.954 276.433 224.128 276.21 224.339 276.029C224.551 275.847 224.796 275.709 225.062 275.623C225.327 275.537 225.607 275.505 225.885 275.529C226.163 275.552 226.433 275.631 226.68 275.76L237.87 281.352C238.292 281.566 238.629 281.915 238.828 282.343C239.026 282.772 239.075 283.255 238.967 283.715C238.858 284.174 238.598 284.584 238.228 284.878C237.859 285.172 237.401 285.333 236.928 285.336V285.336Z" fill="#4C3133"/>
<path d="M188.328 306.66C190.645 306.66 192.522 304.782 192.522 302.466C192.522 300.15 190.645 298.272 188.328 298.272C186.012 298.272 184.134 300.15 184.134 302.466C184.134 304.782 186.012 306.66 188.328 306.66Z" fill="#4C3133"/>
<path d="M225.39 307.356C227.707 307.356 229.584 305.478 229.584 303.162C229.584 300.846 227.707 298.968 225.39 298.968C223.074 298.968 221.196 300.846 221.196 303.162C221.196 305.478 223.074 307.356 225.39 307.356Z" fill="#4C3133"/>
<path d="M483.691 251.7C489.185 251.7 493.639 247.246 493.639 241.752C493.639 236.258 489.185 231.804 483.691 231.804C478.197 231.804 473.743 236.258 473.743 241.752C473.743 247.246 478.197 251.7 483.691 251.7Z" fill="white"/>
<path d="M483.691 231.804C485.658 231.804 487.581 232.387 489.217 233.481C490.853 234.574 492.128 236.127 492.881 237.945C493.634 239.763 493.831 241.763 493.447 243.693C493.064 245.622 492.116 247.395 490.725 248.786C489.334 250.178 487.561 251.125 485.631 251.509C483.702 251.893 481.701 251.696 479.884 250.943C478.066 250.19 476.512 248.915 475.419 247.279C474.326 245.643 473.742 243.72 473.742 241.752C473.742 239.114 474.791 236.583 476.656 234.718C478.522 232.852 481.052 231.804 483.691 231.804V231.804ZM483.691 227.604C480.892 227.604 478.157 228.434 475.83 229.988C473.504 231.543 471.69 233.753 470.619 236.338C469.549 238.923 469.268 241.768 469.814 244.512C470.36 247.257 471.708 249.778 473.686 251.756C475.665 253.735 478.186 255.082 480.93 255.628C483.675 256.174 486.519 255.894 489.105 254.823C491.69 253.752 493.9 251.939 495.454 249.612C497.009 247.286 497.838 244.55 497.838 241.752C497.834 238.001 496.342 234.405 493.689 231.753C491.037 229.101 487.441 227.609 483.691 227.604V227.604Z" fill="#4C3133"/>
<path d="M230.076 169.152C235.571 169.152 240.024 164.698 240.024 159.204C240.024 153.71 235.571 149.256 230.076 149.256C224.582 149.256 220.128 153.71 220.128 159.204C220.128 164.698 224.582 169.152 230.076 169.152Z" fill="white"/>
<path d="M230.076 149.256C232.044 149.255 233.968 149.837 235.605 150.93C237.241 152.022 238.517 153.575 239.271 155.393C240.025 157.211 240.223 159.211 239.84 161.141C239.457 163.071 238.51 164.844 237.119 166.236C235.728 167.628 233.955 168.576 232.025 168.96C230.095 169.345 228.095 169.148 226.277 168.395C224.459 167.642 222.905 166.367 221.811 164.731C220.718 163.095 220.134 161.172 220.134 159.204C220.134 156.567 221.182 154.037 223.046 152.172C224.91 150.306 227.439 149.258 230.076 149.256V149.256ZM230.076 145.056C227.277 145.051 224.539 145.877 222.21 147.429C219.88 148.98 218.063 151.188 216.988 153.773C215.914 156.358 215.63 159.203 216.173 161.949C216.716 164.695 218.062 167.219 220.04 169.2C222.017 171.181 224.538 172.53 227.283 173.078C230.028 173.626 232.874 173.347 235.461 172.277C238.048 171.207 240.259 169.394 241.814 167.067C243.37 164.739 244.2 162.003 244.2 159.204C244.197 155.453 242.706 151.856 240.053 149.203C237.4 146.551 233.804 145.059 230.052 145.056H230.076Z" fill="#4C3133"/>
<path d="M265.548 432.156C263.952 432.16 262.39 431.689 261.06 430.805C259.731 429.92 258.693 428.661 258.08 427.187C257.466 425.713 257.304 424.089 257.613 422.523C257.923 420.956 258.69 419.517 259.818 418.386C260.946 417.256 262.384 416.485 263.949 416.172C265.515 415.86 267.139 416.018 268.615 416.629C270.09 417.239 271.352 418.273 272.239 419.601C273.127 420.928 273.6 422.489 273.6 424.086C273.599 426.223 272.751 428.272 271.241 429.784C269.732 431.297 267.685 432.15 265.548 432.156V432.156ZM265.548 420.222C264.783 420.222 264.034 420.449 263.398 420.875C262.761 421.3 262.265 421.905 261.972 422.613C261.68 423.32 261.603 424.098 261.753 424.849C261.903 425.6 262.272 426.29 262.814 426.831C263.356 427.372 264.046 427.74 264.797 427.888C265.548 428.037 266.327 427.96 267.034 427.666C267.741 427.372 268.345 426.875 268.769 426.238C269.194 425.601 269.42 424.852 269.418 424.086C269.417 423.061 269.008 422.078 268.283 421.353C267.557 420.629 266.574 420.222 265.548 420.222V420.222Z" fill="#4C3133"/>
</svg>
