<svg width="600" height="600" viewBox="0 0 600 600" fill="none" xmlns="http://www.w3.org/2000/svg">
<path d="M432.336 274.2H158.562C146 274.2 135.816 284.384 135.816 296.946V448.968C135.816 461.53 146 471.714 158.562 471.714H432.336C444.898 471.714 455.082 461.53 455.082 448.968V296.946C455.082 284.384 444.898 274.2 432.336 274.2Z" fill="#F0F0F0"/>
<path d="M432.33 274.2C438.363 274.2 444.148 276.596 448.414 280.862C452.68 285.128 455.076 290.913 455.076 296.946V448.968C455.076 455.001 452.68 460.786 448.414 465.052C444.148 469.318 438.363 471.714 432.33 471.714H158.562C152.529 471.714 146.744 469.318 142.478 465.052C138.212 460.786 135.816 455.001 135.816 448.968V296.946C135.816 293.959 136.404 291.001 137.547 288.241C138.69 285.482 140.366 282.974 142.478 280.862C144.59 278.75 147.098 277.075 149.857 275.931C152.617 274.788 155.575 274.2 158.562 274.2H432.33ZM432.33 270H158.562C151.42 270.014 144.574 272.858 139.524 277.908C134.474 282.958 131.63 289.804 131.616 296.946V448.968C131.63 456.11 134.474 462.956 139.524 468.006C144.574 473.056 151.42 475.9 158.562 475.914H432.33C439.472 475.9 446.318 473.056 451.368 468.006C456.418 462.956 459.262 456.11 459.276 448.968V296.946C459.262 289.804 456.418 282.958 451.368 277.908C446.318 272.858 439.472 270.014 432.33 270Z" fill="#4C3133"/>
<path d="M420.258 289.5H169.716C158.711 289.5 149.79 298.421 149.79 309.426V436.212C149.79 447.217 158.711 456.138 169.716 456.138H420.258C431.263 456.138 440.184 447.217 440.184 436.212V309.426C440.184 298.421 431.263 289.5 420.258 289.5Z" fill="white"/>
<path d="M420.258 458.238H169.716C163.874 458.232 158.274 455.907 154.144 451.775C150.014 447.643 147.693 442.042 147.69 436.2V309.426C147.696 303.586 150.019 297.987 154.148 293.858C158.278 289.729 163.876 287.406 169.716 287.4H420.258C426.098 287.406 431.696 289.729 435.826 293.858C439.955 297.987 442.278 303.586 442.284 309.426V436.2C442.281 442.042 439.96 447.643 435.83 451.775C431.7 455.907 426.1 458.232 420.258 458.238V458.238ZM169.716 291.6C164.99 291.606 160.46 293.486 157.118 296.828C153.776 300.17 151.896 304.7 151.89 309.426V436.2C151.896 440.926 153.776 445.456 157.118 448.798C160.46 452.139 164.99 454.02 169.716 454.026H420.258C424.984 454.02 429.514 452.139 432.856 448.798C436.197 445.456 438.078 440.926 438.084 436.2V309.426C438.078 304.7 436.197 300.17 432.856 296.828C429.514 293.486 424.984 291.606 420.258 291.6H169.716Z" fill="#4C3133"/>
<path d="M243.9 329.1H177.3C171.335 329.1 166.5 333.935 166.5 339.9C166.5 345.865 171.335 350.7 177.3 350.7H243.9C249.865 350.7 254.7 345.865 254.7 339.9C254.7 333.935 249.865 329.1 243.9 329.1Z" fill="#F0F0F0"/>
<path d="M244.2 366.6H177.6C171.635 366.6 166.8 371.435 166.8 377.4C166.8 383.365 171.635 388.2 177.6 388.2H244.2C250.165 388.2 255 383.365 255 377.4C255 371.435 250.165 366.6 244.2 366.6Z" fill="#F0F0F0"/>
<path d="M244.2 400.8H177.6C171.635 400.8 166.8 405.635 166.8 411.6C166.8 417.564 171.635 422.4 177.6 422.4H244.2C250.165 422.4 255 417.564 255 411.6C255 405.635 250.165 400.8 244.2 400.8Z" fill="#F0F0F0"/>
<path d="M411.156 378H357.45C352.639 378 348.738 381.899 348.738 386.709C348.738 391.519 352.639 395.418 357.45 395.418H411.156C415.968 395.418 419.868 391.519 419.868 386.709C419.868 381.899 415.968 378 411.156 378Z" fill="#F0F0F0"/>
<path d="M411.156 405.582H357.45C352.639 405.582 348.738 409.481 348.738 414.291C348.738 419.101 352.639 423 357.45 423H411.156C415.968 423 419.868 419.101 419.868 414.291C419.868 409.481 415.968 405.582 411.156 405.582Z" fill="#F0F0F0"/>
<path d="M384.6 369C401.168 369 414.6 355.569 414.6 339C414.6 322.431 401.168 309 384.6 309C368.031 309 354.6 322.431 354.6 339C354.6 355.569 368.031 369 384.6 369Z" fill="#F0F0F0"/>
<path d="M348.516 350.4H283.884C280.192 350.4 277.2 353.392 277.2 357.084V368.916C277.2 372.607 280.192 375.6 283.884 375.6H348.516C352.207 375.6 355.2 372.607 355.2 368.916V357.084C355.2 353.392 352.207 350.4 348.516 350.4Z" fill="#F0F0F0"/>
<path d="M104.4 468.9H484.2V469.266C484.2 472.909 482.753 476.402 480.177 478.978C477.602 481.553 474.108 483 470.466 483H118.134C114.491 483 110.998 481.553 108.423 478.978C105.847 476.402 104.4 472.909 104.4 469.266V468.9Z" fill="#F0F0F0"/>
<path d="M484.2 468.9V469.266C484.2 472.909 482.753 476.402 480.177 478.978C477.602 481.553 474.108 483 470.466 483H118.134C114.491 483 110.998 481.553 108.423 478.978C105.847 476.402 104.4 472.909 104.4 469.266V468.9H484.2ZM484.2 464.7H104.4C103.286 464.7 102.218 465.143 101.43 465.93C100.642 466.718 100.2 467.786 100.2 468.9V469.266C100.206 474.021 102.098 478.579 105.46 481.94C108.822 485.302 113.38 487.194 118.134 487.2H470.466C475.22 487.194 479.778 485.302 483.14 481.94C486.502 478.579 488.394 474.021 488.4 469.266V468.9C488.4 467.786 487.957 466.718 487.17 465.93C486.382 465.143 485.314 464.7 484.2 464.7V464.7Z" fill="#4C3133"/>
<path d="M121.734 477.6C118.977 477.599 116.283 476.769 114.004 475.218C111.725 473.666 109.965 471.465 108.954 468.9H104.4V469.266C104.4 472.908 105.847 476.402 108.423 478.977C110.998 481.553 114.491 483 118.134 483H470.466C473.286 482.999 476.037 482.131 478.347 480.514C480.656 478.896 482.413 476.607 483.378 473.958C480.845 476.304 477.518 477.605 474.066 477.6H121.734Z" fill="#E2E2E0"/>
<path d="M362.1 316.8H351.3C350.743 316.8 350.209 316.579 349.815 316.185C349.421 315.791 349.2 315.257 349.2 314.7C349.2 314.143 349.421 313.609 349.815 313.215C350.209 312.821 350.743 312.6 351.3 312.6H362.1C362.657 312.6 363.191 312.821 363.585 313.215C363.979 313.609 364.2 314.143 364.2 314.7C364.2 315.257 363.979 315.791 363.585 316.185C363.191 316.579 362.657 316.8 362.1 316.8V316.8Z" fill="#4C3133"/>
<path d="M104.52 374.454C104.52 374.454 92.79 377.202 86.82 365.82C80.85 354.438 90.42 340.62 90.42 340.62C90.42 340.62 103.62 342.468 104.154 350.82C104.154 350.82 99.612 351.678 101.154 355.62C102.696 359.562 106.272 355.452 106.272 355.452C106.272 355.452 113.784 363.822 104.52 374.454Z" fill="#E2E2E0"/>
<path d="M101.4 376.878C97.9848 376.916 94.6283 375.989 91.716 374.205C88.8038 372.421 86.4537 369.852 84.9359 366.792C78.4499 354.426 88.2299 340.05 88.6499 339.444C88.8715 339.125 89.1772 338.874 89.5331 338.718C89.889 338.562 90.2812 338.508 90.6659 338.562C91.2659 338.646 105.594 340.764 106.206 350.694C106.237 351.205 106.081 351.709 105.768 352.113C105.454 352.517 105.004 352.794 104.502 352.89C103.904 352.999 103.363 353.313 102.972 353.778C102.861 354.147 102.897 354.545 103.074 354.888C103.119 355.003 103.171 355.115 103.23 355.224C103.769 354.944 104.251 354.565 104.652 354.108C104.847 353.884 105.087 353.704 105.357 353.58C105.627 353.456 105.921 353.39 106.218 353.388V353.388C106.513 353.387 106.804 353.448 107.074 353.567C107.344 353.686 107.586 353.86 107.784 354.078C107.868 354.174 116.436 363.936 106.068 375.834C105.788 376.16 105.415 376.392 105 376.5C103.818 376.762 102.61 376.889 101.4 376.878ZM91.3919 343.008C89.4179 346.374 84.2819 356.526 88.6559 364.866C93.0839 373.308 101.052 372.876 103.38 372.546C108.48 366.312 107.1 361.146 105.78 358.626C104.796 359.302 103.598 359.592 102.414 359.442C101.394 359.268 100.014 358.602 99.1559 356.442C98.8197 355.704 98.6573 354.898 98.6812 354.086C98.7052 353.275 98.9147 352.48 99.2939 351.762C99.8564 350.792 100.691 350.008 101.694 349.506C100.284 345.426 94.1399 343.602 91.4159 342.984L91.3919 343.008Z" fill="#B9B9B9"/>
<path d="M115.032 387.078C114.654 387.078 114.283 386.976 113.958 386.784C113.094 386.268 92.7959 373.932 91.0619 352.542C91.0394 352.266 91.0715 351.989 91.1563 351.725C91.2411 351.462 91.3769 351.218 91.556 351.007C91.7352 350.796 91.9541 350.623 92.2003 350.496C92.4464 350.37 92.7151 350.294 92.9909 350.271C93.2667 350.249 93.5442 350.281 93.8075 350.366C94.0709 350.45 94.315 350.586 94.5259 350.765C94.7368 350.944 94.9103 351.163 95.0366 351.41C95.1629 351.656 95.2394 351.924 95.2619 352.2C96.8219 371.4 115.938 383.064 116.13 383.178C116.523 383.415 116.828 383.773 116.999 384.2C117.169 384.626 117.195 385.096 117.072 385.539C116.95 385.981 116.685 386.371 116.32 386.649C115.955 386.927 115.509 387.078 115.05 387.078H115.032Z" fill="#B9B9B9"/>
<path d="M490.584 248.532C495.384 252.876 503.658 249.9 506.994 244.38C510.33 238.86 510.156 231.984 509.874 225.534L509.454 216.018C505.752 223.032 495.966 223.818 489.888 228.876C487.273 231.162 485.436 234.206 484.632 237.585C483.828 240.964 484.096 244.509 485.4 247.728" fill="#E2E2E0"/>
<path d="M496.2 252.714C493.605 252.758 491.088 251.819 489.156 250.086C488.952 249.901 488.786 249.677 488.669 249.427C488.551 249.178 488.484 248.907 488.471 248.632C488.458 248.356 488.499 248.081 488.593 247.821C488.686 247.562 488.829 247.323 489.015 247.119C489.201 246.915 489.424 246.75 489.674 246.632C489.923 246.514 490.194 246.447 490.469 246.434C490.745 246.421 491.02 246.462 491.28 246.556C491.539 246.649 491.778 246.793 491.982 246.978C492.723 247.61 493.595 248.067 494.536 248.317C495.477 248.568 496.461 248.604 497.418 248.424C499.005 248.17 500.52 247.582 501.861 246.697C503.203 245.813 504.341 244.653 505.2 243.294C508.326 238.128 508.02 231.198 507.774 225.63L507.588 221.43C505.128 223.428 502.128 224.76 499.188 226.062C496.248 227.364 493.434 228.612 491.226 230.46C488.955 232.455 487.359 235.105 486.656 238.045C485.953 240.985 486.179 244.07 487.302 246.876C487.493 247.382 487.481 247.943 487.269 248.441C487.057 248.939 486.66 249.335 486.163 249.548C485.665 249.761 485.105 249.773 484.598 249.583C484.092 249.393 483.678 249.014 483.444 248.526C481.95 244.893 481.638 240.882 482.551 237.061C483.464 233.24 485.557 229.803 488.532 227.238C491.19 225.012 494.394 223.596 497.484 222.222C501.714 220.344 505.71 218.574 507.588 215.022C507.805 214.616 508.149 214.293 508.568 214.101C508.986 213.91 509.456 213.86 509.905 213.961C510.355 214.062 510.758 214.307 511.055 214.659C511.352 215.011 511.525 215.45 511.548 215.91L511.968 225.426C512.238 231.564 512.568 239.196 508.788 245.448C507.607 247.336 506.037 248.95 504.183 250.184C502.329 251.417 500.233 252.241 498.036 252.6C497.428 252.683 496.814 252.721 496.2 252.714V252.714Z" fill="#B9B9B9"/>
<path d="M480.912 252.384C480.415 252.38 479.935 252.201 479.558 251.877C479.181 251.553 478.93 251.107 478.851 250.616C478.771 250.126 478.867 249.623 479.123 249.196C479.378 248.77 479.776 248.448 480.246 248.286C484.503 246.835 488.423 244.539 491.77 241.534C495.117 238.529 497.822 234.879 499.722 230.802C499.962 230.309 500.386 229.929 500.902 229.744C501.419 229.559 501.988 229.583 502.487 229.812C502.986 230.041 503.375 230.456 503.571 230.969C503.768 231.481 503.756 232.051 503.538 232.554C501.395 237.151 498.345 241.268 494.571 244.657C490.798 248.046 486.378 250.638 481.578 252.276C481.363 252.347 481.138 252.384 480.912 252.384V252.384Z" fill="#B9B9B9"/>
<path d="M498.336 403.8C497.832 403.798 497.346 403.616 496.966 403.285C496.586 402.955 496.338 402.499 496.266 402L493.56 385.2C493.484 384.656 493.624 384.104 493.95 383.661C494.277 383.219 494.764 382.923 495.307 382.836C495.849 382.748 496.404 382.878 496.853 383.195C497.302 383.513 497.608 383.994 497.706 384.534L500.4 401.352C500.485 401.901 500.35 402.461 500.024 402.91C499.698 403.36 499.208 403.662 498.66 403.752C498.553 403.776 498.445 403.793 498.336 403.8Z" fill="#4C3133"/>
<path d="M488.688 397.105C488.167 397.105 487.665 396.912 487.278 396.563C486.892 396.214 486.649 395.734 486.596 395.216C486.544 394.698 486.686 394.178 486.995 393.759C487.304 393.34 487.757 393.05 488.268 392.947L504.468 389.599C504.742 389.532 505.026 389.521 505.305 389.566C505.583 389.611 505.849 389.712 506.088 389.863C506.326 390.014 506.532 390.211 506.693 390.443C506.853 390.674 506.965 390.936 507.023 391.212C507.08 391.488 507.081 391.773 507.026 392.05C506.971 392.326 506.86 392.589 506.701 392.822C506.542 393.055 506.338 393.254 506.101 393.406C505.863 393.558 505.598 393.661 505.32 393.709L489.12 397.063C488.977 397.088 488.833 397.103 488.688 397.105V397.105Z" fill="#4C3133"/>
<path d="M145.506 195.042C145.007 195.041 144.524 194.863 144.145 194.538C143.766 194.214 143.514 193.765 143.436 193.272L140.73 176.4C140.654 175.856 140.794 175.303 141.12 174.861C141.447 174.419 141.934 174.123 142.476 174.035C143.019 173.948 143.574 174.077 144.023 174.395C144.472 174.712 144.778 175.193 144.876 175.734L147.6 192.6C147.643 192.872 147.633 193.15 147.569 193.418C147.505 193.685 147.389 193.938 147.228 194.161C147.066 194.384 146.862 194.573 146.627 194.717C146.393 194.861 146.132 194.957 145.86 195C145.744 195.027 145.625 195.041 145.506 195.042V195.042Z" fill="#4C3133"/>
<path d="M135.864 188.358C135.343 188.36 134.839 188.168 134.451 187.82C134.064 187.471 133.82 186.991 133.767 186.472C133.713 185.954 133.855 185.434 134.164 185.014C134.473 184.594 134.927 184.304 135.438 184.2L151.638 180.852C152.184 180.74 152.752 180.849 153.217 181.156C153.682 181.462 154.007 181.941 154.119 182.487C154.231 183.033 154.122 183.601 153.815 184.066C153.509 184.531 153.03 184.856 152.484 184.968L136.284 188.316C136.146 188.344 136.005 188.358 135.864 188.358V188.358Z" fill="#4C3133"/>
<path d="M427.92 146.88C427.422 146.88 426.94 146.702 426.561 146.379C426.182 146.055 425.93 145.608 425.85 145.116L423.144 128.262C423.056 127.712 423.19 127.148 423.517 126.697C423.843 126.245 424.336 125.942 424.887 125.853C425.438 125.765 426.001 125.899 426.452 126.226C426.904 126.553 427.208 127.046 427.296 127.596L429.996 144.45C430.047 144.751 430.031 145.059 429.95 145.353C429.869 145.647 429.724 145.919 429.526 146.151C429.328 146.382 429.082 146.568 428.804 146.694C428.527 146.82 428.225 146.884 427.92 146.88V146.88Z" fill="#4C3133"/>
<path d="M418.278 140.196C417.757 140.198 417.253 140.006 416.866 139.658C416.478 139.309 416.234 138.829 416.181 138.31C416.127 137.792 416.269 137.272 416.578 136.852C416.887 136.432 417.341 136.142 417.852 136.038L434.052 132.69C434.598 132.577 435.166 132.686 435.632 132.992C436.098 133.298 436.423 133.776 436.536 134.322C436.649 134.868 436.54 135.436 436.234 135.902C435.928 136.368 435.45 136.693 434.904 136.806L418.704 140.154C418.564 140.183 418.421 140.197 418.278 140.196V140.196Z" fill="#4C3133"/>
<path d="M274.59 429.426C242.676 436.026 205.182 413.826 211.812 377.34C215.784 355.494 237.114 351.762 246.114 333.618C255.498 314.712 256.614 292.374 254.754 271.698C252.204 243.438 244.71 215.352 247.2 187.098C249.69 158.844 265.668 128.898 293.16 121.896C311.706 117.156 331.908 124.08 346.398 136.584C360.888 149.088 370.308 166.548 376.83 184.542C403.74 258.75 381.858 348.156 323.712 401.544C309.672 414.426 293.256 425.544 274.59 429.426Z" fill="#C5E6F1"/>
<path d="M305.292 120.384C320.136 120.384 335.028 126.756 346.398 136.584C360.888 149.094 370.308 166.548 376.83 184.542C403.746 258.75 381.858 348.156 323.712 401.544C309.672 414.438 293.256 425.544 274.59 429.438C270.808 430.218 266.956 430.608 263.094 430.602C234.408 430.602 205.968 409.53 211.812 377.352C215.784 355.506 237.114 351.774 246.114 333.63C255.498 314.724 256.614 292.386 254.754 271.71C252.204 243.45 244.71 215.364 247.2 187.11C249.69 158.856 265.668 128.91 293.16 121.908C297.125 120.903 301.201 120.399 305.292 120.408V120.384ZM305.292 116.208C300.851 116.2 296.427 116.746 292.122 117.834C278.28 121.374 266.232 130.506 257.28 144.234C249.432 156.288 244.362 171.378 243.012 186.726C241.308 206.1 244.212 225.474 246.972 244.212C248.328 253.362 249.738 262.812 250.572 272.082C252.78 296.64 250.092 316.164 242.352 331.758C238.866 338.784 233.244 343.47 227.292 348.432C218.892 355.428 210.21 362.664 207.684 376.59C205.104 390.78 208.452 403.92 217.362 414.594C222.912 421.091 229.896 426.21 237.762 429.546C245.767 433.003 254.393 434.789 263.112 434.796C267.26 434.802 271.398 434.381 275.46 433.542C292.53 429.996 309.252 420.54 326.574 404.634C386.01 350.034 408.306 258.96 380.802 183.102C372.846 161.172 362.496 144.912 349.164 133.398C336.492 122.46 320.508 116.19 305.31 116.19L305.292 116.208Z" fill="#4C3133"/>
<path d="M376.83 184.53C370.308 166.53 360.888 149.082 346.398 136.572C342.918 133.572 339.149 130.923 335.148 128.664C347.868 140.898 356.394 157.074 362.43 173.73C389.34 247.938 367.458 337.344 309.312 390.732C295.272 403.626 278.856 414.732 260.19 418.626C247.218 421.223 233.75 419.396 221.94 413.436C234.378 427.02 255.48 433.392 274.59 429.426C293.256 425.544 309.672 414.426 323.712 401.532C381.858 348.144 403.74 258.738 376.83 184.53Z" fill="#81C4D4"/>
<path d="M409.698 176.101H220.302C215.109 176.101 210.9 180.31 210.9 185.503V313.099C210.9 318.291 215.109 322.501 220.302 322.501H409.698C414.89 322.501 419.1 318.291 419.1 313.099V185.503C419.1 180.31 414.89 176.101 409.698 176.101Z" fill="white"/>
<path d="M409.698 176.1C412.191 176.102 414.581 177.093 416.344 178.856C418.107 180.619 419.098 183.009 419.1 185.502V313.098C419.098 315.591 418.107 317.982 416.344 319.745C414.581 321.508 412.191 322.499 409.698 322.5H220.302C217.809 322.499 215.418 321.508 213.655 319.745C211.892 317.982 210.901 315.591 210.9 313.098V185.502C210.901 183.009 211.892 180.619 213.655 178.856C215.418 177.093 217.809 176.102 220.302 176.1H409.698ZM409.698 171.9H220.302C216.696 171.905 213.239 173.34 210.689 175.89C208.139 178.439 206.704 181.896 206.7 185.502V313.098C206.704 316.704 208.139 320.161 210.689 322.711C213.239 325.261 216.696 326.696 220.302 326.7H409.698C413.304 326.696 416.761 325.261 419.311 322.711C421.86 320.161 423.295 316.704 423.3 313.098V185.502C423.295 181.896 421.86 178.439 419.311 175.89C416.761 173.34 413.304 171.905 409.698 171.9V171.9Z" fill="#4C3133"/>
<path d="M247.2 187.086C244.71 215.352 252.204 243.438 254.754 271.686C256.26 288.432 255.816 306.27 250.608 322.488H375.6C391.554 278.322 392.838 228.726 376.8 184.518C375.776 181.686 374.674 178.876 373.494 176.088H248.838C248.072 179.718 247.525 183.391 247.2 187.086Z" fill="#F0F0F0"/>
<path d="M289.368 200.472C277.128 198.342 256.908 208.986 268.086 227.604C279.264 246.222 300.54 228.138 320.232 233.994C339.924 239.85 375.036 227.604 362.232 210.048C349.428 192.492 339.354 192.486 318.072 196.746C296.79 201.006 289.368 200.472 289.368 200.472Z" fill="#E2E2E0"/>
<path d="M294.156 223.854C293.712 223.855 293.279 223.714 292.92 223.452L275.364 210.684C274.913 210.357 274.612 209.863 274.525 209.313C274.438 208.763 274.574 208.201 274.902 207.75C275.23 207.3 275.723 206.998 276.273 206.912C276.823 206.825 277.385 206.961 277.836 207.288L295.392 220.056C295.75 220.317 296.017 220.685 296.154 221.107C296.29 221.528 296.29 221.983 296.153 222.404C296.016 222.826 295.749 223.193 295.39 223.454C295.031 223.714 294.599 223.855 294.156 223.854V223.854Z" fill="white"/>
<path d="M276.6 223.854C276.157 223.855 275.724 223.714 275.366 223.454C275.007 223.193 274.74 222.826 274.603 222.404C274.465 221.983 274.465 221.528 274.602 221.107C274.739 220.685 275.005 220.317 275.364 220.056L292.92 207.288C293.37 206.961 293.932 206.825 294.483 206.912C295.033 206.998 295.526 207.3 295.854 207.75C296.182 208.201 296.317 208.763 296.231 209.313C296.144 209.863 295.842 210.357 295.392 210.684L277.836 223.452C277.476 223.712 277.044 223.853 276.6 223.854V223.854Z" fill="white"/>
<path d="M347.898 222.258C347.454 222.259 347.021 222.118 346.662 221.856L329.106 209.088C328.655 208.761 328.352 208.268 328.264 207.718C328.177 207.168 328.311 206.605 328.638 206.154C328.965 205.703 329.458 205.4 330.008 205.312C330.558 205.225 331.121 205.359 331.572 205.686L349.134 218.46C349.492 218.721 349.759 219.089 349.896 219.51C350.033 219.932 350.032 220.386 349.895 220.808C349.758 221.229 349.491 221.597 349.132 221.857C348.773 222.118 348.341 222.258 347.898 222.258V222.258Z" fill="white"/>
<path d="M330.342 222.258C329.898 222.258 329.466 222.118 329.108 221.858C328.749 221.597 328.482 221.23 328.345 220.808C328.207 220.387 328.207 219.932 328.344 219.511C328.481 219.089 328.747 218.721 329.106 218.46L346.662 205.686C347.113 205.359 347.676 205.223 348.227 205.311C348.777 205.398 349.271 205.7 349.599 206.151C349.927 206.602 350.062 207.165 349.975 207.716C349.887 208.267 349.585 208.761 349.134 209.088L331.572 221.856C331.215 222.117 330.784 222.258 330.342 222.258V222.258Z" fill="white"/>
<path d="M269.1 192.6C268.627 192.601 268.167 192.442 267.796 192.148C267.424 191.855 267.163 191.445 267.054 190.984C266.945 190.524 266.995 190.04 267.195 189.611C267.395 189.183 267.735 188.834 268.158 188.622L275.358 185.022C275.856 184.772 276.433 184.731 276.962 184.906C277.491 185.082 277.928 185.46 278.178 185.958C278.428 186.456 278.469 187.033 278.294 187.562C278.118 188.091 277.74 188.528 277.242 188.778L270.042 192.378C269.749 192.524 269.427 192.6 269.1 192.6Z" fill="white"/>
<path d="M347.7 186.6C347.552 186.602 347.405 186.586 347.262 186.552L338.862 184.752C338.337 184.617 337.884 184.285 337.599 183.824C337.313 183.363 337.217 182.81 337.33 182.28C337.444 181.75 337.757 181.284 338.206 180.98C338.655 180.676 339.203 180.557 339.738 180.648L348.138 182.448C348.643 182.558 349.09 182.851 349.393 183.27C349.697 183.69 349.834 184.206 349.78 184.72C349.726 185.235 349.483 185.711 349.099 186.058C348.716 186.405 348.217 186.598 347.7 186.6V186.6Z" fill="white"/>
<path d="M215.124 225.984C220.248 225.588 226.47 221.598 222.186 215.742C220.644 213.63 218.04 212.496 215.448 212.142C210.048 211.446 203.226 211.866 198.834 215.34C197.574 216.336 196.398 217.74 196.434 219.318C196.506 221.46 198.672 222.87 200.634 223.68C205.219 225.564 210.18 226.353 215.124 225.984V225.984Z" fill="#C5E6F1"/>
<path d="M211.11 211.884C212.56 211.884 214.009 211.979 215.448 212.166C218.04 212.496 220.644 213.63 222.186 215.766C226.47 221.622 220.248 225.612 215.124 226.008C214.326 226.068 213.522 226.098 212.724 226.098C208.59 226.089 204.498 225.274 200.676 223.698C198.69 222.888 196.524 221.478 196.476 219.336C196.422 217.734 197.598 216.336 198.876 215.358C202.152 212.772 206.778 211.878 211.152 211.878L211.11 211.884ZM211.152 207.678C206.892 207.678 200.856 208.44 196.272 212.064C192.864 214.758 192.228 217.584 192.294 219.48C192.366 221.49 193.344 225.216 199.122 227.586C203.455 229.35 208.088 230.261 212.766 230.268C213.672 230.268 214.566 230.232 215.49 230.166C219.798 229.836 225.048 227.544 227.052 223.176C227.892 221.376 228.822 217.638 225.618 213.252C223.518 210.39 220.116 208.518 216.018 207.99C214.402 207.782 212.775 207.678 211.146 207.678H211.152Z" fill="#4C3133"/>
<path d="M213.924 240.384C219.048 239.988 225.27 235.998 220.986 230.142C219.444 228.03 216.84 226.896 214.248 226.542C208.848 225.846 202.026 226.266 197.634 229.74C196.374 230.736 195.198 232.14 195.234 233.718C195.306 235.86 197.472 237.27 199.434 238.08C204.019 239.964 208.98 240.753 213.924 240.384V240.384Z" fill="#C5E6F1"/>
<path d="M209.91 226.284C211.36 226.284 212.809 226.378 214.248 226.566C216.84 226.896 219.444 228.03 220.986 230.166C225.27 236.022 219.048 240.012 213.924 240.408C213.126 240.468 212.322 240.498 211.524 240.498C207.39 240.489 203.298 239.674 199.476 238.098C197.49 237.288 195.324 235.878 195.276 233.736C195.222 232.134 196.398 230.736 197.676 229.758C200.952 227.172 205.578 226.278 209.952 226.278L209.91 226.284ZM209.952 222.078C205.692 222.078 199.656 222.84 195.072 226.464C191.664 229.158 191.028 231.984 191.094 233.88C191.166 235.89 192.144 239.616 197.922 241.986C202.255 243.75 206.888 244.66 211.566 244.668C212.472 244.668 213.366 244.632 214.29 244.566C218.598 244.236 223.848 241.944 225.852 237.576C226.692 235.776 227.622 232.038 224.418 227.652C222.318 224.79 218.916 222.918 214.818 222.39C213.202 222.182 211.575 222.078 209.946 222.078H209.952Z" fill="#4C3133"/>
<path d="M213.924 254.784C219.048 254.388 225.27 250.398 220.986 244.542C219.444 242.43 216.84 241.296 214.248 240.942C208.848 240.246 202.026 240.666 197.634 244.14C196.374 245.136 195.198 246.54 195.234 248.118C195.306 250.26 197.472 251.67 199.434 252.48C204.019 254.364 208.98 255.153 213.924 254.784V254.784Z" fill="#C5E6F1"/>
<path d="M209.91 240.684C211.36 240.684 212.809 240.778 214.248 240.966C216.84 241.296 219.444 242.43 220.986 244.566C225.27 250.422 219.048 254.412 213.924 254.808C213.126 254.868 212.322 254.898 211.524 254.898C207.39 254.889 203.298 254.074 199.476 252.498C197.49 251.688 195.324 250.278 195.276 248.136C195.222 246.534 196.398 245.136 197.676 244.158C200.952 241.572 205.578 240.678 209.952 240.678L209.91 240.684ZM209.952 236.478C205.692 236.478 199.656 237.24 195.072 240.864C191.664 243.558 191.028 246.384 191.094 248.28C191.166 250.29 192.144 254.016 197.922 256.386C202.255 258.15 206.888 259.06 211.566 259.068C212.472 259.068 213.366 259.032 214.29 258.966C218.598 258.636 223.848 256.344 225.852 251.976C226.692 250.176 227.622 246.438 224.418 242.052C222.318 239.19 218.916 237.318 214.818 236.79C213.202 236.582 211.575 236.478 209.946 236.478H209.952Z" fill="#4C3133"/>
<path d="M417.942 227.184C412.818 226.788 406.596 222.798 410.88 216.942C412.422 214.83 415.026 213.696 417.618 213.342C423.018 212.646 429.84 213.066 434.232 216.54C435.492 217.536 436.668 218.94 436.632 220.518C436.56 222.66 434.394 224.07 432.432 224.88C427.847 226.764 422.885 227.553 417.942 227.184Z" fill="#C5E6F1"/>
<path d="M421.956 213.084C426.33 213.084 430.956 213.978 434.232 216.564C435.492 217.56 436.668 218.964 436.632 220.542C436.56 222.684 434.394 224.094 432.432 224.904C428.61 226.48 424.518 227.295 420.384 227.304C419.586 227.304 418.782 227.274 417.984 227.214C412.86 226.818 406.638 222.828 410.922 216.972C412.464 214.86 415.068 213.726 417.66 213.372C419.098 213.184 420.547 213.09 421.998 213.09L421.956 213.084ZM421.998 208.89C420.369 208.89 418.742 208.994 417.126 209.202C413.04 209.73 409.632 211.602 407.526 214.464C404.322 218.85 405.252 222.564 406.092 224.394C408.102 228.756 413.346 231.048 417.654 231.378C418.554 231.444 419.454 231.48 420.378 231.48C425.056 231.472 429.689 230.562 434.022 228.798C439.8 226.428 440.778 222.702 440.85 220.692C440.916 218.796 440.25 215.97 436.872 213.276C432.288 209.676 426.252 208.89 421.992 208.89H421.998Z" fill="#4C3133"/>
<path d="M419.142 241.584C414.018 241.188 407.796 237.198 412.08 231.342C413.622 229.23 416.226 228.096 418.818 227.742C424.218 227.046 431.04 227.466 435.432 230.94C436.692 231.936 437.868 233.34 437.832 234.918C437.76 237.06 435.594 238.47 433.632 239.28C429.047 241.164 424.085 241.953 419.142 241.584V241.584Z" fill="#C5E6F1"/>
<path d="M423.156 227.484C427.53 227.484 432.156 228.378 435.432 230.964C436.692 231.96 437.868 233.364 437.832 234.942C437.76 237.084 435.594 238.494 433.632 239.304C429.81 240.88 425.718 241.695 421.584 241.704C420.786 241.704 419.982 241.674 419.184 241.614C414.06 241.218 407.838 237.228 412.122 231.372C413.664 229.26 416.268 228.126 418.86 227.772C420.298 227.584 421.747 227.49 423.198 227.49L423.156 227.484ZM423.198 223.29C421.569 223.29 419.942 223.394 418.326 223.602C414.24 224.13 410.832 226.002 408.726 228.864C405.522 233.25 406.452 236.964 407.292 238.794C409.302 243.156 414.546 245.448 418.854 245.778C419.754 245.844 420.654 245.88 421.578 245.88C426.256 245.872 430.889 244.962 435.222 243.198C441 240.828 441.978 237.102 442.05 235.092C442.116 233.196 441.45 230.37 438.072 227.676C433.488 224.076 427.452 223.29 423.192 223.29H423.198Z" fill="#4C3133"/>
<path d="M419.142 255.984C414.018 255.588 407.796 251.598 412.08 245.742C413.622 243.63 416.226 242.496 418.818 242.142C424.218 241.446 431.04 241.866 435.432 245.34C436.692 246.336 437.868 247.74 437.832 249.318C437.76 251.46 435.594 252.87 433.632 253.68C429.047 255.564 424.085 256.353 419.142 255.984V255.984Z" fill="#C5E6F1"/>
<path d="M423.156 241.884C427.53 241.884 432.156 242.778 435.432 245.364C436.692 246.36 437.868 247.764 437.832 249.342C437.76 251.484 435.594 252.894 433.632 253.704C429.81 255.28 425.718 256.095 421.584 256.104C420.786 256.104 419.982 256.074 419.184 256.014C414.06 255.618 407.838 251.628 412.122 245.772C413.664 243.66 416.268 242.526 418.86 242.172C420.298 241.985 421.747 241.891 423.198 241.89L423.156 241.884ZM423.198 237.69C421.569 237.69 419.942 237.795 418.326 238.002C414.24 238.53 410.832 240.402 408.726 243.264C405.522 247.65 406.452 251.364 407.292 253.194C409.302 257.556 414.546 259.848 418.854 260.178C419.754 260.244 420.654 260.28 421.578 260.28C426.256 260.273 430.889 259.362 435.222 257.598C441 255.228 441.978 251.502 442.05 249.492C442.116 247.596 441.45 244.77 438.072 242.076C433.488 238.476 427.452 237.69 423.192 237.69H423.198Z" fill="#4C3133"/>
<path d="M278.328 109.272C290.886 101.418 309.132 99.5161 323.556 102.9C329.868 104.376 336.048 106.962 342.528 106.836C349.008 106.71 356.112 102.708 356.844 96.2701C357.27 92.4841 355.35 88.6981 352.5 86.1661C349.65 83.6341 345.99 82.2061 342.3 81.2761C332.979 78.9452 323.171 79.4911 314.166 82.8421C311.766 83.7481 308.328 84.5101 307.152 82.2061C306.246 80.4061 307.692 78.3181 309.36 77.2081C311.028 76.0981 313.044 75.4081 314.16 73.7341C315.6 71.6341 314.982 68.5861 313.248 66.7201C311.514 64.8541 308.928 63.9961 306.39 63.7201C296.19 62.5561 286.374 69.8761 281.88 79.1341C277.386 88.3921 277.218 99.1561 278.19 109.404L278.328 109.272Z" fill="#C5E6F1"/>
<path d="M278.196 111.492C277.674 111.492 277.17 111.296 276.784 110.945C276.398 110.593 276.157 110.11 276.108 109.59C275.31 101.19 274.848 88.8182 279.996 78.2102C285.312 67.2662 296.274 60.4382 306.636 61.6202C310.11 62.0162 312.924 63.2822 314.79 65.2862C317.316 68.0102 317.79 72.1502 315.9 74.9222C314.826 76.4942 313.266 77.3702 311.892 78.1442C311.4 78.4202 310.932 78.6842 310.512 78.9602C309.408 79.6922 308.796 80.8142 309.018 81.2522C309.288 81.7802 310.89 81.8522 313.422 80.8742C322.833 77.3802 333.081 76.8093 342.822 79.2362C347.574 80.4362 351.222 82.1882 353.91 84.6002C357.51 87.8282 359.418 92.2802 358.938 96.5102C358.08 104.106 349.938 108.792 342.576 108.936C337.644 109.026 332.976 107.688 328.458 106.392C326.694 105.882 324.858 105.36 323.088 104.946C308.424 101.508 290.976 103.926 279.606 110.946C279.219 111.296 278.717 111.49 278.196 111.492ZM304.2 65.6822C294.996 65.6822 287.28 72.8822 283.8 80.0402C280.506 86.8322 279.318 94.8962 280.044 105.876C292.344 99.3662 309.222 97.3802 324.06 100.854C325.944 101.298 327.816 101.832 329.628 102.354C334.05 103.62 338.214 104.832 342.51 104.754C347.946 104.652 354.186 101.292 354.78 96.0542C355.098 93.2222 353.7 90.0542 351.132 87.7562C348.936 85.8062 345.888 84.3602 341.808 83.3282C332.9 81.1084 323.529 81.6291 314.922 84.8222C308.502 87.2222 306.138 84.8222 305.322 83.1782C303.882 80.3522 305.7 77.1782 308.238 75.4802C308.784 75.1142 309.342 74.8022 309.882 74.5022C310.998 73.9022 311.958 73.3022 312.48 72.5702C313.266 71.4182 312.948 69.4382 311.76 68.1662C310.284 66.5762 307.926 66.0062 306.21 65.8142C305.543 65.7312 304.872 65.6871 304.2 65.6822V65.6822Z" fill="#4C3133"/>
<path d="M334.2 316.5H229.2C228.643 316.5 228.109 316.279 227.715 315.885C227.321 315.491 227.1 314.957 227.1 314.4C227.1 313.843 227.321 313.309 227.715 312.915C228.109 312.522 228.643 312.3 229.2 312.3H334.2C334.757 312.3 335.291 312.522 335.685 312.915C336.079 313.309 336.3 313.843 336.3 314.4C336.3 314.957 336.079 315.491 335.685 315.885C335.291 316.279 334.757 316.5 334.2 316.5Z" fill="#4C3133"/>
<path d="M360.342 316.2H347.7C347.143 316.2 346.609 315.979 346.215 315.585C345.821 315.191 345.6 314.657 345.6 314.1C345.6 313.543 345.821 313.009 346.215 312.615C346.609 312.221 347.143 312 347.7 312H360.342C360.899 312 361.433 312.221 361.827 312.615C362.221 313.009 362.442 313.543 362.442 314.1C362.442 314.657 362.221 315.191 361.827 315.585C361.433 315.979 360.899 316.2 360.342 316.2Z" fill="#4C3133"/>
</svg>
