<svg width="600" height="600" viewBox="0 0 600 600" fill="none" xmlns="http://www.w3.org/2000/svg">
<path d="M304.2 415.998C304.2 415.998 319.512 437.562 355.398 423.378C391.284 409.194 379.044 386.178 379.044 386.178L304.2 415.998Z" fill="white"/>
<path d="M379.026 386.202C379.026 386.202 391.272 409.194 355.38 423.402C346.5 426.912 338.88 428.202 332.436 428.202C312.852 428.202 304.182 415.992 304.182 415.992L379.026 386.196V386.202ZM379.026 381.996C378.495 381.995 377.97 382.097 377.478 382.296L302.628 412.098C302.037 412.333 301.508 412.699 301.08 413.169C300.652 413.638 300.335 414.199 300.155 414.808C299.975 415.418 299.935 416.06 300.039 416.687C300.143 417.314 300.388 417.909 300.756 418.428C301.164 419.028 310.956 432.408 332.436 432.408C340.08 432.408 348.318 430.686 356.928 427.284C371.13 421.668 380.118 413.97 383.646 404.388C384.833 401.133 385.363 397.676 385.206 394.216C385.048 390.755 384.206 387.36 382.728 384.228C382.37 383.555 381.836 382.993 381.182 382.601C380.529 382.209 379.782 382.001 379.02 382.002L379.026 381.996Z" fill="#4C3133"/>
<path d="M286.38 373.968C280.134 352.644 271.164 348.63 254.808 338.382C238.452 328.134 193.608 308.07 195.132 249.912C196.656 191.754 249.312 171.96 249.312 171.96C249.312 171.96 253.428 187.938 265.554 186.744C265.554 186.744 265.08 204.87 281.838 200.016C298.596 195.162 309.858 197.724 321.786 204.078C333.714 210.432 339.45 193.2 351.516 194.274L363.6 195.342C363.6 195.342 393 226.338 379.938 264.546C366.876 302.754 358.11 319.146 372.552 345.222C386.994 371.298 293.754 381.714 293.754 381.714L286.38 373.968Z" fill="#F0F0F0"/>
<path d="M246.93 177.63C249.114 182.478 253.62 189.54 261.678 190.83C262.176 193.86 263.394 197.91 266.37 200.964C267.702 202.305 269.293 203.361 271.047 204.067C272.801 204.773 274.68 205.113 276.57 205.068C278.744 205.039 280.903 204.704 282.984 204.072C287.857 202.578 292.917 201.784 298.014 201.714C305.262 201.714 311.772 203.514 319.794 207.81C322.002 209.026 324.479 209.671 327 209.688C332.496 209.688 336.768 206.37 340.536 203.442C343.86 200.862 346.998 198.426 350.46 198.426C350.696 198.424 350.933 198.434 351.168 198.456L361.566 199.374C366.159 204.918 369.993 211.05 372.966 217.608C379.992 233.136 381 248.472 375.966 263.208C374.514 267.45 373.128 271.38 371.766 275.178C361.026 305.67 355.11 322.464 368.85 347.28C370.05 349.458 370.158 351.276 369.18 353.172C367.242 356.904 359.4 364.266 328.8 371.4C314.328 374.754 300.438 376.674 295.332 377.322L290.124 371.832C283.926 351.486 274.698 345.78 260.838 337.206C259.638 336.458 258.372 335.672 257.04 334.848C255.426 333.84 253.542 332.73 251.544 331.56C241.902 325.908 228.696 318.162 217.8 305.37C211.981 298.578 207.411 290.81 204.3 282.426C200.7 272.67 199.032 261.78 199.338 250.026C199.543 237.953 202.466 226.081 207.888 215.292C212.321 206.697 218.25 198.96 225.396 192.444C231.846 186.522 239.097 181.537 246.936 177.636L246.93 177.63ZM249.336 171.966C249.336 171.966 196.668 191.766 195.156 249.918C193.644 308.07 238.446 328.128 254.808 338.4C271.17 348.672 280.134 352.662 286.38 373.986L293.736 381.732C293.736 381.732 387 371.292 372.534 345.222C358.068 319.152 366.834 302.748 379.92 264.546C393.006 226.344 363.6 195.342 363.6 195.342L351.534 194.274C351.168 194.238 350.808 194.226 350.454 194.226C340.944 194.226 335.37 205.488 326.994 205.488C325.173 205.459 323.389 204.974 321.804 204.078C314.154 200.004 306.804 197.478 298.05 197.478C292.557 197.548 287.103 198.399 281.85 200.004C280.148 200.526 278.38 200.805 276.6 200.832C265.2 200.832 265.566 186.732 265.566 186.732C265.128 186.774 264.702 186.798 264.282 186.798C253.152 186.798 249.324 171.948 249.324 171.948L249.336 171.966Z" fill="#4C3133"/>
<path d="M249.312 171.959C249.312 171.959 196.644 191.759 195.132 249.911C193.62 308.063 238.446 328.127 254.808 338.399C271.17 348.671 280.134 352.661 286.38 373.985L293.736 381.731C293.736 381.731 386.1 371.771 372.534 345.239C362.886 326.381 366.834 302.765 379.92 264.563C393.006 226.361 363.6 195.341 363.6 195.341L342.678 215.201L342.384 226.529C331.83 225.503 313.8 221.255 309.246 221.891C304.692 222.527 301.266 238.313 301.266 238.313C292.2 237.317 285.66 227.321 275.4 214.199C265.14 201.077 238.71 201.149 238.71 201.149C242.004 190.655 233.736 188.927 233.736 188.927C242.934 184.643 249.312 171.959 249.312 171.959Z" fill="white"/>
<path d="M229.554 188.832C229.542 189.032 229.542 189.232 229.554 189.432C229.661 190.303 230.039 191.119 230.634 191.765C231.229 192.411 232.012 192.854 232.872 193.032C233.663 193.293 234.342 193.816 234.798 194.514C235.65 195.966 235.212 198.234 234.696 199.884C234.498 200.513 234.451 201.181 234.559 201.832C234.667 202.483 234.928 203.1 235.319 203.631C235.709 204.163 236.22 204.595 236.81 204.893C237.399 205.19 238.05 205.345 238.71 205.344C238.956 205.344 263.262 205.476 272.088 216.774C273.318 218.352 274.488 219.888 275.64 221.37C284.238 232.566 291.036 241.404 300.762 242.466C300.915 242.484 301.069 242.494 301.224 242.496C302.182 242.494 303.11 242.166 303.855 241.565C304.601 240.963 305.118 240.125 305.322 239.19C306.558 233.55 308.82 227.526 310.23 225.99H310.338C313.134 225.99 319.416 227.094 325.494 228.162C331.266 229.17 337.23 230.22 341.934 230.676C342.066 230.676 342.204 230.676 342.342 230.676C343.436 230.676 344.488 230.249 345.272 229.486C346.057 228.723 346.512 227.684 346.542 226.59L346.794 216.99L363.21 201.39C367.06 206.379 370.323 211.795 372.936 217.53C379.962 233.058 380.97 248.394 375.936 263.13C363.21 300.276 357.936 325.926 368.778 347.082C369.942 349.35 369.978 351.282 368.904 353.238C366.846 357.054 358.848 364.494 328.44 371.472C314.1 374.766 300.378 376.62 295.32 377.244L290.106 371.748C283.908 351.402 274.68 345.696 260.82 337.122C259.62 336.374 258.354 335.588 257.022 334.764C255.408 333.756 253.524 332.646 251.526 331.476C241.884 325.824 228.678 318.078 217.782 305.286C211.964 298.494 207.393 290.726 204.282 282.342C200.682 272.586 199.014 261.696 199.32 249.942C199.525 237.869 202.448 225.997 207.87 215.208C212.303 206.613 218.232 198.876 225.378 192.36C226.77 191.076 228.168 189.876 229.542 188.76L229.554 188.832ZM249.27 171.888C249.27 171.888 196.602 191.688 195.09 249.84C193.578 307.992 238.446 328.128 254.808 338.4C271.17 348.672 280.134 352.662 286.38 373.986L293.736 381.732C293.736 381.732 386.1 371.772 372.534 345.24C362.886 326.382 366.834 302.766 379.92 264.564C393.006 226.362 363.6 195.342 363.6 195.342L342.678 215.202L342.384 226.53C332.556 225.576 316.26 221.826 310.38 221.826C310.001 221.823 309.622 221.845 309.246 221.892C304.698 222.528 301.266 238.314 301.266 238.314C292.2 237.318 285.66 227.322 275.4 214.2C265.266 201.216 239.25 201.15 238.716 201.15C242.01 190.656 233.742 188.928 233.742 188.928C242.922 184.632 249.3 171.948 249.3 171.948L249.27 171.888Z" fill="#4C3133"/>
<path d="M286.38 373.968C286.38 373.968 279.324 383.61 290.46 391.458C290.46 391.458 284.22 398.85 294.576 407.436C294.576 407.436 288.18 420.87 309.33 421.422C330.48 421.974 375.432 411.486 385.26 393.474C391.326 382.356 384.564 376.524 384.564 376.524C384.564 376.524 388.764 364.776 379.632 362.79C379.632 362.79 384.378 348.21 372.534 345.222C372.534 345.222 365.4 357.882 347.79 366.498C330.18 375.114 306.6 382.05 286.38 373.968Z" fill="#FFD900"/>
<path d="M372.534 345.222C384.378 348.222 379.632 362.79 379.632 362.79C388.746 364.776 384.564 376.524 384.564 376.524C384.564 376.524 391.326 382.356 385.26 393.474C375.66 411.036 332.706 421.446 310.962 421.446C310.404 421.446 309.858 421.446 309.33 421.446C288.18 420.87 294.6 407.436 294.6 407.436C284.244 398.85 290.484 391.458 290.484 391.458C279.348 383.61 286.404 373.968 286.404 373.968C292.657 376.413 299.322 377.635 306.036 377.568C320.76 377.568 335.712 372.432 347.814 366.516C365.424 357.9 372.558 345.24 372.558 345.24L372.534 345.222ZM372.558 341.04C371.816 341.04 371.088 341.237 370.448 341.61C369.807 341.983 369.276 342.519 368.91 343.164C368.802 343.35 362.022 354.894 345.978 362.742C336.066 367.59 321.09 373.368 306.042 373.368C299.864 373.436 293.729 372.322 287.97 370.086C287.104 369.74 286.148 369.691 285.251 369.949C284.355 370.206 283.57 370.755 283.02 371.508C282.618 372.054 279.15 377.022 280.2 383.442C280.819 386.948 282.578 390.152 285.204 392.556C284.555 394.394 284.307 396.35 284.478 398.292C284.814 402 286.602 405.492 289.812 408.756C289.059 411.96 289.575 415.331 291.252 418.164C294.15 422.892 300.204 425.406 309.252 425.64C309.816 425.64 310.398 425.64 310.992 425.64C322.992 425.64 339.888 422.64 354.006 418.032C366.606 413.91 382.878 406.632 388.974 395.478C394.374 385.614 391.488 378.78 389.22 375.516C389.82 372.702 390.336 367.998 388.176 364.116C387.305 362.545 386.047 361.223 384.522 360.276C385.014 356.982 385.122 352.152 382.818 347.976C380.934 344.568 377.742 342.21 373.59 341.16C373.252 341.076 372.906 341.034 372.558 341.034V341.04Z" fill="#4C3133"/>
<path d="M321.6 420.6C300.45 420.048 306.6 409.2 306.6 409.2C296.244 400.614 302.4 393.6 302.4 393.6C296.346 389.334 298.134 380.592 298.8 377.106C294.55 376.598 290.384 375.543 286.404 373.968C286.404 373.968 279.348 383.61 290.484 391.458C290.484 391.458 284.244 398.85 294.6 407.436C294.6 407.436 288.204 420.87 309.354 421.422C315.168 421.572 322.788 420.888 330.954 419.442C328.338 419.616 323.778 420.654 321.6 420.6Z" fill="#FDC509"/>
<path d="M303.312 395.73C293.754 395.73 288.072 394.212 287.742 394.128C287.204 393.98 286.747 393.626 286.47 393.141C286.194 392.657 286.122 392.082 286.269 391.545C286.416 391.007 286.771 390.549 287.255 390.273C287.74 389.997 288.314 389.924 288.852 390.072C288.984 390.108 299.556 392.892 316.044 390.672C331.278 388.596 354.846 381.672 380.568 360.504C381.001 360.183 381.54 360.041 382.074 360.107C382.609 360.173 383.098 360.442 383.44 360.858C383.782 361.274 383.951 361.805 383.912 362.342C383.873 362.879 383.63 363.381 383.232 363.744C356.652 385.632 332.196 392.748 316.356 394.866C312.032 395.442 307.674 395.731 303.312 395.73V395.73Z" fill="#4C3133"/>
<path d="M308.676 412.47C298.716 412.47 292.392 411.03 292.026 410.946C291.757 410.884 291.503 410.769 291.279 410.609C291.055 410.448 290.864 410.245 290.718 410.011C290.423 409.539 290.328 408.968 290.454 408.426C290.58 407.883 290.916 407.413 291.388 407.118C291.861 406.823 292.431 406.728 292.974 406.854C293.154 406.896 305.544 409.674 322.794 407.286C338.688 405.09 362.106 397.914 383.394 376.23C383.784 375.832 384.316 375.605 384.873 375.6C385.43 375.594 385.966 375.81 386.364 376.2C386.762 376.59 386.988 377.122 386.994 377.679C387 378.236 386.784 378.772 386.394 379.17C364.2 401.76 339.78 409.2 323.184 411.474C318.376 412.132 313.529 412.465 308.676 412.47Z" fill="#4C3133"/>
<path d="M274.416 319.986C274.416 319.986 280.746 339.942 292.896 347.28C305.046 354.618 313.5 372.072 313.5 372.072" fill="white"/>
<path d="M313.5 374.172C313.104 374.17 312.716 374.057 312.382 373.845C312.047 373.632 311.78 373.33 311.61 372.972C311.526 372.804 303.27 355.986 291.81 349.062C279.132 341.406 272.682 321.462 272.412 320.61C272.255 320.082 272.311 319.514 272.569 319.028C272.826 318.542 273.264 318.176 273.788 318.009C274.313 317.843 274.882 317.888 275.373 318.137C275.864 318.385 276.238 318.816 276.414 319.338C276.474 319.53 282.666 338.634 293.982 345.468C306.516 353.04 315.036 370.41 315.39 371.142C315.632 371.643 315.666 372.22 315.484 372.746C315.301 373.273 314.918 373.705 314.418 373.95C314.132 374.09 313.818 374.166 313.5 374.172Z" fill="#4C3133"/>
<path d="M305.16 323.874C302.916 322.524 300.881 320.854 299.118 318.918C295.782 315.402 294.234 322.218 292.83 323.55C291.426 324.882 286.032 321.318 284.61 323.34C283.188 325.362 281.01 330.096 281.01 330.096" fill="white"/>
<path d="M281.004 332.196C280.701 332.197 280.402 332.131 280.128 332.004C279.877 331.889 279.651 331.726 279.463 331.524C279.275 331.322 279.129 331.085 279.033 330.826C278.937 330.567 278.893 330.292 278.904 330.017C278.915 329.741 278.98 329.47 279.096 329.22C279.192 329.022 281.376 324.282 282.894 322.128C284.52 319.818 287.526 320.67 289.722 321.288C290.329 321.47 290.946 321.621 291.57 321.738C291.75 321.426 291.996 320.952 292.17 320.598C293.166 318.642 294.414 316.2 296.784 315.858C297.72 315.726 299.136 315.894 300.636 317.472C302.249 319.237 304.101 320.768 306.138 322.02C306.63 322.281 306.997 322.728 307.16 323.261C307.322 323.793 307.267 324.369 307.005 324.861C306.743 325.352 306.297 325.72 305.764 325.883C305.231 326.045 304.656 325.989 304.164 325.728C301.713 324.273 299.489 322.466 297.564 320.364C297.487 320.279 297.405 320.199 297.318 320.124C296.753 320.869 296.272 321.673 295.884 322.524C295.48 323.462 294.927 324.33 294.246 325.092C292.734 326.526 290.514 325.896 288.552 325.344C287.761 325.088 286.947 324.911 286.122 324.816C284.928 326.814 283.846 328.877 282.882 330.996C282.713 331.352 282.447 331.653 282.115 331.865C281.783 332.078 281.398 332.192 281.004 332.196V332.196Z" fill="#4C3133"/>
<path d="M356.364 358.104C356.364 358.104 352.32 355.26 351.996 341.544C351.672 327.828 351.228 318.216 350.25 303.108" fill="white"/>
<path d="M355.152 359.82C354.33 359.22 350.232 355.656 349.896 341.592C349.566 327.942 349.128 318.27 348.156 303.246C348.12 302.689 348.307 302.14 348.676 301.721C349.044 301.302 349.564 301.046 350.121 301.011C350.678 300.975 351.226 301.162 351.645 301.53C352.065 301.899 352.32 302.419 352.356 302.976C353.328 318.06 353.772 327.78 354.102 341.49C354.39 353.526 357.624 356.418 357.654 356.448L357.6 356.4L355.152 359.82Z" fill="#4C3133"/>
<path d="M332.538 325.272C332.538 325.272 336.774 320.58 338.796 322.008C340.818 323.436 343.5 325.554 350.004 312.702" fill="white"/>
<path d="M332.538 327.366C332.017 327.368 331.514 327.176 331.128 326.826C330.717 326.451 330.47 325.93 330.442 325.375C330.414 324.819 330.607 324.275 330.978 323.862C332.268 322.44 336.72 317.976 339.978 320.262L340.062 320.322C340.824 320.862 341.106 321.018 341.418 320.922C341.958 320.79 344.052 319.722 348.102 311.712C348.353 311.214 348.792 310.837 349.321 310.663C349.851 310.49 350.428 310.533 350.925 310.785C351.422 311.036 351.799 311.475 351.973 312.004C352.147 312.534 352.103 313.11 351.852 313.608C348.252 320.766 345.324 324.282 342.432 325.008C340.29 325.542 338.718 324.51 337.746 323.808C337.008 323.97 335.304 325.278 334.074 326.628C333.885 326.852 333.65 327.034 333.385 327.161C333.12 327.289 332.832 327.358 332.538 327.366V327.366Z" fill="#4C3133"/>
<path d="M238.428 201.498L226.602 208.044L228.444 216.318L221.886 231.228" fill="white"/>
<path d="M221.886 233.328C221.595 233.327 221.307 233.265 221.04 233.148C220.787 233.037 220.559 232.878 220.369 232.679C220.178 232.48 220.028 232.245 219.928 231.988C219.829 231.731 219.781 231.457 219.787 231.181C219.793 230.906 219.854 230.634 219.966 230.382L226.242 216.102L224.55 208.5C224.452 208.057 224.501 207.594 224.688 207.181C224.875 206.768 225.191 206.427 225.588 206.208L237.408 199.662C237.65 199.517 237.918 199.423 238.197 199.384C238.476 199.345 238.76 199.363 239.032 199.436C239.304 199.51 239.558 199.637 239.78 199.81C240.002 199.984 240.186 200.2 240.323 200.447C240.459 200.693 240.545 200.964 240.574 201.244C240.604 201.524 240.576 201.808 240.494 202.077C240.412 202.346 240.277 202.596 240.096 202.812C239.915 203.028 239.693 203.206 239.442 203.334L228.996 209.118L230.496 215.862C230.59 216.299 230.544 216.755 230.364 217.164L223.8 232.074C223.637 232.446 223.369 232.763 223.029 232.985C222.69 233.208 222.292 233.327 221.886 233.328Z" fill="#4C3133"/>
<path d="M302.52 240.864L308.472 249.246L301.968 262.098L307.884 271.848" fill="white"/>
<path d="M307.884 273.948C307.523 273.947 307.168 273.855 306.852 273.678C306.537 273.502 306.273 273.247 306.084 272.94L300.174 263.19C299.988 262.884 299.883 262.537 299.869 262.18C299.856 261.823 299.934 261.468 300.096 261.15L306 249.426L300.78 242.076C300.519 241.621 300.437 241.085 300.551 240.573C300.666 240.062 300.967 239.611 301.396 239.31C301.826 239.009 302.352 238.88 302.872 238.948C303.392 239.015 303.868 239.275 304.206 239.676L310.158 248.076C310.38 248.388 310.512 248.754 310.541 249.136C310.569 249.518 310.493 249.9 310.32 250.242L304.32 262.056L309.63 270.804C309.917 271.28 310.004 271.852 309.872 272.393C309.739 272.934 309.397 273.4 308.922 273.69C308.605 273.866 308.247 273.955 307.884 273.948Z" fill="#4C3133"/>
<path d="M220.392 403.229C220.047 403.228 219.708 403.143 219.404 402.981C219.099 402.819 218.839 402.585 218.646 402.299L209.046 387.935C208.884 387.707 208.769 387.448 208.708 387.174C208.647 386.9 208.642 386.617 208.693 386.341C208.743 386.066 208.848 385.803 209.002 385.568C209.156 385.334 209.355 385.132 209.588 384.976C209.821 384.82 210.082 384.712 210.358 384.658C210.633 384.605 210.916 384.607 211.191 384.665C211.465 384.722 211.725 384.834 211.955 384.994C212.186 385.154 212.382 385.359 212.532 385.595L222.132 399.959C222.344 400.276 222.466 400.644 222.485 401.024C222.505 401.404 222.42 401.783 222.241 402.119C222.061 402.455 221.794 402.735 221.467 402.931C221.141 403.127 220.767 403.23 220.386 403.229H220.392Z" fill="#4C3133"/>
<path d="M208.686 401.16C208.243 401.16 207.811 401.021 207.452 400.762C207.093 400.503 206.825 400.137 206.687 399.716C206.549 399.295 206.547 398.842 206.682 398.42C206.816 397.998 207.081 397.63 207.438 397.368L220.926 387.432C221.374 387.101 221.935 386.961 222.486 387.044C223.037 387.127 223.532 387.425 223.863 387.873C224.194 388.321 224.333 388.882 224.251 389.432C224.168 389.983 223.87 390.479 223.422 390.81L209.934 400.752C209.572 401.017 209.135 401.16 208.686 401.16V401.16Z" fill="#4C3133"/>
<path d="M434.076 180.45C433.731 180.451 433.391 180.366 433.086 180.204C432.782 180.042 432.522 179.807 432.33 179.52L421.482 163.32C421.172 162.857 421.058 162.289 421.166 161.742C421.274 161.195 421.595 160.714 422.058 160.404C422.521 160.093 423.088 159.98 423.635 160.088C424.182 160.196 424.664 160.517 424.974 160.98L435.822 177.18C436.034 177.496 436.156 177.864 436.175 178.244C436.195 178.624 436.11 179.003 435.931 179.339C435.751 179.675 435.484 179.955 435.157 180.151C434.831 180.347 434.457 180.45 434.076 180.45V180.45Z" fill="#4C3133"/>
<path d="M420.882 178.116C420.439 178.117 420.007 177.977 419.648 177.718C419.289 177.459 419.022 177.093 418.883 176.672C418.745 176.252 418.743 175.798 418.878 175.376C419.012 174.954 419.277 174.586 419.634 174.324L434.838 163.122C435.059 162.945 435.313 162.814 435.585 162.738C435.858 162.662 436.143 162.641 436.424 162.678C436.704 162.715 436.974 162.807 437.218 162.951C437.462 163.095 437.674 163.286 437.842 163.514C438.01 163.742 438.13 164.001 438.195 164.277C438.26 164.552 438.269 164.838 438.221 165.116C438.173 165.395 438.069 165.662 437.916 165.899C437.762 166.137 437.562 166.341 437.328 166.5L422.124 177.708C421.765 177.974 421.329 178.117 420.882 178.116V178.116Z" fill="#4C3133"/>
<path d="M336.768 171.744C343.306 171.744 348.606 166.444 348.606 159.906C348.606 153.368 343.306 148.068 336.768 148.068C330.23 148.068 324.93 153.368 324.93 159.906C324.93 166.444 330.23 171.744 336.768 171.744Z" fill="#C5E6F1"/>
<path d="M336.774 173.844H336.408C332.68 173.795 329.122 172.274 326.511 169.612C323.901 166.95 322.449 163.364 322.473 159.635C322.497 155.907 323.996 152.34 326.64 149.712C329.285 147.084 332.863 145.609 336.591 145.609C340.319 145.609 343.897 147.084 346.542 149.712C349.187 152.34 350.685 155.907 350.709 159.635C350.733 163.364 349.281 166.95 346.671 169.612C344.06 172.274 340.502 173.795 336.774 173.844V173.844ZM336.774 150.174C334.279 150.209 331.9 151.228 330.154 153.011C328.409 154.794 327.439 157.194 327.456 159.689C327.474 162.184 328.477 164.57 330.247 166.328C332.018 168.086 334.411 169.073 336.906 169.073C339.401 169.073 341.795 168.086 343.565 166.328C345.335 164.57 346.338 162.184 346.356 159.689C346.373 157.194 345.403 154.794 343.658 153.011C341.912 151.228 339.533 150.209 337.038 150.174H336.774Z" fill="#4C3133"/>
<path d="M295.002 213.288C299.671 213.288 303.456 209.503 303.456 204.834C303.456 200.165 299.671 196.38 295.002 196.38C290.333 196.38 286.548 200.165 286.548 204.834C286.548 209.503 290.333 213.288 295.002 213.288Z" fill="#C5E6F1"/>
<path d="M295.008 215.4H294.726C292.64 215.344 290.616 214.672 288.912 213.467C287.208 212.262 285.9 210.579 285.152 208.63C284.404 206.682 284.251 204.555 284.712 202.52C285.172 200.484 286.226 198.631 287.74 197.194C289.254 195.757 291.16 194.802 293.217 194.448C295.274 194.094 297.389 194.358 299.296 195.207C301.203 196.055 302.815 197.45 303.93 199.215C305.044 200.98 305.61 203.035 305.556 205.122C305.482 207.871 304.339 210.483 302.369 212.403C300.399 214.322 297.758 215.398 295.008 215.4V215.4ZM295.008 198.492C293.759 198.493 292.538 198.863 291.498 199.555C290.457 200.247 289.644 201.23 289.16 202.381C288.675 203.532 288.541 204.801 288.773 206.029C289.006 207.256 289.595 208.387 290.467 209.282C291.339 210.176 292.456 210.794 293.677 211.057C294.898 211.32 296.17 211.218 297.333 210.762C298.496 210.307 299.499 209.519 300.217 208.496C300.934 207.474 301.335 206.262 301.368 205.014V205.014C301.415 203.33 300.792 201.696 299.635 200.471C298.479 199.246 296.884 198.53 295.2 198.48L295.008 198.492Z" fill="#4C3133"/>
<path d="M278.604 115.422C283.273 115.422 287.058 111.637 287.058 106.968C287.058 102.299 283.273 98.5137 278.604 98.5137C273.935 98.5137 270.15 102.299 270.15 106.968C270.15 111.637 273.935 115.422 278.604 115.422Z" fill="#C5E6F1"/>
<path d="M278.61 117.528H278.328C275.6 117.491 272.998 116.376 271.089 114.427C269.18 112.479 268.119 109.854 268.137 107.126C268.156 104.398 269.253 101.788 271.188 99.866C273.124 97.9436 275.741 96.8647 278.469 96.8647C281.197 96.8647 283.814 97.9436 285.75 99.866C287.685 101.788 288.782 104.398 288.801 107.126C288.819 109.854 287.758 112.479 285.849 114.427C283.94 116.376 281.338 117.491 278.61 117.528V117.528ZM278.61 100.614C276.925 100.592 275.3 101.241 274.093 102.418C272.886 103.594 272.196 105.202 272.175 106.887C272.153 108.572 272.802 110.197 273.979 111.403C275.155 112.61 276.763 113.3 278.448 113.322C279.283 113.349 280.116 113.209 280.896 112.909C281.676 112.609 282.388 112.156 282.99 111.576C283.902 110.712 284.538 109.597 284.816 108.372C285.095 107.147 285.003 105.867 284.553 104.693C284.104 103.52 283.316 102.507 282.29 101.782C281.264 101.057 280.046 100.652 278.79 100.62L278.61 100.614Z" fill="#4C3133"/>
<path d="M190.098 318.396C184.698 314.832 176.988 312.396 166.53 311.034L180.654 198.936C182.31 185.832 174.216 177.18 158.454 175.194C145.356 173.544 133.8 177.594 124.098 187.158L34.608 280.044L19.608 292.722L19.464 292.848C11.6639 299.844 7.49395 306.102 6.75595 311.988C6.11395 317.07 7.61395 326.328 24.822 331.188C30.654 332.868 40.65 334.584 55.374 336.444L116.868 345.6L113.718 371.64C113.628 372.336 113.376 373.944 112.656 377.64C112.02 380.922 111.594 383.424 111.36 385.29C110.298 393.69 111.3 400.29 114.426 405.432C116.826 409.392 121.782 414.378 131.628 415.632C145.014 417.324 153.942 410.892 155.514 398.43L161.328 352.278C172.554 353.796 176.928 353.7 179.286 353.436C190.734 352.272 197.724 346.152 198.978 336.204C199.872 329.1 196.722 322.8 190.098 318.396ZM129.93 241.764L121.98 304.8L77.856 298.248C91.8 283.8 109.2 264.9 129.93 241.764Z" fill="#F0F0F0"/>
<path d="M564.288 297.3C558.384 294.762 550.416 293.754 539.94 294.234L534.078 182.07C533.4 168.96 523.956 161.916 508.2 162.738C495.096 163.422 484.494 169.392 476.694 180.48L405.42 287.076L393 302.106L392.886 302.256C386.466 310.47 383.496 317.328 383.808 323.214C384.072 328.302 387.162 337.092 404.856 338.814C410.856 339.414 420.942 339.36 435.672 338.592L497.436 336.792L498.918 362.82C498.96 363.522 498.99 365.136 498.918 368.88C498.876 372.204 498.918 374.73 498.996 376.59C499.44 385.026 501.576 391.296 505.53 395.79C508.59 399.246 514.302 403.248 524.13 402.738C537.522 402.036 545.13 394.176 544.476 381.708L542.076 335.508C553.326 335.028 557.592 334.164 559.848 333.498C570.84 330.348 576.612 323.13 576.09 313.176C575.736 306.054 571.542 300.42 564.288 297.3ZM491.964 232.884L495.258 295.974L450.936 297.312C462.036 280.722 475.8 259.158 491.964 232.884Z" fill="#F0F0F0"/>
<path d="M43.248 258.048C42.8298 258.05 42.4203 257.928 42.0722 257.696C41.724 257.465 41.4529 257.134 41.2937 256.747C41.1345 256.361 41.0944 255.935 41.1786 255.526C41.2627 255.116 41.4672 254.741 41.766 254.448L96 200.652C96.1969 200.458 96.4303 200.304 96.6866 200.2C96.9429 200.096 97.2172 200.044 97.4938 200.045C97.7704 200.047 98.044 200.104 98.2988 200.211C98.5536 200.319 98.7847 200.476 98.979 200.673C99.1732 200.87 99.3267 201.103 99.4308 201.36C99.5348 201.616 99.5874 201.89 99.5854 202.167C99.5835 202.443 99.5271 202.717 99.4194 202.972C99.3117 203.227 99.1549 203.458 98.958 203.652L44.73 257.442C44.3339 257.83 43.8021 258.047 43.248 258.048Z" fill="#F0F0F0"/>
<path d="M104.268 196.614C103.868 196.617 103.476 196.505 103.138 196.292C102.8 196.079 102.53 195.774 102.359 195.413C102.189 195.051 102.126 194.649 102.177 194.252C102.228 193.856 102.391 193.483 102.648 193.176L109.464 184.95C109.82 184.521 110.331 184.251 110.886 184.2C111.441 184.148 111.993 184.318 112.422 184.674C112.851 185.03 113.121 185.541 113.173 186.096C113.224 186.651 113.054 187.203 112.698 187.632L105.882 195.858C105.685 196.095 105.438 196.285 105.159 196.416C104.88 196.547 104.576 196.614 104.268 196.614Z" fill="#F0F0F0"/>
<path d="M433.026 347.454C432.469 347.463 431.931 347.25 431.531 346.862C431.131 346.474 430.902 345.944 430.893 345.387C430.884 344.83 431.097 344.292 431.485 343.892C431.872 343.492 432.403 343.263 432.96 343.254L486 341.592C486.276 341.583 486.551 341.629 486.809 341.726C487.067 341.824 487.303 341.971 487.504 342.16C487.705 342.349 487.867 342.576 487.981 342.827C488.094 343.079 488.157 343.35 488.166 343.626C488.175 343.902 488.129 344.176 488.031 344.434C487.934 344.693 487.786 344.929 487.598 345.13C487.409 345.331 487.182 345.493 486.931 345.607C486.679 345.72 486.408 345.783 486.132 345.792L433.068 347.454H433.026Z" fill="#F0F0F0"/>
<path d="M412.8 348.084C412.524 348.088 412.25 348.038 411.994 347.937C411.737 347.835 411.503 347.684 411.305 347.492C411.107 347.3 410.949 347.071 410.839 346.818C410.73 346.565 410.671 346.293 410.667 346.017C410.663 345.741 410.713 345.467 410.814 345.211C410.916 344.955 411.067 344.721 411.259 344.523C411.451 344.324 411.68 344.166 411.933 344.057C412.186 343.947 412.458 343.888 412.734 343.884L423.174 343.56C423.45 343.551 423.725 343.597 423.983 343.695C424.241 343.792 424.477 343.94 424.678 344.129C424.879 344.317 425.041 344.544 425.155 344.796C425.268 345.047 425.331 345.318 425.34 345.594C425.349 345.87 425.303 346.145 425.205 346.403C425.108 346.661 424.96 346.897 424.772 347.098C424.583 347.3 424.356 347.461 424.105 347.575C423.853 347.689 423.582 347.751 423.306 347.76L412.866 348.084H412.8Z" fill="#F0F0F0"/>
<path d="M325.176 496.5C369.981 496.5 406.302 490.042 406.302 482.076C406.302 474.11 369.981 467.652 325.176 467.652C280.371 467.652 244.05 474.11 244.05 482.076C244.05 490.042 280.371 496.5 325.176 496.5Z" fill="#F0F0F0"/>
<path d="M374.04 472.668C376.896 478.458 385.704 478.722 390.84 474.804C395.976 470.886 398.316 464.412 400.404 458.31L403.488 449.31C397.488 454.482 388.098 451.614 380.58 454.11C377.309 455.28 374.484 457.44 372.498 460.289C370.512 463.139 369.463 466.537 369.498 470.01" fill="#E2E2E0"/>
<path d="M382.758 479.526C381.661 479.529 380.568 479.406 379.5 479.16C377.937 478.843 376.465 478.179 375.194 477.216C373.922 476.253 372.884 475.017 372.156 473.598C371.935 473.102 371.914 472.541 372.098 472.03C372.282 471.52 372.657 471.101 373.143 470.86C373.629 470.62 374.19 470.577 374.707 470.74C375.224 470.904 375.658 471.261 375.918 471.738C376.378 472.597 377.024 473.342 377.809 473.919C378.593 474.496 379.497 474.891 380.454 475.074C382.022 475.414 383.644 475.417 385.213 475.083C386.782 474.749 388.263 474.085 389.556 473.136C394.356 469.47 396.6 462.936 398.406 457.632L399.756 453.678C396.756 454.638 393.456 454.782 390.252 454.92C387.048 455.058 383.964 455.196 381.252 456.12C378.409 457.148 375.955 459.031 374.226 461.511C372.497 463.991 371.579 466.945 371.598 469.968C371.615 470.525 371.409 471.066 371.027 471.471C370.645 471.877 370.118 472.114 369.561 472.131C369.004 472.148 368.463 471.942 368.058 471.56C367.652 471.178 367.415 470.651 367.398 470.094C367.335 466.166 368.51 462.317 370.756 459.094C373.003 455.871 376.207 453.437 379.914 452.136C383.202 451.038 386.7 450.882 390.078 450.738C394.704 450.534 399.078 450.342 402.12 447.738C402.469 447.439 402.907 447.264 403.366 447.238C403.825 447.212 404.28 447.337 404.66 447.595C405.041 447.852 405.327 448.228 405.474 448.663C405.621 449.099 405.621 449.57 405.474 450.006L402.39 459.006C400.398 464.82 397.926 472.05 392.118 476.49C389.404 478.478 386.123 479.542 382.758 479.526Z" fill="#B9B9B9"/>
<path d="M366.12 472.914C365.52 472.914 364.92 472.914 364.284 472.866C363.727 472.836 363.205 472.587 362.831 472.172C362.458 471.758 362.265 471.212 362.295 470.655C362.324 470.098 362.574 469.575 362.988 469.202C363.403 468.829 363.949 468.636 364.506 468.666C368.998 468.866 373.484 468.156 377.696 466.581C381.907 465.006 385.758 462.597 389.016 459.498C389.423 459.167 389.94 459 390.464 459.03C390.988 459.061 391.481 459.287 391.847 459.663C392.213 460.04 392.425 460.539 392.44 461.064C392.456 461.589 392.275 462.1 391.932 462.498C384.972 469.135 375.738 472.862 366.12 472.914V472.914Z" fill="#B9B9B9"/>
<path d="M296.094 492.39C296.094 492.39 286.788 500.034 276.402 492.456C266.016 484.878 268.5 468.282 268.5 468.282C268.5 468.282 281.178 464.082 285.3 471.36C285.3 471.36 281.604 474.138 284.748 477.012C287.892 479.886 289.26 474.612 289.26 474.612C289.26 474.612 299.712 478.764 296.094 492.39Z" fill="#E2E2E0"/>
<path d="M286.122 497.886C282.162 497.859 278.318 496.55 275.166 494.154C263.88 485.916 266.316 468.702 266.4 468C266.457 467.615 266.621 467.253 266.872 466.955C267.123 466.658 267.452 466.436 267.822 466.314C268.422 466.122 282.186 461.7 287.118 470.346C287.372 470.79 287.455 471.311 287.351 471.812C287.247 472.313 286.964 472.758 286.554 473.064C286.068 473.426 285.722 473.946 285.576 474.534C285.643 474.918 285.859 475.261 286.176 475.488C286.266 475.571 286.363 475.647 286.464 475.716C286.822 475.227 287.087 474.676 287.244 474.09C287.32 473.803 287.457 473.536 287.644 473.305C287.831 473.075 288.065 472.886 288.33 472.753C288.596 472.619 288.886 472.543 289.183 472.529C289.479 472.516 289.776 472.565 290.052 472.674C290.172 472.722 302.172 477.702 298.122 492.954C298.008 493.379 297.763 493.758 297.42 494.034C294.182 496.528 290.21 497.883 286.122 497.886V497.886ZM270.444 469.938C270.156 473.832 270.036 485.208 277.644 490.758C285.348 496.38 292.302 492.474 294.246 491.148C296.046 483.306 292.56 479.304 290.262 477.6C289.675 478.637 288.73 479.424 287.604 479.814C286.608 480.114 285.066 480.132 283.35 478.56C282.723 478.045 282.223 477.393 281.887 476.655C281.551 475.916 281.388 475.111 281.412 474.3C281.49 473.179 281.897 472.107 282.582 471.216C279.48 468.216 273.162 469.29 270.444 469.938V469.938Z" fill="#B9B9B9"/>
<path d="M310.2 499.296H310.032C309.03 499.212 285.372 497.1 274.368 478.674C274.206 478.437 274.095 478.17 274.04 477.889C273.986 477.607 273.99 477.318 274.051 477.038C274.113 476.758 274.231 476.494 274.399 476.261C274.566 476.029 274.78 475.833 275.026 475.686C275.272 475.539 275.546 475.444 275.83 475.407C276.114 475.37 276.403 475.392 276.679 475.47C276.954 475.549 277.211 475.683 277.432 475.865C277.654 476.046 277.836 476.271 277.968 476.526C287.844 493.062 310.14 495.09 310.368 495.126C310.925 495.148 311.45 495.391 311.828 495.801C312.206 496.21 312.406 496.753 312.384 497.31C312.362 497.867 312.119 498.392 311.709 498.77C311.3 499.148 310.757 499.348 310.2 499.326V499.296Z" fill="#B9B9B9"/>
<path d="M406.5 469.2C406.12 469.206 405.746 469.109 405.417 468.919C405.088 468.729 404.817 468.453 404.632 468.122C404.448 467.79 404.356 467.414 404.368 467.034C404.38 466.655 404.495 466.286 404.7 465.966C419.1 443.49 414.642 412.524 414.594 412.212C414.542 411.675 414.7 411.139 415.033 410.715C415.366 410.291 415.85 410.011 416.384 409.934C416.918 409.857 417.461 409.988 417.901 410.3C418.34 410.613 418.643 411.082 418.746 411.612C418.95 412.944 423.492 444.468 408.24 468.258C408.049 468.546 407.791 468.782 407.487 468.946C407.184 469.11 406.845 469.198 406.5 469.2Z" fill="#F0F0F0"/>
</svg>
