<svg width="600" height="600" viewBox="0 0 600 600" fill="none" xmlns="http://www.w3.org/2000/svg">
<path d="M529.2 201.348C502.386 195.312 478.152 202.716 457.158 223.368C439.698 240.666 427.758 263.148 421.68 290.172C414.558 321.84 413.676 349.128 419.07 371.298C426.492 400.968 445.05 419.34 474.228 425.898C501.42 432.018 524.592 425.736 543.096 407.232C561.096 389.232 574.896 359.172 584.208 317.832C590.07 291.786 589.074 267.978 581.238 247.032C571.95 222.426 554.436 207.036 529.2 201.348ZM481.95 391.494C467.274 388.194 458.052 379.134 453.75 363.792C449.25 347.742 450.282 324.864 456.822 295.8C460.794 278.172 468.348 263.202 479.286 251.316C492.072 237.444 505.8 232.386 521.286 235.866C535.248 239.01 544.194 246.666 548.64 259.32C553.266 272.49 552.906 291.198 547.566 314.922C542.43 337.722 535.302 356.154 526.374 369.624C514.008 388.284 499.482 395.436 481.95 391.494Z" fill="#F0F0F0"/>
<path d="M313.83 200.634C283.482 200.634 259.17 214.482 241.56 241.812C226.95 264.684 219.54 291.786 219.54 322.374C219.54 358.2 225.204 387.816 236.4 410.4C251.586 440.556 276 455.85 309.06 455.85C339.828 455.85 363.264 443.466 378.714 419.052C393.714 395.31 401.34 359.568 401.34 312.816C401.34 283.344 394.488 257.934 380.982 237.294C365.01 212.964 342.42 200.634 313.83 200.634ZM309.03 416.898C292.422 416.898 280.296 409.374 271.944 393.894C263.208 377.694 258.774 352.806 258.774 319.908C258.774 299.958 263.286 282.006 272.19 266.55C282.594 248.502 296.16 239.73 313.656 239.73C329.46 239.73 340.956 245.826 348.81 258.366C356.982 271.434 361.128 291.672 361.128 318.522C361.128 344.322 357.912 365.922 351.564 382.578C342.798 405.672 328.884 416.898 309.048 416.898H309.03Z" fill="#F0F0F0"/>
<path d="M376.8 215.496C376.481 215.496 376.166 215.424 375.879 215.285C375.592 215.146 375.341 214.943 375.144 214.692C355.2 189.216 319.854 191.1 319.5 191.124C318.943 191.159 318.395 190.971 317.976 190.602C317.558 190.233 317.303 189.713 317.268 189.156C317.233 188.599 317.421 188.051 317.79 187.632C318.159 187.214 318.679 186.959 319.236 186.924C326.471 186.702 333.704 187.45 340.74 189.15C356.586 192.87 369.63 200.802 378.468 212.1C378.712 212.409 378.863 212.781 378.905 213.172C378.947 213.563 378.878 213.958 378.706 214.312C378.534 214.666 378.265 214.964 377.931 215.173C377.598 215.381 377.212 215.491 376.818 215.49L376.8 215.496Z" fill="#F0F0F0"/>
<path d="M384.072 225.654C383.737 225.654 383.407 225.574 383.11 225.421C382.812 225.267 382.556 225.045 382.362 224.772L379.458 220.71C379.134 220.256 379.004 219.693 379.096 219.143C379.187 218.593 379.494 218.103 379.947 217.779C380.401 217.455 380.964 217.325 381.514 217.416C382.063 217.508 382.554 217.814 382.878 218.268L385.776 222.33C385.937 222.554 386.052 222.807 386.115 223.076C386.178 223.344 386.187 223.623 386.141 223.895C386.096 224.167 385.998 224.427 385.852 224.661C385.706 224.895 385.515 225.098 385.29 225.258C384.936 225.516 384.51 225.654 384.072 225.654Z" fill="#F0F0F0"/>
<path d="M305.148 467.592C304.591 467.605 304.052 467.396 303.649 467.011C303.246 466.626 303.013 466.097 303 465.54C302.987 464.983 303.196 464.444 303.581 464.041C303.966 463.638 304.495 463.405 305.052 463.392C309.827 463.156 314.58 462.593 319.278 461.706C319.552 461.648 319.835 461.646 320.11 461.699C320.384 461.752 320.646 461.86 320.878 462.016C321.111 462.171 321.31 462.372 321.464 462.606C321.618 462.839 321.724 463.102 321.775 463.377C321.826 463.652 321.822 463.935 321.763 464.208C321.703 464.482 321.589 464.741 321.428 464.969C321.267 465.198 321.062 465.393 320.824 465.541C320.587 465.69 320.322 465.789 320.046 465.834C315.158 466.758 310.213 467.343 305.244 467.586L305.148 467.592Z" fill="#F0F0F0"/>
<path d="M289.284 466.926C289.188 466.935 289.092 466.935 288.996 466.926C263.73 463.476 247.314 449.112 237.996 437.676C227.922 425.322 223.848 413.91 223.68 413.43C223.517 412.91 223.563 412.348 223.807 411.861C224.05 411.374 224.474 411.001 224.988 410.821C225.501 410.64 226.065 410.666 226.56 410.893C227.055 411.12 227.442 411.531 227.64 412.038C227.682 412.152 231.696 423.342 241.344 435.138C254.196 450.852 270.42 460.146 289.566 462.738C290.123 462.775 290.642 463.033 291.01 463.453C291.377 463.873 291.563 464.422 291.525 464.979C291.488 465.536 291.231 466.055 290.81 466.423C290.39 466.79 289.841 466.975 289.284 466.938V466.926Z" fill="#F0F0F0"/>
<path d="M105.984 274.452C91.632 279.222 80.148 286.008 71.7 294.696C68.916 280.746 67.29 273.234 66.3 269.016L81.576 263.43L101.34 256.47C101.82 256.308 103.356 255.87 107.94 254.532C111.72 253.452 114.918 252.48 117.45 251.64C127.614 248.262 134.76 244.512 139.296 240.18C146.13 233.652 145.812 226.98 144.336 222.552C143.609 220.404 142.448 218.427 140.926 216.746C139.403 215.065 137.552 213.714 135.486 212.778C133.465 211.754 131.26 211.141 129 210.977C126.74 210.812 124.47 211.098 122.322 211.818C119.864 212.735 117.501 213.889 115.266 215.262C113.607 216.296 111.853 217.17 110.028 217.872C107.94 218.568 104.712 219.552 100.428 220.8C95.922 222.12 92.67 223.11 90.48 223.842C85.848 225.378 79.116 227.79 69.912 231.204C60.99 234.516 54.18 236.958 49.674 238.452C48.228 238.932 45.924 239.55 42.816 240.294C39.348 241.128 36.816 241.806 35.1 242.382C20.034 247.386 20.304 255.732 21.81 260.256C22.572 262.548 24.324 265.206 27.312 268.614C29.0839 270.527 30.4621 272.769 31.368 275.214C33.882 282.786 37.968 299.514 43.47 324.966C47.346 342.288 48.306 345.912 48.708 347.13C49.4124 349.275 50.5325 351.261 52.0045 352.974C53.4764 354.686 55.2713 356.092 57.2867 357.11C59.3021 358.129 61.4983 358.74 63.7501 358.91C66.0018 359.079 68.2649 358.803 70.41 358.098C75.384 356.448 79.41 352.578 82.296 346.602L90.534 328.188C93.078 323.022 95.934 319.002 99.054 316.254C103.104 312.654 109.074 309.558 116.796 306.99C125.196 304.194 132.156 305.79 138.672 311.898C144.192 317.196 148.782 325.278 152.322 335.898C156.588 348.738 156.312 360.672 151.47 372.378C146.502 384.414 138.138 392.238 125.892 396.312C118.092 398.898 111.492 399.462 106.248 397.98C105.048 397.656 102.048 396.456 94.914 392.016C89.514 388.692 84.36 387.816 79.632 389.382C75.3146 390.816 71.7195 393.865 69.6 397.89C68.4351 399.887 67.7081 402.109 67.4671 404.409C67.2261 406.708 67.4766 409.033 68.202 411.228C69.3804 414.504 71.4603 417.38 74.202 419.526C91.644 433.686 112.686 436.812 136.74 428.814C159.282 421.32 175.14 407.412 183.864 387.468C192.222 368.418 192.684 347.394 185.232 324.966C179.01 306.258 169.632 291.936 157.284 282.366C142.2 270.816 124.968 268.146 105.984 274.452Z" fill="#F0F0F0"/>
<path d="M306.672 541.8C351.477 541.8 387.798 535.342 387.798 527.376C387.798 519.41 351.477 512.952 306.672 512.952C261.867 512.952 225.546 519.41 225.546 527.376C225.546 535.342 261.867 541.8 306.672 541.8Z" fill="#F0F0F0"/>
<path d="M186.306 200.79C172.758 229.59 181.578 316.944 254.106 379.848C310.896 429.108 358.092 400.95 388.548 372.318C417.522 345.084 455.748 270.918 431.43 252.366C400.728 228.966 344.22 304.806 315.246 294.366C289.644 285.15 283.95 214.398 257.874 190.638C225.996 161.604 195.6 181.086 186.306 200.79Z" fill="#C5E6F1"/>
<path d="M224.436 175.89C234.738 175.89 246.21 180.024 257.874 190.65C283.95 214.41 289.644 285.162 315.246 294.378C317.173 295.055 319.204 295.39 321.246 295.368C347.112 295.368 388.386 247.854 417.744 247.86C422.689 247.775 427.518 249.363 431.448 252.366C455.784 270.906 417.54 345.084 388.566 372.318C370.17 389.61 345.678 406.728 316.65 406.728C297.612 406.728 276.618 399.36 254.124 379.848C181.596 316.944 172.776 229.584 186.324 200.79C192.204 188.298 206.586 175.89 224.454 175.89M224.454 171.69C215.11 171.754 206.021 174.742 198.462 180.234C191.647 185.04 186.163 191.498 182.526 199.002C174.408 216.258 174.948 247.536 183.912 278.688C189.304 297.316 197.226 315.116 207.456 331.59C219.409 350.858 234.218 368.199 251.376 383.022C272.718 401.538 294.684 410.928 316.65 410.928C341.532 410.928 365.994 399.3 391.44 375.378C403.35 364.188 416.574 345.654 426.84 325.8C433.44 313.014 444.348 288.696 443.352 269.436C442.878 260.25 439.752 253.38 434.016 249.036C429.355 245.48 423.636 243.591 417.774 243.672C401.31 243.672 382.44 256.698 364.188 269.298C348.588 280.056 332.484 291.18 321.27 291.18C319.718 291.203 318.174 290.951 316.71 290.436C304.998 286.236 297.024 264.036 289.314 242.616C281.67 221.382 273.774 199.416 260.748 187.554C249.198 177.036 236.994 171.702 224.478 171.702L224.454 171.69Z" fill="#4C3133"/>
<path d="M388.548 349.518C358.092 378.15 310.896 406.308 254.106 357.048C204.636 314.142 184.812 259.848 181.506 220.542C177.72 259.056 194.106 327.816 254.106 379.848C310.896 429.108 358.092 400.95 388.548 372.318C413.88 348.504 446.298 288.816 437.784 261.792C431.862 291.402 408.096 331.14 388.548 349.518Z" fill="#81C4D4"/>
<path d="M190.278 220.8C182.25 227.7 182.196 243.33 186.33 247.2C190.464 251.07 199.584 243.912 216.144 248.31C232.704 252.708 259.14 251.094 255.588 235.386C252.036 219.678 244.908 216.744 227.436 221.106C209.964 225.468 199.338 213 190.278 220.8Z" fill="#81C4D4"/>
<path d="M187.992 214.41C187.246 214.409 186.527 214.131 185.975 213.628C185.423 213.126 185.078 212.436 185.008 211.693C184.938 210.951 185.146 210.208 185.594 209.611C186.041 209.014 186.695 208.605 187.428 208.464L192.336 207.516C193.117 207.365 193.927 207.53 194.586 207.976C195.245 208.421 195.701 209.111 195.852 209.892C196.003 210.673 195.838 211.483 195.392 212.142C194.947 212.802 194.257 213.257 193.476 213.408L188.562 214.356C188.374 214.392 188.183 214.41 187.992 214.41Z" fill="#4C3133"/>
<path d="M232.398 217.29C232.076 217.29 231.756 217.239 231.45 217.14L226.704 215.568C225.948 215.318 225.323 214.777 224.965 214.065C224.608 213.353 224.548 212.529 224.799 211.773C225.05 211.017 225.59 210.392 226.302 210.035C227.014 209.677 227.838 209.618 228.594 209.868L233.34 211.44C234.018 211.663 234.595 212.121 234.966 212.73C235.337 213.34 235.479 214.062 235.365 214.767C235.252 215.472 234.89 216.113 234.347 216.576C233.803 217.038 233.112 217.291 232.398 217.29Z" fill="#4C3133"/>
<path d="M194.472 239.22C197.116 239.22 199.26 237.076 199.26 234.432C199.26 231.788 197.116 229.644 194.472 229.644C191.828 229.644 189.684 231.788 189.684 234.432C189.684 237.076 191.828 239.22 194.472 239.22Z" fill="#4C3133"/>
<path d="M229.866 239.22C232.51 239.22 234.654 237.076 234.654 234.432C234.654 231.788 232.51 229.644 229.866 229.644C227.222 229.644 225.078 231.788 225.078 234.432C225.078 237.076 227.222 239.22 229.866 239.22Z" fill="#4C3133"/>
<path d="M206.1 159.3C218.664 151.446 236.904 149.544 251.328 152.928C257.64 154.404 263.82 156.99 270.3 156.864C276.78 156.738 283.884 152.736 284.616 146.298C285.042 142.512 283.122 138.726 280.272 136.194C277.422 133.662 273.762 132.234 270.072 131.298C260.748 128.972 250.939 129.52 241.932 132.87C239.532 133.776 236.094 134.538 234.918 132.234C234.012 130.434 235.464 128.34 237.126 127.236C238.788 126.132 240.816 125.436 241.926 123.762C243.366 121.656 242.748 118.614 241.014 116.742C239.28 114.87 236.694 114.024 234.162 113.742C223.932 112.578 214.146 119.898 209.646 129.156C205.146 138.414 204.984 149.172 205.956 159.426L206.1 159.3Z" fill="#C5E6F1"/>
<path d="M205.968 161.52C205.443 161.519 204.937 161.321 204.551 160.966C204.164 160.611 203.925 160.123 203.88 159.6C203.082 151.2 202.62 138.822 207.768 128.214C213.084 117.27 224.034 110.448 234.408 111.63C237.882 112.026 240.702 113.292 242.562 115.296C245.088 118.014 245.562 122.16 243.672 124.932C242.598 126.504 241.038 127.38 239.664 128.154C239.172 128.43 238.704 128.688 238.284 128.97C237.186 129.702 236.568 130.824 236.79 131.262C237.012 131.7 238.662 131.832 241.194 130.884C250.605 127.39 260.853 126.819 270.594 129.246C275.346 130.446 278.994 132.198 281.682 134.61C285.312 137.838 287.196 142.29 286.716 146.514C285.852 154.116 277.716 158.802 270.354 158.946C265.428 159.042 260.754 157.698 256.236 156.402C254.436 155.892 252.636 155.37 250.836 154.95C236.172 151.518 218.724 153.93 207.354 160.95C206.978 161.304 206.484 161.507 205.968 161.52ZM231.942 115.71C222.738 115.71 215.022 122.91 211.542 130.068C208.248 136.854 207.06 144.918 207.786 155.904C220.086 149.394 236.97 147.402 251.802 150.882C253.686 151.32 255.558 151.86 257.376 152.382C261.792 153.648 265.968 154.836 270.252 154.782C275.688 154.68 281.928 151.32 282.522 146.076C282.846 143.25 281.442 140.076 278.874 137.784C276.678 135.834 273.63 134.382 269.55 133.356C260.642 131.136 251.271 131.657 242.664 134.85C236.25 137.25 233.88 134.85 233.064 133.206C231.624 130.38 233.442 127.206 235.98 125.508C236.532 125.142 237.09 124.83 237.624 124.524C238.74 123.924 239.7 123.36 240.222 122.598C241.014 121.446 240.69 119.466 239.502 118.194C238.026 116.598 235.668 116.034 233.952 115.836C233.285 115.758 232.614 115.716 231.942 115.71Z" fill="#4C3133"/>
<path d="M185.364 477.036C185.364 477.036 176.052 484.68 165.672 477.102C155.292 469.524 157.8 452.928 157.8 452.928C157.8 452.928 170.478 448.728 174.6 456.006C174.6 456.006 170.904 458.784 174.048 461.658C177.192 464.532 178.56 459.258 178.56 459.258C178.56 459.258 189 463.41 185.364 477.036Z" fill="#E2E2E0"/>
<path d="M175.392 482.532C171.431 482.505 167.585 481.196 164.43 478.8C153.15 470.562 155.586 453.348 155.694 452.622C155.75 452.237 155.912 451.876 156.163 451.578C156.413 451.28 156.741 451.058 157.11 450.936C157.71 450.744 171.48 446.322 176.412 454.968C176.665 455.412 176.747 455.933 176.643 456.434C176.539 456.934 176.257 457.379 175.848 457.686C175.362 458.048 175.016 458.568 174.87 459.156C174.87 459.492 175.176 459.858 175.47 460.11C175.559 460.195 175.655 460.271 175.758 460.338C176.117 459.849 176.381 459.298 176.538 458.712C176.615 458.425 176.751 458.158 176.938 457.927C177.126 457.697 177.359 457.508 177.625 457.375C177.89 457.241 178.18 457.165 178.477 457.151C178.774 457.138 179.07 457.187 179.346 457.296C179.466 457.344 191.46 462.324 187.41 477.576C187.3 478.003 187.056 478.383 186.714 478.662C183.469 481.164 179.489 482.524 175.392 482.532ZM159.714 454.584C159.426 458.478 159.306 469.854 166.914 475.404C174.618 481.026 181.572 477.12 183.516 475.794C185.316 467.952 181.83 463.95 179.532 462.246C178.944 463.285 177.997 464.072 176.868 464.46C175.878 464.76 174.336 464.778 172.62 463.206C171.994 462.692 171.494 462.041 171.158 461.304C170.822 460.566 170.659 459.762 170.682 458.952C170.768 457.826 171.186 456.751 171.882 455.862C168.75 452.862 162.432 453.936 159.714 454.584Z" fill="#B9B9B9"/>
<path d="M199.446 483.942H199.278C198.276 483.858 174.612 481.746 163.614 463.32C163.369 462.845 163.314 462.294 163.461 461.78C163.607 461.266 163.945 460.827 164.404 460.553C164.863 460.279 165.409 460.19 165.932 460.306C166.454 460.421 166.912 460.73 167.214 461.172C177.09 477.714 199.386 479.736 199.614 479.772C200.171 479.794 200.696 480.037 201.074 480.446C201.452 480.856 201.652 481.399 201.63 481.956C201.608 482.513 201.365 483.038 200.956 483.416C200.546 483.794 200.003 483.994 199.446 483.972V483.942Z" fill="#B9B9B9"/>
<path d="M431.352 183.918C436.638 187.626 444.492 183.624 447.108 177.726C449.724 171.828 448.668 165.024 447.57 158.67L445.95 149.28C443.166 156.702 433.554 158.694 428.166 164.514C425.862 167.112 424.423 170.362 424.05 173.815C423.677 177.267 424.388 180.75 426.084 183.78" fill="#E2E2E0"/>
<path d="M436.002 187.452C433.911 187.474 431.864 186.845 430.146 185.652C429.725 185.32 429.448 184.84 429.369 184.31C429.291 183.78 429.418 183.24 429.725 182.801C430.031 182.362 430.494 182.056 431.019 181.947C431.543 181.838 432.09 181.934 432.546 182.214C433.362 182.746 434.286 183.09 435.252 183.218C436.217 183.347 437.199 183.258 438.126 182.958C439.67 182.505 441.1 181.729 442.32 180.679C443.54 179.63 444.522 178.333 445.2 176.874C447.642 171.354 446.46 164.52 445.512 159.024L444.804 154.908C442.614 157.2 439.806 158.904 437.058 160.566C434.31 162.228 431.658 163.824 429.72 165.936C427.72 168.207 426.473 171.041 426.151 174.05C425.828 177.059 426.446 180.093 427.92 182.736C428.091 182.973 428.21 183.242 428.271 183.528C428.331 183.813 428.332 184.108 428.272 184.393C428.212 184.679 428.094 184.949 427.924 185.186C427.754 185.423 427.537 185.623 427.286 185.771C427.035 185.92 426.755 186.014 426.466 186.049C426.176 186.084 425.882 186.057 425.603 185.972C425.324 185.887 425.066 185.745 424.845 185.554C424.624 185.364 424.445 185.129 424.32 184.866C422.377 181.451 421.558 177.511 421.98 173.605C422.402 169.699 424.044 166.025 426.672 163.104C429.024 160.554 432.018 158.742 434.916 156.99C438.87 154.59 442.608 152.328 444.024 148.56C444.186 148.127 444.486 147.76 444.877 147.514C445.269 147.269 445.73 147.16 446.19 147.204C446.65 147.248 447.083 147.442 447.421 147.756C447.76 148.071 447.985 148.488 448.062 148.944L449.682 158.328C450.726 164.382 452.028 171.912 449.082 178.596C448.141 180.608 446.784 182.397 445.1 183.845C443.416 185.293 441.444 186.367 439.314 186.996C438.236 187.299 437.122 187.453 436.002 187.452Z" fill="#B9B9B9"/>
<path d="M421.98 189C421.505 188.999 421.044 188.837 420.673 188.541C420.302 188.245 420.042 187.831 419.936 187.368C419.83 186.905 419.885 186.42 420.09 185.991C420.296 185.563 420.641 185.217 421.068 185.01C425.105 183.031 428.7 180.258 431.639 176.855C434.577 173.453 436.798 169.492 438.168 165.21C438.347 164.695 438.719 164.27 439.206 164.024C439.692 163.778 440.256 163.732 440.776 163.894C441.297 164.056 441.734 164.414 441.995 164.893C442.256 165.371 442.321 165.932 442.176 166.458C440.633 171.29 438.13 175.761 434.816 179.602C431.502 183.442 427.446 186.574 422.892 188.808C422.606 188.938 422.294 189.004 421.98 189Z" fill="#B9B9B9"/>
<path d="M376.506 422.358C377.258 421.278 377.99 420.174 378.702 419.046C393.702 395.304 401.328 359.562 401.328 312.81C401.328 287.01 396.084 264.348 385.728 245.256L353.022 266.526C358.422 279.306 361.146 296.736 361.146 318.522C361.146 344.322 357.93 365.922 351.582 382.578C345.234 399.234 336.162 409.812 324.108 414.33L376.506 422.358Z" fill="#F0F0F0"/>
<path d="M406.122 330.678C405.786 330.678 405.454 330.598 405.156 330.443C404.857 330.289 404.6 330.065 404.406 329.79L394.542 315.864C394.22 315.41 394.091 314.846 394.185 314.297C394.278 313.748 394.586 313.258 395.04 312.936C395.494 312.614 396.058 312.485 396.607 312.579C397.156 312.672 397.646 312.98 397.968 313.434L407.832 327.36C407.991 327.585 408.105 327.839 408.167 328.108C408.228 328.377 408.236 328.655 408.189 328.927C408.143 329.199 408.044 329.459 407.897 329.693C407.75 329.926 407.559 330.128 407.334 330.288C406.981 330.541 406.557 330.678 406.122 330.678Z" fill="#4C3133"/>
<path d="M394.512 328.938C394.075 328.936 393.649 328.797 393.294 328.542C392.939 328.288 392.673 327.928 392.531 327.515C392.389 327.102 392.379 326.654 392.503 326.235C392.627 325.816 392.878 325.446 393.222 325.176L406.278 315C406.496 314.83 406.745 314.706 407.011 314.633C407.277 314.559 407.555 314.539 407.829 314.574C408.103 314.608 408.367 314.696 408.607 314.832C408.847 314.969 409.057 315.151 409.227 315.369C409.396 315.587 409.521 315.836 409.594 316.102C409.667 316.368 409.687 316.646 409.653 316.92C409.619 317.194 409.531 317.458 409.395 317.698C409.258 317.938 409.076 318.149 408.858 318.318L395.802 328.47C395.437 328.767 394.982 328.932 394.512 328.938Z" fill="#4C3133"/>
<path d="M87.5639 254.082C87.2282 254.083 86.897 254.004 86.5983 253.85C86.2997 253.697 86.0423 253.474 85.8479 253.2L75.9839 239.274C75.8244 239.049 75.7107 238.795 75.6494 238.526C75.5881 238.257 75.5803 237.979 75.6265 237.707C75.6728 237.435 75.7721 237.175 75.9189 236.941C76.0657 236.708 76.257 236.505 76.4819 236.346C76.7069 236.186 76.9611 236.073 77.23 236.011C77.4989 235.95 77.7772 235.942 78.0491 235.988C78.321 236.035 78.5811 236.134 78.8146 236.281C79.0481 236.428 79.2504 236.619 79.4099 236.844L89.2739 250.8C89.4981 251.113 89.6314 251.483 89.6592 251.867C89.687 252.251 89.6081 252.636 89.4313 252.979C89.2545 253.321 88.9866 253.608 88.6571 253.808C88.3276 254.008 87.9493 254.113 87.5639 254.112V254.082Z" fill="#4C3133"/>
<path d="M75.9599 252.342C75.5227 252.342 75.0964 252.205 74.7406 251.951C74.3848 251.697 74.1172 251.338 73.9752 250.924C73.8332 250.511 73.8238 250.063 73.9483 249.644C74.0729 249.225 74.3251 248.855 74.6699 248.586L87.726 238.434C87.9416 238.248 88.1929 238.108 88.4644 238.022C88.7359 237.937 89.022 237.907 89.3053 237.935C89.5886 237.963 89.8632 238.049 90.1124 238.187C90.3617 238.324 90.5803 238.511 90.755 238.736C90.9297 238.961 91.0569 239.219 91.1288 239.494C91.2007 239.77 91.2158 240.057 91.1733 240.339C91.1307 240.62 91.0313 240.89 90.8812 241.132C90.7311 241.374 90.5333 241.583 90.2999 241.746L77.244 251.898C76.8786 252.187 76.4259 252.344 75.9599 252.342Z" fill="#4C3133"/>
<path d="M328.944 152.544C328.608 152.543 328.277 152.461 327.979 152.307C327.68 152.153 327.423 151.929 327.228 151.656L317.364 137.73C317.042 137.275 316.913 136.71 317.007 136.161C317.101 135.611 317.41 135.121 317.865 134.799C318.32 134.477 318.884 134.348 319.434 134.442C319.984 134.536 320.474 134.845 320.796 135.3L330.66 149.226C330.98 149.682 331.107 150.245 331.012 150.794C330.918 151.343 330.61 151.832 330.156 152.154C329.803 152.408 329.379 152.545 328.944 152.544Z" fill="#4C3133"/>
<path d="M317.34 150.798C316.903 150.798 316.476 150.661 316.121 150.407C315.765 150.153 315.497 149.794 315.355 149.38C315.213 148.967 315.204 148.519 315.328 148.1C315.453 147.681 315.705 147.311 316.05 147.042L329.106 136.89C329.547 136.566 330.096 136.427 330.637 136.503C331.179 136.578 331.67 136.861 332.006 137.292C332.341 137.723 332.496 138.269 332.436 138.812C332.377 139.355 332.107 139.854 331.686 140.202L318.63 150.36C318.26 150.644 317.806 150.798 317.34 150.798Z" fill="#4C3133"/>
<path d="M115.944 170.61C119.463 170.61 122.316 167.757 122.316 164.238C122.316 160.719 119.463 157.866 115.944 157.866C112.425 157.866 109.572 160.719 109.572 164.238C109.572 167.757 112.425 170.61 115.944 170.61Z" fill="white"/>
<path d="M113.508 104.31H113.232C112.681 104.236 112.182 103.945 111.844 103.503C111.507 103.061 111.359 102.503 111.432 101.952L112.632 92.7422C112.705 92.19 112.995 91.6895 113.437 91.3508C113.656 91.1831 113.906 91.0602 114.172 90.989C114.439 90.9179 114.717 90.8999 114.99 90.9362C115.263 90.9724 115.527 91.0622 115.766 91.2003C116.005 91.3384 116.214 91.5222 116.381 91.7412C116.549 91.9601 116.672 92.21 116.743 92.4764C116.814 92.7429 116.832 93.0208 116.796 93.2942L115.596 102.504C115.525 103.007 115.274 103.466 114.891 103.798C114.507 104.131 114.016 104.312 113.508 104.31Z" fill="#4C3133"/>
<path d="M121.518 131.574H121.374C121.099 131.556 120.83 131.483 120.583 131.361C120.336 131.238 120.115 131.068 119.934 130.86C119.753 130.652 119.614 130.411 119.527 130.149C119.439 129.888 119.404 129.611 119.424 129.336L119.856 122.976C119.893 122.419 120.15 121.9 120.571 121.533C120.991 121.165 121.54 120.98 122.097 121.017C122.654 121.055 123.173 121.312 123.541 121.732C123.908 122.152 124.093 122.701 124.056 123.258L123.6 129.6C123.568 130.132 123.335 130.632 122.949 130.998C122.562 131.365 122.051 131.571 121.518 131.574Z" fill="#4C3133"/>
<path d="M183.666 324.318C176.04 323.322 166.866 324.654 161.574 331.518C156.282 338.382 157.59 347.514 166.242 357.24C174.894 366.966 189.474 364.38 197.208 356.484C204.942 348.588 183.666 324.318 183.666 324.318Z" fill="#C5E6F1"/>
<path d="M180.486 365.61H179.928C177.037 365.583 174.184 364.946 171.556 363.742C168.928 362.537 166.584 360.792 164.676 358.62C155.574 348.42 153.84 338.04 159.918 330.216C166.986 321.108 179.07 321.606 183.918 322.242C184.423 322.31 184.887 322.557 185.226 322.938C187.53 325.572 207.528 348.912 198.69 357.936C193.873 362.797 187.329 365.556 180.486 365.61ZM179.214 326.13C174.312 326.13 167.514 327.276 163.236 332.784C158.436 338.946 160.074 347.13 167.814 355.824C169.344 357.558 171.222 358.951 173.326 359.912C175.429 360.873 177.711 361.382 180.024 361.404C182.933 361.431 185.818 360.877 188.51 359.777C191.203 358.677 193.65 357.052 195.708 354.996C200.004 350.604 190.788 335.796 182.61 326.31C181.482 326.19 180.348 326.13 179.214 326.13Z" fill="#4C3133"/>
<path d="M120.966 137.568C119.418 160.182 121.332 185.454 127.692 216.108C135.228 252.444 148.746 283.986 167.892 309.87C189 338.484 217.5 359.826 248.064 369.96C269.514 377.064 292.848 379.11 315.414 381.084L321.6 381.6C346.8 383.85 373.356 386.928 397.26 397.428C424.71 409.488 444.336 430.116 451.11 454.02C451.507 455.425 451.331 456.931 450.618 458.205C449.906 459.48 448.717 460.42 447.312 460.818C446.616 461.017 445.888 461.076 445.17 460.992C444.451 460.908 443.756 460.684 443.124 460.331C442.493 459.978 441.937 459.504 441.489 458.936C441.041 458.368 440.71 457.717 440.514 457.02C434.64 436.29 417.264 418.242 392.832 407.508C370.434 397.668 345.894 394.824 320.616 392.568L314.484 392.028C291.258 390 267.27 387.924 244.602 380.4C211.896 369.564 181.5 346.842 159 316.41C138.942 289.242 124.8 256.248 116.91 218.34C110.16 185.802 109.164 140.25 112.2 112.578" fill="#E2E2E0"/>
<path d="M445.8 463.152C445.626 463.152 445.458 463.152 445.284 463.152C443.722 463.042 442.231 462.454 441.015 461.468C439.799 460.481 438.916 459.144 438.486 457.638C432.78 437.508 415.83 419.952 391.974 409.476C369.87 399.762 345.516 396.942 320.418 394.704C318.582 394.536 316.74 394.374 314.904 394.218L314.304 394.164C290.982 392.118 266.904 390.012 243.972 382.416C210.828 371.4 180.066 348.432 157.326 317.658C137.07 290.244 122.778 256.974 114.852 218.766C107.874 185.112 107.208 138.816 110.13 112.35C110.16 112.074 110.244 111.807 110.377 111.564C110.51 111.321 110.69 111.106 110.906 110.932C111.122 110.758 111.371 110.629 111.637 110.551C111.903 110.473 112.182 110.448 112.458 110.478C112.734 110.508 113.001 110.592 113.244 110.725C113.488 110.858 113.702 111.038 113.876 111.254C114.05 111.471 114.18 111.719 114.257 111.985C114.335 112.251 114.36 112.53 114.33 112.806C111.444 138.96 112.098 184.686 118.986 217.914C126.786 255.522 140.832 288.24 160.728 315.162C182.958 345.246 212.988 367.71 245.286 378.414C267.72 385.848 291.582 387.942 314.658 389.958L315.258 390.012L320.778 390.498C346.236 392.778 370.962 395.64 393.654 405.612C418.656 416.598 436.47 435.132 442.512 456.474C442.704 457.148 443.099 457.746 443.643 458.188C444.188 458.629 444.855 458.892 445.554 458.94C445.946 458.969 446.34 458.929 446.718 458.82C447.585 458.573 448.319 457.992 448.759 457.205C449.198 456.418 449.308 455.488 449.064 454.62C442.464 431.322 423.264 411.186 396.39 399.378C372.78 389.004 346.392 385.956 321.39 383.724L315.804 383.232L315.246 383.184C292.56 381.198 269.1 379.14 247.446 371.958C216.432 361.68 187.584 340.08 166.2 311.118C146.874 285 133.23 253.2 125.634 216.534C119.472 186.834 117.234 160.956 118.866 137.424C118.885 137.148 118.958 136.879 119.081 136.631C119.204 136.384 119.375 136.163 119.583 135.981C119.791 135.8 120.033 135.661 120.295 135.573C120.557 135.485 120.834 135.449 121.11 135.468C121.386 135.487 121.655 135.56 121.903 135.683C122.15 135.806 122.371 135.977 122.553 136.185C122.734 136.393 122.873 136.636 122.961 136.898C123.049 137.16 123.085 137.436 123.066 137.712C121.482 160.854 123.666 186.36 129.75 215.676C137.22 251.718 150.6 282.984 169.56 308.622C190.452 336.888 218.568 357.966 248.76 367.962C269.97 374.994 293.16 377.028 315.63 378.99L316.188 379.038L321.786 379.536C347.136 381.798 373.914 384.9 398.106 395.532C426.132 407.844 446.184 428.964 453.132 453.468C453.679 455.409 453.435 457.487 452.452 459.247C451.468 461.008 449.827 462.306 447.888 462.858C447.209 463.055 446.506 463.154 445.8 463.152Z" fill="#4C3133"/>
<path d="M483.173 499.031L450.891 512.423L460.8 536.309L493.082 522.918L483.173 499.031Z" fill="#E2E2E0"/>
<path d="M460.8 538.392C460.384 538.392 459.978 538.269 459.632 538.039C459.286 537.808 459.016 537.48 458.856 537.096L448.944 513.204C448.732 512.689 448.732 512.111 448.946 511.597C449.16 511.083 449.569 510.675 450.084 510.462L482.4 497.07C482.914 496.858 483.491 496.857 484.006 497.07C484.52 497.283 484.928 497.691 485.142 498.204L495.054 522.096C495.267 522.61 495.267 523.188 495.054 523.702C494.842 524.216 494.434 524.625 493.92 524.838L461.64 538.23C461.374 538.34 461.088 538.395 460.8 538.392ZM453.63 513.534L461.934 533.544L490.332 521.76L482.034 501.756L453.63 513.534Z" fill="#4C3133"/>
<path d="M438.855 455.734L452.184 450.205C456.236 448.524 460.79 448.522 464.844 450.199C468.898 451.875 472.12 455.094 473.801 459.146L491.191 501.067C491.717 502.334 491.717 503.758 491.193 505.025C490.669 506.293 489.663 507.3 488.396 507.826L454.062 522.068C452.795 522.594 451.372 522.594 450.104 522.07C448.836 521.546 447.829 520.539 447.303 519.272L429.916 477.358C428.235 473.305 428.233 468.751 429.909 464.697C431.586 460.643 434.805 457.421 438.857 455.74L438.855 455.734Z" fill="#F0F0F0"/>
<path d="M458.538 448.92C461.809 448.92 465.007 449.888 467.728 451.704C470.448 453.519 472.571 456.1 473.826 459.12L491.226 501.042C491.487 501.672 491.621 502.347 491.62 503.028C491.618 503.71 491.483 504.385 491.22 505.014C490.958 505.643 490.573 506.213 490.089 506.693C489.605 507.173 489.031 507.553 488.4 507.81L454.074 522.06C453.446 522.319 452.773 522.453 452.094 522.456C451.068 522.458 450.064 522.156 449.21 521.588C448.356 521.02 447.689 520.211 447.294 519.264L429.894 477.342C428.221 473.291 428.223 468.741 429.9 464.692C431.577 460.642 434.792 457.424 438.84 455.742L452.178 450.21C454.186 449.375 456.339 448.945 458.514 448.944M458.514 444.744C455.799 444.739 453.11 445.269 450.6 446.304L437.256 451.842C434.74 452.885 432.454 454.414 430.528 456.342C428.603 458.269 427.076 460.556 426.035 463.074C424.995 465.591 424.46 468.289 424.462 471.013C424.464 473.737 425.003 476.434 426.048 478.95L443.448 520.872C443.918 522.01 444.609 523.044 445.48 523.915C446.351 524.786 447.385 525.477 448.523 525.947C449.661 526.417 450.881 526.659 452.113 526.657C453.344 526.655 454.563 526.41 455.7 525.936L490.044 511.686C492.338 510.732 494.16 508.907 495.111 506.611C496.061 504.315 496.062 501.737 495.114 499.44L477.714 457.518C476.149 453.725 473.491 450.483 470.079 448.204C466.667 445.925 462.653 444.712 458.55 444.72L458.514 444.744Z" fill="#4C3133"/>
<path d="M456.912 515.664L439.512 473.742C437.839 469.691 437.841 465.142 439.518 461.092C441.195 457.042 444.41 453.824 448.458 452.142L455.478 449.232C454.353 449.441 453.252 449.769 452.196 450.21L438.858 455.742C434.81 457.424 431.595 460.642 429.918 464.692C428.241 468.742 428.239 473.291 429.912 477.342L447.312 519.264C447.839 520.531 448.847 521.537 450.115 522.061C451.382 522.585 452.807 522.585 454.074 522.06L461.814 518.85C460.771 518.875 459.745 518.584 458.87 518.015C457.996 517.447 457.313 516.627 456.912 515.664Z" fill="#E2E2E0"/>
<path d="M463.056 474.08L448.143 480.267L455.642 498.345L470.556 492.159L463.056 474.08Z" fill="#E2E2E0"/>
<path d="M455.652 500.4C455.237 500.399 454.832 500.275 454.487 500.045C454.142 499.814 453.873 499.487 453.714 499.104L446.214 481.026C446.108 480.771 446.053 480.498 446.052 480.222C446.052 479.946 446.106 479.672 446.211 479.417C446.316 479.162 446.471 478.93 446.666 478.734C446.861 478.539 447.093 478.384 447.348 478.278L462.264 472.092C462.518 471.987 462.79 471.932 463.065 471.932C463.34 471.932 463.612 471.987 463.866 472.092C464.381 472.305 464.79 472.713 465.006 473.226L472.506 491.304C472.719 491.819 472.719 492.397 472.507 492.912C472.294 493.427 471.886 493.837 471.372 494.052L456.456 500.238C456.201 500.345 455.928 500.4 455.652 500.4ZM450.894 481.356L456.786 495.6L467.82 491.022L461.928 476.826L450.894 481.356Z" fill="#4C3133"/>
<path d="M469.956 533.082C469.526 533.081 469.107 532.948 468.755 532.701C468.403 532.455 468.135 532.106 467.988 531.702L463.926 520.62C463.735 520.097 463.76 519.519 463.995 519.013C464.23 518.508 464.656 518.117 465.18 517.926C465.704 517.735 466.282 517.76 466.787 517.995C467.292 518.23 467.683 518.656 467.874 519.18L471.93 530.256C472.122 530.779 472.098 531.356 471.864 531.861C471.63 532.367 471.205 532.758 470.682 532.95C470.45 533.037 470.204 533.082 469.956 533.082Z" fill="#4C3133"/>
<path d="M481.8 529.68C481.383 529.68 480.976 529.557 480.63 529.325C480.284 529.093 480.014 528.764 479.856 528.378L474.75 515.898C474.645 515.643 474.592 515.369 474.593 515.094C474.594 514.818 474.649 514.544 474.755 514.29C474.862 514.035 475.017 513.804 475.213 513.61C475.409 513.415 475.641 513.261 475.896 513.156C476.151 513.051 476.425 512.998 476.701 512.999C476.977 513 477.25 513.055 477.504 513.161C477.759 513.268 477.99 513.423 478.185 513.619C478.379 513.815 478.533 514.047 478.638 514.302L483.744 526.782C483.954 527.299 483.951 527.877 483.735 528.391C483.519 528.905 483.108 529.313 482.592 529.524C482.341 529.628 482.072 529.681 481.8 529.68Z" fill="#4C3133"/>
<path d="M141.468 267.942C137.04 250.77 148.578 243.426 152.028 252.378C155.478 261.33 158.028 273.876 161.274 278.568C165.474 284.664 153.36 309.39 128.514 298.968C103.668 288.546 110.13 257.736 124.128 250.512C124.128 250.512 130.29 272.952 137.43 270.534C144.57 268.116 141.468 267.942 141.468 267.942Z" fill="#C5E6F1"/>
<path d="M140.058 303.558C135.805 303.507 131.605 302.607 127.704 300.912C116.7 296.304 110.124 287.112 109.668 275.61C109.218 264.264 114.894 252.924 123.168 248.652C123.447 248.508 123.754 248.427 124.068 248.417C124.382 248.407 124.694 248.467 124.982 248.593C125.269 248.719 125.525 248.908 125.73 249.145C125.936 249.383 126.085 249.663 126.168 249.966C127.842 256.056 131.862 266.442 135.516 268.38C135.697 268.502 135.904 268.581 136.12 268.612C136.336 268.642 136.556 268.622 136.764 268.554C137.88 268.182 138.678 267.876 139.242 267.648C136.578 256.248 140.478 248.406 145.626 246.75C149.136 245.628 152.424 247.536 154.026 251.622C155.412 255.222 156.642 259.344 157.836 263.334C159.516 268.974 161.256 274.8 163.038 277.368C165.6 281.064 163.866 288.576 159.09 294.474C156.826 297.345 153.932 299.658 150.632 301.233C147.332 302.808 143.714 303.603 140.058 303.558ZM122.916 253.758C117.3 258.066 113.526 266.85 113.868 275.424C114.096 281.166 116.406 291.624 129.324 297.024C144.324 303.306 152.826 295.47 155.79 291.81C159.78 286.884 160.68 281.376 159.552 279.744C157.386 276.63 155.634 270.744 153.774 264.516C152.61 260.61 151.374 256.566 150.072 253.116C149.634 251.988 148.644 250.17 146.898 250.716C144.132 251.604 141.186 257.154 143.25 266.358C143.512 266.538 143.733 266.771 143.9 267.042C144.066 267.312 144.174 267.615 144.216 267.93C144.516 270.162 142.104 271.146 138.102 272.502C137.351 272.75 136.556 272.838 135.769 272.762C134.982 272.685 134.219 272.446 133.53 272.058C128.436 269.4 124.554 258.912 122.916 253.8V253.758Z" fill="#4C3133"/>
<path d="M166.53 337.59C166.53 337.59 179.58 325.122 189.078 339.132C198.576 353.142 195.96 360 189.078 361.818" fill="#C5E6F1"/>
<path d="M189.066 363.918C188.554 363.921 188.058 363.736 187.672 363.399C187.286 363.062 187.037 362.595 186.972 362.087C186.906 361.579 187.028 361.064 187.316 360.64C187.603 360.216 188.036 359.912 188.532 359.784C190.74 359.184 192.168 358.08 192.786 356.442C194.046 353.076 192.114 347.346 187.338 340.308C185.01 336.876 182.286 334.962 179.238 334.632C173.442 334.032 168.036 339.06 167.982 339.114C167.579 339.498 167.039 339.707 166.482 339.693C165.925 339.68 165.396 339.446 165.012 339.042C164.628 338.639 164.419 338.099 164.433 337.542C164.446 336.985 164.681 336.456 165.084 336.072C165.354 335.808 171.924 329.628 179.664 330.456C184.002 330.918 187.758 333.456 190.818 337.95C196.536 346.386 198.522 353.1 196.716 357.912C195.612 360.858 193.152 362.91 189.606 363.846C189.43 363.894 189.248 363.918 189.066 363.918Z" fill="#4C3133"/>
<path d="M196.2 338.172C198.102 354.486 185.55 343.692 182.4 336.438C179.25 329.184 181.2 324.702 188.616 324.552C192.342 324.48 202.032 328.446 205.89 342.138C209.748 355.83 196.734 357.954 196.734 357.954" fill="#C5E6F1"/>
<path d="M196.746 360.054C196.189 360.099 195.637 359.92 195.212 359.558C194.787 359.195 194.523 358.679 194.478 358.122C194.434 357.565 194.612 357.013 194.974 356.588C195.337 356.163 195.853 355.899 196.41 355.854C196.446 355.854 201.048 355.026 203.268 351.498C204.69 349.254 204.894 346.29 203.868 342.684C200.466 330.618 192.126 326.628 188.736 326.628H188.658C186.858 326.664 184.518 327.018 183.57 328.488C182.622 329.958 182.94 332.406 184.32 335.574C186.42 340.374 191.868 345.006 193.506 344.574C193.776 344.502 194.706 343.236 194.106 338.4C194.042 337.843 194.201 337.283 194.549 336.844C194.898 336.405 195.406 336.121 195.963 336.057C196.52 335.993 197.08 336.152 197.519 336.5C197.959 336.849 198.242 337.357 198.306 337.914C199.032 344.166 197.79 347.772 194.616 348.63C189.306 350.052 182.496 341.868 180.492 337.23C178.488 332.592 178.332 328.89 180.054 326.196C181.614 323.796 184.488 322.488 188.592 322.404H188.724C193.32 322.404 203.838 327.012 207.924 341.52C209.286 346.32 208.908 350.46 206.802 353.76C203.538 358.92 197.346 360 197.082 360C196.972 360.027 196.859 360.045 196.746 360.054Z" fill="#4C3133"/>
<path d="M484.656 343.584C492.94 343.584 499.656 336.868 499.656 328.584C499.656 320.3 492.94 313.584 484.656 313.584C476.372 313.584 469.656 320.3 469.656 328.584C469.656 336.868 476.372 343.584 484.656 343.584Z" fill="#FFD900"/>
<path d="M484.668 345.684C484.027 345.684 483.386 345.648 482.748 345.576C478.327 345.077 474.276 342.873 471.454 339.433C468.633 335.994 467.264 331.59 467.639 327.157C468.014 322.724 470.102 318.612 473.461 315.695C476.82 312.777 481.184 311.285 485.626 311.535C490.068 311.785 494.237 313.757 497.247 317.032C500.258 320.308 501.872 324.628 501.747 329.075C501.623 333.522 499.769 337.745 496.579 340.847C493.39 343.948 489.117 345.684 484.668 345.684ZM484.632 315.684C482.143 315.688 479.708 316.412 477.621 317.769C475.534 319.125 473.885 321.057 472.871 323.33C471.857 325.604 471.523 328.122 471.908 330.581C472.293 333.04 473.382 335.335 475.042 337.189C476.703 339.044 478.864 340.378 481.266 341.032C483.667 341.685 486.207 341.63 488.578 340.872C490.949 340.115 493.05 338.688 494.629 336.763C496.207 334.838 497.194 332.498 497.472 330.024C497.661 328.339 497.515 326.633 497.044 325.004C496.573 323.375 495.786 321.855 494.727 320.531C493.669 319.206 492.359 318.104 490.874 317.285C489.389 316.467 487.757 315.949 486.072 315.762C485.594 315.71 485.113 315.684 484.632 315.684Z" fill="#4C3133"/>
<path d="M449.466 66.9841C486.888 97.8421 512.67 143.028 520.2 190.944C527.73 238.86 517.05 289.8 490.902 330.6C490.171 331.742 489.016 332.546 487.692 332.837C486.367 333.127 484.982 332.879 483.84 332.148C482.698 331.417 481.894 330.262 481.603 328.938C481.313 327.613 481.561 326.228 482.292 325.086C507.114 286.308 517.248 237.984 510.096 192.486C502.944 146.988 478.476 104.124 442.956 74.8321L428.694 63.2461" fill="#E2E2E0"/>
<path d="M486.6 335.082C486.307 335.082 486.015 335.064 485.724 335.028C484.514 334.882 483.362 334.431 482.374 333.719C481.386 333.006 480.595 332.054 480.075 330.952C479.556 329.85 479.324 328.634 479.402 327.418C479.48 326.203 479.865 325.026 480.522 324C505.068 285.654 515.094 237.858 508.026 192.882C500.958 147.906 476.754 105.462 441.6 76.4941L427.368 64.9201C426.935 64.5684 426.66 64.0592 426.602 63.5045C426.545 62.9497 426.71 62.3949 427.062 61.9621C427.414 61.5293 427.923 61.2539 428.478 61.1965C429.032 61.1391 429.587 61.3044 430.02 61.6561L444.282 73.2421C480.204 102.864 504.948 146.226 512.172 192.204C519.396 238.182 509.172 287.04 484.062 326.244C483.784 326.672 483.62 327.163 483.584 327.671C483.549 328.18 483.644 328.689 483.86 329.151C484.076 329.613 484.407 330.012 484.82 330.311C485.233 330.609 485.716 330.798 486.222 330.858C486.787 330.93 487.36 330.839 487.876 330.597C488.391 330.355 488.827 329.971 489.132 329.49C515.01 289.062 525.576 238.686 518.124 191.268C510.672 143.85 485.16 99.1441 448.128 68.6041C447.716 68.2447 447.46 67.7387 447.415 67.1937C447.37 66.6487 447.539 66.1076 447.887 65.6855C448.235 65.2635 448.734 64.9938 449.277 64.9337C449.821 64.8737 450.366 65.0281 450.798 65.3641C488.598 96.5641 514.662 142.2 522.276 190.614C529.89 239.028 519.096 290.478 492.672 331.758C492.016 332.773 491.118 333.609 490.057 334.19C488.997 334.77 487.809 335.077 486.6 335.082Z" fill="#4C3133"/>
<path d="M443.34 64.0141C442.844 64.0144 442.364 63.8402 441.984 63.5221L438.678 60.7321C438.458 60.5572 438.276 60.3401 438.142 60.0936C438.008 59.8471 437.925 59.5762 437.897 59.2969C437.869 59.0176 437.898 58.7356 437.981 58.4675C438.064 58.1995 438.2 57.9508 438.381 57.7362C438.562 57.5216 438.784 57.3455 439.034 57.2182C439.284 57.0909 439.557 57.015 439.837 56.9951C440.117 56.9751 440.398 57.0115 440.664 57.102C440.93 57.1925 441.174 57.3354 441.384 57.5221L444.69 60.3061C445.02 60.5832 445.257 60.9551 445.368 61.3712C445.479 61.7874 445.46 62.2278 445.313 62.6326C445.165 63.0374 444.897 63.3871 444.544 63.6342C444.191 63.8814 443.771 64.014 443.34 64.0141Z" fill="#4C3133"/>
<path d="M423.132 61.1401C422.672 61.142 422.224 60.9899 421.86 60.7081L413.52 54.3421C413.301 54.1751 413.116 53.9664 412.977 53.7281C412.838 53.4898 412.748 53.2265 412.711 52.9532C412.674 52.68 412.691 52.402 412.761 52.1354C412.832 51.8687 412.954 51.6185 413.121 51.3991C413.288 51.1797 413.497 50.9953 413.735 50.8565C413.973 50.7177 414.237 50.6271 414.51 50.5901C414.783 50.553 415.061 50.5702 415.328 50.6405C415.594 50.7109 415.845 50.8331 416.064 51.0001L424.41 57.3721C424.759 57.639 425.015 58.0085 425.143 58.4287C425.271 58.8489 425.264 59.2987 425.123 59.7146C424.982 60.1306 424.714 60.4918 424.357 60.7476C424 61.0033 423.571 61.1406 423.132 61.1401Z" fill="#4C3133"/>
</svg>
