<svg width="600" height="600" viewBox="0 0 600 600" fill="none" xmlns="http://www.w3.org/2000/svg">
<path d="M450.786 422.238C453.71 410.516 455.185 398.48 455.178 386.4C455.178 305.01 389.178 239.034 307.812 239.034C226.446 239.034 160.452 305.034 160.452 386.4C160.447 398.472 161.922 410.5 164.844 422.214L450.786 422.238Z" fill="#F0F0F0"/>
<path d="M69.45 426C68.9586 426.001 68.4826 425.829 68.1052 425.514C67.7279 425.199 67.4733 424.762 67.386 424.278C60.0812 384.003 62.9878 342.54 75.84 303.678C75.9222 303.41 76.0571 303.162 76.2367 302.947C76.4162 302.733 76.6369 302.556 76.8857 302.428C77.1345 302.3 77.4064 302.223 77.6854 302.201C77.9645 302.179 78.245 302.214 78.5106 302.302C78.7761 302.391 79.0213 302.531 79.2318 302.716C79.4422 302.9 79.6137 303.125 79.736 303.377C79.8584 303.628 79.9292 303.902 79.9443 304.181C79.9594 304.461 79.9185 304.741 79.824 305.004C71.7365 329.352 67.6278 354.846 67.656 380.502C67.6559 394.926 68.947 409.322 71.514 423.516C71.5729 423.819 71.5635 424.131 71.4867 424.429C71.4098 424.728 71.2674 425.006 71.0697 425.243C70.8721 425.479 70.6241 425.669 70.344 425.798C70.0638 425.927 69.7584 425.992 69.45 425.988V426Z" fill="#F0F0F0"/>
<path d="M544.746 343.908C544.248 343.907 543.766 343.73 543.387 343.406C543.008 343.083 542.756 342.636 542.676 342.144C542.076 338.454 541.392 334.734 540.624 331.08C540.515 330.537 540.625 329.973 540.929 329.511C541.234 329.049 541.709 328.725 542.251 328.611C542.793 328.497 543.358 328.602 543.823 328.903C544.288 329.203 544.615 329.675 544.734 330.216C545.514 333.936 546.216 337.722 546.822 341.472C546.866 341.744 546.855 342.022 546.791 342.29C546.727 342.557 546.611 342.81 546.45 343.033C546.288 343.256 546.084 343.445 545.849 343.589C545.615 343.733 545.354 343.829 545.082 343.872C544.971 343.893 544.859 343.905 544.746 343.908V343.908Z" fill="#F0F0F0"/>
<path d="M539.28 318.696C538.819 318.695 538.371 318.543 538.005 318.264C537.639 317.984 537.374 317.592 537.252 317.148C526.786 279.185 507.121 244.388 480 215.838C479.798 215.64 479.639 215.404 479.53 215.144C479.422 214.884 479.367 214.604 479.369 214.322C479.371 214.04 479.43 213.761 479.542 213.502C479.655 213.243 479.818 213.01 480.022 212.815C480.227 212.621 480.468 212.47 480.732 212.371C480.997 212.272 481.278 212.227 481.56 212.239C481.842 212.251 482.118 212.32 482.373 212.442C482.627 212.563 482.855 212.734 483.042 212.946C510.652 241.994 530.672 277.404 541.326 316.038C541.4 316.304 541.42 316.582 541.386 316.855C541.352 317.129 541.264 317.394 541.127 317.633C540.991 317.873 540.808 318.084 540.59 318.252C540.372 318.421 540.122 318.546 539.856 318.618C539.669 318.672 539.475 318.698 539.28 318.696V318.696Z" fill="#F0F0F0"/>
<path d="M319.674 141.72H319.602C316.752 141.624 313.854 141.576 311.016 141.582C310.459 141.582 309.925 141.361 309.531 140.967C309.137 140.573 308.916 140.039 308.916 139.482C308.916 138.925 309.137 138.391 309.531 137.997C309.925 137.603 310.459 137.382 311.016 137.382C313.92 137.382 316.86 137.424 319.758 137.52C320.315 137.529 320.845 137.76 321.232 138.16C321.619 138.561 321.832 139.099 321.822 139.656C321.812 140.213 321.582 140.743 321.181 141.13C320.781 141.517 320.243 141.729 319.686 141.72H319.674Z" fill="#F0F0F0"/>
<path d="M165.396 187.2C164.953 187.2 164.521 187.059 164.162 186.799C163.803 186.538 163.536 186.171 163.399 185.749C163.262 185.328 163.261 184.874 163.398 184.452C163.535 184.03 163.802 183.662 164.16 183.402C202.043 155.928 247.079 140.026 293.814 137.622C294.371 137.592 294.917 137.785 295.331 138.158C295.746 138.531 295.996 139.054 296.025 139.611C296.054 140.168 295.861 140.713 295.488 141.128C295.115 141.543 294.593 141.792 294.036 141.822C248.108 144.187 203.851 159.818 166.626 186.822C166.266 187.074 165.836 187.206 165.396 187.2V187.2Z" fill="#F0F0F0"/>
<path d="M469.392 328.656C468.961 328.655 468.54 328.521 468.187 328.274C467.834 328.026 467.566 327.675 467.418 327.27C460.847 309.202 451.252 292.382 439.044 277.53C438.703 277.098 438.546 276.55 438.605 276.003C438.664 275.457 438.935 274.955 439.361 274.606C439.786 274.257 440.331 274.089 440.878 274.138C441.426 274.186 441.933 274.448 442.29 274.866C454.798 290.087 464.63 307.322 471.366 325.836C471.555 326.359 471.53 326.935 471.295 327.439C471.06 327.943 470.634 328.333 470.112 328.524C469.882 328.611 469.638 328.656 469.392 328.656V328.656Z" fill="#F0F0F0"/>
<path d="M409.944 249.036C409.493 249.034 409.053 248.889 408.69 248.622C393.67 237.462 376.902 228.872 359.07 223.2C358.803 223.12 358.554 222.988 358.338 222.811C358.122 222.634 357.944 222.416 357.813 222.169C357.683 221.923 357.602 221.653 357.578 221.375C357.553 221.097 357.583 220.817 357.668 220.551C357.752 220.285 357.889 220.038 358.07 219.826C358.251 219.613 358.472 219.439 358.721 219.313C358.97 219.187 359.242 219.112 359.52 219.092C359.798 219.072 360.078 219.108 360.342 219.198C378.619 225.022 395.804 233.835 411.198 245.28C411.553 245.543 411.815 245.912 411.948 246.333C412.082 246.754 412.078 247.207 411.94 247.626C411.801 248.045 411.533 248.41 411.175 248.669C410.816 248.927 410.386 249.066 409.944 249.066V249.036Z" fill="#F0F0F0"/>
<path d="M336.354 217.59C336.236 217.601 336.118 217.601 336 217.59C331.254 216.786 326.4 216.174 321.6 215.79C321.043 215.744 320.527 215.478 320.166 215.052C319.805 214.625 319.628 214.073 319.674 213.516C319.72 212.959 319.986 212.443 320.412 212.082C320.839 211.721 321.391 211.544 321.948 211.59C326.88 212.004 331.854 212.634 336.714 213.456C337.232 213.544 337.698 213.824 338.02 214.24C338.342 214.655 338.497 215.176 338.453 215.7C338.409 216.224 338.171 216.713 337.784 217.069C337.398 217.426 336.892 217.624 336.366 217.626L336.354 217.59Z" fill="#F0F0F0"/>
<path d="M223.83 236.628C223.365 236.627 222.914 236.471 222.547 236.186C222.18 235.901 221.918 235.502 221.802 235.052C221.686 234.602 221.722 234.126 221.906 233.699C222.09 233.272 222.41 232.918 222.816 232.692C247.558 219.042 275.241 211.595 303.492 210.99H303.534C304.091 210.984 304.628 211.199 305.026 211.588C305.424 211.977 305.652 212.509 305.658 213.066C305.664 213.623 305.449 214.16 305.06 214.558C304.671 214.956 304.139 215.184 303.582 215.19C276.012 215.78 248.997 223.046 224.85 236.364C224.538 236.538 224.187 236.629 223.83 236.628V236.628Z" fill="#F0F0F0"/>
<path d="M138.714 424.47C138.235 424.469 137.77 424.304 137.397 424.003C137.024 423.702 136.764 423.282 136.662 422.814C129.908 391.624 131.775 359.183 142.062 328.974C142.251 328.458 142.635 328.038 143.131 327.802C143.626 327.566 144.195 327.533 144.714 327.711C145.234 327.889 145.663 328.264 145.91 328.754C146.156 329.245 146.201 329.813 146.034 330.336C136.004 359.822 134.192 391.482 140.79 421.92C140.908 422.464 140.806 423.033 140.505 423.502C140.205 423.97 139.731 424.301 139.188 424.422C139.032 424.454 138.873 424.47 138.714 424.47V424.47Z" fill="#F0F0F0"/>
<path d="M342.042 186.918C341.919 186.917 341.797 186.905 341.676 186.882C333.61 185.465 325.465 184.549 317.286 184.14C316.729 184.112 316.206 183.864 315.832 183.45C315.458 183.037 315.263 182.492 315.291 181.935C315.319 181.378 315.567 180.855 315.98 180.48C316.394 180.106 316.939 179.912 317.496 179.94C325.85 180.361 334.169 181.297 342.408 182.742C342.928 182.83 343.395 183.111 343.717 183.529C344.039 183.947 344.193 184.47 344.146 184.995C344.1 185.521 343.858 186.009 343.468 186.364C343.078 186.719 342.569 186.915 342.042 186.912V186.918Z" fill="#F0F0F0"/>
<path d="M317.4 184.14H317.292C313.974 183.972 310.602 183.888 307.26 183.888C306.703 183.888 306.169 183.667 305.775 183.273C305.381 182.879 305.16 182.345 305.16 181.788C305.16 181.231 305.381 180.697 305.775 180.303C306.169 179.909 306.703 179.688 307.26 179.688C310.668 179.688 314.112 179.778 317.502 179.946C318.059 179.96 318.588 180.194 318.972 180.597C319.356 181.001 319.565 181.54 319.551 182.097C319.538 182.654 319.303 183.183 318.9 183.567C318.496 183.951 317.957 184.16 317.4 184.146V184.14Z" fill="#F0F0F0"/>
<path d="M118.392 319.428C118.164 319.427 117.937 319.391 117.72 319.32C117.192 319.141 116.757 318.76 116.51 318.26C116.262 317.761 116.223 317.184 116.4 316.656C117.888 312.246 119.556 307.83 121.35 303.534C121.573 303.034 121.983 302.641 122.492 302.439C123.001 302.237 123.569 302.241 124.074 302.452C124.58 302.662 124.983 303.062 125.198 303.566C125.414 304.069 125.423 304.637 125.226 305.148C123.468 309.348 121.836 313.68 120.378 318C120.238 318.416 119.972 318.778 119.615 319.034C119.259 319.29 118.831 319.428 118.392 319.428V319.428Z" fill="#F0F0F0"/>
<path d="M572.4 426.144H34.296C33.7391 426.144 33.2049 425.923 32.8111 425.529C32.4173 425.135 32.196 424.601 32.196 424.044C32.196 423.487 32.4173 422.953 32.8111 422.559C33.2049 422.165 33.7391 421.944 34.296 421.944H572.4C572.957 421.944 573.491 422.165 573.885 422.559C574.279 422.953 574.5 423.487 574.5 424.044C574.5 424.601 574.279 425.135 573.885 425.529C573.491 425.923 572.957 426.144 572.4 426.144V426.144Z" fill="#F0F0F0"/>
<path d="M493.698 258.348C493.698 258.348 497.184 243 508.332 243C519.48 243 521.574 255.54 521.574 255.54C521.574 255.54 534.114 256.242 534.114 263.208C534.114 270.174 525.75 268.8 525.75 268.8H484.638C484.638 268.8 477 261.132 493.698 258.348Z" fill="white"/>
<path d="M508.332 243C519.48 243 521.574 255.54 521.574 255.54C521.574 255.54 534.114 256.242 534.114 263.208C534.114 268.182 529.848 268.896 527.412 268.896C526.856 268.899 526.3 268.861 525.75 268.782H484.638C484.638 268.782 476.976 261.114 493.698 258.33C493.698 258.33 497.184 243 508.332 243V243ZM508.332 238.8C497.214 238.8 492.18 249.528 490.398 254.7C483.984 256.164 480.27 258.72 479.064 262.5C477.492 267.408 481.236 271.344 481.668 271.776C482.062 272.169 482.529 272.481 483.045 272.692C483.56 272.903 484.111 273.01 484.668 273.006H525.468C526.113 273.081 526.762 273.119 527.412 273.12C534.012 273.12 538.314 269.238 538.314 263.232C538.314 255.93 530.898 252.744 524.904 251.724C522.972 246.084 518.01 238.824 508.332 238.824V238.8Z" fill="#4C3133"/>
<path d="M480.666 175.59C480.066 167.856 467.58 166.074 463.422 169.644C463.422 169.644 460.422 143.472 439.038 139.908C417.654 136.344 407.514 141.708 397.404 157.746C397.404 157.746 380.16 154.182 380.754 169.644C380.754 169.644 359.934 169.644 360.528 178.566C361.122 187.488 373.614 185.7 373.614 185.7L475.908 185.1C475.908 185.1 481.26 183.324 480.666 175.59Z" fill="#F0F0F0"/>
<path d="M427.656 138.846C431.479 138.889 435.291 139.244 439.056 139.908C460.464 143.472 463.44 169.644 463.44 169.644C464.802 168.474 467.04 167.88 469.494 167.88C474.504 167.88 480.294 170.388 480.684 175.59C481.284 183.324 475.926 185.106 475.926 185.106L373.632 185.706C372.806 185.806 371.974 185.855 371.142 185.85C367.47 185.85 360.972 184.938 360.546 178.572C359.946 169.65 380.772 169.65 380.772 169.65C380.364 159.066 388.308 157.398 393.372 157.398C394.732 157.392 396.09 157.51 397.428 157.752C405.558 144.846 413.682 138.852 427.68 138.852L427.656 138.846ZM427.68 134.652C419.964 134.652 413.55 136.386 408.066 139.938C403.542 142.872 399.456 147.138 395.334 153.27C394.734 153.228 394.08 153.198 393.372 153.198C387.918 153.198 383.472 154.818 380.526 157.884C378.511 160.005 377.208 162.703 376.8 165.6C371.58 165.99 363.09 167.31 358.932 171.75C358.029 172.685 357.332 173.8 356.888 175.021C356.443 176.243 356.261 177.545 356.352 178.842C356.82 185.856 362.352 190.044 371.136 190.044C372.058 190.045 372.979 189.997 373.896 189.9L475.944 189.3C476.388 189.294 476.829 189.221 477.252 189.084C480.39 188.034 485.532 183.948 484.866 175.284C484.266 167.676 476.688 163.698 469.488 163.698C468.509 163.695 467.532 163.773 466.566 163.932C465.716 160.607 464.536 157.375 463.044 154.284C457.944 143.868 449.886 137.484 439.74 135.78C435.753 135.079 431.716 134.705 427.668 134.664L427.68 134.652Z" fill="#4C3133"/>
<path d="M368.874 179.298C366.098 179.628 363.287 179.474 360.564 178.842C361.404 187.44 373.614 185.7 373.614 185.7L475.908 185.1C475.908 185.1 479.79 183.804 480.576 178.644L368.874 179.298Z" fill="#E2E2E0"/>
<path d="M252.906 262.926C252.906 262.926 297.078 262.926 295.812 281.856C294.546 300.786 268.05 297 268.05 297L51 295.74C51 295.74 39.642 291.954 40.902 275.544C42.162 259.134 68.664 255.354 77.502 262.944C77.502 262.944 84.462 199.344 129.282 188.754C179.25 176.958 209.79 201.246 217.578 237.708C217.572 237.69 254.166 230.118 252.906 262.926Z" fill="white"/>
<path d="M153.504 185.73C189.156 185.73 211.104 207.552 217.572 237.69C220.419 237.172 223.307 236.919 226.2 236.934C236.934 236.934 253.8 240.474 252.93 262.926C252.93 262.926 297.102 262.926 295.836 281.856C294.936 295.374 281.16 297.312 273.36 297.312C271.593 297.322 269.827 297.218 268.074 297L51 295.74C51 295.74 39.642 291.954 40.902 275.544C41.748 264.51 54 259.2 64.644 259.2C69.816 259.2 74.604 260.46 77.496 262.938C77.496 262.938 84.456 199.338 129.276 188.748C137.209 186.814 145.339 185.808 153.504 185.748V185.73ZM153.504 181.548C145.012 181.613 136.556 182.66 128.304 184.668C117.258 187.272 107.46 193.068 99.192 201.942C92.706 208.896 87.156 217.722 82.704 228.174C78.8761 237.275 76.0397 246.761 74.244 256.47C71.1451 255.462 67.9024 254.968 64.644 255.006C51.534 255.006 37.734 261.954 36.708 275.244C35.946 285.192 39.348 291.27 42.342 294.612C44.3283 296.895 46.8436 298.656 49.668 299.742C50.0885 299.88 50.5275 299.952 50.97 299.958L267.768 301.2C269.616 301.41 271.476 301.514 273.336 301.512C289.464 301.512 299.184 294.45 300.006 282.138C300.152 280.031 299.854 277.916 299.13 275.931C298.407 273.947 297.274 272.136 295.806 270.618C291.048 265.53 282.288 261.99 269.76 260.094C265.561 259.468 261.334 259.054 257.094 258.852C256.668 251.556 254.316 245.652 250.074 241.23C243.318 234.204 233.364 232.734 226.2 232.734C224.154 232.734 222.306 232.854 220.8 233.004C216.978 218.382 209.574 206.07 199.254 197.22C187.284 186.954 171.468 181.53 153.528 181.53L153.504 181.548Z" fill="#4C3133"/>
<path d="M279.45 289.8L62.4 288.54C62.4 288.54 51.042 284.754 52.302 268.344C52.5065 265.504 53.5507 262.789 55.302 260.544C47.856 262.758 41.502 267.714 40.902 275.544C39.636 291.954 51 295.74 51 295.74L268.05 297C268.05 297 286.914 299.694 293.568 289.17C288.928 290.151 284.159 290.364 279.45 289.8V289.8Z" fill="#F0F0F0"/>
<path d="M264.114 451.938C264.114 451.938 274.668 424.8 268.8 395.4C262.932 366 308.358 355.02 323.742 380.718C339.126 406.416 341.322 448.992 341.322 448.992L337.662 469.548L264.114 451.938Z" fill="#C5E6F1"/>
<path d="M297.06 366.318C307.314 366.318 317.784 370.764 323.748 380.718C339.132 406.41 341.328 448.992 341.328 448.992L337.668 469.548L264.114 451.938C264.114 451.938 274.668 424.8 268.8 395.4C265.2 377.4 280.86 366.312 297.054 366.312L297.06 366.318ZM297.054 362.112C286.122 362.112 275.976 366.528 269.916 373.914C264.816 380.13 263.004 387.846 264.678 396.222C270.216 423.972 260.292 450.15 260.19 450.414C259.974 450.972 259.88 451.57 259.914 452.167C259.948 452.765 260.11 453.348 260.387 453.878C260.665 454.408 261.053 454.873 261.525 455.241C261.997 455.609 262.542 455.872 263.124 456.012L336.684 473.64C337.241 473.774 337.819 473.793 338.384 473.695C338.948 473.597 339.487 473.385 339.966 473.071C340.446 472.758 340.856 472.349 341.171 471.871C341.487 471.393 341.702 470.856 341.802 470.292L345.462 449.736C345.518 449.421 345.538 449.101 345.522 448.782C345.432 446.982 343.122 404.856 327.354 378.582C321.186 368.286 309.864 362.136 297.066 362.136L297.054 362.112Z" fill="#4C3133"/>
<path d="M341.328 448.998C341.328 448.998 339.132 406.398 323.748 380.724C315.552 367.032 298.83 363.762 285.882 368.124C296.442 367.836 307.398 372.234 313.548 382.524C328.932 408.216 331.128 450.798 331.128 450.798L328.2 467.286L337.68 469.554L341.328 448.998Z" fill="#81C4D4"/>
<path d="M261.486 453.3C261.201 453.301 260.918 453.244 260.656 453.131C260.394 453.019 260.158 452.854 259.962 452.646L172.8 360.876C172.417 360.472 172.209 359.932 172.224 359.375C172.239 358.818 172.474 358.289 172.878 357.906C173.282 357.522 173.822 357.315 174.379 357.33C174.936 357.344 175.465 357.58 175.848 357.984L263.016 449.784C263.301 450.08 263.493 450.454 263.567 450.859C263.641 451.264 263.594 451.682 263.432 452.06C263.27 452.438 263.001 452.761 262.657 452.986C262.313 453.212 261.91 453.332 261.498 453.33L261.486 453.3Z" fill="#4C3133"/>
<path d="M252.211 442.459C256.702 438.031 255.977 430.013 250.591 424.549C245.205 419.086 237.198 418.247 232.706 422.676C228.215 427.104 228.94 435.122 234.326 440.585C239.712 446.048 247.72 446.887 252.211 442.459Z" fill="#C5E6F1"/>
<path d="M246.528 447.198C241.973 447.094 237.642 445.199 234.474 441.924C228.234 435.666 227.448 426.27 232.728 420.984C233.896 419.84 235.28 418.939 236.799 418.334C238.319 417.73 239.943 417.433 241.578 417.462V417.462C246.133 417.565 250.464 419.46 253.632 422.736C259.872 428.994 260.658 438.39 255.378 443.676C254.21 444.82 252.826 445.721 251.307 446.325C249.787 446.93 248.163 447.227 246.528 447.198V447.198ZM241.578 421.662C240.495 421.63 239.416 421.816 238.406 422.209C237.396 422.602 236.475 423.193 235.698 423.948C232.056 427.602 232.836 434.334 237.45 438.948C239.828 441.436 243.088 442.888 246.528 442.992C247.611 443.024 248.69 442.838 249.7 442.445C250.71 442.052 251.631 441.461 252.408 440.706C256.05 437.052 255.27 430.32 250.656 425.706C248.278 423.218 245.018 421.766 241.578 421.662V421.662Z" fill="#4C3133"/>
<path d="M169.2 491.478C168.907 491.476 168.617 491.414 168.348 491.298C167.84 491.071 167.442 490.651 167.243 490.131C167.044 489.612 167.06 489.034 167.286 488.526C167.364 488.34 175.344 469.554 165.024 440.148C157.668 419.19 160.08 398.1 163.404 384.09C167.004 368.958 172.248 358.89 172.47 358.452C172.729 357.958 173.174 357.588 173.706 357.423C174.239 357.257 174.815 357.31 175.308 357.57C175.801 357.829 176.171 358.274 176.337 358.806C176.502 359.338 176.449 359.914 176.19 360.408C175.98 360.804 155.544 400.47 168.99 438.762C179.91 469.848 171.492 489.414 171.126 490.23C170.961 490.603 170.691 490.919 170.349 491.141C170.007 491.363 169.608 491.48 169.2 491.478V491.478Z" fill="#4C3133"/>
<path d="M301.362 409.41C301.536 399.702 293.73 392.784 287.028 396.126C280.326 399.468 269.352 398.436 269.352 398.436C270.4 404.335 270.821 410.328 270.606 416.316C270.606 416.316 301.2 419.118 301.362 409.41Z" fill="#81C4D4"/>
<path d="M283.2 356.046C292.404 352.926 304.332 354.318 313.014 358.446C316.812 360.246 320.358 362.742 324.51 363.582C328.662 364.422 333.804 362.928 335.25 359.022C336.102 356.718 335.448 354.09 334.02 352.11C332.592 350.13 330.468 348.72 328.254 347.616C322.624 344.84 316.297 343.796 310.074 344.616C308.394 344.838 306.096 344.832 305.7 343.23C305.394 341.994 306.636 340.878 307.866 340.428C309.096 339.978 310.5 339.828 311.466 338.94C312.702 337.836 312.774 335.844 311.952 334.44C311.028 333.057 309.641 332.049 308.04 331.596C301.692 329.424 294.336 332.604 290.04 337.74C285.744 342.876 284.04 349.56 283.08 356.082L283.2 356.046Z" fill="#C5E6F1"/>
<path d="M326.826 365.928C325.905 365.93 324.987 365.839 324.084 365.658C320.832 365.004 318.006 363.48 315.27 362.004C314.184 361.404 313.152 360.864 312.096 360.36C303.438 356.226 292.182 355.278 284.022 357.96C283.679 358.127 283.297 358.198 282.917 358.165C282.537 358.131 282.173 357.995 281.865 357.77C281.557 357.546 281.315 357.241 281.167 356.89C281.018 356.539 280.968 356.153 281.022 355.776C281.802 350.34 283.422 342.42 288.45 336.39C293.682 330.102 302.022 327.312 308.718 329.598C311.046 330.396 312.792 331.698 313.764 333.372C315.144 335.772 314.76 338.802 312.87 340.5C311.902 341.279 310.766 341.823 309.552 342.09C309.204 342.192 308.88 342.288 308.592 342.39C308.448 342.446 308.31 342.514 308.178 342.594C308.719 342.629 309.262 342.607 309.798 342.528C316.439 341.659 323.188 342.773 329.196 345.732C332.154 347.202 334.29 348.888 335.724 350.874C337.698 353.61 338.262 356.928 337.218 359.742C335.64 364.002 331.122 365.928 326.826 365.928ZM294.396 352.236C301.139 352.236 307.799 353.715 313.908 356.568C315.054 357.12 316.176 357.726 317.262 358.308C319.842 359.694 322.272 361.008 324.912 361.542C328.116 362.19 332.22 361.134 333.27 358.308C333.816 356.832 333.444 354.936 332.304 353.358C331.278 351.936 329.646 350.676 327.306 349.512C322.05 346.926 316.146 345.953 310.338 346.716C305.328 347.382 303.996 345.144 303.648 343.752C303.048 341.352 304.95 339.282 307.128 338.478C307.554 338.316 307.974 338.196 308.376 338.082C308.972 337.96 309.54 337.728 310.05 337.398C310.256 337.13 310.373 336.805 310.387 336.468C310.401 336.131 310.311 335.798 310.128 335.514C309.528 334.518 308.292 333.924 307.35 333.6C301.674 331.656 295.164 334.896 291.66 339.102C288.792 342.552 286.908 346.962 285.708 353.16C288.561 352.534 291.475 352.224 294.396 352.236V352.236Z" fill="#4C3133"/>
<path d="M288.99 391.632H282.948C282.391 391.632 281.857 391.41 281.463 391.017C281.069 390.623 280.848 390.089 280.848 389.532C280.848 388.975 281.069 388.441 281.463 388.047C281.857 387.653 282.391 387.432 282.948 387.432H288.99C289.547 387.432 290.081 387.653 290.475 388.047C290.869 388.441 291.09 388.975 291.09 389.532C291.09 390.089 290.869 390.623 290.475 391.017C290.081 391.41 289.547 391.632 288.99 391.632V391.632Z" fill="#4C3133"/>
<path d="M283.149 407.245C284.523 407.181 285.587 406.046 285.525 404.708C285.463 403.371 284.299 402.338 282.925 402.402C281.551 402.466 280.488 403.601 280.55 404.938C280.612 406.276 281.776 407.308 283.149 407.245Z" fill="#4C3133"/>
<path d="M217.53 454.338C221.406 471.504 227.952 486.426 238.044 498.384H403.59C413.478 486.708 419.946 471.906 423.39 454.338H217.53Z" fill="#F0F0F0"/>
<path d="M423.372 454.338C419.946 471.906 413.478 486.708 403.572 498.384H238.044C227.952 486.426 221.406 471.504 217.53 454.338H423.372ZM423.372 450.138H217.53C216.9 450.138 216.278 450.279 215.71 450.552C215.142 450.825 214.643 451.222 214.249 451.714C213.856 452.207 213.578 452.781 213.436 453.395C213.295 454.009 213.293 454.647 213.432 455.262C217.674 474.06 224.676 489.054 234.834 501.096C235.229 501.562 235.72 501.937 236.275 502.194C236.829 502.451 237.433 502.584 238.044 502.584H403.59C404.201 502.585 404.804 502.453 405.359 502.197C405.913 501.941 406.405 501.567 406.8 501.102C416.886 489.18 423.84 473.766 427.464 455.28C427.536 454.971 427.573 454.655 427.572 454.338C427.572 453.224 427.13 452.156 426.342 451.368C425.554 450.58 424.486 450.138 423.372 450.138V450.138Z" fill="#4C3133"/>
<path d="M413.802 454.338C411.939 461.664 409.266 468.759 405.834 475.494C403.494 480.035 399.95 483.844 395.59 486.506C391.23 489.167 386.222 490.578 381.114 490.584H232.236C234.015 493.297 235.955 495.902 238.044 498.384H403.59C413.478 486.708 419.946 471.906 423.39 454.338H413.802Z" fill="#E2E2E0"/>
<path d="M420.654 470.502H377.232C376.675 470.502 376.141 470.281 375.747 469.887C375.353 469.493 375.132 468.959 375.132 468.402C375.132 467.845 375.353 467.311 375.747 466.917C376.141 466.523 376.675 466.302 377.232 466.302H420.654C421.211 466.302 421.745 466.523 422.139 466.917C422.533 467.311 422.754 467.845 422.754 468.402C422.754 468.959 422.533 469.493 422.139 469.887C421.745 470.281 421.211 470.502 420.654 470.502Z" fill="#4C3133"/>
<path d="M345.324 469.302H221.082C220.525 469.302 219.991 469.081 219.597 468.687C219.203 468.293 218.982 467.759 218.982 467.202C218.982 466.645 219.203 466.111 219.597 465.717C219.991 465.323 220.525 465.102 221.082 465.102H345.324C345.881 465.102 346.415 465.323 346.809 465.717C347.203 466.111 347.424 466.645 347.424 467.202C347.424 467.759 347.203 468.293 346.809 468.687C346.415 469.081 345.881 469.302 345.324 469.302V469.302Z" fill="#4C3133"/>
<path d="M394.248 453.936C393.7 453.934 393.175 453.719 392.784 453.336C392.392 452.952 392.167 452.431 392.154 451.884L390.162 366.204C390.148 365.647 390.357 365.107 390.741 364.704C391.125 364.301 391.654 364.066 392.211 364.053C392.768 364.039 393.307 364.248 393.711 364.632C394.114 365.016 394.348 365.545 394.362 366.102L396.348 451.8C396.361 452.356 396.153 452.894 395.769 453.297C395.386 453.7 394.858 453.934 394.302 453.948L394.248 453.936Z" fill="#4C3133"/>
<path d="M377.028 336.522H409.488L399.552 371.31H385.638L377.028 336.522Z" fill="white"/>
<path d="M409.488 336.522L399.552 371.322H385.638L377.028 336.522H409.488ZM409.488 332.322H377.028C376.39 332.321 375.761 332.466 375.188 332.745C374.615 333.024 374.112 333.43 373.719 333.932C373.326 334.434 373.052 335.018 372.918 335.642C372.785 336.265 372.795 336.911 372.948 337.53L381.564 372.33C381.789 373.24 382.313 374.049 383.051 374.628C383.789 375.206 384.7 375.521 385.638 375.522H399.552C400.465 375.522 401.353 375.224 402.081 374.674C402.81 374.124 403.34 373.352 403.59 372.474L413.526 337.674C413.704 337.049 413.735 336.391 413.616 335.752C413.497 335.113 413.231 334.511 412.84 333.992C412.448 333.473 411.942 333.053 411.36 332.763C410.779 332.473 410.138 332.322 409.488 332.322V332.322Z" fill="#4C3133"/>
<path d="M365.1 337.164L392.928 320.412L418.098 337.164H365.1Z" fill="white"/>
<path d="M392.928 320.4L418.128 337.152H365.1L392.928 320.4ZM392.928 316.2C392.165 316.199 391.416 316.407 390.762 316.8L362.934 333.546C362.147 334.019 361.536 334.737 361.196 335.59C360.856 336.443 360.805 337.385 361.05 338.27C361.296 339.155 361.825 339.935 362.557 340.49C363.288 341.046 364.181 341.346 365.1 341.346H418.098C419 341.347 419.879 341.057 420.603 340.519C421.328 339.982 421.86 339.225 422.122 338.362C422.383 337.498 422.359 336.573 422.053 335.724C421.748 334.875 421.177 334.147 420.426 333.648L395.226 316.902C394.537 316.441 393.727 316.195 392.898 316.194L392.928 316.2Z" fill="#4C3133"/>
<path d="M419.898 370.704C421.296 370.704 422.43 369.57 422.43 368.172C422.43 366.773 421.296 365.64 419.898 365.64C418.5 365.64 417.366 366.773 417.366 368.172C417.366 369.57 418.5 370.704 419.898 370.704Z" fill="#4C3133"/>
<path d="M362.946 359.946C364.344 359.946 365.478 358.812 365.478 357.414C365.478 356.015 364.344 354.882 362.946 354.882C361.548 354.882 360.414 356.015 360.414 357.414C360.414 358.812 361.548 359.946 362.946 359.946Z" fill="#4C3133"/>
<path d="M374.34 395.382C375.738 395.382 376.872 394.248 376.872 392.85C376.872 391.451 375.738 390.318 374.34 390.318C372.942 390.318 371.808 391.451 371.808 392.85C371.808 394.248 372.942 395.382 374.34 395.382Z" fill="#4C3133"/>
<path d="M298.98 513.6H223.5C222.943 513.6 222.409 513.379 222.015 512.985C221.621 512.591 221.4 512.057 221.4 511.5C221.4 510.943 221.621 510.409 222.015 510.015C222.409 509.621 222.943 509.4 223.5 509.4H298.98C299.537 509.4 300.071 509.621 300.465 510.015C300.859 510.409 301.08 510.943 301.08 511.5C301.08 512.057 300.859 512.591 300.465 512.985C300.071 513.379 299.537 513.6 298.98 513.6V513.6Z" fill="#4C3133"/>
<path d="M361.98 528H286.5C285.943 528 285.409 527.779 285.015 527.385C284.621 526.991 284.4 526.457 284.4 525.9C284.4 525.343 284.621 524.809 285.015 524.415C285.409 524.021 285.943 523.8 286.5 523.8H361.98C362.537 523.8 363.071 524.021 363.465 524.415C363.859 524.809 364.08 525.343 364.08 525.9C364.08 526.457 363.859 526.991 363.465 527.385C363.071 527.779 362.537 528 361.98 528V528Z" fill="#4C3133"/>
<path d="M412.758 513.6H347.706C347.149 513.6 346.615 513.379 346.221 512.985C345.827 512.591 345.606 512.057 345.606 511.5C345.606 510.943 345.827 510.409 346.221 510.015C346.615 509.621 347.149 509.4 347.706 509.4H412.758C413.315 509.4 413.849 509.621 414.243 510.015C414.637 510.409 414.858 510.943 414.858 511.5C414.858 512.057 414.637 512.591 414.243 512.985C413.849 513.379 413.315 513.6 412.758 513.6Z" fill="#4C3133"/>
<path d="M207.252 513.6H193.626C193.069 513.6 192.535 513.379 192.141 512.985C191.747 512.591 191.526 512.057 191.526 511.5C191.526 510.943 191.747 510.409 192.141 510.015C192.535 509.621 193.069 509.4 193.626 509.4H207.252C207.809 509.4 208.343 509.621 208.737 510.015C209.131 510.409 209.352 510.943 209.352 511.5C209.352 512.057 209.131 512.591 208.737 512.985C208.343 513.379 207.809 513.6 207.252 513.6Z" fill="#4C3133"/>
<path d="M432.186 513.6H420.438C419.881 513.6 419.347 513.379 418.953 512.985C418.559 512.591 418.338 512.057 418.338 511.5C418.338 510.943 418.559 510.409 418.953 510.015C419.347 509.621 419.881 509.4 420.438 509.4H432.186C432.743 509.4 433.277 509.621 433.671 510.015C434.065 510.409 434.286 510.943 434.286 511.5C434.286 512.057 434.065 512.591 433.671 512.985C433.277 513.379 432.743 513.6 432.186 513.6V513.6Z" fill="#4C3133"/>
<path d="M417.366 486.06C416.809 486.06 416.275 485.839 415.881 485.445C415.487 485.051 415.266 484.517 415.266 483.96C415.266 483.403 415.487 482.869 415.881 482.475C416.275 482.081 416.809 481.86 417.366 481.86L460.026 481.56C460.583 481.56 461.117 481.781 461.511 482.175C461.905 482.569 462.126 483.103 462.126 483.66C462.126 484.217 461.905 484.751 461.511 485.145C461.117 485.539 460.583 485.76 460.026 485.76L417.366 486.06Z" fill="#4C3133"/>
<path d="M486.678 485.76H476.016C475.459 485.76 474.925 485.539 474.531 485.145C474.137 484.751 473.916 484.217 473.916 483.66C473.916 483.103 474.137 482.569 474.531 482.175C474.925 481.781 475.459 481.56 476.016 481.56H486.678C487.235 481.56 487.769 481.781 488.163 482.175C488.557 482.569 488.778 483.103 488.778 483.66C488.778 484.217 488.557 484.751 488.163 485.145C487.769 485.539 487.235 485.76 486.678 485.76V485.76Z" fill="#4C3133"/>
</svg>
