<svg width="79" height="29" viewBox="0 0 79 29" fill="none" xmlns="http://www.w3.org/2000/svg">
<path d="M43.354 21.912C43.1927 21.956 42.936 22 42.584 22.044C42.2467 22.088 41.9093 22.11 41.572 22.11C41.2347 22.11 40.934 22.0807 40.67 22.022C40.4207 21.978 40.208 21.89 40.032 21.758C39.856 21.626 39.724 21.4427 39.636 21.208C39.548 20.9733 39.504 20.6653 39.504 20.284V16.852H35.28V21.912C35.1187 21.956 34.862 22 34.51 22.044C34.1727 22.088 33.8353 22.11 33.498 22.11C33.1607 22.11 32.86 22.0807 32.596 22.022C32.3467 21.978 32.134 21.89 31.958 21.758C31.782 21.626 31.65 21.4427 31.562 21.208C31.474 20.9733 31.43 20.6653 31.43 20.284V8.668C31.5913 8.63867 31.848 8.602 32.2 8.558C32.552 8.49933 32.8893 8.47 33.212 8.47C33.5493 8.47 33.8427 8.49933 34.092 8.558C34.356 8.602 34.576 8.69 34.752 8.822C34.928 8.954 35.06 9.13733 35.148 9.372C35.236 9.60667 35.28 9.91467 35.28 10.296V13.816H39.504V8.668C39.6653 8.63867 39.922 8.602 40.274 8.558C40.626 8.49933 40.9633 8.47 41.286 8.47C41.6233 8.47 41.9167 8.49933 42.166 8.558C42.43 8.602 42.65 8.69 42.826 8.822C43.002 8.954 43.134 9.13733 43.222 9.372C43.31 9.60667 43.354 9.91467 43.354 10.296V21.912ZM51.5793 22.352C50.7139 22.352 49.9073 22.2347 49.1593 22C48.4259 21.7507 47.7806 21.384 47.2233 20.9C46.6806 20.416 46.2479 19.8073 45.9253 19.074C45.6173 18.3407 45.4633 17.4827 45.4633 16.5C45.4633 15.532 45.6173 14.7033 45.9253 14.014C46.2479 13.31 46.6659 12.738 47.1793 12.298C47.6926 11.8433 48.2793 11.5133 48.9393 11.308C49.5993 11.088 50.2739 10.978 50.9633 10.978C51.7406 10.978 52.4446 11.0953 53.0753 11.33C53.7206 11.5647 54.2706 11.8873 54.7253 12.298C55.1946 12.7087 55.5539 13.2 55.8033 13.772C56.0673 14.344 56.1993 14.9673 56.1993 15.642C56.1993 16.1407 56.0599 16.522 55.7812 16.786C55.5026 17.05 55.1139 17.2187 54.6153 17.292L49.1813 18.106C49.3426 18.59 49.6726 18.9567 50.1713 19.206C50.6699 19.4407 51.2419 19.558 51.8873 19.558C52.4886 19.558 53.0533 19.4847 53.5813 19.338C54.1239 19.1767 54.5639 18.9933 54.9013 18.788C55.1359 18.9347 55.3339 19.14 55.4953 19.404C55.6566 19.668 55.7373 19.9467 55.7373 20.24C55.7373 20.9 55.4293 21.3913 54.8133 21.714C54.3439 21.9633 53.8159 22.132 53.2293 22.22C52.6426 22.308 52.0926 22.352 51.5793 22.352ZM50.9633 13.706C50.6113 13.706 50.3033 13.7647 50.0393 13.882C49.7899 13.9993 49.5846 14.1533 49.4233 14.344C49.2619 14.52 49.1373 14.7253 49.0493 14.96C48.9759 15.18 48.9319 15.4073 48.9173 15.642L52.6793 15.026C52.6353 14.7327 52.4739 14.4393 52.1953 14.146C51.9166 13.8527 51.5059 13.706 50.9633 13.706ZM61.7395 21.978C61.5928 22.022 61.3581 22.066 61.0355 22.11C60.7275 22.154 60.4048 22.176 60.0675 22.176C59.7448 22.176 59.4515 22.154 59.1875 22.11C58.9381 22.066 58.7255 21.978 58.5495 21.846C58.3735 21.714 58.2341 21.538 58.1315 21.318C58.0435 21.0833 57.9995 20.7827 57.9995 20.416V13.816C57.9995 13.4787 58.0581 13.1927 58.1755 12.958C58.3075 12.7087 58.4908 12.4887 58.7255 12.298C58.9601 12.1073 59.2461 11.9387 59.5835 11.792C59.9355 11.6307 60.3095 11.4913 60.7055 11.374C61.1015 11.2567 61.5121 11.1687 61.9375 11.11C62.3628 11.0367 62.7881 11 63.2135 11C63.9175 11 64.4748 11.1393 64.8855 11.418C65.2961 11.682 65.5015 12.122 65.5015 12.738C65.5015 12.9433 65.4721 13.1487 65.4135 13.354C65.3548 13.5447 65.2815 13.7207 65.1935 13.882C64.8855 13.882 64.5701 13.8967 64.2475 13.926C63.9248 13.9553 63.6095 13.9993 63.3015 14.058C62.9935 14.1167 62.7001 14.1827 62.4215 14.256C62.1575 14.3147 61.9301 14.388 61.7395 14.476V21.978ZM77.7022 16.654C77.7022 17.5633 77.5629 18.3773 77.2842 19.096C77.0055 19.8 76.6095 20.394 76.0962 20.878C75.5975 21.362 74.9962 21.7287 74.2922 21.978C73.5882 22.2273 72.8035 22.352 71.9382 22.352C71.0729 22.352 70.2882 22.22 69.5842 21.956C68.8802 21.692 68.2715 21.318 67.7582 20.834C67.2595 20.3353 66.8709 19.734 66.5922 19.03C66.3135 18.326 66.1742 17.534 66.1742 16.654C66.1742 15.7887 66.3135 15.004 66.5922 14.3C66.8709 13.596 67.2595 13.002 67.7582 12.518C68.2715 12.0193 68.8802 11.638 69.5842 11.374C70.2882 11.11 71.0729 10.978 71.9382 10.978C72.8035 10.978 73.5882 11.1173 74.2922 11.396C74.9962 11.66 75.5975 12.0413 76.0962 12.54C76.6095 13.024 77.0055 13.618 77.2842 14.322C77.5629 15.026 77.7022 15.8033 77.7022 16.654ZM70.0022 16.654C70.0022 17.5487 70.1709 18.238 70.5082 18.722C70.8602 19.1913 71.3442 19.426 71.9602 19.426C72.5762 19.426 73.0455 19.184 73.3682 18.7C73.7055 18.216 73.8742 17.534 73.8742 16.654C73.8742 15.774 73.7055 15.0993 73.3682 14.63C73.0309 14.146 72.5542 13.904 71.9382 13.904C71.3222 13.904 70.8455 14.146 70.5082 14.63C70.1709 15.0993 70.0022 15.774 70.0022 16.654Z" fill="#3F4254"/>
<path d="M5.9452 7.49102L5.96801 7.28841C3.85335 8.37287 2.14815 10.1113 1.10791 12.2431C0.0676773 14.3749 -0.251577 16.7853 0.197989 19.1132C0.647555 21.4411 1.84173 23.5611 3.60158 25.1556C5.36143 26.75 7.59219 27.733 9.95959 27.9573C6.57333 21.6978 5.17345 14.5609 5.9452 7.49102Z" fill="#50CD89"/>
<path d="M14.9453 12.2999C15.6835 11.8752 16.4643 11.5287 17.275 11.2662C16.4644 11.0033 15.6837 10.6568 14.9453 10.2324C13.5582 9.43673 12.3426 8.37568 11.3681 7.11025C10.3937 5.84481 9.67958 4.39993 9.26691 2.85858C9.01639 1.92787 8.87716 0.97089 8.85213 0.00758076C6.28705 7.30307 6.28705 15.2513 8.85213 22.5468C8.85213 22.4227 8.85973 22.298 8.86664 22.174C8.97585 20.1551 9.58887 18.1953 10.6501 16.4724C11.7113 14.7495 13.1872 13.3179 14.9439 12.3075L14.9453 12.2999ZM15.7804 1.30386C16.5415 1.30398 17.279 1.56717 17.8673 2.04859C18.4556 2.53001 18.8582 3.19986 19.0066 3.94404C19.155 4.68821 19.04 5.46066 18.6811 6.12977C18.3223 6.79889 17.7418 7.32327 17.0386 7.61358C16.3354 7.9039 15.553 7.94218 14.8247 7.7219C14.0964 7.50162 13.4672 7.03642 13.0444 6.40555C12.6215 5.77468 12.4312 5.01717 12.5058 4.26209C12.5804 3.507 12.9153 2.80106 13.4534 2.26453C13.7587 1.95948 14.1214 1.71756 14.5207 1.5527C14.9201 1.38783 15.3481 1.30327 15.7804 1.30386Z" fill="#3E97FF"/>
<path d="M15.5405 13.3246C13.0652 14.7485 11.2431 17.077 10.4601 19.8169C9.67708 22.5568 9.9947 25.4929 11.3457 28.0034C13.2184 27.9473 15.0457 27.4148 16.654 26.4566C18.2623 25.4985 19.5981 24.1464 20.5348 22.5287C21.4714 20.9111 21.9777 19.0816 22.0056 17.2141C22.0335 15.3465 21.5821 13.5028 20.6941 11.8581C18.8809 11.9137 17.1099 12.4177 15.5405 13.3246Z" fill="#50CD89"/>
</svg>
