<svg width="23" height="29" viewBox="0 0 23 29" fill="none" xmlns="http://www.w3.org/2000/svg">
<g clip-path="url(#clip0_1_2)">
<path d="M5.94519 7.49102L5.968 7.28841C3.85334 8.37287 2.14814 10.1112 1.1079 12.2431C0.0676661 14.3749 -0.251588 16.7853 0.197978 19.1132C0.647544 21.4411 1.84172 23.5611 3.60157 25.1556C5.36142 26.75 7.59218 27.733 9.95958 27.9573C6.57332 21.6978 5.17344 14.5609 5.94519 7.49102Z" fill="#50CD89"/>
<path d="M14.9453 12.2999C15.6835 11.8752 16.4643 11.5287 17.275 11.2662C16.4644 11.0033 15.6837 10.6568 14.9453 10.2324C13.5582 9.43673 12.3426 8.37568 11.3681 7.11025C10.3937 5.84481 9.67957 4.39993 9.2669 2.85858C9.01638 1.92787 8.87715 0.97089 8.85212 0.0075798C6.28704 7.30307 6.28704 15.2513 8.85212 22.5468C8.85212 22.4227 8.85972 22.298 8.86663 22.174C8.97584 20.1551 9.58886 18.1953 10.6501 16.4724C11.7113 14.7495 13.1872 13.3179 14.9439 12.3075L14.9453 12.2999ZM15.7804 1.30386C16.5415 1.30398 17.279 1.56717 17.8673 2.04859C18.4556 2.53 18.8582 3.19986 19.0066 3.94404C19.155 4.68821 19.04 5.46066 18.6811 6.12977C18.3223 6.79889 17.7418 7.32327 17.0386 7.61358C16.3354 7.9039 15.553 7.94217 14.8247 7.7219C14.0964 7.50162 13.4672 7.03642 13.0444 6.40555C12.6215 5.77468 12.4312 5.01717 12.5058 4.26208C12.5804 3.507 12.9153 2.80106 13.4534 2.26453C13.7587 1.95947 14.1214 1.71756 14.5207 1.5527C14.9201 1.38783 15.3481 1.30327 15.7804 1.30386Z" fill="#3E97FF"/>
<path d="M15.5405 13.3246C13.0652 14.7485 11.2431 17.077 10.4601 19.8169C9.67707 22.5568 9.99469 25.4929 11.3457 28.0034C13.2184 27.9473 15.0457 27.4148 16.654 26.4566C18.2623 25.4985 19.5981 24.1464 20.5348 22.5287C21.4714 20.9111 21.9777 19.0816 22.0056 17.2141C22.0335 15.3465 21.5821 13.5028 20.6941 11.8581C18.8809 11.9137 17.1099 12.4177 15.5405 13.3246Z" fill="#50CD89"/>
</g>
<defs>
<clipPath id="clip0_1_2">
<rect width="23.0004" height="29" fill="white" transform="translate(-0.000396729)"/>
</clipPath>
</defs>
</svg>
