<svg width="32" height="23" viewBox="0 0 32 23" fill="none" xmlns="http://www.w3.org/2000/svg">
<path d="M25.3478 2.71241L30.9247 19.8622C31.3449 21.1546 30.3816 22.4807 29.0227 22.4807H25.4501C24.143 22.4807 22.9863 21.6344 22.5908 20.3886L17.3129 3.76645C16.8216 2.21886 17.9767 0.640137 19.6004 0.640137H22.4949C23.7943 0.640137 24.946 1.47669 25.3478 2.71241Z" fill="#F8285A"/>
<path d="M18.4584 15.1736L14.4 2.17401C14.1151 1.26152 13.2702 0.640137 12.3142 0.640137C11.3834 0.640137 10.6158 1.36958 10.5685 2.29921L10.0855 11.7766C10.0391 12.6886 10.1491 13.6017 10.4108 14.4765L12.3784 21.0539C12.6316 21.9006 13.4107 22.4807 14.2945 22.4807H15.8074C16.6779 22.4807 17.4485 21.9176 17.7129 21.0883L18.4475 18.7843C18.8218 17.6104 18.8256 16.3498 18.4584 15.1736Z" fill="#E9E9E9"/>
<path d="M18.4584 15.1736L14.4 2.17401C14.1151 1.26152 13.2702 0.640137 12.3142 0.640137C11.3834 0.640137 10.6158 1.36958 10.5685 2.29921L10.0855 11.7766C10.0391 12.6886 10.1491 13.6017 10.4108 14.4765L12.3784 21.0539C12.6316 21.9006 13.4107 22.4807 14.2945 22.4807H15.8074C16.6779 22.4807 17.4485 21.9176 17.7129 21.0883L18.4475 18.7843C18.8218 17.6104 18.8256 16.3498 18.4584 15.1736Z" stroke="black"/>
<path d="M9.14016 0.640137H12.2456C13.8639 0.640137 15.0184 2.20906 14.537 3.7541L9.30887 20.5326C8.91825 21.7862 7.75776 22.6401 6.44469 22.6401H2.91155C1.56808 22.6401 0.606683 21.3419 0.998489 20.0569L6.27057 2.76522C6.65549 1.50275 7.8203 0.640137 9.14016 0.640137Z" fill="#F8285A"/>
</svg>
