<svg width="36" height="37" viewBox="0 0 36 37" fill="none" xmlns="http://www.w3.org/2000/svg">
<g clip-path="url(#clip0_3302_60)">
<path fill-rule="evenodd" clip-rule="evenodd" d="M9.22081 0.640137H21.2661L31.4624 11.2781V31.957C31.4624 34.5436 29.3659 36.6401 26.7792 36.6401H9.22081C6.63412 36.6401 4.53763 34.5436 4.53763 31.957V5.32332C4.53763 2.73667 6.63412 0.640137 9.22081 0.640137Z" fill="#FF6600"/>
<path opacity="0.302" fill-rule="evenodd" clip-rule="evenodd" d="M21.2516 0.640137V11.1907H31.4624L21.2516 0.640137Z" fill="white"/>
<path d="M13.0984 27.5018H14.9183C14.9668 27.5018 15.0105 27.4678 15.0202 27.4242L15.554 25.5072H17.6166L18.1893 27.4242C18.2038 27.4678 18.2475 27.5018 18.296 27.5018H20.1839C20.247 27.5018 20.2955 27.4533 20.2955 27.3951C20.2955 27.3756 20.2906 27.3611 20.2858 27.3465L17.8787 19.5913C17.8641 19.5476 17.8253 19.5185 17.7768 19.5185H15.4715C15.423 19.5185 15.3793 19.5476 15.3696 19.5913L12.9916 27.3611C12.9819 27.3951 12.9916 27.429 13.011 27.4581C13.0305 27.4824 13.0645 27.5018 13.0984 27.5018ZM21.9601 21.1734C22.5716 21.1734 23.0132 20.7609 23.0132 20.1882C22.9987 19.601 22.5716 19.1934 21.9698 19.1934C21.6641 19.1934 21.3923 19.3001 21.203 19.4894C21.0283 19.669 20.9361 19.9213 20.941 20.1882C20.9361 20.4503 21.0283 20.6929 21.2079 20.8725C21.3923 21.0667 21.6592 21.1734 21.9601 21.1734ZM21.0963 21.649C21.0332 21.649 20.9846 21.6975 20.9846 21.7558V27.395C20.9846 27.4532 21.0332 27.5018 21.0963 27.5018H22.8482C22.9064 27.5018 22.955 27.4532 22.955 27.395V21.7558C22.955 21.6975 22.9064 21.649 22.8482 21.649H21.0963ZM17.2963 23.9785H15.8695L16.2917 22.4643C16.3645 22.1926 16.4373 21.8723 16.5101 21.5617C16.5247 21.4889 16.5392 21.4209 16.5586 21.3481C16.6508 21.7218 16.7528 22.1246 16.8547 22.4692L17.2963 23.9785Z" fill="white"/>
</g>
<defs>
<clipPath id="clip0_3302_60">
<rect width="36" height="36" fill="white" transform="translate(0 0.640137)"/>
</clipPath>
</defs>
</svg>
