<svg width="36" height="37" viewBox="0 0 36 37" fill="none" xmlns="http://www.w3.org/2000/svg">
<g clip-path="url(#clip0_3302_67)">
<path fill-rule="evenodd" clip-rule="evenodd" d="M9.22455 0.640137H21.2651L31.4638 11.2803V31.9518C31.4638 34.5395 29.3632 36.6401 26.7755 36.6401H9.22455C6.63681 36.6401 4.53618 34.5395 4.53618 31.9518V5.3285C4.53618 2.74077 6.63681 0.640137 9.22455 0.640137Z" fill="#60A313"/>
<path opacity="0.302" fill-rule="evenodd" clip-rule="evenodd" d="M21.2499 0.640137V11.189H31.4639L21.2499 0.640137Z" fill="white"/>
<path d="M13.6693 27.8418C13.4562 27.8418 13.2736 27.8114 13.1061 27.7352C12.9235 27.6743 12.7713 27.5678 12.6343 27.4308C12.4973 27.2938 12.3907 27.1416 12.3146 26.9589C12.2537 26.7915 12.2233 26.6088 12.2233 26.3957V24.4321C12.2233 24.219 12.1624 24.0667 12.0558 23.9602C11.9341 23.8689 11.7666 23.808 11.523 23.808H11.4165V22.2858H11.523C11.7666 22.2858 11.9341 22.2401 12.0558 22.1335C12.1624 22.027 12.2233 21.8748 12.2233 21.6617V19.698C12.2233 19.5002 12.2537 19.3023 12.3146 19.1348C12.3907 18.9674 12.4973 18.8 12.6343 18.663C12.7713 18.526 12.9235 18.4194 13.1061 18.3585C13.2736 18.2824 13.4562 18.252 13.6693 18.252H14.4457V19.7285H14.1869C14.0499 19.7285 13.9585 19.7589 13.8977 19.8198C13.8368 19.8959 13.8063 20.0025 13.8063 20.1547V21.9965C13.8063 22.1488 13.7759 22.301 13.7454 22.4227C13.6998 22.5445 13.6389 22.6511 13.5628 22.7424C13.4867 22.8185 13.3953 22.8947 13.2888 22.9708L13.1365 23.0469L13.2888 23.1229C13.3953 23.199 13.4866 23.2752 13.5628 23.3513C13.7302 23.5187 13.8063 23.7775 13.8063 24.0972V25.9543C13.8063 26.0913 13.8367 26.213 13.8976 26.2739C13.9585 26.3348 14.0499 26.3805 14.1868 26.3805H14.4456V27.8418L13.6693 27.8418ZM22.3307 27.8418H21.5544V26.3805H21.8131C21.9349 26.3805 22.0415 26.3348 22.1023 26.2739C22.1632 26.213 22.1937 26.0912 22.1937 25.9542V24.0972C22.1937 23.945 22.2089 23.7927 22.2546 23.671C22.285 23.5492 22.3459 23.4426 22.422 23.3513C22.4981 23.2752 22.5894 23.199 22.7112 23.1229L22.8482 23.0469L22.7112 22.9708C22.6046 22.8947 22.5134 22.8185 22.4372 22.7424C22.3459 22.6511 22.285 22.5445 22.2545 22.4227C22.2089 22.301 22.1936 22.1487 22.1936 21.9965V20.1547C22.1936 20.0024 22.1632 19.8959 22.1023 19.8198C22.0414 19.7589 21.9349 19.7285 21.8131 19.7285H21.5543V18.252H22.3306C22.5285 18.252 22.7264 18.2824 22.8938 18.3585C23.0765 18.4194 23.2287 18.526 23.3657 18.663C23.5027 18.8 23.6092 18.9522 23.6701 19.1348C23.7462 19.3023 23.7767 19.5002 23.7767 19.698V21.6617C23.7767 21.8748 23.8376 22.027 23.9442 22.1335C24.0507 22.2401 24.2334 22.2858 24.4769 22.2858H24.5835V23.808H24.4769C24.2334 23.808 24.0507 23.8689 23.9442 23.9602C23.8376 24.0668 23.7767 24.219 23.7767 24.4321V26.3957C23.7767 26.8067 23.6397 27.1568 23.3657 27.4308C23.2287 27.5678 23.0765 27.6743 22.8938 27.7352C22.7265 27.8114 22.5285 27.8418 22.3307 27.8418ZM17.6118 21.1898H19.271V22.8947H17.5053V21.1898H17.6118ZM16.6985 27.5069L17.3987 24.6147H19.3776C18.8601 25.6194 18.3577 26.624 17.8554 27.6439H16.6681L16.6985 27.5069Z" fill="white"/>
</g>
<defs>
<clipPath id="clip0_3302_67">
<rect width="36" height="36" fill="white" transform="translate(0 0.640137)"/>
</clipPath>
</defs>
</svg>
