<svg width="36" height="37" viewBox="0 0 36 37" fill="none" xmlns="http://www.w3.org/2000/svg">
<g clip-path="url(#clip0_3302_81)">
<path fill-rule="evenodd" clip-rule="evenodd" d="M9.22491 0.640137H21.2609L31.4618 11.2728V31.9535C31.4618 34.5442 29.3658 36.6401 26.7841 36.6401H9.22491C6.63421 36.6401 4.53827 34.5442 4.53827 31.9535V5.32678C4.53822 2.73608 6.63417 0.640137 9.22491 0.640137Z" fill="#E5252A"/>
<path opacity="0.302" fill-rule="evenodd" clip-rule="evenodd" d="M21.2519 0.640137V11.1919H31.4618L21.2519 0.640137Z" fill="white"/>
<path d="M9.74663 27.5006V20.9249H12.5442C13.2369 20.9249 13.7856 21.1138 14.1994 21.5006C14.6132 21.8784 14.8201 22.3912 14.8201 23.0299C14.8201 23.6685 14.6132 24.1813 14.1994 24.5591C13.7856 24.9459 13.2369 25.1348 12.5442 25.1348H11.4288V27.5006H9.74663ZM11.4288 23.7046H12.3553C12.6072 23.7046 12.8051 23.6506 12.9401 23.5247C13.075 23.4077 13.147 23.2458 13.147 23.0299C13.147 22.814 13.075 22.6521 12.9401 22.5352C12.8051 22.4092 12.6072 22.3553 12.3553 22.3553H11.4288V23.7046ZM15.5127 27.5006V20.9249H17.8426C18.3013 20.9249 18.7331 20.9879 19.1379 21.1228C19.5427 21.2577 19.9115 21.4467 20.2354 21.7076C20.5592 21.9594 20.8201 22.3012 21.009 22.733C21.1889 23.1648 21.2879 23.6596 21.2879 24.2173C21.2879 24.766 21.1889 25.2608 21.009 25.6925C20.8201 26.1243 20.5592 26.4662 20.2354 26.718C19.9115 26.9789 19.5427 27.1678 19.1379 27.3027C18.7331 27.4376 18.3013 27.5006 17.8426 27.5006H15.5127ZM17.1589 26.0704H17.6447C17.9055 26.0704 18.1484 26.0434 18.3733 25.9804C18.5892 25.9175 18.7961 25.8185 18.994 25.6836C19.1829 25.5487 19.3358 25.3597 19.4438 25.1079C19.5517 24.856 19.6057 24.5591 19.6057 24.2173C19.6057 23.8665 19.5517 23.5696 19.4438 23.3178C19.3358 23.0659 19.1829 22.877 18.994 22.742C18.7961 22.6071 18.5892 22.5082 18.3733 22.4452C18.1484 22.3822 17.9055 22.3552 17.6447 22.3552H17.1589V26.0704ZM22.1334 27.5006V20.9249H26.8111V22.3552H23.8156V23.4077H26.2084V24.829H23.8156V27.5006H22.1334Z" fill="white"/>
</g>
<defs>
<clipPath id="clip0_3302_81">
<rect width="36" height="36" fill="white" transform="translate(0 0.640137)"/>
</clipPath>
</defs>
</svg>
